<?xml version="1.0" encoding="utf-8"?>
<!-- Generator: Adobe Illustrator 26.2.1, SVG Export Plug-In . SVG Version: 6.00 Build 0)  -->
<svg version="1.1" id="Layer_1" xmlns="http://www.w3.org/2000/svg" xmlns:xlink="http://www.w3.org/1999/xlink" x="0px" y="0px"
	 viewBox="0 0 56.69 56.69" style="enable-background:new 0 0 56.69 56.69;" xml:space="preserve">
<g>
	<g>
		<g>
			<path d="M25.97,8.29c-0.48,0.36-0.91,0.78-1.27,1.27c-0.12,0.15,0.1,0.32,0.24,0.24c0.9-0.46,1.77-0.97,2.61-1.52
				C27.48,8.19,27.41,8.1,27.34,8c-0.54,0.5-1.07,1-1.52,1.58c-0.1,0.13,0.06,0.3,0.2,0.26c0.58-0.18,1.14-0.4,1.69-0.66
				C27.63,9.1,27.56,9,27.49,8.91c-0.32,0.39-0.63,0.77-0.95,1.16c-0.12,0.15,0.03,0.38,0.21,0.28c0.87-0.46,1.69-1,2.46-1.61
				c-0.08-0.08-0.17-0.17-0.25-0.25c-0.39,0.43-0.81,0.83-1.26,1.2c0.09,0.07,0.19,0.14,0.28,0.21c0.16-0.33,0.33-0.66,0.49-0.98
				c0.08-0.16-0.08-0.32-0.24-0.24c-0.26,0.12-0.53,0.25-0.79,0.37c0.08,0.08,0.16,0.16,0.24,0.24c0.09-0.21,0.16-0.52-0.09-0.66
				c-0.19-0.11-0.41-0.03-0.49,0.17c-0.08,0.21,0.26,0.31,0.34,0.09c-0.03,0.07-0.04,0.14-0.07,0.22c-0.07,0.16,0.08,0.32,0.24,0.24
				c0.26-0.12,0.53-0.25,0.79-0.37c-0.08-0.08-0.16-0.16-0.24-0.24c-0.16,0.33-0.33,0.66-0.49,0.98c-0.09,0.19,0.12,0.34,0.28,0.21
				c0.45-0.37,0.87-0.77,1.26-1.2c0.16-0.17-0.07-0.39-0.25-0.25c-0.75,0.59-1.55,1.11-2.39,1.55c0.07,0.09,0.14,0.19,0.21,0.28
				c0.32-0.39,0.63-0.77,0.95-1.16c0.13-0.16-0.03-0.37-0.21-0.28c-0.52,0.25-1.06,0.45-1.6,0.62c0.07,0.09,0.13,0.17,0.2,0.26
				c0.43-0.56,0.95-1.04,1.47-1.51c0.15-0.13-0.05-0.39-0.21-0.28c-0.84,0.55-1.72,1.06-2.61,1.52c0.08,0.08,0.16,0.16,0.24,0.24
				c0.33-0.43,0.71-0.82,1.14-1.14C26.33,8.47,26.15,8.16,25.97,8.29L25.97,8.29z"/>
		</g>
	</g>
	<g>
		<g>
			<path d="M36.31,27.06c0.03,0.06,0.06,0.11,0.09,0.17c0.1,0.18,0.36,0.05,0.32-0.14c-0.13-0.64-0.59-1.11-1.23-1.23
				c-0.08-0.02-0.16,0.01-0.2,0.08c-0.25,0.46-0.51,0.92-0.78,1.37c-0.05,0.08-0.02,0.2,0.06,0.24c0.54,0.26,1.01,0.59,1.44,1.01
				c0.14,0.13,0.32-0.01,0.3-0.17c-0.11-0.7-0.41-1.31-0.88-1.84c-0.1-0.11-0.32-0.03-0.3,0.13c0.05,0.41,0.1,0.82,0.17,1.23
				c0.03,0.16,0.25,0.16,0.32,0.04c0.23-0.37,0.32-0.73,0.28-1.16c-0.01-0.1-0.11-0.22-0.22-0.17c-0.4,0.16-0.69,0.41-0.86,0.81
				c-0.07,0.17,0.14,0.39,0.28,0.21c0.2-0.25,0.4-0.49,0.6-0.74c-0.1-0.06-0.2-0.11-0.3-0.17c-0.06,0.3-0.03,0.51,0.11,0.78
				c0.04,0.08,0.17,0.11,0.24,0.06c0.25-0.17,0.48-0.35,0.71-0.56c-0.1-0.06-0.2-0.11-0.3-0.17c-0.11,0.28-0.15,0.51-0.14,0.81
				c0.01,0.12,0.15,0.24,0.27,0.15c0.21-0.16,0.42-0.32,0.63-0.49c-0.09-0.07-0.17-0.13-0.26-0.2c-0.05,0.29-0.08,0.58-0.07,0.88
				c0,0.13,0.15,0.22,0.27,0.15c0.16-0.09,0.32-0.19,0.47-0.28c-0.09-0.07-0.17-0.13-0.26-0.2c-0.03,0.18-0.06,0.36-0.09,0.54
				c-0.02,0.13,0.12,0.3,0.26,0.2c0.42-0.32,0.77-0.68,1.07-1.11c-0.11-0.05-0.22-0.09-0.32-0.14c-0.18,0.48-0.29,0.95-0.35,1.46
				c-0.02,0.19,0.24,0.22,0.33,0.09c0.34-0.49,0.61-1.01,0.84-1.56c0.08-0.21-0.26-0.3-0.34-0.09c-0.16,0.41-0.33,0.82-0.49,1.23
				c-0.07,0.17,0.18,0.3,0.3,0.17c0.6-0.68,1.21-1.37,1.81-2.05c-0.09-0.07-0.19-0.14-0.28-0.21c-0.15,0.23-0.31,0.47-0.46,0.7
				c-0.11,0.17,0.14,0.36,0.28,0.21c0.56-0.59,1.06-1.21,1.51-1.89c0.1-0.15-0.1-0.33-0.24-0.24c-0.25,0.15-0.5,0.31-0.75,0.46
				c0.07,0.09,0.14,0.19,0.21,0.28c0.52-0.49,1.04-0.98,1.56-1.47c0.11-0.11,0.02-0.3-0.13-0.3c-0.68-0.01-1.26,0.27-1.85,0.58
				c0.06,0.1,0.12,0.2,0.18,0.31c0.35-0.27,0.69-0.53,1.04-0.8c0.18-0.14,0.03-0.4-0.18-0.31c-0.44,0.19-0.87,0.39-1.31,0.58
				c0.06,0.1,0.12,0.2,0.18,0.31c0.57-0.39,1.1-0.82,1.6-1.3c0.08-0.07,0.07-0.23-0.04-0.28c-0.31-0.14-0.57-0.17-0.89-0.04
				c0.07,0.07,0.15,0.15,0.22,0.22c0.27-0.97,1.63-2.08,0.85-3.14c-0.26-0.35-0.67-0.51-1.09-0.35c-0.22,0.09-0.42,0.24-0.64,0.34
				c-0.22,0.1-0.45,0.19-0.69,0.25c-0.17,0.05-0.66,0.25-0.34-0.23c0.1,0,0.2,0,0.31,0c-0.08-0.16-0.17-0.31-0.25-0.47
				c-0.1,0.06-0.2,0.12-0.31,0.18c0.11,0.18,0.21,0.36,0.32,0.55c0.06,0.11,0.25,0.12,0.31,0c0.07-0.13,0.09-0.19,0.02-0.33
				c-0.02-0.05-0.07-0.08-0.09-0.12c-0.14-0.05-0.18-0.17-0.13-0.34c-0.07-0.16-0.06-0.3,0.04-0.42c0.22-0.64,0.41-1.17,0.39-1.86
				c-0.04,0.06-0.09,0.11-0.13,0.17c0.81-0.2,0.46,0.88,0.35,1.11c-0.1,0.2,0.19,0.38,0.31,0.18c0.06-0.1,0.11-0.19,0.17-0.29
				c-0.11-0.03-0.22-0.06-0.33-0.09c-0.02,0.19-0.01,0.36,0.02,0.55c0.01,0.08,0.1,0.13,0.17,0.13c0.07,0,0.15,0,0.22,0
				c-0.05-0.09-0.1-0.18-0.15-0.27c-0.16,0.36-0.33,0.71-0.51,1.06c0.11,0.05,0.22,0.09,0.32,0.14c0.15-0.97,0.99,0.1,1.08,0.25
				c0.11,0.18,0.17,0.39,0.24,0.6c0.1,0.32,0.17,0.65,0.23,0.98c0.16,0.85,0.2,1.72-0.2,2.51c0.11,0.05,0.22,0.09,0.32,0.14
				c0.59-1.8,0.69-3.79-0.23-5.49c-0.09-0.17-0.39-0.06-0.32,0.14c0.48,1.34,0.49,2.75,0.04,4.1c-0.07,0.22,0.27,0.31,0.34,0.09
				c0.47-1.4,0.45-2.89-0.04-4.29c-0.11,0.05-0.22,0.09-0.32,0.14c0.88,1.62,0.75,3.51,0.19,5.22c-0.06,0.19,0.23,0.32,0.32,0.14
				c0.62-1.22,0.37-2.77-0.08-4.02c-0.17-0.47-0.47-0.99-0.98-1.15c-0.43-0.13-0.86,0.09-0.93,0.54c-0.03,0.18,0.22,0.33,0.32,0.14
				c0.19-0.35,0.36-0.7,0.51-1.06c0.05-0.12-0.01-0.27-0.15-0.27c-0.07,0-0.15,0-0.22,0c0.06,0.04,0.11,0.09,0.17,0.13
				c-0.03-0.15-0.03-0.3-0.01-0.46c0.02-0.18-0.25-0.23-0.33-0.09c-0.06,0.1-0.11,0.19-0.17,0.29c0.1,0.06,0.2,0.12,0.31,0.18
				c0.2-0.4,0.37-0.89,0.1-1.3c-0.19-0.3-0.51-0.42-0.85-0.33c-0.07,0.02-0.13,0.09-0.13,0.17c0.01,0.43-0.03,0.85-0.16,1.25
				c-0.1,0.3-0.33,0.6-0.38,0.91c-0.02,0.13-0.02,0.26,0.03,0.38c0.01,0.03,0.3,0.42,0.34,0.34c0.1,0,0.2,0,0.31,0
				c-0.11-0.18-0.21-0.36-0.32-0.55c-0.11-0.2-0.41-0.02-0.31,0.18c0.08,0.16,0.17,0.31,0.25,0.47c0.07,0.12,0.24,0.11,0.31,0
				c0.24-0.36-0.15-0.69-0.52-0.55c-0.42,0.15-0.49,0.64-0.32,1c0.02,0.05,0.1,0.09,0.15,0.09c0.47-0.05,0.93-0.15,1.37-0.33
				c0.44-0.18,0.97-0.71,1.42-0.27c0.78,0.77-0.63,2.14-0.85,2.92c-0.03,0.12,0.09,0.27,0.22,0.22c0.19-0.1,0.4-0.1,0.62,0
				c-0.01-0.09-0.02-0.19-0.04-0.28c-0.48,0.46-0.98,0.87-1.53,1.24c-0.19,0.13-0.03,0.4,0.18,0.31c0.44-0.19,0.87-0.39,1.31-0.58
				c-0.06-0.1-0.12-0.2-0.18-0.31c-0.35,0.27-0.69,0.53-1.04,0.8c-0.18,0.14-0.03,0.42,0.18,0.31c0.53-0.28,1.05-0.54,1.67-0.53
				c-0.04-0.1-0.08-0.2-0.13-0.3c-0.52,0.49-1.04,0.98-1.56,1.47c-0.15,0.14,0.04,0.38,0.21,0.28c0.25-0.15,0.5-0.31,0.75-0.46
				c-0.08-0.08-0.16-0.16-0.24-0.24c-0.43,0.65-0.92,1.25-1.46,1.82c0.09,0.07,0.19,0.14,0.28,0.21c0.15-0.23,0.31-0.47,0.46-0.7
				c0.11-0.17-0.14-0.37-0.28-0.21c-0.6,0.68-1.21,1.37-1.81,2.05c0.1,0.06,0.2,0.11,0.3,0.17c0.16-0.41,0.33-0.82,0.49-1.23
				c-0.11-0.03-0.23-0.06-0.34-0.09c-0.21,0.53-0.48,1.01-0.8,1.48c0.11,0.03,0.22,0.06,0.33,0.09c0.05-0.47,0.17-0.92,0.34-1.36
				c0.08-0.2-0.22-0.29-0.32-0.14c-0.26,0.38-0.57,0.7-0.94,0.98c0.09,0.07,0.17,0.13,0.26,0.2c0.03-0.18,0.06-0.36,0.09-0.54
				c0.03-0.15-0.12-0.28-0.26-0.2c-0.16,0.09-0.32,0.19-0.47,0.28c0.09,0.05,0.18,0.1,0.27,0.15c-0.01-0.28,0.01-0.51,0.06-0.79
				c0.02-0.13-0.12-0.3-0.26-0.2c-0.21,0.16-0.42,0.32-0.63,0.49c0.09,0.05,0.18,0.1,0.27,0.15c-0.01-0.26,0.03-0.48,0.12-0.72
				c0.07-0.17-0.18-0.28-0.3-0.17c-0.2,0.19-0.41,0.35-0.63,0.5c0.08,0.02,0.16,0.04,0.24,0.06c-0.02-0.17-0.05-0.34-0.07-0.51
				c0.03-0.15-0.17-0.32-0.3-0.17c-0.2,0.25-0.4,0.49-0.6,0.74c0.09,0.07,0.19,0.14,0.28,0.21c0.14-0.31,0.33-0.52,0.65-0.65
				c-0.07-0.06-0.15-0.11-0.22-0.17c0.03,0.37-0.04,0.67-0.23,0.98c0.11,0.01,0.22,0.03,0.32,0.04c-0.06-0.38-0.12-0.76-0.16-1.14
				c-0.1,0.04-0.2,0.08-0.3,0.13c0.43,0.48,0.69,1.04,0.79,1.68c0.1-0.06,0.2-0.11,0.3-0.17c-0.45-0.44-0.94-0.79-1.51-1.06
				c0.02,0.08,0.04,0.16,0.06,0.24c0.27-0.45,0.54-0.9,0.78-1.37c-0.07,0.03-0.13,0.05-0.2,0.08c0.53,0.11,0.88,0.45,0.99,0.99
				c0.11-0.05,0.22-0.09,0.32-0.14c-0.03-0.06-0.06-0.11-0.09-0.17C36.51,26.68,36.2,26.86,36.31,27.06L36.31,27.06z"/>
		</g>
	</g>
	<g>
		<g>
			<path d="M36.38,28.06c0.04,0.07,0.09,0.13,0.13,0.2c0.07,0.1,0.25,0.13,0.31,0c0.19-0.44,0.36-0.88,0.51-1.34
				c-0.12-0.02-0.23-0.03-0.35-0.05c0.11,0.84,0.21,1.68,0.32,2.53c0.03,0.22,0.35,0.23,0.35,0c0.02-0.65-0.05-1.29-0.2-1.92
				c-0.05-0.19-0.37-0.15-0.35,0.05c0.05,0.46,0.17,0.89,0.35,1.31c0.08,0.18,0.32,0.06,0.33-0.09c0.05-0.55,0.02-1.1-0.06-1.65
				c-0.11,0.05-0.22,0.09-0.32,0.14c0.27,0.4,0.6,0.73,1,1.01c0.1,0.07,0.22-0.01,0.26-0.11c0.23-0.64,0.17-1.27-0.15-1.86
				c-0.05,0.09-0.1,0.18-0.15,0.27c0.46,0.06,0.85,0.23,1.22,0.5c0.06-0.1,0.12-0.2,0.18-0.31c-0.38-0.2-0.76-0.31-1.18-0.37
				c-0.18-0.02-0.23,0.25-0.09,0.33c0.42,0.23,0.93,0.52,0.94,1.07c0.09-0.05,0.18-0.1,0.27-0.15c-0.37-0.2-0.66-0.47-0.88-0.83
				c-0.1-0.16-0.31-0.08-0.33,0.09c-0.05,0.52-0.06,1.03-0.04,1.56c0.01,0.23,0.35,0.23,0.35,0c0.01-0.46,0.01-0.91,0.02-1.37
				c0-0.21-0.28-0.23-0.35-0.05c-0.11,0.3-0.22,0.59-0.35,0.88c-0.1,0.23-0.14,0.49-0.43,0.32c-0.11-0.07-0.21-0.21-0.32-0.29
				c-0.28-0.19-0.74-0.29-0.75-0.75c-0.11,0.03-0.22,0.06-0.33,0.09c0.23,0.47,0.55,0.84,0.99,1.14c0.05,0.03,0.13,0.03,0.18,0
				c0.35-0.26,0.45-0.64,0.24-1.03c-0.05-0.08-0.16-0.11-0.24-0.06c-0.37,0.21-0.56,0.54-0.55,0.97c0,0.15,0.19,0.23,0.3,0.13
				c0.36-0.36,0.69-0.74,1-1.14c0.14-0.18-0.07-0.4-0.25-0.25c-0.17,0.14-0.24,0.26-0.28,0.46c-0.04,0.16,0.17,0.31,0.3,0.17
				c0.53-0.59,0.99-1.23,1.39-1.92c-0.11-0.05-0.22-0.09-0.32-0.14c-0.17,0.6-0.34,1.19-0.51,1.79c-0.05,0.19,0.17,0.27,0.3,0.17
				c0.5-0.4,0.91-0.86,1.24-1.4c0.09-0.14-0.1-0.35-0.24-0.24c-0.39,0.3-0.74,0.64-1.05,1.02c-0.12,0.14,0.03,0.4,0.21,0.28
				c0.49-0.33,0.89-0.71,1.25-1.18c0.12-0.16-0.1-0.31-0.24-0.24c-0.4,0.19-0.74,0.43-1.06,0.74c-0.17,0.16,0.08,0.4,0.25,0.25
				c0.43-0.37,0.81-0.78,1.15-1.24c0.11-0.14-0.07-0.28-0.2-0.26c-0.43,0.06-0.79,0.21-1.13,0.48c-0.18,0.14-0.03,0.42,0.18,0.31
				c0.45-0.25,0.85-0.54,1.22-0.89c0.15-0.15-0.04-0.36-0.21-0.28c-0.32,0.15-0.58,0.33-0.84,0.57c0.08,0.08,0.17,0.17,0.25,0.25
				c0.41-0.42,0.75-0.88,1.02-1.4c0.08-0.15-0.08-0.33-0.24-0.24c-0.22,0.13-0.4,0.27-0.58,0.45c-0.16,0.16,0.09,0.41,0.25,0.25
				c0.39-0.4,0.79-0.81,1.18-1.21c0.16-0.16-0.09-0.41-0.25-0.25c-0.26,0.27-0.52,0.53-0.78,0.8c0.08,0.08,0.17,0.17,0.25,0.25
				c0.33-0.37,0.66-0.75,0.99-1.12c0.12-0.14-0.05-0.41-0.21-0.28c-0.3,0.23-0.59,0.46-0.89,0.68c0.08,0.08,0.16,0.16,0.24,0.24
				c0.13-0.31,0.26-0.61,0.39-0.92c0.07-0.16-0.07-0.34-0.24-0.24c-0.36,0.2-0.67,0.43-0.97,0.71c-0.17,0.16,0.08,0.41,0.25,0.25
				c0.72-0.67,1.42-1.37,2.09-2.09c0.13-0.14-0.05-0.4-0.21-0.28c-0.67,0.49-1.33,0.97-2,1.46c0.07,0.09,0.14,0.19,0.21,0.28
				c0.45-0.42,0.94-0.78,1.47-1.11c-0.06-0.1-0.12-0.2-0.18-0.31c-0.43,0.31-0.83,0.64-1.2,1.02c-0.28,0.28-0.61,0.55-0.57,0.97
				c0.01,0.1,0.07,0.18,0.18,0.18c0.41,0,0.81-0.03,1.2-0.15c0.12-0.03,0.47-0.24,0.59-0.23c0.26,0.22,0.28,0.37,0.06,0.46
				c-0.06,0.04-0.13,0.08-0.19,0.12c-0.53,0.33-1.03,0.64-1.27,1.25c-0.05,0.14,0.1,0.24,0.22,0.22c0.74-0.15,1.38-0.49,1.93-0.99
				c0.13-0.12,0-0.36-0.17-0.3c-0.94,0.34-1.85,0.73-2.74,1.18c0.07,0.09,0.14,0.19,0.21,0.28c0.67-0.55,1.33-1.1,2-1.65
				c0.15-0.12-0.02-0.33-0.17-0.3c-0.4,0.08-0.8,0.16-1.21,0.24c0.05,0.11,0.09,0.22,0.14,0.32c0.54-0.35,1.05-0.73,1.53-1.16
				c0.15-0.14-0.04-0.37-0.21-0.28c-0.63,0.35-1.27,0.69-1.9,1.04c0.07,0.09,0.14,0.19,0.21,0.28c0.89-0.72,1.8-1.52,2.01-2.7
				c0.03-0.18-0.16-0.29-0.3-0.17c-0.39,0.34-0.73,0.71-1.02,1.14c0.07-0.03,0.13-0.05,0.2-0.08c-0.08-0.02,0-1.8,0-2.01
				c0-0.14-0.2-0.25-0.3-0.13c-0.49,0.6-0.13,1.24,0.3,1.75c0.04,0.05,0.12,0.06,0.17,0.05c0.41-0.11,0.28-0.56,0.22-0.88
				c-0.15-0.79-0.3-1.57-0.45-2.36c-0.11,0.03-0.23,0.06-0.34,0.09c0.28,0.76,0.52,1.53,0.7,2.32c0.04,0.15,0.25,0.17,0.32,0.04
				c0.23-0.37,0.34-0.75,0.36-1.19c0-0.16-0.19-0.23-0.3-0.13c-0.44,0.42-0.83,0.88-1.18,1.39c-0.13,0.19,0.17,0.36,0.31,0.18
				c0.08-0.11,0.16-0.22,0.24-0.33c-0.11-0.03-0.22-0.06-0.33-0.09c0.01,0.11,0.02,0.22,0.03,0.33c0.02,0.22,0.35,0.23,0.35,0
				c0.01-0.31-0.25-0.39-0.51-0.31c0.07,0.06,0.15,0.11,0.22,0.17c0.03-0.43,0.06-0.87,0.09-1.3c0.01-0.14-0.16-0.21-0.27-0.15
				c-0.3,0.15-0.51,0.33-0.71,0.6c0.11,0.05,0.22,0.09,0.32,0.14c0.16-0.46,0.35-0.91,0.58-1.34c0.1-0.2-0.2-0.38-0.31-0.18
				c-0.35,0.67-0.66,1.35-0.93,2.06c-0.07,0.19,0.23,0.31,0.32,0.14c0.36-0.63,0.68-1.28,0.96-1.94c0.09-0.2-0.19-0.38-0.31-0.18
				c-0.31,0.53-0.58,1.07-0.81,1.63c-0.03,0.06,0.02,0.17,0.08,0.2c0.86,0.38,1.44-2.39,0.99-2.89c-0.34-0.38-0.84,0.04-1.08,0.31
				c-0.48,0.55-0.77,1.27-1.45,1.63c0.07,0.01,0.14,0.02,0.21,0.03c-0.04-0.03-0.08-0.07-0.12-0.1c0.11-0.57,0.15-0.69,0.11-0.36
				c-0.02,0.18-0.05,0.33-0.11,0.51c-0.06,0.18,0.17,0.28,0.3,0.17c0.13-0.11,0.14-0.13,0.24-0.26c-0.09,0.01-0.19,0.02-0.28,0.04
				c0.05,0.06,0.09,0.11,0.14,0.17c0.07,0.09,0.23,0.06,0.28-0.04c0.19-0.34,0.37-0.68,0.56-1.02c-0.11-0.03-0.22-0.06-0.33-0.09
				c0.02,0.43,0.05,0.85,0.07,1.28c0.01,0.23,0.35,0.23,0.35,0c0.03-0.72,0.05-1.43,0.08-2.15c-0.12,0-0.24,0-0.35,0
				c0,0.73,0.06,1.45,0.2,2.16c0.07,0.35,0.15,0.69,0.25,1.03c0.13,0.45,0.36,0.9,0.27,1.38c0.12,0.02,0.23,0.03,0.35,0.05
				c-0.02-0.49,0.01-0.95,0.11-1.44c-0.12-0.02-0.23-0.03-0.35-0.05c0.04,0.84-0.19,1.62-0.59,2.36c-0.28,0.52-0.83,1.03-0.77,1.66
				c0.01,0.14,0.14,0.22,0.27,0.15c0.3-0.15,0.5-0.34,0.7-0.61c-0.1-0.06-0.2-0.12-0.31-0.18c-0.32,0.67-0.65,1.37-1.19,1.9
				c-0.4,0.4-0.79,0.61-1.33,0.3c-0.42-0.24-0.83-0.49-1.25-0.73c-0.11-0.07-0.27,0.02-0.27,0.15c0.04,0.95,0.57,1.77,1.43,2.18
				c0.2,0.1,0.38-0.2,0.18-0.31c-0.21-0.11-0.42-0.22-0.63-0.34c-0.2-0.11-0.38,0.2-0.18,0.31c0.21,0.11,0.42,0.22,0.63,0.34
				c0.06-0.1,0.12-0.2,0.18-0.31c-0.75-0.36-1.22-1.04-1.25-1.87c-0.09,0.05-0.18,0.1-0.27,0.15c0.54,0.31,1.09,0.73,1.66,0.97
				c0.34,0.14,0.65-0.05,0.93-0.24c0.8-0.55,1.25-1.47,1.66-2.32c0.1-0.21-0.17-0.36-0.31-0.18c-0.16,0.22-0.34,0.36-0.57,0.48
				c0.09,0.05,0.18,0.1,0.27,0.15c-0.04-0.48,0.35-0.86,0.58-1.23c0.17-0.28,0.32-0.57,0.44-0.88c0.25-0.61,0.37-1.25,0.34-1.91
				c-0.01-0.19-0.3-0.25-0.35-0.05c-0.11,0.51-0.15,1.01-0.13,1.53c0.01,0.19,0.31,0.25,0.35,0.05c0.13-0.68-0.22-1.33-0.38-1.98
				c-0.22-0.88-0.32-1.78-0.32-2.69c0-0.23-0.35-0.23-0.35,0c-0.03,0.72-0.05,1.43-0.08,2.15c0.12,0,0.24,0,0.35,0
				c-0.02-0.43-0.05-0.85-0.07-1.28c-0.01-0.17-0.24-0.25-0.33-0.09c-0.19,0.34-0.37,0.68-0.56,1.02c0.09-0.01,0.19-0.02,0.28-0.04
				c-0.05-0.06-0.09-0.11-0.14-0.17c-0.08-0.1-0.22-0.05-0.28,0.04c-0.06,0.06-0.12,0.13-0.18,0.19c0.1,0.06,0.2,0.11,0.3,0.17
				c0.1-0.31,0.14-0.61,0.13-0.94c0-0.06-0.03-0.13-0.09-0.15c-0.29-0.13-0.61-0.08-0.8,0.21c-0.23,0.35,0,0.76,0.28,0.99
				c0.06,0.05,0.14,0.07,0.21,0.03c0.61-0.31,0.92-0.88,1.31-1.42c0.09-0.12,0.26-0.42,0.41-0.48c0.53-0.21,0.41,0.31,0.39,0.55
				c-0.01,0.15-0.37,1.78-0.58,1.69c0.03,0.07,0.05,0.13,0.08,0.2c0.22-0.54,0.48-1.05,0.78-1.55c-0.1-0.06-0.2-0.12-0.31-0.18
				c-0.29,0.67-0.61,1.31-0.96,1.94c0.11,0.05,0.22,0.09,0.32,0.14c0.26-0.68,0.56-1.33,0.9-1.97c-0.1-0.06-0.2-0.12-0.31-0.18
				c-0.24,0.46-0.44,0.93-0.61,1.43c-0.07,0.21,0.21,0.28,0.32,0.14c0.16-0.21,0.35-0.35,0.59-0.47c-0.09-0.05-0.18-0.1-0.27-0.15
				c-0.03,0.43-0.06,0.87-0.09,1.3c-0.01,0.11,0.12,0.2,0.22,0.17c0.02-0.01,0.04-0.02,0.06-0.03c0.12,0,0.24,0,0.35,0
				c-0.01-0.11-0.02-0.22-0.03-0.33c-0.02-0.18-0.22-0.23-0.33-0.09c-0.08,0.11-0.16,0.22-0.24,0.33c0.1,0.06,0.2,0.12,0.31,0.18
				c0.33-0.48,0.7-0.91,1.12-1.31c-0.1-0.04-0.2-0.08-0.3-0.13c-0.01,0.38-0.11,0.68-0.31,1.01c0.11,0.01,0.22,0.03,0.32,0.04
				c-0.18-0.79-0.42-1.56-0.7-2.32c-0.08-0.21-0.38-0.13-0.34,0.09c0.11,0.58,0.22,1.16,0.33,1.75c0.05,0.27,0.15,0.57,0.17,0.85
				c0.02,0.31-0.16-0.14-0.2-0.24c-0.11-0.25-0.16-0.5,0.05-0.75c-0.1-0.04-0.2-0.08-0.3-0.13c0,0.62-0.03,1.25,0,1.87
				c0.01,0.22,0.02,0.42,0.26,0.47c0.08,0.02,0.15-0.01,0.2-0.08c0.28-0.4,0.59-0.75,0.97-1.06c-0.1-0.06-0.2-0.11-0.3-0.17
				c-0.2,1.12-1.08,1.86-1.92,2.54c-0.16,0.13,0.04,0.37,0.21,0.28c0.63-0.35,1.27-0.69,1.9-1.04c-0.07-0.09-0.14-0.19-0.21-0.28
				c-0.46,0.41-0.94,0.77-1.46,1.11c-0.17,0.11-0.06,0.36,0.14,0.32c0.4-0.08,0.8-0.16,1.21-0.24c-0.06-0.1-0.11-0.2-0.17-0.3
				c-0.67,0.55-1.33,1.1-2,1.65c-0.16,0.13,0.04,0.36,0.21,0.28c0.86-0.43,1.75-0.81,2.66-1.14c-0.06-0.1-0.11-0.2-0.17-0.3
				c-0.51,0.47-1.1,0.76-1.78,0.9c0.07,0.07,0.15,0.15,0.22,0.22c0.22-0.58,0.81-0.84,1.29-1.16c0.29-0.19,0.65-0.46,0.55-0.87
				c-0.07-0.27-0.32-0.39-0.58-0.35c-0.28,0.04-0.53,0.22-0.79,0.31c-0.39,0.13-0.79,0.17-1.2,0.17c0.06,0.06,0.12,0.12,0.18,0.18
				c-0.05-0.56,1.2-1.39,1.6-1.68c0.18-0.13,0.02-0.43-0.18-0.31c-0.55,0.34-1.06,0.72-1.54,1.16c-0.15,0.13,0.05,0.4,0.21,0.28
				c0.67-0.49,1.33-0.97,2-1.46c-0.07-0.09-0.14-0.19-0.21-0.28c-0.67,0.72-1.37,1.42-2.09,2.09c0.08,0.08,0.17,0.17,0.25,0.25
				c0.28-0.26,0.57-0.47,0.9-0.65c-0.08-0.08-0.16-0.16-0.24-0.24c-0.13,0.31-0.26,0.61-0.39,0.92c-0.06,0.14,0.08,0.37,0.24,0.24
				c0.3-0.23,0.59-0.46,0.89-0.68c-0.07-0.09-0.14-0.19-0.21-0.28c-0.33,0.37-0.66,0.75-0.99,1.12c-0.15,0.17,0.09,0.42,0.25,0.25
				c0.26-0.27,0.52-0.53,0.78-0.8c-0.08-0.08-0.17-0.17-0.25-0.25c-0.39,0.4-0.79,0.81-1.18,1.21c0.08,0.08,0.17,0.17,0.25,0.25
				c0.15-0.16,0.32-0.29,0.51-0.4c-0.08-0.08-0.16-0.16-0.24-0.24c-0.26,0.49-0.57,0.93-0.97,1.33c-0.16,0.16,0.08,0.4,0.25,0.25
				c0.24-0.21,0.48-0.38,0.77-0.51c-0.07-0.09-0.14-0.19-0.21-0.28c-0.35,0.33-0.73,0.61-1.15,0.84c0.06,0.1,0.12,0.2,0.18,0.31
				c0.32-0.24,0.65-0.38,1.04-0.44c-0.07-0.09-0.13-0.17-0.2-0.26c-0.32,0.43-0.69,0.81-1.09,1.17c0.08,0.08,0.17,0.17,0.25,0.25
				c0.3-0.29,0.62-0.51,0.99-0.69c-0.08-0.08-0.16-0.16-0.24-0.24c-0.32,0.42-0.68,0.76-1.12,1.05c0.07,0.09,0.14,0.19,0.21,0.28
				c0.29-0.36,0.61-0.68,0.98-0.97c-0.08-0.08-0.16-0.16-0.24-0.24c-0.32,0.52-0.71,0.96-1.19,1.33c0.1,0.06,0.2,0.11,0.3,0.17
				c0.17-0.6,0.34-1.19,0.51-1.79c0.06-0.19-0.22-0.31-0.32-0.14c-0.38,0.66-0.82,1.28-1.33,1.85c0.1,0.06,0.2,0.11,0.3,0.17
				c0.06-0.1,0.13-0.21,0.19-0.31c-0.08-0.08-0.17-0.17-0.25-0.25c-0.31,0.4-0.64,0.78-1,1.14c0.1,0.04,0.2,0.08,0.3,0.13
				c0-0.29,0.13-0.51,0.38-0.66c-0.08-0.02-0.16-0.04-0.24-0.06c-0.04,0.36-0.13,0.46-0.25,0.3c-0.07-0.06-0.13-0.12-0.19-0.19
				c-0.15-0.17-0.26-0.37-0.36-0.57c-0.08-0.16-0.33-0.08-0.33,0.09c0.01,0.33,0.16,0.56,0.43,0.76c0.19,0.14,0.42,0.23,0.6,0.38
				c0.13,0.12,0.24,0.31,0.41,0.38c0.64,0.28,0.97-1.21,1.12-1.59c-0.12-0.02-0.23-0.03-0.35-0.05c-0.01,0.46-0.01,0.91-0.02,1.37
				c0.12,0,0.24,0,0.35,0c-0.02-0.52-0.01-1.04,0.04-1.56c-0.11,0.03-0.22,0.06-0.33,0.09c0.26,0.41,0.58,0.72,1.01,0.96
				c0.12,0.06,0.27-0.01,0.27-0.15c-0.01-0.68-0.56-1.07-1.11-1.37c-0.03,0.11-0.06,0.22-0.09,0.33c0.36,0.05,0.68,0.15,1,0.32
				c0.21,0.11,0.36-0.17,0.18-0.31c-0.43-0.31-0.87-0.48-1.4-0.54c-0.14-0.02-0.21,0.16-0.15,0.27c0.28,0.52,0.31,1.04,0.12,1.59
				c0.09-0.04,0.17-0.07,0.26-0.11c-0.35-0.24-0.63-0.53-0.87-0.88c-0.12-0.17-0.35-0.06-0.32,0.14c0.08,0.52,0.09,1.03,0.05,1.55
				c0.11-0.03,0.22-0.06,0.33-0.09c-0.16-0.37-0.26-0.74-0.31-1.13c-0.12,0.02-0.23,0.03-0.35,0.05c0.14,0.6,0.2,1.21,0.19,1.83
				c0.12,0,0.24,0,0.35,0c-0.11-0.84-0.21-1.68-0.32-2.53c-0.02-0.19-0.28-0.25-0.35-0.05c-0.14,0.43-0.29,0.84-0.48,1.25
				c0.1,0,0.2,0,0.31,0c-0.04-0.07-0.09-0.13-0.13-0.2C36.56,27.69,36.25,27.87,36.38,28.06L36.38,28.06z"/>
		</g>
	</g>
	<g>
		<g>
			<path d="M35.49,43.34c-1.32,0.98-2.51,2.13-3.54,3.41c0.1,0.06,0.2,0.11,0.3,0.17c0.02-0.07,0.04-0.13,0.06-0.2
				c0.07-0.22-0.28-0.31-0.34-0.09c-0.02,0.07-0.04,0.13-0.06,0.2c-0.05,0.16,0.18,0.31,0.3,0.17c1.01-1.26,2.17-2.39,3.47-3.36
				C35.85,43.51,35.68,43.2,35.49,43.34L35.49,43.34z"/>
		</g>
	</g>
	<g>
		<g>
			<path d="M18.57,44.02c-0.44,0.22-0.89,0.43-1.33,0.65c-0.17,0.08-0.07,0.32,0.09,0.33c0.17,0.01,0.32-0.04,0.48-0.09
				c0.03-0.01,0.57-0.15,0.48,0.04c-0.05,0.11,0.01,0.28,0.15,0.27c0.5-0.04,0.98-0.18,1.43-0.42c-0.08-0.08-0.16-0.16-0.24-0.24
				c-0.23,0.3-0.46,0.6-0.7,0.9c-0.09,0.11,0.03,0.26,0.15,0.27c0.54,0.01,1.08-0.03,1.62-0.11c0.2-0.03,0.15-0.37-0.05-0.35
				c-0.26,0.03-0.52,0.06-0.78,0.09c-0.12,0.01-0.24,0.14-0.15,0.27c0.29,0.4,0.83,0.47,1.27,0.58c0.64,0.16,1.27,0.31,1.92,0.45
				c0.22,0.05,0.32-0.28,0.09-0.34c-1.37-0.38-2.75-0.69-4.14-0.94c-0.22-0.04-0.32,0.3-0.09,0.34c0.48,0.1,0.97,0.16,1.46,0.2
				c0.23,0.02,0.23-0.34,0-0.35c-0.46-0.03-0.91-0.09-1.36-0.19c-0.03,0.11-0.06,0.23-0.09,0.34c1.39,0.25,2.77,0.57,4.14,0.94
				c0.03-0.11,0.06-0.23,0.09-0.34c-0.53-0.12-1.07-0.24-1.6-0.37c-0.25-0.06-0.5-0.12-0.74-0.19c-0.22-0.06-0.5-0.11-0.64-0.31
				c-0.05,0.09-0.1,0.18-0.15,0.27c0.26-0.03,0.52-0.06,0.78-0.09c-0.02-0.12-0.03-0.23-0.05-0.35c-0.51,0.07-1.01,0.1-1.53,0.09
				c0.05,0.09,0.1,0.18,0.15,0.27c0.23-0.3,0.46-0.6,0.7-0.9c0.12-0.15-0.1-0.32-0.24-0.24c-0.39,0.21-0.81,0.33-1.25,0.37
				c0.05,0.09,0.1,0.18,0.15,0.27c0.12-0.25,0-0.47-0.24-0.59c-0.37-0.18-0.66,0.13-1.02,0.11c0.03,0.11,0.06,0.22,0.09,0.33
				c0.44-0.22,0.89-0.43,1.33-0.65C18.95,44.23,18.77,43.93,18.57,44.02L18.57,44.02z"/>
		</g>
	</g>
	<g>
		<g>
			<path d="M16.77,40.43c0.69,1.34,1.26,2.73,1.72,4.16c0.07-0.07,0.15-0.15,0.22-0.22c-0.55-0.16-0.62-0.92-0.72-1.39
				c-0.07-0.36-0.16-0.71-0.21-1.07c-0.04-0.26,0.02-0.82,0.42-0.7c-0.01-0.11-0.03-0.22-0.04-0.32c-0.45,0.27-0.85,0.61-1.19,1.01
				c-0.05,0.06-0.07,0.15-0.03,0.21c0.07,0.1,0.14,0.18,0.25,0.23c-0.02-0.08-0.04-0.16-0.06-0.24c-0.07,0.12-0.15,0.24-0.22,0.36
				c-0.08,0.13,0.05,0.31,0.2,0.26c0.3-0.09,0.59-0.18,0.89-0.28c-0.06-0.1-0.11-0.2-0.17-0.3c-0.31,0.39-0.52,0.83-0.19,1.28
				c0.31,0.41,0.81,0.72,1.25,0.98c0.2,0.11,0.38-0.19,0.18-0.31c-0.34-0.2-0.68-0.42-0.97-0.69c-0.13-0.12-0.28-0.27-0.29-0.46
				c-0.01-0.21,0.14-0.4,0.26-0.56c0.1-0.13,0.01-0.35-0.17-0.3c-0.3,0.09-0.59,0.18-0.89,0.28c0.07,0.09,0.13,0.17,0.2,0.26
				c0.07-0.12,0.15-0.24,0.22-0.36c0.05-0.08,0.02-0.2-0.06-0.24c-0.05-0.02-0.09-0.05-0.12-0.11c-0.01,0.07-0.02,0.14-0.03,0.21
				c0.32-0.38,0.7-0.7,1.12-0.95c0.13-0.08,0.1-0.28-0.04-0.32c-0.36-0.11-0.71,0.14-0.83,0.48c-0.15,0.44,0.03,0.97,0.12,1.4
				c0.14,0.69,0.22,1.73,1.03,1.97c0.13,0.04,0.26-0.09,0.22-0.22c-0.47-1.46-1.06-2.88-1.76-4.24
				C16.97,40.05,16.67,40.23,16.77,40.43L16.77,40.43z"/>
		</g>
	</g>
	<g>
		<g>
			<path d="M18.19,43.11c0.23,0,0.23-0.35,0-0.35C17.97,42.76,17.97,43.11,18.19,43.11L18.19,43.11z"/>
		</g>
	</g>
	<g>
		<g>
			<path d="M24.69,7.67c-0.39,0.31-0.68,0.71-0.86,1.18C23.79,8.95,23.9,9.08,24,9.07c0.44-0.03,0.87-0.12,1.28-0.29
				c-0.05-0.11-0.09-0.22-0.14-0.32c-0.23,0.14-0.46,0.29-0.69,0.43c-0.12,0.08-0.11,0.29,0.04,0.32c0.21,0.05,0.42,0.02,0.6-0.1
				c-0.08-0.02-0.16-0.04-0.24-0.06c0.04,0.06,0.06,0.1,0.02,0.17c-0.07,0.14,0.05,0.3,0.2,0.26c0.43-0.11,0.82-0.32,1.14-0.62
				c0.15-0.13-0.05-0.4-0.21-0.28c-0.23,0.16-0.41,0.37-0.53,0.62c-0.06,0.12,0.04,0.32,0.2,0.26C26,9.33,26.31,9.17,26.6,8.97
				c-0.07-0.09-0.14-0.19-0.21-0.28c-0.17,0.15-0.29,0.33-0.37,0.54c-0.06,0.15,0.13,0.27,0.26,0.2c0.18-0.1,0.36-0.19,0.54-0.29
				c-0.07-0.09-0.14-0.19-0.21-0.28c-0.15,0.19-0.3,0.37-0.45,0.56c-0.09,0.11-0.04,0.31,0.13,0.3c0.54-0.02,1.06-0.13,1.55-0.34
				c0.16-0.07,0.39-0.16,0.38-0.37C28.2,8.81,28,8.74,27.84,8.81c-0.21,0.09-0.03,0.4,0.18,0.31c0.01-0.01,0.02-0.01,0.04-0.02
				c-0.05,0.01-0.09,0.01-0.14,0.02c-0.02-0.01-0.03-0.02-0.05-0.03c0.01-0.05,0.01-0.09,0.02-0.14c-0.04,0.1-0.26,0.15-0.36,0.18
				c-0.13,0.05-0.25,0.09-0.38,0.12c-0.28,0.07-0.57,0.11-0.86,0.12c0.04,0.1,0.08,0.2,0.13,0.3c0.15-0.19,0.3-0.37,0.45-0.56
				c0.12-0.15-0.03-0.38-0.21-0.28c-0.18,0.1-0.36,0.19-0.54,0.29c0.09,0.07,0.17,0.13,0.26,0.2c0.06-0.16,0.15-0.28,0.28-0.39
				c0.15-0.13-0.05-0.39-0.21-0.28C26.15,8.84,25.88,9,25.58,9.12c0.07,0.09,0.13,0.17,0.2,0.26c0.1-0.2,0.23-0.36,0.41-0.49
				c-0.07-0.09-0.14-0.19-0.21-0.28c-0.28,0.26-0.62,0.43-0.99,0.53c0.07,0.09,0.13,0.17,0.2,0.26c0.09-0.17,0.09-0.36-0.02-0.52
				C25.11,8.8,25,8.76,24.92,8.81c-0.11,0.07-0.2,0.09-0.33,0.06c0.01,0.11,0.03,0.22,0.04,0.32c0.23-0.14,0.46-0.29,0.69-0.43
				c0.16-0.1,0.06-0.4-0.14-0.32C24.81,8.6,24.41,8.69,24,8.72c0.06,0.07,0.11,0.15,0.17,0.22c0.16-0.41,0.43-0.75,0.77-1.02
				C25.12,7.78,24.87,7.53,24.69,7.67L24.69,7.67z"/>
		</g>
	</g>
	<g>
		<g>
			<path d="M29.42,7.2C28.21,7.17,27,7.15,25.79,7.16c-0.97,0.01-1.99,0.07-2.81,0.65c-0.1,0.07-0.13,0.24,0,0.31
				c0.91,0.44,1.91,0.52,2.92,0.55c0.98,0.02,2.01,0.06,2.92-0.36c0.39-0.18,1.67-1.09,0.74-1.4c-0.48-0.16-1.04-0.15-1.55-0.13
				c-0.55,0.01-1.09,0.04-1.64,0.09c-0.6,0.05-1.18,0.15-1.76,0.34c-0.57,0.19-1.12,0.41-1.71,0.5c-0.18,0.03-0.16,0.3,0,0.34
				c0.39,0.1,0.75,0.26,1.06,0.51c0.28,0.23,0.49,0.52,0.73,0.78c0.19,0.2,0.4,0.37,0.67,0.46c0.14,0.05,0.28,0.06,0.42,0.11
				c0.24,0.08,0.31,0.27,0.47,0.44c0.48,0.47,1.2,0.01,1.68-0.23c0.62-0.31,1.22-0.68,1.65-1.23c0.3-0.38,0.75-1.17,0.49-1.68
				c-0.31-0.58-1.41-0.36-1.9-0.3c-0.82,0.1-1.64,0.23-2.46,0.41c-0.38,0.08-0.77,0.16-1.13,0.28c-0.22,0.07-0.48,0.19-0.58,0.42
				c-0.12,0.25,0.01,0.45,0.2,0.63c0.29,0.27,0.61,0.52,0.93,0.75c0.64,0.45,1.35,0.78,2.15,0.74c0.23-0.01,0.23-0.37,0-0.35
				C26.7,9.8,26.16,9.6,25.66,9.3c-0.25-0.15-0.48-0.33-0.71-0.51c-0.13-0.1-0.66-0.43-0.61-0.63c0.06-0.22,0.62-0.29,0.78-0.33
				c0.32-0.08,0.64-0.15,0.97-0.22c0.65-0.14,1.31-0.25,1.97-0.33c0.3-0.04,0.6-0.08,0.9-0.09c0.17-0.01,0.34,0,0.51,0.04
				c0.28,0.07,0.36,0.24,0.3,0.52c-0.11,0.56-0.47,1.04-0.91,1.39c-0.46,0.38-1.03,0.67-1.57,0.91c-0.15,0.07-0.32,0.14-0.48,0.14
				c-0.21,0-0.32-0.14-0.43-0.29c-0.13-0.17-0.28-0.27-0.48-0.33c-0.31-0.1-0.57-0.14-0.82-0.37c-0.19-0.18-0.35-0.4-0.53-0.59
				c-0.41-0.44-0.94-0.74-1.53-0.89c0,0.11,0,0.23,0,0.34c0.53-0.08,1.03-0.27,1.53-0.44c0.56-0.19,1.12-0.31,1.71-0.38
				c0.56-0.06,1.13-0.08,1.7-0.1c0.26-0.01,0.53-0.01,0.79,0.01c0.16,0.01,0.32,0.03,0.47,0.06c0.17,0.03,0.32,0.02,0.24,0.2
				c-0.18,0.39-0.84,0.65-1.21,0.76c-0.57,0.17-1.17,0.18-1.76,0.17c-1.12-0.01-2.29-0.01-3.32-0.51c0,0.1,0,0.2,0,0.31
				c0.84-0.59,1.89-0.6,2.88-0.6c1.12,0,2.25,0.01,3.37,0.04C29.65,7.57,29.65,7.21,29.42,7.2L29.42,7.2z"/>
		</g>
	</g>
	<g>
		<g>
			<path d="M21.63,29.89c0.27,0.45,0.5,0.93,0.69,1.42c0.09,0.24,0.19,0.49,0.23,0.74c0.04,0.26-0.02,0.52-0.11,0.77
				c-0.04,0.11,0.06,0.23,0.17,0.22c0.29-0.01,0.57,0,0.86,0.02c0.23,0.02,0.23-0.34,0-0.35c-0.29-0.02-0.57-0.03-0.86-0.02
				c0.06,0.07,0.11,0.15,0.17,0.22c0.09-0.25,0.15-0.52,0.13-0.79c-0.03-0.29-0.13-0.58-0.23-0.85c-0.2-0.54-0.45-1.06-0.74-1.56
				C21.82,29.52,21.51,29.7,21.63,29.89L21.63,29.89z"/>
		</g>
	</g>
	<g>
		<g>
			<path d="M21.99,34.02c-1.13,2.14-2.64,4.15-4.28,5.93c-0.29,0.32-0.64,0.62-0.56,1.09c0.09,0.55,0.43,1.11,0.64,1.62
				c0.36,0.89,0.84,1.61,1.5,2.31c0.16,0.17,0.41-0.08,0.25-0.25c-0.65-0.69-1.11-1.39-1.45-2.27c-0.21-0.53-0.75-1.4-0.42-1.93
				c0.25-0.4,0.7-0.76,1.01-1.12c1.36-1.61,2.64-3.34,3.63-5.2C22.4,34,22.1,33.82,21.99,34.02L21.99,34.02z"/>
		</g>
	</g>
	<g>
		<g>
			<path d="M17.26,18.55c0.4,1.33,0.65,2.71,1.12,4.02c0.45,1.24,1.07,2.43,1.61,3.63c0.34,0.74,0.86,1.56,0.97,2.38
				c0.04,0.27-0.02,0.63,0.08,0.89c0.12,0.29,0.48,0.59,0.78,0.66c0.22,0.06,0.32-0.29,0.09-0.34c-0.2-0.05-0.47-0.28-0.55-0.48
				c0.05,0.11,0-0.24-0.01-0.3c-0.02-0.35-0.05-0.72-0.18-1.05c-0.29-0.74-0.66-1.46-0.99-2.18c-0.53-1.17-1.14-2.34-1.56-3.56
				c-0.42-1.23-0.65-2.52-1.03-3.77C17.54,18.24,17.19,18.33,17.26,18.55L17.26,18.55z"/>
		</g>
	</g>
	<g>
		<g>
			<path d="M24.26,12.11c-2.04,1.13-4.08,2.26-6.11,3.4c-0.49,0.27-1.81,0.79-1.07,1.53c0.31,0.31,0.85,0.37,1.25,0.49
				c0.56,0.16,1.12,0.32,1.68,0.48c0.22,0.06,0.31-0.28,0.09-0.34c-0.45-0.13-0.9-0.26-1.35-0.38c-0.41-0.12-0.98-0.18-1.33-0.42
				c-0.15-0.1-0.22-0.29-0.12-0.46c0.04-0.06,0.2-0.13,0.27-0.17c0.21-0.12,0.42-0.23,0.63-0.35c0.42-0.23,0.84-0.47,1.26-0.7
				c1.66-0.92,3.32-1.84,4.98-2.77C24.64,12.31,24.46,12,24.26,12.11L24.26,12.11z"/>
		</g>
	</g>
	<g>
		<g>
			<path d="M27.87,48.25c1.13-0.19,2.3,0.11,3.44-0.05c0.2-0.03,0.43-0.06,0.58-0.21c0.13-0.13,0.18-0.32,0.19-0.5
				c0.02-0.42-0.2-0.99,0.06-1.36c-0.11-0.05-0.22-0.09-0.32-0.14c-0.05,0.14,0.08,0.23,0.19,0.26c0.06,0.02,0.13,0.03,0.19,0.04
				c0.03,0.01,0.08,0.03,0.12,0.03c0.07,0,0.07,0.07,0-0.04c-0.01-0.05-0.01-0.09-0.02-0.14c0,0,0,0.01,0,0.01
				c-0.08,0.22,0.27,0.31,0.34,0.09c0.05-0.14-0.08-0.23-0.19-0.26c-0.06-0.02-0.13-0.03-0.19-0.04c-0.03-0.01-0.08-0.03-0.12-0.03
				c-0.07,0-0.07-0.07,0,0.04c0.01,0.05,0.01,0.09,0.02,0.14c0,0,0-0.01,0-0.01c0.07-0.2-0.22-0.29-0.32-0.14
				c-0.24,0.36-0.14,0.84-0.11,1.25c0.01,0.15,0.05,0.41-0.06,0.53c-0.12,0.13-0.45,0.13-0.62,0.15c-1.08,0.09-2.18-0.15-3.26,0.03
				C27.56,47.94,27.65,48.28,27.87,48.25L27.87,48.25z"/>
		</g>
	</g>
	<g>
		<g>
			<path d="M32.92,31.98c-0.4,0.44-0.86,0.96-1.5,1c0.04,0.1,0.08,0.2,0.13,0.3c0.04-0.04,0.09-0.08,0.13-0.11
				c0.17-0.15-0.08-0.4-0.25-0.25c-0.04,0.04-0.09,0.08-0.13,0.11c-0.11,0.1-0.03,0.31,0.13,0.3c0.74-0.05,1.28-0.59,1.75-1.11
				C33.32,32.06,33.07,31.81,32.92,31.98L32.92,31.98z"/>
		</g>
	</g>
	<g>
		<g>
			<path d="M31.68,32.92c-0.2,0.25-0.35,0.57-0.35,0.89c0,0.35,0.25,0.53,0.59,0.51c0.35-0.02,0.7-0.08,1.04-0.15
				c0.18-0.04,0.36-0.08,0.54-0.13c0.16-0.04,0.36-0.07,0.47-0.2c0.09-0.1,0.13-0.26,0.16-0.39c0.04-0.16,0.06-0.33,0.05-0.5
				c-0.01-0.3-0.08-0.59-0.22-0.85c-0.12-0.25-0.35-0.59-0.68-0.5c-0.32,0.09-0.44,0.49-0.43,0.78c0.01,0.37,0.18,0.72,0.34,1.05
				c0.15,0.32,0.35,0.61,0.63,0.82c0.06-0.1,0.12-0.2,0.18-0.31c-0.09-0.06-0.17-0.13-0.23-0.22c-0.06-0.08-0.15-0.11-0.24-0.06
				c-0.08,0.04-0.12,0.17-0.06,0.24c0.1,0.14,0.22,0.25,0.36,0.35c0.19,0.13,0.36-0.17,0.18-0.31c-0.18-0.13-0.31-0.32-0.42-0.52
				c-0.11-0.21-0.22-0.43-0.3-0.65c-0.08-0.22-0.13-0.47-0.03-0.68c0.03-0.06,0.08-0.16,0.16-0.13c0.08,0.04,0.15,0.17,0.19,0.24
				c0.22,0.38,0.27,0.85,0.14,1.27c-0.01,0.04-0.02,0.1-0.05,0.13c-0.03,0.03-0.09,0.04-0.13,0.05c-0.14,0.04-0.28,0.08-0.42,0.11
				c-0.26,0.06-0.52,0.11-0.79,0.15c-0.15,0.02-0.3,0.04-0.44,0.05c-0.09,0.01-0.21,0.02-0.23-0.1c-0.03-0.23,0.1-0.52,0.24-0.7
				c0.06-0.08,0.07-0.18,0-0.25C31.87,32.86,31.74,32.84,31.68,32.92L31.68,32.92z"/>
		</g>
	</g>
	<g>
		<g>
			<path d="M25.73,46.8c-0.27,0.45-0.52,0.9-0.75,1.37c-0.04,0.07-0.03,0.15,0.03,0.21c0.03,0.03,0.06,0.06,0.08,0.09
				c0.05,0.06,0.15,0.07,0.21,0.03c0.32-0.19,0.62-0.41,0.9-0.66c-0.07,0.01-0.14,0.02-0.21,0.03c0.03,0.02,0.06,0.05,0.09,0.07
				c-0.03-0.07-0.05-0.13-0.08-0.2c-0.03,0.17-0.08,0.33-0.17,0.48c-0.1,0.17,0.14,0.37,0.28,0.21c0.09-0.1,0.18-0.2,0.27-0.3
				c-0.09-0.07-0.19-0.14-0.28-0.21c-0.1,0.2-0.2,0.4-0.3,0.6c-0.08,0.15-0.2,0.33-0.1,0.5c0.03,0.06,0.09,0.1,0.13,0.15
				c0.05,0.06,0.06,0.13,0.08,0.2c0.03,0.16,0.05,0.32,0.15,0.45c0.08,0.11,0.22,0.11,0.31,0c0.09-0.12,0.18-0.24,0.26-0.36
				c0.13-0.18-0.17-0.36-0.31-0.18c-0.09,0.12-0.18,0.24-0.26,0.36c0.1,0,0.2,0,0.31,0c-0.16-0.22-0.09-0.52-0.29-0.73
				c-0.02-0.02-0.04-0.03-0.05-0.05c-0.02-0.02-0.02-0.02-0.01,0c0,0.02,0.01,0.02,0.02-0.02c0.05-0.06,0.08-0.15,0.11-0.22
				c0.09-0.17,0.17-0.35,0.26-0.52c0.09-0.17-0.14-0.37-0.28-0.21c-0.09,0.1-0.18,0.2-0.27,0.3c0.09,0.07,0.19,0.14,0.28,0.21
				c0.1-0.18,0.17-0.37,0.21-0.57c0.01-0.09-0.01-0.15-0.08-0.2c-0.03-0.02-0.06-0.05-0.09-0.07c-0.07-0.05-0.16-0.02-0.21,0.03
				c-0.26,0.23-0.54,0.43-0.83,0.6c0.07,0.01,0.14,0.02,0.21,0.03c-0.03-0.03-0.06-0.06-0.08-0.09c0.01,0.07,0.02,0.14,0.03,0.21
				c0.23-0.47,0.49-0.92,0.75-1.37C26.15,46.78,25.85,46.61,25.73,46.8L25.73,46.8z"/>
		</g>
	</g>
	<g>
		<g>
			<path d="M32.2,34.64c0.24,1.37,0.67,2.71,1.13,4.02c0.47,1.34,1.1,2.61,1.58,3.94c0.07,0.2,0.2,0.46,0.15,0.67
				c-0.05,0.18-0.32,0.48-0.43,0.64c-0.26,0.38-0.49,0.88-0.82,1.2c-0.26,0.25-1.02,0.32-1.18,0.67c-0.06,0.13,0.02,0.17,0.01,0.29
				c0.01,0.01,0.02,0.02,0.03,0.04c0.08,0.07,0.08,0.09-0.01,0.05c-0.04,0.07-0.14,0.12-0.2,0.17c-0.42,0.41-0.68,1.25-1.35,1.25
				c0.02,0.12,0.03,0.23,0.05,0.35c0.39-0.09,0.61-0.42,0.95-0.59c0.2-0.1,0.02-0.41-0.18-0.31c-0.31,0.15-0.53,0.48-0.87,0.56
				c-0.2,0.04-0.15,0.35,0.05,0.35c0.53,0,0.82-0.33,1.12-0.74c0.23-0.32,0.5-0.54,0.76-0.83c0.13-0.15,0.08-0.14,0.1-0.3
				c0.01-0.05-0.11-0.11-0.1-0.14c0-0.01,0.25-0.1,0.31-0.13c0.23-0.09,0.52-0.16,0.72-0.33c0.27-0.23,0.46-0.65,0.65-0.95
				c0.23-0.35,0.65-0.79,0.78-1.19c0.16-0.47-0.28-1.05-0.46-1.47c-0.36-0.83-0.7-1.67-1.02-2.52c-0.58-1.56-1.12-3.16-1.41-4.8
				C32.5,34.32,32.16,34.42,32.2,34.64L32.2,34.64z"/>
		</g>
	</g>
	<g>
		<g>
			<path d="M26.04,48.67c0.98-0.2,1.98-0.21,2.98-0.3c0.4-0.03,0.8-0.08,1.2-0.14c0.26-0.04,0.78-0.08,0.98-0.28
				c0.24-0.24,0.08-0.72,0.02-1.01c-0.14-0.67-0.33-1.33-0.51-1.99c-0.17-0.62-0.36-1.23-0.5-1.85c-0.2-0.88-0.21-1.82-0.27-2.73
				c-0.07-1.03-0.14-2.07-0.29-3.09c-0.08-0.52-0.08-1.91-0.83-1.94c-0.23-0.01-0.23,0.35,0,0.35c0.48,0.02,0.62,2.68,0.65,3.04
				c0.09,0.94,0.13,1.89,0.21,2.83c0.09,1.17,0.34,2.21,0.65,3.34c0.16,0.57,0.32,1.14,0.45,1.71c0.05,0.23,0.11,0.45,0.15,0.68
				c0.06,0.36,0,0.4-0.37,0.51c-1.48,0.43-3.1,0.22-4.61,0.53C25.72,48.38,25.82,48.72,26.04,48.67L26.04,48.67z"/>
		</g>
	</g>
	<g>
		<g>
			<path d="M21.4,46.98c0.7,0.46,1.43,0.88,2.2,1.2c0.46,0.19,1.4,0.66,1.92,0.45c0.47-0.19,0.42-1.12,0.48-1.52
				c0.13-1.02,0.21-2.04,0.29-3.06c0.11-1.44-0.33-2.8-0.16-4.24c0.17-1.41,0.24-2.83,0.45-4.24c0.03-0.22-0.31-0.32-0.34-0.09
				c-0.18,1.17-0.26,2.35-0.38,3.53c-0.05,0.51-0.15,1.03-0.18,1.54c-0.03,0.61,0.12,1.23,0.21,1.83c0.12,0.77,0.05,1.5-0.01,2.28
				c-0.08,0.96-0.16,1.93-0.3,2.89c-0.03,0.22-0.02,0.46-0.2,0.62c-0.2,0.18-0.37,0.09-0.61,0.03c-0.44-0.1-0.87-0.28-1.29-0.46
				c-0.67-0.3-1.3-0.68-1.91-1.08C21.38,46.55,21.2,46.86,21.4,46.98L21.4,46.98z"/>
		</g>
	</g>
	<g>
		<g>
			<path d="M22.38,35.05c-0.27,1.76-1.26,3.29-1.76,4.97c-0.29,0.99-0.56,1.9-1.13,2.78c-0.27,0.42-0.56,0.83-0.84,1.24
				c-0.15,0.22-0.26,0.35-0.15,0.6c0.12,0.27,0.47,0.49,0.7,0.66c0.41,0.29,0.85,0.54,1.22,0.88c0.33,0.3,0.96,1.19,1.51,0.8
				c0.23-0.16,0.28-0.47,0.33-0.72c0.09-0.46,0.18-0.92,0.28-1.38c0.21-0.91,0.46-1.81,0.72-2.71c0.62-2.1,1.33-4.18,1.89-6.29
				c0.06-0.22-0.28-0.31-0.34-0.09c-0.55,2.05-1.23,4.06-1.84,6.1c-0.3,1.02-0.59,2.05-0.82,3.09c-0.06,0.25-0.11,0.49-0.16,0.74
				c-0.03,0.18-0.03,0.55-0.13,0.7c-0.41,0.58-1.24-0.52-1.51-0.73c-0.34-0.26-0.72-0.47-1.06-0.72c-0.13-0.1-0.26-0.2-0.37-0.32
				c-0.14-0.15-0.13-0.29,0.02-0.41c0.09-0.24,0.34-0.5,0.49-0.72c0.62-0.91,1.09-1.79,1.38-2.86c0.5-1.87,1.61-3.57,1.9-5.5
				C22.76,34.92,22.42,34.82,22.38,35.05L22.38,35.05z"/>
		</g>
	</g>
	<g>
		<g>
			<path d="M23.45,32.71c-0.32-0.09-0.81-0.34-1.15-0.25c-0.26,0.07-0.38,0.36-0.52,0.57c-0.15,0.23-0.43,0.5-0.45,0.79
				c-0.02,0.31,0.28,0.61,0.49,0.81c1.32,1.25,3.32,1.09,5,1.13c1.8,0.04,3.78,0.07,5.36-0.94c0.6-0.39,0.36-0.86,0.11-1.45
				c-0.25-0.58-0.68-1.19-1.38-0.87c-0.21,0.09-0.03,0.4,0.18,0.31c0.46-0.21,0.74,0.39,0.88,0.73c0.09,0.21,0.33,0.65,0.18,0.88
				c-0.14,0.2-0.72,0.41-0.92,0.5c-0.26,0.1-0.52,0.19-0.79,0.25c-1.25,0.32-2.55,0.27-3.83,0.24c-1.25-0.03-2.6,0.07-3.76-0.49
				c-0.28-0.14-0.55-0.31-0.78-0.53c-0.32-0.3-0.41-0.53-0.15-0.92c0.14-0.21,0.3-0.62,0.58-0.65c0.24-0.02,0.62,0.17,0.86,0.23
				C23.57,33.11,23.67,32.77,23.45,32.71L23.45,32.71z"/>
		</g>
	</g>
	<g>
		<g>
			<path d="M31.52,18.55c-0.36-0.03-0.72-0.07-1.08-0.1c-0.15-0.01-0.32-0.06-0.47,0c-0.08,0.03-0.14,0.08-0.17,0.16
				c-0.03,0.1,0.02,0.17,0.08,0.24c0.1,0.1,0.24,0.16,0.37,0.22c0.16,0.07,0.33,0.13,0.49,0.19c0.33,0.13,0.67,0.25,1.01,0.36
				c0.14,0.05,0.28-0.13,0.2-0.26c-0.13-0.2-0.36-0.26-0.58-0.27c-0.13-0.01-0.26,0-0.34,0.12c-0.07,0.11-0.03,0.28,0.09,0.33
				c0.09,0.04,0.19,0.03,0.24-0.06c0.04-0.07,0.02-0.2-0.06-0.24c0,0,0.01,0.01,0.01,0.01c0.02,0.03,0.03,0.05,0.05,0.08
				c0.06,0.16-0.13,0.1-0.03,0.12c0.02,0,0.03,0,0.05,0c0.04,0,0.08,0.01,0.12,0.02c0.06,0.01,0.13,0.03,0.16,0.08
				c0.07-0.09,0.13-0.17,0.2-0.26c-0.32-0.11-0.64-0.22-0.96-0.34c-0.16-0.06-0.31-0.12-0.47-0.18c-0.1-0.04-0.24-0.08-0.3-0.17
				c0.01,0.05,0.01,0.09,0.02,0.14c-0.07,0.05-0.08,0.06-0.04,0.05c0.01-0.01,0.01-0.01,0.01,0c0.02,0,0.04,0,0.06,0
				c0.07,0.01,0.13,0.01,0.2,0.02c0.13,0.01,0.25,0.02,0.38,0.04c0.26,0.02,0.52,0.05,0.77,0.07c0.1,0.01,0.18-0.09,0.18-0.18
				C31.7,18.62,31.62,18.56,31.52,18.55L31.52,18.55z"/>
		</g>
	</g>
	<g>
		<g>
			<path d="M38.45,16.79c-0.05,0.05-0.08,0.1-0.08,0.17c0,0.06,0.03,0.13,0.09,0.15c0.22,0.1,0.51,0.02,0.75,0.01
				c0.17-0.01,0.38-0.05,0.54,0c0.35,0.11,0.55,0.53,0.72,0.82c0.75,1.28,1.26,2.56,1.49,4.03c0.23,1.44-0.81,3.02-1.57,4.18
				c-0.4,0.61-0.83,1.22-1.32,1.76c-0.21,0.24-0.44,0.49-0.7,0.67c-0.6,0.41-1.06,0.18-1.63-0.1c-0.16-0.08-0.31-0.16-0.46-0.25
				c-0.27-0.15-0.32-0.11-0.3-0.5c0.01-0.1,0.03-0.3,0.07-0.4c0.11-0.32,0.09-0.33,0.42-0.32c0.45,0.01,0.79,0.36,1.2,0.05
				c0.44-0.32,0.81-0.88,1.11-1.33c0.33-0.5,0.73-1.1,0.81-1.71c0.06-0.51,0.11-0.83,0.31-1.32c0.09-0.21,0.18-0.43,0.19-0.66
				c0.03-0.45-0.13-0.57-0.41-0.83c-0.11-0.11-0.12-0.03-0.19-0.21c-0.02-0.07,0.04-0.16,0.01-0.24c-0.04-0.13-0.07-0.17-0.18-0.25
				c-0.16-0.11-0.4-0.08-0.58-0.06c-0.44,0.05-0.25,0.04-0.4-0.21c-0.14-0.25-0.4-0.42-0.32-0.7c0.08-0.3,0.45-0.34,0.65-0.57
				c0.22-0.26,0.25-0.61,0.29-0.93c0.03-0.28,0.16-1.64-0.5-1.28c-0.2,0.11-0.02,0.41,0.18,0.31c-0.09,0.05-0.03,1.07-0.07,1.25
				c-0.08,0.38-0.35,0.57-0.67,0.75c-0.13,0.07-0.28,0.13-0.35,0.27c-0.2,0.41,0.37,0.77,0.47,1.13c0.1,0.35,0.05,0.45,0.48,0.41
				c0.33-0.04,0.5-0.17,0.62,0.19c0.03,0.08-0.04,0.13,0.02,0.23c0.07,0.13,0.16,0.15,0.26,0.22c0.29,0.21,0.37,0.3,0.3,0.66
				c-0.05,0.25-0.19,0.49-0.29,0.72c-0.11,0.27-0.16,0.51-0.19,0.79c-0.08,0.94-0.64,1.77-1.23,2.49c-0.31,0.37-0.55,0.68-1.06,0.6
				c-0.32-0.05-0.62-0.23-0.95-0.21c-0.06,0-0.13,0.03-0.15,0.09c-0.16,0.37-0.23,0.84-0.26,1.24c-0.03,0.36,0.12,0.44,0.41,0.6
				c0.59,0.34,1.51,0.95,2.21,0.62c0.84-0.39,1.47-1.38,2-2.1c0.61-0.85,1.17-1.74,1.6-2.7c0.35-0.8,0.63-1.56,0.48-2.43
				c-0.18-1.06-0.45-2.07-0.93-3.03c-0.32-0.63-0.74-1.73-1.44-2.03c-0.2-0.08-0.4-0.07-0.61-0.06c-0.15,0.01-0.3,0.03-0.45,0.03
				c-0.06,0-0.12,0.01-0.18,0.01c-0.14-0.02-0.13,0.06,0.01,0.24C38.87,16.88,38.62,16.63,38.45,16.79z"/>
		</g>
	</g>
	<g>
		<g>
			<path d="M36.96,16.93c-0.04,0.71-0.32,1.39-0.6,2.04c-0.06,0.14,0.14,0.28,0.26,0.2c0.11-0.08,0.22-0.16,0.34-0.24
				c0.08-0.06,0.11-0.15,0.06-0.24c-0.05-0.08-0.16-0.12-0.24-0.06c-0.11,0.08-0.22,0.16-0.34,0.24c0.09,0.07,0.17,0.13,0.26,0.2
				c0.29-0.68,0.57-1.38,0.61-2.13C37.33,16.7,36.97,16.7,36.96,16.93L36.96,16.93z"/>
		</g>
	</g>
	<g>
		<g>
			<path d="M36.25,17.06c-0.28,0.35-0.38,0.81-0.18,1.23c0.18,0.38,0.63,0.59,1.04,0.5c0.38-0.09,0.68-0.45,0.67-0.85
				c-0.01-0.41-0.31-0.78-0.68-0.94c-0.22-0.1-0.49-0.12-0.7,0.03c-0.21,0.15-0.31,0.46-0.11,0.66c0.16,0.16,0.41-0.09,0.25-0.25
				c0.01,0.01-0.01-0.02-0.01-0.01c0,0.02,0,0.01,0-0.01c-0.01,0.02,0.02-0.05,0.01-0.03c0.02-0.04,0.07-0.07,0.11-0.09
				c0.12-0.04,0.25,0,0.36,0.06c0.22,0.12,0.41,0.35,0.41,0.59c0,0.23-0.16,0.44-0.39,0.5c-0.24,0.06-0.5-0.05-0.63-0.27
				c-0.16-0.27-0.1-0.62,0.09-0.86c0.06-0.08,0.07-0.18,0-0.25C36.44,17,36.31,16.99,36.25,17.06L36.25,17.06z"/>
		</g>
	</g>
	<g>
		<g>
			<path d="M35.41,16.81c0.3-0.15,0.6-0.27,0.92-0.36c0.28-0.08,0.68-0.23,0.96-0.05c0.24,0.16,0.43,0.48,0.59,0.71
				c0.15,0.22,0.44,0.6,0.36,0.89c-0.04,0.14-0.18,0.24-0.28,0.33c-0.12,0.1-0.24,0.2-0.37,0.29c-0.25,0.18-0.51,0.35-0.77,0.51
				c-0.26,0.16-0.52,0.31-0.78,0.47c-0.18,0.11-0.67,0.41-0.8,0.07c-0.03,0.07-0.05,0.13-0.08,0.2c0.08-0.04,0.15-0.06,0.23-0.06
				c0.23,0,0.23-0.35,0-0.35c-0.15,0-0.28,0.04-0.41,0.11c-0.06,0.04-0.11,0.13-0.08,0.2c0.09,0.24,0.29,0.39,0.55,0.41
				c0.31,0.03,0.57-0.15,0.82-0.3c0.55-0.34,1.11-0.65,1.62-1.04c0.22-0.17,0.48-0.35,0.62-0.59c0.15-0.25,0.07-0.54-0.04-0.79
				c-0.13-0.31-0.34-0.58-0.54-0.84c-0.17-0.22-0.34-0.46-0.6-0.58c-0.33-0.14-0.71-0.03-1.04,0.06c-0.37,0.1-0.73,0.25-1.07,0.42
				C35.03,16.6,35.21,16.91,35.41,16.81L35.41,16.81z"/>
		</g>
	</g>
	<g>
		<g>
			<path d="M21,25.49c0.28,0.74,0.52,1.49,0.71,2.25c0.18,0.7,0.39,1.5,0.06,2.19c-0.04,0.08-0.03,0.2,0.06,0.24
				c0.78,0.34,1.61,0.52,2.47,0.51c-0.06-0.07-0.11-0.15-0.17-0.22c-0.02,0.04-0.04,0.09-0.06,0.13c-0.03,0.08,0.04,0.2,0.12,0.22
				c0.24,0.04,0.46,0.04,0.69-0.02c0.22-0.05,0.13-0.39-0.09-0.34c-0.17,0.04-0.33,0.05-0.51,0.02c0.04,0.07,0.08,0.15,0.12,0.22
				c0.02-0.04,0.04-0.09,0.06-0.13c0.05-0.11-0.07-0.23-0.17-0.22c-0.79,0.01-1.57-0.15-2.29-0.46c0.02,0.08,0.04,0.16,0.06,0.24
				c0.33-0.7,0.22-1.46,0.05-2.18c-0.21-0.86-0.47-1.71-0.78-2.54C21.26,25.18,20.92,25.27,21,25.49L21,25.49z"/>
		</g>
	</g>
	<g>
		<g>
			<path d="M25.47,32.38c-0.69,0.03-1.36,0.1-2.04,0.23c-0.13,0.02-0.18,0.21-0.08,0.3c0.44,0.36,0.98,0.37,1.52,0.4
				c0.74,0.03,1.48,0.04,2.22,0.04c1.38,0.01,2.76-0.05,4.07-0.5c0.15-0.05,0.16-0.23,0.04-0.32c-0.31-0.24-0.85-0.16-1.21-0.14
				c-0.52,0.03-1.01,0.13-1.51,0.27c-0.53,0.15-1.04,0.27-1.6,0.15c-0.47-0.1-0.91-0.28-1.39-0.28c-0.21,0-0.23,0.28-0.05,0.35
				c0.39,0.14,0.78,0.28,1.17,0.41c0.22,0.08,0.31-0.27,0.09-0.34c-0.39-0.14-0.78-0.28-1.17-0.41c-0.02,0.12-0.03,0.23-0.05,0.35
				c0.47,0,0.9,0.19,1.36,0.28c0.4,0.08,0.8,0.06,1.2-0.03c0.45-0.1,0.89-0.25,1.34-0.33c0.29-0.05,0.59-0.07,0.89-0.07
				c0.23,0,0.56-0.04,0.75,0.1c0.01-0.11,0.03-0.22,0.04-0.32c-1.19,0.41-2.44,0.49-3.7,0.49c-0.63,0-1.27-0.01-1.9-0.02
				c-0.58-0.01-1.4,0.08-1.87-0.31c-0.03,0.1-0.05,0.2-0.08,0.3c0.64-0.12,1.29-0.19,1.94-0.21C25.7,32.73,25.7,32.37,25.47,32.38
				L25.47,32.38z"/>
		</g>
	</g>
	<g>
		<g>
			<path d="M30.26,30.43c-0.08,0.39-0.16,0.77-0.23,1.16c-0.04,0.19-0.08,0.38-0.11,0.57c-0.02,0.09-0.04,0.18-0.05,0.27
				c-0.01,0.05-0.02,0.09-0.03,0.14c-0.01,0.03-0.01,0.05-0.02,0.08c-0.01,0.03-0.01,0.03,0.01,0c0.03,0,0.06,0,0.09,0
				c0,0,0,0-0.01,0c-0.2-0.11-0.38,0.19-0.18,0.31c0.21,0.12,0.38-0.05,0.43-0.25c0.06-0.24,0.1-0.49,0.15-0.73
				c0.1-0.49,0.2-0.97,0.29-1.46C30.64,30.3,30.3,30.2,30.26,30.43L30.26,30.43z"/>
		</g>
	</g>
	<g>
		<g>
			<path d="M29.16,30.5c-0.16,0.91-0.32,1.81-0.47,2.72c-0.04,0.2,0.2,0.3,0.32,0.14c0.11-0.14,0.21-0.28,0.32-0.41
				c0.06-0.08,0.01-0.2-0.06-0.24c-0.09-0.05-0.18-0.01-0.24,0.06c-0.11,0.14-0.21,0.28-0.32,0.41c0.11,0.05,0.22,0.09,0.32,0.14
				c0.16-0.91,0.32-1.81,0.47-2.72C29.54,30.37,29.2,30.28,29.16,30.5L29.16,30.5z"/>
		</g>
	</g>
	<g>
		<g>
			<path d="M27.99,30.5c-0.02,0.96-0.05,1.92-0.07,2.88c0,0.18,0.24,0.23,0.33,0.09c0.05-0.08,0.1-0.15,0.16-0.23
				c0.13-0.19-0.18-0.37-0.31-0.18c-0.05,0.08-0.1,0.15-0.16,0.23c0.11,0.03,0.22,0.06,0.33,0.09c0.02-0.96,0.05-1.92,0.07-2.88
				C28.35,30.27,27.99,30.27,27.99,30.5L27.99,30.5z"/>
		</g>
	</g>
	<g>
		<g>
			<path d="M27.33,30.86c-0.11,0.85-0.18,1.7-0.2,2.55c0,0.15,0.2,0.23,0.3,0.13c0.13-0.13,0.27-0.27,0.4-0.4
				c0.16-0.16-0.09-0.41-0.25-0.25c-0.13,0.13-0.27,0.27-0.4,0.4c0.1,0.04,0.2,0.08,0.3,0.13c0.02-0.85,0.09-1.71,0.2-2.55
				c0.01-0.1-0.09-0.18-0.18-0.18C27.4,30.69,27.34,30.77,27.33,30.86L27.33,30.86z"/>
		</g>
	</g>
	<g>
		<g>
			<path d="M26.18,30.99c-0.02,0.62-0.04,1.24-0.06,1.86c0,0.13,0.15,0.22,0.27,0.15c0.07-0.05,0.15-0.09,0.22-0.14
				c0.19-0.12,0.01-0.43-0.18-0.31c-0.07,0.05-0.15,0.09-0.22,0.14c0.09,0.05,0.18,0.1,0.27,0.15c0.02-0.62,0.04-1.24,0.06-1.86
				C26.54,30.76,26.19,30.77,26.18,30.99L26.18,30.99z"/>
		</g>
	</g>
	<g>
		<g>
			<path d="M25.04,31.17c0.04,0.61,0.11,1.21,0.21,1.81c0.02,0.09,0.13,0.15,0.22,0.12c0.12-0.03,0.24-0.08,0.35-0.15
				c0.19-0.12,0.02-0.43-0.18-0.31c-0.08,0.05-0.17,0.09-0.27,0.12c0.07,0.04,0.15,0.08,0.22,0.12c-0.1-0.57-0.17-1.14-0.2-1.72
				C25.38,30.95,25.03,30.95,25.04,31.17L25.04,31.17z"/>
		</g>
	</g>
	<g>
		<g>
			<path d="M24.11,30.78c0.08,0.66,0.2,1.32,0.37,1.96c0.04,0.13,0.2,0.16,0.3,0.08c0.07-0.06,0.13-0.12,0.2-0.18
				c0.17-0.15-0.08-0.4-0.25-0.25c-0.07,0.06-0.13,0.12-0.2,0.18c0.1,0.03,0.2,0.05,0.3,0.08c-0.16-0.61-0.29-1.24-0.36-1.87
				c-0.01-0.09-0.07-0.18-0.18-0.18C24.2,30.61,24.1,30.69,24.11,30.78L24.11,30.78z"/>
		</g>
	</g>
	<g>
		<g>
			<path d="M23.31,30.44c0.14,0.79,0.28,1.57,0.42,2.36c0.04,0.2,0.35,0.15,0.35-0.05c0-0.3,0.02-0.59,0.06-0.89
				c0.01-0.1-0.02-0.19-0.12-0.22c-0.08-0.02-0.2,0.03-0.22,0.12c-0.04,0.33-0.07,0.65-0.07,0.98c0.12-0.02,0.23-0.03,0.35-0.05
				c-0.14-0.79-0.28-1.57-0.42-2.36C23.61,30.12,23.27,30.22,23.31,30.44L23.31,30.44z"/>
		</g>
	</g>
	<g>
		<g>
			<path d="M22.64,30.34c0.07,0.49,0.19,0.97,0.35,1.44c0.09,0.27,0.19,0.83,0.48,0.94c0.32,0.12,0.74,0.14,1.09,0.2
				c0.41,0.07,0.81,0.14,1.22,0.2c0.65,0.1,1.27,0.14,1.93,0.14c0.87,0,1.76,0.02,2.61-0.17c0.06-0.01,0.11-0.07,0.12-0.12
				c0.11-0.44,0.39-0.8,0.58-1.2c0.2-0.41,0.3-0.83,0.26-1.3c-0.02-0.15-0.18-0.23-0.3-0.13c-0.09,0.08-0.18,0.16-0.27,0.24
				c-0.17,0.15,0.08,0.4,0.25,0.25c0.09-0.08,0.18-0.16,0.27-0.24c-0.1-0.04-0.2-0.08-0.3-0.13c0.09,0.95-0.61,1.54-0.83,2.4
				c0.04-0.04,0.08-0.08,0.12-0.12c-0.77,0.17-1.59,0.16-2.38,0.16c-0.63,0-1.24-0.02-1.86-0.11c-0.67-0.1-1.34-0.22-2.01-0.34
				c-0.21-0.04-0.34-0.02-0.44-0.22c-0.09-0.2-0.16-0.41-0.23-0.62c-0.15-0.45-0.26-0.9-0.33-1.37
				C22.95,30.02,22.61,30.11,22.64,30.34L22.64,30.34z"/>
		</g>
	</g>
	<g>
		<g>
			<path d="M34.98,17.39c0.18-0.07,0.35,0.49,0.36,0.61c0.01,0.14-0.01,0.29-0.02,0.43c0,0.29,0.02,0.58,0,0.86
				c-0.04,0.65-0.39,1.24-0.63,1.85c-0.46,1.18-0.81,2.39-1.17,3.6c-0.35,1.18-0.69,2.36-1.14,3.51c-0.14,0.37-0.3,0.73-0.46,1.09
				c-0.13,0.28-0.24,0.72-0.44,0.96c-0.26,0.3-0.55,0.13-0.85,0.01c-0.15-0.06-0.3-0.11-0.45-0.17c-0.03-0.01-0.87-0.31-0.69,0.03
				c0.11,0.2,0.41,0.02,0.31-0.18c-0.01-0.01-0.01-0.02-0.02-0.03c-0.04-0.07-0.13-0.1-0.2-0.08c-0.02,0.01-0.04,0.01-0.05,0.02
				c-0.07,0.02-0.14,0.09-0.13,0.17c0,0.01,0,0.02,0,0.04c0.01,0.09,0.05,0.14,0.13,0.17c0.44,0.17,0.89,0.37,1.34,0.51
				c0.2,0.06,0.4,0.13,0.61,0.04c0.49-0.23,0.7-1.19,0.9-1.64c0.67-1.55,1.13-3.18,1.62-4.8c0.24-0.81,0.49-1.62,0.77-2.42
				c0.26-0.73,0.68-1.45,0.85-2.2c0.08-0.36,0.06-0.74,0.06-1.11c0-0.34,0.07-0.73,0.01-1.06c-0.07-0.4-0.4-0.69-0.81-0.53
				C34.67,17.13,34.77,17.47,34.98,17.39L34.98,17.39z"/>
		</g>
	</g>
	<g>
		<g>
			<path d="M27.19,30.51c0.82,0.47,1.88,0.69,2.6-0.07c0.73-0.77,0.85-2.03,0.98-3.03c0.18-1.41,0.29-2.84,0.42-4.25
				c0.13-1.39,0.29-2.79,0.07-4.18c-0.04-0.22-0.38-0.13-0.34,0.09c0.18,1.13,0.08,2.27-0.02,3.41c-0.1,1.13-0.2,2.26-0.31,3.39
				c-0.11,1.11-0.18,2.27-0.52,3.34c-0.14,0.46-0.36,0.94-0.79,1.21c-0.61,0.38-1.34,0.12-1.91-0.21
				C27.17,30.09,26.99,30.4,27.19,30.51L27.19,30.51z"/>
		</g>
	</g>
	<g>
		<g>
			<path d="M22.94,18.71c0.16,2.72,0.34,5.43,0.78,8.11c0.11,0.66,0.23,1.32,0.36,1.97c0.13,0.64,0.2,1.35,0.41,1.96
				c0.1,0.27,0.2,0.33,0.48,0.38c0.7,0.12,1.46,0.09,2.16,0.14c0.11,0.01,0.2-0.12,0.17-0.22c-0.24-0.8-0.18-1.71-0.18-2.54
				c0-1.11,0.04-2.22-0.03-3.32c-0.04-0.53-0.09-1.06-0.16-1.58c-0.07-0.52-0.16-0.88,0.2-1.3c0.43-0.5,0.46-0.95,0.43-1.6
				c-0.01-0.23-0.36-0.23-0.35,0c0.01,0.36,0.06,0.81-0.13,1.12c-0.16,0.26-0.43,0.42-0.54,0.71c-0.12,0.31-0.02,0.64,0.02,0.95
				c0.09,0.64,0.16,1.28,0.19,1.92c0.06,1.17,0.01,2.34,0.02,3.5c0.01,0.74-0.02,1.52,0.2,2.24c0.06-0.07,0.11-0.15,0.17-0.22
				c-0.62-0.04-1.32,0.01-1.92-0.12c-0.37-0.08-0.37-0.1-0.45-0.48c-0.06-0.27-0.12-0.54-0.17-0.81c-0.24-1.15-0.46-2.31-0.63-3.48
				c-0.37-2.43-0.51-4.87-0.66-7.32C23.29,18.49,22.93,18.48,22.94,18.71L22.94,18.71z"/>
		</g>
	</g>
	<g>
		<g>
			<path d="M19.71,18.3c0.16,1.28,0.32,2.56,0.58,3.82c0.27,1.3,0.69,2.55,1.12,3.8c0.42,1.21,0.76,2.4,0.99,3.65
				c0.17,0.91,1.4,0.92,2.16,1.02c0.23,0.03,0.22-0.33,0-0.35c-0.52-0.07-1.6-0.11-1.81-0.69c-0.18-0.49-0.19-1.08-0.33-1.59
				c-0.27-1.01-0.63-1.99-0.97-2.97c-0.74-2.18-1.11-4.4-1.4-6.68C20.03,18.08,19.68,18.07,19.71,18.3L19.71,18.3z"/>
		</g>
	</g>
	<g>
		<g>
			<path d="M14.55,17.9c0.73,1.25,1.45,2.51,2.18,3.76c0.17,0.29,0.32,0.59,0.51,0.86c0.15,0.22,0.37,0.32,0.64,0.29
				c0.19-0.03,0.5-0.1,0.58-0.3c0.08-0.2-0.1-0.34-0.28-0.3c-0.06,0.01-0.11,0.07-0.12,0.12c0,0.01-0.01,0.02-0.01,0.03
				c-0.06,0.22,0.28,0.31,0.34,0.09c0-0.01,0.01-0.02,0.01-0.03c-0.04,0.04-0.08,0.08-0.12,0.12c-0.01,0-0.02,0-0.03,0.01
				c-0.04-0.03-0.07-0.05-0.11-0.08c0.01,0.01,0.01,0.02,0.02,0.03c-0.01-0.05-0.01-0.09-0.02-0.14c-0.01,0.03-0.24,0.08-0.27,0.08
				c-0.17,0.03-0.27-0.04-0.36-0.18c-0.13-0.21-0.25-0.43-0.37-0.64c-0.25-0.44-0.51-0.87-0.76-1.31c-0.51-0.87-1.01-1.74-1.52-2.62
				C14.74,17.52,14.43,17.7,14.55,17.9L14.55,17.9z"/>
		</g>
	</g>
	<g>
		<g>
			<path d="M17.66,17.03c-0.65-0.13-1.35,0.09-1.99,0.21c-0.34,0.07-1.63,0.17-1.3,0.79c0.27,0.5,1.03,0.66,1.53,0.76
				c0.32,0.07,0.65,0.11,0.98,0.12c0.31,0.01,0.68,0.04,0.98-0.04c0.15-0.04,0.21-0.14,0.23-0.29c0.03-0.18,0.04-0.36,0.06-0.55
				c0.02-0.15,0.08-0.36,0.03-0.51c-0.04-0.12-0.16-0.2-0.28-0.16c-0.06,0.02-0.11,0.06-0.12,0.12c-0.02,0.09-0.01,0.16,0.06,0.22
				c0.07,0.07,0.19,0.07,0.25,0c0,0,0.01-0.01,0.01-0.01c0.15-0.17-0.1-0.42-0.25-0.25c0,0-0.01,0.01-0.01,0.01
				c0.08,0,0.17,0,0.25,0c0.01,0.04,0.02,0.08,0.03,0.12c-0.04,0.04-0.08,0.08-0.12,0.12c0.01,0,0.01,0,0.02-0.01
				c-0.05-0.01-0.09-0.01-0.14-0.02c-0.04-0.06-0.06-0.05-0.05,0.03c0,0.04-0.01,0.09-0.01,0.13c-0.01,0.07-0.01,0.13-0.02,0.2
				c-0.02,0.15-0.01,0.31-0.05,0.46c0,0.07,0,0.08-0.02,0.04c-0.04,0-0.09,0.01-0.13,0.01c-0.06,0.01-0.13,0.01-0.19,0.01
				c-0.15,0.01-0.3,0.01-0.46,0c-0.6-0.02-1.21-0.13-1.77-0.35c-0.12-0.05-0.24-0.1-0.34-0.18c-0.04-0.03-0.08-0.07-0.11-0.11
				c-0.06-0.09,0.01-0.09,0.1-0.12c0.28-0.1,0.59-0.14,0.88-0.2c0.31-0.06,0.62-0.12,0.93-0.18c0.31-0.06,0.63-0.11,0.94-0.05
				C17.79,17.42,17.89,17.08,17.66,17.03L17.66,17.03z"/>
		</g>
	</g>
	<g>
		<g>
			<path d="M24.36,11.76c-0.39,0.14-0.9,0.41-0.81,0.91c0.08,0.46,0.63,0.63,1.02,0.72c0.27,0.06,0.54,0.1,0.81,0.11
				c0.18,0,0.49,0.04,0.59-0.16c0.22-0.46-0.71-0.63-0.98-0.6c-0.17,0.02-0.25,0.23-0.09,0.33c0.71,0.43,1.51,0.18,2.23-0.09
				c0.21-0.08,0.12-0.42-0.09-0.34c-0.24,0.08-0.54,0.23-0.66,0.48c-0.13,0.28,0.11,0.42,0.33,0.51c0.54,0.23,1.22,0.29,1.64-0.19
				c0.15-0.17-0.1-0.42-0.25-0.25c-0.24,0.27-0.6,0.31-0.94,0.22c-0.05-0.01-0.47-0.13-0.48-0.18c0,0.04,0.15-0.09,0.17-0.11
				c0.08-0.06,0.18-0.1,0.28-0.14c-0.03-0.11-0.06-0.23-0.09-0.34c-0.62,0.23-1.34,0.5-1.96,0.13c-0.03,0.11-0.06,0.22-0.09,0.33
				c0.2-0.02,0.57,0,0.67,0.21c-0.01-0.05-0.01-0.09-0.02-0.14c0,0.02-0.01,0.04-0.01,0.06c0.03-0.04,0.05-0.07,0.08-0.11
				c-0.09,0.06-0.28,0.02-0.38,0.02c-0.11,0-0.23-0.01-0.34-0.03c-0.24-0.03-0.49-0.09-0.71-0.18c-0.16-0.06-0.4-0.18-0.39-0.38
				c0.01-0.27,0.35-0.38,0.56-0.46C24.67,12.02,24.58,11.68,24.36,11.76L24.36,11.76z"/>
		</g>
	</g>
	<g>
		<g>
			<path d="M31.77,18.87c1.19-0.62,2.65-0.81,3.71-1.66c0.06-0.05,0.06-0.15,0.03-0.21c-0.33-0.58-0.91-0.98-1.47-1.32
				c-0.65-0.4-1.34-0.73-1.98-1.15c-0.73-0.48-1.32-1.13-2.04-1.62c-0.45-0.3-1.5-1-1.99-0.45c-0.15,0.17,0.1,0.42,0.25,0.25
				c0.26-0.29,0.92,0.12,1.17,0.26c0.38,0.21,0.73,0.47,1.06,0.75c0.52,0.43,1.01,0.9,1.6,1.25c0.55,0.34,1.13,0.62,1.68,0.96
				c0.53,0.32,1.11,0.69,1.43,1.24c0.01-0.07,0.02-0.14,0.03-0.21c-0.53,0.43-1.23,0.65-1.86,0.89c-0.6,0.22-1.21,0.42-1.78,0.72
				C31.39,18.67,31.56,18.98,31.77,18.87L31.77,18.87z"/>
		</g>
	</g>
	<g>
		<g>
			<path d="M27.51,19.39c0.13,0.36,0.29,0.69,0.49,1.01c0.04,0.06,0.13,0.11,0.2,0.08c0.94-0.34,1.88-0.71,2.79-1.11
				c0.26-0.11,0.5-0.24,0.44-0.56c-0.08-0.44-0.36-0.92-0.54-1.34c-0.71-1.7-1.52-3.36-2.73-4.77c-0.1-0.12-0.3-0.02-0.3,0.13
				c0,0.13,0,0.26,0,0.39c0,0.23,0.36,0.23,0.35,0c0-0.13,0-0.26,0-0.39c-0.1,0.04-0.2,0.08-0.3,0.13c1.05,1.22,1.8,2.65,2.43,4.12
				c0.16,0.38,0.32,0.76,0.48,1.14c0.07,0.17,0.18,0.36,0.22,0.53c0.05,0.25-0.15,0.28-0.35,0.37c-0.85,0.37-1.71,0.71-2.58,1.02
				c0.07,0.03,0.13,0.05,0.2,0.08c-0.19-0.3-0.34-0.6-0.46-0.93C27.77,19.08,27.43,19.17,27.51,19.39L27.51,19.39z"/>
		</g>
	</g>
	<g>
		<g>
			<path d="M22.97,19.14c1.2,0.61,2.47,1.06,3.79,1.34c0.1,0.02,0.18-0.03,0.22-0.12c0.23-0.54,0.86-0.8,0.95-1.41
				c0.06-0.38-0.08-0.79-0.11-1.16c-0.04-0.44-0.04-0.88-0.03-1.32c0.01-0.43,0.2-4.18-0.67-3.82c-0.21,0.09-0.12,0.43,0.09,0.34
				c0.05-0.02,0.2,1.04,0.21,1.11c0.03,0.32,0.03,0.65,0.03,0.97c0,0.7-0.04,1.39-0.03,2.09c0.01,0.32,0.03,0.65,0.07,0.97
				c0.04,0.35,0.17,0.72-0.03,1.05c-0.24,0.4-0.65,0.64-0.83,1.09c0.07-0.04,0.15-0.08,0.22-0.12c-1.29-0.27-2.53-0.7-3.71-1.3
				C22.94,18.73,22.76,19.04,22.97,19.14L22.97,19.14z"/>
		</g>
	</g>
	<g>
		<g>
			<path d="M18.82,17.2c0.84,0.55,1.73,1,2.67,1.36c0.48,0.18,1,0.39,1.5,0.46c0.35,0.05,0.61-0.1,0.83-0.37
				c1.2-1.5,1.94-3.48,2.3-5.35c-0.11,0-0.23,0-0.34,0c0.02,0.11,0.04,0.22,0.06,0.33c0.04,0.22,0.38,0.13,0.34-0.09
				c-0.02-0.11-0.04-0.22-0.06-0.33c-0.03-0.17-0.31-0.17-0.34,0c-0.33,1.71-0.99,3.35-1.94,4.8c-0.11,0.17-0.22,0.36-0.36,0.5
				c-0.22,0.22-0.48,0.16-0.76,0.08c-0.42-0.12-0.84-0.26-1.25-0.42C20.6,17.84,19.78,17.4,19,16.9
				C18.81,16.77,18.63,17.08,18.82,17.2L18.82,17.2z"/>
		</g>
	</g>
	<g>
		<g>
			<path d="M24.88,12.65c-1.74,1.54-3.55,3-5.43,4.37c-0.18,0.13-0.01,0.44,0.18,0.31c1.9-1.39,3.74-2.86,5.5-4.42
				C25.3,12.75,25.05,12.5,24.88,12.65L24.88,12.65z"/>
		</g>
	</g>
	<g>
		<g>
			<path d="M27.21,10.35c0.14,1.01,0.29,2.02,0.43,3.04c0.04-0.07,0.08-0.15,0.12-0.22c-0.13,0.03-0.27,0.05-0.4,0.08
				c-0.22,0.04-0.13,0.38,0.09,0.34c0.13-0.03,0.27-0.05,0.4-0.08c0.1-0.02,0.14-0.13,0.12-0.22c-0.14-1.01-0.29-2.02-0.43-3.04
				C27.52,10.04,27.18,10.13,27.21,10.35L27.21,10.35z"/>
		</g>
	</g>
	<g>
		<g>
			<path d="M25.89,11.09c0.07,0.96,0.08,1.93,0.01,2.9c0.12-0.02,0.23-0.03,0.35-0.05c-0.01-0.03-0.01-0.05,0.02-0.06
				c0.22-0.07,0.13-0.41-0.09-0.34c-0.21,0.06-0.34,0.28-0.27,0.5c0.06,0.19,0.33,0.15,0.35-0.05c0.07-0.97,0.06-1.93-0.01-2.9
				C26.23,10.86,25.87,10.86,25.89,11.09L25.89,11.09z"/>
		</g>
	</g>
	<g>
		<g>
			<path d="M24.48,10.31c0.09,0.43,0.18,0.87,0.25,1.3c0.04,0.22,0.07,0.44,0.11,0.66c0.02,0.15,0.01,0.46,0.12,0.57
				c0.1,0.11,0.34,0.14,0.48,0.17c0.16,0.03,0.33,0.06,0.49,0.1c0.18,0.05,0.33,0.14,0.51,0.2c0.18,0.06,0.38,0.06,0.57,0.07
				c0.21,0.01,0.43,0.02,0.64,0.03c0.18,0.01,0.36,0.03,0.51-0.07c0.13-0.09,0.24-0.23,0.35-0.34c0.14-0.14,0.29-0.28,0.41-0.43
				c0.23-0.3,0.13-0.79,0.13-1.14c0-0.44,0-0.89-0.01-1.33c0-0.15-0.15-0.2-0.27-0.15c-0.14,0.06-0.17,0.22-0.1,0.35
				c0.1,0.2,0.41,0.02,0.31-0.18c-0.01,0.04-0.02,0.09-0.02,0.13c-0.09-0.05-0.18-0.1-0.27-0.15c0,0.53,0,1.05,0.01,1.58
				c0,0.14,0.01,0.28,0,0.42c-0.01,0.17-0.05,0.25-0.17,0.38c-0.16,0.17-0.32,0.38-0.51,0.52c-0.19,0.14-0.55,0.05-0.78,0.05
				c-0.25-0.01-0.52,0.01-0.76-0.08c-0.21-0.08-0.39-0.17-0.61-0.21c-0.24-0.05-0.49-0.08-0.71-0.18c0.03,0.04,0.05,0.07,0.08,0.11
				c-0.11-0.82-0.26-1.64-0.43-2.45C24.77,9.99,24.43,10.09,24.48,10.31L24.48,10.31z"/>
		</g>
	</g>
	<g>
		<g>
			<path d="M27.52,9.1c-0.66-0.03-1.36-0.01-1.97,0.27c-0.3,0.13-0.6,0.33-0.75,0.63c-0.14,0.27-0.11,0.58,0.12,0.78
				c0.53,0.48,1.41,0.41,2.07,0.4c0.39-0.01,0.8-0.01,1.18-0.08c0.3-0.06,0.5-0.28,0.58-0.57c0.21-0.73-0.42-1.45-1.16-1.35
				c-0.22,0.03-0.23,0.38,0,0.35c0.5-0.07,0.96,0.35,0.83,0.87c-0.07,0.3-0.28,0.35-0.56,0.37c-0.3,0.03-0.6,0.04-0.91,0.05
				c-0.53,0.01-1.16,0.06-1.64-0.2c-0.62-0.34,0.14-0.85,0.51-0.98c0.54-0.2,1.13-0.21,1.71-0.18C27.75,9.46,27.75,9.11,27.52,9.1
				L27.52,9.1z"/>
		</g>
	</g>
</g>
</svg>
