<?xml version="1.0" encoding="utf-8"?>
<!-- Generator: Adobe Illustrator 26.2.1, SVG Export Plug-In . SVG Version: 6.00 Build 0)  -->
<svg version="1.1" id="Layer_1" xmlns="http://www.w3.org/2000/svg" xmlns:xlink="http://www.w3.org/1999/xlink" x="0px" y="0px"
	 viewBox="0 0 56.69 56.69" style="enable-background:new 0 0 56.69 56.69;" xml:space="preserve">
<g>
	<g>
		<g>
			<path d="M23.15,29.39c0.16-0.01,0.31-0.02,0.47-0.02c0.08,0,0.17,0,0.25,0c0.04,0,0.08,0,0.13,0c0.02,0,0.07-0.01,0.08,0
				c0.01,0.01,0.02,0.03,0.03,0.06c0.02,0.07,0.04,0.13,0.05,0.2c0.04,0.15,0.06,0.3,0.05,0.45c-0.02,0.19-0.13,0.4-0.32,0.45
				c-0.11,0.03-0.22,0.01-0.33,0.01c-0.15,0.01-0.27,0.04-0.39,0.14c-0.07,0.06-0.06,0.19,0,0.25c0.07,0.07,0.18,0.06,0.25,0
				c0.06-0.05,0.16-0.04,0.23-0.04c0.11,0,0.23,0,0.34-0.03c0.22-0.06,0.4-0.24,0.49-0.45c0.11-0.25,0.1-0.53,0.04-0.8
				c-0.05-0.25-0.11-0.57-0.42-0.61c-0.15-0.02-0.31-0.01-0.47-0.01c-0.16,0-0.32,0.01-0.49,0.02c-0.1,0.01-0.18,0.08-0.18,0.18
				C22.97,29.3,23.05,29.39,23.15,29.39L23.15,29.39z"/>
		</g>
	</g>
	<g>
		<g>
			<path d="M19.7,30.39c0.59-0.06,1.29,0.09,1.54,0.7c0.1,0.26,0.09,0.54-0.07,0.77c-0.17,0.24-0.45,0.39-0.7,0.53
				c0.06,0.1,0.12,0.2,0.18,0.31c0.06-0.04,0.11-0.05,0.18-0.04c0.23,0.02,0.23-0.33,0-0.35c-0.13-0.01-0.26,0.02-0.36,0.09
				c-0.19,0.13-0.02,0.42,0.18,0.31c0.32-0.18,0.65-0.37,0.85-0.69c0.19-0.3,0.21-0.69,0.08-1.02c-0.29-0.76-1.12-1.03-1.88-0.95
				c-0.1,0.01-0.18,0.07-0.18,0.18C19.53,30.3,19.61,30.4,19.7,30.39L19.7,30.39z"/>
		</g>
	</g>
	<g>
		<g>
			<path d="M16.06,31.72c0.25-0.18,0.57-0.05,0.79,0.12c0.25,0.2,0.45,0.5,0.51,0.81c0.07,0.32-0.02,0.67-0.25,0.89
				c-0.24,0.23-0.59,0.31-0.9,0.39c-0.22,0.06-0.13,0.4,0.09,0.34c0.41-0.11,0.85-0.23,1.14-0.57c0.27-0.33,0.35-0.78,0.25-1.19
				c-0.1-0.4-0.36-0.76-0.69-1c-0.32-0.23-0.78-0.35-1.12-0.11C15.7,31.55,15.88,31.85,16.06,31.72L16.06,31.72z"/>
		</g>
	</g>
	<g>
		<g>
			<path d="M13.85,33.52c-0.09,0.2-0.13,0.36-0.12,0.58c0,0.08,0.05,0.15,0.13,0.17c1.72,0.49,3.42-0.28,4.97-0.95
				c0.84-0.36,1.67-0.75,2.42-1.28c0.85-0.6,1.6-1.09,2.68-1.07c0.23,0,0.23-0.35,0-0.35c-1.76-0.03-2.94,1.31-4.43,2.02
				c-1.65,0.78-3.69,1.82-5.54,1.29c0.04,0.06,0.09,0.11,0.13,0.17c0.02-0.13,0.05-0.27,0.07-0.4
				C14.25,33.49,13.94,33.31,13.85,33.52L13.85,33.52z"/>
		</g>
	</g>
	<g>
		<g>
			<path d="M16.64,35.62c-1.9,2.23-3.77,4.5-5.4,6.93c-0.04,0.06-0.03,0.17,0.03,0.21c0.32,0.26-0.79,1.14-0.88,1.41
				c-0.03,0.09,0.04,0.2,0.12,0.22c0.37,0.09,0.68-0.52,0.74-0.78c0.12-0.52-0.08-1-0.59-1.19c-0.12-0.05-0.26,0.1-0.22,0.22
				c0.57,1.61,0.88,3.27,0.94,4.98c0.12,0,0.24,0,0.35,0c-0.1-1.02-0.3-2.02-0.59-3c-0.11,0.05-0.22,0.09-0.32,0.14
				c0.4,0.9,0.77,1.81,1.19,2.69c0.22,0.46,0.45,0.82,0.96,0.98c0.68,0.21,1.48,0.13,2.18,0.16c1.03,0.05,2.06,0.1,3.09,0.14
				c-0.02-0.12-0.03-0.23-0.05-0.35c-0.06,0.01-0.85,0.17-0.33,0.26c0.08,0.02,0.39-0.16,0.48-0.2c0.31-0.12,0.68-0.2,0.95-0.37
				c0.66-0.41-0.19-0.46-0.55-0.41c-0.2,0.03-0.15,0.35,0.05,0.35c1.51,0.01,2.86,0.19,4.27,0.73c1.34,0.52,2.74,0.47,4.15,0.38
				c0.23-0.02,0.23-0.37,0-0.35c-1.48,0.1-2.87,0.1-4.26-0.45c-1.35-0.53-2.71-0.66-4.16-0.67c0.02,0.12,0.03,0.23,0.05,0.35
				c0.06-0.01,0.85-0.17,0.33-0.26c-0.08-0.02-0.39,0.16-0.48,0.2c-0.31,0.12-0.68,0.2-0.95,0.37c-0.66,0.41,0.19,0.46,0.55,0.41
				c0.21-0.03,0.14-0.34-0.05-0.35c-1.52-0.07-3.05-0.08-4.56-0.21c-1.01-0.09-1.26-0.65-1.63-1.49c-0.31-0.7-0.62-1.4-0.93-2.1
				c-0.08-0.18-0.38-0.05-0.32,0.14c0.29,0.95,0.48,1.92,0.58,2.91c0.02,0.22,0.36,0.23,0.35,0c-0.06-1.74-0.37-3.43-0.95-5.07
				c-0.07,0.07-0.15,0.15-0.22,0.22c0.49,0.18,0.37,1.37,0.04,1.29c0.04,0.07,0.08,0.15,0.12,0.22c0.13-0.36,0.65-0.66,0.83-1.03
				c0.08-0.17,0.09-0.28,0.12-0.46c0.01-0.06-0.08-0.13-0.07-0.18c0.01-0.04,0.24-0.33,0.28-0.38c1.67-2.12,3.25-4.29,5-6.35
				C17.04,35.7,16.79,35.45,16.64,35.62L16.64,35.62z"/>
		</g>
	</g>
	<g>
		<g>
			<path d="M16.25,33.66c-0.01,1.24-0.01,2.48-0.02,3.73c0.11-0.03,0.22-0.06,0.33-0.09c-0.18-0.33-0.62-0.47-0.95-0.27
				c-0.33,0.2-0.4,0.67-0.18,0.97c0.13,0.18,0.44,0.01,0.31-0.18c-0.11-0.15-0.11-0.38,0.06-0.49c0.16-0.11,0.38-0.01,0.47,0.15
				c0.09,0.16,0.33,0.08,0.33-0.09c0.01-1.24,0.01-2.48,0.02-3.73C16.61,33.43,16.26,33.43,16.25,33.66L16.25,33.66z"/>
		</g>
	</g>
	<g>
		<g>
			<path d="M13.37,24.26c-0.66,0.05-1.4,0.12-1.89,0.63c-0.41,0.43-0.53,1.04-0.17,1.54c0.27,0.37,0.93,0.96,1.43,0.82
				c0.39-0.11,0.55-0.68,0.17-0.89c-0.12-0.07-0.26,0.02-0.27,0.15c-0.04,0.49,0.24,0.92,0.65,1.17c0.5,0.3,1.12,0.25,1.65,0.06
				c0.14-0.05,0.27-0.11,0.4-0.17c0.29-0.13,0.4-0.18,0.57,0.13c0.17,0.31,0.25,0.74,0.34,1.09c0.21,0.79,0.3,1.58,0.07,2.38
				c-0.02,0.07,0.01,0.17,0.08,0.2c0.34,0.16,0.59,0.38,0.77,0.7c0.11,0.2,0.42,0.02,0.31-0.18c-0.21-0.37-0.51-0.65-0.9-0.83
				c0.03,0.07,0.05,0.13,0.08,0.2c0.19-0.66,0.18-1.34,0.05-2.01c-0.07-0.37-0.17-0.74-0.28-1.1c-0.09-0.28-0.15-0.65-0.33-0.9
				c-0.35-0.48-1.05,0.1-1.44,0.21c-0.7,0.2-1.74-0.04-1.67-0.95c-0.09,0.05-0.18,0.1-0.27,0.15c0.09,0.12,0.04,0.2-0.15,0.25
				c-0.12-0.01-0.23-0.06-0.33-0.12c-0.15-0.09-0.3-0.21-0.43-0.32c-0.3-0.26-0.48-0.58-0.32-0.97c0.29-0.74,1.18-0.82,1.86-0.88
				C13.59,24.59,13.59,24.24,13.37,24.26L13.37,24.26z"/>
		</g>
	</g>
	<g>
		<g>
			<path d="M18.12,16.87c-1.15,0.06-2.3,0.19-3.43,0.4c-0.71,0.13-1.61,0.18-1.91,0.94c-0.34,0.86-0.3,2.04-0.24,2.95
				c0.08,1,0.29,2.03,0.68,2.96c0.32,0.75,0.73,0.97,1.5,0.84c1.11-0.19,2.21-0.21,3.33-0.11c2.21,0.19,4.39,0.69,6.61,0.54
				c0.23-0.02,0.23-0.37,0-0.35c-1.79,0.12-3.56-0.17-5.34-0.4c-0.85-0.11-1.7-0.2-2.55-0.2c-0.42,0-0.85,0.01-1.27,0.06
				c-0.46,0.05-0.91,0.2-1.36,0.1c-0.4-0.09-0.47-0.27-0.62-0.62c-0.09-0.22-0.17-0.44-0.24-0.66c-0.14-0.44-0.24-0.89-0.32-1.34
				c-0.15-0.89-0.16-1.81-0.05-2.71c0.03-0.24,0.06-0.52,0.13-0.76c0.1-0.36,0.34-0.52,0.67-0.65c0.39-0.15,0.86-0.19,1.27-0.26
				c1.03-0.18,2.07-0.29,3.11-0.35C18.35,17.21,18.35,16.86,18.12,16.87L18.12,16.87z"/>
		</g>
	</g>
	<g>
		<g>
			<path d="M15.28,11.15c-0.04,0.51-0.09,1.02-0.13,1.53c-0.02,0.24-0.04,0.48-0.06,0.72c-0.02,0.2-0.04,0.44-0.22,0.56
				c0.08,0.02,0.16,0.04,0.24,0.06c-0.17-0.4-0.63-0.56-1.04-0.5c-0.48,0.07-0.82,0.45-0.86,0.93c-0.05,0.51,0.21,1.02,0.63,1.32
				c0.52,0.36,1.18,0.39,1.79,0.27c-0.07-0.07-0.15-0.15-0.22-0.22c-0.11,0.3,0.01,0.6,0.26,0.78c0.18,0.13,0.36-0.17,0.18-0.31
				c-0.13-0.09-0.15-0.24-0.1-0.38c0.05-0.14-0.1-0.24-0.22-0.22c-0.79,0.15-1.87-0.06-1.97-1.03c-0.04-0.35,0.13-0.69,0.49-0.78
				c0.3-0.08,0.63,0.02,0.76,0.31c0.04,0.08,0.17,0.11,0.24,0.06c0.39-0.26,0.38-0.75,0.42-1.17c0.05-0.65,0.11-1.3,0.16-1.94
				C15.65,10.92,15.3,10.93,15.28,11.15L15.28,11.15z"/>
		</g>
	</g>
	<g>
		<g>
			<g>
				<path d="M20.5,16.23c1.52-0.11,3.04-0.11,4.55,0.01c1.51,0.12,2.99,0.43,4.49,0.54c1.43,0.11,2.77-0.05,4.14-0.47
					c0.28-0.08,0.56-0.19,0.84-0.27c0.47-0.14,0.27-0.09,0.59,0.04c0.32,0.13,0.5,0.23,0.84,0.09c0.21-0.09,0.12-0.43-0.09-0.34
					c-0.23-0.08-0.45-0.16-0.68-0.24c-0.03-0.07-0.13-0.11-0.2-0.08c-1.19,0.41-2.39,0.82-3.65,0.93c-1.28,0.11-2.57-0.08-3.84-0.26
					c-2.33-0.33-4.65-0.47-7-0.3C20.28,15.89,20.28,16.25,20.5,16.23L20.5,16.23z"/>
			</g>
		</g>
		<g>
			<g>
				<path d="M26.12,12.39c-0.38,0.23-0.72,0.52-0.99,0.86c-0.26,0.33-0.53,0.73-0.34,1.16c0.31,0.72,1.34,0.83,2,0.66
					c0.35-0.1,0.68-0.28,0.94-0.52c0.28-0.27,0.56-0.67,0.47-1.08c-0.09-0.4-0.49-0.66-0.85-0.8c-0.42-0.16-0.89-0.19-1.33-0.08
					c-0.45,0.12-0.77,0.45-0.78,0.94c-0.01,0.5,0.32,0.9,0.63,1.27c0.15,0.17,0.4-0.08,0.25-0.25c-0.22-0.26-0.46-0.54-0.51-0.88
					c-0.05-0.31,0.09-0.58,0.39-0.69c0.32-0.12,0.68-0.12,1-0.04c0.3,0.07,0.68,0.23,0.82,0.53c0.14,0.29-0.11,0.61-0.31,0.8
					c-0.2,0.2-0.45,0.35-0.71,0.43c-0.5,0.16-1.21,0.15-1.59-0.27c-0.29-0.33,0-0.71,0.22-0.98c0.25-0.3,0.54-0.55,0.87-0.75
					C26.5,12.57,26.32,12.27,26.12,12.39L26.12,12.39z"/>
			</g>
		</g>
		<g>
			<g>
				<path d="M26.51,14.08c0.67,0.8,0.83,1.94,0.45,2.91c-0.08,0.21,0.26,0.3,0.34,0.09c0.43-1.09,0.2-2.36-0.54-3.25
					C26.61,13.66,26.37,13.91,26.51,14.08L26.51,14.08z"/>
			</g>
		</g>
		<g>
			<g>
				<path d="M14.35,16.71c1.7,0.21,3.41,0.19,5.1-0.08c0.41-0.06,0.81-0.14,1.21-0.24c0.24-0.06,0.54-0.11,0.71-0.32
					c0.25-0.32-0.09-0.83-0.47-0.61c-0.09,0.05-0.12,0.2-0.04,0.28c0.3,0.25,0.63,0.42,1.01,0.51c0.22,0.05,0.32-0.29,0.09-0.34
					c-0.32-0.07-0.6-0.2-0.85-0.42c-0.01,0.09-0.02,0.19-0.04,0.28c-0.02,0.12-0.09,0.19-0.21,0.2c-0.03,0.01-0.06,0.02-0.09,0.02
					c-0.14,0.04-0.28,0.07-0.42,0.1c-0.28,0.06-0.57,0.12-0.85,0.17c-0.58,0.1-1.16,0.16-1.75,0.2c-1.13,0.07-2.27,0.03-3.4-0.11
					C14.12,16.33,14.12,16.68,14.35,16.71L14.35,16.71z"/>
			</g>
		</g>
		<g>
			<g>
				<g>
					<path d="M14.5,45.89c-0.18,0.14-0.22,0.39-0.16,0.6c0.07,0.23,0.26,0.39,0.48,0.49c0.25,0.11,0.53,0.15,0.8,0.18
						c0.27,0.03,0.54,0.05,0.81,0.01c0.41-0.06,0.85-0.28,0.89-0.74c0.04-0.57-0.54-0.87-1.02-0.94c-0.65-0.09-1.33-0.01-1.94,0.23
						c-0.21,0.08-0.12,0.42,0.09,0.34c0.41-0.16,0.85-0.25,1.29-0.25c0.36,0,0.88,0.01,1.12,0.32c0.23,0.3-0.01,0.56-0.3,0.64
						c-0.38,0.11-0.81,0.05-1.19-0.01c-0.2-0.04-0.44-0.08-0.59-0.22c-0.12-0.11-0.16-0.3-0.03-0.4
						C14.93,45.99,14.68,45.74,14.5,45.89L14.5,45.89z"/>
				</g>
			</g>
			<g>
				<g>
					<path d="M26.47,50.16c1.5-0.86,3.35-1.43,5.09-1.27c1.35,0.12,2.71,0.13,4.06-0.14c-0.03-0.11-0.06-0.23-0.09-0.34
						c-0.89,0.18-1.78,0.34-2.64,0.61c-0.16,0.05-0.18,0.31,0,0.34c1.18,0.23,2.35-0.5,3.31-1.11c0.36-0.23,0.55-0.55,0.95-0.21
						c-0.05-0.05,0.26,0.5,0.22,0.45c0.2,0.25,0.44,0.37,0.75,0.42c0.53,0.09,1.07-0.11,1.56-0.25c0.79-0.22,1.48-0.31,2.29-0.23
						c1.47,0.15,2.7,0.08,4.16-0.1c-0.02-0.12-0.03-0.23-0.05-0.35c-0.12,0.03-0.24,0.06-0.35,0.08c-0.23,0.01-0.23,0.37,0,0.35
						c0.25-0.01,0.21,0,0.45-0.1c0.17-0.07,0.17-0.37-0.05-0.35c-1.19,0.15-2.28,0.32-3.48,0.19c-0.67-0.07-1.34-0.19-2.01-0.1
						c-0.53,0.07-1.03,0.28-1.55,0.41c-0.65,0.15-1.14,0.01-1.6-0.52c0.01,0.01-0.08-0.25-0.14-0.29c-0.23-0.16-0.13-0.23-0.45-0.23
						c-0.36,0-0.9,0.54-1.2,0.72c-0.78,0.47-1.77,1.06-2.73,0.87c0,0.11,0,0.23,0,0.34c0.87-0.27,1.76-0.43,2.64-0.61
						c0.22-0.05,0.13-0.39-0.09-0.34c-0.9,0.18-1.94,0.27-2.86,0.25c-0.77-0.02-1.44-0.2-2.22-0.11c-1.5,0.18-2.84,0.57-4.15,1.31
						C26.1,49.97,26.27,50.27,26.47,50.16L26.47,50.16z"/>
				</g>
			</g>
			<g>
				<g>
					<path d="M37.05,48.13c-0.11,0.59,0.16,1.14,0.61,1.5c0.53,0.43,1.23,0.52,1.89,0.53c0.67,0,1.46,0.06,2.08-0.21
						c0.52-0.23,0.91-0.75,0.79-1.34c-0.05-0.22-0.39-0.13-0.34,0.09c0.12,0.55-0.44,0.92-0.91,1.02c-0.52,0.11-1.09,0.09-1.62,0.08
						c-0.52,0-1.07-0.05-1.52-0.34c-0.41-0.26-0.74-0.74-0.64-1.24C37.43,48,37.09,47.9,37.05,48.13L37.05,48.13z"/>
				</g>
			</g>
			<g>
				<g>
					<path d="M15.49,48.49c-0.04,0.35-0.12,0.73-0.12,1.08c0,0.24,0.15,0.38,0.38,0.41c0.36,0.05,0.74,0.03,1.11,0.04
						c0.38,0.01,0.76,0.02,1.13,0.04c0.38,0.01,0.76,0.02,1.13,0.04c0.29,0.01,0.61,0.05,0.87-0.1c0.54-0.33,0.32-1.03,0.12-1.48
						c-0.09-0.21-0.4-0.03-0.31,0.18c0.1,0.22,0.22,0.47,0.17,0.72c-0.05,0.29-0.28,0.35-0.54,0.34c-0.56-0.01-1.11-0.03-1.67-0.05
						c-0.54-0.02-1.09-0.03-1.63-0.05c-0.07,0-0.33,0.03-0.39-0.02c-0.06-0.06,0-0.27,0.01-0.33c0.03-0.27,0.06-0.53,0.09-0.8
						C15.87,48.26,15.52,48.27,15.49,48.49L15.49,48.49z"/>
				</g>
			</g>
			<g>
				<g>
					<path d="M11.78,43.07c0.14,1.02,0.28,2.04,0.43,3.06c0.09,0.66,0.13,1.41,0.57,1.94c0.87,1.04,2.69,0.77,3.86,0.78
						c4.22,0.04,8.44,0.08,12.66,0.12c4.18,0.04,8.36,0.08,12.54-0.16c1.15-0.07,2.49,0,3.05-1.19c0.72-1.52,0.74-3.72,0.78-5.35
						c0-0.07-0.06-0.16-0.13-0.17c-0.34-0.05-0.32-0.06-0.58,0.15c-0.18,0.14,0.07,0.39,0.25,0.25c0.09-0.07,0.04,1.2,0.05,1.16
						c-0.03,0.46-0.09,0.91-0.15,1.36c-0.13,0.91-0.23,1.85-0.75,2.61c-0.86,1.27-3.96,0.9-5.4,0.94c-3.38,0.1-6.76,0.07-10.13,0.03
						c-3.33-0.03-6.66-0.06-9.99-0.09c-0.89-0.01-1.79-0.02-2.68-0.02c-0.72-0.01-1.65,0.11-2.34-0.16c-1.63-0.65-1.5-3.92-1.7-5.35
						C12.09,42.75,11.75,42.84,11.78,43.07L11.78,43.07z"/>
				</g>
			</g>
			<g>
				<g>
					<path d="M25.31,11.33c3.52-0.01,7.04-0.01,10.56-0.02c0.42,0,0.84-0.01,1.26,0c0.34,0,0.37,0,0.69,0.21
						c0.37,0.24,0.36,0.38,0.37,0.8c0.01,0.58-0.14,1.17,0.18,1.7c0.53,0.88,3.53,1.46,2.63,2.84c-0.12,0.19,0.18,0.37,0.31,0.18
						c0.76-1.18-0.74-2.03-1.61-2.44c-0.51-0.24-0.93-0.49-1.11-1.06c-0.16-0.5-0.01-0.98-0.05-1.48c-0.04-0.52-0.22-0.92-0.74-1.06
						c-0.82-0.22-1.87-0.04-2.71-0.04c-1.05,0-2.1,0-3.15,0.01c-2.21,0-4.41,0.01-6.62,0.01C25.08,10.97,25.08,11.33,25.31,11.33
						L25.31,11.33z"/>
				</g>
			</g>
			<g>
				<g>
					<path d="M26.42,7.92c-0.66-0.1-1.5-0.16-1.94,0.46c-0.25,0.35-0.3,0.85-0.34,1.27c-0.02,0.23-0.05,0.48-0.03,0.71
						c0.02,0.19,0.1,0.35,0.28,0.44c0.19,0.09,0.41,0.12,0.61,0.16c0.23,0.04,0.47,0.07,0.7,0.09c0.4,0.03,0.85,0.05,1.19-0.22
						c0.29-0.23,0.42-0.61,0.42-0.97c0-0.44-0.2-0.86-0.39-1.25c-0.17-0.35-0.4-0.73-0.82-0.8c-0.45-0.07-0.79,0.27-1.2,0.41
						C24.69,8.29,24.78,8.63,25,8.56c0.29-0.1,0.54-0.31,0.84-0.39c0.3-0.08,0.51,0.14,0.65,0.38c0.3,0.51,0.69,1.27,0.33,1.84
						c-0.18,0.28-0.5,0.33-0.81,0.32c-0.38-0.01-0.76-0.06-1.13-0.14c-0.11-0.02-0.33-0.03-0.4-0.14c-0.04-0.06-0.03-0.15-0.02-0.22
						c0-0.11,0-0.22,0.01-0.32c0.02-0.36,0.07-0.75,0.19-1.09c0.25-0.69,1.07-0.62,1.66-0.53C26.55,8.29,26.64,7.95,26.42,7.92
						L26.42,7.92z"/>
				</g>
			</g>
			<g>
				<g>
					<path d="M25.17,9.6c0.26-1.23-0.47-2.5-1.64-2.93c-0.61-0.23-1.32-0.21-1.93,0.01c-0.41,0.14-1.42,0.62-1.02,1.2
						c0.1,0.15,0.31,0.09,0.33-0.09c0.01-0.08,0.02-0.16,0.02-0.24c0.02-0.23-0.33-0.23-0.35,0c-0.01,0.08-0.02,0.16-0.02,0.24
						c0.11-0.03,0.22-0.06,0.33-0.09c-0.15-0.22,0.34-0.47,0.49-0.54c0.22-0.12,0.46-0.2,0.7-0.24c0.52-0.1,1.08-0.05,1.56,0.19
						c0.87,0.43,1.4,1.45,1.2,2.41C24.78,9.73,25.12,9.83,25.17,9.6L25.17,9.6z"/>
				</g>
			</g>
			<g>
				<g>
					<path d="M25.28,13c0.37-0.44,0.46-1.02,0.32-1.57c-0.15-0.56-0.55-1.01-1.01-1.35c-0.5-0.36-1.15-0.67-1.78-0.66
						c-0.57,0.01-1.11,0.32-1.32,0.87c-0.08,0.21,0.26,0.31,0.34,0.09c0.17-0.47,0.71-0.64,1.17-0.6c0.5,0.05,1,0.31,1.41,0.6
						c0.7,0.51,1.27,1.58,0.62,2.36C24.89,12.93,25.14,13.18,25.28,13L25.28,13z"/>
				</g>
			</g>
			<g>
				<g>
					<path d="M26.68,15.35c0.22-1.2-0.74-2.23-1.84-2.54c-0.64-0.18-1.33-0.17-1.99-0.09c-0.43,0.05-1.22,0.11-1.19,0.71
						c0.01,0.23,0.36,0.23,0.35,0c-0.02-0.39,1.01-0.38,1.25-0.4c0.52-0.04,1.06-0.01,1.56,0.14c0.86,0.27,1.69,1.11,1.51,2.08
						C26.3,15.48,26.64,15.57,26.68,15.35L26.68,15.35z"/>
				</g>
			</g>
			<g>
				<g>
					<path d="M19.31,34.55c-0.33-0.21-0.79-0.14-1.07,0.13c-0.3,0.28-0.31,0.75-0.1,1.09c0.22,0.36,0.65,0.51,1.05,0.38
						c0.41-0.13,0.72-0.52,0.68-0.96c-0.03-0.25-0.15-0.49-0.38-0.6c-0.21-0.11-0.49-0.12-0.69,0.02c-0.08,0.05-0.11,0.16-0.06,0.24
						c0.05,0.08,0.16,0.12,0.24,0.06c0.02-0.01,0.03-0.02,0.05-0.03c0.04-0.02-0.02,0,0.02-0.01c0.02,0,0.03-0.01,0.05-0.01
						c0.05-0.01-0.03,0,0.02,0c0.02,0,0.04,0,0.05,0c0.05,0-0.02-0.01,0.03,0c0.02,0,0.04,0.01,0.05,0.01
						c0.01,0,0.02,0.01,0.03,0.01c-0.01-0.01-0.01-0.01,0,0c0.13,0.06,0.19,0.15,0.22,0.29c0.02,0.12-0.01,0.27-0.09,0.39
						c-0.03,0.04-0.07,0.08-0.12,0.13c-0.01,0.01-0.04,0.03-0.07,0.05c-0.02,0.01-0.03,0.02-0.05,0.03c-0.01,0-0.06,0.03-0.04,0.02
						c-0.03,0.01-0.06,0.02-0.09,0.03c-0.02,0-0.04,0.01-0.05,0.01c0,0-0.06,0.01-0.03,0c-0.04,0-0.07,0.01-0.11,0
						c-0.02,0-0.04,0-0.05,0c0.03,0-0.04-0.01-0.04-0.01c-0.07-0.02-0.09-0.03-0.16-0.07c-0.02-0.01-0.03-0.02-0.04-0.03
						c0.03,0.02-0.02-0.02-0.02-0.02c-0.01-0.01-0.03-0.02-0.04-0.04c0,0-0.05-0.05-0.03-0.03c-0.02-0.02-0.03-0.05-0.05-0.07
						c-0.01-0.02-0.02-0.03-0.03-0.05c0,0-0.02-0.05-0.01-0.02c-0.01-0.03-0.02-0.07-0.03-0.1c0-0.02-0.01-0.03-0.01-0.05
						c0-0.02,0-0.02,0-0.01c0-0.01,0-0.02,0-0.04c0-0.03,0-0.06,0-0.09c0,0,0.01-0.06,0-0.02c0-0.02,0.01-0.03,0.01-0.05
						c0-0.02,0.01-0.03,0.02-0.05c0.01-0.05-0.01,0.02,0.01-0.02c0.01-0.02,0.02-0.03,0.02-0.05c0-0.01,0.04-0.06,0.02-0.03
						c0.09-0.12,0.2-0.18,0.34-0.21c0.01,0,0.02,0,0.03-0.01c-0.04,0.01,0.03,0,0.04,0c0.02,0,0.03,0,0.05,0
						c0.01,0,0.07,0.01,0.04,0c0.09,0.01,0.13,0.03,0.2,0.07c0.08,0.05,0.2,0.02,0.24-0.06C19.42,34.71,19.39,34.61,19.31,34.55
						L19.31,34.55z"/>
				</g>
			</g>
			<g>
				<g>
					<path d="M16.45,33.68c0,1.26,0,2.52,0,3.79c0,0.23,0.35,0.23,0.35,0c0-1.26,0-2.52,0-3.79C16.8,33.46,16.45,33.46,16.45,33.68
						L16.45,33.68z"/>
				</g>
			</g>
			<g>
				<g>
					<path d="M16.09,27.54c0.09,1.29,0.06,2.59-0.09,3.88c-0.03,0.23,0.33,0.22,0.35,0c0.15-1.29,0.18-2.58,0.09-3.88
						C16.43,27.32,16.08,27.32,16.09,27.54L16.09,27.54z"/>
				</g>
			</g>
			<g>
				<g>
					<path d="M40.67,27.54c-0.07,3.5-1.24,7.3,0.64,10.54c0.05-0.09,0.1-0.18,0.15-0.27c-0.09-0.01-0.18-0.01-0.27-0.02
						c-0.23-0.01-0.23,0.34,0,0.35c0.09,0.01,0.18,0.01,0.27,0.02c0.14,0.01,0.22-0.16,0.15-0.27c-1.84-3.17-0.66-6.94-0.59-10.36
						C41.03,27.31,40.67,27.31,40.67,27.54L40.67,27.54z"/>
				</g>
			</g>
			<g>
				<g>
					<path d="M16.75,36.22c-1.32,0.67-2.35,1.66-3.22,2.86c-0.48,0.67-0.91,1.37-1.31,2.09c-0.24,0.43-0.83,1.13-0.7,1.66
						c0.23,0.92,2.4,0.66,2.99,0.68c2.18,0.05,4.37,0.02,6.55,0.03c4.34,0.01,8.68,0.03,13.01,0.03c2.24,0,4.47-0.02,6.71-0.11
						c1.07-0.04,2.15-0.09,3.22-0.19c0.44-0.04,0.97-0.04,1.28-0.41c0.87-1.03-0.4-3.22-0.9-4.15c-0.61-1.14-1.43-2.31-2.85-2.32
						c-0.23,0-0.23,0.35,0,0.35c1.87,0.02,3.09,2.79,3.48,4.34c0.49,1.97-1.39,1.88-2.74,1.96c-0.99,0.06-1.98,0.1-2.98,0.13
						c-4.03,0.11-8.07,0.05-12.11,0.04c-3.99-0.01-7.98,0.01-11.96-0.03c-0.64-0.01-3.18,0.24-3.23-0.83
						c-0.02-0.47,0.88-1.59,1.12-1.98c0.97-1.58,2.14-2.99,3.83-3.83C17.13,36.42,16.95,36.12,16.75,36.22L16.75,36.22z"/>
				</g>
			</g>
			<g>
				<g>
					<path d="M17.3,36.55c0.23,0,0.23-0.35,0-0.35C17.07,36.2,17.07,36.55,17.3,36.55L17.3,36.55z"/>
				</g>
			</g>
			<g>
				<g>
					<path d="M15.67,13.93c-0.25-0.36-0.58-0.75-1.07-0.71c-0.48,0.03-0.85,0.39-1.03,0.81c-0.1,0.23-0.16,0.48-0.2,0.73
						c-0.04,0.23-0.1,0.48,0,0.7c0.1,0.23,0.34,0.33,0.55,0.42c0.24,0.1,0.48,0.17,0.73,0.22c0.58,0.11,1.18,0.09,1.76-0.06
						c0.22-0.06,0.13-0.4-0.09-0.34c-0.51,0.13-1.05,0.16-1.57,0.06c-0.26-0.05-0.52-0.12-0.76-0.23c-0.1-0.04-0.23-0.09-0.29-0.18
						c-0.06-0.1-0.03-0.24-0.02-0.35c0.07-0.46,0.16-1.03,0.59-1.31c0.19-0.12,0.41-0.16,0.61-0.06c0.2,0.1,0.34,0.3,0.47,0.48
						C15.5,14.3,15.8,14.12,15.67,13.93L15.67,13.93z"/>
				</g>
			</g>
			<g>
				<g>
					<path d="M15.37,8.77c-0.51,0.25-0.78,0.84-0.71,1.39c0.08,0.58,0.56,1.02,1.12,1.13c0.56,0.11,1.28-0.13,1.44-0.74
						c0.13-0.51-0.16-1.09-0.63-1.32c-0.65-0.31-1.43,0.01-1.87,0.53c-0.06,0.07-0.07,0.18,0,0.25c0.06,0.06,0.19,0.07,0.25,0
						c0.3-0.36,0.79-0.64,1.27-0.53c0.37,0.09,0.65,0.44,0.65,0.82c0,0.47-0.51,0.69-0.92,0.66c-0.41-0.03-0.82-0.3-0.94-0.71
						c-0.13-0.45,0.08-0.97,0.51-1.18C15.76,8.97,15.58,8.67,15.37,8.77L15.37,8.77z"/>
				</g>
			</g>
			<g>
				<g>
					<path d="M15.58,11.01c-0.38-1.71,1-3.22,2.66-3.4c0.76-0.08,1.56,0.08,2.18,0.54c0.79,0.58,0.88,1.48,0.74,2.39
						c-0.02,0.12,0.08,0.28,0.22,0.22c0.09-0.04,0.17-0.07,0.26-0.11c0.21-0.09,0.12-0.43-0.09-0.34c-0.09,0.04-0.17,0.07-0.26,0.11
						c0.07,0.07,0.15,0.15,0.22,0.22c0.15-0.98,0.07-1.98-0.73-2.66c-0.69-0.58-1.64-0.81-2.53-0.72c-1.9,0.2-3.43,1.9-3,3.85
						C15.29,11.32,15.63,11.23,15.58,11.01L15.58,11.01z"/>
				</g>
			</g>
			<g>
				<g>
					<path d="M21.51,10.57c-0.66,0.08-1.25,0.5-1.51,1.11c-0.15,0.34-0.21,0.75-0.04,1.09c0.15,0.3,0.45,0.47,0.76,0.55
						c0.56,0.14,1.32,0.11,1.75-0.32c0.24-0.23,0.32-0.57,0.25-0.89c-0.07-0.34-0.32-0.64-0.59-0.85c-0.32-0.25-0.76-0.5-1.18-0.38
						c-0.36,0.1-0.59,0.5-0.43,0.85c0.1,0.21,0.4,0.03,0.31-0.18c-0.04-0.08,0.01-0.18,0.07-0.24c0.08-0.09,0.2-0.12,0.32-0.11
						c0.27,0.02,0.54,0.19,0.74,0.37c0.34,0.3,0.65,0.86,0.21,1.22c-0.33,0.28-0.88,0.29-1.28,0.2c-0.22-0.04-0.46-0.13-0.59-0.32
						c-0.16-0.23-0.11-0.55-0.02-0.79c0.19-0.5,0.68-0.9,1.21-0.96c0.1-0.01,0.18-0.07,0.18-0.18
						C21.68,10.66,21.6,10.56,21.51,10.57L21.51,10.57z"/>
				</g>
			</g>
			<g>
				<g>
					<path d="M15.58,13.23c0.42-1.49,1.56-2.9,3.22-2.95c0.74-0.02,1.62,0.26,1.99,0.95c0.46,0.86-0.17,1.79-0.65,2.49
						c-0.07,0.11,0.02,0.27,0.15,0.27c0.34-0.02,0.69-0.04,1.03-0.06c0.23-0.01,0.23-0.37,0-0.35c-0.34,0.02-0.69,0.04-1.03,0.06
						c0.05,0.09,0.1,0.18,0.15,0.27c0.53-0.76,1.11-1.72,0.73-2.67c-0.33-0.82-1.27-1.25-2.11-1.3c-1.93-0.12-3.34,1.48-3.83,3.2
						C15.18,13.36,15.52,13.45,15.58,13.23L15.58,13.23z"/>
				</g>
			</g>
			<g>
				<g>
					<path d="M15.24,15.89c-0.01,0.63,0.16,1.26,0.49,1.8c0.12,0.19,0.43,0.02,0.31-0.18c-0.3-0.49-0.45-1.05-0.44-1.62
						C15.59,15.66,15.24,15.66,15.24,15.89L15.24,15.89z"/>
				</g>
			</g>
			<g>
				<g>
					<path d="M15.56,15.49c-0.31-0.6-0.03-1.3,0.43-1.74c0.55-0.52,1.37-0.64,2.1-0.66c0.36-0.01,0.75-0.04,1.11,0.03
						c0.42,0.07,0.72,0.34,0.98,0.65c0.5,0.61,0.77,1.37,0.8,2.16c0.04-0.06,0.09-0.11,0.13-0.17c-0.07,0.03-0.15,0.04-0.23,0.02
						c-0.22-0.04-0.32,0.31-0.09,0.34c0.15,0.02,0.27,0.02,0.42-0.02c0.07-0.02,0.13-0.09,0.13-0.17c-0.04-0.91-0.37-1.79-0.97-2.48
						c-0.29-0.33-0.64-0.59-1.08-0.67c-0.45-0.08-0.95-0.06-1.4-0.03c-0.84,0.05-1.75,0.26-2.32,0.93c-0.47,0.56-0.67,1.33-0.32,2
						C15.36,15.87,15.66,15.69,15.56,15.49L15.56,15.49z"/>
				</g>
			</g>
			<g>
				<g>
					<path d="M41.54,36.96c0.85,1.96,1,4.29,2.54,5.91c0.08-0.08,0.17-0.17,0.25-0.25c-0.08-0.08-0.16-0.16-0.24-0.24
						c-0.16-0.16-0.41,0.09-0.25,0.25c0.08,0.08,0.16,0.16,0.24,0.24c0.16,0.16,0.41-0.09,0.25-0.25c-1.5-1.58-1.65-3.91-2.48-5.84
						C41.76,36.57,41.45,36.75,41.54,36.96L41.54,36.96z"/>
				</g>
			</g>
			<g>
				<g>
					<path d="M41.21,37.96c0.2,2.03,0.41,4.07,1.07,6.01c0.11-0.03,0.23-0.06,0.34-0.09c-0.24-0.63-0.31-1.29-0.23-1.96
						c0.03-0.23-0.33-0.22-0.35,0c-0.08,0.7,0,1.39,0.24,2.05c0.08,0.21,0.42,0.12,0.34-0.09c-0.65-1.91-0.86-3.92-1.06-5.92
						C41.54,37.73,41.19,37.73,41.21,37.96L41.21,37.96z"/>
				</g>
			</g>
			<g>
				<g>
					<path d="M39.98,37.29c0.22,2.01,0.45,4.01,0.67,6.02c0.02,0.22,0.37,0.23,0.35,0c-0.02-0.29,0.04-0.54,0.18-0.79
						c0.11-0.2-0.2-0.38-0.31-0.18c-0.17,0.31-0.24,0.63-0.22,0.97c0.12,0,0.24,0,0.35,0c-0.22-2.01-0.45-4.01-0.67-6.02
						C40.31,37.07,39.96,37.06,39.98,37.29L39.98,37.29z"/>
				</g>
			</g>
			<g>
				<g>
					<path d="M38.5,37.2c0.24,1.97,0.48,3.93,0.72,5.9c0.02,0.16,0.23,0.25,0.33,0.09c0.07-0.11,0.13-0.23,0.2-0.34
						c0.12-0.2-0.19-0.38-0.31-0.18c-0.07,0.11-0.13,0.23-0.2,0.34c0.11,0.03,0.22,0.06,0.33,0.09c-0.24-1.97-0.48-3.93-0.72-5.9
						C38.82,36.98,38.47,36.98,38.5,37.2L38.5,37.2z"/>
				</g>
			</g>
			<g>
				<g>
					<path d="M37.23,37.12c-0.06,1.84,0.08,3.68,0.39,5.5c0.02,0.12,0.17,0.15,0.26,0.11c0.15-0.08,0.3-0.16,0.45-0.23
						c0.2-0.1,0.02-0.41-0.18-0.31c-0.15,0.08-0.3,0.16-0.45,0.23c0.09,0.04,0.17,0.07,0.26,0.11c-0.31-1.78-0.44-3.59-0.38-5.4
						C37.59,36.89,37.24,36.89,37.23,37.12L37.23,37.12z"/>
				</g>
			</g>
			<g>
				<g>
					<path d="M36.14,37.2c-0.02,2.43,0.16,4.86,0.52,7.26c0.02,0.13,0.21,0.17,0.3,0.08c0.14-0.16,0.28-0.32,0.41-0.47
						c0.15-0.17-0.1-0.42-0.25-0.25c-0.14,0.16-0.28,0.32-0.41,0.47c0.1,0.03,0.2,0.05,0.3,0.08C36.65,42,36.48,39.6,36.5,37.2
						C36.5,36.98,36.15,36.98,36.14,37.2L36.14,37.2z"/>
				</g>
			</g>
			<g>
				<g>
					<path d="M34.94,36.7c-0.19,1.45-0.27,2.91-0.23,4.38c0.02,0.71,0.06,1.42,0.14,2.12c0.02,0.17,0.03,0.4,0.23,0.45
						c0.14,0.04,0.27-0.05,0.29-0.19c0.04-0.22-0.3-0.32-0.34-0.09c0.16-0.06,0.21-0.16,0.16-0.3c0-0.04-0.01-0.09-0.01-0.13
						c-0.01-0.15-0.03-0.31-0.04-0.46c-0.02-0.27-0.04-0.53-0.05-0.8c-0.03-0.55-0.04-1.11-0.03-1.66c0.01-1.11,0.09-2.21,0.24-3.31
						C35.32,36.47,34.97,36.47,34.94,36.7L34.94,36.7z"/>
				</g>
			</g>
			<g>
				<g>
					<path d="M33.37,36.36c-0.05,2.22-0.01,4.43,0.09,6.65c0.01,0.19,0.3,0.25,0.35,0.05c0.07-0.28,0.22-0.46,0.48-0.58
						c0.21-0.09,0.03-0.4-0.18-0.31c-0.34,0.15-0.56,0.43-0.65,0.79c0.12,0.02,0.23,0.03,0.35,0.05c-0.11-2.21-0.14-4.43-0.09-6.65
						C33.72,36.13,33.37,36.13,33.37,36.36L33.37,36.36z"/>
				</g>
			</g>
			<g>
				<g>
					<path d="M31.92,37.2c-0.12,1.98-0.18,3.95-0.16,5.93c0,0.24,0.33,0.22,0.35,0c0.04-0.29,0.12-0.57,0.23-0.85
						c0.09-0.21-0.26-0.3-0.34-0.09c-0.12,0.3-0.2,0.61-0.24,0.94c0.12,0,0.24,0,0.35,0c-0.01-1.98,0.04-3.96,0.16-5.93
						C32.29,36.98,31.94,36.98,31.92,37.2L31.92,37.2z"/>
				</g>
			</g>
			<g>
				<g>
					<path d="M30.59,37.63c-0.19,2.07-0.34,4.13-0.47,6.2c-0.01,0.13,0.16,0.23,0.27,0.15c0.27-0.2,0.42-0.46,0.45-0.8
						c0.02-0.23-0.33-0.23-0.35,0c-0.02,0.2-0.11,0.38-0.28,0.5c0.09,0.05,0.18,0.1,0.27,0.15c0.12-2.07,0.28-4.14,0.47-6.2
						C30.97,37.4,30.61,37.4,30.59,37.63L30.59,37.63z"/>
				</g>
			</g>
			<g>
				<g>
					<path d="M29.28,37.59c-0.39,1.81-0.69,3.64-0.9,5.48c-0.01,0.13,0.16,0.22,0.27,0.15c0.12-0.07,0.23-0.15,0.35-0.22
						c0.19-0.12,0.01-0.43-0.18-0.31c-0.12,0.07-0.23,0.15-0.35,0.22c0.09,0.05,0.18,0.1,0.27,0.15c0.2-1.81,0.5-3.61,0.89-5.38
						C29.67,37.46,29.33,37.36,29.28,37.59L29.28,37.59z"/>
				</g>
			</g>
			<g>
				<g>
					<path d="M27.3,38.63c-0.03,1.48-0.14,2.96-0.32,4.43c-0.02,0.17,0.2,0.21,0.3,0.13c0.29-0.25,0.61-0.46,0.96-0.62
						c0.21-0.1,0.03-0.4-0.18-0.31c-0.38,0.17-0.72,0.4-1.04,0.67c0.1,0.04,0.2,0.08,0.3,0.13c0.18-1.47,0.29-2.95,0.32-4.43
						C27.66,38.41,27.3,38.41,27.3,38.63L27.3,38.63z"/>
				</g>
			</g>
			<g>
				<g>
					<path d="M25.54,39.73c0.03,1.27-0.08,2.54-0.35,3.78c-0.04,0.2,0.21,0.3,0.32,0.14c0.17-0.24,0.34-0.48,0.5-0.72
						c0.13-0.19-0.18-0.36-0.31-0.18c-0.17,0.24-0.34,0.48-0.5,0.72c0.11,0.05,0.22,0.09,0.32,0.14c0.27-1.27,0.39-2.57,0.36-3.87
						C25.89,39.5,25.53,39.5,25.54,39.73L25.54,39.73z"/>
				</g>
			</g>
			<g>
				<g>
					<path d="M23.73,40.36c-0.23,0.92-0.46,1.84-0.68,2.75c-0.06,0.22,0.29,0.32,0.34,0.09c0.23-0.92,0.46-1.84,0.68-2.75
						C24.12,40.24,23.78,40.14,23.73,40.36L23.73,40.36z"/>
				</g>
			</g>
			<g>
				<g>
					<path d="M22.77,39.6c-0.23,1.11-0.55,2.21-0.96,3.27c-0.08,0.21,0.26,0.31,0.34,0.09c0.41-1.06,0.73-2.16,0.96-3.27
						C23.15,39.47,22.81,39.37,22.77,39.6L22.77,39.6z"/>
				</g>
			</g>
			<g>
				<g>
					<path d="M21.61,38.3c-0.15,1.67-0.6,3.31-1.32,4.83c-0.07,0.14,0.09,0.36,0.24,0.24c0.13-0.1,0.26-0.2,0.39-0.3
						c0.18-0.14,0-0.44-0.18-0.31c-0.13,0.1-0.26,0.2-0.39,0.3c0.08,0.08,0.16,0.16,0.24,0.24c0.75-1.58,1.21-3.27,1.37-5.01
						C21.98,38.07,21.63,38.07,21.61,38.3L21.61,38.3z"/>
				</g>
			</g>
			<g>
				<g>
					<path d="M20.66,37.33c-0.6,1.94-1.37,3.83-2.3,5.63c-0.06,0.11,0.01,0.28,0.15,0.27c0.13-0.01,0.25-0.03,0.38-0.04
						c0.22-0.02,0.23-0.38,0-0.35c-0.13,0.01-0.25,0.03-0.38,0.04c0.05,0.09,0.1,0.18,0.15,0.27c0.95-1.83,1.73-3.75,2.34-5.72
						C21.07,37.2,20.73,37.11,20.66,37.33L20.66,37.33z"/>
				</g>
			</g>
			<g>
				<g>
					<path d="M18.72,37.94c-0.79,1.55-1.59,3.11-2.38,4.66c-0.1,0.2,0.2,0.38,0.31,0.18c0.79-1.55,1.59-3.11,2.38-4.66
						C19.12,37.92,18.82,37.74,18.72,37.94L18.72,37.94z"/>
				</g>
			</g>
			<g>
				<g>
					<path d="M17.32,37.87c-0.91,1.53-1.83,3.05-2.74,4.58c-0.11,0.19,0.13,0.33,0.28,0.21c0.13-0.1,0.25-0.2,0.38-0.29
						c0.18-0.14-0.07-0.39-0.25-0.25c-0.13,0.1-0.25,0.2-0.38,0.29c0.09,0.07,0.19,0.14,0.28,0.21c0.91-1.53,1.83-3.05,2.74-4.58
						C17.74,37.86,17.43,37.68,17.32,37.87L17.32,37.87z"/>
				</g>
			</g>
			<g>
				<g>
					<path d="M16.99,36.87c-1.42,2.12-2.83,4.23-4.25,6.35c-0.09,0.13,0.06,0.3,0.2,0.26c0.18-0.05,0.32-0.13,0.45-0.26
						c0.17-0.16-0.08-0.41-0.25-0.25c-0.1,0.09-0.17,0.13-0.29,0.17c0.07,0.09,0.13,0.17,0.2,0.26c1.42-2.12,2.83-4.23,4.25-6.35
						C17.42,36.86,17.11,36.68,16.99,36.87L16.99,36.87z"/>
				</g>
			</g>
			<g>
				<g>
					<path d="M15.69,37.36c-1.1,1.18-2.48,2.39-3.36,3.74c-0.36,0.56-0.42,1.04,0.3,1.32c0.57,0.22,1.3,0.11,1.88,0.12
						c0.91,0.01,1.81,0.03,2.72,0.04c1.98,0.03,3.95,0.06,5.93,0.09c3.78,0.05,7.56,0.12,11.35,0.15c3.54,0.02,7.24,0.27,10.69-0.68
						c0.11-0.03,0.16-0.16,0.11-0.26c-0.68-1.28-1.37-2.55-2.05-3.83c-0.34-0.63-0.61-1.37-1.41-1.36c-0.23,0-0.23,0.36,0,0.35
						c0.78-0.01,1.45,1.83,1.75,2.39c0.22,0.41,1.26,1.78,1.19,2.22c-0.15,0.9-4.13,0.79-4.98,0.81c-3.49,0.07-6.98,0-10.47-0.05
						c-3.54-0.05-7.08-0.1-10.62-0.15c-0.82-0.01-1.65-0.02-2.47-0.04c-0.49-0.01-0.99-0.01-1.48-0.02c-0.18,0-1.35,0.09-1.48-0.02
						c-0.12-0.4-0.24-0.8-0.37-1.2c0.15-0.17,0.3-0.34,0.45-0.51c0.25-0.28,0.5-0.56,0.75-0.85c0.61-0.67,1.22-1.34,1.83-2.01
						C16.1,37.44,15.85,37.19,15.69,37.36L15.69,37.36z"/>
				</g>
			</g>
			<g>
				<g>
					<path d="M29.25,37.66c2.3-0.27,4.56-0.45,6.87-0.25c2.14,0.18,4.3,0.44,6.4-0.16c0.22-0.06,0.13-0.4-0.09-0.34
						c-2.15,0.62-4.36,0.3-6.56,0.13c-2.23-0.18-4.41,0.01-6.62,0.27C29.02,37.33,29.02,37.68,29.25,37.66L29.25,37.66z"/>
				</g>
			</g>
			<g>
				<g>
					<path d="M16.12,37.74c1.91,0.1,3.82,0.09,5.73-0.06c-0.06-0.06-0.12-0.12-0.18-0.18c0,0.12-0.01,0.25-0.01,0.37
						c-0.01,0.23,0.35,0.23,0.35,0c0-0.12,0.01-0.25,0.01-0.37c0-0.09-0.08-0.18-0.18-0.18c-1.91,0.14-3.82,0.16-5.73,0.06
						C15.89,37.37,15.89,37.73,16.12,37.74L16.12,37.74z"/>
				</g>
			</g>
			<g>
				<g>
					<path d="M43.45,18.12c0.49,0.12,0.99,0.18,1.49,0.2c-0.06-0.06-0.12-0.12-0.18-0.18c0.01,0.59,0.02,1.18,0.04,1.76
						c0.01,0.55,0.05,1.12,0.01,1.67c-0.04,0.49-0.21,1-0.64,1.28c-0.37,0.24-0.85,0.33-1.24,0.1c-0.2-0.12-0.37,0.19-0.18,0.31
						c0.91,0.54,2.02-0.15,2.31-1.06c0.18-0.59,0.12-1.23,0.11-1.84c-0.01-0.74-0.03-1.48-0.04-2.22c0-0.1-0.08-0.17-0.18-0.18
						c-0.47-0.02-0.94-0.08-1.4-0.19C43.32,17.72,43.23,18.06,43.45,18.12L43.45,18.12z"/>
				</g>
			</g>
			<g>
				<g>
					<path d="M13.44,25.02c0.11-0.91,0.23-1.83,0.11-2.74c-0.11-0.85-0.49-1.54-0.75-2.34c-0.31-0.96-0.29-1.98,0.88-2.37
						c0.44-0.15,1-0.13,1.45-0.17c0.89-0.09,1.78-0.17,2.67-0.25c3.73-0.34,7.47-0.59,11.22-0.64c3.84-0.05,7.7,0.11,11.5,0.67
						c1.08,0.16,2.63,0.08,3.02,1.41c0.21,0.74-0.02,1.88-0.09,2.63c-0.16,1.92-0.45,3.82-0.4,5.75c0.01,0.23,0.36,0.23,0.35,0
						c-0.06-2.38,0.4-4.71,0.48-7.08c0.06-1.55,0.12-2.46-1.53-2.77c-4.38-0.83-8.89-1.02-13.34-0.97
						c-4.64,0.06-9.27,0.43-13.89,0.89c-1.22,0.12-2.62,0.16-2.86,1.65c-0.14,0.85,0.31,1.59,0.59,2.37
						c0.48,1.32,0.38,2.61,0.22,3.97C13.06,25.24,13.42,25.24,13.44,25.02L13.44,25.02z"/>
				</g>
			</g>
			<g>
				<g>
					<path d="M28.66,23.37c1.77,0.19,3.55,0.38,5.33,0.41c0.89,0.01,1.77-0.01,2.66-0.1c0.86-0.08,1.81-0.4,2.67-0.28
						c0.22,0.03,0.32-0.31,0.09-0.34c-0.85-0.12-1.72,0.16-2.56,0.25c-0.88,0.09-1.77,0.13-2.66,0.12c-1.85-0.02-3.7-0.21-5.53-0.41
						C28.44,22.99,28.44,23.35,28.66,23.37L28.66,23.37z"/>
				</g>
			</g>
			<g>
				<g>
					<path d="M17.91,22.39c-0.11-0.02-0.22,0-0.31,0.06c-0.09,0.06-0.15,0.15-0.18,0.25c-0.07,0.21,0.04,0.43,0.22,0.53
						c0.18,0.11,0.41,0.1,0.59,0.01c0.19-0.09,0.33-0.29,0.33-0.5c0-0.13-0.06-0.26-0.16-0.34c-0.11-0.1-0.25-0.14-0.39-0.11
						c-0.09,0.02-0.15,0.13-0.12,0.22c0.03,0.1,0.12,0.14,0.22,0.12c0.03-0.01-0.01,0-0.01,0c0,0,0.02,0,0.03,0
						c0.02,0-0.04-0.01-0.02,0c0.01,0,0.01,0,0.02,0.01c0.01,0,0.03,0.01,0,0c-0.03-0.01,0,0,0.01,0.01c0.01,0,0.01,0.01,0.02,0.01
						c0.03,0.02-0.02-0.02-0.01,0c0,0,0.04,0.04,0.04,0.04c0,0-0.02-0.04-0.01-0.01c0,0.01,0.01,0.01,0.01,0.02
						c0,0,0.01,0.02,0.01,0.02c0,0-0.01-0.04,0-0.01c0,0.01,0,0.01,0.01,0.02c0,0.01,0,0.01,0,0.02c0,0.01,0,0.01,0-0.02
						c0,0.01,0,0.04,0,0.04c0,0.03,0-0.01,0-0.01c0,0.01,0,0.01,0,0.02c0,0.01-0.02,0.04-0.01,0.04c0-0.01,0.02-0.04,0-0.01
						c0,0.01-0.01,0.02-0.01,0.02c0,0.01-0.01,0.01-0.01,0.02c-0.02,0.03,0-0.01,0.01-0.01c0,0-0.03,0.03-0.03,0.04
						c-0.01,0.01-0.02,0.02-0.03,0.03c-0.02,0.02,0.04-0.02,0,0c-0.01,0-0.02,0.01-0.02,0.02c-0.01,0.01-0.03,0.01-0.04,0.02
						c-0.02,0.01,0.04-0.01,0.01,0c-0.01,0-0.01,0.01-0.02,0.01c-0.01,0-0.03,0.01-0.04,0.01c-0.01,0-0.02,0-0.02,0
						c0.03,0,0.04,0,0.02,0c-0.01,0-0.01,0-0.02,0c-0.03,0-0.06,0-0.08,0c0.03,0,0.03,0.01,0.02,0c-0.01,0-0.01,0-0.02,0
						c-0.02,0-0.03-0.01-0.05-0.01c-0.03-0.01,0.01,0,0.01,0.01c0,0-0.01-0.01-0.02-0.01c-0.01-0.01-0.03-0.02-0.04-0.02
						c-0.03-0.02,0.02,0.02,0,0c0,0-0.01-0.01-0.01-0.01c0,0-0.03-0.03-0.01-0.01c0.02,0.02-0.01-0.01-0.01-0.02
						c0-0.01-0.01-0.03,0,0c0.01,0.03,0,0,0-0.01c0-0.01,0-0.01,0-0.02c0-0.02,0.01-0.02,0,0.02c0-0.01,0-0.04,0-0.05
						c0,0-0.01,0.05,0,0.02c0-0.01,0-0.02,0.01-0.02c0-0.01,0-0.01,0.01-0.02c0.01-0.04-0.01,0.02,0,0.01
						c0.01-0.01,0.01-0.03,0.02-0.04c0,0,0.01-0.01,0.01-0.02c-0.02,0.04-0.02,0.02,0,0.01c0,0,0.01-0.01,0.01-0.01
						c0.02-0.02-0.03,0.02-0.01,0c0.01,0,0.01-0.01,0.02-0.01c0.02-0.01,0.02,0-0.01,0c0.01,0,0.06-0.01,0.02-0.01c-0.03,0,0,0,0,0
						c0.03,0-0.04-0.01-0.01,0c0.09,0.02,0.2-0.03,0.22-0.12C18.06,22.52,18.01,22.41,17.91,22.39L17.91,22.39z"/>
				</g>
			</g>
			<g>
				<g>
					<path d="M17.97,20.73c-0.2,0.1-0.27,0.35-0.21,0.56c0.07,0.24,0.3,0.38,0.54,0.37c0.24-0.01,0.48-0.15,0.58-0.37
						c0.06-0.12,0.08-0.24,0.06-0.37c-0.02-0.12-0.09-0.22-0.19-0.29c-0.2-0.14-0.5-0.11-0.63,0.11c-0.05,0.08-0.02,0.2,0.06,0.24
						c0.09,0.04,0.19,0.02,0.24-0.06c0-0.01,0.01-0.01,0.01-0.02c-0.02,0.04-0.02,0.03-0.01,0.01c0.03-0.03-0.04,0.02,0,0
						c0.01,0,0.01-0.01,0.02-0.01c-0.04,0.02-0.04,0.01-0.02,0.01c0.01,0,0.01,0,0.02-0.01c0.02,0,0.05,0-0.01,0
						c0.01,0,0.03,0,0.04,0c0.01,0,0.01,0,0.02,0c0.02,0-0.05-0.01-0.02,0c0.01,0,0.03,0.01,0.04,0.01c0.01,0,0.01,0.01,0.02,0.01
						c-0.05-0.02-0.02-0.01-0.01,0c0.01,0.01,0.02,0.02,0.03,0.02c-0.05-0.03-0.01-0.01,0,0c0.01,0.01,0.01,0.03-0.01-0.01
						c0,0.01,0.01,0.01,0.01,0.02c0,0,0.01,0.01,0.01,0.01c0.01,0.02,0,0.01-0.01-0.02c0,0.01,0,0.01,0.01,0.02
						c0,0.01,0,0.02,0.01,0.03c0,0.02-0.01,0.02,0-0.02c0,0.02,0,0.04,0,0.06c0,0.01,0,0.01,0,0.02c0-0.05,0-0.02,0-0.01
						c0,0.02-0.01,0.04-0.02,0.06c-0.01,0.04,0.02-0.04,0,0c0,0.01-0.01,0.01-0.01,0.02c-0.01,0.02-0.02,0.04-0.03,0.05
						c-0.02,0.02,0.01-0.01,0.01-0.01c-0.01,0-0.02,0.02-0.02,0.02c-0.01,0.02-0.03,0.03-0.05,0.04c-0.03,0.02,0.03-0.02,0,0
						c-0.01,0.01-0.02,0.01-0.03,0.02c-0.02,0.01-0.03,0.02-0.05,0.02c-0.03,0.02,0.04-0.01,0,0c-0.01,0-0.01,0-0.02,0.01
						c-0.02,0.01-0.04,0.01-0.07,0.02c-0.02,0-0.02-0.01,0.01,0c-0.01,0-0.02,0-0.03,0c-0.02,0-0.04,0-0.05,0
						c-0.02,0-0.04-0.01,0.01,0c-0.01,0-0.01,0-0.02,0c-0.01,0-0.02,0-0.03-0.01c-0.01,0-0.01,0-0.02-0.01
						c-0.02-0.01-0.01,0,0.01,0.01c-0.01-0.01-0.03-0.02-0.05-0.02c0,0-0.01,0-0.01-0.01c-0.02-0.01-0.01-0.01,0.01,0.01
						c0,0-0.01-0.01-0.02-0.01c-0.01-0.01-0.01-0.01-0.02-0.02c-0.01-0.02-0.01-0.03,0.01,0.01c-0.01-0.01-0.02-0.03-0.03-0.04
						c-0.02-0.03,0.01,0.04,0.01,0.01c0-0.01-0.01-0.02-0.01-0.03c0-0.01,0-0.02-0.01-0.02c0-0.02,0-0.03,0,0.01
						c0-0.02,0-0.04,0-0.06c0-0.01,0-0.01,0-0.02c0,0.06,0,0.02,0,0.01c0-0.01,0-0.01,0-0.02c0.01-0.02,0.02-0.04,0,0
						c0.01-0.01,0.02-0.03,0.02-0.04c-0.02,0.04-0.02,0.03-0.01,0.01c0.01-0.01,0.01-0.01,0.02-0.02c0.02-0.02-0.04,0.02-0.01,0.01
						c0.01-0.01,0.02-0.01,0.03-0.02c0.08-0.04,0.11-0.17,0.06-0.24C18.15,20.71,18.06,20.68,17.97,20.73L17.97,20.73z"/>
				</g>
			</g>
			<g>
				<g>
					<path d="M17.36,18.95c-0.03,0.39,0.31,0.75,0.69,0.81c0.22,0.04,0.45-0.02,0.61-0.18c0.2-0.2,0.17-0.48,0-0.69
						c-0.18-0.23-0.49-0.26-0.77-0.28c-0.1-0.01-0.17,0.09-0.18,0.18c0,0.08-0.01,0.16-0.01,0.25c0,0.09,0.09,0.18,0.18,0.18
						c0.1,0,0.17-0.08,0.18-0.18c0-0.08,0.01-0.16,0.01-0.25c-0.06,0.06-0.12,0.12-0.18,0.18c0.05,0,0.1,0.01,0.14,0.01
						c0.01,0,0.02,0,0.03,0c0.03,0-0.02,0,0.01,0c0.03,0,0.05,0.01,0.08,0.01c0.02,0,0.04,0.01,0.06,0.02
						c0.01,0,0.02,0.01,0.03,0.01c0,0,0.04,0.01,0.02,0.01c-0.02-0.01,0.02,0.01,0.02,0.01c0.01,0,0.02,0.01,0.02,0.01
						c0.01,0.01,0.02,0.01,0.03,0.02c0.04,0.02-0.01-0.01,0.01,0c0.01,0.01,0.03,0.03,0.04,0.04c0,0,0.02,0.03,0.01,0.01
						c-0.01-0.02,0,0,0,0.01c0.01,0.02,0.02,0.03,0.03,0.05c0-0.01-0.01-0.03,0,0c0,0.01,0.01,0.02,0.01,0.04c0,0.01,0,0.01,0,0.02
						c-0.01-0.03,0-0.02,0,0c0,0.01,0,0.02,0,0.03c0,0.03,0,0,0,0c0,0.01,0,0.02-0.01,0.03c0,0.01-0.01,0.02,0,0
						c0,0.01-0.01,0.01-0.01,0.02c-0.01,0.02,0.01-0.01-0.01,0.01c0,0-0.05,0.05-0.03,0.03c-0.02,0.01-0.04,0.02-0.06,0.04
						c-0.01,0-0.05,0.02-0.03,0.01c0.02-0.01,0,0-0.01,0c-0.01,0-0.02,0.01-0.03,0.01c-0.01,0-0.04,0.02-0.05,0.01
						c0,0,0.04,0,0.02,0c-0.01,0-0.02,0-0.03,0c-0.01,0-0.03,0-0.04,0c-0.01,0-0.02,0-0.03,0c0,0-0.04,0-0.01,0
						c0.03,0-0.03-0.01-0.03-0.01c-0.01,0-0.03-0.01-0.04-0.01c-0.02,0-0.03-0.01-0.05-0.02c-0.01,0-0.03-0.02,0.01,0
						c-0.01-0.01-0.02-0.01-0.03-0.01c-0.03-0.01-0.06-0.03-0.08-0.05c-0.01,0-0.01-0.01-0.02-0.02c0,0,0.03,0.02,0.01,0
						c-0.01-0.01-0.03-0.02-0.04-0.03c-0.01-0.01-0.03-0.03-0.04-0.04c0,0-0.02-0.03-0.01-0.01c0.02,0.02-0.01-0.01-0.01-0.01
						c-0.02-0.03-0.04-0.06-0.06-0.1c0.02,0.04,0,0,0-0.02c-0.01-0.02-0.01-0.04-0.01-0.06c0-0.01,0-0.03,0-0.01
						c0,0.03,0-0.01,0-0.01c0-0.02,0-0.04,0-0.06c0.01-0.09-0.09-0.18-0.18-0.18C17.43,18.78,17.37,18.85,17.36,18.95L17.36,18.95z"
						/>
				</g>
			</g>
			<g>
				<g>
					<path d="M23.9,18.02c0.14,0.06,0.28,0.11,0.42,0.17c0.04,0.02,0.1,0,0.14-0.02c0.04-0.02,0.07-0.06,0.08-0.11
						c0.01-0.05,0.01-0.1-0.02-0.14c-0.01-0.01-0.02-0.02-0.03-0.04c-0.02-0.02-0.05-0.04-0.08-0.05c-0.14-0.06-0.28-0.11-0.42-0.17
						c-0.04-0.02-0.1,0-0.14,0.02c-0.04,0.02-0.07,0.06-0.08,0.11c-0.01,0.05-0.01,0.1,0.02,0.14c0.01,0.01,0.02,0.02,0.03,0.04
						C23.84,17.99,23.87,18.01,23.9,18.02L23.9,18.02z"/>
				</g>
			</g>
			<g>
				<g>
					<path d="M22.68,18.62c0.23,0,0.23-0.35,0-0.35C22.45,18.26,22.45,18.62,22.68,18.62L22.68,18.62z"/>
				</g>
			</g>
			<g>
				<g>
					<path d="M21.92,19.36c-0.03,0-0.06,0-0.08,0c-0.02,0-0.05,0-0.07,0.02c-0.02,0.01-0.04,0.02-0.06,0.04
						c-0.02,0.02-0.03,0.04-0.04,0.06c-0.01,0.02-0.02,0.04-0.02,0.07c0,0.05,0.02,0.09,0.05,0.13c0.03,0.03,0.08,0.05,0.13,0.05
						c0.03,0,0.06,0,0.08,0c0.02,0,0.05,0,0.07-0.02c0.02-0.01,0.04-0.02,0.06-0.04c0.02-0.02,0.03-0.04,0.04-0.06
						c0.01-0.02,0.02-0.04,0.02-0.07c0-0.05-0.02-0.09-0.05-0.13C22.01,19.38,21.97,19.36,21.92,19.36L21.92,19.36z"/>
				</g>
			</g>
			<g>
				<g>
					<path d="M21.76,21.23c0.23,0,0.23-0.35,0-0.35C21.53,20.87,21.53,21.23,21.76,21.23L21.76,21.23z"/>
				</g>
			</g>
			<g>
				<g>
					<path d="M22.51,22.32c0.23,0,0.23-0.35,0-0.35C22.28,21.97,22.28,22.32,22.51,22.32L22.51,22.32z"/>
				</g>
			</g>
			<g>
				<g>
					<path d="M24.2,22.66c0.23,0,0.23-0.35,0-0.35C23.97,22.3,23.97,22.66,24.2,22.66L24.2,22.66z"/>
				</g>
			</g>
			<g>
				<g>
					<path d="M25.79,21.82c0.23,0,0.23-0.35,0-0.35C25.57,21.46,25.57,21.82,25.79,21.82L25.79,21.82z"/>
				</g>
			</g>
			<g>
				<g>
					<path d="M25.96,20.39c0.23,0,0.23-0.35,0-0.35C25.73,20.03,25.73,20.39,25.96,20.39L25.96,20.39z"/>
				</g>
			</g>
			<g>
				<g>
					<path d="M25.37,19.46c0.23,0,0.23-0.35,0-0.35C25.15,19.11,25.15,19.46,25.37,19.46L25.37,19.46z"/>
				</g>
			</g>
			<g>
				<g>
					<path d="M23.18,20.45c0.29,0.17,0.61,0.29,0.94,0.36c-0.04-0.06-0.09-0.11-0.13-0.17c-0.02,0.52,0.44,0.98,0.96,0.97
						c0.23,0,0.23-0.36,0-0.35c-0.33,0-0.61-0.29-0.6-0.62c0-0.07-0.06-0.15-0.13-0.17c-0.3-0.07-0.59-0.18-0.86-0.33
						C23.16,20.03,22.98,20.33,23.18,20.45L23.18,20.45z"/>
				</g>
			</g>
			<g>
				<g>
					<path d="M23.61,20.48c0.34-0.55,0.71-1.08,1.11-1.6c0.06-0.08,0.07-0.18,0-0.25c-0.06-0.06-0.19-0.08-0.25,0
						c-0.42,0.54-0.8,1.09-1.16,1.67C23.18,20.49,23.49,20.67,23.61,20.48L23.61,20.48z"/>
				</g>
			</g>
			<g>
				<g>
					<path d="M25.26,17.48c-1.44-0.56-3.42-0.62-4.31,0.89c-0.4,0.68-0.49,1.57-0.47,2.35c0.02,0.72,0.2,1.46,0.7,2
						c0.52,0.57,1.29,0.79,2.03,0.89c0.72,0.1,1.49,0.17,2.21,0.03c1.63-0.31,2.21-2.21,2.01-3.68c-0.23-1.71-1.65-3.11-3.4-3.15
						c-0.23-0.01-0.23,0.35,0,0.35c1.35,0.03,2.54,0.98,2.93,2.26c0.37,1.22,0.13,3.27-1.25,3.77c-0.61,0.22-1.3,0.17-1.94,0.12
						c-0.66-0.05-1.35-0.14-1.92-0.5c-1.18-0.74-1.18-2.51-0.83-3.71c0.23-0.78,0.81-1.33,1.59-1.55c0.86-0.25,1.75-0.05,2.56,0.26
						C25.38,17.91,25.47,17.56,25.26,17.48L25.26,17.48z"/>
				</g>
			</g>
			<g>
				<g>
					<path d="M14.3,32.35c-0.34-0.3-0.83-0.08-0.97,0.31c-0.14,0.39,0.03,0.86,0.26,1.19c0.12,0.17,0.26,0.32,0.43,0.45
						c0.18,0.14,0.43,0.29,0.64,0.1c0.15-0.13,0.2-0.36,0.21-0.55c0.01-0.18-0.02-0.38-0.08-0.55c-0.16-0.42-0.48-0.77-0.87-0.98
						c-0.07-0.04-0.15-0.03-0.21,0.03c-0.1,0.09-0.17,0.22-0.19,0.35c-0.01,0.09,0.02,0.19,0.12,0.22c0.08,0.02,0.2-0.03,0.22-0.12
						c0.01-0.08,0.04-0.14,0.1-0.2c-0.07,0.01-0.14,0.02-0.21,0.03c0.45,0.24,0.88,0.77,0.76,1.31c-0.01,0.06-0.03,0.12-0.06,0.18
						c0,0.01-0.01,0.02-0.02,0.02c0.01-0.01,0-0.01-0.01-0.01c-0.02-0.01-0.06-0.03-0.08-0.04c-0.12-0.08-0.23-0.17-0.33-0.27
						c-0.19-0.21-0.36-0.5-0.37-0.79c-0.01-0.14,0.01-0.31,0.14-0.4c0.08-0.06,0.21-0.09,0.28-0.02
						C14.22,32.76,14.48,32.51,14.3,32.35L14.3,32.35z"/>
				</g>
			</g>
			<g>
				<g>
					<path d="M12.7,25.31c5.34-0.34,10.68-0.41,16.03-0.16c2.6,0.12,5.21,0.41,7.81,0.43c2.69,0.02,5.36-0.53,8.04-0.25
						c0.17,0.02,0.21-0.2,0.13-0.3c-0.03-0.04-0.07-0.08-0.1-0.12c-0.04-0.05-0.11-0.06-0.17-0.05c-0.06,0.01-0.11,0.02-0.17,0.04
						c-0.22,0.05-0.13,0.39,0.09,0.34c0.03,0.01,0.06,0.03,0.1,0.04c0.04-0.1,0.08-0.2,0.13-0.3c-2.61-0.27-5.19,0.25-7.8,0.25
						c-2.69,0-5.37-0.31-8.06-0.43c-5.34-0.25-10.69-0.18-16.03,0.16C12.48,24.97,12.48,25.33,12.7,25.31L12.7,25.31z"/>
				</g>
			</g>
			<g>
				<g>
					<path d="M43.82,26.05c0.33-0.01,0.67-0.05,0.99-0.14c0.27-0.08,0.59-0.18,0.78-0.4c0.17-0.21,0.21-0.54,0-0.74
						c-0.22-0.22-0.61-0.2-0.89-0.22c-0.4-0.03-0.8-0.03-1.2-0.01c-0.23,0.01-0.23,0.37,0,0.35c0.37-0.02,0.75-0.02,1.12,0
						c0.17,0.01,0.34,0.02,0.5,0.04c0.1,0.01,0.24,0.04,0.26,0.15c0.05,0.25-0.35,0.38-0.52,0.43c-0.34,0.11-0.69,0.16-1.04,0.17
						C43.6,25.7,43.6,26.05,43.82,26.05L43.82,26.05z"/>
				</g>
			</g>
			<g>
				<g>
					<path d="M12.34,25.38c-0.02,0.27-0.04,0.53-0.06,0.8c-0.01,0.09,0.09,0.19,0.18,0.18c3.33-0.38,6.69-0.38,10.02-0.01
						c0.23,0.03,0.22-0.33,0-0.35c-3.33-0.37-6.69-0.37-10.02,0.01c0.06,0.06,0.12,0.12,0.18,0.18c0.02-0.27,0.04-0.53,0.06-0.8
						C12.72,25.15,12.36,25.16,12.34,25.38L12.34,25.38z"/>
				</g>
			</g>
			<g>
				<g>
					<path d="M14.01,27.45c5.3,0,10.6,0.03,15.9,0.1c2.62,0.03,5.23,0.08,7.85,0.12c1.35,0.02,2.71,0.05,4.06,0.08
						c0.67,0.01,1.65,0.14,2.17-0.41c0.67-0.71,0.08-1.77-0.75-1.93c-1.39-0.27-2.69,0.08-4.05,0.27c-2.58,0.36-5.34,0.18-7.93,0.21
						c-2.84,0.03-5.69,0.04-8.53,0.06c-1.55,0.01-3.1,0.01-4.65,0.02c-1.29,0-2.83-0.24-4.09,0.05c-0.43,0.1-0.99,0.36-0.92,0.9
						c0.1,0.74,1.1,0.73,1.62,0.71c0.23-0.01,0.23-0.36,0-0.35c-0.49,0.02-0.45,0.17-0.4-0.46c0.08-0.91-0.04-0.28,0.36-0.48
						c0.39-0.19,1.26,0,1.71,0c1.06,0,2.12,0,3.18-0.01c2.2-0.01,4.41-0.02,6.61-0.03c4.23-0.03,8.52,0.09,12.74-0.22
						c0.94-0.07,1.82-0.41,2.79-0.37c0.28,0.01,0.62,0,0.9,0.06c0.17,0.04,1.27,0.43,1.31,0.63c0.08,0.39-0.65,0.92-0.92,1.01
						c-0.96,0.3-2.33,0-3.32-0.02c-3.97-0.08-7.94-0.14-11.91-0.18c-4.57-0.05-9.14-0.07-13.71-0.07
						C13.79,27.1,13.79,27.45,14.01,27.45L14.01,27.45z"/>
				</g>
			</g>
			<g>
				<g>
					<path d="M23.41,39.53c-0.09,0.2-0.18,0.4-0.27,0.6c-0.08,0.18-0.13,0.38,0.03,0.53c0.13,0.12,0.34,0.15,0.5,0.19
						c0.2,0.04,0.41,0.07,0.62,0.08c0.37,0.02,0.79,0.01,1.13-0.17c0.32-0.17,0.5-0.55,0.33-0.89c-0.1-0.2-0.41-0.03-0.31,0.18
						c0.1,0.21-0.15,0.39-0.32,0.45c-0.27,0.08-0.56,0.09-0.84,0.08c-0.27-0.01-0.58-0.04-0.84-0.15c-0.04-0.02-0.04-0.02-0.03-0.06
						c0.03-0.07,0.06-0.15,0.09-0.22c0.06-0.15,0.13-0.29,0.19-0.44c0.04-0.09,0.02-0.19-0.06-0.24
						C23.58,39.42,23.45,39.44,23.41,39.53L23.41,39.53z"/>
				</g>
			</g>
			<g>
				<g>
					<path d="M21.49,36.06c0.07,0.66,0.13,1.32,0.21,1.98c0.07,0.53,0.23,0.91,0.65,1.25c0.73,0.59,1.67,1.28,2.66,1.14
						c0.51-0.07,0.75-0.34,0.99-0.77c0.25-0.46,0.74-0.72,1.06-1.14c0.49-0.65,1.01-1.91,0.34-2.61c-0.07-0.07-0.18-0.06-0.25,0
						c-0.52,0.45-0.63,1.54-0.29,2.12c0.41,0.69,1.35,0.44,1.75-0.11c0.43-0.59,0.6-1.64,0.02-2.19c-0.22-0.21-0.56-0.32-0.86-0.26
						c-0.14,0.03-0.27,0.09-0.38,0.18c-0.17,0.15-0.22,0.42-0.44,0.52c-0.2,0.1-0.03,0.41,0.18,0.31c0.18-0.09,0.26-0.23,0.37-0.39
						c0.18-0.27,0.44-0.35,0.74-0.2c0.56,0.28,0.45,1.09,0.24,1.56c-0.11,0.26-0.3,0.51-0.57,0.61c-0.34,0.12-0.69-0.01-0.8-0.37
						c-0.15-0.47-0.09-1.19,0.3-1.53c-0.08,0-0.17,0-0.25,0c0.32,0.33,0.2,0.88,0.08,1.27c-0.13,0.42-0.36,0.81-0.67,1.13
						c-0.26,0.27-0.58,0.46-0.79,0.78c-0.1,0.15-0.15,0.33-0.27,0.47c-0.19,0.22-0.48,0.28-0.76,0.27c-0.82,0-1.7-0.64-2.27-1.17
						c-0.39-0.36-0.41-0.84-0.46-1.33c-0.05-0.51-0.11-1.02-0.16-1.53C21.82,35.84,21.47,35.83,21.49,36.06L21.49,36.06z"/>
				</g>
			</g>
			<g>
				<g>
					<path d="M26.8,34.95c-1.27-0.29-2.61-0.38-3.9-0.18c-0.51,0.08-1.02,0.26-1.33,0.7c-0.24,0.35-0.33,0.88,0.09,1.13
						c0.5,0.3,1.16,0.34,1.73,0.38c0.63,0.04,1.27,0.08,1.9,0.04c0.56-0.03,1.24-0.09,1.73-0.39c0.41-0.25,0.55-0.75,0.22-1.13
						c-0.69-0.76-1.98-0.71-2.69-0.03c-0.16,0.16,0.09,0.41,0.25,0.25c0.52-0.5,1.37-0.58,1.96-0.17c0.19,0.13,0.41,0.34,0.26,0.59
						c-0.12,0.2-0.37,0.27-0.58,0.33c-0.48,0.13-0.97,0.18-1.46,0.19c-0.46,0.01-0.92-0.02-1.38-0.04c-0.48-0.03-0.97-0.06-1.43-0.2
						c-0.24-0.08-0.48-0.15-0.44-0.45c0.03-0.21,0.18-0.39,0.33-0.52c0.37-0.3,0.89-0.36,1.35-0.4c1.1-0.1,2.22-0.02,3.3,0.23
						C26.92,35.34,27.02,35,26.8,34.95L26.8,34.95z"/>
				</g>
			</g>
			<g>
				<g>
					<path d="M36.64,34.78c0.49,0.2,1.03,0.42,1.32,0.89c0.12,0.2,0.2,0.44,0.16,0.68c-0.01,0.04-0.01,0.08-0.04,0.1
						c-0.04,0.03-0.13,0.04-0.18,0.07c-0.14,0.07-0.21,0.21-0.18,0.37c0.02,0.09,0.13,0.15,0.22,0.12c0.1-0.03,0.14-0.12,0.12-0.22
						c0-0.01,0-0.02-0.01-0.03c0,0.03,0,0.06,0,0.09c0.01-0.04,0.09-0.04,0.13-0.06c0.08-0.03,0.15-0.07,0.2-0.13
						c0.09-0.11,0.11-0.26,0.12-0.4c0.01-0.29-0.09-0.58-0.25-0.82c-0.35-0.52-0.94-0.77-1.5-1c-0.09-0.04-0.19,0.04-0.22,0.12
						C36.49,34.66,36.55,34.74,36.64,34.78L36.64,34.78z"/>
				</g>
			</g>
			<g>
				<g>
					<path d="M37.14,34.18c-0.57,0.06-0.99,0.62-0.82,1.19c0.09,0.3,0.3,0.53,0.55,0.71c0.12,0.09,0.26,0.16,0.39,0.23
						c0.15,0.08,0.3,0.16,0.46,0.2c0.33,0.09,0.57-0.05,0.77-0.3c0.19-0.25,0.35-0.51,0.48-0.8c0.12-0.29,0.22-0.59,0.27-0.89
						c0.04-0.25,0.15-0.7-0.17-0.8c-0.16-0.05-0.33,0.01-0.48,0.05c-0.18,0.05-0.37,0.1-0.55,0.16c-0.18,0.06-0.35,0.13-0.52,0.22
						c-0.15,0.07-0.32,0.2-0.5,0.17c-0.22-0.04-0.32,0.3-0.09,0.34c0.27,0.05,0.49-0.06,0.73-0.18c0.23-0.12,0.48-0.21,0.73-0.28
						c0.12-0.03,0.25-0.07,0.37-0.1c0.05-0.01,0.11-0.02,0.16-0.04c0.01,0,0.07,0.01,0.04-0.02c-0.03-0.02-0.01,0.05-0.01,0.07
						c-0.01,0.25-0.06,0.5-0.13,0.74c-0.07,0.23-0.16,0.46-0.28,0.68c-0.11,0.2-0.24,0.42-0.41,0.58c-0.19,0.18-0.46,0-0.64-0.1
						c-0.22-0.11-0.44-0.23-0.61-0.42c-0.16-0.18-0.27-0.43-0.19-0.67c0.07-0.2,0.26-0.38,0.48-0.4
						C37.37,34.51,37.37,34.15,37.14,34.18L37.14,34.18z"/>
				</g>
			</g>
			<g>
				<g>
					<path d="M37.7,31.29c0.52,0.02,0.88,0.48,1.02,0.94c0.08,0.28,0.11,0.57,0.12,0.86c0.01,0.14,0.01,0.27,0.01,0.41
						c0,0.11-0.01,0.23-0.1,0.31c-0.17,0.15,0.08,0.4,0.25,0.25c0.24-0.22,0.2-0.58,0.19-0.87c-0.01-0.37-0.04-0.75-0.15-1.1
						c-0.2-0.6-0.69-1.13-1.35-1.15C37.47,30.93,37.47,31.28,37.7,31.29L37.7,31.29z"/>
				</g>
			</g>
			<g>
				<g>
					<path d="M36.78,31.65c0.73,0.67,1.24,1.68,0.84,2.66c-0.07,0.18,0.18,0.28,0.3,0.17c0.1-0.09,0.2-0.17,0.3-0.26
						c0.17-0.15-0.08-0.4-0.25-0.25c-0.1,0.09-0.2,0.17-0.3,0.26c0.1,0.06,0.2,0.11,0.3,0.17c0.45-1.1-0.11-2.26-0.93-3.01
						C36.87,31.24,36.61,31.49,36.78,31.65L36.78,31.65z"/>
				</g>
			</g>
			<g>
				<g>
					<path d="M35.69,28.67c-0.36,0.54-0.65,1.12-0.89,1.72c-0.05,0.13-0.11,0.27-0.08,0.41c0.03,0.13,0.13,0.21,0.24,0.28
						c0.29,0.19,0.58,0.36,0.87,0.54c0.13,0.08,0.27,0.2,0.42,0.25c0.14,0.05,0.27,0.01,0.39-0.07c0.29-0.18,0.57-0.37,0.85-0.56
						c0.21-0.14,0.51-0.3,0.51-0.6c0-0.28-0.31-0.52-0.48-0.7c-0.51-0.53-1.06-1.03-1.64-1.48c-0.14-0.11-0.33-0.01-0.3,0.17
						c0.03,0.14,0.05,0.27,0.08,0.41c0.04,0.22,0.39,0.13,0.34-0.09c-0.03-0.14-0.05-0.27-0.08-0.41c-0.1,0.06-0.2,0.11-0.3,0.17
						c0.42,0.32,0.81,0.67,1.2,1.04c0.19,0.18,0.37,0.36,0.55,0.55c0.08,0.09,0.2,0.18,0.25,0.29c0.06,0.1-0.04,0.17-0.12,0.23
						c-0.21,0.15-0.44,0.29-0.66,0.44c-0.11,0.07-0.22,0.14-0.33,0.21c-0.06,0.04-0.11,0.08-0.18,0.06
						c-0.07-0.02-0.14-0.09-0.2-0.12c-0.23-0.14-0.46-0.29-0.69-0.43c-0.11-0.07-0.22-0.13-0.33-0.2c-0.06-0.04-0.06-0.06-0.04-0.12
						c0.02-0.07,0.05-0.14,0.08-0.21c0.23-0.55,0.51-1.08,0.84-1.58C36.12,28.66,35.82,28.48,35.69,28.67L35.69,28.67z"/>
				</g>
			</g>
			<g>
				<g>
					<path d="M32.53,27.53c0.05,0.78-0.19,1.76,0.48,2.34c0.31,0.27,0.73,0.32,1.12,0.22c0.22-0.05,0.42-0.15,0.62-0.24
						c0.1-0.05,0.2-0.11,0.31-0.16c0.04-0.02,0.09-0.04,0.13-0.06c0.03-0.01,0.06-0.03,0.09-0.04c0.07-0.01,0.06-0.03-0.03-0.05
						c-0.02-0.04-0.03-0.08-0.05-0.13c0,0.01,0,0.01,0,0.02c0.03-0.05,0.06-0.1,0.09-0.15c0.03,0,0.06-0.01,0.09-0.01
						c0.04,0.07,0.08,0.15,0.12,0.22c0,0,0-0.01,0-0.01c0.04-0.22-0.31-0.32-0.34-0.09c0,0,0,0.01,0,0.01
						c-0.02,0.1,0.02,0.18,0.12,0.22c0.2,0.07,0.36-0.2,0.2-0.34c-0.17-0.15-0.45,0.04-0.61,0.12c-0.39,0.19-0.82,0.47-1.28,0.39
						c-0.39-0.07-0.59-0.42-0.68-0.78c-0.11-0.48-0.01-0.98-0.04-1.47C32.87,27.3,32.52,27.3,32.53,27.53L32.53,27.53z"/>
				</g>
			</g>
			<g>
				<g>
					<path d="M31.28,27.27c-0.3,1.03-0.15,2.26,0.53,3.12c0.33,0.41,0.77,0.65,1.29,0.69c0.6,0.04,1.22-0.07,1.78-0.26
						c0.22-0.07,0.12-0.41-0.09-0.34c-0.5,0.17-1.03,0.26-1.56,0.25c-0.48-0.01-0.88-0.21-1.17-0.6c-0.59-0.77-0.7-1.86-0.43-2.77
						C31.69,27.15,31.34,27.05,31.28,27.27L31.28,27.27z"/>
				</g>
			</g>
			<g>
				<g>
					<path d="M23.79,32.56c-0.2,0.04-0.39,0.13-0.55,0.25c-0.17,0.13-0.29,0.28-0.41,0.45c0,0-0.02,0.03-0.01,0.02
						c0.01-0.01-0.01,0.01-0.01,0.01c-0.01,0.01-0.02,0.02-0.02,0.02c0.01-0.01,0.01-0.01-0.01,0c0,0,0.01-0.01,0.02-0.01
						c0,0,0,0,0.01,0c-0.02,0-0.02,0-0.01,0c0,0,0,0,0.01,0c-0.01,0-0.01,0-0.02,0c0.01,0.01,0.02,0.01,0,0
						c-0.01-0.01-0.01-0.01,0,0c0.01,0.02-0.03-0.04-0.01-0.01c-0.01-0.01-0.01-0.02-0.02-0.03c0,0,0.01,0.02,0,0
						c-0.01-0.03,0,0.02,0-0.01c0-0.01,0-0.02,0-0.03c0-0.02,0-0.04,0.01-0.07c0.02-0.08,0.08-0.16,0.14-0.24
						c0.02-0.03,0.01-0.02,0.01-0.01c0.01-0.01,0.02-0.02,0.02-0.03c0.01-0.02,0.03-0.03,0.04-0.05c0.03-0.04,0.07-0.07,0.1-0.1
						c0.08-0.08,0.14-0.12,0.24-0.18c0.1-0.06,0.18-0.1,0.27-0.13c0.09-0.03,0.15-0.12,0.12-0.22c-0.02-0.09-0.13-0.16-0.22-0.12
						c-0.23,0.08-0.44,0.2-0.62,0.36c-0.18,0.16-0.35,0.36-0.44,0.58c-0.05,0.13-0.06,0.28,0,0.41c0.06,0.12,0.17,0.22,0.3,0.23
						c0.15,0.02,0.28-0.06,0.36-0.18c0.07-0.09,0.1-0.16,0.17-0.23c0.16-0.18,0.36-0.29,0.6-0.34c0.09-0.02,0.15-0.13,0.12-0.22
						C23.98,32.59,23.88,32.54,23.79,32.56L23.79,32.56z"/>
				</g>
			</g>
			<g>
				<g>
					<path d="M24.9,33.32c0.2,0.02,0.4-0.02,0.6-0.05c0.19-0.03,0.35-0.03,0.54,0.03c0.33,0.1,0.7,0.23,1-0.03
						c0.05-0.05,0.1-0.1,0.13-0.17c0.05-0.11,0.02-0.19-0.04-0.28c-0.1-0.14-0.21-0.27-0.34-0.38c-0.26-0.22-0.58-0.38-0.92-0.44
						c-0.09-0.02-0.19,0.03-0.22,0.12c-0.02,0.09,0.03,0.2,0.12,0.22c0.45,0.08,0.86,0.34,1.1,0.73c-0.01-0.05-0.01-0.09-0.02-0.14
						c-0.04,0.11-0.18,0.13-0.28,0.13c-0.17,0-0.34-0.09-0.51-0.14c-0.19-0.05-0.38-0.05-0.58-0.02c-0.2,0.03-0.39,0.07-0.58,0.05
						c-0.1-0.01-0.18,0.09-0.18,0.18C24.72,33.24,24.81,33.31,24.9,33.32L24.9,33.32z"/>
				</g>
			</g>
			<g>
				<g>
					<path d="M21.62,31.55c0.08,0.36,0.31,0.66,0.65,0.82c0.16,0.08,0.33,0.1,0.51,0.11c0.32,0.02,0.51,0.07,0.73,0.31
						c0.46,0.49,1.16,0.77,1.81,0.48c0.36-0.16,0.51-0.47,0.7-0.79c0.27-0.45,0.73-0.41,1.17-0.56c0.8-0.27,0.95-1.14,1.03-1.88
						c0.04-0.32,0.06-0.64,0.05-0.96c0-0.17,0-0.37-0.11-0.52c-0.23-0.33-0.54-0.05-0.58,0.25c-0.03,0.23,0.33,0.22,0.35,0
						c0.02-0.03,0.05-0.05,0.07-0.08c-0.06,0-0.12,0-0.18,0c0.17,0.09,0.09,0.56,0.09,0.71c-0.01,0.26-0.03,0.53-0.07,0.79
						c-0.06,0.38-0.12,0.82-0.39,1.12c-0.27,0.3-0.7,0.29-1.05,0.4c-0.34,0.11-0.56,0.32-0.73,0.63c-0.2,0.36-0.41,0.62-0.85,0.64
						c-0.36,0.02-0.71-0.14-0.96-0.39c-0.25-0.25-0.44-0.46-0.81-0.5c-0.24-0.03-0.46,0-0.68-0.12c-0.22-0.12-0.35-0.32-0.41-0.56
						C21.91,31.24,21.57,31.33,21.62,31.55L21.62,31.55z"/>
				</g>
			</g>
			<g>
				<g>
					<path d="M21.1,28.75c0.14,0.35,0.17,0.73,0.08,1.09c-0.02,0.09,0.03,0.2,0.12,0.22c0.09,0.02,0.19-0.03,0.22-0.12
						c0.1-0.42,0.08-0.87-0.08-1.28c-0.03-0.09-0.12-0.15-0.22-0.12C21.14,28.55,21.07,28.66,21.1,28.75L21.1,28.75z"/>
				</g>
			</g>
			<g>
				<g>
					<path d="M20.24,27.56c-0.45,1.2,1.73,1.08,2.32,1.11c1.46,0.07,2.92,0.09,4.38,0.03c0.68-0.02,1.39-0.02,2.06-0.12
						c0.36-0.06,0.68-0.27,0.71-0.67c0.07-0.72-1-0.8-1.06-0.11c-0.02,0.23,0.34,0.23,0.35,0c0.13-0.23,0.23-0.16,0.3,0.22
						c-0.09,0.06-0.18,0.12-0.27,0.18c-0.2,0.07-0.47,0.05-0.68,0.06c-0.36,0.02-0.71,0.04-1.07,0.06
						c-0.74,0.03-1.49,0.05-2.23,0.05c-0.71,0-1.43-0.02-2.14-0.05c-0.42-0.02-2.62,0.06-2.34-0.68
						C20.66,27.44,20.32,27.34,20.24,27.56L20.24,27.56z"/>
				</g>
			</g>
			<g>
				<g>
					<path d="M23.22,29.6c0.23,0.01,0.59,0.02,0.78,0.17c0.03,0.06,0.07,0.12,0.1,0.18c0.15,0.12,0.15,0.19,0.02,0.22
						c-0.04,0.04-0.16,0.07-0.21,0.09c-0.26,0.11-0.52,0.23-0.77,0.35c-0.48,0.24-0.95,0.49-1.41,0.76c-1,0.56-2,1.11-3.08,1.48
						c-0.61,0.21-1.23,0.36-1.87,0.46c-0.43,0.07-0.86,0.09-1.29,0.14c-0.42,0.04-1,0.36-1.34-0.03c-0.58-0.68,1.3-1.42,1.77-1.64
						c0.77-0.36,1.56-0.65,2.36-0.9c1.71-0.54,3.48-0.89,5.23-1.24c-0.07-0.04-0.15-0.08-0.22-0.12c0.04,0.2,0.08,0.4,0.12,0.6
						c0.04,0.22,0.39,0.13,0.34-0.09c-0.04-0.2-0.08-0.4-0.12-0.6c-0.02-0.1-0.13-0.14-0.22-0.12c-2.06,0.41-4.13,0.82-6.11,1.53
						c-0.94,0.34-1.85,0.74-2.72,1.23c-0.5,0.29-1.25,0.74-0.86,1.42c0.45,0.79,1.45,0.35,2.13,0.28c0.88-0.08,1.75-0.23,2.6-0.49
						c1.42-0.44,2.69-1.2,3.99-1.91c0.36-0.2,0.72-0.39,1.1-0.56c0.29-0.13,0.75-0.22,0.96-0.46c0.59-0.69-0.88-1.07-1.29-1.09
						C22.99,29.24,23,29.59,23.22,29.6L23.22,29.6z"/>
				</g>
			</g>
		</g>
	</g>
</g>
</svg>
