<?xml version="1.0" encoding="utf-8"?>
<!-- Generator: Adobe Illustrator 26.2.1, SVG Export Plug-In . SVG Version: 6.00 Build 0)  -->
<svg version="1.1" id="Layer_1" xmlns="http://www.w3.org/2000/svg" xmlns:xlink="http://www.w3.org/1999/xlink" x="0px" y="0px"
	 viewBox="0 0 56.69 56.69" style="enable-background:new 0 0 56.69 56.69;" xml:space="preserve">
<g>
	<g>
		<g>
			<path d="M18.14,16.33c0.11,2.02,1.69,3.84,3.69,4.2c-0.04-0.09-0.07-0.17-0.11-0.26c-0.06,0.14-0.15,0.21-0.3,0.24
				c-0.2,0.04-0.15,0.34,0.05,0.35c0.48,0.01,0.97,0.02,1.45,0.03c0.23,0,0.23-0.35,0-0.35c-0.48-0.01-0.97-0.02-1.45-0.03
				c0.02,0.12,0.03,0.23,0.05,0.35c0.23-0.04,0.42-0.19,0.51-0.4c0.04-0.09,0.02-0.24-0.11-0.26c-1.84-0.33-3.33-1.98-3.43-3.86
				C18.48,16.1,18.13,16.1,18.14,16.33L18.14,16.33z"/>
		</g>
	</g>
	<g>
		<g>
			<path d="M38.45,26.35c-0.54,0.29-0.76,0.87-0.89,1.44c-0.09,0.39-0.15,0.78-0.22,1.18c-0.07,0.39-0.18,0.8-0.12,1.2
				c0.21,1.44,2.12,1.76,3.2,1.16c0.2-0.11,0.02-0.41-0.18-0.31c-0.67,0.34-1.49,0.08-1.97-0.46c-0.53-0.6-0.65-1.51-0.49-2.27
				c0.09-0.45,0.31-0.76,0.7-1c0.35-0.22,0.72-0.42,1.09-0.61c0.77-0.4,1.58-0.73,2.46-0.77c-0.05-0.09-0.1-0.18-0.15-0.27
				c-0.13,0.18-0.26,0.37-0.38,0.55c0.11,0.05,0.22,0.09,0.32,0.14c0,0,0-0.01,0-0.01c-0.04,0.04-0.08,0.08-0.12,0.12
				c0,0,0,0,0.01,0c-0.06-0.02-0.11-0.03-0.17-0.05c0.1,0.1,0.13,0.5,0.39,0.43c0.05-0.01,0.11-0.07,0.12-0.12c0,0,0-0.01,0-0.01
				c0.04-0.22-0.3-0.32-0.34-0.09c0,0,0,0.01,0,0.01c0.04-0.04,0.08-0.08,0.12-0.12c0,0,0,0-0.01,0c0.06,0.02,0.11,0.03,0.17,0.05
				c-0.1-0.1-0.13-0.5-0.39-0.43c-0.05,0.01-0.11,0.07-0.12,0.12c0,0,0,0.01,0,0.01c-0.03,0.2,0.21,0.31,0.32,0.14
				c0.13-0.18,0.26-0.37,0.38-0.55c0.08-0.11-0.02-0.27-0.15-0.27c-0.79,0.04-1.54,0.29-2.25,0.63c-0.38,0.18-0.75,0.39-1.12,0.6
				c-0.32,0.18-0.66,0.36-0.9,0.66c-0.41,0.53-0.46,1.34-0.37,1.98c0.1,0.67,0.41,1.31,0.97,1.71c0.59,0.43,1.38,0.53,2.04,0.2
				c-0.06-0.1-0.12-0.2-0.18-0.31c-0.99,0.55-2.8,0.15-2.67-1.25c0.05-0.61,0.2-1.25,0.33-1.85c0.1-0.49,0.27-1.02,0.74-1.27
				C38.83,26.55,38.65,26.24,38.45,26.35L38.45,26.35z"/>
		</g>
	</g>
	<g>
		<g>
			<path d="M13.73,40.11c-1.12,0.57-3.07,2.13-1.57,3.44c1.72,1.51,3.83-0.92,5.1-1.84c2.3-1.66,5.03-2.44,7.45-3.88
				c1.18-0.7,2.18-1.62,3.28-2.41c1.26-0.91,2.66-1.53,4.13-2.04c1.66-0.57,3.05-1.07,4.8-0.56c1.13,0.33,2.21,0.5,3.39,0.33
				c1.62-0.23,4.1-1.23,4.68-2.94c0.09-0.27,0.25-0.92-0.08-1.11c-0.4-0.23-1.02,0.53-1.23,0.73c-1.01,0.98-1.93,1.89-3.37,2.19
				c-1.5,0.31-2.85-0.32-4.32-0.47c-1.28-0.13-2.42,0.34-3.62,0.75c-1.47,0.51-2.94,1.03-4.41,1.56c-2.79,1.02-5.57,2.09-8.27,3.33
				c-2.49,1.14-5.14,2.32-7.24,4.11c-1,0.86-2.27,2.66-0.11,2.88c2.65,0.28,4.58-2.36,6.6-3.59c2.36-1.45,5.06-2.23,7.45-3.61
				c1.06-0.61,1.97-1.41,2.99-2.08c1.26-0.82,2.72-1.3,4.15-1.73c1.02-0.3,2.04-0.55,3.09-0.29c0.65,0.16,1.22,0.53,1.87,0.68
				c1.13,0.26,2.31,0.04,3.38-0.37c2.09-0.81,4.37-2.42,3.94-4.96c-0.37-2.19-2.47-3.53-4.59-3.56c-2.23-0.03-4.41,1.36-5.36,3.37
				c-0.24,0.5-0.36,1.03-0.53,1.55c-0.39,1.16-0.99,1.66-2.12,2.15c-1.57,0.68-3.12,1.38-4.65,2.15c0.06,0.1,0.12,0.2,0.18,0.31
				c2.05-1.52,5.14-1.72,6.7-3.91c0.74-1.04,0.73-2.39,1.53-3.4c1.02-1.29,2.95-2.18,4.58-2.28c1.78-0.11,3.49,1.09,3.94,2.84
				c0.42,1.64-0.42,3.3-1.66,4.35c-1.39,1.17-3.24,1.53-5.01,1.52c-1.49-0.01-3.05-0.52-4.54-0.29c-1.26,0.2-2.46,0.95-3.58,1.52
				c-1.49,0.75-2.98,1.52-4.45,2.3c-2.95,1.56-5.88,3.18-8.76,4.86c-1.33,0.77-2.84,2.03-4.32,2.45c-2.39,0.68-2.53-1.62-1.26-2.77
				c0.65-0.59,1.52-0.91,2.31-1.28c1.4-0.64,2.79-1.28,4.19-1.93c0.63-0.29,1.26-0.57,1.87-0.92c0.71-0.41,1.29-0.98,2.04-1.33
				c0.32-0.14,1.97-0.42,1.54-1.21c-0.16-0.29-0.59-0.27-0.75-0.01c-0.45,0.72,0.81,0.67,1.11,0.63c1.32-0.14,2.65-0.32,3.84-0.96
				c0.2-0.11,0.02-0.41-0.18-0.31c-1.73,0.92-3.7,0.55-5.46,1.29c-0.42,0.18-0.7,0.39-1.05,0.68c-0.79,0.65-1.63,1.11-2.55,1.55
				c-1.44,0.68-2.9,1.34-4.35,2c-1.15,0.53-2.61,1-3.36,2.1c-1.07,1.59,0.12,3.42,1.99,2.86c1.33-0.4,2.55-1.37,3.74-2.07
				c1.65-0.97,3.3-1.91,4.97-2.84c3.06-1.7,6.15-3.34,9.28-4.91c0.9-0.45,1.84-1.02,2.82-1.28c0.98-0.25,1.94-0.07,2.93,0.05
				c1.46,0.17,2.93,0.25,4.38-0.08c2.19-0.5,4.3-2.1,4.69-4.43c0.33-1.98-0.93-3.95-2.83-4.57c-2.29-0.75-5.65,0.74-6.78,2.84
				c-0.43,0.79-0.48,1.72-0.92,2.51c-0.46,0.8-1.22,1.36-2.01,1.8c-1.57,0.86-3.32,1.23-4.78,2.31c-0.18,0.13-0.03,0.41,0.18,0.31
				c1.08-0.55,2.17-1.07,3.27-1.56c0.85-0.38,1.92-0.66,2.66-1.26c0.54-0.44,0.79-1.05,1-1.7c0.37-1.13,0.72-2.13,1.58-3
				c1.73-1.75,4.64-2.26,6.69-0.78c1.17,0.84,1.86,2.32,1.48,3.76c-0.36,1.38-1.7,2.24-2.9,2.84c-1.19,0.6-2.6,1-3.93,0.7
				c-0.98-0.22-1.79-0.79-2.82-0.81c-1.87-0.03-4.04,0.83-5.69,1.67c-1.88,0.96-3.42,2.43-5.34,3.35c-1.93,0.93-3.96,1.64-5.81,2.74
				c-1.97,1.17-3.74,3.61-6.18,3.66C12,43.86,12,43.87,11.97,43.02c-0.03-0.8-0.07-0.72,0.43-1.19c0.46-0.43,0.96-0.81,1.49-1.17
				c0.97-0.66,2.02-1.21,3.06-1.75c4.42-2.27,9.09-4.01,13.77-5.66c1-0.35,2-0.72,3.01-1.05c1.46-0.47,2.63-0.24,4.08,0.07
				c1.64,0.35,3.28,0.17,4.67-0.83c0.59-0.43,1.05-1,1.58-1.49c0.43-0.4,1.12-0.86,0.47,0.4c-0.31,0.6-1.01,1.11-1.56,1.45
				c-0.96,0.6-2.08,0.96-3.21,1.04c-1.22,0.09-2.23-0.28-3.38-0.57c-1.92-0.48-4.25,0.62-5.98,1.37c-2.28,0.98-3.93,2.76-6.05,3.98
				c-2.13,1.22-4.49,1.94-6.55,3.28c-1.01,0.66-1.86,1.53-2.87,2.19c-0.61,0.39-1.64,0.81-2.34,0.31c-1.75-1.26,0.48-2.58,1.32-3.01
				C14.12,40.31,13.94,40,13.73,40.11L13.73,40.11z"/>
		</g>
	</g>
	<g>
		<g>
			<path d="M18.56,14.56c-1.7,1.01-4.32,2.2-4.09,4.61c0.23,2.41,3.59,3.14,5.5,3.41c2.87,0.41,5.57,0.41,8.39-0.33
				c2.11-0.55,4.56-1.32,5.77-3.29c1.27-2.07-1.17-3.77-2.89-4.46c-2.53-1.02-5.71-0.79-8.39-0.69c-2.11,0.07-5.04,0.4-6.41,2.25
				c-0.2,0.27-0.35,0.61-0.6,0.85c-0.13,0.12-0.29,0.2-0.41,0.34c-0.31,0.33-0.5,0.75-0.57,1.19c-0.14,0.83,0.19,1.65,0.75,2.25
				c0.89,0.96,2.06,1.11,3.27,1.36c0.64,0.13,1.16,0.58,1.81,0.65c0.67,0.08,1.32-0.18,1.92-0.43c0.73-0.31,1.47-0.72,2.28-0.74
				c0.87-0.03,1.61,0.46,2.44,0.66c0.97,0.23,2.02-0.01,2.3-1.07c0.03-0.12-0.06-0.21-0.17-0.22c-0.32-0.04-0.55,0.05-0.81,0.23
				c-0.23,0.16-0.4,0.39-0.63,0.55c-0.49,0.34-0.82,0.12-1.25-0.15c-0.39-0.25-0.58-0.47-1.09-0.52c-0.6-0.06-1.19,0.16-1.74,0.36
				c-0.46,0.17-0.93,0.42-1.4,0.54c-0.53,0.14-0.89,0.08-1.36-0.13c-0.43-0.19-0.72-0.38-1.22-0.44c-0.57-0.07-1.03,0.01-1.59-0.23
				c-0.18-0.08-0.33-0.21-0.52-0.29c-0.92-0.39-1.81-0.42-2.51-1.24c-0.79-0.92-0.74-2.16,0.2-2.94c0.51-0.42,1.13-0.65,1.71-0.95
				c0.49-0.25,0.95-0.38,1.48-0.45c0.3-0.04,0.5-0.01,0.8-0.11c0.81-0.29,1.4-0.73,2.31-0.79c0.76-0.05,1.52,0.03,2.28-0.06
				c0.82-0.1,1.55-0.45,2.4-0.33c0.79,0.11,1.53,0.45,2.32,0.6c0.93,0.17,1.93,0,2.62,0.78c0.15,0.17,0.4-0.08,0.25-0.25
				c-0.88-0.99-2.39-0.73-3.56-1.06c-0.58-0.17-1.15-0.38-1.76-0.44c-0.76-0.08-1.4,0.21-2.13,0.33c-1.29,0.21-2.65-0.13-3.89,0.42
				c-0.46,0.21-0.83,0.49-1.34,0.55c-0.31,0.04-0.64-0.04-0.94,0.03c-0.55,0.12-1.1,0.54-1.6,0.79c-0.87,0.43-1.76,0.94-2,1.95
				c-0.23,0.99,0.25,1.99,1.02,2.6c0.4,0.32,0.87,0.53,1.35,0.67c0.64,0.19,1.22,0.57,1.86,0.72c0.74,0.17,1.4-0.03,2.09,0.37
				c0.43,0.26,0.65,0.57,1.18,0.49c0.83-0.13,1.67-0.66,2.47-0.92c0.61-0.2,1.18-0.3,1.76,0.03c0.29,0.16,0.47,0.43,0.75,0.59
				c1.08,0.61,1.54-1.04,2.5-0.93c-0.06-0.07-0.11-0.15-0.17-0.22c-0.48,1.81-2.67,0.41-3.73,0.21c-0.76-0.15-1.48,0.04-2.19,0.32
				c-0.48,0.19-0.95,0.44-1.44,0.6c-0.78,0.26-1.17,0.22-1.98-0.14c-0.74-0.34-1.48-0.31-2.27-0.53c-1.08-0.3-2.18-1.01-2.45-2.17
				c-0.15-0.6-0.01-1.26,0.38-1.74c0.26-0.31,0.66-0.44,0.92-0.74c0.16-0.18,0.12-0.29,0.23-0.48c0.3-0.53,0.79-0.86,1.32-1.15
				c1.1-0.59,2.32-0.86,3.55-0.98c2.16-0.21,4.42-0.17,6.59,0c1.12,0.08,2.23,0.28,3.25,0.76c0.84,0.4,2.17,1.16,2.53,2.09
				c0.94,2.42-2.84,3.97-4.54,4.5c-2.13,0.66-4.32,1.1-6.55,0.95c-2.28-0.16-4.97-0.27-6.91-1.63c-1.51-1.05-1.44-2.81-0.22-4.08
				c0.82-0.85,1.95-1.36,2.96-1.95C18.94,14.75,18.76,14.45,18.56,14.56L18.56,14.56z"/>
		</g>
	</g>
	<g>
		<g>
			<path d="M26.77,26.23c-0.25-0.17-0.52-0.18-0.81-0.07c-0.54,0.2-0.91,0.52-1.52,0.57c-1.05,0.09-2.06-0.2-3.08,0.16
				c-0.57,0.2-1,0.31-1.53-0.07c-0.38-0.27-0.7-0.57-1.12-0.78c-1.07-0.53-2.18-0.98-3.28-1.47c-0.21-0.09-0.39,0.21-0.18,0.31
				c1.06,0.47,2.14,0.92,3.19,1.42c0.67,0.32,1.3,1.17,2.09,1.17c0.45,0,0.85-0.26,1.28-0.36c0.58-0.14,1.18-0.07,1.77-0.04
				c0.45,0.02,0.92,0.04,1.37-0.06c0.45-0.1,1.22-0.77,1.64-0.48C26.78,26.67,26.96,26.36,26.77,26.23L26.77,26.23z"/>
		</g>
	</g>
	<g>
		<g>
			<path d="M32.54,26.72c-0.87,0.9-2.14,1.1-3.33,1.27c-0.39,0.06-3.15,0.38-2.83,1.09c0.17,0.39,0.82,0.22,1.07,0.03
				c0.2-0.15,0.27-0.43,0.49-0.55c0.29-0.16,0.72-0.14,1.04-0.17c0.35-0.04,0.65-0.11,0.98,0.05c0.23,0.11,0.42,0.18,0.68,0.14
				c0.6-0.1,1.12-0.59,1.6-0.92c0.48-0.34,0.8-0.68,0.95-1.26c0.13-0.5,0.12-1.19,0.6-1.5c0.19-0.12,0.01-0.43-0.18-0.31
				c-0.71,0.45-0.58,1.33-0.87,2.02c-0.23,0.55-0.87,0.87-1.34,1.19c-0.23,0.16-0.47,0.34-0.75,0.4c-0.36,0.09-0.56-0.19-0.89-0.24
				c-0.23-0.03-0.48,0.02-0.71,0.05c-0.29,0.03-0.58,0.06-0.87,0.1c-0.18,0.02-0.35,0.06-0.5,0.17c-0.21,0.15-0.27,0.43-0.49,0.57
				c-0.04,0.02-0.46,0.16-0.47,0.14c-0.01-0.01,0.44-0.2,0.46-0.21c0.29-0.11,0.59-0.19,0.89-0.25c0.55-0.12,1.11-0.18,1.66-0.27
				c1.11-0.17,2.25-0.47,3.05-1.3C32.95,26.8,32.7,26.55,32.54,26.72L32.54,26.72z"/>
		</g>
	</g>
	<g>
		<g>
			<path d="M16.55,25.42c1.25,1.02,2.91,1.69,4.53,1.75c0.43,0.02,0.86-0.07,1.28-0.15c0.53-0.1,1.01-0.1,1.54-0.07
				c0.93,0.06,1.85,0.05,2.73-0.3c0.21-0.08,0.12-0.43-0.09-0.34c-0.82,0.32-1.68,0.34-2.54,0.29c-0.42-0.02-0.82-0.06-1.23-0.01
				c-0.44,0.06-0.88,0.18-1.32,0.21c-1.6,0.12-3.41-0.64-4.63-1.64C16.63,25.02,16.37,25.27,16.55,25.42L16.55,25.42z"/>
		</g>
	</g>
	<g>
		<g>
			<path d="M24.47,12.52c-3.79,0.37-8.22,0.85-10.8,4.02c-0.94,1.15-1.32,2.57-0.58,3.93c0.86,1.59,2.63,2.27,4.26,2.79
				c4.13,1.31,8.6,1.11,12.76,0c2.82-0.75,6.9-3.22,5.5-6.67c-1.4-3.44-6.01-3.74-9.17-4.01c-4.06-0.35-8.49,0.06-11.85,2.59
				c-2.39,1.79-3.12,4.89-0.55,6.9c0.94,0.73,1.14,1.58,1.6,2.61c0.35,0.78,1.13,1.21,1.75,1.76c0.78,0.7,1.12,1.69,1.73,2.52
				c0.5,0.68,1.12,1.21,1.89,1.58c1.93,0.93,4.12,0.66,6.14,0.22c1.76-0.39,3.15-0.85,3.99-2.5c0.4-0.78,0.72-1.61,1.36-2.22
				c0.57-0.54,1.3-0.74,1.77-1.39c0.99-1.38,0.9-3.3,1.37-4.87c-0.12-0.02-0.23-0.03-0.35-0.05c-0.15,2.34-1.4,4.03-2.58,5.95
				c-0.54,0.87-1.04,1.77-1.55,2.65c-0.34,0.6-0.57,1.12-1.14,1.51c-0.61,0.42-1.26,0.3-1.92,0.55c-0.46,0.18-0.86,0.55-1.34,0.68
				c-0.55,0.14-1.16-0.04-1.73,0.04c-1.52,0.2-3.06,0.49-4.35-0.61c-0.33-0.28-0.66-0.59-0.98-0.88c-0.39-0.35-0.56-0.57-0.73-1.12
				c-0.03-0.11,0-0.25-0.04-0.36c-0.29-0.77-1.61-1.36-1.51-2.13c0.03-0.23-0.33-0.22-0.35,0c0-0.03-0.57-0.64-0.66-0.77
				c-0.08-0.13-0.14-0.31-0.24-0.43c-0.02-0.04-0.04-0.08-0.06-0.13c-0.02-0.21-0.09-0.21-0.19-0.02c0.16,0.12,0.36-0.14,0.21-0.28
				c-0.5-0.46-0.86-1.02-1.29-1.53c-0.44-0.53-1.05-0.94-1.4-1.55c-0.83-1.46-0.78-3.91,0.17-5.25c0.92-1.28,2.55-1.94,3.98-2.47
				c1.01-0.37,2.54-0.44,3.32-1.19c0.09-0.09,0.05-0.27-0.08-0.3c-0.72-0.15-1.34-0.1-1.99,0.25c-0.55,0.29-0.93,0.74-1.54,0.96
				c-0.43,0.15-0.9,0.21-1.33,0.35c-1.5,0.51-2.24,1.96-2.92,3.3c-0.43,0.86-0.86,1.79-1.11,2.72c-0.1,0.38-0.31,0.77,0.03,1.09
				c0.15,0.14,0.39,0.1,0.56,0.18c0.74,0.35,0.74,0.81,1.12,1.38c0.43,0.66,1.08,1.13,1.67,1.65c0.71,0.63,1.38,1.32,1.98,2.05
				c0.4,0.49,0.82,1.01,1.14,1.56c0.34,0.58,0.43,1.16,0.6,1.78c0.33,1.25,1.87,1.85,3,2.03c1.08,0.17,2.17,0.03,3.26-0.08
				c0.97-0.1,1.94-0.1,2.9-0.19c0.74-0.06,1.51-0.19,2.15-0.59c0.52-0.32,1.84-2.34,2.43-1.88c0.12,0.1,0.36,0.01,0.3-0.17
				c-0.04-0.12-0.09-0.25-0.13-0.37c-0.08-0.21-0.42-0.12-0.34,0.09c0.04,0.12,0.09,0.25,0.13,0.37c0.1-0.06,0.2-0.11,0.3-0.17
				c-0.6-0.48-1.22-0.19-1.66,0.37c-0.41,0.53-0.59,1.08-1.2,1.45c-0.37,0.23-0.81,0.36-1.24,0.45c-0.9,0.18-1.85,0.12-2.76,0.19
				c-1.87,0.15-3.97,0.65-5.7-0.37c-1.06-0.63-0.98-1.8-1.52-2.75c-0.36-0.64-0.82-1.25-1.28-1.82c-1.05-1.31-2.48-2.24-3.51-3.53
				c-0.37-0.46-0.51-1.18-0.98-1.55c-0.6-0.49-1.09-0.07-0.83-1.28c0.33-1.58,1.54-4.15,2.87-5.14c0.75-0.56,1.66-0.54,2.49-0.91
				c1.06-0.48,1.68-1.38,3.03-1.09c-0.03-0.1-0.05-0.2-0.08-0.3c-0.64,0.62-2.14,0.73-2.97,1.03c-0.74,0.27-1.47,0.56-2.17,0.92
				c-1.25,0.64-2.36,1.54-2.79,2.93c-0.43,1.41-0.17,3.18,0.42,4.51c0.25,0.57,0.67,0.76,1.1,1.19c0.59,0.6,1,1.33,1.62,1.9
				c0.07-0.09,0.14-0.19,0.21-0.28c-0.77-0.56,0.02,1.09,0.1,1.21c0.23,0.34,1.1,1.44,1.22,0.45c-0.12,0-0.24,0-0.35,0
				c-0.05,0.44-0.06,0.57,0.21,0.92c0.2,0.25,0.61,0.36,0.83,0.59c1.03,1.07,0.32,0.66,0.49,1.48c0.07,0.35,0.3,0.5,0.56,0.71
				c0.53,0.41,1.03,0.91,1.57,1.3c0.98,0.69,2.24,0.78,3.4,0.63c1.35-0.17,2.44-0.04,3.65-0.68c1.03-0.54,2.22-0.2,2.97-1.22
				c0.78-1.06,1.34-2.32,2.01-3.45c1.28-2.13,2.72-3.95,2.88-6.54c0.01-0.2-0.29-0.23-0.35-0.05c-0.34,1.14-0.42,2.33-0.74,3.46
				c-0.21,0.74-0.52,1.44-1.17,1.89c-0.52,0.36-1,0.57-1.42,1.06c-0.58,0.69-0.87,1.55-1.31,2.33c-0.93,1.62-2.99,1.93-4.69,2.22
				c-1.75,0.3-3.69,0.32-5.25-0.65c-1.53-0.95-1.9-2.75-3.2-3.9c-0.65-0.58-1.33-0.96-1.64-1.82c-0.16-0.44-0.29-0.81-0.52-1.22
				c-0.74-1.32-2.22-1.82-2.55-3.44c-0.79-3.79,4.44-5.82,7.31-6.41c3.46-0.71,7.37-0.42,10.8,0.4c1.71,0.41,3.43,1.19,4.25,2.84
				c1.06,2.11-0.13,3.66-1.81,4.87c-2.83,2.05-6.73,2.49-10.15,2.54c-2.9,0.04-12.22-1.37-9.82-6.21c1.92-3.86,7.36-4.39,11.1-4.75
				C24.69,12.86,24.7,12.5,24.47,12.52L24.47,12.52z"/>
		</g>
	</g>
</g>
</svg>
