<?xml version="1.0" encoding="utf-8"?>
<!-- Generator: Adobe Illustrator 26.2.1, SVG Export Plug-In . SVG Version: 6.00 Build 0)  -->
<svg version="1.1" id="Layer_1" xmlns="http://www.w3.org/2000/svg" xmlns:xlink="http://www.w3.org/1999/xlink" x="0px" y="0px"
	 viewBox="0 0 56.69 56.69" style="enable-background:new 0 0 56.69 56.69;" xml:space="preserve">
<g>
	<g>
		<g>
			<path d="M26.14,13.51c-1.31,0.18-2.74,0.6-3.36,1.88c-0.56,1.15-0.32,2.59,0.33,3.66c0.37,0.6,0.87,1.12,1.41,1.56
				c0.6,0.49,1.29,0.84,1.91,1.31c0.34,0.26,0.36,0.77,0.43,1.18c0.1,0.56-0.5,0.78-0.97,0.8c-1,0.05-1.69-0.83-1.58-1.79
				c-0.09,0.05-0.18,0.1-0.27,0.15c0.54,0.34,1.07,0.71,1.57,1.11c0.18,0.14,0.43-0.11,0.25-0.25c-0.53-0.42-1.08-0.8-1.65-1.16
				c-0.12-0.08-0.25,0.03-0.27,0.15c-0.16,1.41,1.22,2.55,2.57,2.01c0.65-0.26,0.77-0.66,0.64-1.3c-0.06-0.31-0.07-0.8-0.28-1.04
				c-0.23-0.26-0.74-0.45-1.03-0.64c-1.47-0.96-2.92-2.26-3.03-4.13c-0.05-0.92,0.28-1.81,1.03-2.37c0.69-0.5,1.55-0.67,2.38-0.79
				C26.45,13.82,26.36,13.48,26.14,13.51L26.14,13.51z"/>
		</g>
	</g>
	<g>
		<g>
			<path d="M34.65,7.9c0.76,1.43,0.87,3.21,1.99,4.44c0.64,0.7,1.51,0.87,2.27,1.35c0.4,0.25,0.27,0.55,0.09,0.9
				c-0.11,0.22-0.24,0.43-0.37,0.63c-0.31,0.46-0.68,0.86-1.1,1.22c-0.17,0.15,0.08,0.4,0.25,0.25c0.7-0.6,1.53-1.51,1.75-2.43
				c0.08-0.36-0.09-0.65-0.38-0.84c-0.46-0.3-1.03-0.45-1.51-0.73c-1.76-1.03-1.81-3.33-2.68-4.97C34.85,7.52,34.54,7.7,34.65,7.9
				L34.65,7.9z"/>
		</g>
	</g>
	<g>
		<g>
			<path d="M34.63,7.93c-1.42,1.36-2.48,3.08-4.05,4.27c-0.81,0.61-1.74,1.05-2.74,1.26c-0.49,0.11-1,0.07-1.48,0.18
				c-0.26,0.06-0.49,0.21-0.47,0.5c0.02,0.23,0.37,0.23,0.35,0c-0.02-0.21,1.14-0.23,1.33-0.26c0.46-0.08,0.92-0.2,1.35-0.36
				c0.83-0.31,1.58-0.77,2.25-1.34c1.39-1.18,2.39-2.73,3.71-3.99C35.05,8.02,34.8,7.77,34.63,7.93L34.63,7.93z"/>
		</g>
	</g>
	<g>
		<g>
			<path d="M17.54,9.44c-0.03-0.14,1.47,0.28,1.58,0.31c0.57,0.21,1.12,0.48,1.67,0.75c0.81,0.4,1.62,0.81,2.46,1.15
				c1.8,0.73,3.68,1.25,5.56,1.78c1.94,0.54,3.88,1.08,5.88,1.36c1.22,0.17,3.01,0.61,3.98-0.41c0.16-0.17-0.09-0.42-0.25-0.25
				c-0.78,0.82-2.29,0.49-3.29,0.37c-1.05-0.13-2.08-0.34-3.11-0.58c-1.87-0.44-3.72-0.98-5.56-1.53c-1.91-0.58-3.71-1.31-5.49-2.19
				c-0.84-0.41-2.84-1.66-3.72-1c-0.07,0.05-0.1,0.12-0.08,0.2c0.01,0.05,0.02,0.09,0.03,0.14C17.25,9.75,17.59,9.66,17.54,9.44
				L17.54,9.44z"/>
		</g>
	</g>
	<g>
		<g>
			<path d="M18.39,10.72c0.75,2.49,1.51,5,2.71,7.33c1.25,2.42,3.05,4.37,5.02,6.23c0.07-0.09,0.14-0.19,0.21-0.28
				c-0.49-0.3-0.83-0.71-1.04-1.26c-0.08-0.21-0.42-0.12-0.34,0.09c0.24,0.64,0.62,1.11,1.2,1.47c0.17,0.11,0.36-0.14,0.21-0.28
				c-1.94-1.84-3.72-3.76-4.96-6.16c-1.18-2.29-1.93-4.78-2.68-7.24C18.66,10.41,18.32,10.5,18.39,10.72L18.39,10.72z"/>
		</g>
	</g>
	<g>
		<g>
			<path d="M22.7,40.89c-1.34,0.9-1.16,2.78-0.22,3.9c1.18,1.41,3.23,2.03,5.01,2.05c-0.05-0.03-0.1-0.06-0.15-0.09
				c0.21,0.36,0.54,0.6,0.95,0.68c0.22,0.04,0.32-0.3,0.09-0.34c-0.24-0.05-0.45-0.14-0.61-0.33c-0.1-0.12-0.12-0.23-0.28-0.27
				c-0.21-0.05-0.45-0.01-0.67-0.03c-0.26-0.03-0.52-0.07-0.78-0.12c-0.9-0.19-1.78-0.54-2.53-1.07c-0.67-0.48-1.26-1.15-1.4-1.98
				c-0.14-0.77,0.1-1.63,0.77-2.08C23.07,41.07,22.89,40.77,22.7,40.89L22.7,40.89z"/>
		</g>
	</g>
	<g>
		<g>
			<path d="M32.21,24.54c0.38,0.06,0.71-0.06,1.07-0.15c0.39-0.09,0.8-0.07,1.2-0.14c0.68-0.11,1.34-0.43,1.7-1.04
				c0.12-0.2-0.19-0.38-0.31-0.18c-0.33,0.56-0.95,0.8-1.56,0.89c-0.33,0.05-0.66,0.04-0.99,0.1c-0.33,0.06-0.67,0.23-1.01,0.18
				C32.08,24.16,31.98,24.5,32.21,24.54L32.21,24.54z"/>
		</g>
	</g>
	<g>
		<g>
			<path d="M23.27,34.8c1.26,0.44,2.58,0.7,3.91,0.74c1.04,0.04,2.22-0.02,2.99-0.81c0.1-0.11,0.03-0.31-0.13-0.3
				c-0.21,0.01-0.36,0.06-0.54,0.18c-0.1,0.07-0.13,0.24,0,0.31c0.51,0.28,1.06,0.39,1.64,0.33c0.22-0.02,0.23-0.38,0-0.35
				c-0.52,0.05-1-0.03-1.46-0.28c0,0.1,0,0.2,0,0.31c0.1-0.09,0.22-0.13,0.36-0.13c-0.04-0.1-0.08-0.2-0.13-0.3
				c-0.77,0.79-2.01,0.75-3.03,0.69c-1.21-0.07-2.39-0.32-3.53-0.72C23.15,34.38,23.06,34.72,23.27,34.8L23.27,34.8z"/>
		</g>
	</g>
	<g>
		<g>
			<path d="M32.27,33.68c0.42-0.15,0.86-0.2,1.31-0.16c-0.03-0.11-0.06-0.22-0.09-0.33c-0.25,0.15-0.14,0.49,0.08,0.6
				c0.18,0.09,0.42,0.15,0.43,0.38c0.01,0.23,0.37,0.23,0.35,0c-0.01-0.21-0.12-0.39-0.28-0.52c-0.08-0.06-0.17-0.11-0.27-0.15
				c-0.01,0-0.11-0.06-0.11-0.05c0,0-0.01-0.01,0-0.01c0.02,0-0.03,0.06-0.03,0.05c0.16-0.1,0.08-0.31-0.09-0.33
				c-0.47-0.05-0.95,0.01-1.4,0.17c-0.09,0.03-0.15,0.12-0.12,0.22C32.07,33.64,32.18,33.71,32.27,33.68L32.27,33.68z"/>
		</g>
	</g>
	<g>
		<g>
			<path d="M22.04,46.58c-0.24,0.32-0.65,0.93-0.51,1.37c0.11,0.36,0.6,0.47,0.92,0.52c0.4,0.06,0.81,0.02,1.21,0.06
				c0.46,0.05,0.89,0.2,1.33,0.31c0.75,0.19,1.5,0.24,2.28,0.22c1.76-0.05,3.52-0.25,5.28-0.43c0.89-0.09,1.78-0.18,2.67-0.27
				c0.51-0.05,1.32-0.02,1.73-0.39c0.06-0.05,0.07-0.15,0.03-0.21c-0.01-0.01-0.02-0.03-0.03-0.04c-0.04-0.07-0.12-0.1-0.2-0.08
				c-0.01,0-0.03,0.01-0.04,0.01c-0.19,0.04-0.14,0.28,0,0.34c0.17,0.07,0.35,0.14,0.52,0.22c0.21,0.09,0.3-0.26,0.09-0.34
				c-0.17-0.07-0.35-0.14-0.52-0.22c0,0.11,0,0.23,0,0.34c-0.2-0.16-0.41-0.19-0.63-0.09c-0.22,0.03-0.43,0.06-0.65,0.08
				c-0.35,0.04-0.69,0.07-1.04,0.1c-0.59,0.06-1.19,0.12-1.78,0.18c-1.37,0.14-2.73,0.28-4.1,0.38c-1.35,0.09-2.6,0.11-3.92-0.25
				c-0.51-0.14-0.98-0.22-1.5-0.23c-0.25-0.01-0.69,0.06-0.92-0.07c-0.65-0.37-0.18-0.96,0.09-1.31
				C22.48,46.57,22.18,46.4,22.04,46.58L22.04,46.58z"/>
		</g>
	</g>
	<g>
		<g>
			<path d="M33.01,20.4c-0.49,0.83-0.62,1.85-1.21,2.62c-0.3,0.4-0.72,0.69-0.98,1.13c-0.24,0.41-0.36,0.88-0.36,1.35
				c0,0.23,0.35,0.23,0.35,0c0-0.48,0.14-0.95,0.41-1.34c0.28-0.4,0.7-0.69,0.97-1.1c0.5-0.76,0.64-1.7,1.11-2.48
				C33.43,20.39,33.12,20.21,33.01,20.4L33.01,20.4z"/>
		</g>
	</g>
	<g>
		<g>
			<path d="M24.18,30.44c-0.3,0.64-0.63,1.28-0.9,1.93c-0.23,0.59-0.08,1.24,0.29,1.73c0.36,0.47,0.89,0.63,1.46,0.7
				c0.71,0.08,1.4,0.15,2.09,0.34c0.22,0.06,0.31-0.28,0.09-0.34c-0.57-0.16-1.16-0.26-1.75-0.31c-0.54-0.05-1.13-0.07-1.52-0.49
				c-0.19-0.2-0.32-0.46-0.39-0.73c-0.09-0.34-0.02-0.62,0.12-0.93c0.26-0.57,0.54-1.14,0.8-1.72
				C24.58,30.42,24.27,30.24,24.18,30.44L24.18,30.44z"/>
		</g>
	</g>
	<g>
		<g>
			<path d="M23.53,33.61c-0.03,0.3-0.08,0.6-0.14,0.89c-0.03,0.13-0.05,0.28-0.1,0.41c-0.06,0.13-0.19,0.14-0.3,0.22
				c-0.41,0.32-0.09,0.9-0.12,1.32c-0.02,0.22-0.01,0.6-0.27,0.66c-0.2,0.05-0.4,0.03-0.6,0.12c-0.28,0.13-0.72,0.65-0.3,0.89
				c0.07,0.04,0.15,0.02,0.21-0.03c0.24-0.2,0.48-0.4,0.72-0.6c0.18-0.15-0.08-0.4-0.25-0.25c-0.24,0.2-0.48,0.4-0.72,0.6
				c0.07-0.01,0.14-0.02,0.21-0.03c-0.02-0.01,0.2-0.22,0.22-0.23c0.09-0.06,0.19-0.08,0.29-0.09c0.17-0.02,0.35-0.02,0.5-0.11
				c0.17-0.1,0.24-0.28,0.27-0.47c0.05-0.25,0.09-0.5,0.06-0.75c-0.02-0.2-0.17-0.51-0.06-0.7c0.06-0.09,0.18-0.1,0.26-0.16
				c0.08-0.06,0.13-0.13,0.17-0.22c0.1-0.21,0.14-0.47,0.18-0.69c0.05-0.26,0.09-0.52,0.12-0.79
				C23.91,33.39,23.55,33.39,23.53,33.61L23.53,33.61z"/>
		</g>
	</g>
	<g>
		<g>
			<path d="M20.57,38.77c-0.32,0.83-0.58,1.68-0.77,2.55c-0.17,0.76-0.41,1.67-0.15,2.44c0.09,0.28,0.25,0.53,0.46,0.74
				c0.11,0.11,0.23,0.21,0.36,0.29c0.06,0.03,0.2,0.08,0.23,0.12c0.07,0.08,0.03,0.2,0.02,0.29c-0.04,0.33-0.15,0.63,0.06,0.93
				c0.15,0.21,0.36,0.29,0.61,0.24c0.12-0.03,0.15-0.16,0.11-0.26c-0.13-0.31-0.34-0.57-0.61-0.78c-0.12-0.09-0.25-0.17-0.4-0.23
				c-0.12-0.05-0.46-0.08-0.54-0.18c0.02,0.06,0.03,0.11,0.05,0.17c-0.02,0.02-0.05,0.03-0.07,0.05c-0.05-0.03-0.1-0.06-0.15-0.09
				c0.01,0.01,0.01,0.02,0.02,0.04c0.11,0.2,0.41,0.02,0.31-0.18c-0.01-0.01-0.01-0.02-0.02-0.04c-0.03-0.05-0.09-0.09-0.15-0.09
				c-0.35,0.02-0.34,0.39-0.05,0.51c0.24,0.1,0.49,0.11,0.73,0.26c0.27,0.18,0.46,0.43,0.58,0.72c0.04-0.09,0.07-0.17,0.11-0.26
				c-0.52,0.11-0.18-0.82-0.18-1.03c0.01-0.21-0.07-0.29-0.24-0.39c-0.6-0.36-0.98-0.79-0.99-1.54c-0.01-0.7,0.19-1.44,0.36-2.12
				c0.18-0.71,0.4-1.4,0.66-2.08C20.99,38.65,20.65,38.56,20.57,38.77L20.57,38.77z"/>
		</g>
	</g>
	<g>
		<g>
			<path d="M34.3,46.61c0.38,0.23,0.86,0.33,1.29,0.17c0.4-0.15,0.65-0.46,0.77-0.86c0.06-0.2,0.11-0.38,0.25-0.53
				c0.13-0.14,0.28-0.24,0.43-0.36c0.14-0.11,0.28-0.24,0.37-0.4c0.1-0.16,0.11-0.39,0.25-0.52c0.17-0.15-0.08-0.4-0.25-0.25
				c-0.14,0.13-0.18,0.3-0.25,0.47c-0.06,0.15-0.16,0.26-0.27,0.36c-0.25,0.22-0.56,0.39-0.72,0.7c-0.18,0.34-0.17,0.74-0.53,0.96
				c-0.37,0.23-0.81,0.15-1.16-0.06C34.29,46.19,34.11,46.49,34.3,46.61L34.3,46.61z"/>
		</g>
	</g>
	<g>
		<g>
			<path d="M21.71,46.51c0.19,0.25,0.12,0.62,0.28,0.88c0.11,0.18,0.32,0.29,0.5,0.4c0.63,0.38,1.24,0.6,1.97,0.66
				c1.85,0.17,3.72,0.23,5.58,0.27c1.63,0.04,3.29,0.05,4.89-0.3c0.54-0.12,1.34-0.24,1.73-0.69c0.43-0.5-0.14-1.19,0.22-1.6
				c0.15-0.17-0.1-0.42-0.25-0.25c-0.23,0.26-0.19,0.44-0.2,0.78c-0.01,0.77-0.25,1.05-0.93,1.26c-0.35,0.11-0.72,0.18-1.08,0.25
				c-1.45,0.26-2.93,0.24-4.39,0.2c-1.47-0.04-2.94-0.1-4.41-0.2c-0.91-0.06-1.79-0.07-2.62-0.5c-0.46-0.24-0.68-0.43-0.81-0.94
				c-0.05-0.19-0.06-0.25-0.18-0.41C21.88,46.15,21.58,46.32,21.71,46.51L21.71,46.51z"/>
		</g>
	</g>
	<g>
		<g>
			<path d="M37.73,39.2c0.21,0.64,0.59,1.22,0.78,1.87c0.2,0.72,0.13,1.47,0.05,2.2c-0.05,0.39-0.08,0.78-0.28,1.13
				c-0.18,0.32-0.45,0.59-0.75,0.8c-0.2,0.13-0.44,0.21-0.59,0.4c-0.14,0.19-0.16,0.43-0.16,0.67c0,0.23,0.35,0.23,0.35,0
				c0-0.21,0.01-0.4,0.2-0.55c0.11-0.09,0.26-0.14,0.38-0.22c0.25-0.17,0.47-0.37,0.66-0.6c0.42-0.52,0.49-1.12,0.56-1.76
				c0.08-0.68,0.12-1.37-0.04-2.04c-0.17-0.7-0.58-1.31-0.81-2C38,38.89,37.65,38.98,37.73,39.2L37.73,39.2z"/>
		</g>
	</g>
	<g>
		<g>
			<path d="M34.93,34.08c0.23,0.88,0.78,1.6,1.27,2.35c0.27,0.41,0.5,0.83,0.73,1.26c0.1,0.19,0.24,0.38,0.26,0.6
				c0.01,0.14,0.04,0.27,0.2,0.31c0.22,0.05,0.32-0.3,0.09-0.34c0.07,0.01,0.03,0.1,0.06,0.01c0.01-0.03,0-0.07,0-0.1
				c-0.01-0.08-0.04-0.16-0.08-0.23c-0.09-0.19-0.2-0.38-0.3-0.57c-0.22-0.4-0.44-0.8-0.7-1.18c-0.46-0.7-0.98-1.38-1.2-2.2
				C35.22,33.77,34.88,33.86,34.93,34.08L34.93,34.08z"/>
		</g>
	</g>
	<g>
		<g>
			<path d="M34.83,35.54c0.52,1.39,1.04,2.77,1.76,4.07c0.36,0.66,0.76,1.31,0.87,2.07c0.06,0.4,0.06,0.85-0.22,1.17
				c-0.15,0.17-0.31,0.29-0.35,0.53c-0.04,0.22,0.3,0.32,0.34,0.09c0.05-0.27,0.35-0.41,0.47-0.66c0.13-0.26,0.15-0.6,0.14-0.88
				c-0.03-0.72-0.33-1.39-0.67-2.01c-0.79-1.45-1.42-2.93-1.99-4.48C35.09,35.23,34.75,35.32,34.83,35.54L34.83,35.54z"/>
		</g>
	</g>
	<g>
		<g>
			<path d="M35.82,40.03c-0.35-0.3-0.89-0.29-1.19,0.07c-0.16,0.18-0.21,0.41-0.24,0.65c-0.02,0.24,0.02,0.48,0.19,0.66
				c0.29,0.3,0.78,0.34,1.13,0.13c0.39-0.23,0.51-0.71,0.45-1.13c-0.02-0.14-0.08-0.27-0.2-0.35c-0.1-0.07-0.23-0.11-0.35-0.14
				c-0.13-0.03-0.29-0.06-0.42-0.05c-0.15,0.01-0.31,0.13-0.3,0.3c0.01,0.1,0.07,0.18,0.18,0.18c0.09,0,0.19-0.08,0.18-0.18
				c0,0.03-0.04,0.04-0.04,0.05c0,0,0.01,0,0.02,0c0.04,0.01,0.09,0.01,0.13,0.01c0.09,0.01,0.18,0.03,0.27,0.06
				c0.06,0.02,0.12,0.03,0.16,0.07c0.03,0.04,0.04,0.11,0.04,0.16c0.02,0.27-0.05,0.57-0.28,0.71c-0.2,0.12-0.47,0.13-0.66-0.02
				c-0.12-0.09-0.15-0.21-0.14-0.35c0-0.15,0.02-0.3,0.1-0.43c0.15-0.26,0.5-0.33,0.73-0.13c0.07,0.06,0.18,0.07,0.25,0
				C35.89,40.21,35.9,40.09,35.82,40.03L35.82,40.03z"/>
		</g>
	</g>
	<g>
		<g>
			<path d="M23.5,45.84c0.19,0.18,0.47,0.25,0.73,0.18c0.03-0.01,0.07-0.02,0.1-0.04c0.01-0.01,0.05-0.03,0.05-0.03
				c0.06-0.02,0.13,0,0.19,0c0.16,0.01,0.31,0,0.47-0.02c0.09-0.01,0.18-0.07,0.18-0.18c0-0.09-0.08-0.19-0.18-0.18
				c-0.14,0.02-0.28,0.03-0.41,0.02c-0.07,0-0.15-0.01-0.22-0.01c-0.07,0-0.13,0.02-0.2,0.05c-0.15,0.07-0.33,0.06-0.45-0.05
				C23.59,45.43,23.34,45.68,23.5,45.84L23.5,45.84z"/>
		</g>
	</g>
	<g>
		<g>
			<path d="M22.83,46.13c-0.01,0.01-0.03,0.03-0.01,0.01c0,0-0.04,0.04-0.03,0.03c0.02-0.01-0.02,0.01-0.03,0.01
				c-0.01,0-0.01,0.01-0.02,0.01c0.02-0.01,0.02-0.01,0.01,0c-0.02,0.01-0.03,0.01-0.05,0.01c-0.04,0.01,0.03,0-0.01,0
				c-0.02,0-0.03,0-0.05,0c-0.01,0-0.05-0.01-0.02,0c-0.03-0.01-0.06-0.01-0.09-0.02c0.03,0.01-0.01-0.01-0.01-0.01
				c-0.02-0.01-0.03-0.02-0.05-0.03c-0.03-0.02,0,0-0.02-0.02c-0.01-0.01-0.03-0.02-0.04-0.04c-0.01-0.01-0.03-0.03-0.04-0.04
				c-0.02-0.02-0.02-0.02-0.02-0.03c-0.2-0.27-0.3-0.62-0.39-0.94c-0.04,0.07-0.08,0.15-0.12,0.22c0.04-0.01,0.08-0.01,0.12,0
				c0.09,0.02,0.19-0.03,0.22-0.12c0.03-0.09-0.03-0.19-0.12-0.22c-0.1-0.03-0.2-0.03-0.31,0c-0.09,0.02-0.15,0.13-0.12,0.22
				c0.06,0.22,0.13,0.43,0.22,0.63c0.08,0.19,0.17,0.37,0.31,0.52c0.13,0.14,0.31,0.24,0.51,0.24c0.19,0,0.38-0.08,0.48-0.25
				c0.05-0.08,0.02-0.19-0.06-0.24C22.99,46.02,22.88,46.05,22.83,46.13L22.83,46.13z"/>
		</g>
	</g>
	<g>
		<g>
			<path d="M23.73,46.79c-0.55-0.01,0.26-0.07,0.42-0.08c0.22-0.02,0.43-0.04,0.65-0.1c0.46-0.13,0.87-0.35,1.35-0.44
				c1.12-0.21,2.34-0.19,3.47-0.17c1.13,0.01,2.27,0.08,3.4,0.21c0.28,0.03,0.57,0.07,0.85,0.11c0.14,0.02,0.73,0.02,0.82,0.13
				c-0.11,0.39-0.32,0.53-0.61,0.42c-0.14-0.02-0.28-0.05-0.42-0.07c-0.28-0.05-0.56-0.09-0.84-0.14c-0.22-0.04-0.32,0.3-0.09,0.34
				c0.49,0.08,0.97,0.17,1.46,0.25c0.24,0.04,0.48,0.08,0.7-0.03c0.34-0.16,0.54-0.59,0.27-0.9c-0.19-0.22-0.49-0.24-0.76-0.28
				c-0.39-0.06-0.78-0.11-1.17-0.16c-0.98-0.12-1.96-0.19-2.94-0.22c-1.71-0.05-3.6-0.14-5.22,0.48c-0.46,0.18-0.87,0.18-1.36,0.25
				c-0.21,0.03-0.49,0.05-0.63,0.23c-0.35,0.45,0.36,0.53,0.64,0.53C23.96,47.14,23.96,46.79,23.73,46.79L23.73,46.79z"/>
		</g>
	</g>
	<g>
		<g>
			<path d="M23.45,34.15c-0.96,2.86-3.68,5.18-3.58,8.35c0.04,1.27,0.41,2.7,1.14,3.76c0.66,0.95,1.7,1.36,2.82,1.5
				c1.5,0.2,3.05,0.1,4.56,0.12c1.67,0.02,3.38,0.13,5.05,0.01c1.31-0.09,2.37-0.55,3.38-1.38c0.94-0.76,1.72-1.51,1.39-2.8
				c-0.06-0.22-0.4-0.13-0.34,0.09c0.38,1.48-1.39,2.74-2.58,3.29c-1.23,0.57-2.64,0.47-3.96,0.45c-1.38-0.01-2.76-0.03-4.15-0.04
				c-1.21-0.01-2.48,0.07-3.67-0.16c-1.45-0.27-2.3-1.15-2.8-2.51c-0.47-1.25-0.66-2.65-0.32-3.95c0.32-1.24,1.13-2.35,1.77-3.45
				c0.61-1.04,1.23-2.06,1.62-3.21C23.87,34.03,23.52,33.93,23.45,34.15L23.45,34.15z"/>
		</g>
	</g>
	<g>
		<g>
			<path d="M33.41,34.56c0.28-0.04,0.57-0.08,0.85-0.11c0.01,0,0.03,0,0.03,0c-0.03-0.03-0.07-0.05-0.1-0.08c0,0.01,0,0.01,0,0.02
				c0,0.02,0.01,0.05,0.02,0.08c0.02,0.06,0.04,0.12,0.07,0.17c0.06,0.12,0.16,0.21,0.26,0.28c0.08,0.05,0.2,0.01,0.24-0.06
				c0.05-0.09,0.02-0.19-0.06-0.24c-0.02-0.01,0,0-0.02-0.01c-0.01-0.01-0.02-0.02-0.03-0.02c-0.02-0.02-0.04-0.04-0.06-0.06
				c0.01,0.02-0.01-0.01-0.01-0.02c-0.01-0.01-0.02-0.03-0.02-0.04c-0.01-0.01-0.01-0.02-0.02-0.03c0-0.01-0.01-0.01-0.01-0.02
				c0,0.01,0.01,0.01,0,0c-0.02-0.05-0.03-0.11-0.05-0.16c-0.04-0.09-0.12-0.15-0.22-0.15c-0.07,0-0.14,0.02-0.2,0.02
				c-0.07,0.01-0.15,0.02-0.22,0.03c-0.15,0.02-0.31,0.04-0.46,0.06c-0.09,0.01-0.18,0.07-0.18,0.18
				C33.24,34.47,33.32,34.58,33.41,34.56L33.41,34.56z"/>
		</g>
	</g>
	<g>
		<g>
			<path d="M33.62,31.55c0.28,0.79,0.26,1.68-0.07,2.45c-0.15,0.34-0.4,0.64-0.34,1.03c0.06,0.35,0.34,0.61,0.46,0.94
				c0.03-0.07,0.05-0.13,0.08-0.2c-0.03,0.03-0.07,0.05-0.1,0.08c-0.18,0.14,0,0.44,0.18,0.31c0.03-0.03,0.07-0.05,0.1-0.08
				c0.06-0.05,0.11-0.12,0.08-0.2c-0.11-0.31-0.4-0.59-0.45-0.91c-0.04-0.22,0.11-0.41,0.21-0.6c0.09-0.18,0.17-0.37,0.23-0.56
				c0.24-0.76,0.23-1.59-0.04-2.34C33.89,31.24,33.54,31.33,33.62,31.55L33.62,31.55z"/>
		</g>
	</g>
	<g>
		<g>
			<path d="M33.91,34.38c0.55-0.2,0.95-0.71,1-1.29c0.03-0.33-0.08-0.65-0.22-0.95c-0.12-0.27-0.26-0.64-0.57-0.73
				c0.04,0.04,0.08,0.08,0.12,0.12c0,0,0,0,0.01,0c-0.04,0.04-0.08,0.08-0.12,0.12c-0.01,0-0.02,0-0.03,0
				c0.15,0.17,0.4-0.08,0.25-0.25c-0.08-0.09-0.2-0.12-0.31-0.09c-0.06,0.01-0.11,0.07-0.12,0.12c-0.02,0.07-0.02,0.12-0.01,0.19
				c0.01,0.06,0.07,0.11,0.12,0.12c0.1,0.03,0.15,0.17,0.19,0.25c0.06,0.11,0.12,0.22,0.17,0.34c0.11,0.23,0.18,0.49,0.16,0.75
				c-0.04,0.42-0.34,0.81-0.74,0.95C33.6,34.11,33.69,34.45,33.91,34.38L33.91,34.38z"/>
		</g>
	</g>
	<g>
		<g>
			<path d="M34.29,34.42c0.59-0.14,1.46-0.23,1.6-0.96c0.14-0.74-0.43-1.24-0.83-1.77c-0.04,0.09-0.07,0.17-0.11,0.26
				c0.01-0.01,0.02-0.01,0.03-0.01c0.2,0.1,0.38-0.2,0.18-0.31c-0.1-0.05-0.2-0.07-0.31-0.03c-0.1,0.03-0.18,0.16-0.11,0.26
				c0.32,0.43,0.87,0.88,0.8,1.47c-0.03,0.26-0.22,0.43-0.46,0.52c-0.29,0.11-0.6,0.16-0.9,0.23
				C33.97,34.13,34.07,34.47,34.29,34.42L34.29,34.42z"/>
		</g>
	</g>
	<g>
		<g>
			<path d="M30.65,28.99c-0.12,0.36-0.16,0.73-0.15,1.1c0.01,0.38,0.02,0.78,0.1,1.15c0.07,0.32,0.29,0.55,0.51,0.78
				c0.18,0.19,0.49,0.56,0.27,0.82c-0.15,0.17,0.1,0.43,0.25,0.25c0.2-0.24,0.21-0.53,0.09-0.81c-0.13-0.32-0.41-0.52-0.61-0.78
				c-0.24-0.32-0.23-0.77-0.25-1.16c-0.02-0.43-0.01-0.85,0.13-1.26C31.07,28.87,30.73,28.78,30.65,28.99L30.65,28.99z"/>
		</g>
	</g>
	<g>
		<g>
			<path d="M24.43,29.32c0.07,0.69-0.03,1.38-0.33,2.01c-0.27,0.56-0.72,0.98-1.04,1.5c-0.22,0.35-0.38,0.83-0.12,1.2
				c0.28,0.41,0.95,0.51,1.4,0.61c1.32,0.32,2.7,0.41,4.06,0.38c0.68-0.01,1.35-0.05,2.03-0.1c0.45-0.04,0.92-0.07,1.18-0.49
				c0.12-0.19-0.18-0.37-0.31-0.18c-0.28,0.44-1.2,0.34-1.66,0.37c-0.57,0.03-1.15,0.06-1.72,0.05c-1.17,0-2.35-0.09-3.49-0.37
				c-0.52-0.13-1.47-0.25-1.22-1c0.17-0.51,0.64-0.89,0.93-1.33c0.52-0.78,0.73-1.73,0.64-2.66C24.76,29.09,24.41,29.09,24.43,29.32
				L24.43,29.32z"/>
		</g>
	</g>
	<g>
		<g>
			<path d="M23.49,23.66c-0.85,0.29-1.07,1.31-0.8,2.09c0.36,1.03,1.4,1.79,1.5,2.92c0.01,0.09,0.08,0.18,0.18,0.18
				c0.06,0,0.13,0,0.19-0.01c0.23-0.01,0.23-0.36,0-0.35c-0.06,0-0.13,0-0.19,0.01c0.06,0.06,0.12,0.12,0.18,0.18
				c-0.08-0.98-0.77-1.67-1.25-2.48c-0.23-0.38-0.41-0.82-0.36-1.28c0.05-0.39,0.26-0.78,0.65-0.91
				C23.8,23.93,23.71,23.59,23.49,23.66L23.49,23.66z"/>
		</g>
	</g>
	<g>
		<g>
			<path d="M31.08,28.6c0.43-1.11,0.94-2.24,1.05-3.43c0.09-0.94-0.57-1.66-1.54-1.61c-0.59,0.03-1.19,0.24-1.77,0.33
				c-0.64,0.1-1.31,0.22-1.96,0.15c-0.51-0.06-0.99-0.29-1.51-0.18c-0.63,0.13-1.19,0.68-1.85,0.42c0,0.11,0,0.23,0,0.34
				c0.11-0.03,0.23-0.06,0.34-0.09c0.22-0.06,0.13-0.4-0.09-0.34c-0.11,0.03-0.23,0.06-0.34,0.09c-0.18,0.05-0.15,0.28,0,0.34
				c0.41,0.16,0.81,0.07,1.21-0.09c0.25-0.11,0.5-0.25,0.77-0.31c0.3-0.07,0.57-0.01,0.86,0.06c1,0.24,1.99,0.07,2.99-0.1
				c0.55-0.09,1.21-0.37,1.77-0.23c0.67,0.17,0.83,0.73,0.75,1.34c-0.14,1.12-0.62,2.17-1.02,3.21C30.66,28.72,31,28.81,31.08,28.6
				L31.08,28.6z"/>
		</g>
	</g>
	<g>
		<g>
			<path d="M35.38,23.71c0.37,0,0.38,0.69,0.35,0.94c-0.05,0.4-0.22,0.77-0.43,1.11c-0.4,0.65-0.94,1.2-1.25,1.91
				c-0.06,0.14,0.04,0.3,0.2,0.26c0.04,0,0.08,0,0.12,0c0.22,0.05,0.32-0.3,0.09-0.34c-0.11-0.02-0.2-0.02-0.31,0
				c0.07,0.09,0.13,0.17,0.2,0.26c0.38-0.88,1.14-1.54,1.52-2.42c0.17-0.4,0.27-0.84,0.2-1.27c-0.06-0.37-0.26-0.79-0.69-0.8
				C35.15,23.35,35.15,23.71,35.38,23.71L35.38,23.71z"/>
		</g>
	</g>
	<g>
		<g>
			<path d="M34.65,24.18c0.3,0.1,0.64,0.06,0.91-0.09c0.08-0.05,0.11-0.16,0.06-0.24c-0.05-0.08-0.16-0.11-0.24-0.06
				c-0.03,0.02-0.06,0.04-0.09,0.05c0.04-0.01,0,0-0.01,0c-0.02,0.01-0.03,0.01-0.05,0.02c-0.03,0.01-0.06,0.02-0.09,0.02
				c-0.02,0-0.04,0.01-0.05,0.01c0.03,0,0.03,0,0.01,0c-0.01,0-0.01,0-0.02,0c-0.06,0.01-0.13,0-0.19,0c-0.02,0-0.02,0,0.01,0
				c-0.01,0-0.02,0-0.03,0c-0.01,0-0.03,0-0.04-0.01c-0.03-0.01-0.07-0.02-0.1-0.03c-0.09-0.03-0.2,0.03-0.22,0.12
				C34.5,24.06,34.55,24.15,34.65,24.18L34.65,24.18z"/>
		</g>
	</g>
	<g>
		<g>
			<path d="M38.88,39.12c-0.08,0.16-0.17,0.32-0.25,0.49c-0.04,0.07-0.08,0.14-0.09,0.22c-0.02,0.11,0,0.23,0.09,0.3
				c0.07,0.06,0.18,0.07,0.25,0c0.06-0.07,0.07-0.18,0-0.25c-0.01-0.01-0.01-0.01,0.01,0.01c-0.01-0.02-0.01-0.01,0,0.02
				c0-0.01,0-0.01-0.01-0.02c0,0.03,0,0.04,0,0.02c0-0.01,0-0.01,0-0.02c0,0.03,0,0.03,0,0.02c0-0.01,0.01-0.03,0.01-0.04
				c0-0.01,0-0.01,0.01-0.02c0.01-0.02,0.01-0.01,0,0.01c0,0,0.02-0.04,0.02-0.04c0.02-0.03,0.03-0.06,0.05-0.1
				c0.07-0.14,0.14-0.28,0.22-0.42c0.04-0.08,0.02-0.2-0.06-0.24C39.04,39.02,38.92,39.04,38.88,39.12L38.88,39.12z"/>
		</g>
	</g>
	<g>
		<g>
			<path d="M37.89,39.04c0.05,0.27,0.15,0.52,0.4,0.66c0.02,0.01,0.05,0.02,0.07,0.04c0,0-0.01-0.01,0,0
				c0.01,0.01,0.02,0.02,0.02,0.04c0.05,0.08,0.12,0.13,0.21,0.15c0.12,0.03,0.27,0.03,0.4,0.02c0.14-0.02,0.29-0.06,0.38-0.18
				c0.1-0.11,0.13-0.26,0.1-0.41c-0.03-0.14-0.12-0.26-0.25-0.32c-0.04-0.02-0.09-0.04-0.11-0.07c-0.03-0.05-0.04-0.13-0.06-0.19
				c-0.06-0.16-0.13-0.31-0.23-0.45c-0.06-0.08-0.13-0.15-0.23-0.16c-0.11-0.02-0.21,0.03-0.26,0.13c-0.11,0.2,0.2,0.38,0.31,0.18
				c-0.01,0.01-0.03,0.02-0.04,0.02c-0.02,0.02-0.04,0.03-0.06,0.02c-0.04,0.01-0.01-0.02-0.02,0c0,0,0.02,0.02,0.03,0.03
				c0.03,0.05,0.07,0.1,0.1,0.16c0.05,0.09,0.09,0.19,0.11,0.28c0.04,0.13,0.09,0.23,0.2,0.3c0.04,0.03,0.08,0.04,0.12,0.07
				c0.03,0.02,0.04,0.03,0.05,0.06c0-0.01,0.01,0.04,0.01,0.03c0-0.02,0,0.02,0,0.02c0,0.01,0,0.02,0,0.03
				c0-0.02-0.01,0.02-0.01,0.03c0.01-0.02,0,0-0.01,0.01c0.01-0.02,0,0-0.01,0.01c-0.02,0.02-0.05,0.04-0.07,0.04
				c-0.05,0.01-0.07,0.02-0.11,0.02c-0.04,0-0.09,0-0.14,0c-0.05,0-0.09,0-0.13-0.02c0.03,0.02-0.03-0.06-0.04-0.07
				c-0.04-0.05-0.09-0.08-0.14-0.11c-0.1-0.05-0.13-0.08-0.18-0.17c-0.01-0.03-0.03-0.08-0.05-0.13c-0.01-0.05-0.03-0.11-0.04-0.16
				c-0.02-0.09-0.13-0.15-0.22-0.12C37.92,38.85,37.88,38.95,37.89,39.04L37.89,39.04z"/>
		</g>
	</g>
	<g>
		<g>
			<path d="M38.23,38.66c0.11,0.18,0.22,0.36,0.33,0.55c0.03,0.04,0.05,0.09,0.08,0.13c0.01,0.01,0.01,0.02,0.02,0.03
				c0.01,0.02,0,0.01,0,0c0,0-0.01-0.04,0-0.04c0,0-0.01,0.03-0.01,0.04c-0.04,0.15,0.05,0.33,0.22,0.32c0.09,0,0.18-0.08,0.18-0.18
				c0-0.09-0.08-0.18-0.18-0.18c0.08,0.01,0.12,0.05,0.12,0.12c0,0.03,0,0.03,0,0.01c0.01-0.03,0.02-0.06,0.02-0.09
				c0-0.06-0.01-0.11-0.04-0.16c-0.04-0.08-0.1-0.16-0.14-0.24c-0.1-0.16-0.2-0.32-0.29-0.48c-0.05-0.08-0.16-0.12-0.24-0.06
				C38.21,38.47,38.17,38.58,38.23,38.66L38.23,38.66z"/>
		</g>
	</g>
	<g>
		<g>
			<path d="M37.02,38.22c-0.04,0.33-0.04,0.72,0.26,0.94c0.14,0.1,0.33,0.13,0.5,0.09c0.18-0.04,0.3-0.16,0.4-0.31
				c0.09-0.13,0.16-0.25,0.29-0.34c0.06-0.04,0.12-0.08,0.19-0.1c0.08-0.03,0.18-0.03,0.25-0.08c0.15-0.1,0.16-0.33,0.12-0.49
				c-0.04-0.16-0.14-0.3-0.27-0.39c-0.17-0.12-0.39-0.13-0.59-0.07c-0.22,0.07-0.39,0.22-0.55,0.38c-0.1,0.09-0.05,0.26,0.08,0.3
				c0.13,0.04,0.27,0.06,0.41,0.07c0.1,0.01,0.18-0.09,0.18-0.18c0-0.1-0.08-0.17-0.18-0.18c-0.11-0.01-0.21-0.03-0.31-0.06
				c0.03,0.1,0.05,0.2,0.08,0.3c0.16-0.15,0.42-0.41,0.65-0.29c0.08,0.04,0.13,0.11,0.15,0.18c0.01,0.05,0.02,0.08,0.01,0.12
				c0,0-0.02,0.05-0.02,0.06c-0.02-0.07,0.09-0.06,0.03-0.05c-0.02,0-0.04,0.01-0.06,0.01c-0.27,0.07-0.51,0.24-0.67,0.47
				c-0.06,0.09-0.11,0.21-0.21,0.27c-0.07,0.04-0.16,0.05-0.23,0.02c-0.25-0.09-0.18-0.48-0.16-0.68c0.01-0.1-0.09-0.18-0.18-0.18
				C37.09,38.04,37.03,38.12,37.02,38.22L37.02,38.22z"/>
		</g>
	</g>
	<g>
		<g>
			<path d="M35.91,31.55c0.71,0.92,1.2,1.98,1.49,3.11c0.15,0.57,0.24,1.16,0.28,1.75c0.04,0.56,0.12,1.34-0.49,1.61
				c-0.21,0.09-0.03,0.4,0.18,0.31c0.52-0.24,0.68-0.81,0.69-1.34c0.01-0.66-0.08-1.33-0.21-1.98c-0.27-1.31-0.81-2.57-1.62-3.64
				C36.08,31.19,35.78,31.36,35.91,31.55L35.91,31.55z"/>
		</g>
	</g>
	<g>
		<g>
			<path d="M35.8,31.03c0.32,0.02,0.66,0.04,0.94,0.2c0.26,0.15,0.4,0.43,0.55,0.68c0.34,0.59,0.73,1.21,0.91,1.87
				c0.17,0.62,0.15,1.31,0.16,1.95c0,0.32,0,0.65-0.03,0.97c-0.01,0.15-0.04,0.96-0.29,0.97c-0.23,0.01-0.23,0.36,0,0.35
				c0.66-0.03,0.63-1.13,0.66-1.59c0.05-0.83,0.06-1.75-0.11-2.57c-0.17-0.82-0.67-1.59-1.09-2.3c-0.4-0.67-0.95-0.85-1.7-0.89
				C35.57,30.66,35.57,31.01,35.8,31.03L35.8,31.03z"/>
		</g>
	</g>
	<g>
		<g>
			<path d="M35.77,31.62c0.71-0.19,1.01,0.54,1.31,1.04c0.29,0.47,0.61,0.95,0.79,1.48c0.18,0.55,0.18,1.16,0.21,1.74
				c0.02,0.28,0.03,0.56,0.03,0.83c0,0.15,0,0.29-0.02,0.44c-0.01,0.05-0.06,0.49-0.12,0.51c0.06,0.02,0.11,0.03,0.17,0.05
				c-0.01-0.01-0.02-0.02-0.03-0.02c-0.01,0.09-0.02,0.19-0.04,0.28c0.07-0.03,0.13-0.06,0.2-0.1c0.2-0.1,0.03-0.41-0.18-0.31
				c-0.07,0.03-0.13,0.06-0.2,0.1c-0.1,0.05-0.12,0.21-0.04,0.28c0.01,0.01,0.02,0.02,0.03,0.02c0.04,0.04,0.11,0.07,0.17,0.05
				c0.52-0.2,0.41-1.27,0.39-1.7c-0.03-0.76-0.01-1.59-0.26-2.31c-0.24-0.69-0.68-1.3-1.06-1.91c-0.34-0.55-0.77-0.98-1.47-0.8
				C35.45,31.34,35.55,31.68,35.77,31.62L35.77,31.62z"/>
		</g>
	</g>
	<g>
		<g>
			<path d="M32.73,28.69c-0.15,0.15-0.28,0.32-0.39,0.5c-0.03,0.05-0.07,0.1-0.09,0.16c-0.03,0.1,0,0.21,0.09,0.26
				c0.06,0.04,0.12,0.04,0.19,0.04c0.06,0,0.11,0.01,0.17,0.01c0.09,0.01,0.18-0.09,0.18-0.18c0-0.1-0.08-0.17-0.18-0.18
				c-0.04,0-0.09-0.01-0.13-0.01c-0.02,0-0.04,0-0.06-0.01c-0.02,0-0.04-0.01,0.01,0c-0.02-0.01,0.01,0.01,0.02,0.01
				c0.04,0.02,0.06,0.05,0.05,0.09c0,0.05,0,0.06,0.01,0.04c0,0.01-0.02,0.03,0,0.01c0.01-0.02,0.02-0.04,0.03-0.05
				c0.02-0.04,0.04-0.07,0.07-0.11c0.02-0.03,0.05-0.07,0.07-0.1c0.01-0.02,0.02-0.03,0.04-0.05c0.01-0.02-0.03,0.03,0,0
				c0.01-0.01,0.01-0.02,0.02-0.02c0.05-0.06,0.11-0.13,0.17-0.19c0.06-0.07,0.07-0.18,0-0.25C32.92,28.62,32.8,28.62,32.73,28.69
				L32.73,28.69z"/>
		</g>
	</g>
	<g>
		<g>
			<path d="M31.68,37.86c0.13,0.1,0.27,0.16,0.43,0.18c0.15,0.01,0.3-0.02,0.43-0.09c-0.08-0.02-0.16-0.04-0.24-0.06
				c0.03,0.05,0.06,0.09,0.08,0.14c0.05,0.08,0.16,0.12,0.24,0.06c0.08-0.05,0.11-0.16,0.06-0.24c-0.03-0.05-0.06-0.09-0.08-0.14
				c-0.05-0.08-0.16-0.11-0.24-0.06c-0.01,0.01-0.03,0.01-0.04,0.02c0.03-0.01,0.03-0.01,0.01-0.01c-0.01,0-0.01,0-0.02,0.01
				c-0.03,0.01-0.05,0.02-0.08,0.02c-0.01,0-0.01,0-0.02,0c-0.01,0-0.01,0,0.02,0c-0.01,0-0.03,0-0.04,0c-0.03,0-0.05,0-0.08,0
				c-0.01,0-0.01,0-0.02,0c0.03,0,0.03,0,0.02,0c-0.01,0-0.03,0-0.04-0.01c-0.02-0.01-0.05-0.01-0.07-0.02
				c-0.01,0-0.01-0.01-0.02-0.01c0.03,0.01,0.03,0.01,0.01,0c-0.01-0.01-0.02-0.01-0.03-0.01c-0.01-0.01-0.03-0.01-0.04-0.02
				c-0.01-0.01-0.05-0.04-0.01,0c-0.04-0.03-0.07-0.05-0.13-0.05c-0.04,0-0.1,0.02-0.13,0.05C31.62,37.68,31.6,37.8,31.68,37.86
				L31.68,37.86z"/>
		</g>
	</g>
	<g>
		<g>
			<path d="M31.94,37.32c0.2,0.2,0.34,0.46,0.49,0.7c0.07,0.11,0.13,0.22,0.17,0.34c0.04,0.13,0.04,0.26,0.13,0.36
				c0.21,0.25,0.54,0.08,0.75-0.06c0.21-0.13,0.56-0.32,0.47-0.62c-0.04-0.14-0.16-0.22-0.27-0.32c-0.1-0.09-0.18-0.21-0.23-0.34
				c-0.07-0.19-0.33-0.16-0.35,0.05c-0.01,0.08-0.02,0.15-0.02,0.23c-0.01,0.1,0.09,0.18,0.18,0.18c0.1,0,0.17-0.08,0.18-0.18
				c0.01-0.08,0.02-0.15,0.02-0.23c-0.12,0.02-0.23,0.03-0.35,0.05c0.06,0.14,0.13,0.27,0.23,0.39c0.05,0.06,0.1,0.11,0.16,0.16
				c0.04,0.03,0.07,0.08,0.11,0.11c0.04,0.03-0.02,0.02,0.01,0c-0.01,0.01-0.02,0.03-0.04,0.04c-0.05,0.05-0.12,0.09-0.18,0.13
				c-0.07,0.05-0.14,0.09-0.21,0.13c-0.04,0.02-0.11,0.07-0.16,0.06c-0.04,0-0.02,0.01-0.04-0.03c-0.03-0.05-0.03-0.13-0.04-0.18
				c-0.04-0.15-0.11-0.29-0.19-0.42c-0.09-0.14-0.18-0.27-0.27-0.41c-0.09-0.14-0.18-0.27-0.29-0.38
				C32.03,36.91,31.78,37.16,31.94,37.32L31.94,37.32z"/>
		</g>
	</g>
	<g>
		<g>
			<path d="M33.55,37.56c0.26-0.16,0.3-0.53,0.14-0.78c-0.18-0.28-0.54-0.39-0.84-0.48c-0.34-0.1-0.71-0.14-1.03,0.02
				c-0.15,0.07-0.3,0.19-0.36,0.35c-0.07,0.17,0.01,0.38,0.2,0.42c0.22,0.04,0.32-0.3,0.09-0.34c0.05,0.01,0.02,0.05,0.04,0.04
				c0.01,0,0.02-0.02,0.02-0.03c0.03-0.04,0.07-0.07,0.11-0.09c0.08-0.05,0.17-0.08,0.26-0.09c0.23-0.04,0.46,0.03,0.68,0.1
				c0.18,0.06,0.39,0.12,0.51,0.27c0.07,0.08,0.1,0.25,0,0.31C33.17,37.37,33.35,37.68,33.55,37.56L33.55,37.56z"/>
		</g>
	</g>
	<g>
		<g>
			<path d="M31.72,37.52c0.3-0.16,0.63-0.25,0.97-0.28c0.08-0.01,0.17-0.01,0.25-0.01c0.06,0,0.11,0,0.14,0.04
				c0.01,0.01,0.03,0.07,0.03,0.11c0.01,0.06,0.01,0.13,0,0.2c-0.01,0.23,0.34,0.23,0.35,0c0.01-0.17,0-0.36-0.1-0.5
				c-0.13-0.19-0.35-0.2-0.56-0.2c-0.44,0.01-0.88,0.13-1.27,0.33C31.34,37.32,31.52,37.62,31.72,37.52L31.72,37.52z"/>
		</g>
	</g>
	<g>
		<g>
			<path d="M31.14,36.71c-0.09,0.13-0.16,0.28-0.21,0.43c-0.05,0.14-0.06,0.32,0.02,0.46c0.09,0.17,0.28,0.21,0.46,0.23
				c0.16,0.01,0.33-0.01,0.48-0.08c-0.07-0.07-0.15-0.15-0.22-0.22c-0.02,0.09-0.01,0.17,0.03,0.24c0.04,0.08,0.16,0.11,0.24,0.06
				c0.08-0.05,0.11-0.16,0.06-0.24c0,0.01,0,0.01,0.01,0.02c0-0.02-0.01-0.02,0,0c0,0.01-0.01,0.05,0,0.02
				c0.02-0.06,0-0.13-0.05-0.17c-0.04-0.04-0.12-0.07-0.17-0.05c-0.06,0.03-0.12,0.04-0.19,0.06c-0.01,0-0.06,0.01-0.02,0
				c-0.02,0-0.03,0-0.05,0c-0.03,0-0.06,0-0.09,0c-0.02,0-0.03,0-0.05,0c-0.05,0,0.04,0.01-0.02,0c-0.03-0.01-0.06-0.01-0.09-0.02
				c-0.01,0-0.02-0.01-0.03-0.01c0.01,0,0.01,0,0.02,0.01c-0.01-0.01-0.03-0.02-0.01,0c-0.01-0.01-0.01-0.01-0.02-0.02
				c0,0.01,0.01,0.01,0.01,0.02c0-0.01-0.01-0.01-0.01-0.02c-0.01-0.01-0.01-0.01,0,0c0.01,0.01,0.01,0.01,0,0c0-0.01,0-0.01,0-0.02
				c0-0.01,0-0.01,0-0.02c0-0.02,0-0.02,0,0c0,0.02,0,0.02,0,0c0-0.01,0-0.01,0-0.02c0-0.01,0-0.03,0-0.04c0-0.04-0.01,0.04,0,0
				c0-0.01,0.01-0.03,0.01-0.04c0.01-0.02,0.01-0.05,0.02-0.07c0.01-0.01,0.01-0.03,0.02-0.04c0,0,0.02-0.05,0.01-0.02
				c0.01-0.03,0.03-0.06,0.04-0.09c0.03-0.06,0.07-0.12,0.1-0.18c0.05-0.08,0.02-0.2-0.06-0.24C31.29,36.6,31.2,36.63,31.14,36.71
				L31.14,36.71z"/>
		</g>
	</g>
	<g>
		<g>
			<path d="M33.05,31.78c0.24-0.07,0.5-0.09,0.75-0.06c0.1,0.01,0.22,0.03,0.31,0.07c-0.02-0.01,0.02,0.01,0.03,0.01
				c0.01,0,0.06,0.04,0.04,0.03c0.01,0.01,0.05,0.05,0.03,0.03c0.01,0.01,0.01,0.02,0.02,0.03c-0.01-0.01-0.01-0.01,0,0.01
				c0.06,0.22,0.41,0.13,0.34-0.09c-0.08-0.29-0.39-0.39-0.66-0.43c-0.32-0.05-0.65-0.03-0.97,0.06
				C32.74,31.5,32.83,31.85,33.05,31.78L33.05,31.78z"/>
		</g>
	</g>
	<g>
		<g>
			<path d="M35.45,29.4c0.07-0.13,0.12-0.27,0.07-0.42c-0.05-0.14-0.16-0.24-0.3-0.29c-0.12-0.05-0.26-0.04-0.39-0.03
				c-0.08,0.01-0.16,0.02-0.22,0.06c-0.07,0.04-0.12,0.11-0.14,0.19c-0.04,0.16,0.03,0.31,0.12,0.43c0.03,0.04,0.06,0.07,0.11,0.08
				c0.04,0.01,0.1,0.01,0.14-0.02c0.07-0.05,0.12-0.16,0.06-0.24c-0.02-0.02-0.03-0.05-0.05-0.07c-0.01-0.01-0.02-0.03-0.03-0.04
				c0,0,0-0.01-0.01-0.01c-0.01-0.02-0.01-0.01,0,0.01c-0.01,0-0.01-0.03-0.01-0.03c0-0.02,0-0.01,0,0.02c0-0.01,0-0.01,0-0.02
				c0-0.01,0-0.01,0-0.02c0-0.01,0-0.01,0,0.02c0-0.01,0-0.01,0-0.02c0.01-0.02,0-0.01-0.01,0.02c0,0,0-0.01,0-0.01
				c0.01-0.02,0.01-0.01-0.01,0.01c0.02-0.02-0.03,0.02,0,0c0.01-0.01,0.01,0-0.02,0.01c0.01,0,0.01,0,0.02-0.01
				c0,0,0.03-0.01,0.04-0.01c-0.03,0-0.03,0-0.01,0c0.01,0,0.02,0,0.03,0c0.01,0,0.03,0,0.04,0c0.03,0,0.06,0,0.09,0
				c0.01,0,0.03,0,0.04,0c0.01,0,0.02,0,0.03,0c-0.03,0-0.03,0-0.01,0c0.01,0,0.03,0.01,0.04,0.01c0.01,0,0.05,0.02,0.02,0.01
				c-0.03-0.01,0.01,0.01,0.02,0.01c0.01,0.01,0.02,0.01,0.03,0.02c0.02,0.01,0.01,0.01-0.01-0.01c0.01,0,0.01,0.01,0.02,0.01
				c0.01,0.01,0.01,0.02,0.02,0.02c-0.02-0.02-0.02-0.03-0.01-0.01c0,0.01,0.01,0.01,0.01,0.02c0,0,0,0.01,0,0.01
				c0.01,0.02,0.01,0.01-0.01-0.01c0,0,0.01,0.05,0.01,0.02c0-0.03,0,0.02,0,0.02c0,0.02,0,0.02,0,0c0-0.02,0-0.01,0,0
				c0,0.01-0.01,0.04-0.02,0.05c0-0.01,0.01-0.01,0.01-0.02c0,0.01-0.01,0.02-0.01,0.02c-0.01,0.02-0.02,0.03-0.02,0.05
				c-0.04,0.08-0.02,0.2,0.06,0.24C35.29,29.51,35.41,29.49,35.45,29.4L35.45,29.4z"/>
		</g>
	</g>
	<g>
		<g>
			<path d="M35.22,30.16c0.14-0.04,0.24-0.15,0.28-0.29c0.04-0.14,0-0.28-0.08-0.39c-0.19-0.24-0.53-0.25-0.78-0.11
				c-0.13,0.07-0.25,0.19-0.28,0.34c-0.02,0.09,0.03,0.2,0.12,0.22c0.09,0.02,0.2-0.03,0.22-0.12c0-0.01,0.01-0.03,0.01-0.04
				c0-0.01,0-0.01-0.01,0.02c0-0.01,0.01-0.01,0.01-0.02c0,0,0-0.01,0.01-0.01c0.01-0.02,0.01-0.01-0.01,0.01
				c0.01-0.01,0.02-0.02,0.02-0.03c0.01-0.01,0.02-0.02,0.03-0.02c0.03-0.02-0.03,0.02,0.01-0.01c0.02-0.01,0.04-0.03,0.07-0.04
				c0.01,0,0.04-0.03,0.01,0c0.01-0.01,0.03-0.01,0.04-0.01c0.02,0,0.03-0.01,0.05-0.01c0.01,0,0.01,0,0.02,0c-0.02,0-0.03,0-0.01,0
				c0.01,0,0.08-0.01,0.08,0c-0.02,0-0.03,0-0.01,0c0,0,0.01,0,0.01,0c0.01,0,0.03,0.01,0.04,0.01c0.01,0,0.01,0-0.02-0.01
				c0.01,0,0.01,0.01,0.02,0.01c0.01,0.01,0.02,0.01,0.04,0.02c0.03,0.02-0.03-0.02,0,0c0.01,0.01,0.02,0.02,0.02,0.02
				c0.03,0.03-0.02-0.03,0,0c0.01,0.01,0.01,0.02,0.02,0.04c0.01,0.01,0,0.01-0.01-0.02c0,0.01,0,0.01,0.01,0.02c0,0,0,0.01,0,0.01
				c0,0.02,0,0.01,0-0.02c0,0,0,0.03,0,0.03c0,0.04,0.01-0.04,0,0c0,0.01-0.02,0.04,0,0.02c0.02-0.03-0.01,0.01-0.01,0.02
				c0,0,0,0.01-0.01,0.01c-0.01,0.02-0.01,0.01,0.01-0.01c0,0-0.02,0.02-0.02,0.02c0.02-0.02,0.03-0.02,0.01-0.01
				c0,0-0.01,0-0.01,0.01c-0.02,0.01-0.01,0.01,0.01,0c-0.01,0-0.01,0-0.02,0.01c-0.09,0.03-0.15,0.13-0.12,0.22
				C35.03,30.13,35.12,30.19,35.22,30.16L35.22,30.16z"/>
		</g>
	</g>
	<g>
		<g>
			<path d="M34.3,31.97c0.26,0.07,0.54,0.11,0.81,0.05c0.27-0.06,0.5-0.23,0.63-0.47c0.07-0.12,0.12-0.26,0.16-0.39
				c0.05-0.15,0.09-0.31,0.1-0.47c0.01-0.28-0.14-0.55-0.38-0.7c-0.29-0.17-0.64-0.12-0.9,0.08c-0.12,0.09-0.03,0.25,0.08,0.3
				c0.06,0.02,0.11,0.05,0.17,0.07c0.09,0.04,0.19-0.04,0.22-0.12c0.03-0.1-0.03-0.18-0.12-0.22c-0.06-0.02-0.11-0.05-0.17-0.07
				c0.03,0.1,0.05,0.2,0.08,0.3c0.17-0.13,0.42-0.1,0.56,0.05c0.19,0.21,0.08,0.51,0.01,0.74c-0.07,0.22-0.18,0.45-0.42,0.53
				c-0.24,0.08-0.5,0.04-0.73-0.02C34.17,31.57,34.08,31.91,34.3,31.97L34.3,31.97z"/>
		</g>
	</g>
	<g>
		<g>
			<path d="M34.48,31.76c0.34-0.11,0.65-0.32,0.79-0.66c0.12-0.3,0.07-0.69-0.19-0.91c-0.07-0.06-0.16-0.07-0.23-0.01
				c-0.07,0.05-0.09,0.15-0.05,0.23c0.05,0.08,0.09,0.15,0.14,0.23c0.05,0.08,0.16,0.11,0.24,0.06c0.08-0.05,0.11-0.16,0.06-0.24
				c-0.05-0.08-0.09-0.15-0.14-0.23c-0.09,0.07-0.19,0.14-0.28,0.21c0.01,0.01,0.03,0.02,0.04,0.04c0,0,0.03,0.04,0.02,0.02
				c-0.01-0.01,0.02,0.02,0.02,0.02c0.01,0.01,0.01,0.02,0.02,0.04c0.01,0.01,0.01,0.03,0.02,0.04c-0.01-0.03,0.01,0.02,0.01,0.02
				c0.01,0.03,0.02,0.06,0.02,0.08c0-0.03,0,0,0,0.01c0,0.01,0,0.03,0,0.04c0,0.02,0,0.04,0,0.05c0,0,0,0.05,0,0.03
				c0-0.02,0,0.02-0.01,0.03c0,0.01-0.01,0.03-0.01,0.04c0,0.01-0.01,0.03-0.01,0.04c0,0-0.02,0.05-0.01,0.02
				c-0.1,0.23-0.32,0.37-0.55,0.44c-0.09,0.03-0.15,0.12-0.12,0.22C34.29,31.73,34.39,31.79,34.48,31.76L34.48,31.76z"/>
		</g>
	</g>
	<g>
		<g>
			<path d="M32.14,36.17c-0.13-0.05-0.02-0.63-0.01-0.73c0.03-0.3,0.09-0.6,0.15-0.89c0.12-0.54,0.28-1.06,0.46-1.58
				c0.15-0.45,0.26-1.08,0.63-1.41c0.29-0.26,0.65-0.4,0.84-0.76c-0.08,0.02-0.16,0.04-0.24,0.06c0.11,0.06,0.22,0.13,0.33,0.19
				c0.2,0.11,0.38-0.19,0.18-0.31c-0.11-0.06-0.22-0.13-0.33-0.19c-0.08-0.05-0.2-0.02-0.24,0.06c-0.22,0.42-0.76,0.54-1.01,0.95
				c-0.15,0.24-0.23,0.53-0.32,0.79c-0.11,0.32-0.22,0.64-0.32,0.96c-0.19,0.61-0.36,1.24-0.44,1.88c-0.05,0.39-0.24,1.12,0.24,1.31
				C32.26,36.59,32.35,36.25,32.14,36.17L32.14,36.17z"/>
		</g>
	</g>
	<g>
		<g>
			<path d="M34.84,30.43c-0.41,0-0.78,0.14-1.17,0.25c-0.19,0.06-0.4,0.11-0.6,0.11c-0.17,0-0.35-0.08-0.51-0.05
				c-0.3,0.06-0.46,0.43-0.56,0.68c-0.17,0.41-0.27,0.86-0.38,1.28c-0.25,0.92-0.47,1.85-0.55,2.81c-0.03,0.35-0.12,0.82,0.04,1.15
				c0.12,0.25,0.44,0.38,0.68,0.2c0.18-0.13,0.01-0.44-0.18-0.31c-0.07-0.04-0.14-0.08-0.2-0.12c-0.01-0.06-0.02-0.12-0.02-0.18
				c0-0.07,0-0.15,0-0.22c0-0.18,0.01-0.35,0.03-0.53c0.03-0.37,0.09-0.74,0.16-1.11c0.13-0.69,0.32-1.38,0.51-2.06
				c0.08-0.29,0.15-0.58,0.27-0.85c0.08-0.19,0.16-0.38,0.39-0.38c0.12,0,0.24,0.04,0.37,0.04c0.59-0.02,1.13-0.35,1.72-0.35
				C35.07,30.78,35.07,30.43,34.84,30.43L34.84,30.43z"/>
		</g>
	</g>
	<g>
		<g>
			<path d="M33.56,30.3c0.08-0.01,0.16-0.01,0.24-0.01c0.02,0,0.04,0,0.06,0c0.01,0,0.02,0,0.03,0c0.02,0,0,0-0.01,0
				c0.02,0.01,0.05,0.01,0.06,0.01c0.02,0,0.04,0.01,0.06,0.01c0.04,0.01,0.07,0.02,0.11,0.03c0.02,0-0.03-0.02-0.01-0.01
				c0.01,0.01,0.01,0-0.02-0.01c-0.01-0.01-0.01-0.01-0.02-0.02c0-0.01-0.01-0.04-0.01-0.01c0,0.01,0,0.02,0,0.03
				c0.01,0.08,0.02,0.16,0.03,0.24c0.01,0.04,0.05,0.09,0.08,0.11c0.04,0.02,0.09,0.03,0.14,0.02c0.04-0.01,0.08-0.04,0.11-0.08
				c0.02-0.05,0.02-0.09,0.02-0.14c-0.01-0.09-0.02-0.18-0.04-0.27c-0.02-0.07-0.06-0.13-0.12-0.16c-0.05-0.03-0.1-0.04-0.15-0.05
				c-0.19-0.05-0.38-0.07-0.58-0.04c-0.05,0.01-0.09,0.02-0.13,0.05c-0.03,0.03-0.05,0.08-0.05,0.13
				C33.39,30.21,33.46,30.31,33.56,30.3L33.56,30.3z"/>
		</g>
	</g>
	<g>
		<g>
			<path d="M34.71,30.75c0.19-0.15,0.44-0.4,0.42-0.66c-0.02-0.3-0.31-0.43-0.57-0.45c-0.14-0.01-0.27-0.01-0.4-0.04
				c-0.14-0.03-0.28-0.07-0.42-0.09c-0.25-0.04-0.52,0-0.71,0.19c-0.12,0.12-0.02,0.28,0.13,0.3c0.04,0,0.08,0.04,0.1,0.06
				c0.05,0.08,0.16,0.11,0.24,0.06c0.08-0.05,0.12-0.16,0.06-0.24c-0.1-0.14-0.23-0.22-0.4-0.24c0.04,0.1,0.08,0.2,0.13,0.3
				c0.1-0.1,0.26-0.11,0.39-0.09c0.22,0.03,0.43,0.11,0.66,0.13c0.11,0.01,0.39-0.03,0.44,0.11c0.02,0.05-0.04,0.13-0.07,0.18
				c-0.04,0.07-0.1,0.13-0.17,0.18c-0.08,0.06-0.12,0.15-0.06,0.24C34.51,30.76,34.63,30.81,34.71,30.75L34.71,30.75z"/>
		</g>
	</g>
	<g>
		<g>
			<path d="M32.31,29.64c0.06,0.28,0.19,0.53,0.37,0.75c0.08,0.09,0.17,0.17,0.26,0.26c0.02,0.02,0.04,0.05,0.06,0.07
				c0.02,0.02-0.02-0.03,0.01,0.02c0.01,0.01,0.01,0.02,0.02,0.03c0.01,0.01,0.01,0.03,0.02,0.04c0.01,0.02-0.01-0.03,0,0.01
				c0,0.01,0.01,0.02,0.01,0.03c-0.01-0.03,0,0.02,0,0.02c0,0.1,0.08,0.18,0.18,0.18c0.1,0,0.18-0.08,0.18-0.18
				c0-0.29-0.24-0.46-0.42-0.66c-0.18-0.19-0.29-0.42-0.35-0.67c-0.02-0.09-0.13-0.15-0.22-0.12
				C32.33,29.45,32.28,29.55,32.31,29.64L32.31,29.64z"/>
		</g>
	</g>
	<g>
		<g>
			<path d="M33.97,30.5c-0.11-0.33-0.38-0.55-0.66-0.75c-0.13-0.09-0.27-0.19-0.38-0.31c-0.11-0.12-0.17-0.27-0.25-0.41
				c-0.09-0.14-0.21-0.3-0.4-0.27c-0.18,0.03-0.28,0.22-0.35,0.37c-0.08,0.17-0.13,0.34-0.15,0.52c-0.02,0.17-0.03,0.36,0.07,0.52
				c0.1,0.16,0.27,0.25,0.38,0.39c0.13,0.16,0.23,0.34,0.32,0.53c0.1,0.2,0.41,0.03,0.31-0.18c-0.09-0.18-0.18-0.35-0.3-0.51
				c-0.06-0.08-0.12-0.15-0.19-0.22c-0.06-0.05-0.13-0.1-0.18-0.16c-0.11-0.12-0.06-0.32-0.03-0.47c0.02-0.09,0.05-0.18,0.09-0.27
				c0.02-0.04,0.04-0.09,0.07-0.13c0.01-0.02,0.02-0.04,0.03-0.05c0.02-0.01,0.01-0.01-0.02-0.01c-0.05-0.03-0.02,0.02-0.01,0.03
				c0.03,0.04,0.05,0.08,0.07,0.12c0.05,0.08,0.08,0.16,0.13,0.24c0.1,0.16,0.24,0.29,0.39,0.4c0.25,0.2,0.61,0.37,0.71,0.69
				C33.7,30.81,34.04,30.71,33.97,30.5L33.97,30.5z"/>
		</g>
	</g>
	<g>
		<g>
			<path d="M32.26,28.88c-0.01-0.01-0.01-0.02-0.02-0.03c0.01,0.01,0.01,0.03,0.02,0.04c-0.01-0.01-0.01-0.03-0.01-0.04
				c0,0.02,0,0.03,0.01,0.05c0-0.02,0-0.03,0-0.05c0,0.02,0,0.03-0.01,0.05c0-0.02,0.01-0.04,0.02-0.06
				c-0.01,0.01-0.01,0.03-0.02,0.04c0.01-0.02,0.02-0.03,0.03-0.04c-0.01,0.01-0.02,0.02-0.03,0.04c0.01-0.02,0.03-0.03,0.04-0.04
				c-0.01,0.01-0.02,0.02-0.04,0.03c0.02-0.02,0.04-0.03,0.07-0.04c-0.01,0.01-0.03,0.01-0.04,0.02c0.04-0.02,0.07-0.02,0.11-0.03
				c-0.02,0-0.03,0-0.05,0.01c0.02,0,0.04,0,0.06,0c-0.02,0-0.03,0-0.05-0.01c0.01,0,0.02,0,0.02,0.01
				c-0.01-0.01-0.03-0.01-0.04-0.02c0.01,0,0.02,0.01,0.02,0.01c-0.01-0.01-0.02-0.02-0.04-0.03c0.01,0.01,0.01,0.01,0.02,0.02
				c-0.01-0.01-0.02-0.02-0.03-0.04c0,0.01,0.01,0.01,0.01,0.02c-0.01-0.01-0.01-0.03-0.02-0.04c0.01,0.02,0.01,0.03,0.01,0.05
				c0-0.02,0-0.03-0.01-0.05c0,0.04,0,0.07,0,0.11c0,0.05,0,0.1,0.02,0.14c0.02,0.06,0.05,0.12,0.11,0.16
				c0.06,0.05,0.14,0.07,0.22,0.04c0.09-0.02,0.15-0.13,0.12-0.22c-0.03-0.09-0.12-0.15-0.22-0.12c0,0-0.01,0-0.01,0
				c0.02,0,0.03,0,0.05-0.01c-0.01,0-0.01,0-0.02,0c0.02,0,0.03,0,0.05,0.01c-0.01,0-0.01,0-0.02-0.01
				c0.01,0.01,0.03,0.01,0.04,0.02c-0.01,0-0.01-0.01-0.02-0.01c0.01,0.01,0.02,0.02,0.04,0.03c-0.01-0.01-0.01-0.01-0.02-0.02
				c0.01,0.01,0.02,0.02,0.03,0.04c-0.01-0.01-0.01-0.02-0.02-0.03c0.01,0.01,0.01,0.03,0.02,0.04c-0.01-0.02-0.01-0.04-0.02-0.06
				c0,0.02,0,0.03,0.01,0.05c0-0.03,0-0.06,0-0.08c0-0.04,0-0.08-0.01-0.13c-0.02-0.11-0.1-0.2-0.21-0.22
				c-0.11-0.02-0.22,0.01-0.31,0.05c-0.09,0.04-0.16,0.12-0.2,0.21c-0.04,0.11-0.05,0.24,0.02,0.33c0.03,0.04,0.06,0.07,0.11,0.08
				c0.04,0.01,0.1,0.01,0.14-0.02c0.04-0.02,0.07-0.06,0.08-0.11C32.29,28.97,32.28,28.91,32.26,28.88L32.26,28.88z"/>
		</g>
	</g>
	<g>
		<g>
			<path d="M32.25,28.33c-0.63,0.06-1.24,0.21-1.85,0.36c-0.71,0.17-1.43,0.23-2.16,0.26c-1.41,0.07-2.81,0.02-4.17-0.39
				c-0.14-0.04-0.24,0.09-0.22,0.22c0.05,0.25,0.03,0.71,0.25,0.9c0.22,0.19,0.71,0.15,0.97,0.19c0.73,0.11,1.47,0.22,2.21,0.22
				c0.82,0,1.62-0.21,2.43-0.27c0.37-0.03,0.72-0.05,1.09-0.14c0.42-0.1,0.82-0.24,1.25-0.26c0.23-0.01,0.23-0.37,0-0.35
				c-0.69,0.04-1.33,0.33-2.02,0.38c-0.72,0.05-1.43,0.19-2.15,0.25c-0.67,0.06-1.34,0.01-2.01-0.08c-0.39-0.05-0.77-0.11-1.16-0.16
				c-0.13-0.02-0.3-0.02-0.4-0.13c-0.09-0.11-0.09-0.5-0.12-0.64c-0.07,0.07-0.15,0.15-0.22,0.22c1.33,0.41,2.72,0.48,4.11,0.41
				c0.65-0.03,1.31-0.06,1.95-0.18c0.74-0.14,1.46-0.38,2.21-0.44C32.48,28.67,32.48,28.31,32.25,28.33L32.25,28.33z"/>
		</g>
	</g>
	<g>
		<g>
			<path d="M32.88,28.76c0-0.01,0-0.03,0-0.04c0-0.02-0.01,0.03,0,0.01c0-0.01,0-0.01,0-0.02c0.01-0.03,0.02-0.06,0.03-0.1
				c0.02-0.08,0.03-0.16,0.01-0.24c-0.02-0.13-0.13-0.26-0.25-0.31c-0.14-0.07-0.3-0.07-0.44-0.02c-0.14,0.05-0.29,0.14-0.36,0.27
				c-0.1,0.18-0.03,0.41,0.17,0.48c0.09,0.03,0.2-0.03,0.22-0.12c0.02-0.1-0.03-0.19-0.12-0.22c0.03,0.01,0.03,0.02,0.02,0.01
				c0.02,0.02,0.03,0.02,0.01,0.01c-0.01-0.01-0.01-0.01,0.01,0.01c0-0.01-0.01-0.01-0.01-0.02c0.01,0.03,0.01,0.03,0.01,0.02
				c0,0,0-0.01,0-0.01c0,0.03,0,0.04,0,0.02c0-0.02,0-0.01,0,0.02c0-0.01,0-0.01,0.01-0.02c0.01-0.02,0-0.01,0,0.01
				c0,0,0.02-0.03,0.02-0.03c-0.02,0.02-0.02,0.02-0.01,0.01c0.01-0.01,0.01-0.01,0.02-0.02c0,0,0.02-0.02,0.03-0.02
				c-0.02,0.02-0.02,0.02-0.01,0.01c0.01,0,0.01-0.01,0.02-0.01c0.01-0.01,0.03-0.02,0.04-0.03c0.01-0.01,0.02-0.01,0.03-0.02
				c0.02-0.01,0.02-0.01-0.01,0c0.01,0,0.02-0.01,0.02-0.01c0.02-0.01,0.07-0.03,0.09-0.02c-0.03,0-0.03,0-0.01,0
				c0.01,0,0.02,0,0.03,0c0.01,0,0.06,0,0.03,0c-0.03,0,0.01,0,0.02,0.01c0.01,0,0.01,0,0.02,0.01c0.02,0.01,0.01,0-0.01-0.01
				c0.01,0.01,0.02,0.01,0.03,0.01c0.01,0,0.01,0.01,0.02,0.01c0.02,0.01,0.01,0.01-0.01-0.01c0,0.01,0.03,0.02,0.03,0.03
				c0,0,0,0.01,0.01,0.01c0.01,0.01,0.01,0.01-0.01-0.01c0,0,0.02,0.04,0.02,0.04c-0.01-0.03-0.01-0.03-0.01-0.01c0,0,0,0.01,0,0.01
				c0,0.01,0,0.01,0,0.02c0,0.02,0,0.01,0-0.02c0,0.01,0,0.01,0,0.02c0,0.02,0,0.02,0-0.01c0.01,0.02-0.02,0.07-0.02,0.08
				c-0.02,0.07-0.04,0.14-0.03,0.22c0.01,0.05,0.02,0.09,0.05,0.13c0.03,0.03,0.08,0.05,0.13,0.05
				C32.79,28.94,32.9,28.86,32.88,28.76L32.88,28.76z"/>
		</g>
	</g>
	<g>
		<g>
			<path d="M31.94,28.46c-0.03-0.39,0.31-0.75,0.64-0.92c0.35-0.18,0.77-0.18,1.12,0c0.36,0.18,0.63,0.51,0.72,0.91
				c0.05,0.2,0.05,0.42,0.01,0.63c-0.02,0.1-0.05,0.21-0.09,0.31c-0.01,0.03-0.11,0.27-0.15,0.27c-0.21,0-0.23,0.28-0.05,0.35
				c0.03,0.01,0.06,0.02,0.09,0.03c0.21,0.08,0.31-0.26,0.09-0.34c-0.03-0.01-0.06-0.02-0.09-0.03c-0.02,0.12-0.03,0.23-0.05,0.35
				c0.24,0,0.36-0.24,0.45-0.43c0.09-0.2,0.15-0.41,0.17-0.63c0.04-0.43-0.07-0.87-0.33-1.21c-0.51-0.67-1.45-0.9-2.18-0.45
				c-0.38,0.24-0.75,0.7-0.71,1.17C31.6,28.69,31.96,28.69,31.94,28.46L31.94,28.46z"/>
		</g>
	</g>
	<g>
		<g>
			<path d="M32.36,27.15c0.43-1.41,1.3-2.61,1.93-3.94c0.62-1.3,1.04-2.69,1.25-4.12c-0.07,0.04-0.15,0.08-0.22,0.12
				c0.06,0.04,0.12,0.08,0.18,0.12c0.14,0.18,0.39-0.07,0.25-0.25c-0.1-0.12-0.19-0.18-0.34-0.21c-0.08-0.02-0.2,0.03-0.22,0.12
				c-0.22,1.49-0.66,2.94-1.34,4.29c-0.63,1.25-1.43,2.41-1.84,3.76C31.95,27.27,32.29,27.36,32.36,27.15L32.36,27.15z"/>
		</g>
	</g>
	<g>
		<g>
			<path d="M33.62,27.25c0.42-1.51,1.14-2.92,1.64-4.4c0.12-0.36,0.21-0.72,0.33-1.08c0.13-0.38,0.34-0.72,0.48-1.09
				c0.15-0.41,0.18-1.97,0.78-1.89c0.23,0.03,0.22-0.32,0-0.35c-0.29-0.04-0.41,0.04-0.58,0.29c-0.21,0.29-0.28,0.65-0.34,1
				c-0.15,0.86-0.57,1.59-0.82,2.42c-0.51,1.71-1.36,3.29-1.83,5.01C33.22,27.37,33.56,27.47,33.62,27.25L33.62,27.25z"/>
		</g>
	</g>
	<g>
		<g>
			<path d="M36.58,20c-0.31,0.6-0.62,1.19-0.93,1.79c-0.13,0.26-0.25,0.54-0.46,0.75c-0.19,0.19-0.36,0.43-0.26,0.71
				c0.08,0.21,0.42,0.12,0.34-0.09c-0.08-0.22,0.26-0.44,0.37-0.61c0.15-0.23,0.27-0.5,0.39-0.74c0.28-0.54,0.56-1.08,0.84-1.63
				C36.99,19.98,36.68,19.8,36.58,20L36.58,20z"/>
		</g>
	</g>
	<g>
		<g>
			<path d="M32.5,18.27c0.07-0.04,0.14-0.02,0.21,0.02c0.1,0.07,0.13,0.2,0.14,0.31c0.02,0.33-0.1,0.65-0.02,0.98
				c0.02,0.09,0.13,0.15,0.22,0.12c0.28-0.08,0.48-0.29,0.62-0.54c0.15-0.26,0.23-0.55,0.41-0.78c0.09-0.12-0.06-0.31-0.2-0.26
				c-0.17,0.06-0.25,0.24-0.18,0.4c0.03,0.08,0.1,0.14,0.17,0.18c0.06,0.04,0.14,0.05,0.19,0.1c0.17,0.16,0.42-0.09,0.25-0.25
				c-0.07-0.06-0.14-0.09-0.22-0.13c-0.02-0.01-0.05-0.04-0.07-0.04c-0.02,0,0.01-0.01,0,0.01c0,0.03-0.01,0.06-0.06,0.07
				c-0.07-0.09-0.13-0.17-0.2-0.26c-0.16,0.22-0.25,0.47-0.37,0.71c-0.1,0.19-0.23,0.38-0.44,0.44c0.07,0.04,0.15,0.08,0.22,0.12
				c-0.05-0.2,0-0.4,0.02-0.6c0.02-0.19,0.03-0.39-0.04-0.57c-0.12-0.32-0.51-0.56-0.83-0.37C32.13,18.08,32.31,18.39,32.5,18.27
				L32.5,18.27z"/>
		</g>
	</g>
	<g>
		<g>
			<path d="M25.27,24.21c0.23,0,0.23-0.35,0-0.35C25.04,23.86,25.04,24.21,25.27,24.21L25.27,24.21z"/>
		</g>
	</g>
	<g>
		<g>
			<path d="M21.42,19.03c-0.05,0.74-0.18,1.46-0.4,2.17c-0.06,0.19,0.23,0.32,0.32,0.14c0.29-0.54,0.61-1.07,0.96-1.57
				c-0.1-0.06-0.2-0.12-0.31-0.18c-0.35,0.67-0.71,1.35-1.06,2.02c-0.09,0.18,0.13,0.35,0.28,0.21c0.25-0.23,0.51-0.46,0.81-0.64
				c-0.09-0.07-0.17-0.13-0.26-0.2c-0.05,0.37-0.13,0.73-0.22,1.08c-0.03,0.11,0.06,0.22,0.17,0.22c0.19,0.01,0.34-0.08,0.47-0.2
				c0.13-0.12,0.26-0.34,0.45-0.36c-0.05-0.03-0.1-0.06-0.15-0.09c0.08,0.17,0.01,0.38,0.1,0.55c0.06,0.13,0.17,0.2,0.29,0.26
				c0.17,0.07,0.34,0.09,0.5,0.18c0.13,0.07,0.25,0.17,0.36,0.27c0.46,0.43,0.8,0.96,1.4,1.21c0.21,0.09,0.3-0.26,0.09-0.34
				c-0.55-0.22-0.87-0.78-1.29-1.16c-0.19-0.17-0.4-0.32-0.65-0.41c-0.2-0.07-0.38-0.06-0.41-0.31c-0.02-0.16-0.02-0.29-0.09-0.44
				c-0.02-0.05-0.1-0.09-0.15-0.09c-0.19,0.02-0.33,0.11-0.47,0.24c-0.13,0.12-0.26,0.33-0.45,0.32c0.06,0.07,0.11,0.15,0.17,0.22
				c0.1-0.36,0.17-0.72,0.22-1.08c0.02-0.14-0.11-0.29-0.26-0.2c-0.32,0.2-0.6,0.45-0.88,0.7c0.09,0.07,0.19,0.14,0.28,0.21
				c0.35-0.67,0.71-1.35,1.06-2.02c0.11-0.2-0.18-0.36-0.31-0.18c-0.36,0.5-0.68,1.02-0.96,1.57c0.11,0.05,0.22,0.09,0.32,0.14
				c0.23-0.74,0.37-1.5,0.42-2.27C21.79,18.81,21.43,18.81,21.42,19.03L21.42,19.03z"/>
		</g>
	</g>
	<g>
		<g>
			<path d="M20.48,18.72c-0.11-0.19-0.17-0.48,0.08-0.59c-0.07-0.09-0.14-0.19-0.21-0.28c-0.11,0.11-0.3,0.25-0.25,0.43
				c0.02,0.07,0.07,0.13,0.13,0.17c0.03,0.02,0.07,0.03,0.11,0.04c0.01,0,0.03,0.01,0.04,0.01c-0.03-0.06-0.05-0.07-0.04-0.04
				c-0.01,0.01-0.03,0.08-0.03,0.09c-0.02,0.04-0.03,0.08-0.04,0.13c-0.01,0.08,0,0.16,0.05,0.23c0.08,0.12,0.23,0.17,0.37,0.16
				c0.04,0,0.07-0.01,0.11-0.01c0.01,0,0.05,0.01,0.03,0c0.03,0.02,0.04,0.09,0.05,0.12c0.03,0.13,0.05,0.25,0.1,0.37
				c0.11,0.28,0.31,0.51,0.56,0.67c0.19,0.12,0.37-0.18,0.18-0.31c-0.18-0.12-0.33-0.29-0.41-0.48c-0.08-0.2-0.06-0.44-0.21-0.61
				c-0.09-0.1-0.21-0.13-0.33-0.11c-0.04,0-0.08,0.01-0.12,0.01c0.04,0-0.03-0.01-0.03-0.01c0.02,0.01,0,0.03,0.02-0.03
				c0.04-0.11,0.08-0.22,0.03-0.34c-0.02-0.06-0.07-0.11-0.12-0.14c-0.03-0.02-0.06-0.03-0.1-0.04c-0.01,0-0.02,0-0.03-0.01
				c-0.02,0-0.02,0,0,0c0.01,0.03,0.02,0.06,0.02,0.09c0-0.01,0-0.02,0-0.03c-0.01,0.03-0.02,0.06-0.02,0.09
				c0.04-0.07,0.12-0.13,0.18-0.19c0.15-0.16-0.04-0.35-0.21-0.28c-0.17,0.07-0.3,0.25-0.34,0.43c-0.05,0.22,0.02,0.44,0.13,0.64
				C20.29,19.1,20.6,18.92,20.48,18.72L20.48,18.72z"/>
		</g>
	</g>
	<g>
		<g>
			<path d="M20.34,18.4c1.5-0.61,3.16-0.49,4.75-0.5c1.47-0.01,2.94-0.04,4.42-0.04c0.79,0,1.58,0,2.36,0.01
				c0.82,0.01,1.79-0.12,2.54,0.23c0.39,0.18,0.71,0.48,1.16,0.46c0.58-0.02,1.35-1.07,1.93-0.61c0.01-0.09,0.02-0.19,0.04-0.28
				c-0.23,0.14-0.36,0.28-0.48,0.51c-0.11,0.2,0.2,0.38,0.31,0.18c0.12-0.13,0.24-0.26,0.36-0.39c0.09-0.05,0.13-0.2,0.04-0.28
				c-0.32-0.25-0.62-0.29-1.01-0.14c-0.28,0.1-0.47,0.35-0.73,0.47c-0.56,0.24-1.04-0.06-1.52-0.28c-0.56-0.26-1.19-0.21-1.79-0.22
				c-0.91-0.02-1.82-0.02-2.73-0.02c-1.63,0-3.25,0.03-4.88,0.04c-1.63,0.01-3.31-0.11-4.84,0.52
				C20.04,18.15,20.13,18.49,20.34,18.4L20.34,18.4z"/>
		</g>
	</g>
	<g>
		<g>
			<path d="M38.15,18.18c-1.27,1.8-2.46,3.69-3.22,5.77c-0.08,0.21,0.26,0.31,0.34,0.09c0.75-2.05,1.94-3.91,3.18-5.68
				C38.59,18.17,38.28,17.99,38.15,18.18L38.15,18.18z"/>
		</g>
	</g>
	<g>
		<g>
			<path d="M38.07,18.08c0.18-0.06,1.96,0.22,1.17-0.7c-0.3-0.34-1.1-0.31-1.52-0.38c-0.56-0.09-1.06-0.21-1.61-0.12
				c-0.17,0.19-0.37,0.24-0.62,0.15c-0.16,0.04-0.3,0.03-0.44-0.03c-0.3-0.04-0.56-0.12-0.87-0.13c-0.81-0.03-1.63-0.04-2.45-0.08
				c-1.84-0.09-3.69,0.08-5.52,0.03c-1.76-0.05-3.48-0.05-5.23,0.19c-0.55,0.08-2.03,0.18-1.89,1.1c0.06,0.39,0.33,0.38,0.63,0.5
				c1.08,0.42,1.4,1.3,1.95,2.25c0.44,0.75,0.89,1.49,1.35,2.22c0.25,0.39,0.56,1.24,0.98,1.44c0.21,0.1,0.39-0.21,0.18-0.31
				c-0.23-0.11-0.62-0.94-0.76-1.15c-0.37-0.57-0.73-1.15-1.08-1.74c-0.31-0.52-0.62-1.05-0.92-1.58c-0.21-0.37-0.37-0.87-0.71-1.15
				c-0.3-0.25-1.71-0.32-0.69-1.06c0.39-0.28,1.28-0.21,1.72-0.26c1.36-0.15,2.72-0.17,4.08-0.12c1.28,0.05,2.58,0,3.87-0.01
				c1.28-0.02,2.54,0.08,3.82,0.09c0.66,0.01,1.16,0.15,1.8,0.26c0.4,0.07,0.39-0.05,0.74-0.14c0.67-0.18,1.55-0.09,2.22,0.1
				c0.81,0.23,0.02,0.17-0.31,0.28C37.76,17.81,37.85,18.15,38.07,18.08L38.07,18.08z"/>
		</g>
	</g>
</g>
</svg>
