<?xml version="1.0" encoding="utf-8"?>
<!-- Generator: Adobe Illustrator 26.2.1, SVG Export Plug-In . SVG Version: 6.00 Build 0)  -->
<svg version="1.1" id="Layer_1" xmlns="http://www.w3.org/2000/svg" xmlns:xlink="http://www.w3.org/1999/xlink" x="0px" y="0px"
	 viewBox="0 0 56.69 56.69" style="enable-background:new 0 0 56.69 56.69;" xml:space="preserve">
<g>
	<g>
		<g>
			<path d="M16.67,41.52c-0.19-0.13-0.39-0.27-0.58-0.4c-0.01,0.11-0.03,0.22-0.04,0.32c3.13-0.98,6.4-1.34,9.67-1.25
				c1.58,0.05,3.16,0.19,4.73,0.41c0.79,0.11,1.58,0.24,2.36,0.38c0.33,0.06,0.75,0.07,1.05,0.25c0.69,0.41,0.06,0.99-0.39,1.2
				c-1.38,0.65-2.99,0.5-4.47,0.52c-1.58,0.01-3.15,0.2-4.73,0.33c-1.69,0.13-3.44,0.22-5.1-0.17c-0.64-0.15-1.95-0.51-2.14-1.23
				c-0.24-0.93,1.79-1.19,2.36-1.26c0.22-0.03,0.23-0.38,0-0.35c-0.7,0.08-2.6,0.34-2.81,1.21c-0.2,0.82,1.14,1.52,1.71,1.74
				c3.13,1.19,6.79,0.21,10.02,0.1c1.44-0.05,2.91,0.1,4.32-0.23c0.65-0.15,2.22-0.6,2.03-1.54c-0.18-0.91-1.96-0.93-2.61-1.04
				c-1.65-0.28-3.31-0.49-4.98-0.59c-3.76-0.24-7.53,0.07-11.13,1.2c-0.15,0.05-0.17,0.24-0.04,0.32c0.19,0.13,0.39,0.27,0.58,0.4
				C16.68,41.95,16.85,41.65,16.67,41.52L16.67,41.52z"/>
		</g>
	</g>
	<g>
		<g>
			<path d="M19.89,36.42c-0.97,0.97-1.93,1.93-2.9,2.9c-0.12,0.12,0,0.36,0.17,0.3c0.44-0.15,0.85-0.36,1.24-0.61
				c-0.09-0.05-0.18-0.1-0.27-0.15c-0.04,0.76-0.91,1.2-0.85,2.01c0.01,0.13,0.14,0.22,0.27,0.15c0.96-0.54,1.77-1.31,2.35-2.24
				c0.12-0.18-0.13-0.33-0.28-0.21c-0.5,0.39-0.94,0.83-1.31,1.34c-0.18,0.25-0.38,0.51-0.51,0.8c-0.08,0.17-0.11,0.35,0.04,0.49
				c0.06,0.05,0.14,0.07,0.21,0.03c0.23-0.13,0.45-0.18,0.71-0.18c-0.05-0.09-0.1-0.18-0.15-0.27c-0.24,0.55-0.48,1.1-0.72,1.64
				c-0.08,0.18,0.12,0.36,0.28,0.21c0.34-0.3,0.68-0.6,1.01-0.91c0.17-0.15-0.08-0.4-0.25-0.25c-0.34,0.3-0.68,0.6-1.01,0.91
				c0.09,0.07,0.19,0.14,0.28,0.21c0.24-0.55,0.48-1.1,0.72-1.64c0.05-0.12-0.01-0.26-0.15-0.27c-0.32-0.01-0.61,0.07-0.89,0.22
				c0.07,0.01,0.14,0.02,0.21,0.03c-0.1-0.09,0.69-1.08,0.77-1.17c0.3-0.35,0.64-0.67,1.01-0.95c-0.09-0.07-0.19-0.14-0.28-0.21
				c-0.55,0.89-1.31,1.61-2.22,2.12c0.09,0.05,0.18,0.1,0.27,0.15c-0.03-0.41,0.24-0.72,0.46-1.04c0.2-0.3,0.38-0.6,0.4-0.97
				c0.01-0.13-0.16-0.23-0.27-0.15c-0.36,0.24-0.75,0.43-1.16,0.58c0.06,0.1,0.11,0.2,0.17,0.3c0.97-0.97,1.93-1.93,2.9-2.9
				C20.3,36.51,20.05,36.26,19.89,36.42L19.89,36.42z"/>
		</g>
	</g>
	<g>
		<g>
			<path d="M35.7,26.35c0.77-0.85,1.89-0.87,2.95-0.72c0.17,0.02,0.4,0.03,0.56,0.09c0.65,0.26,0.62,0.63,0.66,1.14
				c0.04,0.48,0.05,0.97,0.04,1.45c-0.05,1.89-0.41,3.84-0.93,5.66c-0.24,0.85-0.62,1.73-1.41,2.19c-0.38,0.22-0.8,0.36-1.23,0.44
				c-0.53,0.1-0.81,0.03-1.32-0.15c-1.16-0.39-0.94,1.29-0.77,1.98c0.02,0.07,0.09,0.13,0.17,0.13c1.98-0.08,4-0.46,5.33-2.06
				c1.42-1.7,1.78-4.04,2.02-6.17c0.14-1.26,0.19-2.53,0.16-3.8c-0.03-0.9-0.05-1.87-0.85-2.45c-0.75-0.56-1.83-0.67-2.73-0.79
				c-0.73-0.1-1.78-0.38-2.43,0.1c-0.31,0.23-0.47,0.6-0.61,0.94c-0.18,0.46-0.49,1.05-0.51,1.56c-0.03,0.92,1.31,0.84,1.92,0.79
				c0.23-0.02,0.23-0.37,0-0.35c-0.21,0.02-0.41,0.03-0.62,0.02c-0.46-0.02-0.53,0.02-0.72-0.39c-0.22-0.45,0.03-0.87,0.2-1.33
				c0.17-0.45,0.36-0.95,0.87-1.1c0.42-0.12,1.02,0.01,1.44,0.06c0.8,0.1,1.67,0.19,2.42,0.49c1.22,0.48,1.23,1.61,1.25,2.75
				c0.03,1.83-0.11,3.67-0.46,5.47c-0.31,1.63-0.85,3.32-2.11,4.47c-0.62,0.56-1.37,0.92-2.16,1.13c-0.43,0.11-0.86,0.19-1.3,0.24
				c-0.6,0.07-1.03,0.26-1.08-0.49c-0.03-0.44-0.04-0.84,0.49-0.79c0.18,0.02,0.37,0.16,0.57,0.18c0.61,0.05,1.33-0.14,1.88-0.39
				c1.08-0.49,1.6-1.49,1.91-2.58c0.44-1.53,0.75-3.15,0.89-4.73c0.08-0.95,0.13-1.95-0.02-2.9c-0.07-0.46-0.18-0.83-0.65-1
				c-1.28-0.47-3.12-0.39-4.07,0.67C35.3,26.27,35.55,26.52,35.7,26.35L35.7,26.35z"/>
		</g>
	</g>
	<g>
		<g>
			<path d="M35,28.76c-2.83-0.57-5.7-0.45-8.57-0.4c-2.29,0.04-4.97,0.07-6.89,1.51c-0.48,0.36-1.31,1.24-0.82,1.89
				c0.51,0.67,2.04,0.46,2.73,0.47c3.01,0.05,6.05,0.07,9.05-0.23c1.22-0.12,2.6-0.23,3.58-1.06c0.53-0.45,1.37-1.67,0.69-2.3
				c-0.07,0.09-0.14,0.19-0.21,0.28c0.31,0.16,0.62,0.29,0.95,0.4c0.22,0.07,0.31-0.27,0.09-0.34c-0.3-0.1-0.58-0.22-0.86-0.36
				c-0.17-0.09-0.37,0.14-0.21,0.28c0.4,0.37-0.11,1.15-0.36,1.45c-0.26,0.32-0.58,0.56-0.95,0.74c-0.64,0.31-1.37,0.41-2.06,0.49
				c-1.35,0.16-2.71,0.24-4.06,0.28c-1.36,0.04-2.72,0.04-4.08,0.03c-0.67,0-1.35,0-2.02-0.02c-0.6-0.02-2.6,0.04-1.84-1.12
				c0.69-1.06,2.29-1.5,3.45-1.73c1.25-0.25,2.54-0.27,3.81-0.29c2.83-0.05,5.68-0.18,8.47,0.39C35.13,29.14,35.23,28.8,35,28.76
				L35,28.76z"/>
		</g>
	</g>
	<g>
		<g>
			<path d="M27.43,19.53c-0.73,0.01-0.56,0.78-0.28,1.19c0.71,1.04,0.67,2.29,0.65,3.5c-0.03,2.56-0.48,5.08-1.17,7.54
				c-0.06,0.22,0.28,0.31,0.34,0.09c0.57-2.04,0.98-4.12,1.12-6.24c0.07-1.06,0.1-2.13,0-3.19c-0.04-0.41-0.1-0.81-0.25-1.2
				c-0.05-0.13-0.11-0.27-0.19-0.39c-0.04-0.07-0.74-0.96-0.24-0.96C27.66,19.88,27.66,19.53,27.43,19.53L27.43,19.53z"/>
		</g>
	</g>
	<g>
		<g>
			<path d="M17.62,35.92c-0.31,0.19-1.01,0.65-0.93,1.1c0.08,0.45,0.95,0.76,1.3,0.9c1.86,0.74,4.13,0.77,6.1,0.83
				c2.21,0.06,4.42-0.04,6.62-0.24c1.49-0.13,3.68-0.18,4.7-1.43c0.08-0.1,0.06-0.25-0.08-0.3c-0.37-0.12-0.62-0.13-0.99-0.04
				c-0.22,0.05-0.13,0.39,0.09,0.34c0.27,0.01,0.54,0.03,0.81,0.04c-0.03-0.1-0.05-0.2-0.08-0.3c-0.96,1.18-3.22,1.22-4.61,1.35
				c-1.5,0.13-3.01,0.21-4.52,0.23c-1.52,0.02-3.05-0.02-4.57-0.17c-0.84-0.08-1.7-0.18-2.53-0.38c-0.76-0.19-2.53-0.76-1.13-1.62
				C17.99,36.11,17.81,35.8,17.62,35.92L17.62,35.92z"/>
		</g>
	</g>
	<g>
		<g>
			<path d="M29.58,43.39c0.72,0.84,1.53,1.54,2.46,2.13c0.12,0.07,0.26-0.02,0.27-0.15c0.04-2.03-0.17-4.04-0.17-6.07
				c0-2.02,0.48-4.08,0.74-6.09c0.27-2.09,0.51-4.17,0.75-6.26c0.06-0.49,0.28-1.17-0.08-1.6c-0.27-0.33-0.86-0.44-1.26-0.35
				c-0.26,0.06-0.42,0.11-0.52,0.36c-0.09,0.21,0.09,0.56,0.13,0.73c0.14,0.58,0.2,1.17,0.2,1.77c0.03,2.02-0.35,4.08-0.55,6.09
				c-0.21,2.07-0.38,4.15-0.46,6.24c-0.02,0.52,0.01,1.05-0.04,1.56c0.04,0.29-0.01,0.56-0.15,0.81c-0.07-0.05-0.15-0.1-0.24-0.13
				c-0.27,0.07-0.28-0.08-0.59,0.02c-0.33,0.11-0.57,0.4-0.9,0.52c-0.1,0.04-0.17,0.15-0.11,0.26c0.13,0.21,0.15,0.22,0.4,0.23
				c0.23,0.01,0.23-0.35,0-0.35c-0.03-0.02-0.06-0.04-0.09-0.06c-0.04,0.09-0.07,0.17-0.11,0.26c0.26-0.1,0.46-0.31,0.71-0.41
				c1.02-0.4,0.53,0.19,1,0.07c0.29-0.08,0.26-0.05,0.39-0.29c0.13-0.25,0.04-0.68,0.04-0.94c0.01-0.52,0.02-1.04,0.04-1.56
				c0.04-0.91,0.09-1.82,0.15-2.73c0.13-1.82,0.32-3.64,0.51-5.45c0.19-1.73,0.5-3.5,0.27-5.24c-0.04-0.27-0.22-0.68-0.19-0.94
				c-0.13-0.24-0.01-0.41,0.35-0.49c0.66,0.09,0.93,0.37,0.83,0.83c0.07,0.39-0.11,0.98-0.16,1.37c-0.05,0.46-0.11,0.91-0.16,1.37
				c-0.21,1.83-0.44,3.65-0.68,5.48c-0.23,1.73-0.63,3.52-0.57,5.27c0.06,1.91,0.2,3.79,0.16,5.71c0.09-0.05,0.18-0.1,0.27-0.15
				c-0.91-0.57-1.69-1.26-2.39-2.08C29.68,42.97,29.43,43.22,29.58,43.39L29.58,43.39z"/>
		</g>
	</g>
	<g>
		<g>
			<path d="M21.01,25.46c-0.39,2.95-0.78,5.89-1.3,8.82c-0.48,2.74-1.25,5.43-1.61,8.18c-0.07,0.54-0.12,1.08-0.14,1.62
				c-0.01,0.46-0.15,1.57,0.11,1.96c0.22,0.33,0.76,0.47,1.16,0.43c0.73-0.08,0.96-0.72,1.26-1.3c0.45-0.88,0.85-1.79,1.37-2.64
				c0.07-0.12-0.02-0.26-0.15-0.27c-0.37-0.01-0.74-0.02-1.11-0.04c-0.08,0-0.14,0.06-0.17,0.13c-0.27,0.72-0.63,1.39-0.9,2.11
				c0.12,0.02,0.23,0.03,0.35,0.05c0.06-1.27-0.06-2.44,0.21-3.71c0.25-1.19,0.49-2.38,0.75-3.56c0.55-2.47,0.98-4.91,1.36-7.41
				c0.19-1.27,0.42-2.52,0.73-3.77c0.1-0.41,0.46-1.2,0.07-1.56c-0.27-0.26-1.3-0.2-1.62-0.06c-0.53,0.24-0.56,0.98-0.61,1.48
				c-0.02,0.23,0.33,0.23,0.35,0c0.06-0.59,0.18-1.05,0.83-1.19c0.28-0.06,0.75-0.05,0.86,0.22c0.15,0.35-0.32,1.4-0.4,1.77
				c-0.11,0.48-0.2,0.95-0.29,1.43c-0.34,1.88-0.52,3.79-0.88,5.66c-0.34,1.82-0.8,3.62-1.18,5.43c-0.19,0.92-0.47,1.84-0.55,2.77
				c-0.07,0.83,0.05,1.66,0.01,2.49c-0.01,0.21,0.28,0.22,0.35,0.05c0.18-0.47,0.37-0.97,0.62-1.41c0.33-0.59,0.55-0.56,1.22-0.53
				c-0.05-0.09-0.1-0.18-0.15-0.27c-0.39,0.64-0.71,1.32-1.05,2c-0.18,0.37-0.36,0.74-0.56,1.1c-0.05,0.09-0.13,0.3-0.21,0.36
				c-0.12,0.24-0.36,0.23-0.7-0.04c-0.48,0.13-0.71,0.03-0.67-0.31c-0.18-0.38-0.05-1.16-0.03-1.57c0.03-0.64,0.11-1.28,0.2-1.92
				c0.17-1.12,0.44-2.22,0.68-3.32c0.97-4.35,1.57-8.77,2.15-13.19C21.39,25.24,21.04,25.24,21.01,25.46L21.01,25.46z"/>
		</g>
	</g>
	<g>
		<g>
			<path d="M19.55,23.99c-0.81-0.17-0.81,0.9-0.13,1.16c0.73,0.28,1.75,0.18,2.51,0.24c1.03,0.08,2.07,0.15,3.1,0.23
				c1.9,0.14,3.83,0.32,5.72,0.02c1.77-0.28,3.45-1,5.09-1.71c-0.09-0.04-0.17-0.07-0.26-0.11c0.17,0.61-0.08,1.25-0.18,1.86
				c-0.01,0.06-0.03,0.17-0.06,0.22c-0.05,0.08,0.11-0.13-0.01-0.01c-0.17,0.17-0.48,0.29-0.69,0.4c-1.81,0.99-4.06,1.04-6.08,1.02
				c-2.13-0.02-4.29-0.21-6.41-0.5c-0.85-0.12-2.73-0.25-3.25-1.02c-0.33-0.48-0.03-1.42,0.02-1.99c-0.09,0.05-0.18,0.1-0.27,0.15
				c0.24,0.18,0.51,0.17,0.74,0.35c0.18,0.14,0.36-0.17,0.18-0.31c-0.24-0.18-0.51-0.17-0.74-0.35c-0.12-0.09-0.25,0.04-0.27,0.15
				c-0.06,0.57-0.35,1.52-0.14,2.07c0.26,0.66,1.53,0.87,2.12,1.01c2.55,0.62,5.39,0.76,8.01,0.78c2.26,0.02,4.61-0.1,6.6-1.26
				c0.43-0.25,0.5-0.29,0.61-0.77c0.14-0.6,0.31-1.31,0.15-1.91c-0.03-0.12-0.16-0.15-0.26-0.11c-2.57,1.12-5.02,1.9-7.86,1.82
				c-1.3-0.04-2.61-0.16-3.91-0.26c-0.65-0.05-1.31-0.1-1.96-0.15c-0.38-0.03-0.76-0.06-1.14-0.09c-0.16-0.01-0.33-0.02-0.49-0.04
				c-0.4,0.04-0.68-0.15-0.85-0.59C19.68,24.38,19.78,24.04,19.55,23.99L19.55,23.99z"/>
		</g>
	</g>
	<g>
		<g>
			<g>
				<path d="M23.08,20.83c-0.23-0.46-0.46-0.91-0.69-1.37c-0.03-0.06-0.13-0.11-0.2-0.08c-0.66,0.27-1.24,0.36-1.68,0.98
					c-0.47,0.66-0.55,1.51-0.66,2.29c-0.24,1.8-0.56,3.6-0.88,5.39c-0.24,1.33-0.53,2.66-0.76,4c-0.34,1.94-0.42,3.95-0.62,5.9
					c-0.06,0.62-0.12,1.25-0.19,1.87c-0.06,0.64-0.28,1.51-0.15,2.15c0.11,0.56,0.42,0.88,0.94,1.1c0.96,0.4,2.22,0.33,3.24,0.39
					c1.42,0.08,2.84,0.1,4.26,0.06c1.27-0.04,2.54-0.12,3.8-0.26c1.08-0.12,2.46-0.11,3.46-0.55c0.56-0.25,0.87-0.71,1.02-1.29
					c0.32-1.19,0.25-2.55,0.34-3.78c0.23-3.12,0.46-6.24,0.69-9.36c0.11-1.49,0.23-2.98,0.33-4.48c0.05-0.71,0.15-1.55-0.6-1.9
					c-0.21-0.1-0.39,0.21-0.18,0.31c0.27,0.12,0.43,0.91,0.46,1.16c0.02,0.2-0.03,0.45-0.05,0.65c-0.04,0.51-0.07,1.01-0.11,1.52
					c-0.08,1.15-0.17,2.29-0.25,3.44c-0.17,2.26-0.33,4.52-0.5,6.78c-0.08,1.09-0.16,2.18-0.24,3.28c-0.1,1.32,0.09,2.84-1.38,3.43
					c-1.01,0.41-2.35,0.37-3.43,0.47c-1.12,0.11-2.24,0.18-3.36,0.21c-2.15,0.06-4.36,0.04-6.49-0.25
					c-2.06-0.27-1.53-2.18-1.39-3.57c0.12-1.17,0.23-2.34,0.35-3.5c0.25-2.48,0.62-4.83,1.08-7.27c0.3-1.62,0.59-3.23,0.83-4.86
					c0.11-0.74,0.15-1.51,0.35-2.22c0.18-0.66,0.63-1.52,1.42-1.59c0.56-0.05,0.72,0.67,0.94,1.12
					C22.88,21.22,23.18,21.04,23.08,20.83L23.08,20.83z"/>
			</g>
		</g>
		<g>
			<g>
				<path d="M14.79,20.06c0.7,1.38,1.04,2.92,1.82,4.26c0.38,0.65,0.83,1.26,1.28,1.86c0.33,0.44,0.77,0.96,1.38,0.79
					c0.09-0.03,0.15-0.12,0.12-0.22c-0.02-0.09-0.04-0.18-0.07-0.26c-0.06-0.22-0.4-0.13-0.34,0.09c0.02,0.09,0.04,0.18,0.07,0.26
					c0.04-0.07,0.08-0.15,0.12-0.22c-0.63,0.18-1.19-0.9-1.49-1.32c-0.39-0.55-0.76-1.11-1.06-1.72c-0.59-1.21-0.92-2.52-1.53-3.72
					C15,19.68,14.69,19.86,14.79,20.06L14.79,20.06z"/>
			</g>
		</g>
		<g>
			<g>
				<path d="M19.15,17.75c-1.51,0.75-1.63,2.79-0.73,4.06c1.28,1.81,3.95,2.25,5.99,2.48c2.69,0.31,5.44,0.05,8.02-0.74
					c1.86-0.57,4.82-1.5,5.57-3.53c0.3-0.81,0.21-1.87-0.55-2.39c-0.66-0.46-1.59-0.38-2.09,0.26c-0.14,0.18,0.11,0.43,0.25,0.25
					c0.43-0.55,1.28-0.59,1.79-0.1c0.64,0.61,0.44,1.7,0.01,2.35c-0.62,0.95-1.81,1.49-2.82,1.95c-2.22,1.01-4.63,1.59-7.07,1.7
					c-2.18,0.1-4.54-0.1-6.6-0.89c-1.09-0.42-2.26-1.14-2.62-2.33c-0.32-1.05-0.03-2.27,1.01-2.78
					C19.53,17.95,19.35,17.65,19.15,17.75L19.15,17.75z"/>
			</g>
		</g>
		<g>
			<g>
				<path d="M26.79,10.23c-0.54,0.4-1.01,0.89-1.37,1.46c-0.36,0.57-0.69,1.27-0.43,1.94c0.43,1.13,1.8,1.66,2.93,1.48
					c1.17-0.19,2.05-1.18,2.22-2.34c0.08-0.56,0-1.18-0.3-1.67c-0.35-0.56-0.98-0.71-1.59-0.78c-0.67-0.08-1.44-0.13-1.89,0.47
					c-0.38,0.51-0.37,1.22-0.33,1.83c0.02,0.23,0.37,0.23,0.35,0c-0.03-0.46-0.05-0.96,0.13-1.38c0.24-0.55,0.78-0.64,1.32-0.6
					c0.52,0.04,1.16,0.07,1.55,0.46c0.35,0.35,0.46,0.93,0.44,1.41c-0.05,0.98-0.7,1.92-1.66,2.2c-0.93,0.27-2.06-0.03-2.64-0.84
					c-0.45-0.64-0.19-1.31,0.18-1.92c0.33-0.54,0.77-1.02,1.29-1.4C27.15,10.4,26.98,10.09,26.79,10.23L26.79,10.23z"/>
			</g>
		</g>
		<g>
			<g>
				<path d="M34.7,17.7c-3.78-4.46-10.94-4.53-14.62,0.12c-0.6,0.76-1.19,1.96-0.35,2.77c0.93,0.9,2.73,1.18,3.94,1.35
					c3.19,0.44,6.83,0.26,9.91-0.73c1.01-0.33,2.74-0.87,2.78-2.19c0.05-1.56-2.06-1.93-2.67-3.09c-0.11-0.2-0.41-0.02-0.31,0.18
					c0.48,0.9,1.42,1.16,2.1,1.85c1.61,1.61-0.93,2.58-2.14,2.96c-2.5,0.77-5.23,0.92-7.83,0.83c-1.3-0.05-2.61-0.2-3.86-0.61
					c-0.76-0.25-1.85-0.56-2-1.49c-0.12-0.72,0.64-1.58,1.08-2.05c1.61-1.75,3.93-2.85,6.31-2.96c2.84-0.12,5.58,1.16,7.4,3.31
					C34.6,18.13,34.85,17.88,34.7,17.7L34.7,17.7z"/>
			</g>
		</g>
		<g>
			<g>
				<path d="M19.09,18.65c-0.62-0.19-1.27-0.26-1.91-0.22c-0.57,0.04-1.23,0.14-1.71,0.46c-0.38,0.25-0.64,0.72-0.36,1.15
					c0.28,0.43,0.87,0.51,1.33,0.6c0.79,0.15,1.58,0.31,2.37,0.46c0.22,0.04,0.32-0.3,0.09-0.34c-0.74-0.14-1.48-0.29-2.22-0.43
					c-0.36-0.07-1.42-0.16-1.33-0.74c0.04-0.26,0.32-0.43,0.54-0.52c0.3-0.14,0.65-0.2,0.97-0.25c0.72-0.1,1.45-0.04,2.14,0.17
					C19.22,19.06,19.31,18.72,19.09,18.65L19.09,18.65z"/>
			</g>
		</g>
	</g>
</g>
</svg>
