<?xml version="1.0" encoding="utf-8"?>
<!-- Generator: Adobe Illustrator 26.2.1, SVG Export Plug-In . SVG Version: 6.00 Build 0)  -->
<svg version="1.1" id="Layer_1" xmlns="http://www.w3.org/2000/svg" xmlns:xlink="http://www.w3.org/1999/xlink" x="0px" y="0px"
	 viewBox="0 0 56.69 56.69" style="enable-background:new 0 0 56.69 56.69;" xml:space="preserve">
<g>
	<g>
		<g>
			<path d="M20.53,29.22c0.05,2.86-1.04,5.29-2.48,7.7c-0.54,0.9-1.35,1.87-1.6,2.9c-0.22,0.89,0.14,2,0.5,2.81
				c0.87,1.94,2.94,2.22,4.83,2.44c2.29,0.26,4.88,0.9,7.08-0.05c0.21-0.09,0.03-0.4-0.18-0.31c-2.11,0.92-4.71,0.26-6.9,0.01
				c-1.04-0.12-2.13-0.22-3.08-0.71c-1.08-0.56-1.54-1.59-1.81-2.72c-0.18-0.73-0.2-1.31,0.15-1.98c0.22-0.43,0.49-0.84,0.75-1.26
				c0.58-0.95,1.16-1.9,1.67-2.89c0.95-1.87,1.48-3.84,1.44-5.94C20.88,28.99,20.53,28.99,20.53,29.22L20.53,29.22z"/>
		</g>
	</g>
	<g>
		<g>
			<path d="M20.04,23.89c-1,0.6-3.46,1.19-2.77,2.9c0.69,1.69,3.55,1.83,5.04,2.03c1.08,0.14,2.16,0.27,3.25,0.31
				c1.28,0.04,2.55-0.09,3.82,0.09c2.23,0.31,4.26-0.41,6.37-1.1c0.22-0.07,0.12-0.41-0.09-0.34c-1.64,0.53-3.59,1.36-5.33,1.22
				c-0.86-0.07-1.68-0.24-2.55-0.24c-0.91,0-1.81,0.05-2.72,0c-1.78-0.1-3.73-0.25-5.45-0.77c-1.09-0.33-2.96-1.42-1.55-2.67
				c0.6-0.54,1.48-0.7,2.16-1.11C20.42,24.08,20.24,23.77,20.04,23.89L20.04,23.89z"/>
		</g>
	</g>
	<g>
		<g>
			<path d="M18.56,16.75c0.61,0.53,1.63,0.63,1.96,1.44c0.32,0.78,0.37,1.61,1.07,2.19c0.13,0.11,0.28,0.19,0.43,0.26
				c0.3,0.14,0.52,0.19,0.43,0.58c-0.08,0.37-0.2,0.61-0.14,1.01c0.14,0.87,0.82,1.47,1.49,1.98c-0.02-0.08-0.04-0.16-0.06-0.24
				c-0.21,0.31-0.71,0.3-0.65,0.78c0.03,0.23,0.21,0.37,0.35,0.53c0.31,0.34,0.47,0.65,0.38,1.13c-0.04,0.22,0.3,0.32,0.34,0.09
				c0.09-0.44,0.02-0.88-0.26-1.25c-0.19-0.24-0.53-0.5-0.24-0.79c0.13-0.13,0.27-0.16,0.38-0.32c0.06-0.09,0.01-0.19-0.06-0.24
				c-0.43-0.32-0.87-0.68-1.13-1.17c-0.12-0.24-0.21-0.5-0.21-0.78c0-0.28,0.13-0.48,0.2-0.73c0.21-0.75-0.72-0.81-1.13-1.21
				c-0.67-0.65-0.54-1.62-1.07-2.33c-0.46-0.61-1.29-0.7-1.84-1.19C18.64,16.35,18.39,16.6,18.56,16.75L18.56,16.75z"/>
		</g>
	</g>
	<g>
		<g>
			<path d="M23.48,25.17c0.31,0.33,0.73,0.46,1.16,0.53c0.56,0.09,1.12,0.15,1.68,0.22c1.08,0.14,2.2,0.25,3.24-0.18
				c-0.07-0.07-0.15-0.15-0.22-0.22c0.04-0.02,0.07-0.04,0.11-0.06c-0.22-0.05-0.32,0.29-0.09,0.34c0.16,0.04,0.28-0.03,0.33-0.19
				c0.04-0.12-0.09-0.27-0.22-0.22c-0.94,0.39-1.95,0.31-2.94,0.19c-0.51-0.06-1.01-0.13-1.52-0.19c-0.46-0.06-0.95-0.12-1.28-0.48
				C23.57,24.75,23.32,25,23.48,25.17L23.48,25.17z"/>
		</g>
	</g>
	<g>
		<g>
			<path d="M18.84,34.13c-1.13,2.11-2.36,4.45-1.78,6.92c0.58,2.47,2.92,3.42,5.16,3.99c2.67,0.67,5.65,0.96,8.39,0.66
				c1.2-0.13,2.44-0.41,3.51-0.99c0.42-0.23,0.81-0.52,1.12-0.9c0.44-0.55,0.62-1.23,1.22-1.66c0.18-0.13,0.01-0.44-0.18-0.31
				c-0.69,0.5-0.9,1.32-1.47,1.92c-0.85,0.89-2.24,1.26-3.41,1.47c-2.48,0.44-5.2,0.2-7.67-0.23c-2.31-0.41-5.37-1.11-6.2-3.62
				c-0.82-2.48,0.48-4.93,1.63-7.07C19.26,34.11,18.95,33.93,18.84,34.13L18.84,34.13z"/>
		</g>
	</g>
	<g>
		<g>
			<path d="M33.29,32.95c0.02,1.23,0.05,2.52,0.6,3.65c0.29,0.59,0.76,1.08,0.95,1.72c0.2,0.68,0.19,1.41,0.38,2.11
				c0.09,0.33,0.2,0.66,0.26,1c0.09,0.52-0.06,0.85-0.53,1.11c-0.62,0.35-1.2,0.53-1.9,0.65c-0.33,0.05-0.64,0.12-0.95,0.24
				c-0.32,0.12-0.62,0.35-0.97,0.38c-0.5,0.05-0.86,0.13-1.2,0.53c0.1,0.04,0.2,0.08,0.3,0.13c0-0.06-0.01-0.11-0.01-0.17
				c-0.01-0.23-0.37-0.23-0.35,0c0,0.06,0.01,0.11,0.01,0.17c0.01,0.14,0.2,0.25,0.3,0.13c0.32-0.38,0.64-0.36,1.09-0.43
				c0.23-0.03,0.39-0.14,0.6-0.25c0.71-0.36,1.47-0.34,2.2-0.58c0.5-0.16,1.12-0.42,1.51-0.78c0.37-0.33,0.32-0.77,0.23-1.22
				c-0.15-0.8-0.41-1.55-0.51-2.37c-0.08-0.63-0.24-1.15-0.59-1.69c-0.4-0.61-0.72-1.19-0.88-1.92c-0.17-0.79-0.19-1.61-0.2-2.41
				C33.64,32.72,33.28,32.72,33.29,32.95L33.29,32.95z"/>
		</g>
	</g>
	<g>
		<g>
			<path d="M18.44,41.91c0.59,0.42,1.26,0.66,1.93,0.91c0.75,0.27,1.5,0.56,2.26,0.81c1.52,0.5,3.1,0.75,4.71,0.72
				c0.23,0,0.23-0.36,0-0.35c-1.57,0.02-3.12-0.22-4.61-0.71c-0.71-0.23-1.4-0.5-2.1-0.75c-0.7-0.25-1.4-0.49-2.01-0.93
				C18.43,41.47,18.25,41.78,18.44,41.91L18.44,41.91z"/>
		</g>
	</g>
	<g>
		<g>
			<path d="M19.91,32.09c-0.27,2.06-1.31,3.86-2.17,5.71c-0.35,0.75-0.73,1.54-0.92,2.35c-0.18,0.78,0.28,1.33,0.81,1.85
				c1.3,1.29,3.09,1.9,4.83,2.32c2.08,0.5,4.23,0.93,6.37,0.65c0.14-0.02,0.25-0.18,0.13-0.3c-0.32-0.31-0.67-0.52-1.1-0.65
				c-0.22-0.07-0.31,0.27-0.09,0.34c0.37,0.11,0.66,0.29,0.94,0.56c0.04-0.1,0.08-0.2,0.13-0.3c-2.01,0.26-3.99-0.11-5.94-0.56
				c-1.79-0.42-3.67-0.97-5.01-2.3c-0.41-0.41-0.86-0.89-0.72-1.51c0.09-0.39,0.25-0.78,0.4-1.16c0.33-0.83,0.73-1.63,1.12-2.43
				c0.71-1.46,1.37-2.94,1.58-4.56C20.3,31.87,19.94,31.87,19.91,32.09L19.91,32.09z"/>
		</g>
	</g>
	<g>
		<g>
			<path d="M34.15,38.91c0.43,0.3,0.89,0.61,1.27,0.98c0.66,0.66,0,1.3-0.49,1.78c-0.74,0.74-1.53,1.49-2.48,1.95
				c-0.5,0.24-1.05,0.24-1.58,0.37c-0.53,0.13-1.05,0.31-1.58,0.42c-1.16,0.24-2.43,0.37-3.62,0.33c-0.23-0.01-0.23,0.35,0,0.35
				c1.37,0.04,2.86-0.11,4.18-0.45c0.71-0.18,1.39-0.34,2.1-0.48c0.57-0.11,1.09-0.44,1.56-0.78c0.48-0.35,0.93-0.74,1.36-1.16
				c0.39-0.38,0.88-0.78,1.1-1.29c0.45-1.09-0.9-1.81-1.64-2.33C34.14,38.47,33.96,38.78,34.15,38.91L34.15,38.91z"/>
		</g>
	</g>
	<g>
		<g>
			<path d="M27.53,41.42c-0.63-0.06-1.25-0.03-1.87,0.07c-0.51,0.08-1.17,0.18-1.58,0.51c-0.37,0.3-0.32,0.8,0.06,1.07
				c0.44,0.32,1.12,0.38,1.65,0.42c0.63,0.04,1.27-0.02,1.89-0.13c0.31-0.06,0.61-0.13,0.91-0.21c0.24-0.06,0.54-0.11,0.73-0.29
				c0.36-0.34,0.07-0.81-0.28-1c-0.46-0.25-0.99-0.38-1.51-0.4c-0.6-0.03-1.21,0.09-1.76,0.35c-0.2,0.09-0.46,0.23-0.47,0.48
				c0,0.23,0.19,0.36,0.4,0.33c0.22-0.04,0.13-0.38-0.09-0.34c-0.02,0-0.04,0.01-0.06,0.01c0.05,0.01,0.09,0.01,0.14,0.02
				c-0.04-0.02,0.17-0.15,0.18-0.15c0.09-0.04,0.18-0.08,0.27-0.12c0.19-0.07,0.38-0.13,0.58-0.16c0.37-0.07,0.75-0.08,1.12-0.02
				c0.36,0.05,0.77,0.16,1.08,0.36c0.2,0.13,0.28,0.37,0.01,0.47c-0.2,0.08-0.42,0.13-0.64,0.18c-0.82,0.21-1.67,0.33-2.52,0.27
				c-0.42-0.03-0.86-0.09-1.26-0.25c-0.21-0.08-0.48-0.3-0.3-0.54c0.1-0.13,0.3-0.2,0.45-0.25c0.92-0.31,1.89-0.4,2.85-0.32
				C27.76,41.79,27.76,41.43,27.53,41.42L27.53,41.42z"/>
		</g>
	</g>
	<g>
		<g>
			<path d="M21.63,42.47c0.57-1.08,2.4-1.31,3.49-1.44c1.28-0.16,2.58-0.1,3.84,0.17c0.61,0.13,1.2,0.31,1.78,0.54
				c0.23,0.09,0.86,0.29,0.97,0.53c-0.05,0.21-0.1,0.42-0.14,0.63c-0.09,0.04-0.18,0.08-0.27,0.11c-0.15,0.06-0.31,0.11-0.47,0.16
				c-0.63,0.2-1.27,0.37-1.92,0.51c-0.66,0.15-1.56,0.48-2.21,0.17c-0.2-0.1-0.38,0.21-0.18,0.31c0.69,0.33,1.48,0.08,2.19-0.07
				c0.91-0.19,1.82-0.41,2.69-0.74c0.44-0.16,0.98-0.5,0.76-1.06c-0.23-0.58-1.13-0.84-1.67-1.03c-1.65-0.59-3.44-0.8-5.18-0.62
				c-0.82,0.09-1.63,0.25-2.41,0.51c-0.64,0.21-1.25,0.51-1.57,1.13C21.21,42.49,21.52,42.67,21.63,42.47L21.63,42.47z"/>
		</g>
	</g>
	<g>
		<g>
			<path d="M18.12,40.89c-0.16-1.69,2.06-2.27,3.34-2.6c1.3-0.34,2.65-0.47,4-0.47c2.76,0.01,5.47,0.62,8.14,1.3
				c-0.04-0.09-0.07-0.17-0.11-0.26c-0.08,0.14-0.08,0.19-0.06,0.35c0.06-0.07,0.11-0.15,0.17-0.22c-0.12-0.01-0.25-0.01-0.37-0.02
				c-0.23-0.01-0.23,0.34,0,0.35c0.12,0.01,0.25,0.01,0.37,0.02c0.13,0.01,0.19-0.12,0.17-0.22c0.01-0.02,0.01-0.05,0.02-0.07
				c0.05-0.1,0.01-0.23-0.11-0.26c-3.14-0.8-6.38-1.51-9.64-1.26c-1.51,0.11-3.01,0.42-4.41,1.01c-1.01,0.43-1.99,1.15-1.87,2.37
				C17.78,41.12,18.14,41.12,18.12,40.89L18.12,40.89z"/>
		</g>
	</g>
	<g>
		<g>
			<path d="M36.12,25.85c0.42,0.65,1.06,1.08,1.57,1.65c0.54,0.6,0.87,1.38,0.95,2.18c0.02,0.22,0.38,0.23,0.35,0
				c-0.08-0.82-0.38-1.59-0.89-2.23c-0.51-0.64-1.23-1.09-1.68-1.78C36.3,25.48,36,25.66,36.12,25.85L36.12,25.85z"/>
		</g>
	</g>
	<g>
		<g>
			<path d="M36.04,27.01c0.87,0.33,1.62,0.9,2.13,1.68c0.53,0.81,0.67,1.74,0.84,2.68c0.17,0.93,0.52,1.79,0.76,2.69
				c0.32,1.2,0.15,2.14-0.49,3.19c-0.5,0.82-1.04,1.8-1.86,2.35c-0.17,0.11-0.44,0.32-0.65,0.29c-0.47-0.07-0.58-0.42-0.67-0.8
				c-0.12-0.49-0.23-0.98-0.36-1.47c-0.49-1.92-1.5-3.76-1.75-5.74c-0.07,0.06-0.15,0.11-0.22,0.17c0.07,0.02,0.14,0.05,0.21,0.07
				c0.22,0.07,0.31-0.27,0.09-0.34c-0.07-0.02-0.14-0.05-0.21-0.07c-0.1-0.03-0.24,0.06-0.22,0.17c0.24,1.94,1.2,3.71,1.7,5.59
				c0.13,0.49,0.24,0.98,0.36,1.47c0.08,0.33,0.1,0.8,0.31,1.08c0.33,0.45,1.02,0.21,1.43-0.01c0.66-0.37,1.13-1.02,1.55-1.64
				c0.51-0.75,1.12-1.58,1.28-2.5c0.15-0.87-0.09-1.74-0.36-2.57c-0.31-0.95-0.51-1.88-0.71-2.85c-0.35-1.75-1.38-3.14-3.07-3.78
				C35.92,26.59,35.83,26.93,36.04,27.01L36.04,27.01z"/>
		</g>
	</g>
	<g>
		<g>
			<path d="M36.13,37.1c0.32,0.44,0.79,0.92,1.37,0.61c0.56-0.3,0.91-1.02,1.1-1.6c0.23-0.69,0.28-1.43,0.25-2.15
				c-0.02-0.43-0.06-0.85-0.11-1.28c-0.02-0.2-0.05-0.41-0.07-0.61c-0.02-0.14,0.01-0.51-0.1-0.57c0.03-0.11,0.06-0.22,0.09-0.33
				c-0.04-0.01-0.08-0.01-0.12-0.02c-0.23-0.03-0.22,0.33,0,0.35c0.04,0.01,0.08,0.01,0.12,0.02c0.18,0.02,0.23-0.25,0.09-0.33
				c-0.16-0.09-0.34-0.06-0.44,0.11c-0.13,0.24-0.01,0.64,0.02,0.89c0.09,0.79,0.2,1.57,0.17,2.37c-0.02,0.67-0.15,1.36-0.46,1.97
				c-0.15,0.29-0.36,0.64-0.64,0.83c-0.42,0.27-0.74-0.12-0.97-0.43C36.31,36.73,36,36.91,36.13,37.1L36.13,37.1z"/>
		</g>
	</g>
	<g>
		<g>
			<path d="M27.9,30.38c1.03,0.15,2.08,0.07,3.06-0.31c0.98-0.38,1.78-1.12,2.78-1.44c0.1-0.03,0.44-0.16,0.51-0.11
				c0.11,0.07,0,0.41-0.01,0.48c-0.04,0.22-0.1,0.43-0.13,0.66c-0.07,0.55-0.01,1.1,0.12,1.64c0.26,1.16,0.64,2.31,1.03,3.43
				c0.36,1.04,0.69,2.15,1.2,3.13c0.33,0.64,0.98,0.96,1.62,0.51c0.38-0.27,0.58-0.71,0.78-1.11c0.24-0.46,0.56-0.95,0.7-1.46
				c0.11-0.42-0.02-0.84-0.13-1.24c-0.18-0.66-0.36-1.32-0.53-1.97c-0.19-0.69-0.38-1.39-0.56-2.08c-0.15-0.56-0.26-1.15-0.51-1.67
				c-0.48-0.99-1.53-1.34-2.56-1.44c-0.23-0.02-0.23,0.33,0,0.35c1.21,0.11,2.1,0.61,2.46,1.82c0.3,1.03,0.56,2.08,0.85,3.11
				c0.14,0.51,0.28,1.02,0.42,1.53c0.16,0.61,0.4,1.19,0.13,1.8c-0.3,0.67-1.26,3.03-2.18,1.91c-0.31-0.37-0.45-0.94-0.62-1.38
				c-0.19-0.5-0.38-1-0.56-1.51c-0.34-0.98-0.66-1.96-0.94-2.96c-0.13-0.47-0.27-0.94-0.33-1.42c-0.08-0.62,0.03-1.16,0.18-1.75
				c0.11-0.47-0.04-0.78-0.56-0.71c-0.95,0.11-1.76,0.8-2.57,1.24c-1.08,0.59-2.3,0.8-3.51,0.62C27.77,30,27.67,30.34,27.9,30.38
				L27.9,30.38z"/>
		</g>
	</g>
	<g>
		<g>
			<path d="M19.38,28.62c0.6,0.24-0.09,2.46,0.04,2.98c0.17,0.7,0.77,0.59,1.3,0.86c1.79,0.9,3.93,1.25,5.93,1.37
				c1.86,0.11,3.94,0.1,5.68-0.65c0.64-0.28,1.52-0.74,1.79-1.44c0.31-0.79,0.06-1.98,0.04-2.81c-0.01-0.23-0.36-0.23-0.35,0
				c0.02,0.86,0.34,2.4-0.29,3.06c-0.59,0.62-1.5,0.98-2.31,1.18c-1.8,0.45-3.8,0.41-5.63,0.2c-1.72-0.2-3.54-0.57-5.04-1.45
				c-0.09-0.01-0.18-0.02-0.26-0.03c-0.18-0.2-0.36-0.39-0.54-0.59c-0.05-0.16,0.06-0.56,0.08-0.73c0.05-0.41,0.09-0.83,0.1-1.24
				c0.01-0.45,0.01-0.88-0.45-1.07C19.26,28.19,19.17,28.53,19.38,28.62L19.38,28.62z"/>
		</g>
	</g>
	<g>
		<g>
			<path d="M18.54,27.5c-0.15,0.33-0.33,0.74-0.09,1.08c0.25,0.35,0.48,0.25,0.8,0.14c0.38-0.13-0.48-0.44,0.68-0.11
				c0.08,0.02,0.14,0.11,0.22,0.13c0.33,0.09,0.66,0.17,1,0.24c0.78,0.18,1.53,0.47,2.3,0.69c1.42,0.41,2.91,0.5,4.38,0.6
				c1.59,0.1,3.05-0.08,4.6-0.37c0.19-0.04,0.15-0.37-0.05-0.35c-0.43,0.05-0.84,0.13-1.25,0.26c-0.22,0.07-0.12,0.41,0.09,0.34
				c0.39-0.12,0.76-0.2,1.16-0.24c-0.02-0.12-0.03-0.23-0.05-0.35c-2.58,0.49-5.21,0.52-7.8,0.02c-1.16-0.23-2.25-0.72-3.41-0.96
				c-0.38-0.08-0.66-0.13-1.02-0.31c-0.13-0.06-0.26-0.18-0.41-0.2c-0.11-0.02-0.23-0.01-0.33,0.04c-0.05,0.03-0.11,0.07-0.15,0.11
				c-0.22,0.29-0.34,0.1-0.37-0.57C18.94,27.48,18.63,27.3,18.54,27.5L18.54,27.5z"/>
		</g>
	</g>
	<g>
		<g>
			<path d="M18.93,23.98c-1.22,0.93-0.74,2.46,0.52,3.03c2.03,0.93,4.37,1.31,6.59,1.41c2.33,0.1,4.73-0.11,7.01-0.65
				c0.7-0.17,1.67-0.4,2.12-1.03c0.22-0.31,0.37-0.93-0.15-0.98c-0.23-0.02-0.23,0.33,0,0.35c-0.07,0.38-0.28,0.65-0.61,0.8
				c-0.22,0.12-0.45,0.22-0.68,0.3c-0.33,0.12-0.68,0.2-1.03,0.27c-0.74,0.16-1.49,0.28-2.25,0.38c-1.46,0.19-2.94,0.26-4.41,0.2
				c-1.54-0.07-3.08-0.3-4.56-0.72c-0.69-0.2-1.44-0.4-2.07-0.74c-0.9-0.49-1.2-1.64-0.3-2.32C19.29,24.15,19.11,23.84,18.93,23.98
				L18.93,23.98z"/>
		</g>
	</g>
	<g>
		<g>
			<path d="M22.8,23.53c-1.37,0.22-2.77,0.55-4.03,1.12c-0.63,0.29-1.19,0.73-1.14,1.49c0.07,0.96,0.94,1.49,1.74,1.82
				c1.31,0.54,2.69,0.95,4.09,1.19c2.65,0.45,5.49,0.16,8.14-0.19c1.61-0.21,4.86-0.69,4.79-2.97c-0.03-0.95-0.93-1.5-1.71-1.84
				c-1.33-0.59-2.81-0.69-4.24-0.79c-0.23-0.02-0.23,0.34,0,0.35c1.2,0.08,2.43,0.17,3.58,0.56c0.6,0.2,1.37,0.51,1.75,1.05
				c0.6,0.86,0,1.82-0.76,2.32c-0.99,0.65-2.3,0.81-3.45,0.96c-1.29,0.17-2.6,0.26-3.9,0.34c-2.53,0.15-4.91-0.16-7.3-1
				c-0.53-0.19-1.11-0.36-1.58-0.68c-0.37-0.22-0.62-0.54-0.75-0.95c0.15-0.37,0.3-0.74,0.46-1.11c0.21-0.21,0.66-0.32,0.93-0.43
				c1.13-0.43,2.31-0.72,3.5-0.91C23.12,23.84,23.02,23.49,22.8,23.53L22.8,23.53z"/>
		</g>
	</g>
	<g>
		<g>
			<path d="M21.2,20.05c0.25,0.67,1.14,0.85,1.76,0.94c0.75,0.12,1.55,0.13,2.23,0.5c0.2,0.11,0.38-0.2,0.18-0.31
				c-0.61-0.33-1.3-0.41-1.98-0.49c-0.34-0.04-0.68-0.09-1.01-0.19c-0.3-0.09-0.71-0.23-0.83-0.55
				C21.46,19.74,21.12,19.83,21.2,20.05L21.2,20.05z"/>
		</g>
	</g>
	<g>
		<g>
			<path d="M22.36,23.33c0.48,0.53,1.11,0.91,1.81,1.09c0.78,0.19,1.59,0.14,2.39,0.08c0.23-0.02,0.23-0.37,0-0.35
				c-0.74,0.06-1.49,0.12-2.22-0.05c-0.67-0.15-1.26-0.5-1.72-1.01C22.46,22.91,22.21,23.16,22.36,23.33L22.36,23.33z"/>
		</g>
	</g>
	<g>
		<g>
			<path d="M20.05,17.32c1.26,1.81,3.8,1.96,5.81,2.08c2.25,0.13,4.59,0,6.62-1.08c0.2-0.11,0.02-0.41-0.18-0.31
				c-1.83,0.98-3.93,1.14-5.97,1.06c-1.97-0.08-4.72-0.13-5.97-1.92C20.22,16.96,19.92,17.13,20.05,17.32L20.05,17.32z"/>
		</g>
	</g>
	<g>
		<g>
			<path d="M31.36,20.3c0.06,0.39-0.13,0.81-0.44,1.06c-0.18,0.15-0.4,0.21-0.62,0.27c-0.27,0.08-0.54,0.2-0.8,0.32
				c-0.08,0.04-0.1,0.15-0.07,0.22c0.04,0.08,0.12,0.12,0.21,0.1c0.12-0.02,0.21-0.14,0.2-0.27c-0.01-0.1-0.08-0.18-0.18-0.18
				c-0.09,0-0.18,0.08-0.18,0.18c0.02-0.02,0.04-0.05,0.06-0.07c0.05,0.11,0.09,0.22,0.14,0.32c0.28-0.13,0.56-0.23,0.85-0.32
				c0.26-0.08,0.51-0.19,0.71-0.38c0.37-0.34,0.53-0.85,0.46-1.34c-0.01-0.09-0.13-0.15-0.22-0.12
				C31.38,20.11,31.34,20.2,31.36,20.3L31.36,20.3z"/>
		</g>
	</g>
	<g>
		<g>
			<path d="M22.45,20.79c0.28,0.61,1.01,0.87,1.6,1.07c0.37,0.12,0.74,0.21,1.12,0.28c0.39,0.07,0.8,0.08,1.18,0.2
				c0.22,0.07,0.31-0.27,0.09-0.34c-0.35-0.11-0.71-0.13-1.07-0.18c-0.35-0.05-0.69-0.13-1.03-0.23c-0.56-0.17-1.33-0.38-1.59-0.97
				C22.66,20.41,22.36,20.59,22.45,20.79L22.45,20.79z"/>
		</g>
	</g>
	<g>
		<g>
			<path d="M18.41,15.43c0.05,0.87,0.78,1.36,1.38,1.88c0.35,0.3,0.33,0.46,0.38,0.81c0.04,0.22,0.12,0.41,0.23,0.6
				c0.26,0.44,0.59,0.85,0.91,1.24c0.19,0.23,0.4,0.43,0.48,0.73c0.08,0.25,0.02,0.51,0.06,0.76c0.07,0.47,0.33,0.95,0.54,1.38
				c0.12,0.24,0.26,0.47,0.42,0.69c0.23,0.32,0.35,0.58,0.14,0.99c-0.06,0.12-0.18,0.14-0.22,0.3c-0.05,0.19,0.11,0.49-0.08,0.64
				c-0.18,0.14,0.07,0.39,0.25,0.25c0.1-0.08,0.15-0.17,0.18-0.29c0.02-0.08,0-0.16,0.01-0.24c0.02-0.21,0.04-0.26,0.17-0.44
				c0.19-0.27,0.3-0.48,0.19-0.82c-0.16-0.5-0.6-0.93-0.83-1.41c-0.13-0.28-0.28-0.57-0.36-0.87c-0.09-0.33-0.02-0.63-0.08-0.95
				c-0.08-0.41-0.43-0.72-0.68-1.03c-0.43-0.53-0.92-1.09-0.99-1.79c-0.04-0.39-0.16-0.56-0.47-0.8c-0.52-0.39-1.24-0.91-1.28-1.63
				C18.75,15.2,18.39,15.2,18.41,15.43L18.41,15.43z"/>
		</g>
	</g>
	<g>
		<g>
			<path d="M23.82,24.19c0.03,0.59,0.73,0.59,1.19,0.66c0.67,0.09,1.34,0.15,2.01,0.19c0.54,0.03,1.11,0.06,1.64-0.06
				c0.28-0.06,1.02-0.3,1-0.68c0-0.07-0.05-0.15-0.13-0.17c-0.08-0.02-0.14,0-0.2,0.06c-0.06,0.05-0.07,0.15-0.03,0.21
				c0,0,0,0.01,0.01,0.01c0.12,0.19,0.43,0.02,0.31-0.18c0,0,0-0.01-0.01-0.01c-0.01,0.07-0.02,0.14-0.03,0.21
				c0,0,0.01-0.01,0.01-0.01c-0.06,0.02-0.11,0.03-0.17,0.05c0.01,0,0.01,0,0.02,0c-0.04-0.06-0.09-0.11-0.13-0.17
				c0,0.06-0.39,0.23-0.48,0.26c-0.19,0.07-0.38,0.1-0.58,0.12c-0.41,0.04-0.83,0.02-1.24,0c-0.48-0.02-0.96-0.06-1.44-0.11
				c-0.26-0.03-0.52-0.06-0.78-0.1c-0.18-0.03-0.62-0.04-0.63-0.27C24.16,23.96,23.81,23.96,23.82,24.19L23.82,24.19z"/>
		</g>
	</g>
	<g>
		<g>
			<path d="M34.94,15.25c-0.26,0.56-0.61,1.07-1.07,1.49c-0.35,0.32-0.81,0.56-0.98,1.03c-0.1,0.29-0.09,0.6-0.16,0.89
				c-0.09,0.39-0.24,0.75-0.5,1.05c-0.28,0.34-0.65,0.63-0.72,1.09c-0.04,0.25,0.04,0.49-0.01,0.74c-0.05,0.28-0.23,0.5-0.41,0.71
				c-0.26,0.3-0.55,0.59-0.7,0.97c-0.12,0.3-0.22,0.57-0.38,0.85c-0.07,0.12-0.13,0.25-0.12,0.39c0.05,0.51,0.6,0.31,0.86,0.58
				c0.16,0.16,0.41-0.09,0.25-0.25c-0.1-0.1-0.19-0.15-0.33-0.19c-0.06-0.02-0.27-0.02-0.31-0.07c-0.12-0.11,0-0.31,0.04-0.41
				c0.21-0.44,0.33-0.92,0.65-1.3c0.24-0.29,0.53-0.55,0.7-0.9c0.21-0.44-0.02-0.95,0.22-1.36c0.25-0.43,0.66-0.7,0.88-1.16
				c0.23-0.48,0.21-0.98,0.36-1.47c0.17-0.53,0.87-0.87,1.23-1.28c0.33-0.37,0.6-0.79,0.81-1.24
				C35.34,15.22,35.03,15.04,34.94,15.25L34.94,15.25z"/>
		</g>
	</g>
	<g>
		<g>
			<path d="M39.36,16.3c0.11-0.95-0.63-1.67-1.38-2.12c-0.85-0.5-1.81-0.94-2.81-0.97c-0.23-0.01-0.23,0.35,0,0.35
				c0.9,0.03,1.74,0.42,2.52,0.85c0.69,0.39,1.42,0.99,1.32,1.88C38.98,16.53,39.33,16.52,39.36,16.3L39.36,16.3z"/>
		</g>
	</g>
	<g>
		<g>
			<path d="M31.26,22.98c1.4-0.34,2.73-0.88,4.01-1.53c1.24-0.63,2.4-1.35,3.26-2.46c0.76-0.98,1.26-2.16,0.47-3.29
				c-0.79-1.12-2.1-1.19-3.35-1.24c-0.23-0.01-0.23,0.35,0,0.35c1.21,0.05,2.57,0.11,3.21,1.33c0.62,1.19-0.34,2.42-1.15,3.24
				c-0.85,0.86-1.93,1.42-3.01,1.95c-1.13,0.55-2.31,0.99-3.53,1.29C30.95,22.69,31.04,23.03,31.26,22.98L31.26,22.98z"/>
		</g>
	</g>
	<g>
		<g>
			<path d="M35.59,15.42c0.93-0.03,2.68,0.22,2.71,1.41c0.03,1.05-0.89,1.95-1.57,2.66c-0.77,0.8-1.7,1.28-2.72,1.69
				c-0.5,0.2-1.01,0.39-1.52,0.58c-0.27,0.1-0.53,0.2-0.8,0.3c-0.11,0.04-0.22,0.08-0.33,0.12c-0.07,0.03-0.33,0.12-0.31,0.12
				c0.04,0.06,0.09,0.11,0.13,0.17c0-0.01,0-0.02,0-0.03c-0.06,0.06-0.12,0.12-0.18,0.18c0.01,0,0.02,0,0.02,0
				c0.22-0.03,0.23-0.38,0-0.35c-0.01,0-0.02,0-0.02,0c-0.1,0.01-0.17,0.07-0.18,0.18c0,0.01,0,0.02,0,0.03
				c0,0.08,0.06,0.15,0.13,0.17c0.21,0.07,0.5-0.13,0.7-0.2c0.31-0.12,0.62-0.23,0.93-0.35c0.63-0.24,1.27-0.47,1.89-0.73
				c0.58-0.25,1.16-0.51,1.67-0.88c0.49-0.36,0.91-0.81,1.31-1.26c0.68-0.76,1.5-1.81,1.11-2.91c-0.18-0.51-0.69-0.76-1.16-0.95
				c-0.58-0.23-1.2-0.33-1.82-0.3C35.36,15.07,35.36,15.43,35.59,15.42L35.59,15.42z"/>
		</g>
	</g>
	<g>
		<g>
			<path d="M31.88,21.13c0.92-0.03,1.79-0.29,2.63-0.66c0.82-0.36,1.64-0.78,2.34-1.33c0.65-0.5,1.19-1.17,1.39-1.98
				c0.12-0.49,0.21-1.71-0.56-1.72c-0.23,0-0.23,0.35,0,0.35c0.36,0,0.29,0.86,0.26,1.08c-0.06,0.35-0.19,0.68-0.38,0.98
				c-0.37,0.61-0.95,1.06-1.56,1.43c-1.24,0.76-2.66,1.43-4.13,1.48C31.65,20.78,31.65,21.14,31.88,21.13L31.88,21.13z"/>
		</g>
	</g>
	<g>
		<g>
			<path d="M19,13.94c-1.22,1.07,2.09,1.68,2.56,1.78c2,0.42,4.05,0.31,6.08,0.4c0.92,0.04,1.83,0.19,2.74,0.02
				c1-0.18,1.98-0.51,2.96-0.78c0.48-0.13,1.17-0.27,1.34-0.82c0.12-0.39-0.08-0.73-0.44-0.87c-0.21-0.08-0.31,0.26-0.09,0.34
				c0.15,0.52,0,0.81-0.43,0.87c-0.11,0.03-0.22,0.06-0.33,0.09c-0.27,0.08-0.55,0.15-0.82,0.22c-0.58,0.16-1.16,0.33-1.75,0.48
				c-1.25,0.3-2.49,0.1-3.76,0.06c-1.23-0.04-2.47-0.02-3.69-0.12c-0.67-0.06-1.33-0.15-1.98-0.31c-0.28-0.07-0.56-0.14-0.84-0.22
				c-0.14-0.04-1.78-0.48-1.29-0.91C19.42,14.04,19.17,13.79,19,13.94L19,13.94z"/>
		</g>
	</g>
	<g>
		<g>
			<path d="M34,12.99c-0.34,0.33-0.28,0.82-0.39,1.24c-0.11,0.43-0.38,0.81-0.75,1.05c0.06,0.1,0.12,0.2,0.18,0.31
				c0.03-0.02,0.06-0.04,0.09-0.07c0.08-0.06,0.11-0.15,0.06-0.24c-0.04-0.08-0.17-0.12-0.24-0.06c-0.03,0.02-0.06,0.04-0.09,0.07
				c-0.18,0.13-0.02,0.43,0.18,0.31c0.4-0.26,0.7-0.64,0.86-1.09c0.08-0.22,0.1-0.45,0.13-0.68c0.03-0.21,0.06-0.43,0.22-0.58
				C34.42,13.08,34.16,12.83,34,12.99L34,12.99z"/>
		</g>
	</g>
	<g>
		<g>
			<path d="M18.14,13.5c-0.26,0.26,0.1,0.59,0.3,0.75c0.25,0.2,0.52,0.35,0.82,0.48c0.59,0.25,1.22,0.42,1.76,0.77
				c0.19,0.12,0.37-0.18,0.18-0.31c-0.47-0.3-1-0.47-1.51-0.67c-0.24-0.09-0.49-0.2-0.71-0.33c-0.11-0.07-0.22-0.14-0.32-0.23
				c-0.05-0.04-0.1-0.09-0.15-0.14c-0.02-0.02-0.05-0.05-0.07-0.07c-0.01-0.01-0.01-0.02-0.02-0.03c-0.01-0.04-0.02-0.04-0.02,0.03
				C18.55,13.59,18.3,13.34,18.14,13.5L18.14,13.5z"/>
		</g>
	</g>
	<g>
		<g>
			<path d="M19.4,12.47c-0.25,0.29-0.15,0.69,0.12,0.93c0.14,0.13,0.31,0.22,0.48,0.32c0.19,0.12,0.38,0.24,0.56,0.36
				c0.73,0.5,1.4,1.08,2,1.72c-0.02-0.06-0.03-0.11-0.05-0.17c0.02-0.02,0.05-0.04,0.07-0.06c-0.23,0-0.23,0.36,0,0.35
				c0.14,0,0.23-0.08,0.27-0.2c0.02-0.06,0-0.13-0.05-0.17c-0.52-0.56-1.1-1.07-1.71-1.52c-0.3-0.23-0.62-0.44-0.94-0.64
				c-0.14-0.09-0.3-0.16-0.42-0.28c-0.09-0.09-0.19-0.27-0.09-0.39C19.8,12.55,19.55,12.29,19.4,12.47L19.4,12.47z"/>
		</g>
	</g>
	<g>
		<g>
			<path d="M20.9,12.5c0.29,0.22,0.47,0.56,0.72,0.82c0.27,0.29,0.62,0.49,0.94,0.72c0.33,0.24,0.62,0.52,0.88,0.82
				c0.13,0.15,0.26,0.31,0.38,0.47c0.11,0.14,0.29,0.31,0.33,0.49c0.05,0.22,0.4,0.13,0.34-0.09c-0.05-0.19-0.18-0.34-0.3-0.49
				c-0.13-0.17-0.27-0.34-0.4-0.51c-0.27-0.33-0.57-0.63-0.91-0.89c-0.34-0.26-0.72-0.46-1.01-0.77c-0.28-0.29-0.47-0.63-0.8-0.88
				C20.9,12.06,20.72,12.37,20.9,12.5L20.9,12.5z"/>
		</g>
	</g>
	<g>
		<g>
			<path d="M23.24,11.81c-0.16,0.35-0.32,0.75-0.17,1.13c0.15,0.38,0.54,0.63,0.82,0.91c0.33,0.32,0.64,0.65,0.95,0.98
				c0.27,0.29,0.61,0.61,0.65,1.04c0.02,0.23,0.38,0.23,0.35,0c-0.03-0.36-0.2-0.65-0.42-0.92c-0.27-0.33-0.57-0.63-0.86-0.93
				c-0.29-0.3-0.6-0.59-0.91-0.88c-0.14-0.13-0.27-0.28-0.29-0.48c-0.02-0.23,0.09-0.47,0.18-0.67
				C23.64,11.79,23.33,11.61,23.24,11.81L23.24,11.81z"/>
		</g>
	</g>
	<g>
		<g>
			<path d="M24.6,11.7c0.01,0.35,0.19,0.62,0.4,0.88c0.12,0.14,0.25,0.27,0.37,0.42c0.14,0.17,0.25,0.37,0.36,0.56
				c0.24,0.41,0.47,0.83,0.7,1.24c0.11,0.19,0.21,0.39,0.28,0.6c0.03,0.12,0.05,0.23,0.06,0.35c0,0.09-0.01,0.16,0.04,0.23
				c0.05,0.06,0.12,0.11,0.2,0.08c0.08-0.03,0.12-0.07,0.15-0.15c0.03-0.08-0.02-0.16-0.08-0.2c0,0-0.01-0.01-0.01-0.01
				c-0.19-0.13-0.37,0.18-0.18,0.31c0,0,0.01,0.01,0.01,0.01c-0.03-0.07-0.05-0.13-0.08-0.2c0,0.01,0,0.01-0.01,0.02
				c0.04-0.04,0.08-0.08,0.12-0.12c-0.01,0-0.01,0-0.02,0.01c0.07,0.03,0.13,0.05,0.2,0.08c0.02,0.03,0-0.01,0-0.05
				c0-0.05,0-0.1-0.01-0.15c-0.01-0.1-0.03-0.2-0.06-0.3c-0.06-0.19-0.15-0.38-0.24-0.56c-0.22-0.4-0.45-0.8-0.68-1.2
				c-0.19-0.34-0.38-0.66-0.63-0.95c-0.23-0.26-0.53-0.53-0.55-0.9C24.95,11.48,24.59,11.48,24.6,11.7L24.6,11.7z"/>
		</g>
	</g>
	<g>
		<g>
			<path d="M26.87,11.63c-0.23,0.27-0.23,0.62-0.09,0.94c0.17,0.38,0.43,0.76,0.69,1.09c0.49,0.65,1.4,1.34,1.21,2.27
				c0.11-0.01,0.22-0.03,0.32-0.04c0-0.02,0-0.04,0-0.06c0.03-0.23-0.33-0.22-0.35,0c-0.01,0.09,0.01,0.16,0.05,0.24
				c0.07,0.13,0.29,0.11,0.32-0.04c0.17-0.81-0.33-1.48-0.83-2.06c-0.27-0.31-0.53-0.63-0.75-0.99c-0.18-0.28-0.6-0.78-0.31-1.11
				C27.27,11.71,27.02,11.46,26.87,11.63L26.87,11.63z"/>
		</g>
	</g>
	<g>
		<g>
			<path d="M29.43,11.33c-0.35,0-0.64,0.23-0.77,0.56c-0.16,0.42,0.01,0.87,0.22,1.24c0.24,0.42,0.51,0.79,0.63,1.26
				c0.12,0.46,0.11,0.94,0,1.4c-0.05,0.22,0.29,0.32,0.34,0.09c0.18-0.74,0.1-1.51-0.23-2.2c-0.18-0.38-0.48-0.7-0.61-1.1
				c-0.11-0.34-0.06-0.89,0.41-0.89C29.65,11.68,29.65,11.33,29.43,11.33L29.43,11.33z"/>
		</g>
	</g>
	<g>
		<g>
			<path d="M31.31,11.82c-0.29,0.08-0.35,0.37-0.4,0.63c-0.06,0.34-0.12,0.68-0.14,1.02c-0.02,0.34-0.01,0.68,0.05,1.02
				c0.07,0.37,0.19,0.73,0.09,1.1c-0.06,0.22,0.28,0.31,0.34,0.09c0.16-0.6-0.13-1.2-0.14-1.8c-0.01-0.31,0.02-0.62,0.07-0.93
				c0.02-0.16,0.05-0.32,0.09-0.49c0.02-0.09,0.03-0.28,0.14-0.31C31.62,12.1,31.53,11.76,31.31,11.82L31.31,11.82z"/>
		</g>
	</g>
	<g>
		<g>
			<path d="M33.2,12.57c-0.18-0.23-0.51-0.21-0.68,0.03c-0.19,0.26-0.08,0.65-0.08,0.95c0.01,0.62-0.14,1.33-0.73,1.65
				c-0.14,0.08-0.09,0.28,0.04,0.32c0.14,0.05,0.29-0.01,0.38-0.13c0.1-0.14,0.08-0.31,0.05-0.46c-0.05-0.22-0.39-0.13-0.34,0.09
				c0.01,0.04,0.02,0.09,0.02,0.13c0,0.01-0.01,0.02-0.01,0.03c-0.01,0.01-0.01,0.01,0,0c0.01,0.11,0.03,0.22,0.04,0.32
				c0.47-0.26,0.76-0.75,0.86-1.27c0.06-0.3,0.06-0.6,0.04-0.91c-0.01-0.13-0.04-0.28-0.02-0.41c0.01-0.05,0.02-0.11,0.06-0.13
				c0.03-0.02,0.08,0,0.06-0.03c0.06,0.08,0.15,0.12,0.24,0.06C33.21,12.77,33.26,12.65,33.2,12.57L33.2,12.57z"/>
		</g>
	</g>
	<g>
		<g>
			<path d="M33.77,12.7c-1.05-0.78-2.28-1.09-3.56-1.26c-1.71-0.22-3.46-0.28-5.18-0.2c-1.54,0.07-3.15,0.19-4.65,0.6
				c-0.99,0.27-2.2,0.76-2.76,1.68c-0.56,0.92,0.47,1.63,1.23,1.97c1.2,0.53,2.56,0.52,3.84,0.65c1.72,0.18,3.43,0.48,5.16,0.46
				c1.58-0.02,3.15-0.32,4.69-0.68c0.89-0.21,2.97-0.32,2.94-1.63c-0.03-1.21-1.37-1.52-2.32-1.64c-0.23-0.03-0.22,0.32,0,0.35
				c0.44,0.06,0.96,0.11,1.35,0.36c0.68,0.42,0.9,1.18-0.09,1.72c-0.58,0.31-1.5,0.39-2.14,0.54c-1.46,0.34-2.94,0.61-4.44,0.63
				c-1.51,0.02-3-0.21-4.5-0.38c-1.35-0.16-2.83-0.12-4.12-0.6c-0.31-0.11-0.86-0.34-1.08-0.62c-0.67-0.85,0.16-1.44,0.71-1.79
				c0.5-0.32,1.06-0.52,1.62-0.68c1.47-0.4,3.04-0.52,4.55-0.59c1.48-0.07,2.96-0.03,4.43,0.12c1.47,0.14,2.93,0.39,4.14,1.3
				C33.78,13.14,33.96,12.84,33.77,12.7L33.77,12.7z"/>
		</g>
	</g>
	<g>
		<g>
			<path d="M35.21,13.39c-2.26-2.02-5.45-2.42-8.37-2.47c-1.74-0.03-3.49,0.11-5.21,0.42c-1.28,0.23-2.7,0.51-3.73,1.38
				c-0.74,0.62-1.26,1.62-0.45,2.41c0.92,0.91,2.62,1.28,3.83,1.51c3.04,0.58,6.45,0.61,9.51,0.22c1.48-0.19,3.61-0.51,4.77-1.55
				c0.82-0.73,0.39-1.95-0.65-2.1c0,0.11,0,0.23,0,0.34c0.1-0.02,0.21-0.04,0.31-0.06c0.22-0.04,0.13-0.39-0.09-0.34
				c-0.1,0.02-0.21,0.04-0.31,0.06c-0.16,0.03-0.17,0.32,0,0.34c0.67,0.02,0.77,0.57,0.32,1.62c-0.17,0.1-0.34,0.18-0.52,0.27
				c-0.37,0.18-0.75,0.32-1.13,0.45c-0.7,0.24-1.42,0.4-2.15,0.52c-1.57,0.26-3.17,0.28-4.76,0.26c-1.38-0.02-2.77-0.05-4.14-0.22
				c-0.82-0.1-1.63-0.26-2.42-0.5c-0.71-0.22-1.78-0.52-2.3-1.09c-1.54-1.71,2.33-2.85,3.35-3.06c1.62-0.34,3.27-0.52,4.93-0.55
				c3.06-0.05,6.6,0.24,8.98,2.37C35.13,13.79,35.38,13.54,35.21,13.39L35.21,13.39z"/>
		</g>
	</g>
</g>
</svg>
