<?xml version="1.0" encoding="utf-8"?>
<!-- Generator: Adobe Illustrator 26.2.1, SVG Export Plug-In . SVG Version: 6.00 Build 0)  -->
<svg version="1.1" id="Layer_1" xmlns="http://www.w3.org/2000/svg" xmlns:xlink="http://www.w3.org/1999/xlink" x="0px" y="0px"
	 viewBox="0 0 56.69 56.69" style="enable-background:new 0 0 56.69 56.69;" xml:space="preserve">
<g>
	<g>
		<g>
			<path d="M34.3,33.06c-0.49,3.7,0.16,7.38,0.48,11.07c0.07,0.8,0.3,1.84,0.15,2.63c-0.2,1.12-2.19,1.08-3.05,1.16
				c-1.98,0.2-3.98,0.11-5.94-0.24c0,0.11,0,0.23,0,0.34c3.43-0.94,7.01-1.05,10.49-0.31c-0.03-0.1-0.05-0.2-0.08-0.3
				c-0.45,0.36-0.29,1,0.22,1.2c0.21,0.08,0.31-0.26,0.09-0.34c-0.02-0.2-0.04-0.4-0.06-0.61c0.1-0.08,0.04-0.27-0.08-0.3
				c-3.54-0.75-7.18-0.64-10.68,0.31c-0.16,0.04-0.18,0.31,0,0.34c2.09,0.37,4.22,0.47,6.33,0.23c0.81-0.09,1.88-0.12,2.61-0.49
				c0.61-0.31,0.5-0.99,0.48-1.58c-0.17-4.38-1.2-8.72-0.62-13.11C34.68,32.83,34.33,32.83,34.3,33.06L34.3,33.06z"/>
		</g>
	</g>
	<g>
		<g>
			<path d="M28.42,29.39c0.05-0.34,0.62-0.38,0.88-0.42c0.41-0.07,0.82-0.11,1.23-0.12c0.83-0.01,1.66,0.1,2.45,0.34
				c0.22,0.07,0.31-0.28,0.09-0.34c-0.94-0.28-1.92-0.4-2.9-0.34c-0.47,0.03-0.95,0.09-1.41,0.21c-0.3,0.08-0.65,0.24-0.7,0.58
				C28.05,29.52,28.39,29.62,28.42,29.39L28.42,29.39z"/>
		</g>
	</g>
	<g>
		<g>
			<path d="M31.96,30.62c0,0.56-0.03,1.13-0.1,1.68c-0.01,0.09,0.02,0.19,0.12,0.22c0.08,0.02,0.2-0.03,0.22-0.12
				c0.08-0.59,0.12-1.18,0.12-1.78C32.32,30.4,31.96,30.4,31.96,30.62L31.96,30.62z"/>
		</g>
	</g>
	<g>
		<g>
			<path d="M29.63,30.7c0,0.4,0,0.79,0,1.19c0,0.17-0.01,0.34,0.01,0.51c0.01,0.08,0.03,0.16,0.06,0.24
				c0.02,0.04,0.03,0.07,0.06,0.11c0.02,0.02,0.03,0.04,0.05,0.06c0.02,0.03,0.03,0.03,0.01,0c-0.01,0.23,0.34,0.23,0.35,0
				c0.01-0.1-0.05-0.16-0.11-0.24c-0.04-0.05-0.07-0.11-0.08-0.18c-0.02-0.16-0.01-0.33-0.01-0.49c0-0.4,0-0.79,0-1.19
				C29.98,30.47,29.63,30.47,29.63,30.7L29.63,30.7z"/>
		</g>
	</g>
	<g>
		<g>
			<path d="M26.42,30.17c-0.02,0.35-0.05,0.71-0.04,1.07c0.01,0.33,0.07,0.66,0.26,0.94c0.05,0.08,0.16,0.11,0.24,0.06
				c0.08-0.05,0.12-0.16,0.06-0.24c-0.17-0.24-0.21-0.53-0.21-0.82c0-0.33,0.03-0.67,0.04-1C26.79,29.94,26.44,29.94,26.42,30.17
				L26.42,30.17z"/>
		</g>
	</g>
	<g>
		<g>
			<path d="M24.46,11.97c-0.09,0.91-0.11,1.83-0.04,2.74c0.04,0.51,0.11,1.01,0.58,1.31c0.61,0.39,1.34,0.2,2.01,0.35
				c0.71,0.16,1.31,0.54,2.06,0.52c0.85-0.01,1.66-0.21,2.52-0.15c0.77,0.05,1.53,0.3,2.3,0.11c0.45-0.12,0.85-0.19,1.32-0.25
				c0.21-0.02,0.41-0.07,0.59-0.2c0.18-0.13,0.31-0.31,0.32-0.55c0.01-0.26-0.3-0.61-0.19-0.84c0.09-0.21-0.21-0.39-0.31-0.18
				c-0.19,0.41,0.31,0.9,0.03,1.23c-0.23,0.28-0.78,0.18-1.09,0.23c-0.32,0.05-0.62,0.19-0.94,0.25c-0.67,0.12-1.36-0.11-2.03-0.15
				c-0.71-0.05-1.38,0.05-2.08,0.12c-0.72,0.08-1.29-0.11-1.96-0.34c-0.54-0.19-1.03-0.19-1.59-0.24c-0.47-0.04-0.93-0.18-1.1-0.67
				c-0.11-0.33-0.09-0.75-0.11-1.09c-0.03-0.73,0-1.47,0.07-2.2C24.84,11.74,24.48,11.74,24.46,11.97L24.46,11.97z"/>
		</g>
	</g>
	<g>
		<g>
			<path d="M28.45,29.05c0.21-0.23,0.71-0.16,0.99-0.17c0.42-0.02,0.83-0.02,1.25-0.02c0.77,0,1.6-0.06,2.25,0.42
				c0-0.1,0-0.2,0-0.31c-0.33,0.23-0.65,0.47-0.98,0.7c-0.18,0.13-0.01,0.44,0.18,0.31c0.33-0.23,0.65-0.47,0.98-0.7
				c0.11-0.08,0.11-0.22,0-0.31c-0.72-0.53-1.66-0.46-2.52-0.46c-0.48,0-0.96,0.01-1.44,0.03c-0.33,0.02-0.72,0-0.97,0.27
				C28.05,28.97,28.3,29.22,28.45,29.05L28.45,29.05z"/>
		</g>
	</g>
	<g>
		<g>
			<path d="M22.53,6.37c-3.78,0.58-4.72,4.87-3.93,8.04c0.52,2.09,1.73,3.87,2.88,5.67c0.19,0.29,0.36,0.61,0.62,0.84
				c0.32,0.29,0.71,0.45,1.02,0.76c0.19,0.19,0.35,0.43,0.6,0.54c0.24,0.1,0.82-0.05,0.96,0.11c0.15,0.17,0.4-0.08,0.25-0.25
				c-0.16-0.18-0.2-0.18-0.43-0.22c-0.09-0.02-0.18,0.06-0.27,0.05c-0.28-0.03-0.54-0.16-0.75-0.34c-0.55-0.47-1.23-0.93-1.62-1.54
				c-1-1.56-2.09-3.13-2.68-4.9c-1.04-3.12-0.54-7.81,3.44-8.42C22.85,6.68,22.75,6.34,22.53,6.37L22.53,6.37z"/>
		</g>
	</g>
	<g>
		<g>
			<path d="M23.6,32.47c-0.23,2.76-0.46,5.52-0.49,8.29c-0.01,1.38,0.02,2.76,0.13,4.13c0.05,0.63,0.12,1.27,0.2,1.9
				c0.1,0.71,0.39,1.56,0.28,2.27c-0.03,0.22,0.31,0.32,0.34,0.09c0.08-0.51-0.05-0.97-0.13-1.47c-0.14-0.82-0.24-1.65-0.31-2.48
				c-0.12-1.37-0.17-2.75-0.16-4.13c0.01-2.88,0.25-5.75,0.49-8.61C23.97,32.25,23.62,32.25,23.6,32.47L23.6,32.47z"/>
		</g>
	</g>
	<g>
		<g>
			<path d="M37.41,47.9c0.31-2.58-0.48-5.07-0.73-7.62c-0.26-2.61,0.02-5.17,0.21-7.78c0.19-2.63-0.01-5.23-0.19-7.85
				c-0.09-1.34-0.16-2.68-0.18-4.02c-0.01-0.71-0.01-1.41-0.01-2.12c0-0.24-0.06-2.39-0.09-2.37c-0.19,0.12-0.01,0.43,0.18,0.31
				c0.02-0.01,0.04-0.02,0.06-0.04c0.08-0.05,0.12-0.16,0.06-0.24c-0.02-0.03-0.04-0.05-0.05-0.08c-0.07-0.1-0.19-0.12-0.28-0.04
				c-0.47,0.41-0.22,1.66-0.22,2.22c-0.02,1.41,0,2.83,0.06,4.24c0.13,2.94,0.51,5.88,0.38,8.82c-0.12,2.77-0.54,5.49-0.34,8.27
				c0.2,2.77,1.13,5.5,0.79,8.29C37.03,48.13,37.38,48.12,37.41,47.9L37.41,47.9z"/>
		</g>
	</g>
	<g>
		<g>
			<path d="M25.4,46.04c-0.6,0.3-1.22,0.63-1.65,1.16c-0.36,0.46-0.56,1.11-0.37,1.68c0.2,0.61,0.76,0.9,1.33,1.08
				c0.78,0.25,1.58,0.4,2.38,0.57c0.22,0.05,0.32-0.3,0.09-0.34c-0.69-0.14-1.38-0.28-2.06-0.47c-0.51-0.15-1.17-0.31-1.39-0.86
				c-0.2-0.51,0-1.11,0.35-1.5c0.4-0.46,0.96-0.73,1.49-1C25.78,46.24,25.6,45.93,25.4,46.04L25.4,46.04z"/>
		</g>
	</g>
	<g>
		<g>
			<path d="M28.46,45.71c-1.14,0.14-2.32,0.29-3.34,0.87c-0.66,0.38-1.63,1.17-1.59,2.02c0.04,0.9,1.32,1.33,2.02,1.57
				c1.19,0.41,2.46,0.55,3.71,0.65c2.47,0.19,5.24,0.03,7.51-1.08c1.93-0.94-2.16-2.96-2.93-3.23c-1.29-0.46-2.67-0.64-4.03-0.75
				c-0.96-0.08-2.5-0.44-3.21,0.42c-0.06,0.07-0.07,0.18,0,0.25c0.08,0.07,0.15,0.14,0.23,0.22c0.16,0.16,0.42-0.09,0.25-0.25
				c-0.08-0.07-0.15-0.14-0.23-0.22c0,0.08,0,0.17,0,0.25c0.43-0.52,1.12-0.44,1.73-0.4c0.58,0.03,1.15,0.07,1.73,0.12
				c1.17,0.11,2.34,0.3,3.45,0.69c0.59,0.21,1.16,0.48,1.69,0.82c0.41,0.26,1.04,0.62,1.27,1.05c0.39,0.73-0.26,0.79-0.73,0.96
				c-0.22,0.08-0.45,0.16-0.67,0.23c-0.57,0.18-1.16,0.31-1.75,0.41c-2.39,0.4-5.12,0.32-7.46-0.34c-0.6-0.17-1.25-0.38-1.76-0.76
				c-0.83-0.62-0.17-1.47,0.41-1.95c1.03-0.86,2.43-1.04,3.71-1.2C28.68,46.04,28.68,45.68,28.46,45.71L28.46,45.71z"/>
		</g>
	</g>
	<g>
		<g>
			<path d="M24.09,19.55c0.3,5.83-0.04,11.67-0.27,17.5c-0.11,2.82-0.22,5.63-0.33,8.45c-0.07,1.83-0.46,4.15,1.62,4.97
				c1.88,0.74,4.48,0.84,6.47,0.69c1.73-0.13,4.02-0.62,5.2-2.03c0.59-0.71,0.68-1.58,0.72-2.46c0.07-1.43,0.02-2.87-0.06-4.3
				c-0.15-2.87-0.49-5.72-0.75-8.58c-0.3-3.19-0.44-6.37-0.28-9.57c0.15-3.07,0.37-6.12-0.06-9.18c-0.03-0.22-0.37-0.13-0.34,0.09
				c0.71,4.99-0.22,10.06,0.06,15.07c0.27,4.85,1.06,9.67,1.11,14.54c0.01,1.18,0.19,2.83-0.45,3.86c-0.7,1.14-2.38,1.7-3.62,1.97
				c-2.19,0.48-4.54,0.23-6.72-0.17c-0.69-0.13-1.51-0.28-2.01-0.82c-0.5-0.55-0.59-1.39-0.59-2.09c-0.01-1.23,0.09-2.47,0.13-3.69
				c0.09-2.41,0.19-4.83,0.28-7.24c0.22-5.67,0.54-11.35,0.25-17.02C24.43,19.32,24.08,19.32,24.09,19.55L24.09,19.55z"/>
		</g>
	</g>
	<g>
		<g>
			<path d="M34.3,16.36c-0.04,2.12,0,4.25,0,6.37c0,1.02-0.01,2.04-0.04,3.05c-0.02,0.51-0.04,1.02-0.07,1.52
				c-0.01,0.13-0.05,1.72-0.13,1.73c-0.22,0.05-0.13,0.39,0.09,0.34c0.18-0.04,0.21-0.13,0.26-0.3c0.16-0.53,0.1-1.22,0.14-1.78
				c0.07-1.23,0.1-2.46,0.1-3.69c0.01-2.42-0.04-4.84,0.01-7.26C34.66,16.13,34.31,16.13,34.3,16.36L34.3,16.36z"/>
		</g>
	</g>
	<g>
		<g>
			<path d="M26.03,29.4c-0.26-0.03-0.47,0.17-0.49,0.43c-0.02,0.33,0.28,0.53,0.55,0.65c1.03,0.44,2.32,0.41,3.42,0.47
				c2.01,0.13,4.4,0.2,5.76-1.57c-0.1-0.06-0.2-0.12-0.31-0.18c-0.12,0.19-0.25,0.34-0.42,0.49c-0.17,0.15,0.08,0.4,0.25,0.25
				c0.19-0.16,0.34-0.34,0.47-0.56c0.12-0.2-0.17-0.35-0.31-0.18c-0.99,1.28-2.68,1.48-4.19,1.45c-0.79-0.02-1.58-0.07-2.36-0.14
				c-0.45-0.04-0.91-0.06-1.35-0.14c-0.17-0.03-0.34-0.07-0.5-0.11c-0.14-0.04-0.27-0.08-0.4-0.14c-0.16-0.05-0.2-0.17-0.12-0.37
				C26.25,29.78,26.25,29.42,26.03,29.4L26.03,29.4z"/>
		</g>
	</g>
	<g>
		<g>
			<path d="M25.66,29.97c0.62,0.52,1.44,0.67,2.22,0.84c0.94,0.21,1.9,0.36,2.87,0.35c0.82-0.01,1.65-0.13,2.42-0.42
				c0.67-0.26,1.4-0.63,1.76-1.29c0.05-0.09,0.02-0.18-0.06-0.24c-0.12-0.08-0.14-0.09-0.29-0.09c-0.23,0.01-0.23,0.36,0,0.35
				c0.04,0.01,0.07,0.02,0.11,0.04c-0.02-0.08-0.04-0.16-0.06-0.24c-0.36,0.67-1.2,1.03-1.9,1.25c-0.69,0.21-1.41,0.29-2.13,0.29
				c-0.82-0.01-1.64-0.13-2.45-0.3c-0.75-0.16-1.63-0.28-2.23-0.78C25.73,29.58,25.48,29.83,25.66,29.97L25.66,29.97z"/>
		</g>
	</g>
	<g>
		<g>
			<path d="M25.94,29.02c-0.07,0.7-0.09,1.45,0.06,2.14c0.13,0.58,0.5,0.79,1.04,0.96c1.32,0.41,2.73,0.57,4.11,0.49
				c1.05-0.06,2.14-0.26,3.07-0.77c0.37-0.2,0.52-0.54,0.55-0.95c0.05-0.71,0.06-1.43-0.11-2.12c-0.05-0.22-0.4-0.13-0.34,0.09
				c0.15,0.61,0.13,1.24,0.1,1.87c-0.03,0.52-0.17,0.73-0.65,0.93c-0.91,0.37-1.79,0.57-2.77,0.61c-1.12,0.05-2.25-0.06-3.34-0.34
				c-0.27-0.07-0.54-0.13-0.8-0.23c-0.35-0.14-0.48-0.4-0.54-0.75c-0.1-0.63-0.09-1.28-0.02-1.92
				C26.32,28.79,25.96,28.79,25.94,29.02L25.94,29.02z"/>
		</g>
	</g>
	<g>
		<g>
			<path d="M34.63,16.05c-0.38,0.56-0.41,1.18-0.38,1.83c0.04,0.89-0.06,1.68-0.22,2.55c-0.33,1.77-0.45,3.6-0.5,5.39
				c-0.03,0.92-0.02,1.83,0.06,2.75c0.03,0.31-0.05,1,0.34,1.12c0.33,0.1,0.67-0.24,0.71-0.55c0.03-0.25-0.42-0.88-0.52-0.61
				c-0.07,0.04-0.15,0.08-0.22,0.12c0.02,0.01,0.03,0.01,0.05,0.02c-0.04-0.07-0.08-0.15-0.12-0.22c0,0.01,0,0.03-0.01,0.04
				c-0.03,0.22,0.31,0.32,0.34,0.09c0-0.01,0-0.03,0.01-0.04c0.02-0.1-0.02-0.19-0.12-0.22c-0.02-0.01-0.03-0.01-0.05-0.02
				c-0.1-0.03-0.19,0.04-0.22,0.12c-0.07,0.19,0.07,0.2,0.14,0.32c0.18,0.01,0.21,0.12,0.08,0.33c-0.02-0.17-0.04-0.35-0.05-0.52
				c-0.02-0.26-0.04-0.52-0.05-0.78c-0.06-1.35,0-2.71,0.11-4.06c0.11-1.36,0.3-2.7,0.53-4.04c0.2-1.11-0.26-2.49,0.4-3.46
				C35.07,16.04,34.76,15.87,34.63,16.05L34.63,16.05z"/>
		</g>
	</g>
	<g>
		<g>
			<path d="M28.41,16.12c-0.76-0.26-0.54,0.9-0.52,1.28c0.07,1.29,0.11,2.58,0.14,3.87c0.05,2.47-0.11,5,0.14,7.46
				c0.07,0.72,0.1,1.4,0.91,1.54c0.92,0.16,2.35,0.3,3.23-0.09c0.78-0.35,0.9-1.29,0.88-2.05c-0.03-1.23-0.34-2.43-0.31-3.67
				c0.04-1.54,0.5-2.97,0.76-4.47c0.22-1.28-0.13-2.76,0.45-3.94c0.1-0.2-0.2-0.38-0.31-0.18c-0.48,0.96-0.33,1.97-0.38,3.01
				c-0.06,1.33-0.52,2.6-0.73,3.91c-0.19,1.19-0.21,2.39-0.06,3.58c0.07,0.59,0.19,1.17,0.21,1.76c0.01,0.36,0.01,0.76-0.13,1.11
				c-0.24,0.6-0.69,0.7-1.27,0.75c-0.62,0.05-1.47,0.14-2.08-0.04c-0.49-0.15-0.7-0.29-0.78-0.77c-0.07-0.4-0.09-0.8-0.11-1.2
				c-0.05-1.22-0.04-2.45-0.05-3.67c-0.01-1.29-0.03-2.59-0.06-3.88c-0.02-0.65-0.04-1.3-0.06-1.95c-0.01-0.16-0.09-2.06,0.02-2.03
				C28.53,16.53,28.62,16.19,28.41,16.12L28.41,16.12z"/>
		</g>
	</g>
	<g>
		<g>
			<path d="M28.41,28.44c0.7-0.02,1.41-0.04,2.11-0.05c0.41-0.01,1.13,0.12,1.48-0.11c0.33-0.22,0.2-0.86,0.21-1.19
				c0.02-0.7,0.04-1.4,0.07-2.1c0.05-1.36,0.1-2.72,0.16-4.09c0.03-0.66,0.06-1.32,0.09-1.98c0.02-0.35,0.03-0.7,0.05-1.05
				c0.01-0.19,0.02-0.39,0.03-0.58c0-0.04,0.07-0.89,0.25-0.65c0.14,0.18,0.39-0.07,0.25-0.25c-0.16-0.21-0.44-0.23-0.64-0.05
				c-0.32,0.28-0.22,0.94-0.24,1.31c-0.07,1.52-0.14,3.03-0.2,4.55c-0.06,1.48-0.12,2.96-0.16,4.44c-0.01,0.33,0.04,0.73-0.03,1.05
				c-0.09,0.42-0.19,0.34-0.5,0.35c-0.2,0-0.39,0.01-0.59,0.01c-0.78,0.02-1.56,0.04-2.35,0.06C28.18,28.09,28.18,28.45,28.41,28.44
				L28.41,28.44z"/>
		</g>
	</g>
	<g>
		<g>
			<path d="M27.09,15.72c-0.9,0.1-0.41,1.5-0.39,2.07c0.04,1.36-0.02,2.72,0.02,4.08c0.05,1.41,0.13,2.82,0.22,4.23
				c0.05,0.73,0.09,1.46,0.14,2.18c0.01,0.16,0.16,0.99,0.06,1.09c-0.41,0.42-0.83-0.6-0.39-0.6c0.23,0,0.23-0.35,0-0.35
				c-0.34-0.01-0.66,0.22-0.66,0.59c0.01,0.37,0.52,0.77,0.83,0.87c0.29,0.1,0.48-0.03,0.56-0.32c0.08-0.3-0.02-0.71-0.03-1.01
				c-0.03-0.5-0.06-1-0.09-1.5c-0.12-1.86-0.24-3.73-0.29-5.6c-0.02-0.89-0.02-1.79-0.01-2.68c0.01-0.45,0.01-0.91-0.01-1.36
				c-0.01-0.23-0.23-1.32,0.05-1.35C27.31,16.05,27.31,15.7,27.09,15.72L27.09,15.72z"/>
		</g>
	</g>
	<g>
		<g>
			<path d="M26.62,15.94c-0.96-0.18-0.7,1.27-0.67,1.81c0.08,1.51,0.29,3.01,0.4,4.51c0.11,1.46,0.04,2.91,0.01,4.37
				c-0.01,0.65,0,1.31,0.1,1.95c0.03,0.23,0.05,0.51,0.16,0.72c0.1,0.19,0.26,0.24,0.36,0.41c0.12,0.19,0.43,0.02,0.31-0.18
				c-0.07-0.12-0.15-0.14-0.23-0.24c-0.21-0.29-0.24-0.65-0.29-1c-0.07-0.59-0.07-1.19-0.06-1.78c0.03-1.12,0.1-2.22,0.04-3.34
				c-0.06-1.12-0.18-2.24-0.29-3.35c-0.06-0.6-0.12-1.2-0.15-1.81c-0.02-0.28-0.21-1.8,0.2-1.72
				C26.75,16.32,26.84,15.98,26.62,15.94L26.62,15.94z"/>
		</g>
	</g>
	<g>
		<g>
			<path d="M22.19,20.37c0.28,0.38,0.6,0.72,0.97,1c0.33,0.26,0.74,0.56,1.18,0.57c0.18,0,0.37-0.06,0.5-0.19
				c0.15-0.15,0.23-0.36,0.38-0.52c0.31-0.33,0.77-0.49,1.21-0.41c0.02-0.12,0.03-0.23,0.05-0.35c-0.08,0.01-0.16,0.02-0.24,0.03
				c-0.22,0.02-0.23,0.38,0,0.35c0.08-0.01,0.16-0.02,0.24-0.03c0.18-0.02,0.26-0.31,0.05-0.35c-0.38-0.06-0.75-0.01-1.09,0.16
				c-0.16,0.08-0.32,0.19-0.44,0.32c-0.14,0.15-0.22,0.32-0.35,0.48c-0.29,0.38-0.86-0.05-1.13-0.25c-0.39-0.28-0.73-0.62-1.01-1
				C22.36,20.01,22.06,20.18,22.19,20.37L22.19,20.37z"/>
		</g>
	</g>
	<g>
		<g>
			<path d="M23.33,8.14c-0.69-1.16-1.76,1.3-1.93,1.7c-0.63,1.48-0.72,2.99-0.38,4.56c0.31,1.42,0.71,3.11,1.86,4.11
				c0.29,0.25,0.85,0.73,1.25,0.48c0.44-0.27,0.51-0.93,0.4-1.38c-0.05-0.22-0.4-0.13-0.34,0.09c0.06,0.25,0.08,0.8-0.21,0.95
				c-0.23,0.12-0.64-0.22-0.79-0.34c-0.38-0.31-0.67-0.71-0.9-1.14c-0.48-0.9-0.74-1.97-0.95-2.97c-0.23-1.07-0.26-2.13,0.02-3.19
				c0.14-0.52,0.34-1.02,0.57-1.5c0.07-0.14,0.83-1.63,1.08-1.2C23.14,8.51,23.45,8.33,23.33,8.14L23.33,8.14z"/>
		</g>
	</g>
	<g>
		<g>
			<path d="M19.71,10.33c0.22-0.75,0.66-1.4,1.31-1.84c0.27-0.19,0.61-0.37,0.93-0.42c0.73-0.11,1.02,0.47,1.21,1.06
				c0.24,0.75,0.29,1.55,0.36,2.33c0.07,0.85,0.13,1.69,0.08,2.54c-0.04,0.81-0.16,1.6-0.18,2.41c-0.02,0.78,0.16,1.5,0.23,2.26
				c0.06,0.62-0.05,1.31-1,0.84c-0.34-0.17-0.66-0.46-0.96-0.69c-0.67-0.51-1.31-1.07-1.92-1.65c-0.16-0.16-0.42,0.09-0.25,0.25
				c0.79,0.76,1.62,1.46,2.51,2.09c0.52,0.37,1.36,0.94,1.82,0.17c0.42-0.7,0-1.75-0.06-2.48c-0.1-1.23,0.16-2.45,0.18-3.67
				c0.02-1.13-0.08-2.29-0.24-3.41c-0.1-0.72-0.26-1.76-0.89-2.23c-0.66-0.5-1.58-0.05-2.16,0.37c-0.66,0.49-1.11,1.17-1.33,1.95
				C19.31,10.46,19.65,10.55,19.71,10.33L19.71,10.33z"/>
		</g>
	</g>
	<g>
		<g>
			<path d="M25.22,15.69c-1.46-0.54-0.89,2.26-0.86,2.87c0.13,2.23,0.2,4.46,0.08,6.69c-0.13,2.3-0.47,4.57-0.46,6.87
				c0.01,2.42,0.21,4.84-0.07,7.25c-0.03,0.23,0.33,0.22,0.35,0c0.45-3.85-0.06-7.74,0.32-11.61c0.18-1.88,0.29-3.75,0.27-5.64
				c-0.01-0.89-0.05-1.78-0.09-2.68c-0.02-0.37-0.33-3.67,0.36-3.42C25.34,16.11,25.43,15.77,25.22,15.69L25.22,15.69z"/>
		</g>
	</g>
	<g>
		<g>
			<path d="M23.05,6.83c-3.5,0.15-4.86,4.24-4.35,7.2c0.31,1.81,1.38,3.36,2.42,4.83c0.78,1.09,1.96,2.78,3.51,2.46
				c0.22-0.05,0.13-0.39-0.09-0.34c-1.52,0.31-2.82-1.85-3.53-2.9c-0.82-1.22-1.63-2.45-1.93-3.91c-0.57-2.76,0.61-6.84,3.96-6.98
				C23.27,7.17,23.27,6.82,23.05,6.83L23.05,6.83z"/>
		</g>
	</g>
	<g>
		<g>
			<path d="M24.97,11.88c1.55-0.06,3.09-0.01,4.64,0c1.42,0.01,2.98,0.13,4.37-0.17c0.38-0.08,0.76-0.25,0.92-0.63
				c0.08-0.19,0.06-0.38,0.05-0.58c-0.01-0.13-0.11-0.41-0.06-0.5c0.14-0.09,0.29-0.19,0.43-0.28c0.07,0.08,0.13,0.17,0.2,0.25
				c0.32,0.4,0.62,0.67,0.51,1.21c-0.07,0.33-0.21,0.65-0.35,0.95c-0.3,0.63-0.74,1.16-1.26,1.62c-0.17,0.15,0.08,0.4,0.25,0.25
				c0.54-0.48,0.99-1.05,1.31-1.7c0.22-0.44,0.52-1.06,0.46-1.57c-0.03-0.27-0.25-0.48-0.41-0.68c-0.19-0.24-0.39-0.62-0.67-0.76
				c-0.38-0.18-0.75,0.15-0.82,0.51c-0.08,0.39,0.2,0.86-0.01,1.22c-0.22,0.36-0.81,0.38-1.18,0.41c-0.92,0.08-1.84,0.1-2.76,0.1
				c-1.88,0-3.76-0.08-5.63-0.01C24.74,11.54,24.74,11.89,24.97,11.88L24.97,11.88z"/>
		</g>
	</g>
	<g>
		<g>
			<path d="M34.72,8.53c0.37,0.25,0.85,0.19,1.22,0.46c0.19,0.14,0.36,0.29,0.57,0.4c0.21,0.1,0.43,0.17,0.66,0.2
				c0.2,0.03,0.43,0.03,0.57-0.15c0.12-0.16,0.1-0.38,0-0.55c-0.11-0.19-0.32-0.26-0.47-0.4c-0.05-0.04-0.14-0.14-0.12-0.21
				c0.01-0.02,0.01-0.02,0-0.01c0.03,0.01,0.06,0.02,0.09,0.02c0.06,0.02,0.12,0.03,0.19,0.05c-0.04-0.06-0.09-0.11-0.13-0.17
				c0,0.18,0.05,0.35,0.15,0.49c0.13,0.18,0.44,0,0.31-0.18c-0.07-0.1-0.11-0.19-0.1-0.31c0-0.08-0.06-0.15-0.13-0.17
				c-0.22-0.06-0.49-0.18-0.65,0.04c-0.12,0.16-0.09,0.38,0.01,0.54c0.12,0.19,0.31,0.26,0.48,0.4c0.05,0.05,0.13,0.12,0.11,0.2
				c-0.01,0.08-0.11,0.06-0.18,0.06c-0.22-0.01-0.44-0.08-0.64-0.19c-0.21-0.11-0.37-0.27-0.56-0.4c-0.17-0.12-0.37-0.18-0.57-0.23
				c-0.21-0.05-0.43-0.08-0.61-0.2C34.71,8.1,34.54,8.4,34.72,8.53L34.72,8.53z"/>
		</g>
	</g>
	<g>
		<g>
			<path d="M33.89,9.24c0.6-0.2,1.15-0.23,1.7,0.11c0.23,0.15,0.46,0.29,0.71,0.4c0.27,0.11,0.55,0.18,0.83,0.25
				c0.42,0.1,1.05,0.15,1.22-0.37c0.07-0.22,0.02-0.45-0.09-0.65c-0.04-0.07-0.54-0.63-0.56-0.6c-0.07,0.03-0.13,0.05-0.2,0.08
				c0.01,0,0.02,0.01,0.03,0.01c0.22,0.06,0.31-0.27,0.09-0.34c-0.12-0.04-0.22-0.01-0.3,0.08c-0.15,0.17,0.1,0.42,0.25,0.25
				c-0.01,0-0.03,0.01-0.04,0.01c0.03-0.11,0.06-0.23,0.09-0.34c-0.01,0-0.02-0.01-0.03-0.01c-0.08-0.02-0.16,0.02-0.2,0.08
				c-0.13,0.19,0.03,0.37,0.16,0.51c0.17,0.18,0.4,0.35,0.46,0.6c0.17,0.7-1.04,0.31-1.34,0.21c-0.26-0.08-0.5-0.2-0.73-0.34
				c-0.21-0.13-0.41-0.27-0.64-0.35c-0.49-0.17-1.03-0.07-1.51,0.09C33.58,8.97,33.67,9.31,33.89,9.24L33.89,9.24z"/>
		</g>
	</g>
	<g>
		<g>
			<path d="M36.93,11.53c0-0.29,0.01-0.59,0.09-0.87c0.04-0.12,0.09-0.24,0.17-0.34c0.11-0.14,0.22-0.23,0.24-0.42
				c0.01-0.1-0.09-0.17-0.18-0.18c-0.23-0.01-0.52,0.04-0.58,0.31c-0.01,0.06,0,0.13,0,0.17c0,0.01-0.01,0.02-0.03,0.04
				c-0.05,0.04-0.13,0.08-0.2,0.1c-0.22,0.07-0.12,0.41,0.09,0.34c0.18-0.06,0.37-0.15,0.45-0.33c0.02-0.05,0.03-0.09,0.03-0.15
				c0-0.02-0.01-0.08-0.01-0.09c0.02-0.07,0.19-0.04,0.24-0.04c-0.06-0.06-0.12-0.12-0.18-0.18c0,0.03-0.06,0.08-0.08,0.1
				c-0.05,0.06-0.11,0.12-0.15,0.19c-0.08,0.13-0.14,0.27-0.18,0.42c-0.08,0.3-0.09,0.61-0.09,0.92
				C36.57,11.76,36.93,11.76,36.93,11.53L36.93,11.53z"/>
		</g>
	</g>
	<g>
		<g>
			<path d="M36.85,9.8c-0.46,0.1-0.63,0.55-0.69,0.97c-0.04,0.32-0.11,0.56-0.24,0.85c-0.11,0.25-0.1,0.51-0.1,0.78
				c0,1.49-0.16,2.97-0.46,4.42c-0.02,0.1,0.05,0.23,0.17,0.22c0.07,0,0.13-0.01,0.2-0.01c0.23-0.02,0.23-0.37,0-0.35
				c-0.07,0-0.13,0.01-0.2,0.01c0.06,0.07,0.11,0.15,0.17,0.22c0.26-1.22,0.42-2.46,0.46-3.71c0.01-0.31,0.01-0.63,0.01-0.94
				c0-0.29,0.07-0.48,0.18-0.74c0.17-0.41,0.03-1.27,0.59-1.39C37.17,10.09,37.08,9.75,36.85,9.8L36.85,9.8z"/>
		</g>
	</g>
	<g>
		<g>
			<path d="M37.04,15.82c-0.02,0.02-0.03,0.03-0.05,0.05c-0.02,0.02-0.03,0.04-0.04,0.06c-0.01,0.02-0.02,0.04-0.02,0.07
				c0,0.02,0,0.05,0.02,0.07c0.01,0.02,0.02,0.04,0.04,0.06c0.03,0.03,0.08,0.05,0.13,0.05c0.05,0,0.09-0.02,0.13-0.05
				c0.02-0.02,0.03-0.03,0.05-0.05c0.02-0.02,0.03-0.04,0.04-0.06c0.01-0.02,0.02-0.04,0.02-0.07c0-0.02,0-0.05-0.02-0.07
				c-0.01-0.02-0.02-0.04-0.04-0.06c-0.03-0.03-0.08-0.05-0.13-0.05C37.12,15.77,37.08,15.79,37.04,15.82L37.04,15.82z"/>
		</g>
	</g>
	<g>
		<g>
			<path d="M24.36,11.19c-0.24,0.92-0.35,1.87-0.28,2.82c0.04,0.59,0.02,1.56,0.68,1.82c0.78,0.32,1.79,0.35,2.63,0.46
				c1.02,0.13,2.04,0.23,3.07,0.27c1.03,0.05,2.05,0.05,3.08,0.01c0.55-0.02,1.1-0.06,1.66-0.11c0.39-0.03,0.85-0.02,1.23-0.13
				c0.56-0.17,0.37-1.12,0.39-1.56c0.05-1.09,0.07-2.18,0.07-3.27c0-0.23-0.35-0.23-0.35,0c0,0.82-0.01,1.64-0.04,2.46
				c-0.01,0.39-0.03,0.78-0.05,1.17c-0.01,0.18,0.02,0.41-0.03,0.58c0.06,0.18,0.02,0.27-0.14,0.27c-0.12,0.04-0.24,0.06-0.36,0.06
				c-1.59,0.22-3.25,0.24-4.85,0.19c-1.68-0.05-3.36-0.21-5.02-0.5c-0.49-0.08-1.16-0.11-1.43-0.6c-0.17-0.31-0.15-0.88-0.17-1.23
				c-0.05-0.89,0.05-1.76,0.28-2.62C24.76,11.07,24.42,10.97,24.36,11.19L24.36,11.19z"/>
		</g>
	</g>
	<g>
		<g>
			<path d="M24.5,11.37c2.2,0.91,4.48,1.17,6.85,1.19c1.25,0.01,2.5,0,3.74-0.09c0.34-0.02,0.45-0.09,0.69-0.29
				c0.27-0.23,0.64-0.17,0.89-0.42c0.16-0.16-0.09-0.41-0.25-0.25c-0.17,0.17-0.57,0.12-0.8,0.27c-0.22,0.14-0.01,0.2-0.41,0.33
				c-0.27,0.08-0.65,0.04-0.93,0.05c-1.09,0.05-2.18,0.06-3.27,0.05c-2.22-0.03-4.34-0.32-6.4-1.18
				C24.38,10.94,24.29,11.29,24.5,11.37L24.5,11.37z"/>
		</g>
	</g>
	<g>
		<g>
			<path d="M24.36,8.77c-0.38,0.34-0.51,0.9-0.35,1.39c0.08,0.24,0.22,0.46,0.39,0.64c0.09,0.09,0.18,0.16,0.28,0.24
				c0.07,0.06,0.16,0.13,0.17,0.23c0.01,0.1,0.07,0.18,0.18,0.18c0.09,0,0.19-0.08,0.18-0.18c-0.02-0.23-0.16-0.39-0.34-0.53
				c-0.18-0.15-0.34-0.3-0.44-0.51c-0.21-0.4-0.15-0.9,0.19-1.2C24.78,8.87,24.53,8.62,24.36,8.77L24.36,8.77z"/>
		</g>
	</g>
	<g>
		<g>
			<path d="M24.37,8.44c1.25,1.18,2.93,1.74,4.63,1.7c0.85-0.02,1.69-0.18,2.48-0.48c1.01-0.39,1.9-1.03,2.99-1.21
				c0.22-0.04,0.13-0.38-0.09-0.34c-0.91,0.15-1.69,0.62-2.52,1.01c-0.8,0.38-1.67,0.61-2.56,0.66c-1.7,0.11-3.42-0.4-4.68-1.59
				C24.45,8.04,24.2,8.29,24.37,8.44L24.37,8.44z"/>
		</g>
	</g>
	<g>
		<g>
			<path d="M24.81,6.12c-0.49,0.03-1.55,0.01-1.87,0.44C22.61,7,23.11,7.37,23.41,7.61c0.59,0.47,0.65,1.3,1.13,1.86
				c0.39,0.46,0.94,0.76,1.51,0.96c1.36,0.48,3.04,0.57,4.42,0.18c1.46-0.41,2.43-1.78,3.91-2.1c0.22-0.05,0.13-0.39-0.09-0.34
				c-1.08,0.23-1.85,1.03-2.76,1.59c-1.2,0.74-2.64,0.8-4.01,0.63c-1.13-0.14-2.43-0.51-3-1.6c-0.23-0.45-0.34-0.96-0.71-1.32
				c-0.2-0.2-0.77-0.52-0.28-0.81c0.31-0.18,0.95-0.17,1.29-0.19C25.04,6.46,25.04,6.1,24.81,6.12L24.81,6.12z"/>
		</g>
	</g>
	<g>
		<g>
			<path d="M25.28,5.68c-0.57,0.18-1.35,0.19-1.66,0.8c-0.25,0.5,0.04,0.9,0.48,1.15c0.7,0.38,1.6,0.33,2.36,0.37
				c1.06,0.05,2.13,0.09,3.19,0.12c2.12,0.07,4.27,0.19,6.38,0.09c0.54-0.03,1.51,0.02,1.9-0.45c0.26-0.31,0.19-0.69-0.12-0.92
				c-0.18-0.14-0.36,0.17-0.18,0.31c-0.06,0.39-0.24,0.59-0.55,0.6c-0.21,0.03-0.42,0.06-0.64,0.07c-0.32,0.03-0.64,0.04-0.97,0.04
				c-0.55,0.01-1.11,0-1.66-0.01c-1.2-0.02-2.41-0.04-3.61-0.08c-1.2-0.04-2.41-0.08-3.61-0.13c-0.56-0.03-1.16-0.01-1.72-0.13
				c-0.21-0.04-0.41-0.11-0.61-0.2c0.06-0.36,0.13-0.72,0.19-1.08c0.14-0.14,0.7-0.16,0.9-0.22C25.59,5.95,25.5,5.61,25.28,5.68
				L25.28,5.68z"/>
		</g>
	</g>
	<g>
		<g>
			<path d="M32.81,5.8c-2.72-0.26-5.5-0.52-8.2,0.05c-0.55,0.12-1.48,0.47-1.17,1.22c0.11,0.26,0.37,0.39,0.62,0.49
				c0.64,0.24,1.36,0.36,2.03,0.49c2.72,0.52,5.5,0.6,8.26,0.55c0.64-0.01,1.29-0.03,1.93-0.06c0.5-0.02,1.17,0.06,1.63-0.19
				c0.52-0.27,0.63-0.87,0.17-1.25c-0.47-0.38-1.25-0.56-1.82-0.73c-0.63-0.18-1.28-0.31-1.94-0.39c-1.43-0.17-2.87-0.06-4.27,0.27
				c-0.22,0.05-0.13,0.4,0.09,0.34c1.24-0.3,2.51-0.41,3.79-0.3c0.67,0.06,1.33,0.17,1.98,0.35c0.25,0.07,0.5,0.14,0.74,0.22
				c0.23,0.08,1.01,0.25,1.08,0.44c-0.03,0.26-0.07,0.52-0.1,0.77c-0.18,0.04-0.35,0.07-0.54,0.07c-0.32,0.03-0.64,0.03-0.96,0.04
				c-0.6,0.02-1.19,0.04-1.79,0.05c-1.29,0.03-2.57,0.02-3.86-0.04c-1.31-0.07-2.61-0.19-3.9-0.42c-0.58-0.1-1.17-0.22-1.74-0.37
				c-0.22-0.06-1.67-0.31-0.77-1.04c0.15-0.12,0.58-0.18,0.76-0.21c2.62-0.53,5.33-0.26,7.97-0.01C33.03,6.17,33.03,5.82,32.81,5.8
				L32.81,5.8z"/>
		</g>
	</g>
</g>
</svg>
