<?xml version="1.0" encoding="utf-8"?>
<!-- Generator: Adobe Illustrator 26.2.1, SVG Export Plug-In . SVG Version: 6.00 Build 0)  -->
<svg version="1.1" id="Layer_1" xmlns="http://www.w3.org/2000/svg" xmlns:xlink="http://www.w3.org/1999/xlink" x="0px" y="0px"
	 viewBox="0 0 56.69 56.69" style="enable-background:new 0 0 56.69 56.69;" xml:space="preserve">
<g>
	<g>
		<g>
			<path d="M39.34,13.71c-2.28,3.59-4.84,7.98-3.11,12.33c1.44,3.61,5.05,6.03,5.7,9.99c0.11-0.03,0.23-0.06,0.34-0.09
				c-0.37-1.22-0.74-2.44-1.12-3.66c-0.07-0.22-0.41-0.13-0.34,0.09c1.03,3.45,1.65,6.98,1.83,10.57c0.01,0.14,0.2,0.25,0.3,0.13
				c0.5-0.6,0.24-0.95-0.4-1.16c-1.88-0.64-3.76-1.27-5.65-1.9c-0.22-0.07-0.3,0.26-0.09,0.34c1.74,0.66,3.8,1.45,5.68,1.52
				c0.92,0.04,1.15-0.46,1.11-1.33c-0.14-3.07-0.73-6.58-2.68-9.05c-1.21-1.53-2.91-2.61-3.86-4.36c-0.95-1.75-1.2-3.88-0.65-5.8
				c0.89-3.12,3.82-5.22,4.2-8.54c0.01-0.09-0.09-0.19-0.18-0.18c-0.46,0.06-0.64,0.17-0.85,0.59c-0.1,0.2,0.21,0.38,0.31,0.18
				c0.31,0,0.37,0.14,0.18,0.43c-0.04,0.11-0.07,0.23-0.11,0.34c-0.15,0.44-0.35,0.86-0.57,1.27c-0.35,0.65-0.77,1.26-1.18,1.87
				c-0.74,1.09-1.51,2.17-1.96,3.41c-0.93,2.51-0.48,5.44,1.13,7.57c0.95,1.26,2.27,2.19,3.25,3.42c1.06,1.33,1.65,2.91,2.02,4.56
				c0.2,0.89,0.33,1.8,0.44,2.71c0.12,1.05,0.67,2.33-0.99,2.49c-0.76,0.08-1.9-0.39-2.63-0.59c-0.87-0.24-1.72-0.53-2.56-0.85
				c-0.03,0.11-0.06,0.23-0.09,0.34c1.02,0.34,2.04,0.69,3.06,1.03c0.29,0.1,3.26,0.92,2.83,1.44c0.1,0.04,0.2,0.08,0.3,0.13
				c-0.19-3.63-0.8-7.19-1.84-10.67c-0.11,0.03-0.23,0.06-0.34,0.09c0.37,1.22,0.74,2.44,1.12,3.66c0.07,0.22,0.38,0.13,0.34-0.09
				c-0.57-3.52-3.46-5.84-5.13-8.82c-2.58-4.59-0.03-9.25,2.5-13.23C39.77,13.7,39.46,13.52,39.34,13.71L39.34,13.71z"/>
		</g>
	</g>
	<g>
		<g>
			<path d="M12.09,44.04c2.29,1.49,4.97,2.08,7.59,2.75c2.8,0.72,5.62,1.61,8.49,2.02c2.57,0.37,4.92,0.1,7.18-1.2
				c2.8-1.61,5.97-2.33,9.05-3.25c0.08-0.02,0.12-0.09,0.13-0.17c0.71-5.81-1.09-11.31-4.71-15.84c-1.08-1.35-2.07-2.74-1.97-4.55
				c0.08-1.42,0.74-2.75,1.37-4c0.53-1.05,1.09-2.09,1.49-3.2c0.17-0.49,0.31-1,0.39-1.52c0.11-0.78,0.14-0.74,0.74-1.18
				c0.18-0.13,0.01-0.44-0.18-0.31c-0.2,0.18-0.44,0.29-0.72,0.31c-0.08,0.01-0.13,0.1-0.13,0.17c-0.04,3.62-3.23,6.3-3.32,9.88
				c-0.04,1.61,0.75,2.94,1.71,4.17c1.42,1.83,2.71,3.61,3.61,5.76c0.87,2.11,1.39,4.36,1.52,6.64c0.05,0.9,0.21,2.18-0.07,3.05
				c-0.3,0.94-2.46,1.19-3.35,1.46c-2.19,0.66-4.09,1.37-6.09,2.47c-2.33,1.28-4.9,1.27-7.45,0.8c-2.56-0.47-5.07-1.23-7.59-1.88
				c-2.58-0.67-5.24-1.24-7.5-2.72C12.07,43.61,11.9,43.91,12.09,44.04L12.09,44.04z"/>
		</g>
	</g>
	<g>
		<g>
			<path d="M24.29,13.99c1.68-0.37,3.45-0.07,5.16-0.27c0.79-0.09,1.57-0.24,2.33-0.45c0.4-0.11,0.8-0.23,1.2-0.37
				c0.17-0.06,0.34-0.12,0.5-0.19c0.11-0.04,0.22-0.09,0.33-0.13c0.22-0.03,0.24-0.15,0.07-0.35c-0.21-0.08-0.3,0.26-0.09,0.34
				c0.1,0.04,0.14,0.04,0.25,0.01c0.06-0.01,0.11-0.07,0.12-0.12c0.02-0.11,0.01-0.17-0.07-0.26c-0.04-0.05-0.12-0.06-0.17-0.05
				c-0.76,0.21-1.47,0.57-2.24,0.77c-0.85,0.23-1.72,0.39-2.6,0.47c-1.63,0.16-3.29-0.11-4.9,0.25
				C23.97,13.7,24.07,14.04,24.29,13.99L24.29,13.99z"/>
		</g>
	</g>
	<g>
		<g>
			<path d="M18.02,42.13c0.16-0.65,0.8-0.96,1.35-1.22c0.73-0.34,1.46-0.68,2.19-1.01c0.69-0.31,1.39-0.54,2.13-0.67
				c0.74-0.13,1.5-0.19,2.24-0.32c0.22-0.04,0.13-0.38-0.09-0.34c-0.82,0.14-1.64,0.2-2.46,0.36c-0.8,0.15-1.53,0.45-2.26,0.79
				c-0.77,0.35-1.55,0.68-2.3,1.07c-0.52,0.28-1.01,0.65-1.15,1.25C17.63,42.25,17.97,42.35,18.02,42.13L18.02,42.13z"/>
		</g>
	</g>
	<g>
		<g>
			<path d="M20.34,41.57c-0.53,0.28-0.48,1.02-0.08,1.4c0.26,0.24,0.62,0.33,0.96,0.37c0.55,0.07,1.1,0.1,1.65,0.18
				c2.3,0.31,4.59,0.84,6.92,0.53c0.22-0.03,0.23-0.38,0-0.35c-1.79,0.24-3.57-0.02-5.34-0.29c-0.81-0.13-1.62-0.25-2.44-0.34
				c-0.37-0.04-0.76-0.03-1.11-0.15c-0.38-0.12-0.93-0.74-0.38-1.04C20.72,41.76,20.54,41.46,20.34,41.57L20.34,41.57z"/>
		</g>
	</g>
	<g>
		<g>
			<path d="M20.11,42.6c-0.12,0-0.2-0.08-0.22-0.19c-0.02-0.14,0.07-0.28,0.16-0.37c0.21-0.2,0.54-0.28,0.81-0.36
				c0.64-0.19,1.29-0.35,1.93-0.52c0.22-0.06,0.13-0.4-0.09-0.34c-0.43,0.12-0.86,0.23-1.3,0.35c-0.4,0.11-0.81,0.21-1.2,0.38
				c-0.32,0.14-0.63,0.38-0.67,0.75c-0.04,0.34,0.22,0.68,0.57,0.67C20.33,42.95,20.34,42.59,20.11,42.6L20.11,42.6z"/>
		</g>
	</g>
	<g>
		<g>
			<path d="M29.34,41.79c-1.07-0.39-2.35-0.49-3.3,0.25c-0.16,0.13-0.36,0.29-0.34,0.52c0.02,0.21,0.18,0.34,0.36,0.42
				c0.24,0.11,0.53,0.13,0.79,0.16c0.34,0.04,0.68,0.05,1.02,0.04c0.64-0.02,1.27-0.1,1.9-0.19c0.24-0.04,0.55-0.04,0.73-0.23
				c0.14-0.15,0.18-0.37,0.05-0.54c-0.14-0.17-0.41-0.24-0.61-0.32c-0.3-0.12-0.61-0.22-0.93-0.31c-0.59-0.16-1.21-0.24-1.82-0.19
				c-0.33,0.03-0.65,0.09-0.96,0.19c-0.25,0.09-0.55,0.19-0.72,0.4c-0.33,0.42,0.08,1.05,0.6,0.83c0.21-0.09,0.12-0.43-0.09-0.34
				c-0.11,0.05-0.23,0.03-0.26-0.1c-0.03-0.12,0.05-0.2,0.14-0.26c0.16-0.11,0.37-0.18,0.55-0.23c0.39-0.12,0.81-0.17,1.22-0.15
				c0.84,0.02,1.66,0.28,2.43,0.6c0.38,0.16-0.07,0.25-0.24,0.27c-0.23,0.03-0.46,0.07-0.69,0.1c-0.43,0.06-0.87,0.1-1.3,0.11
				c-0.45,0.01-0.9-0.01-1.34-0.08c-0.09-0.02-0.46-0.05-0.48-0.19c-0.01-0.07,0.18-0.2,0.22-0.24c0.08-0.06,0.17-0.12,0.27-0.17
				c0.84-0.46,1.84-0.31,2.7,0C29.46,42.21,29.56,41.86,29.34,41.79L29.34,41.79z"/>
		</g>
	</g>
	<g>
		<g>
			<path d="M28.23,41.85c-0.05-0.07-0.12-0.12-0.2-0.15c-0.07-0.02-0.15-0.02-0.22,0c-0.07,0.02-0.14,0.06-0.2,0.11
				c-0.06,0.06-0.1,0.13-0.13,0.21c-0.03,0.07-0.04,0.15-0.04,0.22c0,0.03-0.01,0.06-0.01,0.09c0,0.04,0,0.08,0.02,0.12
				c0.02,0.03,0.05,0.06,0.08,0.08c0.13,0.09,0.33,0.09,0.46,0c0.08-0.06,0.14-0.14,0.17-0.23c0.01-0.04,0.02-0.09,0.01-0.13
				c0-0.06-0.02-0.11-0.04-0.16c-0.1,0.06-0.2,0.12-0.31,0.18c0.03,0.04,0.06,0.07,0.1,0.1c0.03,0.02,0.07,0.04,0.1,0.05
				c0.07,0.02,0.16,0.03,0.23,0c0.03-0.01,0.07-0.03,0.09-0.05c0.03-0.03,0.04-0.06,0.05-0.1c0.01-0.04,0.02-0.08,0.02-0.12
				c0-0.08-0.02-0.17-0.07-0.24c-0.05-0.08-0.16-0.12-0.24-0.06c-0.08,0.05-0.12,0.16-0.06,0.24c0.01,0.01,0.01,0.02,0.02,0.03
				c0.02,0.03-0.01-0.03,0-0.01c0.01,0.02,0.01,0.03,0.01,0.05c0-0.02,0-0.03-0.01-0.05c0,0.03,0,0.05,0,0.08
				c0-0.02,0-0.03,0.01-0.05c0,0.02-0.01,0.04-0.01,0.06c0.04-0.04,0.08-0.08,0.12-0.12c-0.02,0.01-0.03,0.01-0.05,0.01
				c0.02,0,0.03,0,0.05-0.01c-0.02,0-0.03,0-0.05,0c0.02,0,0.03,0,0.05,0.01c-0.01,0-0.02,0-0.03-0.01c0,0-0.01-0.01-0.02-0.01
				c0,0,0.04,0.02,0.01,0.01c-0.01,0-0.04-0.03-0.01-0.01c0.02,0.02,0.01,0,0,0c-0.01-0.01-0.02-0.03,0.01,0.01
				c-0.03-0.04-0.06-0.07-0.11-0.08c-0.04-0.01-0.1-0.01-0.14,0.02c-0.04,0.02-0.07,0.06-0.08,0.11c-0.01,0.05,0,0.09,0.02,0.14
				c-0.02-0.06,0,0,0,0.01c0-0.02,0-0.03-0.01-0.05c0,0.02,0,0.04,0,0.07c0-0.02,0-0.03,0.01-0.05c0,0.01,0,0.02-0.01,0.03
				c0,0.01,0,0.01,0,0.02c-0.01,0.02,0,0.01,0.01-0.02c-0.01,0.01-0.01,0.02-0.02,0.03c-0.01,0.03,0.03-0.03,0,0
				c0,0-0.01,0.01-0.01,0.01c-0.01,0.01-0.01,0.01,0.02-0.01c-0.01,0-0.02,0.01-0.03,0.02c-0.02,0.01-0.01,0.01,0.02-0.01
				c-0.01,0-0.01,0-0.02,0.01c-0.01,0-0.02,0.01-0.03,0.01c0.02,0,0.03,0,0.05-0.01c-0.02,0-0.05,0-0.07,0c0.02,0,0.03,0,0.05,0.01
				c-0.01,0-0.02,0-0.03-0.01c-0.02,0-0.03-0.02,0.01,0.01c-0.01,0-0.02-0.01-0.02-0.01c-0.04-0.02,0.02,0.02,0,0
				c0.02,0.04,0.03,0.08,0.05,0.13c0-0.05,0.01-0.09,0.01-0.14c0,0.02,0,0.03-0.01,0.05c0.01-0.04,0.01-0.08,0.03-0.12
				c0-0.01,0.01-0.02,0.01-0.03c0.01-0.03-0.02,0.04,0,0c0.01-0.02,0.03-0.04,0.03-0.05c-0.02,0.02-0.02,0.03-0.01,0.02
				c0,0,0-0.01,0.01-0.01c0.01-0.01,0.01-0.01,0.02-0.02c0.03-0.03-0.02,0.01-0.01,0.01c0.01,0,0.02-0.01,0.02-0.01
				c0.01,0,0.01-0.01,0.02-0.01c-0.04,0.02-0.03,0.01-0.01,0.01c0.02-0.01,0.03-0.01,0.05-0.01c-0.02,0-0.03,0-0.05,0.01
				c0.02,0,0.04,0,0.06,0c-0.02,0-0.03,0-0.05-0.01c0.01,0,0.02,0,0.03,0.01c0,0,0.01,0,0.01,0c0,0-0.05-0.02-0.02-0.01
				c0.01,0,0.04,0.02,0.01,0c-0.02-0.02-0.01-0.01,0,0c0.01,0.01,0.02,0.03-0.01-0.02c0.03,0.04,0.06,0.07,0.11,0.08
				c0.04,0.01,0.1,0.01,0.14-0.02C28.24,42.04,28.29,41.93,28.23,41.85L28.23,41.85z"/>
		</g>
	</g>
	<g>
		<g>
			<path d="M19.17,41.13c2.55-1.61,5.54-2.05,8.5-2.04c1.37,0.01,2.76,0.07,4.12,0.23c0.53,0.06,5.13,0.99,4.31,1.94
				c-0.15,0.17,0.1,0.42,0.25,0.25c0.8-0.93-0.82-1.58-1.47-1.83c-1.66-0.65-3.46-0.79-5.22-0.88c-3.67-0.19-7.48,0.01-10.67,2.02
				C18.8,40.94,18.97,41.25,19.17,41.13L19.17,41.13z"/>
		</g>
	</g>
	<g>
		<g>
			<path d="M18.5,40.76c0.18,0.2,0.05,0.62-0.05,0.81c-0.06,0.11-0.13,0.22-0.2,0.33c-0.09,0.17-0.19,0.36-0.21,0.56
				c-0.04,0.41,0.2,0.69,0.55,0.87c1.13,0.57,2.51,0.85,3.74,1.12c2.68,0.58,5.43,0.73,8.16,0.47c0.23-0.02,0.23-0.38,0-0.35
				c-2.62,0.25-5.26,0.12-7.84-0.41c-1.22-0.25-2.43-0.57-3.59-1.02c-0.4-0.15-0.78-0.24-0.55-0.96c0.04-0.13,0.14-0.24,0.21-0.36
				c0.08-0.15,0.17-0.3,0.21-0.47c0.09-0.32,0.04-0.59-0.18-0.84C18.6,40.33,18.35,40.59,18.5,40.76L18.5,40.76z"/>
		</g>
	</g>
	<g>
		<g>
			<path d="M18.41,40.31c-0.93,0.35-1.85,0.71-2.78,1.06c-0.49,0.19-1.43,0.33-1.78,0.75c-0.38,0.45-0.38,1.38-0.17,1.9
				c0.39,0.98,1.98,1.13,2.83,1.4c1.86,0.6,3.71,1.19,5.57,1.79c2.95,0.95,6.36,2.5,9.45,1.27c1.64-0.65,3.15-1.42,4.86-1.91
				c1.65-0.47,3.37-0.85,4.93-1.6c0.21-0.1,0.03-0.4-0.18-0.31c-2.44,1.18-5.22,1.42-7.69,2.5c-1.31,0.57-2.44,1.29-3.91,1.4
				c-1.49,0.11-2.99-0.31-4.39-0.75c-2.62-0.81-5.23-1.68-7.84-2.52c-0.62-0.2-1.24-0.4-1.86-0.6c-0.6-0.19-1.36-0.63-1.52-1.33
				c-0.06-0.26,0.1-0.91,0.26-1.07c0.38-0.38,1.48-0.57,2-0.77c0.77-0.29,1.54-0.59,2.31-0.88C18.72,40.57,18.62,40.23,18.41,40.31
				L18.41,40.31z"/>
		</g>
	</g>
	<g>
		<g>
			<path d="M22.84,27.35c-0.42-0.23-1.04-0.55-1.05-1.1c-0.01-0.61,0.64-0.88,1.13-1c1.04-0.24,2.14-0.33,3.2-0.43
				c2.11-0.21,4.25-0.23,6.32,0.33c-0.03-0.1-0.05-0.2-0.08-0.3c-0.13,0.1-0.26,0.21-0.4,0.31c-0.18,0.14,0.07,0.39,0.25,0.25
				c0.13-0.1,0.26-0.21,0.4-0.31c0.11-0.08,0.04-0.26-0.08-0.3c-2.65-0.72-5.4-0.51-8.09-0.14c-0.92,0.13-2.38,0.1-2.88,1.07
				c-0.46,0.89,0.4,1.55,1.09,1.92C22.86,27.77,23.04,27.46,22.84,27.35L22.84,27.35z"/>
		</g>
	</g>
	<g>
		<g>
			<path d="M20.36,27.75c-0.8,0.41-1.6,0.82-2.4,1.24c-0.54,0.28-1.03,0.57-1.4,1.06c-0.81,1.08-1.08,2.69-0.84,4.01
				c0.24,1.32,1.04,2.46,1.95,3.41c0.29,0.3,0.61,0.59,0.82,0.95c0.35,0.58,0.09,0.9,0.02,1.49c-0.04,0.35,0.09,0.62,0.42,0.75
				c-0.04-0.09-0.07-0.17-0.11-0.26c-0.05,0.04-0.09,0.08-0.14,0.12c-0.2,0.1-0.02,0.41,0.18,0.31c0.16-0.08,0.17-0.1,0.27-0.25
				c0.07-0.11-0.01-0.22-0.11-0.26c-0.18-0.07-0.07-0.6-0.04-0.75c0.03-0.12,0.07-0.23,0.08-0.36c0.02-0.21-0.01-0.4-0.08-0.59
				c-0.15-0.44-0.47-0.79-0.78-1.12c-0.89-0.95-1.74-1.96-2.07-3.25c-0.33-1.31-0.09-3.03,0.79-4.09c0.43-0.52,1.07-0.79,1.66-1.1
				c0.66-0.34,1.31-0.67,1.97-1.01C20.74,27.95,20.56,27.64,20.36,27.75L20.36,27.75z"/>
		</g>
	</g>
	<g>
		<g>
			<path d="M30.88,18.07c1.47,2,1.79,4.73,0.79,7.01c-0.09,0.21,0.21,0.39,0.31,0.18c1.05-2.39,0.76-5.25-0.79-7.36
				C31.05,17.71,30.74,17.89,30.88,18.07L30.88,18.07z"/>
		</g>
	</g>
	<g>
		<g>
			<path d="M15.45,14.18c1.18,0.94,2.68,1.09,4.14,1.1c0.97,0.01,1.93-0.01,2.89,0.13c0.74,0.1,1.84,0.12,2.39,0.68
				c0.16,0.16,0.41-0.09,0.25-0.25c-0.48-0.48-1.18-0.54-1.82-0.65c-0.87-0.15-1.73-0.25-2.6-0.26c-1.7-0.02-3.58,0.13-4.99-0.99
				C15.52,13.79,15.27,14.04,15.45,14.18L15.45,14.18z"/>
		</g>
	</g>
	<g>
		<g>
			<path d="M15.78,14.35c1.95,0.62,4.08,0.71,6.08,1.14c1.83,0.39,3.68,0.84,5.57,0.87c1.88,0.03,3.66-0.51,5.46-1
				c2.2-0.59,4.4-1.18,6.6-1.78c-0.05-0.11-0.09-0.22-0.14-0.32c-0.28,0.19-0.5,0.38-0.72,0.64c-0.15,0.17,0.1,0.42,0.25,0.25
				c0.18-0.24,0.39-0.43,0.65-0.59c0.16-0.11,0.07-0.38-0.14-0.32c-2.05,0.55-4.1,1.11-6.16,1.66c-1.91,0.51-3.81,1.14-5.81,1.1
				c-2-0.04-3.95-0.54-5.9-0.95c-1.87-0.39-3.83-0.47-5.65-1.05C15.66,13.94,15.56,14.28,15.78,14.35L15.78,14.35z"/>
		</g>
	</g>
	<g>
		<g>
			<path d="M19.17,11.6c-0.59,0.27-1.18,0.54-1.77,0.8c-0.28,0.13-0.57,0.25-0.85,0.39c-0.21,0.1-0.42,0.23-0.56,0.43
				c-0.14,0.21-0.15,0.46-0.08,0.7c0.04,0.13,0.09,0.26,0.13,0.39c0.03,0.13,0.05,0.27,0.09,0.4c0.06,0.23,0.19,0.42,0.41,0.52
				c0.2,0.09,0.42,0.07,0.58-0.09c0.16-0.16-0.09-0.41-0.25-0.25c-0.11,0.12-0.29-0.04-0.34-0.14c-0.1-0.2-0.1-0.43-0.16-0.64
				c-0.06-0.19-0.18-0.4-0.12-0.6c0.06-0.17,0.23-0.28,0.39-0.36c0.42-0.23,0.87-0.4,1.31-0.6c0.47-0.21,0.94-0.43,1.41-0.64
				C19.56,11.81,19.38,11.51,19.17,11.6L19.17,11.6z"/>
		</g>
	</g>
	<g>
		<g>
			<path d="M18.92,12.65c1.62,1.4,3.76,1.06,5.73,1.01c2.34-0.05,4.67,0.31,6.99-0.06c0.22-0.04,0.13-0.38-0.09-0.34
				c-2.13,0.34-4.27,0.05-6.41,0.05c-1.99,0-4.32,0.53-5.97-0.9C19,12.25,18.75,12.5,18.92,12.65L18.92,12.65z"/>
		</g>
	</g>
	<g>
		<g>
			<path d="M29.95,22.13c-0.16-0.31-0.34-0.65-0.3-1.02c0.02-0.15,0.08-0.29,0.19-0.4c0.12-0.12,0.25-0.23,0.33-0.38
				c-0.05,0.03-0.1,0.06-0.15,0.09c0.07,0,0.14,0,0.21,0c0.23-0.01,0.23-0.36,0-0.35c-0.13,0-0.28-0.02-0.37,0.09
				c-0.06,0.09-0.13,0.16-0.2,0.23c-0.16,0.16-0.29,0.33-0.34,0.56c-0.11,0.49,0.1,0.94,0.32,1.37
				C29.75,22.51,30.05,22.33,29.95,22.13L29.95,22.13z"/>
		</g>
	</g>
	<g>
		<g>
			<path d="M22.58,29.7c0.38-0.06,0.7,0.25,0.95,0.49c0.07-0.09,0.14-0.19,0.21-0.28c-0.55-0.36-1.23-0.43-1.84-0.19
				c0.06,0.1,0.11,0.2,0.17,0.3c0.46-0.42,0.91-0.13,1.35,0.13c0.41,0.24,0.88,0.33,1.33,0.46c0.89,0.25,1.9,0.66,2.82,0.32
				c0.21-0.08,0.12-0.42-0.09-0.34c-0.55,0.2-1.11,0.09-1.66-0.05c-0.54-0.14-1.07-0.29-1.6-0.44c-0.25-0.07-0.48-0.16-0.7-0.3
				c-0.19-0.12-0.39-0.26-0.61-0.32c-0.39-0.1-0.79,0.02-1.09,0.29c-0.13,0.11,0.01,0.36,0.17,0.3c0.53-0.21,1.09-0.15,1.57,0.16
				c0.17,0.11,0.36-0.14,0.21-0.28c-0.36-0.35-0.76-0.66-1.29-0.58C22.26,29.4,22.35,29.74,22.58,29.7L22.58,29.7z"/>
		</g>
	</g>
	<g>
		<g>
			<path d="M23.07,29.38c-0.21-0.11-0.43-0.22-0.67-0.23c-0.23-0.01-0.44,0.09-0.59,0.27c-0.14,0.17-0.27,0.36-0.33,0.58
				c-0.06,0.23-0.03,0.48-0.02,0.71c0.01,0.1,0.08,0.18,0.18,0.18c0.09,0,0.18-0.08,0.18-0.18c-0.01-0.18-0.04-0.38-0.01-0.56
				c0.03-0.16,0.12-0.32,0.22-0.44c0.1-0.13,0.21-0.2,0.37-0.19c0.18,0.01,0.34,0.1,0.49,0.18c0.08,0.05,0.19,0.02,0.24-0.06
				C23.18,29.54,23.15,29.43,23.07,29.38L23.07,29.38z"/>
		</g>
	</g>
	<g>
		<g>
			<path d="M20.36,34.38c-0.03,0.19-0.19,0.33-0.18,0.53c0.01,0.17,0.12,0.31,0.29,0.34c0.19,0.03,0.36-0.03,0.55,0.04
				c0.21,0.08,0.32,0.24,0.45,0.41c0.12,0.16,0.27,0.27,0.46,0.32c0.21,0.06,0.42,0.07,0.63,0.14c0.43,0.16,0.84,0.43,1.32,0.27
				c-0.07-0.03-0.13-0.05-0.2-0.08c0.07,0.14,0.08,0.3,0.05,0.45c0.07-0.04,0.15-0.08,0.22-0.12c-0.2-0.04-0.42-0.09-0.61-0.19
				c-0.16-0.08-0.14-0.3-0.29-0.42c-0.29-0.22-0.73-0.31-1.08-0.3c-0.18,0-0.39,0.08-0.57,0.02c-0.16-0.06-0.3-0.19-0.41-0.31
				c-0.25-0.27-0.41-0.62-0.45-0.98c-0.04,0.06-0.09,0.11-0.13,0.17c0.1-0.03,0.2-0.06,0.3-0.09c0.22-0.07,0.12-0.41-0.09-0.34
				c-0.1,0.03-0.2,0.06-0.3,0.09c-0.07,0.02-0.14,0.09-0.13,0.17c0.04,0.39,0.18,0.76,0.42,1.08c0.22,0.29,0.56,0.6,0.95,0.59
				c0.23-0.01,0.44-0.06,0.67-0.03c0.18,0.02,0.53,0.08,0.65,0.24c0.05,0.07,0.05,0.18,0.1,0.26c0.06,0.08,0.13,0.13,0.22,0.17
				c0.21,0.1,0.44,0.17,0.67,0.22c0.09,0.02,0.2-0.03,0.22-0.12c0.05-0.25,0.02-0.49-0.09-0.72c-0.03-0.07-0.13-0.1-0.2-0.08
				c-0.39,0.13-0.75-0.13-1.1-0.26c-0.17-0.07-0.34-0.09-0.52-0.13c-0.2-0.04-0.33-0.1-0.45-0.27c-0.19-0.26-0.41-0.46-0.73-0.53
				c-0.07-0.02-0.15-0.03-0.23-0.03c-0.04,0-0.19,0.04-0.21,0.02c-0.05-0.04,0.14-0.34,0.15-0.43
				C20.74,34.25,20.4,34.15,20.36,34.38L20.36,34.38z"/>
		</g>
	</g>
	<g>
		<g>
			<path d="M25.85,34.55c0.23,0,0.23-0.35,0-0.35C25.62,34.2,25.62,34.55,25.85,34.55L25.85,34.55z"/>
		</g>
	</g>
	<g>
		<g>
			<path d="M20.95,31.97c0.91,1.26,2.38,1.87,3.8,2.37c0.02-0.12,0.03-0.23,0.05-0.35c-0.41-0.03-0.77-0.25-1.13-0.43
				c-0.37-0.19-0.75-0.38-1.12-0.57c-0.33-0.17-0.67-0.32-0.98-0.51c-0.13-0.08-0.27-0.18-0.34-0.32c-0.03-0.06-0.07-0.14-0.06-0.21
				c0.02-0.13,0.12-0.18,0.11-0.01c0.12-0.02,0.23-0.03,0.35-0.05c-0.03-0.08-0.07-0.16-0.1-0.24c-0.1,0.06-0.2,0.11-0.3,0.17
				c0.31,0.38,0.63,0.75,0.97,1.11c-0.01-0.07-0.02-0.14-0.03-0.21c0.03-0.01,0.06-0.02,0.1-0.03c0.02,0.04,0.03,0.08,0.05,0.13
				c-0.04,0.01-0.09,0.02-0.13,0.03c0.01,0.02,0.02,0.03,0.03,0.05c0.01,0.04,0.06,0.1,0.09,0.14c0.06,0.08,0.14,0.15,0.22,0.21
				c0.16,0.12,0.34,0.21,0.53,0.27c0.22,0.07,0.46,0.1,0.69,0.14c0.13,0.02,0.26,0.04,0.39,0.07c0.07,0.02,0.14,0.03,0.21,0.06
				c0.02,0.01,0.25,0.11,0.22,0.13c0.06,0.1,0.11,0.2,0.17,0.3c0.11-0.11,0.31-0.31,0.48-0.31c-0.04-0.02-0.08-0.03-0.13-0.05
				c0.01,0.01,0.03,0.02,0.04,0.03c-0.02-0.04-0.03-0.08-0.05-0.13c0.02,0.19-0.03,0.33,0.1,0.49c0.14,0.17,0.36,0.23,0.57,0.27
				c0.02-0.12,0.03-0.23,0.05-0.35c-0.05-0.01-0.11-0.01-0.16-0.02c-0.23-0.03-0.22,0.33,0,0.35c0.05,0.01,0.11,0.01,0.16,0.02
				c0.2,0.02,0.24-0.31,0.05-0.35c-0.12-0.02-0.28-0.04-0.36-0.12c-0.1-0.09-0.04-0.13-0.04-0.24c0-0.12-0.06-0.22-0.18-0.26
				c-0.27-0.08-0.61,0.24-0.78,0.4c-0.12,0.12,0,0.37,0.17,0.3c0.42-0.17,0.23-0.64-0.11-0.77c-0.51-0.2-1.1-0.13-1.6-0.37
				c-0.1-0.05-0.2-0.11-0.29-0.19c-0.09-0.08-0.13-0.19-0.2-0.28c-0.11-0.13-0.3-0.17-0.42-0.03c-0.28,0.29,0.2,0.64,0.44,0.31
				c0.05-0.06,0.02-0.16-0.03-0.21c-0.34-0.36-0.66-0.72-0.97-1.11c-0.11-0.13-0.36,0.01-0.3,0.17c0.03,0.08,0.07,0.16,0.1,0.24
				c0.07,0.18,0.34,0.16,0.35-0.05c0.03-0.46-0.52-0.66-0.75-0.24c-0.23,0.42,0.14,0.85,0.47,1.07c0.53,0.35,1.15,0.6,1.71,0.89
				c0.54,0.28,1.1,0.65,1.73,0.69c0.21,0.01,0.23-0.29,0.05-0.35c-1.32-0.46-2.74-1.02-3.58-2.2
				C21.12,31.61,20.82,31.79,20.95,31.97L20.95,31.97z"/>
		</g>
	</g>
	<g>
		<g>
			<path d="M20.32,34.23c-0.06,0.48,0.27,0.88,0.62,1.15c0.18,0.14,0.37,0.28,0.57,0.4c0.1,0.06,0.2,0.12,0.3,0.16
				c0.06,0.03,0.12,0.05,0.18,0.07c0.02,0.01,0.05,0.02,0.07,0.03c0.02,0.01,0.03,0.01,0.05,0.02c0.03,0.01,0.02,0.01-0.01-0.01
				c-0.02-0.03-0.03-0.05-0.05-0.08c0.01,0.02,0,0.09,0.01,0.12c0.01,0.06,0.03,0.11,0.06,0.16c0.06,0.1,0.15,0.17,0.26,0.21
				c0.09,0.03,0.19-0.04,0.22-0.12c0.03-0.1-0.03-0.18-0.12-0.22c-0.08-0.03-0.07-0.11-0.07-0.18c-0.01-0.15-0.12-0.2-0.24-0.24
				c-0.24-0.08-0.47-0.22-0.68-0.36c-0.37-0.26-0.88-0.6-0.81-1.12c0.01-0.1-0.09-0.18-0.18-0.18
				C20.39,34.05,20.33,34.13,20.32,34.23L20.32,34.23z"/>
		</g>
	</g>
	<g>
		<g>
			<path d="M20.57,33.35c-0.02,0.36-0.04,0.72,0,1.07c0.02,0.18,0.05,0.36,0.09,0.53c0.04,0.17,0.08,0.34,0.05,0.51
				c-0.02,0.09,0.03,0.19,0.12,0.22c0.09,0.02,0.2-0.03,0.22-0.12c0.07-0.38-0.08-0.73-0.12-1.1c-0.04-0.37-0.02-0.74,0-1.12
				C20.93,33.12,20.58,33.12,20.57,33.35L20.57,33.35z"/>
		</g>
	</g>
	<g>
		<g>
			<path d="M35.45,38.36c-1.17,0.9-2.66,1.08-4.08,1.3c-0.74,0.11-1.47,0.28-2.2,0.4c-0.73,0.11-1.46,0.13-2.2,0.16
				c-0.23,0.01-0.23,0.36,0,0.35c0.77-0.03,1.53-0.05,2.29-0.17c0.79-0.12,1.57-0.3,2.36-0.42c1.44-0.22,2.9-0.45,4.08-1.37
				C35.88,38.47,35.63,38.22,35.45,38.36L35.45,38.36z"/>
		</g>
	</g>
	<g>
		<g>
			<path d="M33.71,31.96c-0.3,1.15-1.62,1.41-2.64,1.53c-0.92,0.11-1.86,0.13-2.79,0.15c-2.05,0.04-4.01-0.29-5.64-1.63
				c-0.18-0.14-0.43,0.11-0.25,0.25c1.83,1.5,4.01,1.79,6.31,1.72c1.64-0.05,4.8,0.15,5.34-1.92C34.1,31.83,33.76,31.74,33.71,31.96
				L33.71,31.96z"/>
		</g>
	</g>
	<g>
		<g>
			<path d="M34.83,34.7c0.08,0.87-1.37,1.11-1.99,1.23c-0.77,0.16-1.56,0.26-2.34,0.37c-1.68,0.23-3.39,0.36-5.08,0.08
				c-0.22-0.04-0.32,0.3-0.09,0.34c1.94,0.33,3.89,0.12,5.82-0.16c0.94-0.14,1.91-0.24,2.81-0.56c0.6-0.21,1.3-0.56,1.23-1.3
				C35.16,34.48,34.81,34.47,34.83,34.7L34.83,34.7z"/>
		</g>
	</g>
	<g>
		<g>
			<path d="M19.9,37.21c0.13,0.43,0.48,0.72,0.87,0.91c0.49,0.24,1.02,0.4,1.54,0.54c-0.04-0.07-0.08-0.15-0.12-0.22
				c-0.01,0.05-0.03,0.1-0.04,0.15c-0.03,0.09,0.03,0.19,0.12,0.22c0.69,0.21,1.41,0.29,2.13,0.22c0.23-0.02,0.23-0.38,0-0.35
				c-0.69,0.06-1.38-0.01-2.04-0.21c0.04,0.07,0.08,0.15,0.12,0.22c0.01-0.05,0.03-0.1,0.04-0.15c0.03-0.09-0.03-0.19-0.12-0.22
				c-0.45-0.12-0.91-0.26-1.34-0.45c-0.35-0.15-0.71-0.37-0.83-0.75C20.17,36.9,19.83,36.99,19.9,37.21L19.9,37.21z"/>
		</g>
	</g>
	<g>
		<g>
			<path d="M21.26,41.17c-0.58,0.16-1.29,0.43-1.32,1.14c-0.02,0.59,0.53,0.9,1.03,1.05c1.06,0.33,2.22,0.33,3.31,0.38
				c1.15,0.05,2.27,0.21,3.42,0.33c2.08,0.23,4.41-0.04,6.33-0.87c0.51-0.22,1.01-0.5,1.47-0.82c0.2-0.14,0.52-0.33,0.55-0.61
				c0.05-0.56-0.61-0.54-0.96-0.42c-0.22,0.07-0.12,0.41,0.09,0.34c0.24,0.27,0.21,0.45-0.09,0.54c-0.16,0.1-0.32,0.2-0.48,0.29
				c-0.31,0.17-0.64,0.33-0.97,0.46c-0.63,0.25-1.29,0.41-1.96,0.54c-1.32,0.25-2.64,0.35-3.98,0.2c-1.24-0.14-2.46-0.29-3.71-0.35
				c-0.76-0.03-1.52-0.06-2.27-0.2c-0.25-0.05-0.52-0.09-0.76-0.18c-0.58-0.13-0.65-0.56-0.2-1.28c0.19-0.08,0.38-0.15,0.58-0.2
				C21.58,41.45,21.48,41.11,21.26,41.17L21.26,41.17z"/>
		</g>
	</g>
	<g>
		<g>
			<path d="M19.04,42.18c0.91-1.46,3.43-1.77,4.99-1.94c1.77-0.19,3.59-0.25,5.37-0.22c1.82,0.03,3.67,0.25,5.38,0.91
				c0.34,0.13,1.09,0.33,1.34,0.63c0.42,0.5-0.02,0.92-0.41,1.25c-0.9,0.76-1.97,1.28-3.18,1.03c-0.22-0.04-0.32,0.3-0.09,0.34
				c0.94,0.19,1.84,0,2.66-0.49c0.48-0.29,1.69-1.03,1.76-1.63c0.08-0.7-1.05-1.08-1.51-1.28c-1.09-0.48-2.26-0.77-3.44-0.93
				c-2.53-0.36-5.2-0.23-7.74,0.01c-1.74,0.17-4.42,0.49-5.45,2.13C18.61,42.19,18.91,42.37,19.04,42.18L19.04,42.18z"/>
		</g>
	</g>
	<g>
		<g>
			<path d="M22.06,28.09c-0.23,0.06-0.35,0.16-0.44,0.38c-0.05,0.13-0.04,0.24-0.05,0.37c-0.01,0.2,0.04,0.29,0,0.52
				c-0.04,0.26-0.17,0.33-0.22,0.55c-0.13,0.53,0.13,0.89,0.16,1.42c0.06,0.97-0.69,1.44-0.98,2.26c-0.25,0.68-0.24,1.32-0.74,1.92
				c-0.33,0.4-0.5,0.88-0.62,1.38c-0.36,1.46-0.37,3.03-1.02,4.39c-1.15,2.41,2.7,2.88,4.22,3.17c2.96,0.57,5.91,0.39,8.91,0.13
				c1.74-0.15,6.87-0.68,5.91-3.56c-0.07-0.22-0.41-0.12-0.34,0.09c1.08,3.23-6.9,3.19-8.64,3.28c-1.62,0.08-3.11,0.17-4.73-0.1
				c-1.36-0.23-3.23-0.36-4.42-1.11c-1.16-0.74-0.51-1.6-0.23-2.56c0.19-0.66,0.25-1.38,0.37-2.06c0.12-0.66,0.21-1.36,0.42-2
				c0.23-0.67,0.84-0.98,1.09-1.59c0.13-0.31,0.03-0.38,0.07-0.7c0.07-0.5,0.21-0.82,0.49-1.23c0.3-0.45,0.54-0.84,0.59-1.39
				c0.02-0.24-0.01-0.43-0.03-0.66c-0.03-0.1-0.05-0.19-0.08-0.29c-0.18-0.36-0.15-0.66,0.09-0.9c0.05-0.23,0.26-1.37,0.31-1.38
				C22.37,28.38,22.28,28.04,22.06,28.09L22.06,28.09z"/>
		</g>
	</g>
	<g>
		<g>
			<path d="M17.91,29.5c0.4-0.38,0.87-0.67,1.37-0.91c0.26-0.13,0.53-0.26,0.81-0.34c0.27-0.08,0.54-0.11,0.81-0.14
				c0.25-0.03,0.51-0.05,0.76-0.12c0.17-0.04,0.49-0.11,0.53-0.32c0.04-0.18-0.1-0.33-0.27-0.35c-0.14-0.02-0.27,0.05-0.41,0.06
				c-0.15,0.01-0.28-0.04-0.4-0.12c-0.19-0.12-0.37,0.19-0.18,0.31c0.17,0.11,0.37,0.17,0.58,0.17c0.07,0,0.26,0,0.31-0.05
				c0.01-0.04,0.02-0.09,0.03-0.13c-0.04,0.02-0.08,0.04-0.12,0.05c-0.06,0.02-0.11,0.04-0.17,0.05c-0.47,0.12-0.96,0.1-1.43,0.22
				c-0.45,0.11-0.89,0.33-1.29,0.55c-0.43,0.23-0.83,0.5-1.18,0.83C17.49,29.41,17.74,29.66,17.91,29.5L17.91,29.5z"/>
		</g>
	</g>
	<g>
		<g>
			<path d="M18.08,31.03c-0.34,0.49-0.49,1.14-0.61,1.71c-0.13,0.59-0.19,1.2-0.06,1.79c0.1,0.47,0.32,0.92,0.61,1.29
				c0.15,0.2,0.33,0.38,0.52,0.54c0.1,0.08,0.19,0.15,0.3,0.22c0.05,0.03,0.09,0.06,0.14,0.08c0.03,0.02,0.15,0.11,0.13,0.05
				c0.03-0.07,0.05-0.13,0.08-0.2c0.03,0,0.06-0.01,0.08-0.01c0.04,0.06,0.09,0.11,0.13,0.17c0-0.01,0-0.01,0-0.02
				c0.03-0.23-0.33-0.22-0.35,0c0,0.01,0,0.01,0,0.02c-0.01,0.08,0.06,0.15,0.13,0.17c0.07,0.02,0.13,0.02,0.19-0.02
				c0.06-0.04,0.11-0.12,0.08-0.2c-0.07-0.18-0.24-0.23-0.4-0.32c-0.21-0.13-0.39-0.28-0.56-0.46c-0.33-0.35-0.58-0.78-0.7-1.24
				c-0.15-0.56-0.11-1.15,0.02-1.71c0.12-0.56,0.26-1.2,0.59-1.68C18.51,31.02,18.2,30.84,18.08,31.03L18.08,31.03z"/>
		</g>
	</g>
	<g>
		<g>
			<path d="M21.76,29.15c-1.74-0.05-3.31,1.1-4.32,2.44c-0.55,0.73-0.76,1.64-0.89,2.53c-0.06,0.45-0.09,0.91-0.06,1.36
				c0.04,0.49,0.21,0.95,0.27,1.43c0.03,0.22,0.38,0.23,0.35,0c-0.05-0.36-0.17-0.71-0.23-1.07c-0.07-0.44-0.07-0.89-0.03-1.34
				c0.08-0.86,0.25-1.8,0.73-2.53c0.89-1.35,2.5-2.52,4.16-2.48C21.99,29.51,21.99,29.16,21.76,29.15L21.76,29.15z"/>
		</g>
	</g>
	<g>
		<g>
			<path d="M33.52,29.73c0.35,0.47,0.6,0.98,0.64,1.58c0.02,0.36-0.06,0.72-0.02,1.07c0.07,0.6,0.48,0.94,0.77,1.45
				c0.39,0.68,0.1,1.53,0.36,2.28c0.1,0.29,0.25,0.56,0.33,0.86c0.12,0.45-0.03,0.83,0.04,1.25c0.04,0.22,0.15,0.38,0.25,0.58
				c0.24,0.5,0.18,0.84,0.2,1.36c0.02,0.55,0.41,0.89,0.61,1.39c0.42,1.05-0.46,1.58-1.3,1.99c-0.79,0.39-1.63,0.66-2.49,0.86
				c-3.39,0.76-7.08,0.47-10.43-0.31c-0.84-0.19-1.68-0.41-2.49-0.69c-0.22-0.08-0.44-0.16-0.64-0.27c-0.48-0.27-0.52-0.34-0.6-0.88
				c-0.1-0.68,0.13-0.57,0.34-1.13c0.29-0.76-0.09-1.47,0.31-2.25c0.36-0.7,0.34-1.03,0.37-1.83c0.02-0.78,0.45-1.18,0.9-1.72
				c0.14-0.17,0.23-0.32,0.28-0.53c0.1-0.39-0.04-0.81,0.06-1.2c0.11-0.4,0.4-0.74,0.59-1.11c0.37-0.75-0.03-1.29,0.12-2.05
				c0.15-0.71,0.67-1.13,0.38-1.89c-0.08-0.21-0.42-0.12-0.34,0.09c0.27,0.72-0.44,1.55-0.4,2.32c0.03,0.6,0.12,1-0.19,1.58
				c-0.17,0.32-0.4,0.61-0.5,0.96c-0.12,0.43-0.03,0.82-0.19,1.26c-0.18,0.49-0.47,0.64-0.74,1.05c-0.54,0.83-0.08,1.77-0.49,2.63
				c-0.14,0.29-0.36,0.5-0.45,0.82c-0.1,0.37,0,0.72,0,1.09c0.01,0.72-0.33,0.88-0.56,1.42c-0.08,0.19-0.12,0.37-0.08,0.58
				c0.23,1.36,2.7,1.72,3.71,1.97c3.48,0.88,7.28,1.22,10.82,0.5c1.35-0.28,3.42-0.79,4.32-1.95c0.29-0.37,0.24-0.72,0.1-1.17
				c-0.09-0.29-0.21-0.55-0.37-0.8c-0.32-0.5-0.15-0.79-0.15-1.33c0-0.28-0.14-0.47-0.27-0.72c-0.29-0.56-0.23-0.95-0.29-1.56
				c-0.04-0.4-0.22-0.77-0.36-1.14c-0.23-0.59-0.13-1.05-0.17-1.66c-0.06-0.94-0.98-1.43-1-2.41c-0.03-1-0.03-1.68-0.66-2.52
				C33.69,29.37,33.38,29.54,33.52,29.73L33.52,29.73z"/>
		</g>
	</g>
	<g>
		<g>
			<path d="M33.69,29.24c-0.84,0.45-1.75,0.75-2.7,0.83c-0.47,0.04-0.92,0.01-1.39,0c-0.45-0.01-0.89,0.06-1.35,0.08
				c-0.94,0.04-1.89-0.18-2.81-0.34c-0.43-0.07-0.84-0.16-1.25-0.3c-0.38-0.13-1.26-0.32-1.46-0.67c-0.12-0.2-0.42-0.02-0.31,0.18
				c0.15,0.26,0.41,0.34,0.68,0.45c0.51,0.2,1.02,0.42,1.55,0.55c1.01,0.24,2.12,0.44,3.16,0.48c0.56,0.02,1.11-0.09,1.67-0.08
				c0.53,0.01,1.05,0.05,1.59,0c0.98-0.1,1.91-0.4,2.78-0.87C34.07,29.43,33.89,29.13,33.69,29.24L33.69,29.24z"/>
		</g>
	</g>
	<g>
		<g>
			<path d="M33.36,27.15c-0.24,0.33-0.27,0.78-0.24,1.18c0.01,0.21,0.04,0.42,0.1,0.62c0.05,0.19,0.09,0.47,0.3,0.54
				c0.08,0.03,0.16-0.02,0.2-0.08c0.01-0.02,0.02-0.03,0.04-0.05c0.06-0.08,0.01-0.2-0.06-0.24c-0.09-0.05-0.19-0.01-0.24,0.06
				c-0.01,0.02-0.02,0.03-0.04,0.05c0.07-0.03,0.13-0.05,0.2-0.08c-0.01,0-0.02-0.01-0.02-0.01c0.03,0.02,0.05,0.03,0.08,0.05
				c-0.04-0.04-0.06-0.15-0.07-0.2c-0.03-0.08-0.05-0.17-0.07-0.26c-0.03-0.16-0.05-0.33-0.06-0.49c-0.01-0.31,0.01-0.64,0.2-0.9
				c0.06-0.08,0.01-0.2-0.06-0.24C33.51,27.04,33.41,27.07,33.36,27.15L33.36,27.15z"/>
		</g>
	</g>
	<g>
		<g>
			<path d="M22.02,28.74c0.44,0.71,1.33,1.11,2.08,1.4c0.98,0.37,2.03,0.53,3.08,0.58c1.13,0.05,2.28,0,3.41-0.07
				c0.95-0.06,2.17-0.08,2.99-0.64c0.19-0.13,0.01-0.43-0.18-0.31c-0.82,0.55-2.07,0.55-3.02,0.6c-0.92,0.05-1.85,0.09-2.77,0.07
				c-0.93-0.02-1.87-0.11-2.77-0.37c-0.85-0.24-2.02-0.66-2.51-1.45C22.2,28.37,21.9,28.55,22.02,28.74L22.02,28.74z"/>
		</g>
	</g>
	<g>
		<g>
			<path d="M22,27.13c0.31,0.14,0.22,0.55,0.17,0.82c-0.03,0.19-0.07,0.38-0.1,0.57c-0.02,0.1-0.03,0.19,0.05,0.27
				c0.03,0.03,0.07,0.05,0.11,0.07c0.01,0,0.02,0.01,0.03,0.01c0.02,0-0.02-0.01-0.03-0.03c0.1,0.2,0.41,0.02,0.31-0.18
				c-0.02-0.04-0.06-0.08-0.1-0.1c-0.02-0.01-0.05-0.02-0.07-0.03c-0.06-0.02-0.01-0.02,0.02,0.03c0.01,0.03,0.02,0.06,0.02,0.09
				c-0.01-0.08,0.02-0.17,0.04-0.24c0.02-0.09,0.03-0.18,0.05-0.28c0.03-0.17,0.07-0.35,0.08-0.52c0.01-0.3-0.1-0.65-0.4-0.78
				c-0.09-0.04-0.19-0.02-0.24,0.06C21.89,26.96,21.91,27.09,22,27.13L22,27.13z"/>
		</g>
	</g>
	<g>
		<g>
			<path d="M27.5,28.05c1-0.11,1.99,0.12,2.99,0.14c0.99,0.02,1.94-0.26,2.87-0.55c0.22-0.07,0.12-0.41-0.09-0.34
				c-0.94,0.29-1.89,0.57-2.89,0.53c-0.96-0.03-1.92-0.24-2.88-0.14C27.27,27.72,27.27,28.07,27.5,28.05L27.5,28.05z"/>
		</g>
	</g>
	<g>
		<g>
			<path d="M28.73,24.78c-1.37,0.03-2.74,0.13-4.1,0.31c-0.62,0.08-1.25,0.16-1.86,0.3c-0.41,0.1-0.83,0.27-1.01,0.68
				c-0.38,0.85,0.67,1.24,1.28,1.42c1.16,0.35,2.4,0.5,3.6,0.65c1.39,0.17,2.61-0.04,3.97-0.23c1.02-0.15,2.43-0.09,3.26-0.8
				c0.63-0.54,0.27-1.21-0.36-1.55c-0.93-0.51-2.03-0.69-3.08-0.76c-1.46-0.1-2.95-0.05-4.41-0.02c-1.09,0.02-2.59-0.07-3.4,0.81
				c-0.05,0.05-0.08,0.15-0.03,0.21c0.11,0.15,0.21,0.26,0.36,0.38c0.18,0.14,0.43-0.11,0.25-0.25c-0.12-0.08-0.22-0.18-0.3-0.3
				c-0.01,0.07-0.02,0.14-0.03,0.21c0.81-0.89,2.52-0.71,3.62-0.71c1.17-0.01,2.35-0.04,3.52,0c1.1,0.04,2.35,0.16,3.32,0.73
				c0.45,0.26,0.65,0.75,0.08,1.12c-0.26,0.17-0.64,0.25-0.94,0.31c-0.57,0.13-1.16,0.16-1.75,0.24c-1.32,0.17-2.53,0.42-3.86,0.28
				c-1.18-0.13-2.38-0.29-3.53-0.6c-0.29-0.08-0.64-0.15-0.9-0.31c-0.32-0.14-0.39-0.43-0.22-0.89c0.19-0.14,0.4-0.24,0.64-0.28
				c0.65-0.18,1.38-0.24,2.05-0.33c1.26-0.16,2.54-0.25,3.81-0.27C28.95,25.13,28.95,24.77,28.73,24.78L28.73,24.78z"/>
		</g>
	</g>
	<g>
		<g>
			<path d="M29.13,25.42c-1.49-0.05-3.11-0.02-4.57,0.31c-0.34,0.08-1.16,0.23-1.1,0.73c0.06,0.48,0.88,0.53,1.23,0.61
				c1.48,0.31,2.99,0.44,4.5,0.38c0.7-0.03,1.41-0.1,2.09-0.29c0.28-0.08,1.04-0.22,1.01-0.64c-0.04-0.54-1.11-0.73-1.51-0.81
				c-0.8-0.15-1.72-0.37-2.54-0.31c-0.23,0.02-0.23,0.37,0,0.35c0.73-0.06,1.51,0.14,2.23,0.26c0.32,0.05,0.65,0.12,0.96,0.24
				c0.12,0.05,0.44,0.15,0.42,0.32c-0.01,0.04-0.46,0.18-0.53,0.2c-1.31,0.41-2.78,0.39-4.14,0.29c-0.73-0.05-1.45-0.15-2.17-0.29
				c-0.26-0.05-0.72-0.06-0.94-0.21c-0.23-0.02-0.23-0.13-0.01-0.32c0.07-0.03,0.14-0.05,0.21-0.07c0.17-0.05,0.34-0.1,0.51-0.13
				c1.4-0.28,2.91-0.31,4.33-0.27C29.36,25.78,29.36,25.43,29.13,25.42L29.13,25.42z"/>
		</g>
	</g>
	<g>
		<g>
			<path d="M18.94,9.13c2.97-1.39,6.59-1.1,9.78-1.01c1.57,0.05,3.1,0.16,4.65,0.38c0.64,0.09,1.76-0.02,2.14,0.6
				c0.69,1.13-0.72,1.92-1.64,1.94c-0.23,0.01-0.23,0.36,0,0.35c1.16-0.03,2.54-0.9,2.05-2.25c-0.19-0.52-0.59-0.77-1.12-0.86
				c-0.98-0.17-2.02-0.26-3.01-0.36C29.55,7.7,27.25,7.67,25,7.71c-2.11,0.04-4.31,0.2-6.24,1.11C18.55,8.92,18.73,9.22,18.94,9.13
				L18.94,9.13z"/>
		</g>
	</g>
	<g>
		<g>
			<path d="M19.22,8.63c-0.49,0.21-1.24,0.65-1.24,1.28c0.01,0.74,1.07,0.87,1.59,0.98c1.19,0.25,2.41,0.39,3.63,0.42
				c1.39,0.03,2.75-0.18,4.13-0.21c1.34-0.03,2.67,0.2,4.01,0.13c1.24-0.06,2.57-0.12,3.79-0.34c0.57-0.1,1.01-0.75,0.88-1.34
				c-0.16-0.74-1.24-1.06-1.86-1.16c-0.22-0.04-0.32,0.31-0.09,0.34c0.47,0.08,1.15,0.22,1.45,0.64c0.67,0.95-0.54,1.14-1.07,1.23
				c-0.75,0.13-1.54,0.15-2.3,0.22c-1.62,0.14-3.2-0.11-4.81-0.07c-1.55,0.04-3.07,0.27-4.62,0.19c-0.86-0.04-1.71-0.14-2.56-0.29
				c-0.37-0.07-0.76-0.13-1.12-0.24c-1.01-0.3-0.36-1.17,0.29-1.44C19.52,8.89,19.43,8.54,19.22,8.63L19.22,8.63z"/>
		</g>
	</g>
	<g>
		<g>
			<path d="M18.73,10.48c0.28,0.47,0.52,0.97,0.69,1.5c0.16,0.48,0.27,0.97,0.59,1.36c0.15,0.18,0.4-0.08,0.25-0.25
				c-0.31-0.38-0.39-0.9-0.55-1.35c-0.17-0.5-0.4-0.98-0.68-1.44C18.92,10.11,18.62,10.28,18.73,10.48L18.73,10.48z"/>
		</g>
	</g>
	<g>
		<g>
			<path d="M20.37,15.42c1.13,0.63,1.77,1.67,2.35,2.78c0.27,0.51,0.53,1.02,0.85,1.51c0.16,0.24,0.33,0.47,0.52,0.68
				c0.21,0.24,0.46,0.45,0.57,0.76c0.08,0.21,0.42,0.12,0.34-0.09c-0.2-0.57-0.74-0.96-1.08-1.45c-0.36-0.53-0.65-1.1-0.95-1.66
				c-0.6-1.13-1.28-2.19-2.44-2.83C20.35,15,20.17,15.3,20.37,15.42L20.37,15.42z"/>
		</g>
	</g>
	<g>
		<g>
			<path d="M32.24,15.36c-0.7,0.98-1.16,2.09-1.74,3.14c-0.56,1.01-1.34,1.98-1.31,3.2c0.01,0.23,0.36,0.23,0.35,0
				c-0.03-1.21,0.82-2.2,1.37-3.21c0.53-0.99,0.98-2.03,1.64-2.95C32.68,15.36,32.37,15.18,32.24,15.36L32.24,15.36z"/>
		</g>
	</g>
	<g>
		<g>
			<path d="M24.87,23.05c0.37,0.25,0.78,0.41,1.22,0.47c0.5,0.06,1.01-0.03,1.51,0.03c0.46,0.06,0.82,0.07,1.23-0.15
				c0.22-0.12,0.45-0.12,0.69-0.2c0.2-0.07,0.37-0.18,0.53-0.32c0.17-0.15-0.08-0.4-0.25-0.25c-0.32,0.28-0.71,0.24-1.07,0.42
				c-0.22,0.11-0.38,0.19-0.62,0.19c-0.2,0-0.39-0.04-0.59-0.06c-0.44-0.05-0.88,0.03-1.32-0.01c-0.42-0.04-0.81-0.19-1.15-0.43
				C24.86,22.62,24.68,22.92,24.87,23.05L24.87,23.05z"/>
		</g>
	</g>
	<g>
		<g>
			<path d="M24.67,22.3c-0.23,0.29-0.25,0.69-0.01,0.98c0.1,0.12,0.24,0.22,0.4,0.26c0.09,0.02,0.18,0.03,0.27,0.03
				c0.02,0,0.05,0,0.07,0c0.01,0,0.05,0.01,0.02,0c0.05,0.01,0.09,0.02,0.13,0.04c0.09,0.03,0.2-0.04,0.22-0.12
				c0.02-0.1-0.03-0.18-0.12-0.22c-0.08-0.03-0.16-0.04-0.24-0.05c-0.04,0-0.07,0-0.11-0.01c-0.02,0-0.04,0-0.05,0
				c-0.01,0-0.05-0.01-0.04,0c0.02,0-0.03-0.01-0.04-0.01c-0.02,0-0.03-0.01-0.05-0.01c-0.01,0-0.05-0.02-0.01,0
				c-0.01-0.01-0.03-0.01-0.04-0.02c-0.03-0.01-0.05-0.03-0.08-0.05c0.02,0.02,0,0-0.01-0.01c-0.01-0.01-0.02-0.02-0.03-0.03
				c-0.01-0.01-0.02-0.02-0.03-0.03c0.03,0.03,0-0.01-0.01-0.01c-0.02-0.02-0.03-0.05-0.04-0.08c0.02,0.03,0-0.01,0-0.01
				c-0.01-0.01-0.01-0.03-0.01-0.05c0-0.02-0.01-0.03-0.01-0.05c0.01,0.04,0-0.01,0-0.02c0-0.03,0-0.06,0-0.09c0,0.04,0-0.01,0-0.01
				c0-0.02,0.01-0.03,0.01-0.05c0-0.01,0.02-0.06,0.01-0.04c-0.01,0.02,0.01-0.02,0.01-0.03c0.01-0.01,0.02-0.03,0.02-0.04
				c0-0.01,0.04-0.05,0.01-0.02c0.06-0.07,0.08-0.18,0-0.25C24.86,22.24,24.74,22.23,24.67,22.3L24.67,22.3z"/>
		</g>
	</g>
	<g>
		<g>
			<path d="M24.85,21.31c0.2,0.32,0.14,0.74-0.16,0.98c-0.09,0.07-0.2,0.11-0.24,0.23c-0.04,0.12,0.04,0.25,0.13,0.33
				c0.15,0.14,0.38,0.2,0.58,0.13c0.09-0.03,0.15-0.12,0.12-0.22c-0.02-0.09-0.13-0.15-0.22-0.12c-0.08,0.03-0.25,0.02-0.27-0.1
				c0,0.03,0,0.06,0,0.09c0,0-0.02,0.03-0.02,0.03c0.01,0,0.03-0.02,0.04-0.02c0.03-0.02,0.07-0.05,0.1-0.07
				c0.05-0.04,0.1-0.09,0.15-0.14c0.1-0.12,0.18-0.25,0.22-0.4c0.09-0.3,0.04-0.63-0.12-0.9C25.03,20.94,24.73,21.11,24.85,21.31
				L24.85,21.31z"/>
		</g>
	</g>
	<g>
		<g>
			<path d="M30.02,8.88c0.86,0.15,1.71,0.34,2.55,0.56c0.4,0.1,0.86,0.18,1.24,0.36c0.19,0.09,0.52,0.43,0.68,0.08
				c0.1-0.21-0.21-0.39-0.31-0.18c0.07-0.01,0.08-0.04,0.02-0.07c-0.03-0.02-0.06-0.05-0.09-0.07c-0.06-0.04-0.12-0.07-0.19-0.1
				c-0.15-0.07-0.31-0.11-0.47-0.15c-0.37-0.1-0.74-0.2-1.11-0.29c-0.74-0.18-1.49-0.34-2.24-0.48C29.89,8.5,29.79,8.84,30.02,8.88
				L30.02,8.88z"/>
		</g>
	</g>
	<g>
		<g>
			<path d="M27.54,9c0.65,0.2,1.3,0.41,1.93,0.63c0.31,0.11,0.63,0.23,0.94,0.35c0.31,0.12,0.62,0.26,0.94,0.33
				c0.22,0.05,0.32-0.29,0.09-0.34c-0.33-0.07-0.63-0.21-0.94-0.33c-0.31-0.12-0.62-0.24-0.94-0.35c-0.64-0.23-1.28-0.44-1.93-0.63
				C27.41,8.59,27.32,8.93,27.54,9L27.54,9z"/>
		</g>
	</g>
	<g>
		<g>
			<path d="M23.96,8.92c0.86,0.25,1.71,0.53,2.55,0.84c0.42,0.16,0.83,0.32,1.25,0.5c0.27,0.11,0.7,0.41,0.99,0.2
				c0.18-0.13,0.01-0.44-0.18-0.31c-0.12,0.09-0.44-0.12-0.57-0.18c-0.18-0.07-0.35-0.15-0.53-0.22c-0.37-0.15-0.74-0.29-1.11-0.43
				c-0.76-0.28-1.53-0.53-2.3-0.75C23.84,8.52,23.74,8.86,23.96,8.92L23.96,8.92z"/>
		</g>
	</g>
	<g>
		<g>
			<path d="M21.72,9.34c0.7,0.09,1.38,0.27,2.04,0.54c0.6,0.25,1.19,0.64,1.87,0.59c0.23-0.02,0.23-0.37,0-0.35
				c-0.66,0.05-1.25-0.37-1.84-0.6c-0.63-0.25-1.3-0.42-1.97-0.51C21.59,8.97,21.49,9.31,21.72,9.34L21.72,9.34z"/>
		</g>
	</g>
	<g>
		<g>
			<path d="M19.86,9.88c1.02,0.15,1.99,0.48,2.89,0.99c0.2,0.11,0.38-0.19,0.18-0.31c-0.92-0.52-1.93-0.87-2.97-1.03
				C19.73,9.5,19.64,9.84,19.86,9.88L19.86,9.88z"/>
		</g>
	</g>
	<g>
		<g>
			<path d="M20.82,11.28c-0.12,0.29-0.2,0.59-0.27,0.9c-0.06,0.31-0.13,0.62-0.14,0.93c0.12,0,0.24,0,0.35,0
				c0-0.11,0.01-0.22,0.02-0.33c0.02-0.09-0.02-0.19-0.12-0.22c-0.08-0.02-0.2,0.03-0.22,0.12c-0.02,0.14-0.04,0.28-0.04,0.42
				c0,0.23,0.35,0.23,0.35,0c0.01-0.28,0.07-0.56,0.13-0.84c0.06-0.28,0.12-0.55,0.23-0.81c0.04-0.09,0.03-0.19-0.06-0.24
				C20.99,11.18,20.86,11.19,20.82,11.28L20.82,11.28z"/>
		</g>
	</g>
	<g>
		<g>
			<path d="M21.91,15.75c-0.04,0.26-0.07,0.52-0.11,0.78c-0.01,0.05-0.01,0.09,0.02,0.14c0.02,0.04,0.06,0.07,0.11,0.08
				c0.09,0.02,0.19-0.03,0.22-0.12c0.05-0.16,0.05-0.33,0.01-0.49c-0.01,0.05-0.01,0.09-0.02,0.14c0.06-0.09,0.09-0.2,0.09-0.3
				c0-0.09-0.08-0.18-0.18-0.18c-0.09,0-0.18,0.08-0.18,0.18c0,0.01,0,0.03,0,0.04c0,0.04,0.01-0.04,0,0c0,0.01,0,0.02-0.01,0.03
				c0,0.01,0,0.01-0.01,0.02c0-0.01,0.01-0.01,0.01-0.02c0,0.01-0.01,0.03-0.02,0.03c-0.01,0.02-0.03,0.03-0.03,0.06
				c-0.01,0.05,0,0.09,0.01,0.14c0,0.01,0,0.01,0,0.02c0-0.01,0-0.01,0-0.02c0,0,0,0.04,0,0.04c0,0.03,0,0.05,0,0.08
				c0,0.01,0,0.02,0,0.04c0,0.05,0.01-0.04,0,0.01c-0.01,0.03-0.01,0.06-0.02,0.08c0.11,0.03,0.23,0.06,0.34,0.09
				c0.04-0.26,0.07-0.52,0.11-0.78c0.01-0.05,0.01-0.09-0.02-0.14c-0.02-0.04-0.06-0.07-0.11-0.08
				C22.05,15.61,21.93,15.65,21.91,15.75L21.91,15.75z"/>
		</g>
	</g>
	<g>
		<g>
			<path d="M22.85,11.22c-0.46,0.6-0.77,1.31-0.9,2.06c0.11-0.01,0.22-0.03,0.32-0.04c-0.01-0.03-0.02-0.06-0.04-0.09
				c-0.04-0.09-0.17-0.11-0.24-0.06c-0.09,0.05-0.1,0.15-0.06,0.24c0.01,0.03,0.02,0.06,0.04,0.09c0.06,0.14,0.3,0.1,0.32-0.04
				c0.13-0.72,0.42-1.39,0.86-1.97c0.06-0.08,0.01-0.2-0.06-0.24C23,11.1,22.91,11.14,22.85,11.22L22.85,11.22z"/>
		</g>
	</g>
	<g>
		<g>
			<path d="M23.21,15.53c-0.22,0.84-0.41,1.7-0.55,2.56c-0.04,0.22,0.3,0.32,0.34,0.09c0.14-0.86,0.32-1.72,0.55-2.56
				C23.61,15.41,23.27,15.31,23.21,15.53L23.21,15.53z"/>
		</g>
	</g>
	<g>
		<g>
			<path d="M25.05,10.85c-0.32,0.35-0.55,0.76-0.78,1.17c-0.25,0.46-0.5,0.91-0.75,1.37c0.11,0.05,0.22,0.09,0.32,0.14
				c0.01-0.05,0.03-0.09,0.04-0.14c0.07-0.22-0.27-0.31-0.34-0.09c-0.01,0.05-0.03,0.09-0.04,0.14c-0.06,0.19,0.23,0.31,0.32,0.14
				c0.24-0.44,0.49-0.89,0.73-1.33c0.22-0.4,0.44-0.8,0.75-1.14C25.46,10.93,25.21,10.68,25.05,10.85L25.05,10.85z"/>
		</g>
	</g>
	<g>
		<g>
			<path d="M24.56,15.58c-0.7,1.32-0.7,2.84-0.68,4.29c0,0.23,0.36,0.23,0.35,0c-0.02-1.39-0.03-2.85,0.63-4.12
				C24.98,15.55,24.67,15.38,24.56,15.58L24.56,15.58z"/>
		</g>
	</g>
	<g>
		<g>
			<path d="M26.62,11.06c-0.69,0.71-1.22,1.56-1.56,2.5c0.11,0,0.23,0,0.34,0c-0.03-0.1-0.08-0.17-0.17-0.22
				c-0.07-0.03-0.16-0.03-0.21,0.03c-0.04,0.04-0.08,0.09-0.11,0.13c-0.15,0.17,0.1,0.42,0.25,0.25c0.04-0.04,0.08-0.09,0.11-0.13
				c-0.07,0.01-0.14,0.02-0.21,0.03c0.02,0,0.02,0,0.01,0c0.05,0.18,0.28,0.16,0.34,0c0.32-0.87,0.82-1.67,1.47-2.34
				C27.03,11.15,26.78,10.9,26.62,11.06L26.62,11.06z"/>
		</g>
	</g>
	<g>
		<g>
			<path d="M25.88,16.05c-0.31,0.85-0.58,1.71-0.8,2.59c-0.21,0.81-0.5,1.69-0.32,2.52c0.05,0.22,0.39,0.13,0.34-0.09
				c-0.09-0.44-0.02-0.87,0.07-1.3c0.09-0.41,0.19-0.81,0.3-1.22c0.22-0.81,0.47-1.61,0.76-2.4C26.3,15.93,25.96,15.84,25.88,16.05
				L25.88,16.05z"/>
		</g>
	</g>
	<g>
		<g>
			<path d="M28.91,10.94c-0.74,0.75-1.37,1.6-1.87,2.53c-0.09,0.16,0.09,0.32,0.24,0.24c0.01,0,0.01-0.01,0.02-0.01
				c0.05-0.03,0.09-0.09,0.09-0.15c0-0.07-0.02-0.12-0.07-0.16c-0.05-0.04-0.11-0.07-0.17-0.05c-0.19,0.07-0.3,0.33-0.4,0.49
				c-0.13,0.19,0.18,0.37,0.31,0.18c0.04-0.06,0.08-0.12,0.12-0.18c0.01-0.01,0.11-0.16,0.07-0.14c-0.06-0.02-0.11-0.03-0.17-0.05
				c0.01,0,0.01,0.01,0.02,0.01c-0.02-0.04-0.03-0.08-0.05-0.13c0,0.01,0,0.02,0,0.02c0.03-0.05,0.06-0.1,0.09-0.15
				c-0.01,0-0.01,0.01-0.02,0.01c0.08,0.08,0.16,0.16,0.24,0.24c0.49-0.9,1.1-1.73,1.82-2.46C29.32,11.03,29.07,10.78,28.91,10.94
				L28.91,10.94z"/>
		</g>
	</g>
	<g>
		<g>
			<path d="M28.01,16.15c-0.97,1.75-1.58,3.66-1.82,5.64c-0.03,0.23,0.33,0.22,0.35,0c0.23-1.92,0.84-3.78,1.77-5.47
				C28.43,16.13,28.12,15.95,28.01,16.15L28.01,16.15z"/>
		</g>
	</g>
	<g>
		<g>
			<path d="M31.12,11.27c-0.87,0.67-1.69,1.43-2.23,2.4c0.11,0.03,0.22,0.06,0.33,0.09c0-0.03,0-0.06,0-0.09
				c0-0.04,0.01,0-0.01-0.01c-0.06-0.07-0.11-0.15-0.17-0.22c0.01,0,0.01,0,0.02,0c-0.19,0.13-0.01,0.43,0.18,0.31
				c0.08-0.05,0.13-0.11,0.15-0.21c0.02-0.12-0.05-0.21-0.17-0.22c-0.25-0.03-0.35,0.24-0.34,0.45c0.01,0.17,0.24,0.25,0.33,0.09
				c0.51-0.91,1.28-1.64,2.1-2.27c0.08-0.06,0.12-0.15,0.06-0.24C31.32,11.26,31.2,11.22,31.12,11.27L31.12,11.27z"/>
		</g>
	</g>
	<g>
		<g>
			<path d="M29.94,15.94c-1.28,1.67-2.12,3.66-2.43,5.74c0.09-0.04,0.17-0.07,0.26-0.11c0,0.01,0,0.02,0.01,0.04
				c0.12-0.19-0.18-0.37-0.31-0.18c-0.1,0.16-0.05,0.36,0.12,0.45c0.09,0.04,0.24,0.02,0.26-0.11c0.31-2.06,1.13-4,2.4-5.66
				C30.39,15.94,30.08,15.76,29.94,15.94L29.94,15.94z"/>
		</g>
	</g>
	<g>
		<g>
			<path d="M33.79,10.56c-0.5,0.24-0.85,0.67-1.19,1.09c-0.39,0.48-0.76,0.98-1.12,1.48c-0.13,0.19,0.17,0.36,0.31,0.18
				c0.02-0.03,0.04-0.05,0.06-0.08c0.13-0.19-0.17-0.36-0.31-0.18c-0.02,0.03-0.04,0.05-0.06,0.08c0.1,0.06,0.2,0.12,0.31,0.18
				c0.34-0.48,0.69-0.95,1.06-1.41c0.32-0.4,0.65-0.81,1.12-1.04C34.17,10.77,33.99,10.46,33.79,10.56L33.79,10.56z"/>
		</g>
	</g>
	<g>
		<g>
			<path d="M25.06,22.48c0.3,0.35,0.77,0.36,1.2,0.36c0.61,0.01,1.23-0.02,1.84-0.08c0.42-0.04,1.03-0.02,1.37-0.32
				c0.09-0.08,0.16-0.19,0.25-0.28c0.09-0.09,0.2-0.15,0.3-0.23c0.2-0.17,0.34-0.39,0.47-0.61c0.12-0.2-0.19-0.37-0.31-0.18
				c-0.13,0.22-0.27,0.43-0.48,0.59c-0.15,0.11-0.26,0.21-0.38,0.35c-0.29,0.33-0.91,0.3-1.32,0.34c-0.49,0.04-0.99,0.07-1.49,0.07
				c-0.39,0-0.91,0.06-1.19-0.26C25.16,22.05,24.91,22.3,25.06,22.48L25.06,22.48z"/>
		</g>
	</g>
	<g>
		<g>
			<path d="M25.87,22.43c0.56-0.07,1.13-0.14,1.69-0.2c0.45-0.05,0.95-0.09,1.34,0.19c0.19,0.13,0.36-0.18,0.18-0.31
				c-0.41-0.29-0.93-0.29-1.42-0.24c-0.6,0.06-1.19,0.14-1.79,0.21C25.65,22.11,25.64,22.46,25.87,22.43L25.87,22.43z"/>
		</g>
	</g>
	<g>
		<g>
			<path d="M25.14,22.28c0,0.01-0.33,0.14-0.37,0.18c-0.09,0.09-0.12,0.22-0.11,0.34c0.02,0.27,0.24,0.43,0.48,0.52
				c0.73,0.26,1.58,0.21,2.34,0.15c0.64-0.05,1.36-0.07,1.92-0.42c0.22-0.13,0.5-0.38,0.39-0.67c-0.11-0.28-0.53-0.37-0.79-0.4
				c-0.23-0.03-0.22,0.32,0,0.35c0.08,0.01,0.16,0.03,0.24,0.06c0.1,0.04,0.15,0.04,0.15,0.15c0.01,0.14-0.15,0.2-0.26,0.26
				c-0.2,0.11-0.42,0.17-0.65,0.21c-0.49,0.09-1,0.11-1.49,0.14c-0.53,0.02-1.07,0.01-1.58-0.12c-0.11-0.03-0.25-0.06-0.33-0.14
				c-0.15-0.14-0.01-0.2,0.12-0.24c0.17-0.05,0.31-0.18,0.29-0.37C25.48,22.05,25.12,22.05,25.14,22.28L25.14,22.28z"/>
		</g>
	</g>
	<g>
		<g>
			<path d="M29.32,21.98c0.05,0.15,0.13,0.28,0.24,0.4c0-0.08,0-0.17,0-0.25c-0.03,0.02-0.06,0.05-0.09,0.07
				c-0.01,0.01-0.02,0.02-0.03,0.04c-0.01,0.02-0.02,0.04-0.02,0.07c-0.01,0.04,0,0.08,0.02,0.11c0.02,0.03,0.04,0.05,0.06,0.06
				c0.04,0.02,0.1,0.03,0.14,0.02c0.02-0.01,0.04-0.01,0.07-0.02c0.04-0.01,0.08-0.04,0.11-0.08c0.02-0.04,0.03-0.09,0.02-0.14
				c-0.01-0.04-0.04-0.08-0.08-0.11c-0.04-0.02-0.09-0.03-0.14-0.02c-0.02,0.01-0.04,0.01-0.07,0.02c0.06,0.1,0.11,0.2,0.17,0.3
				c0.03-0.02,0.06-0.05,0.09-0.07c0.03-0.03,0.05-0.09,0.05-0.13c0-0.05-0.02-0.09-0.05-0.13c-0.02-0.02-0.04-0.04-0.05-0.06
				c0.01,0.01,0.02,0.02,0.03,0.04c-0.05-0.06-0.09-0.13-0.12-0.2c0.01,0.01,0.01,0.03,0.02,0.04c-0.01-0.02-0.02-0.04-0.02-0.06
				c-0.02-0.04-0.04-0.08-0.08-0.11c-0.04-0.02-0.09-0.03-0.14-0.02c-0.04,0.01-0.08,0.04-0.11,0.08
				C29.31,21.88,29.3,21.93,29.32,21.98L29.32,21.98z"/>
		</g>
	</g>
	<g>
		<g>
			<path d="M25.19,22.48c0.17-0.71-0.22-1.28-0.63-1.83c-0.49-0.65-0.95-1.32-1.36-2.02c-0.4-0.68-0.72-1.4-1.08-2.1
				c-0.31-0.61-0.66-1.32-1.32-1.62c-0.21-0.09-0.39,0.21-0.18,0.31c0.63,0.29,0.95,1.02,1.25,1.61c0.31,0.63,0.61,1.26,0.96,1.87
				c0.35,0.61,0.73,1.2,1.15,1.77c0.41,0.55,1.05,1.17,0.87,1.92C24.8,22.61,25.14,22.7,25.19,22.48L25.19,22.48z"/>
		</g>
	</g>
	<g>
		<g>
			<path d="M32.42,15.21c-0.62,1.07-1.27,2.13-1.84,3.23c-0.27,0.52-0.52,1.05-0.75,1.59c-0.23,0.55-0.45,1.11-0.48,1.71
				c-0.01,0.23,0.34,0.23,0.35,0c0.03-0.62,0.3-1.22,0.54-1.79c0.23-0.52,0.48-1.03,0.75-1.53c0.55-1.02,1.15-2.02,1.73-3.02
				C32.84,15.19,32.53,15.01,32.42,15.21L32.42,15.21z"/>
		</g>
	</g>
	<g>
		<g>
			<path d="M41.6,33.38c0.22,0.73,0.42,1.47,0.58,2.21c0.16,0.75,0.27,1.5,0.49,2.23c0.22,0.73,0.29,1.47,0.37,2.22
				c0.08,0.78,0.19,1.57,0.02,2.35c-0.05,0.22,0.28,0.32,0.34,0.09c0.01-0.06,0.03-0.11,0.04-0.17c0.06-0.22-0.28-0.32-0.34-0.09
				c-0.01,0.06-0.03,0.11-0.04,0.17c0.11,0.03,0.23,0.06,0.34,0.09c0.16-0.73,0.09-1.46,0.02-2.2c-0.07-0.75-0.1-1.52-0.31-2.24
				c-0.44-1.58-0.68-3.19-1.17-4.76C41.87,33.07,41.53,33.16,41.6,33.38L41.6,33.38z"/>
		</g>
	</g>
	<g>
		<g>
			<path d="M39.78,13.08c-0.15,1.34-0.48,2.37-1.25,3.47c-0.5,0.72-0.93,1.48-1.25,2.3c-0.67,1.7-0.93,3.57-0.67,5.38
				c0.25,1.76,1.05,3.26,2.08,4.7c0.6,0.84,1.21,1.66,1.71,2.56c0.23,0.41,1.76,2.91,1.37,3.32c-0.16,0.17,0.09,0.42,0.25,0.25
				c0.34-0.36,0.13-0.71-0.04-1.12c-0.42-1.01-0.91-2.01-1.46-2.95c-1.13-1.96-2.77-3.57-3.36-5.82c-0.57-2.16-0.3-4.49,0.59-6.52
				c0.46-1.05,1.18-1.88,1.72-2.88c0.45-0.84,0.57-1.77,0.67-2.7C40.16,12.86,39.81,12.86,39.78,13.08L39.78,13.08z"/>
		</g>
	</g>
	<g>
		<g>
			<path d="M36.01,40.71c2.37,0.67,4.75,1.34,7.18,1.76c0.15,0.03,0.33-0.17,0.17-0.3c-0.14-0.11-0.26-0.13-0.41-0.04
				c-0.19,0.12-0.02,0.43,0.18,0.31c-0.01-0.01-0.01-0.01-0.02-0.02c0.06-0.1,0.11-0.2,0.17-0.3c-2.43-0.42-4.81-1.09-7.18-1.76
				C35.88,40.3,35.79,40.64,36.01,40.71L36.01,40.71z"/>
		</g>
	</g>
	<g>
		<g>
			<path d="M21.96,28c-1.32,0.19-2.7,0.4-3.84,1.16c-1.09,0.72-1.55,1.74-1.85,2.98c-0.15,0.64-0.31,1.3-0.26,1.96
				c0.05,0.63,0.33,1.23,0.55,1.82c0.2,0.55,0.42,1.07,0.85,1.48c0.44,0.42,1,0.7,1.54,0.95c-0.02-0.08-0.04-0.16-0.06-0.24
				c-0.03,0.04-0.06,0.08-0.09,0.12c-0.07,0.1,0.01,0.22,0.11,0.26c0.1,0.04,0.14,0.04,0.24,0.05c0.23,0.02,0.23-0.33,0-0.35
				c-0.05-0.01-0.1-0.03-0.15-0.04c0.04,0.09,0.07,0.17,0.11,0.26c0.03-0.04,0.06-0.08,0.09-0.12c0.05-0.07,0.02-0.2-0.06-0.24
				c-0.5-0.23-1-0.48-1.41-0.84c-0.47-0.42-0.67-0.97-0.89-1.55c-0.21-0.57-0.46-1.12-0.48-1.74c-0.02-0.63,0.15-1.26,0.3-1.86
				c0.29-1.19,0.83-2.13,1.92-2.76c1.06-0.6,2.29-0.78,3.48-0.95C22.27,28.31,22.18,27.97,21.96,28L21.96,28z"/>
		</g>
	</g>
	<g>
		<g>
			<path d="M14.2,42.14c-0.07,0.61,0.47,0.8,0.97,0.98c1.37,0.49,2.78,0.89,4.17,1.31c2.84,0.86,5.76,1.75,8.71,2.18
				c2.49,0.36,4.85-0.43,7.19-1.21c2.7-0.89,5.42-1.68,8.06-2.76c0.14-0.06,0.18-0.23,0.04-0.32c-0.2-0.13-0.22-0.13-0.46-0.07
				c-0.22,0.06-0.13,0.4,0.09,0.34c0.06,0.01,0.13,0.02,0.19,0.04c0.01-0.11,0.03-0.22,0.04-0.32c-2.2,0.9-4.45,1.56-6.7,2.31
				c-2.23,0.74-4.47,1.64-6.84,1.74c-2.52,0.1-5.25-0.84-7.66-1.51c-1.25-0.35-2.49-0.72-3.73-1.1c-0.61-0.19-3.81-0.84-3.72-1.59
				C14.58,41.92,14.22,41.92,14.2,42.14L14.2,42.14z"/>
		</g>
	</g>
	<g>
		<g>
			<path d="M43.99,43.61c-3.22,1.25-6.47,2.41-9.72,3.58c-1.56,0.56-3.2,1.23-4.87,1.29c-1.47,0.06-2.96-0.35-4.37-0.73
				c-2.93-0.79-5.81-1.74-8.71-2.61c-0.7-0.21-1.94-0.35-2.14-1.19c-0.18-0.79,0.18-1.6,0.85-1.97c1.22-0.66,2.78-0.97,4.09-1.43
				c0.21-0.08,0.12-0.42-0.09-0.34c-0.89,0.32-1.79,0.62-2.68,0.93c-0.59,0.21-1.36,0.34-1.89,0.71c-0.59,0.42-0.76,1.51-0.62,2.18
				c0.19,0.92,1.17,1.07,1.96,1.31c2,0.61,3.99,1.26,6,1.84c3.2,0.93,6.42,2.16,9.76,1.28c2.12-0.56,4.18-1.41,6.23-2.16
				c2.12-0.76,4.22-1.54,6.32-2.35C44.3,43.87,44.21,43.53,43.99,43.61L43.99,43.61z"/>
		</g>
	</g>
	<g>
		<g>
			<path d="M43.54,38.31c0.1,0.93,0.2,1.85,0.27,2.78c0.03,0.46,0.05,0.92,0.06,1.38c0,0.21,0,0.43,0,0.64c0,0.11,0,0.22-0.01,0.32
				c0,0.07-0.01,0.14-0.01,0.22c-0.04,0.13,0,0.16,0.14,0.07c-0.18-0.14-0.36,0.17-0.18,0.31c0.1,0.07,0.25,0.07,0.33-0.03
				c0.13-0.15,0.07-0.49,0.08-0.67c0.02-0.55,0.01-1.11-0.02-1.66c-0.05-1.12-0.18-2.24-0.3-3.36
				C43.87,38.08,43.52,38.08,43.54,38.31L43.54,38.31z"/>
		</g>
	</g>
	<g>
		<g>
			<path d="M41.01,11.51c-0.04,1.82-0.33,3.24-1.26,4.8c-0.6,1-1.09,2.03-1.46,3.13c-0.76,2.28-1.01,4.71-0.07,6.98
				c0.8,1.94,2.21,3.53,3.27,5.32c0.61,1.02,0.91,2.04,1.24,3.16c0.35,1.19,0.86,2.27,0.8,3.55c-0.01,0.23,0.34,0.23,0.35,0
				c0.04-0.9-0.16-1.79-0.43-2.65c-0.3-0.95-0.56-1.97-0.95-2.89c-0.88-2.05-2.44-3.71-3.49-5.67c-1.43-2.66-1.21-5.55-0.16-8.31
				c0.51-1.35,1.39-2.47,1.96-3.78c0.5-1.15,0.54-2.41,0.57-3.65C41.37,11.28,41.01,11.28,41.01,11.51L41.01,11.51z"/>
		</g>
	</g>
	<g>
		<g>
			<path d="M16.36,13.42c0,0.42-0.13,1.06,0.23,1.34c0.19,0.15,0.43,0.12,0.67,0.15c0.69,0.06,1.38,0.13,2.07,0.24
				c2.3,0.34,4.59,0.86,6.91,1.03c2.36,0.18,4.55-0.38,6.81-0.99c2.38-0.64,4.73-1.35,7.12-1.96c0.22-0.06,0.13-0.4-0.09-0.34
				c-1.96,0.51-3.9,1.07-5.85,1.62c-2.02,0.56-4.13,1.26-6.24,1.36c-2.1,0.1-4.16-0.37-6.22-0.7c-0.99-0.16-1.98-0.31-2.97-0.45
				c-0.92-0.13-2.08-0.07-2.07-1.29C16.71,13.2,16.36,13.2,16.36,13.42L16.36,13.42z"/>
		</g>
	</g>
	<g>
		<g>
			<path d="M19.49,11.83c-0.36,0.15-3.97,1.12-2.91,1.96c0.41,0.33,1.5,0.27,1.99,0.34c0.8,0.11,1.61,0.22,2.41,0.33
				c1.33,0.18,2.66,0.41,4,0.49c1.34,0.08,2.74,0.13,4.08,0.02c1.25-0.1,2.47-0.57,3.68-0.87c2.87-0.7,5.75-1.28,8.5-2.4
				c0.19-0.08,0.16-0.32-0.05-0.35c-1.09-0.12-2.18-0.26-3.28-0.38c-1.2-0.13-2.51-0.06-3.69-0.3c-0.13-0.03-0.3,0.13-0.2,0.26
				c0.04,0.05,0.07,0.09,0.11,0.14c0.14,0.18,0.45,0,0.31-0.18c-0.04-0.05-0.07-0.09-0.11-0.14c-0.07,0.09-0.13,0.17-0.2,0.26
				c1.11,0.22,2.3,0.15,3.43,0.27c1.21,0.13,2.42,0.28,3.64,0.42c-0.02-0.12-0.03-0.23-0.05-0.35c-2.13,0.86-4.34,1.43-6.58,1.95
				c-2.13,0.49-4.3,1.31-6.5,1.33c-2.38,0.03-4.65-0.21-7-0.53c-1.13-0.15-2.25-0.31-3.38-0.47c-0.26-0.04-0.51-0.08-0.77-0.11
				c0.22-0.33,0.51-0.55,0.89-0.63c0.55-0.29,1.19-0.49,1.77-0.73C19.79,12.08,19.7,11.74,19.49,11.83L19.49,11.83z"/>
		</g>
	</g>
	<g>
		<g>
			<path d="M34.7,10.22c-0.34,0.47-0.67,0.95-0.95,1.46c-0.13,0.24-0.23,0.51-0.37,0.74c-0.14,0.23-0.33,0.43-0.55,0.58
				c-0.19,0.13-0.01,0.44,0.18,0.31c0.23-0.16,0.42-0.35,0.59-0.57c0.18-0.24,0.28-0.52,0.42-0.79c0.28-0.55,0.64-1.05,1-1.56
				C35.14,10.21,34.83,10.04,34.7,10.22L34.7,10.22z"/>
		</g>
	</g>
	<g>
		<g>
			<path d="M18.94,10.64c0.19,0.18,0.24,0.45,0.32,0.69c0.09,0.28,0.21,0.56,0.34,0.82c0.13,0.26,0.28,0.51,0.43,0.76
				c0.14,0.22,0.29,0.47,0.58,0.46c-0.06-0.07-0.11-0.15-0.17-0.22c-0.03,0.09-0.06,0.18-0.09,0.28c-0.07,0.22,0.27,0.31,0.34,0.09
				c0.03-0.09,0.06-0.18,0.09-0.28c0.03-0.11-0.06-0.23-0.17-0.22c-0.11,0-0.18-0.14-0.23-0.22c-0.08-0.12-0.15-0.24-0.22-0.36
				c-0.13-0.23-0.26-0.46-0.37-0.7c-0.11-0.23-0.19-0.48-0.27-0.72c-0.07-0.23-0.17-0.45-0.34-0.62
				C19.03,10.23,18.77,10.48,18.94,10.64L18.94,10.64z"/>
		</g>
	</g>
	<g>
		<g>
			<path d="M19.52,12.79c0.26,0.29,0.63,0.45,1,0.56c0.35,0.1,0.8,0.27,1.11-0.01c0.17-0.15-0.08-0.4-0.25-0.25
				c-0.09,0.08-0.25,0.05-0.36,0.02c-0.16-0.03-0.31-0.08-0.46-0.12c-0.29-0.09-0.58-0.22-0.79-0.45
				C19.61,12.37,19.37,12.62,19.52,12.79L19.52,12.79z"/>
		</g>
	</g>
	<g>
		<g>
			<path d="M20.75,13.37c1.39,0.39,2.71,0.31,4.13,0.3c1.55-0.02,3.09,0.13,4.64,0.1c1.24-0.03,2.49-0.17,3.67-0.59
				c0.43-0.16,1.95-0.59,1.67-1.24c-0.07,0.09-0.13,0.17-0.2,0.26c0.22,0.09,0.36,0.09,0.58,0.01c0.21-0.08,0.12-0.42-0.09-0.34
				c-0.13,0-0.26-0.01-0.39-0.01c-0.16-0.07-0.25,0.14-0.2,0.26c0.05,0.12-1.6,0.77-1.68,0.79c-0.45,0.15-0.91,0.25-1.37,0.33
				c-1.15,0.19-2.32,0.19-3.48,0.15c-1.18-0.04-2.36-0.11-3.55-0.08c-1.25,0.04-2.41,0.05-3.63-0.29
				C20.63,12.96,20.53,13.3,20.75,13.37L20.75,13.37z"/>
		</g>
	</g>
	<g>
		<g>
			<path d="M19.93,9.5c1.31-0.3,2.62-0.61,3.95-0.77c1.28-0.15,2.54-0.07,3.82-0.03c1.25,0.04,2.49-0.19,3.74-0.18
				c0.61,0,1.21,0.08,1.8,0.24c0.25,0.07,0.51,0.15,0.75,0.25c0.39,0.06,0.62,0.29,0.68,0.69c-0.13,0.14-0.25,0.29-0.38,0.43
				c-0.15,0.17,0.1,0.42,0.25,0.25c0.23-0.26,0.66-0.57,0.57-0.97c-0.09-0.39-0.59-0.56-0.9-0.69c-1.46-0.6-2.93-0.58-4.47-0.44
				c-1.67,0.15-3.32-0.08-4.98,0.03c-1.66,0.1-3.29,0.48-4.91,0.86C19.62,9.21,19.71,9.55,19.93,9.5L19.93,9.5z"/>
		</g>
	</g>
	<g>
		<g>
			<path d="M20.88,8.83c-0.51,0.15-2.66,0.61-1.47,1.53c0.47,0.37,1.23,0.39,1.8,0.43c0.99,0.06,1.99,0.05,2.99,0.05
				c2.01,0,4.02-0.07,6.02-0.21c0.94-0.06,1.88-0.13,2.81-0.24c0.4-0.05,0.82-0.09,1.2-0.2c0.5-0.15,1.02-0.64,1.58-0.53
				c-0.04-0.07-0.08-0.15-0.12-0.22c-0.03,0.1-0.06,0.19-0.1,0.29c-0.07,0.22,0.27,0.31,0.34,0.09c0.03-0.1,0.06-0.19,0.1-0.29
				c0.03-0.09-0.03-0.2-0.12-0.22c-0.47-0.1-0.77,0.06-1.19,0.26c-0.81,0.4-1.66,0.46-2.55,0.54c-1.51,0.14-3.03,0.23-4.55,0.29
				c-1.52,0.06-3.04,0.08-4.56,0.06c-0.7-0.01-1.42,0-2.12-0.06c-0.3-0.03-1.68-0.09-1.21-0.88c0.1-0.17,1.04-0.31,1.25-0.37
				C21.19,9.11,21.1,8.77,20.88,8.83L20.88,8.83z"/>
		</g>
	</g>
	<g>
		<g>
			<path d="M26.94,7.98c-1.44-0.13-2.88-0.12-4.31,0.08c-1.18,0.16-2.78,0.33-3.8,1.01c-0.61,0.41-0.62,1.08-0.03,1.51
				c0.83,0.62,2.13,0.66,3.12,0.69c2.97,0.09,6.01,0.07,8.98-0.13c0.7-0.05,6.03-0.31,4.53-2.06c-0.75-0.87-2.49-1.04-3.54-1.14
				c-0.77-0.08-1.56-0.12-2.33-0.11c-0.28,0-0.55,0.03-0.83,0.08c-0.15,0.03-0.29,0.08-0.44,0.1c-0.29,0.07-0.57,0.07-0.85,0
				c-0.24-0.09-0.46-0.06-0.68,0.09c-0.02-0.12-0.03-0.23-0.05-0.35c-0.08,0.03-0.17,0.07-0.25,0.1c-0.21,0.08-0.12,0.43,0.09,0.34
				c0.08-0.03,0.17-0.07,0.25-0.1c0.18-0.07,0.16-0.34-0.05-0.35c-0.02,0-0.04,0-0.05,0c-0.08,0-0.14,0.06-0.17,0.13
				c-0.01,0.02-0.01,0.04-0.02,0.06c-0.03,0.08,0.02,0.16,0.08,0.2c0.92,0.6,2.11,0.05,3.09,0.05c1.35,0,2.77,0.06,4.06,0.45
				c0.25,0.08,1.11,0.25,1.24,0.52c-0.13,0.36-0.25,0.73-0.38,1.09c-0.19,0.05-0.39,0.1-0.59,0.13c-0.71,0.15-1.44,0.25-2.16,0.32
				c-1.43,0.14-2.87,0.17-4.31,0.18c-1.33,0.01-2.65,0.02-3.98,0.03c-1.35,0.01-2.89,0.12-4.16-0.43c-0.19-0.06-0.37-0.16-0.52-0.29
				c-0.1-0.61,0.1-0.96,0.6-1.05c0.3-0.11,0.61-0.19,0.91-0.27c0.66-0.18,1.33-0.32,2.01-0.43c1.5-0.23,3.02-0.25,4.53-0.11
				C27.17,8.35,27.17,8,26.94,7.98L26.94,7.98z"/>
		</g>
	</g>
</g>
</svg>
