<?xml version="1.0" encoding="utf-8"?>
<!-- Generator: Adobe Illustrator 26.2.1, SVG Export Plug-In . SVG Version: 6.00 Build 0)  -->
<svg version="1.1" id="Layer_1" xmlns="http://www.w3.org/2000/svg" xmlns:xlink="http://www.w3.org/1999/xlink" x="0px" y="0px"
	 viewBox="0 0 56.69 56.69" style="enable-background:new 0 0 56.69 56.69;" xml:space="preserve">
<g>
	<g>
		<g>
			<path d="M18.96,32.67c0.03,1.25-1.48,1.63-1.99,2.61c-0.38,0.75-0.53,1.91-0.44,2.74c0.18,1.83,1.99,2.45,3.52,2.88
				c2.05,0.58,4.2,0.9,6.33,0.78c0.99-0.06,1.98-0.21,2.93-0.47c0.51-0.14,1.01-0.32,1.5-0.53c0.46-0.2,1.48-0.94,1.95-0.43
				c0.16,0.17,0.41-0.08,0.25-0.25c-0.4-0.43-0.94-0.29-1.44-0.08c-0.96,0.42-1.85,0.84-2.88,1.08c-2.2,0.51-4.51,0.43-6.71,0
				c-1.91-0.37-5.14-0.87-5.12-3.37c0-0.54,0.09-1.12,0.23-1.64c0.17-0.66,0.53-1.04,1.04-1.45c0.62-0.5,1.19-1.01,1.17-1.87
				C19.31,32.45,18.95,32.45,18.96,32.67L18.96,32.67z"/>
		</g>
	</g>
	<g>
		<g>
			<g>
				<path d="M20.25,34.58c0.1,0.45,0.06,0.89-0.16,1.3c-0.16,0.3-0.43,0.52-0.58,0.83c-0.16,0.33-0.14,0.74,0.17,0.99
					c0.49,0.41,0.74-0.25,1.22-0.24c0.34,0.01,0.69,0.19,1.01,0.3c0.35,0.13,0.71,0.24,1.07,0.34c1.32,0.36,2.7,0.51,4.05,0.28
					c0.63-0.11,1.26-0.3,1.84-0.58c0.46-0.22,1.07-0.49,1.14-1.04c0.01-0.1-0.09-0.17-0.18-0.18c-0.75-0.08-1.48,0.19-2.21,0.33
					c-0.84,0.15-1.69,0.23-2.54,0.24c-1.31,0.01-2.98-0.08-3.75-1.33c-0.07,0.09-0.13,0.17-0.2,0.26c0.09,0.04,0.18,0.07,0.27,0.11
					c0.21,0.08,0.3-0.26,0.09-0.34c-0.09-0.04-0.18-0.07-0.27-0.11c-0.15-0.06-0.28,0.14-0.2,0.26c0.7,1.13,2.06,1.43,3.31,1.49
					c0.87,0.04,1.75-0.01,2.62-0.12c0.94-0.12,1.94-0.53,2.88-0.43c-0.06-0.06-0.12-0.12-0.18-0.18c-0.07,0.51-1.33,0.91-1.71,1.04
					c-0.56,0.18-1.14,0.29-1.72,0.33c-1.25,0.08-2.49-0.15-3.68-0.52c-0.48-0.15-0.97-0.41-1.47-0.48
					c-0.19-0.03-0.37-0.03-0.55,0.04c-0.11,0.04-0.25,0.23-0.35,0.25c-0.57,0.1-0.38-0.44-0.27-0.65c0.07-0.15,0.2-0.26,0.3-0.4
					c0.12-0.16,0.22-0.31,0.3-0.49c0.19-0.45,0.21-0.91,0.1-1.38C20.54,34.26,20.2,34.35,20.25,34.58L20.25,34.58z"/>
			</g>
		</g>
		<g>
			<g>
				<path d="M24.1,38.82c0.5-0.03,0.97,0.02,1.46,0.12c0.41,0.08,0.81,0.14,1.23,0.13c1.18-0.05,2.31-0.55,3.41-0.92
					c0.21-0.07,0.12-0.42-0.09-0.34c-1.09,0.37-2.24,0.89-3.41,0.91c-0.42,0.01-0.82-0.08-1.22-0.15c-0.46-0.08-0.91-0.12-1.37-0.09
					C23.88,38.47,23.87,38.83,24.1,38.82L24.1,38.82z"/>
			</g>
		</g>
		<g>
			<g>
				<path d="M31.66,39.91c-0.11,0.34,0.07,0.71,0.37,0.9c0.31,0.2,0.76,0.22,1.11,0.1c0.18-0.06,0.34-0.17,0.43-0.34
					c0.08-0.16,0.11-0.34,0.13-0.52c0.04-0.37,0.07-0.74,0-1.11c-0.04-0.19-0.11-0.39-0.23-0.55c-0.1-0.14-0.41-0.21-0.45,0.03
					c-0.01,0.1,0.02,0.19,0.12,0.22c0.08,0.02,0.2-0.03,0.22-0.12c-0.06,0.09-0.12,0.12-0.18,0.09c0.01,0.02,0.03,0.04,0.04,0.06
					c0.02,0.03,0.04,0.06,0.05,0.1c0.03,0.07,0.05,0.14,0.07,0.21c0.04,0.16,0.05,0.32,0.05,0.48c0,0.16-0.01,0.33-0.03,0.49
					c-0.02,0.14-0.02,0.3-0.08,0.43c-0.12,0.28-0.55,0.29-0.81,0.23c-0.27-0.06-0.56-0.29-0.46-0.6
					C32.07,39.79,31.73,39.7,31.66,39.91L31.66,39.91z"/>
			</g>
		</g>
		<g>
			<g>
				<path d="M19.61,40.23c-0.16,0.73-0.12,1.62,0.57,2.07c0.3,0.19,0.7,0.27,1.05,0.29c0.3,0.02,0.64-0.04,0.84-0.3
					c0.13-0.17,0.14-0.38,0.15-0.58c0.01-0.25,0-0.51-0.02-0.76c-0.02-0.23-0.37-0.23-0.35,0c0.02,0.24,0.03,0.48,0.02,0.71
					c0,0.16,0.01,0.36-0.13,0.47c-0.23,0.18-0.63,0.1-0.89,0.04c-0.38-0.08-0.68-0.26-0.85-0.62c-0.18-0.39-0.14-0.83-0.05-1.24
					C20,40.1,19.66,40,19.61,40.23L19.61,40.23z"/>
			</g>
		</g>
		<g>
			<g>
				<path d="M17.78,34.53c-1.05,1.79-1.23,3.98,0.68,5.2c1.92,1.23,4.34,1.82,6.6,1.89c2.24,0.07,4.69-0.35,6.65-1.5
					c0.79-0.46,1.48-1.09,1.86-1.93c0.47-1.07,0.2-1.95-0.27-2.96c-0.1-0.21-0.4-0.03-0.31,0.18c0.55,1.17,0.69,2.2-0.14,3.29
					c-0.61,0.8-1.53,1.29-2.45,1.65c-1.69,0.67-3.53,0.97-5.34,0.91c-1.85-0.06-3.69-0.49-5.36-1.28c-0.89-0.42-1.97-0.96-2.27-1.97
					c-0.33-1.09,0.11-2.37,0.66-3.31C18.2,34.52,17.9,34.34,17.78,34.53L17.78,34.53z"/>
			</g>
		</g>
		<g>
			<g>
				<path d="M18.88,33.79c-1.43,0.91-2.17,3.09-0.71,4.32c1.72,1.44,4.17,1.85,6.35,1.82c2.45-0.03,5.02-0.52,7.28-1.49
					c0.76-0.32,1.61-0.82,1.78-1.71c0.18-0.95-0.5-1.75-1.18-2.31c-0.17-0.15-0.43,0.1-0.25,0.25c0.81,0.68,1.59,1.76,0.67,2.72
					c-0.62,0.66-1.64,0.93-2.47,1.19c-1.8,0.57-3.68,0.93-5.57,0.98c-1.72,0.05-3.47-0.17-5.04-0.91c-0.89-0.42-1.95-1.02-2.01-2.11
					c-0.06-1.01,0.5-1.93,1.33-2.46C19.25,33.97,19.07,33.66,18.88,33.79L18.88,33.79z"/>
			</g>
		</g>
		<g>
			<g>
				<path d="M34.86,32.34c0.43,0.04,0.86,0.07,1.29,0.08c0.36,0.01,0.74,0.02,1.09-0.09c0.3-0.09,0.56-0.28,0.69-0.58
					c0.12-0.28,0.1-0.59-0.1-0.82c-0.15-0.17-0.4,0.08-0.25,0.25c0.14,0.16,0.07,0.41-0.04,0.56c-0.16,0.21-0.45,0.29-0.7,0.31
					c-0.65,0.06-1.32,0-1.97-0.07C34.63,31.96,34.63,32.32,34.86,32.34L34.86,32.34z"/>
			</g>
		</g>
		<g>
			<g>
				<path d="M32.73,35.55c-0.25,0.43-0.6,0.79-1.03,1.04c-0.08,0.05-0.23,0.15-0.33,0.13c-0.13-0.02-0.05-0.28-0.03-0.37
					c0.05-0.29,0.14-0.58,0.23-0.86c0.3-0.94,0.82-2.23,2-2.24c0.23,0,0.23-0.36,0-0.35c-1.13,0.01-1.8,1.01-2.16,1.96
					c-0.2,0.54-0.4,1.11-0.46,1.69c-0.02,0.22,0.05,0.44,0.28,0.51c0.22,0.07,0.44-0.04,0.63-0.15c0.49-0.28,0.9-0.69,1.18-1.18
					C33.15,35.53,32.84,35.35,32.73,35.55L32.73,35.55z"/>
			</g>
		</g>
		<g>
			<g>
				<path d="M31.26,37.8c0.8-0.4,1.67-0.88,1.82-1.85c0.07-0.43-0.04-0.82-0.21-1.21c-0.16-0.36-0.47-1.18,0.17-1.27
					c0.22-0.03,0.13-0.37-0.09-0.34c-0.4,0.06-0.64,0.44-0.65,0.83c-0.02,0.52,0.33,0.93,0.43,1.42c0.09,0.43-0.03,0.92-0.32,1.25
					c-0.33,0.39-0.87,0.64-1.32,0.87C30.88,37.6,31.06,37.9,31.26,37.8L31.26,37.8z"/>
			</g>
		</g>
		<g>
			<g>
				<path d="M31.21,37.54c-0.41,0.09-0.58-0.35-0.59-0.67c-0.01-0.3,0.06-0.61,0.13-0.91c0.12-0.57,0.29-1.13,0.51-1.67
					c0.21-0.51,0.45-1.08,0.97-1.34c0.54-0.28,1.21-0.38,1.79-0.54c0.61-0.17,1.21-0.34,1.82-0.5c0.27-0.08,0.61-0.23,0.9-0.25
					c0.21-0.01,0.4,0.04,0.4,0.28c0,0.18-0.15,0.32-0.28,0.41c-0.48,0.31-1.11,0.22-1.65,0.23c-0.5,0-1,0.08-1.47,0.25
					c-0.5,0.18-2.31,1.04-1.6,1.8c0.16,0.17,0.41-0.08,0.25-0.25c-0.39-0.41,1.31-1.17,1.55-1.24c0.67-0.22,1.33-0.17,2.02-0.2
					c0.49-0.02,1.09-0.13,1.39-0.56c0.23-0.33,0.19-0.85-0.21-1.03c-0.24-0.11-0.5-0.02-0.73,0.05c-0.39,0.11-0.78,0.22-1.17,0.32
					c-0.74,0.2-1.47,0.41-2.21,0.61c-0.6,0.17-1.16,0.31-1.55,0.83c-0.36,0.47-0.58,1.08-0.76,1.64c-0.22,0.67-0.49,1.48-0.43,2.2
					c0.04,0.54,0.46,1.04,1.03,0.9C31.52,37.83,31.43,37.48,31.21,37.54L31.21,37.54z"/>
			</g>
		</g>
		<g>
			<g>
				<path d="M37.47,17.54c1-0.63,2.29-0.97,3.29-0.15c0.91,0.75,1.14,1.99,1.2,3.11c0.11,1.99-0.37,3.99-1.27,5.75
					c-0.85,1.65-2.17,3.46-3.85,4.32c-1.03,0.53-2.24,0.5-3.37,0.41c-0.56-0.04-1.66-0.4-1.8,0.43c-0.04,0.22,0.3,0.32,0.34,0.09
					c0.09-0.51,1.92-0.14,2.29-0.13c0.52,0.01,1.05,0,1.56-0.1c1.04-0.19,1.9-0.81,2.65-1.52c1.52-1.44,2.66-3.28,3.29-5.28
					c0.59-1.86,0.88-4.23,0.12-6.08c-0.83-2.02-2.9-2.26-4.61-1.17C37.1,17.35,37.28,17.66,37.47,17.54L37.47,17.54z"/>
			</g>
		</g>
		<g>
			<g>
				<path d="M37.93,16.85c-0.5,0.44-1.05,0.78-1.69,0.97c-0.49,0.15-1.03,0.13-1.51,0.29c-0.57,0.19-0.95,0.63-0.85,1.25
					c0.01,0.05,0.07,0.12,0.12,0.12c0.92,0.14,1.73-0.17,2.46-0.73c0.43-0.33,0.8-0.72,1.19-1.09c0.59-0.55,1.26-0.81,2.05-0.9
					c1.46-0.15,2.75,0.5,3.21,1.94c0.42,1.32,0.13,2.84-0.18,4.16c-0.6,2.52-1.76,5.25-3.82,6.9c-1.02,0.81-2.18,1.47-3.4,1.93
					c-0.58,0.22-1.18,0.39-1.79,0.5c-0.86,0.16-1.86,0.32-1.95-0.85c-0.09,0.05-0.18,0.1-0.27,0.15c1.48,0.94,3.51-0.16,4.8-0.97
					c1.62-1.02,2.98-2.45,3.91-4.13c0.95-1.72,1.51-3.72,1.5-5.7c0-0.63-0.56-4.08-1.81-3c-0.17,0.15,0.08,0.4,0.25,0.25
					c0.13-0.11,0.68,0.46,0.76,0.59c0.12,0.19,0.2,0.45,0.26,0.67c0.12,0.4,0.16,0.82,0.18,1.23c0.03,0.82-0.06,1.65-0.23,2.45
					c-0.31,1.51-0.91,2.96-1.78,4.23c-0.82,1.2-1.89,2.24-3.12,3.03c-1.18,0.76-3.18,1.91-4.55,1.04c-0.11-0.07-0.28,0.02-0.27,0.15
					c0.07,0.96,0.44,1.42,1.43,1.33c1.22-0.11,2.42-0.45,3.54-0.95c1.2-0.54,2.35-1.26,3.31-2.16c1-0.93,1.69-2.15,2.26-3.38
					c0.57-1.24,1.01-2.55,1.26-3.89c0.23-1.22,0.42-2.57,0-3.77c-0.72-2.06-3.24-2.7-5.09-1.67c-0.56,0.31-0.98,0.84-1.45,1.27
					c-0.32,0.29-0.67,0.58-1.06,0.78c-0.27,0.14-1.3,0.6-1.35-0.02c-0.04-0.46,2.06-0.68,2.4-0.81c0.56-0.22,1.05-0.54,1.5-0.94
					C38.35,16.95,38.1,16.7,37.93,16.85L37.93,16.85z"/>
			</g>
		</g>
		<g>
			<g>
				<path d="M34.64,18.08c-0.3,0.26-0.53,0.58-0.69,0.95c-0.1,0.24-0.22,0.57-0.09,0.83c0.16,0.3,0.58,0.27,0.87,0.25
					c0.41-0.02,0.83-0.09,1.21-0.24c0.8-0.3,1.37-0.91,2.01-1.45c0.68-0.58,1.75-1.19,2.59-0.52c0-0.08,0-0.17,0-0.25
					c-0.07,0.08-0.14,0.17-0.21,0.25c-0.14,0.18,0.11,0.43,0.25,0.25c0.07-0.08,0.14-0.17,0.21-0.25c0.06-0.07,0.08-0.19,0-0.25
					c-1.24-0.99-2.62,0.09-3.56,0.94c-0.62,0.55-1.25,1-2.09,1.13c-0.21,0.03-0.42,0.05-0.63,0.04c-0.14,0-0.31,0.03-0.34-0.17
					c-0.01-0.08,0.04-0.21,0.06-0.28c0.13-0.39,0.36-0.71,0.66-0.98C35.06,18.18,34.81,17.93,34.64,18.08L34.64,18.08z"/>
			</g>
		</g>
		<g>
			<g>
				<path d="M30.95,32.3c-0.15,0.58-0.08,1.19,0.18,1.73c0.04,0.09,0.16,0.11,0.24,0.06c0.09-0.05,0.11-0.16,0.06-0.24
					c-0.22-0.45-0.27-0.98-0.14-1.46C31.34,32.18,31,32.08,30.95,32.3L30.95,32.3z"/>
			</g>
		</g>
		<g>
			<g>
				<path d="M19.16,31.88c0.05,1.1,0.08,2.2-0.53,3.17c-0.22,0.35-0.57,0.71-0.6,1.15c-0.02,0.39,0.2,0.73,0.46,1
					c0.63,0.67,1.51,1.08,2.39,1.3c1.04,0.27,2.14,0.42,3.21,0.45c0.23,0.01,0.23-0.35,0-0.35c-0.99-0.03-1.98-0.17-2.95-0.4
					c-0.88-0.2-1.76-0.59-2.4-1.25c-0.39-0.41-0.43-0.78-0.12-1.25c0.23-0.35,0.48-0.68,0.63-1.08c0.35-0.87,0.3-1.82,0.26-2.74
					C19.5,31.66,19.15,31.65,19.16,31.88L19.16,31.88z"/>
			</g>
		</g>
		<g>
			<g>
				<path d="M20.05,17.61c-0.01,0.4,0,0.8,0.02,1.2c0.02,0.26,0.05,0.76,0.43,0.72c-0.03-0.11-0.06-0.22-0.09-0.33
					c-0.46,0.23-1.01,0.13-1.49,0.05c-0.09-0.02-0.19,0.03-0.22,0.12c-0.02,0.09,0.03,0.2,0.12,0.22c0.59,0.1,1.21,0.19,1.77-0.08
					c0.15-0.08,0.08-0.35-0.09-0.33c-0.03,0-0.01,0,0,0.01c-0.02-0.01-0.01-0.01-0.02-0.03c-0.02-0.03-0.03-0.08-0.04-0.13
					c-0.02-0.13-0.02-0.3-0.03-0.44c-0.02-0.33-0.02-0.66-0.01-0.99C20.41,17.38,20.05,17.38,20.05,17.61L20.05,17.61z"/>
			</g>
		</g>
		<g>
			<g>
				<path d="M32.99,18.73c-0.29,0.64-0.5,1.31-0.63,2c0.11-0.01,0.22-0.03,0.32-0.04c-0.25-0.37-0.68-0.6-1.13-0.59
					c-0.23,0.01-0.23,0.36,0,0.35c0.32-0.01,0.64,0.14,0.82,0.41c0.08,0.11,0.29,0.12,0.32-0.04c0.12-0.66,0.32-1.3,0.59-1.91
					c0.04-0.09,0.03-0.19-0.06-0.24C33.15,18.63,33.02,18.65,32.99,18.73L32.99,18.73z"/>
			</g>
		</g>
		<g>
			<g>
				<path d="M31.71,18.4c-0.29,0.95-0.48,1.93-0.58,2.92c-0.02,0.16,0.2,0.22,0.3,0.13c0.21-0.2,0.41-0.39,0.62-0.59
					c0.17-0.16-0.08-0.41-0.25-0.25c-0.21,0.2-0.41,0.39-0.62,0.59c0.1,0.04,0.2,0.08,0.3,0.13c0.09-0.96,0.28-1.9,0.57-2.83
					C32.12,18.28,31.77,18.18,31.71,18.4L31.71,18.4z"/>
			</g>
		</g>
		<g>
			<g>
				<path d="M30.16,18.35c-0.29,0.95-0.52,1.92-0.7,2.9c-0.04,0.22,0.3,0.32,0.34,0.09c0.18-0.98,0.42-1.95,0.7-2.9
					C30.57,18.23,30.22,18.13,30.16,18.35L30.16,18.35z"/>
			</g>
		</g>
		<g>
			<g>
				<path d="M28.58,18.54c-0.2,0.83-0.41,1.66-0.61,2.49c0.12,0.02,0.23,0.03,0.35,0.05c0.01-0.11,0.07-0.19,0.15-0.27
					c0.17-0.15-0.08-0.4-0.25-0.25c-0.15,0.14-0.23,0.31-0.25,0.52c-0.02,0.2,0.3,0.24,0.35,0.05c0.2-0.83,0.41-1.66,0.61-2.49
					C28.98,18.41,28.64,18.32,28.58,18.54L28.58,18.54z"/>
			</g>
		</g>
		<g>
			<g>
				<path d="M27.21,17.84c-0.26,1.09-0.54,2.17-0.85,3.25c-0.02,0.07,0.01,0.17,0.08,0.2c0.33,0.15,0.69-0.06,0.72-0.41
					c0.02-0.23-0.33-0.23-0.35,0c-0.01,0.08-0.12,0.14-0.19,0.11c0.03,0.07,0.05,0.13,0.08,0.2c0.31-1.08,0.59-2.16,0.85-3.25
					C27.61,17.71,27.26,17.62,27.21,17.84L27.21,17.84z"/>
			</g>
		</g>
		<g>
			<g>
				<path d="M25.74,18.59c-0.31,0.77-0.48,1.59-0.65,2.41c-0.17,0.85-0.19,1.67-0.19,2.54c0,0.23,0.35,0.23,0.35,0
					c0-0.44-0.01-0.88,0.01-1.32c0.02-0.41,0.1-0.81,0.18-1.21c0.16-0.79,0.33-1.58,0.63-2.32C26.16,18.47,25.82,18.38,25.74,18.59
					L25.74,18.59z"/>
			</g>
		</g>
		<g>
			<g>
				<path d="M24.2,17.89c0,0.86,0.07,1.72,0.21,2.57c0.05,0.28,0.09,0.68,0.41,0.78c0.4,0.12,0.62-0.29,0.7-0.61
					c0.05-0.22-0.29-0.32-0.34-0.09c-0.03,0.11-0.06,0.34-0.2,0.36c-0.11,0.02-0.15-0.13-0.17-0.21c-0.07-0.29-0.1-0.6-0.14-0.89
					c-0.08-0.64-0.12-1.27-0.12-1.91C24.55,17.66,24.2,17.66,24.2,17.89L24.2,17.89z"/>
			</g>
		</g>
		<g>
			<g>
				<path d="M22.91,17.19c-0.12,0.82-0.12,1.64,0.02,2.46c0.06,0.39,0.15,0.79,0.29,1.15c0.11,0.27,0.3,0.52,0.62,0.53
					c0.12,0,0.2-0.12,0.17-0.22c0,0,0,0,0,0c0.12-0.2-0.19-0.37-0.31-0.18c-0.05,0.09-0.06,0.17-0.04,0.28
					c0.06-0.07,0.11-0.15,0.17-0.22c-0.27-0.01-0.35-0.48-0.4-0.67c-0.09-0.32-0.16-0.65-0.2-0.98c-0.09-0.68-0.08-1.37,0.02-2.04
					C23.29,17.06,22.95,16.97,22.91,17.19L22.91,17.19z"/>
			</g>
		</g>
		<g>
			<g>
				<path d="M21.49,17.52c-0.03,0.65,0.02,1.3,0.14,1.94c0.03,0.16,0.06,0.31,0.1,0.46c0.03,0.12,0.07,0.24,0.16,0.33
					c0.2,0.18,0.54,0.07,0.55-0.2c0.01-0.23-0.35-0.23-0.35,0c0-0.05,0.02-0.06,0.05-0.05c-0.01-0.01-0.02-0.03-0.03-0.05
					c-0.02-0.03-0.02-0.07-0.03-0.1c-0.03-0.11-0.06-0.23-0.08-0.34c-0.04-0.21-0.08-0.43-0.11-0.64c-0.05-0.45-0.07-0.9-0.05-1.35
					C21.86,17.29,21.5,17.29,21.49,17.52L21.49,17.52z"/>
			</g>
		</g>
		<g>
			<g>
				<path d="M17.29,19.04c1.3-0.69,2.88-0.32,4.03,0.49c1.2,0.84,2.03,2.1,2.82,3.31c0-0.06,0-0.12,0-0.18
					c-0.04,0.1-0.09,0.21-0.13,0.31c-0.09,0.21,0.22,0.39,0.31,0.18c0.05-0.13,0.18-0.3,0.15-0.45c-0.03-0.16-0.22-0.35-0.31-0.49
					c-0.25-0.38-0.51-0.75-0.78-1.11c-0.5-0.66-1.06-1.28-1.73-1.78c-1.28-0.95-3.07-1.37-4.53-0.59
					C16.91,18.84,17.09,19.15,17.29,19.04L17.29,19.04z"/>
			</g>
		</g>
		<g>
			<g>
				<path d="M32.75,20.22c-0.19,2.09-0.6,4.14-1.23,6.14c-0.32,1-0.7,1.98-1.12,2.95c-0.35,0.81-0.68,1.62-0.73,2.51
					c0.04-0.06,0.09-0.11,0.13-0.17c-0.05-0.02-0.1-0.05-0.15-0.07c-0.15-0.17-0.4,0.08-0.25,0.25c0.15,0.17,0.28,0.2,0.49,0.16
					c0.08-0.01,0.13-0.1,0.13-0.17c0.06-1.02,0.51-1.93,0.91-2.85c0.4-0.95,0.76-1.93,1.06-2.92c0.57-1.9,0.94-3.85,1.12-5.83
					C33.13,19.99,32.77,19.99,32.75,20.22L32.75,20.22z"/>
			</g>
		</g>
		<g>
			<g>
				<path d="M31.01,20.73c-0.15,1.75-0.48,3.47-0.91,5.17c-0.21,0.83-0.44,1.65-0.68,2.47c-0.11,0.38-0.23,0.76-0.34,1.13
					c-0.07,0.24-0.24,1.24-0.49,1.31c-0.22,0.06-0.13,0.4,0.09,0.34c0.23-0.06,0.3-0.21,0.39-0.42c0.17-0.42,0.27-0.88,0.4-1.32
					c0.3-0.97,0.58-1.95,0.84-2.93c0.5-1.88,0.88-3.8,1.04-5.74C31.38,20.51,31.03,20.51,31.01,20.73L31.01,20.73z"/>
			</g>
		</g>
		<g>
			<g>
				<path d="M29.26,22.69c-0.3,2.41-0.75,4.81-1.34,7.17c0.06-0.04,0.11-0.09,0.17-0.13c-0.07-0.03-0.15-0.05-0.22-0.08
					c-0.2-0.12-0.37,0.19-0.18,0.31c0.13,0.08,0.25,0.11,0.4,0.12c0.08,0.01,0.15-0.06,0.17-0.13c0.6-2.39,1.05-4.82,1.35-7.26
					C29.64,22.46,29.29,22.47,29.26,22.69L29.26,22.69z"/>
			</g>
		</g>
		<g>
			<g>
				<path d="M27.68,20.64c-0.13,2.39-0.36,4.78-0.69,7.15c-0.03,0.22,0.31,0.32,0.34,0.09c0.33-2.4,0.56-4.82,0.7-7.24
					C28.04,20.42,27.69,20.42,27.68,20.64L27.68,20.64z"/>
			</g>
		</g>
		<g>
			<g>
				<path d="M25.96,20.73c0.2,1.72,0.07,3.44,0.15,5.17c0.01,0.23,0.36,0.23,0.35,0c-0.08-1.72,0.05-3.45-0.15-5.17
					C26.29,20.51,25.93,20.51,25.96,20.73L25.96,20.73z"/>
			</g>
		</g>
		<g>
			<g>
				<path d="M23.32,20.69c0.65,2.42,1.66,4.71,2.77,6.95c0.51,1.02,0.99,2.08,1.59,3.05c0.45,0.72,1.04,1.37,1.9,1.55
					c0.22,0.05,0.32-0.29,0.09-0.34c-0.97-0.21-1.53-1.05-1.97-1.88c-0.52-0.97-1.01-1.95-1.5-2.94c-1.02-2.09-1.94-4.23-2.54-6.48
					C23.6,20.37,23.26,20.46,23.32,20.69L23.32,20.69z"/>
			</g>
		</g>
		<g>
			<g>
				<path d="M21.71,20.64c0.5,3.16,2.41,5.88,4.04,8.55c0.08-0.08,0.16-0.16,0.24-0.24c-0.09-0.05-0.18-0.11-0.27-0.16
					c-0.2-0.12-0.37,0.19-0.18,0.31c0.09,0.05,0.18,0.11,0.27,0.16c0.15,0.09,0.33-0.09,0.24-0.24c-1.61-2.65-3.51-5.34-4.01-8.47
					C22.01,20.32,21.67,20.41,21.71,20.64L21.71,20.64z"/>
			</g>
		</g>
		<g>
			<g>
				<path d="M19.96,20.95c0.79,2.23,1.61,4.5,3.2,6.29c0.13,0.15,0.4-0.05,0.28-0.21c-0.06-0.08-0.12-0.15-0.17-0.23
					c-0.14-0.18-0.44,0-0.31,0.18c0.06,0.08,0.12,0.15,0.17,0.23c0.09-0.07,0.19-0.14,0.28-0.21c-1.55-1.74-2.35-3.97-3.11-6.13
					C20.22,20.65,19.88,20.74,19.96,20.95L19.96,20.95z"/>
			</g>
		</g>
		<g>
			<g>
				<path d="M18.26,20.82c0.67,2.22,1.42,4.57,3.28,6.09c0.14,0.11,0.41-0.04,0.28-0.21c-0.03-0.04-0.06-0.08-0.09-0.12
					c-0.14-0.18-0.44,0-0.31,0.18c0.03,0.04,0.06,0.08,0.09,0.12c0.09-0.07,0.19-0.14,0.28-0.21c-1.82-1.48-2.54-3.77-3.19-5.93
					C18.53,20.51,18.19,20.6,18.26,20.82L18.26,20.82z"/>
			</g>
		</g>
		<g>
			<g>
				<path d="M17.13,20.12c0.13,1.28,0.44,2.53,0.94,3.72c0.25,0.59,0.54,1.16,0.87,1.7c0.16,0.27,0.34,0.53,0.52,0.79
					c0.19,0.26,0.54,0.58,0.64,0.88c0.06,0.19,0.33,0.15,0.35-0.05c0.01-0.17,0.02-0.35,0.04-0.52c0.02-0.23-0.34-0.23-0.35,0
					c-0.01,0.17-0.02,0.35-0.04,0.52c0.12-0.02,0.23-0.03,0.35-0.05c-0.09-0.27-0.3-0.46-0.47-0.68c-0.19-0.25-0.37-0.51-0.54-0.77
					c-0.35-0.55-0.67-1.12-0.93-1.71c-0.54-1.21-0.89-2.51-1.02-3.84C17.47,19.9,17.11,19.9,17.13,20.12L17.13,20.12z"/>
			</g>
		</g>
		<g>
			<g>
				<path d="M16.3,19.93c0.45,3.15,2.19,5.89,4.16,8.31c0.14,0.18,0.39-0.08,0.25-0.25c-1.93-2.38-3.63-5.07-4.07-8.15
					C16.61,19.62,16.27,19.71,16.3,19.93L16.3,19.93z"/>
			</g>
		</g>
		<g>
			<g>
				<path d="M14.3,19.73c1.4,1.03,3.14,1.24,4.83,1.35c2.1,0.14,4.21,0.1,6.31,0.16c1.94,0.06,3.9,0.13,5.83-0.14
					c0.79-0.11,1.56-0.27,2.32-0.51c0.43-0.14,1.44-0.34,1.66-0.82c0.79-1.67-7.2-2.24-8.22-2.32c-2.06-0.18-4.14-0.23-6.21-0.06
					c-1.58,0.14-3.67,0.22-5.05,1.08c-1.08,0.67-0.98,1.52,0.14,1.97c1.91,0.78,4.23,0.55,6.23,0.44c-0.05-0.09-0.1-0.18-0.15-0.27
					c-0.22,0.5-0.93,1.02-0.12,1.4c0.46,0.22,1.23-0.05,1.66-0.16c0.94-0.24,1.84-0.56,2.81-0.66c1.75-0.17,3.56,0.01,5.32,0.06
					c0.92,0.03,2.25,0.3,2.79-0.66c0.11-0.2-0.19-0.38-0.31-0.18c-0.51,0.9-2.57,0.48-3.43,0.46c-1.14-0.03-2.28-0.09-3.42-0.08
					c-0.97,0.02-1.88,0.16-2.81,0.42c-0.44,0.12-0.94,0.35-1.4,0.38c-0.36,0.02-0.97-0.11-0.97-0.51c0,0.07,0.24-0.45,0.17-0.29
					c0.05-0.11-0.01-0.27-0.15-0.27c-1.89,0.1-3.99,0.29-5.81-0.31c-0.3-0.09-0.57-0.22-0.83-0.38c0.02-0.72,0.34-1.15,0.96-1.3
					c0.31-0.12,0.64-0.19,0.97-0.26c1.11-0.26,2.25-0.43,3.39-0.53c3.79-0.32,7.72,0.03,11.44,0.75c0.39,0.07,2.93,0.38,2.37,1.33
					c-0.15,0.26-1.33,0.49-1.65,0.58c-0.46,0.12-0.93,0.22-1.4,0.3c-1.79,0.29-3.6,0.26-5.41,0.2c-1.94-0.06-3.89-0.06-5.83-0.13
					c-2-0.07-4.19-0.14-5.86-1.37C14.29,19.29,14.12,19.6,14.3,19.73L14.3,19.73z"/>
			</g>
		</g>
		<g>
			<g>
				<path d="M21.73,33.58c0.62,1.11,1.92,1.54,3.13,1.4c0.77-0.09,1.49-0.36,2.19-0.67c0.38-0.17,1.05-0.42,0.97-0.96
					c-0.04-0.23-0.23-0.42-0.37-0.59c-0.29-0.36-0.59-0.72-0.89-1.08c-0.54-0.65-1.05-1.35-1.72-1.88
					c-0.86-0.68-2.64-1.25-3.21,0.08c-0.29,0.68-0.24,1.55-0.24,2.27c0,0.47-0.08,1.16,0.36,1.47c0.55,0.4,1.3-0.16,1.83-0.32
					c0.87-0.26,1.82-0.23,2.67,0.08c0.69,0.25,1.29,0.61,2.05,0.51c0.57-0.07,1.12-0.34,1.53-0.74c0.12-0.12,0.35-0.62,0.47-0.67
					c0.29-0.13,0.03,0.36-0.03,0.45c-0.18,0.28-0.46,0.48-0.74,0.64c-0.7,0.4-1.48,0.64-2.19,1.04c-0.92,0.52-1.81,0.94-2.9,0.88
					c-1.05-0.06-2.03-0.48-2.91-1.03c-0.41-0.26-0.81-0.54-1.2-0.84c-0.24-0.18-0.47-0.37-0.7-0.55c-0.04-0.03-0.17-0.11-0.19-0.16
					c0.01-0.14,0.03-0.27,0.04-0.41c0.2-0.01,0.37,0.05,0.51,0.18c0.32,0.21,0.59,0.49,0.92,0.69c0.36,0.21,0.73,0.37,1.13,0.49
					c0.22,0.07,0.31-0.28,0.09-0.34c-0.78-0.24-1.3-0.66-1.95-1.13c-0.33-0.24-0.82-0.4-1.13-0.02c-0.27,0.33-0.02,0.66,0.24,0.89
					c0.63,0.56,1.34,1.07,2.05,1.51c1.22,0.75,2.67,1.27,4.11,1.02c0.71-0.13,1.35-0.47,1.97-0.82c0.68-0.38,1.4-0.65,2.1-0.99
					c0.52-0.26,1.02-0.64,1.22-1.21c0.11-0.32,0.13-0.87-0.37-0.79c-0.44,0.07-0.62,0.77-0.92,1.03c-0.79,0.69-1.72,0.62-2.62,0.23
					c-1.3-0.56-2.63-0.62-3.94-0.06c-0.31,0.13-0.86,0.45-1.1-0.11c-0.07-0.16-0.04-0.43-0.05-0.6c-0.01-0.42,0.01-0.85,0.03-1.27
					c0.02-0.35,0.02-0.73,0.14-1.06c0.26-0.76,1.08-0.81,1.74-0.6c1,0.32,1.67,1.2,2.31,1.98c0.32,0.39,0.64,0.77,0.96,1.16
					c0.11,0.13,0.26,0.27,0.34,0.41c0.23,0.41,0.12,0.55-0.23,0.74c-1.54,0.84-4.15,1.47-5.21-0.43
					C21.93,33.2,21.62,33.38,21.73,33.58L21.73,33.58z"/>
			</g>
		</g>
		<g>
			<g>
				<path d="M14.54,17.12c-0.82-0.52-1.08,0.61-0.66,1.16c0.28,0.37,0.63,0.63,0.88,1.04c0.18,0.3,0.33,0.62,0.47,0.94
					c0.39,0.88,0.74,1.77,1.09,2.67c0.59,1.53,1.12,2.95,1.97,4.36c0.42,0.69,0.81,1.4,1.16,2.13c0.23,0.47,0.44,0.95,0.64,1.43
					c0.18,0.43,0.6,1.15,0.27,1.6c-0.13,0.18,0.17,0.36,0.31,0.18c0.29-0.4,0.18-0.81,0.01-1.25c-0.22-0.6-0.48-1.2-0.75-1.78
					c-0.65-1.39-1.57-2.63-2.21-4.02c-0.67-1.44-1.13-2.99-1.74-4.46c-0.23-0.56-0.45-1.14-0.74-1.67
					c-0.13-0.25-0.28-0.49-0.46-0.72c-0.1-0.12-0.2-0.23-0.31-0.35c-0.06-0.06-0.12-0.11-0.17-0.17c-0.23-0.19-0.21-0.45,0.07-0.79
					C14.55,17.54,14.73,17.24,14.54,17.12L14.54,17.12z"/>
			</g>
		</g>
		<g>
			<g>
				<path d="M20.29,30.87c-0.45-1.39-0.92-3.64,1.04-4.08c1.51-0.34,3.05,0.86,4.07,1.83c0.93,0.89,1.6,2.01,2.49,2.94
					c0.23,0.24,2.16,1.88,2.1,0.7c-0.01-0.23-0.37-0.23-0.35,0c0.01,0.21-1.14-0.61-1.17-0.64c-0.22-0.2-0.43-0.42-0.63-0.65
					c-0.44-0.5-0.83-1.04-1.24-1.56c-0.89-1.1-2.01-2.13-3.31-2.7c-1.07-0.47-2.49-0.51-3.27,0.51c-0.84,1.1-0.44,2.56-0.05,3.75
					C20.01,31.18,20.36,31.09,20.29,30.87L20.29,30.87z"/>
			</g>
		</g>
		<g>
			<g>
				<path d="M34.84,19.75c-0.31,1.37-0.67,2.69-1.3,3.95c-0.56,1.12-1.16,2.2-1.59,3.38c-0.44,1.19-0.77,2.42-1.17,3.63
					c-0.18,0.53-0.59,2.55-1.51,2.13c-0.16-0.08-0.45-0.45-0.58-0.58c-0.26-0.25-0.53-0.5-0.8-0.74c-0.96-0.85-1.98-1.65-3-2.43
					c-0.8-0.61-1.64-1.4-2.68-1.51c-2.43-0.27-2.46,3.25-2.37,4.86c0.01,0.23,0.37,0.23,0.35,0c-0.06-1.15-0.15-3.65,1.04-4.34
					c1.27-0.73,2.75,0.75,3.69,1.47c1.07,0.82,2.13,1.66,3.12,2.57c0.45,0.41,1.17,1.58,1.9,1.11c0.73-0.47,1.02-1.96,1.26-2.71
					c0.39-1.21,0.72-2.44,1.18-3.62c0.46-1.22,1.13-2.33,1.68-3.51c0.53-1.14,0.83-2.35,1.11-3.57
					C35.23,19.62,34.89,19.52,34.84,19.75L34.84,19.75z"/>
			</g>
		</g>
		<g>
			<g>
				<path d="M36.75,16.35c-0.21,0.42-0.43,0.83-0.64,1.25c-0.09,0.18-0.23,0.4-0.1,0.59c0.11,0.18,0.38,0.19,0.49,0.01
					c-0.11-0.03-0.22-0.06-0.33-0.09c-0.01,0.05-0.01,0.1-0.02,0.15c-0.01,0.1,0.09,0.18,0.18,0.18c0.11,0,0.16-0.08,0.18-0.18
					c0.01-0.05,0.01-0.1,0.02-0.15c0.01-0.08-0.06-0.15-0.13-0.17c-0.08-0.02-0.16,0.01-0.2,0.08c0.02-0.03,0.06-0.05,0.09-0.04
					c0,0,0.01,0.01,0.01,0.01c0.02,0,0,0.02,0.01,0.01c0.01,0,0.02-0.06,0.03-0.07c0.02-0.04,0.04-0.08,0.06-0.12
					c0.07-0.14,0.14-0.28,0.21-0.42c0.15-0.29,0.3-0.58,0.45-0.86C37.16,16.33,36.85,16.15,36.75,16.35L36.75,16.35z"/>
			</g>
		</g>
		<g>
			<g>
				<path d="M13.69,16.88c2.24,4.24,4.25,8.6,6,13.06c0.08,0.21,0.43,0.12,0.34-0.09c-1.77-4.49-3.78-8.88-6.04-13.15
					C13.89,16.5,13.58,16.68,13.69,16.88L13.69,16.88z"/>
			</g>
		</g>
		<g>
			<g>
				<path d="M16.85,14.65c-0.89,0.17-3.5,0.15-3.62,1.48c-0.11,1.25,2.47,1.07,3.17,1.17c2.34,0.31,4.49,0.35,6.84,0.19
					c2.15-0.14,4.29,0.59,6.42,0.32c0.93-0.12,1.8-0.48,2.71-0.69c1.21-0.27,2.37,0.03,3.58-0.14c0.5-0.07,2.17-0.6,1.77-1.39
					c-0.17-0.33-0.7-0.32-1-0.35c-0.68-0.07-1.13-0.11-1.78-0.38c-0.36-0.15-0.71-0.3-1.11-0.36c-0.9-0.16-1.81,0.01-2.72,0.02
					c-1.2,0.01-2.35-0.36-3.54-0.39c-1.24-0.03-2.45,0.32-3.68,0.39c-1.27,0.07-2.55-0.09-3.82-0.18c-1.07-0.08-2.05-0.13-3.07,0.25
					c-1.11,0.42-2.18,0.94-3.27,1.41c-0.15,0.07-0.09,0.28,0.04,0.32c0.83,0.28,1.53,0.01,2.37-0.01c1.08-0.03,2.03,0.48,3.07,0.65
					c0.75,0.12,1.47,0.03,2.21-0.08c1.4-0.22,2.59-0.15,3.98,0.1c1.83,0.33,3.28,0.42,5.08-0.13c2.2-0.67,4.32,0,6.54-0.27
					c0.2-0.02,0.24-0.28,0.05-0.35c-1.5-0.54-3.04-1.27-4.66-1.27c-1.14,0-2.17,0.24-3.31,0.02c-0.81-0.15-1.5-0.35-2.34-0.28
					c-0.7,0.06-1.37,0.27-2.06,0.38c-1.27,0.2-2.42-0.08-3.66-0.25c-1.86-0.26-3.73,0.11-5.58,0.34c-0.19,0.02-0.25,0.28-0.05,0.35
					c0.38,0.13,0.72,0.2,1.12,0.23c0.23,0.02,0.23-0.33,0-0.35c-0.36-0.01-0.7-0.09-1.02-0.22c-0.02,0.12-0.03,0.23-0.05,0.35
					c2.07-0.25,4.04-0.59,6.12-0.24c1.59,0.26,2.86,0.19,4.43-0.1c1.15-0.21,2.08-0.01,3.21,0.19c0.77,0.14,1.51,0.07,2.29,0.01
					c1.98-0.15,3.65,0.54,5.48,1.2c0.02-0.12,0.03-0.23,0.05-0.35c-1.88,0.23-3.78-0.35-5.65,0.01c-1.08,0.21-2.04,0.69-3.17,0.73
					c-1.06,0.03-2.1-0.22-3.14-0.4c-0.79-0.14-1.59-0.25-2.4-0.2c-1.01,0.06-2,0.39-3.02,0.31c-0.94-0.08-1.8-0.51-2.73-0.65
					c-1.03-0.15-2.07,0.3-3.07-0.03c0.01,0.11,0.03,0.22,0.04,0.32c1.06-0.46,2.11-0.97,3.19-1.37c1.05-0.39,2.11-0.3,3.2-0.22
					c1.05,0.08,2.09,0.19,3.14,0.18c1.09-0.02,2.12-0.27,3.2-0.37c1.08-0.1,2.1,0.11,3.16,0.26c1.01,0.14,1.96,0.01,2.97,0.01
					c1.13,0,1.8,0.46,2.82,0.73c0.32,0.08,0.64,0.02,0.94,0.09c1.24,0.27,0.38,0.8-0.34,0.98c-1.06,0.26-2.17-0.07-3.25,0.07
					c-0.87,0.12-1.68,0.46-2.53,0.65c-2.18,0.51-4.3-0.26-6.5-0.2c-2.12,0.06-4.09,0.3-6.21,0.03c-0.86-0.11-2.13-0.04-2.91-0.39
					c-0.54,0-0.69-0.41-0.46-1.23c0.27-0.06,0.54-0.12,0.81-0.16c0.59-0.12,1.19-0.23,1.79-0.34
					C17.17,14.95,17.08,14.61,16.85,14.65L16.85,14.65z"/>
			</g>
		</g>
	</g>
</g>
</svg>
