<?xml version="1.0" encoding="utf-8"?>
<!-- Generator: Adobe Illustrator 26.2.1, SVG Export Plug-In . SVG Version: 6.00 Build 0)  -->
<svg version="1.1" id="Layer_1" xmlns="http://www.w3.org/2000/svg" xmlns:xlink="http://www.w3.org/1999/xlink" x="0px" y="0px"
	 viewBox="0 0 56.69 56.69" style="enable-background:new 0 0 56.69 56.69;" xml:space="preserve">
<g>
	<g>
		<g>
			<path d="M15.78,27.12c-1.5,0.49-2.72,1.62-3.22,3.13c-0.33,0.97-0.32,2.02-0.3,3.04c0.02,1.18,0.04,2.36,0.07,3.54
				c0.03,0.98,0.07,1.97,0.27,2.93c0.15,0.74,0.35,1.83,1.13,2.16c0.76,0.32,1.8,0.25,2.6,0.22c1.14-0.04,2.25-0.23,3.35-0.53
				c0.22-0.06,0.13-0.38-0.09-0.34c-1.09,0.21-2.18,0.42-3.27,0.62c-1.23,0.23-2.44,0.22-2.98-1.12c-0.34-0.86-0.42-1.85-0.57-2.76
				c-0.2-1.21-0.38-2.42-0.53-3.64c-0.26-2.01-0.44-4.85,1.94-5.65c0.53-0.18,1.69-0.25,2.01-0.8c0.13-0.22,0.04-0.44-0.23-0.44
				c-0.08,0-0.15,0.06-0.17,0.13c-0.07,0.21,0.06,0.35,0.27,0.37c0.23,0.02,0.23-0.34,0-0.35c-0.23,0.17-0.48,0.3-0.74,0.4
				c-0.1,0.04-0.2,0.07-0.3,0.09c-0.24,0.07-0.48,0.12-0.72,0.19c-0.35,0.1-0.69,0.23-1,0.43c-0.61,0.41-1.04,1.06-1.29,1.74
				c-0.73,2-0.07,4.45,0.24,6.48c0.17,1.1,0.31,2.22,0.57,3.3c0.17,0.69,0.46,1.41,1.09,1.8c0.68,0.43,1.53,0.33,2.28,0.2
				c1.16-0.2,2.32-0.44,3.49-0.66c-0.03-0.11-0.06-0.23-0.09-0.34c-1.67,0.47-3.81,0.84-5.54,0.38c-0.95-0.25-1.13-1.9-1.23-2.74
				c-0.11-0.87-0.13-1.74-0.15-2.61c-0.04-1.74-0.26-3.61,0.06-5.32c0.32-1.67,1.53-3,3.13-3.52C16.09,27.39,16,27.05,15.78,27.12
				L15.78,27.12z"/>
		</g>
	</g>
	<g>
		<g>
			<path d="M18.51,42.44c-0.16,2.24,0.18,4.37,2.08,5.78c2.13,1.59,4.91,1.61,7.45,1.58c1.4-0.02,2.81-0.06,4.18-0.39
				c1.51-0.36,2.94-1.02,4.38-1.62c1.44-0.6,2.89-1.18,4.33-1.79c0.9-0.38,1.72-0.79,2.17-1.69c0.07-0.14-0.04-0.3-0.2-0.26
				c-0.89,0.22-1.51,0.9-2.31,1.31c-1.17,0.6-2.5,0.87-3.73,1.27c-2.46,0.8-4.86,1.78-7.38,2.39c-2.57,0.62-5.47,0.96-7.96-0.11
				c-2.84-1.22-3.93-3.89-2.91-6.75c-0.12-0.02-0.23-0.03-0.35-0.05c0.11,1.75,0.36,3.83,1.33,5.33c0.84,1.32,2.36,1.82,3.78,2.26
				c-0.03-0.1-0.05-0.2-0.08-0.3c-0.04,0.05-0.08,0.1-0.11,0.14c-0.05,0.07-0.07,0.14-0.03,0.21c0.17,0.34,0.37,0.34,0.72,0.24
				c0.22-0.06,0.13-0.4-0.09-0.34c-0.08,0-0.16,0-0.24,0c0.08-0.1,0.06-0.25-0.08-0.3c-1.59-0.49-3.11-1.05-3.85-2.65
				c-0.66-1.41-0.9-3.06-1-4.6c-0.01-0.2-0.28-0.24-0.35-0.05c-0.78,2.17-0.54,4.3,1.19,5.93c1.87,1.77,4.59,2.1,7.04,1.88
				c2.96-0.26,5.77-1.29,8.56-2.27c1.44-0.5,2.9-0.93,4.34-1.4c0.53-0.17,1.06-0.37,1.55-0.65c0.7-0.4,1.24-0.98,2.04-1.18
				c-0.07-0.09-0.13-0.17-0.2-0.26c-0.61,1.24-2.16,1.62-3.34,2.1c-1.06,0.44-2.12,0.88-3.17,1.31c-2.42,1-4.65,1.8-7.31,1.88
				c-2.36,0.07-4.96,0.19-7.14-0.87c-2.51-1.23-3.15-3.5-2.96-6.12C18.88,42.21,18.53,42.21,18.51,42.44L18.51,42.44z"/>
		</g>
	</g>
	<g>
		<g>
			<path d="M19.1,38.44c-0.13,0.59-0.63,1.08-1.26,1.06c-0.8-0.03-1.16-0.69-1.29-1.39c-0.25-1.28-0.44-2.58-0.65-3.87
				c-0.1-0.63-0.21-1.28-0.06-1.91c0.15-0.63,0.59-1.13,1.12-1.48c0.45-0.29,0.96-0.48,1.47-0.62c0.28-0.08,0.56-0.14,0.84-0.2
				c0.27-0.06,0.34-0.12,0.56,0.08c0.24,0.22,0.26,0.49,0.27,0.81c0.04,1.21-0.51,2.41-0.67,3.6c-0.16,1.22,0.08,2.49-0.16,3.7
				c-0.11,0.57-0.37,1.19-0.87,1.53c-0.46,0.31-1.16,0.39-1.6-0.01c-0.44-0.4-0.47-1.18-0.58-1.73c-0.12-0.66-0.25-1.31-0.37-1.97
				c-0.25-1.31-0.61-2.62,0.03-3.87c0.55-1.08,1.61-1.87,2.82-2.02c0.22-0.03,0.23-0.38,0-0.35c-1.2,0.14-2.25,0.82-2.92,1.83
				c-0.79,1.21-0.66,2.47-0.41,3.82c0.17,0.92,0.35,1.84,0.52,2.76c0.12,0.63,0.18,1.38,0.7,1.83c0.87,0.74,2.12,0.18,2.63-0.69
				c0.8-1.36,0.35-3.12,0.52-4.61c0.1-0.92,0.38-1.78,0.57-2.68c0.13-0.63,0.26-1.47-0.06-2.07c-0.29-0.54-0.85-0.35-1.34-0.24
				c-0.72,0.16-1.45,0.36-2.08,0.76c-1.25,0.78-1.56,2-1.36,3.4c0.14,0.99,0.33,1.98,0.49,2.97c0.13,0.77,0.13,1.79,0.66,2.41
				c0.88,1.04,2.52,0.55,2.8-0.74C19.49,38.31,19.15,38.22,19.1,38.44L19.1,38.44z"/>
		</g>
	</g>
	<g>
		<g>
			<path d="M23.74,24.21c-0.57-0.13-1.15-0.2-1.74-0.21c-0.59,0-1.2,0.12-1.77-0.02c-1.02-0.24-1.67-1.2-2.22-2.02
				c-0.11-0.16-0.38-0.07-0.32,0.14c0.44,1.59,2.06,2.68,3.7,2.47c-0.02-0.12-0.03-0.23-0.05-0.35c-0.84,0.24-1.7-0.1-2.29-0.72
				c-0.64-0.68-0.9-1.63-1.01-2.53c-0.11-0.88-0.09-1.76-0.17-2.64c-0.09-0.93-0.51-1.86-0.46-2.8c0.01-0.23-0.34-0.23-0.35,0
				c-0.03,0.51,0.1,0.99,0.22,1.48c0.15,0.6,0.23,1.2,0.27,1.81c0.06,1.03,0.05,2.07,0.3,3.08c0.4,1.58,1.79,3.18,3.58,2.66
				c0.18-0.05,0.16-0.37-0.05-0.35c-1.49,0.19-2.95-0.76-3.36-2.21c-0.11,0.05-0.22,0.09-0.32,0.14c0.55,0.81,1.16,1.7,2.11,2.07
				c0.52,0.21,1.07,0.19,1.62,0.16c0.75-0.04,1.49,0.01,2.23,0.18C23.87,24.61,23.96,24.26,23.74,24.21L23.74,24.21z"/>
		</g>
	</g>
	<g>
		<g>
			<path d="M19.86,23.71c-0.11,0.94-0.16,1.87,0.45,2.65c0.08-0.08,0.17-0.17,0.25-0.25c-0.45-0.45-1.21-1.36-0.43-1.94
				c-0.09-0.07-0.17-0.13-0.26-0.2c-0.21,0.96,0.01,2.01,0.72,2.72c0.9,0.91,2.34,0.81,3.52,0.87c1.56,0.07,3.13,0.11,4.69-0.09
				c0.84-0.11,1.67-0.27,2.51-0.29c0.69-0.02,1.35-0.01,2-0.27c0.21-0.09,0.12-0.43-0.09-0.34c-1.05,0.43-2.34,0.25-3.46,0.41
				c-1.37,0.2-2.71,0.31-4.09,0.28c-0.61-0.01-1.21-0.04-1.82-0.07c-0.68-0.03-1.42-0.01-2.08-0.21c-1.24-0.37-1.83-1.69-1.56-2.91
				c0.03-0.14-0.13-0.3-0.26-0.2c-0.97,0.72-0.29,1.83,0.36,2.49c0.16,0.17,0.39-0.08,0.25-0.25c-0.54-0.69-0.45-1.59-0.35-2.4
				C20.24,23.49,19.89,23.49,19.86,23.71L19.86,23.71z"/>
		</g>
	</g>
	<g>
		<g>
			<path d="M20.6,39.74c0.33,0.62,0.56,1.26,0.71,1.94c0.1-0.06,0.2-0.11,0.3-0.17c-0.42-0.48-0.64-1.01-0.67-1.64
				c-0.12,0.02-0.23,0.03-0.35,0.05c0.11,0.67,0.12,1.82,0.7,2.29c0.57,0.46,1.52,0.63,2.21,0.77c1.68,0.36,3.57,0.7,5.28,0.39
				c0.92-0.17,1.8-0.5,2.67-0.83c0.74-0.28,1.61-0.47,2.29-0.87c1.33-0.78,1.21-2.85,1.35-4.16c0.02-0.17-0.26-0.25-0.33-0.09
				c-0.37,0.84-0.19,1.81-0.67,2.62c-0.49,0.85-1.46,1.61-2.26,2.15c-0.99,0.67-2.1,0.78-3.26,0.85c-1.07,0.06-2.14,0.13-3.21,0.15
				c-1.1,0.01-2.33-0.06-3.29-0.67c-0.55-0.36-0.8-0.84-0.99-1.45c-0.13-0.44-0.44-1.13-0.43-1.59c0.01-0.59,0.74-1.03,1.15-1.38
				c0.42-0.36,0.85-0.72,1.31-1.03c0.97-0.66,2.08-0.94,3.22-1.2c0.23-0.05,0.13-0.38-0.09-0.34c-2.17,0.35-5.65,1.43-5.32,4.31
				c0.13,1.16,1.21,1.61,2.24,1.77c1.63,0.26,3.33,0.26,4.98,0.13c1.5-0.12,3.1-0.3,4.51-0.84c0.67-0.26,1.97-0.91,2.01-1.77
				c0.02-0.47-0.54-0.94-0.84-1.21c-0.51-0.46-1.11-0.81-1.74-1.07c-1.4-0.58-2.94-0.66-4.43-0.59c-1.59,0.07-3.26,0.29-4.61,1.2
				c-1.02,0.68-2.07,1.93-1.54,3.23c0.09-0.07,0.17-0.13,0.26-0.2c-0.53-0.37-0.9-0.94-0.39-1.52c0.24-0.28,0.54-0.51,0.84-0.72
				c-0.08-0.08-0.16-0.16-0.24-0.24c-0.49,0.73-1.02,1.7-0.41,2.52c0.54,0.72,1.7,1.02,2.53,1.18c1.18,0.22,2.38,0.19,3.57,0.09
				c1.19-0.1,2.39-0.2,3.56-0.44c0.98-0.2,2.16-0.52,2.94-1.19c0.52-0.44,0.84-1.22,0.36-1.81c-0.27-0.33-0.71-0.49-1.09-0.65
				c-0.59-0.25-1.19-0.5-1.8-0.71c-1.14-0.4-2.34-0.71-3.56-0.69c-0.72,0.01-6.56,0.91-5.49,2.32c0.14,0.18,0.44,0,0.31-0.18
				c-0.47-0.62,2.59-1.38,2.91-1.45c1.23-0.27,2.42-0.43,3.68-0.22c1.06,0.18,2.08,0.55,3.07,0.95c0.45,0.18,1.1,0.34,1.48,0.66
				c1.11,0.94-0.35,1.75-1.05,2.06c-1.9,0.84-4.19,0.98-6.25,1.06c-1.1,0.05-2.21,0.01-3.27-0.31c-0.57-0.17-1.3-0.42-1.63-0.95
				c-0.44-0.72,0.03-1.44,0.44-2.05c0.1-0.14-0.1-0.34-0.24-0.24c-0.51,0.36-1.28,0.89-1.34,1.58c-0.05,0.59,0.46,0.98,0.89,1.27
				c0.12,0.08,0.32-0.06,0.26-0.2c-0.52-1.25,0.67-2.43,1.67-3.01c1.09-0.63,2.36-0.84,3.6-0.94c2.28-0.17,4.89-0.02,6.62,1.68
				c0.24,0.24,0.55,0.63,0.48,1c-0.03,0.18-0.36,0.45-0.5,0.58c-0.42,0.36-0.94,0.6-1.46,0.77c-1.1,0.36-2.28,0.53-3.42,0.66
				c-1.21,0.13-2.43,0.18-3.64,0.12c-1.05-0.05-2.64,0.02-3.47-0.76c-1.18-1.11,0.03-2.92,1.06-3.64c1.04-0.73,2.33-0.97,3.56-1.17
				c-0.03-0.11-0.06-0.23-0.09-0.34c-1.31,0.29-2.52,0.64-3.61,1.45c-0.51,0.38-1,0.8-1.48,1.22c-0.27,0.24-0.75,0.54-0.86,0.91
				c-0.13,0.45,0.21,1.12,0.32,1.55c0.15,0.54,0.27,1.1,0.62,1.56c0.58,0.76,1.6,1.09,2.51,1.22c1.33,0.2,2.7,0.06,4.03-0.01
				c1.18-0.06,2.44-0.04,3.55-0.54c0.98-0.45,1.95-1.28,2.65-2.08c0.32-0.36,0.59-0.77,0.73-1.24c0.19-0.65,0.1-1.33,0.38-1.96
				c-0.11-0.03-0.22-0.06-0.33-0.09c-0.17,1.54-0.03,3.46-1.74,4.1c-1.33,0.49-2.68,1.08-4.07,1.38c-1.52,0.32-3.07,0.06-4.58-0.2
				c-0.71-0.12-1.43-0.27-2.11-0.52c-0.62-0.23-0.92-0.54-1.07-1.21c-0.09-0.41-0.17-0.82-0.24-1.23c-0.03-0.2-0.36-0.15-0.35,0.05
				c0.04,0.73,0.29,1.34,0.78,1.89c0.12,0.14,0.33-0.01,0.3-0.17c-0.15-0.72-0.4-1.38-0.74-2.03C20.8,39.36,20.5,39.54,20.6,39.74
				L20.6,39.74z"/>
		</g>
	</g>
	<g>
		<g>
			<path d="M38.74,18.49c0.15,0.07,0.31,0.11,0.48,0.1c0.05,0,0.09-0.02,0.13-0.05c0.03-0.03,0.05-0.08,0.05-0.13
				c0-0.05-0.02-0.09-0.05-0.13c-0.03-0.03-0.08-0.05-0.13-0.05c-0.05,0-0.1,0-0.16-0.01c0.02,0,0.03,0,0.05,0.01
				c-0.07-0.01-0.14-0.03-0.2-0.06c0.01,0.01,0.03,0.01,0.04,0.02c-0.01,0-0.02-0.01-0.03-0.01c-0.04-0.02-0.09-0.03-0.14-0.02
				c-0.04,0.01-0.09,0.04-0.11,0.08c-0.02,0.04-0.03,0.09-0.02,0.14C38.67,18.42,38.7,18.47,38.74,18.49L38.74,18.49z"/>
		</g>
	</g>
	<g>
		<g>
			<path d="M39.01,17.19c-0.11-0.04-0.25,0-0.33,0.09c-0.09,0.09-0.12,0.22-0.1,0.35c0.02,0.13,0.13,0.24,0.27,0.24
				c0.14,0,0.27-0.11,0.27-0.25c0-0.12-0.11-0.19-0.22-0.17c-0.22,0.04-0.39,0.3-0.26,0.51c0.07,0.11,0.2,0.17,0.33,0.14
				c0.04-0.01,0.03,0-0.04-0.02c-0.08-0.02-0.07-0.03-0.05,0c0.01,0.01,0.01,0.01,0.02,0.02c0.03,0.03-0.02-0.03,0,0
				c0.01,0.02,0.02,0.03,0.03,0.05c0,0.01,0.01,0.02,0.01,0.03c0.02,0.03-0.01-0.03,0,0c0.03,0.09,0.12,0.15,0.22,0.12
				c0.09-0.03,0.16-0.12,0.12-0.22c-0.03-0.09-0.07-0.16-0.13-0.24c-0.03-0.04-0.08-0.08-0.13-0.1c-0.04-0.01-0.08-0.01-0.12,0
				c-0.01,0-0.02,0-0.02,0.01c-0.03,0.01,0.02,0,0.03,0c0.03,0-0.01-0.01,0.02,0c0.03,0.01,0,0,0,0c-0.02-0.01,0.03,0.02,0.01,0.01
				c-0.01-0.01,0.02,0.03,0.01,0.01c0-0.01-0.01-0.03,0,0c0.01,0.03,0-0.02,0,0.01c0,0.02,0,0.02,0,0c0,0.01,0,0.02,0,0.03
				c0,0,0.01-0.02,0-0.02c0,0.01-0.02,0.04-0.01,0.01c0-0.01,0.01-0.01,0.01-0.02c0,0.01-0.02,0.03-0.01,0.01
				c0,0,0.01-0.01,0.02-0.01c-0.01,0.01-0.03,0.02-0.01,0.01c0.01,0,0.03-0.01,0,0c-0.03,0.01,0,0,0,0c0.01,0,0.02,0,0.03-0.01
				c-0.07-0.06-0.15-0.11-0.22-0.17c0,0.03,0.01,0.01,0.02-0.06c0.01-0.01,0.01-0.01,0.02-0.02c-0.01,0.01-0.01,0.01,0.01,0
				c0.01-0.01,0.02-0.02,0.04-0.02c-0.03,0.01,0.04,0,0.01,0c0.01,0,0.02,0,0.03,0c0.03,0.01,0.03,0.02,0.02,0.01
				c0.01,0.01,0.01,0.01,0.02,0.02c-0.01-0.01-0.01-0.01,0.01,0.01c-0.02-0.02,0.01,0.03,0,0.01c0-0.01-0.01-0.04,0-0.01
				c0.01,0.03,0-0.01,0-0.01c0-0.02-0.01,0.04,0,0.01c0-0.01,0-0.01,0.01-0.02c0,0.01-0.01,0.01-0.01,0.02c0,0,0.02-0.02,0.02-0.03
				c-0.02,0.02-0.02,0.02-0.01,0.01c0,0,0.01-0.01,0.01-0.01c0.02-0.03-0.03,0.02,0,0c0.03-0.02-0.04,0.01-0.01,0
				c0.03-0.01-0.03,0-0.01,0c0.01,0,0.01,0-0.02,0c0.01,0,0.01,0,0.02,0.01c0.09,0.03,0.2-0.04,0.22-0.12
				C39.16,17.31,39.11,17.22,39.01,17.19L39.01,17.19z"/>
		</g>
	</g>
	<g>
		<g>
			<path d="M39.11,16.48c-0.13,0.01-0.25,0.04-0.36,0.09c-0.07,0.03-0.13,0.09-0.15,0.17c-0.03,0.09,0,0.18,0.06,0.25
				c0.08,0.09,0.21,0.12,0.33,0.13c0.06,0,0.13-0.01,0.18-0.04c0.04-0.02,0.06-0.05,0.09-0.09c0.01-0.01,0.01-0.02,0.02-0.03
				c-0.02,0.02-0.02,0.03-0.01,0.02c-0.03,0.02-0.03,0.02-0.02,0.02c-0.01,0.01-0.03,0.01-0.04,0.02c0.01,0,0.01,0,0.02-0.01
				c-0.02,0-0.03,0-0.05,0.01c0.01,0,0.02,0,0.03,0c-0.02,0-0.03,0-0.05-0.01c0.01,0,0.03,0.01,0.04,0.01
				c-0.01-0.01-0.03-0.01-0.04-0.02c0.02,0.01,0.04,0.02,0.05,0.03c0.01,0.01,0.03,0.03-0.01-0.01c0.01,0.01,0.02,0.02,0.03,0.03
				c0.06,0.05,0.12,0.07,0.19,0.04c0.03-0.01,0.05-0.03,0.07-0.05c0.02-0.03,0.04-0.07,0.04-0.11c0-0.04-0.01-0.06-0.02-0.09
				c-0.01-0.03-0.02-0.05-0.05-0.07c-0.03-0.03-0.06-0.05-0.1-0.07c-0.08-0.03-0.18-0.03-0.26,0.01c-0.08,0.04-0.13,0.12-0.16,0.2
				c-0.03,0.07-0.03,0.14-0.04,0.21c0-0.02,0-0.03,0.01-0.05c-0.01,0.04-0.01,0.07-0.03,0.11c0.01-0.01,0.01-0.03,0.02-0.04
				c0,0,0,0.01,0,0.01c-0.02,0.04-0.03,0.09-0.02,0.14c0.01,0.04,0.04,0.09,0.08,0.11c0.08,0.04,0.2,0.03,0.24-0.06
				c0.02-0.04,0.04-0.08,0.04-0.13c0.01-0.05,0.01-0.09,0.02-0.14c0,0.02,0,0.03-0.01,0.05c0.01-0.04,0.01-0.08,0.03-0.11
				c-0.01,0.01-0.01,0.03-0.02,0.04c0-0.01,0.01-0.02,0.01-0.02c0,0,0.01-0.01,0.01-0.01c-0.02,0.02-0.02,0.03-0.02,0.02
				c0.01-0.01,0.03-0.03,0-0.01c-0.03,0.02,0,0,0.01,0c-0.01,0.01-0.03,0.01-0.04,0.02c0.01,0,0.02-0.01,0.03-0.01
				c-0.02,0-0.03,0-0.05,0.01c0.01,0,0.02,0,0.03,0c-0.02,0-0.03,0-0.05-0.01c0.01,0,0.02,0,0.03,0.01
				c-0.01-0.01-0.03-0.01-0.04-0.02c0,0,0.01,0,0.01,0.01c0.02,0.01-0.03-0.03-0.02-0.01c0.01,0.01,0.02,0.02,0-0.01
				c-0.02-0.02-0.01-0.01,0,0c-0.01-0.01-0.01-0.03-0.02-0.04c0,0,0,0.01,0,0.01c0-0.02,0-0.03-0.01-0.05c0,0,0,0,0,0.01
				c0.1-0.04,0.2-0.08,0.3-0.13c-0.09-0.07-0.17-0.13-0.29-0.14c-0.07,0-0.14,0.02-0.19,0.07c-0.02,0.02-0.04,0.04-0.05,0.07
				c-0.02,0.03,0.02-0.02,0.01-0.01c-0.01,0.01,0,0,0.02-0.02c0,0-0.01,0-0.01,0.01c0.01-0.01,0.03-0.01,0.04-0.02
				c-0.01,0-0.02,0.01-0.04,0.01c0.02,0,0.03,0,0.05-0.01c-0.02,0-0.04,0-0.06,0c0.02,0,0.03,0,0.05,0.01
				c-0.04-0.01-0.08-0.02-0.12-0.03c0.01,0.01,0.03,0.01,0.04,0.02c-0.01,0-0.01-0.01-0.02-0.01c-0.01,0-0.03-0.02,0,0
				c0.03,0.02-0.01-0.02,0.01,0.01c0.02,0.02,0,0,0,0c0.01,0.01,0.01,0.03,0.02,0.04c0-0.01-0.01-0.02-0.01-0.02
				c0,0.02,0,0.03,0.01,0.05c0-0.01,0-0.02,0-0.02c0,0.02,0,0.03-0.01,0.05c0-0.01,0-0.01,0.01-0.02c-0.01,0.01-0.01,0.03-0.02,0.04
				c0.01-0.02,0-0.01-0.01,0.02c0.01-0.01,0.01-0.01-0.02,0.01c0.01,0,0.02-0.01,0.03-0.02c-0.01,0.01-0.03,0.01-0.04,0.02
				c0.07-0.03,0.14-0.05,0.22-0.06c-0.02,0-0.03,0-0.05,0.01c0.02,0,0.04,0,0.05-0.01c0.05,0,0.09-0.02,0.13-0.05
				c0.03-0.03,0.05-0.08,0.05-0.13C39.29,16.57,39.21,16.47,39.11,16.48L39.11,16.48z"/>
		</g>
	</g>
	<g>
		<g>
			<path d="M38.86,19.64c-0.1,0.11-0.12,0.24-0.14,0.38c0,0.01-0.01,0.06,0,0c0,0.01,0,0.03-0.01,0.04c0,0.01-0.01,0.03-0.01,0.04
				c0,0.01,0,0.01-0.01,0.02c0.01-0.03,0.01-0.03,0.01-0.02c-0.03,0.04,0.02-0.02,0,0c-0.01,0.01-0.01,0.01,0.01-0.01
				c-0.02,0.01-0.01,0.01,0.02-0.01c-0.02,0.01-0.01,0,0.02,0c0.03,0.01,0.04,0.01,0.02,0c0.02,0,0.03,0.01,0.04,0.03
				c0,0-0.01-0.01-0.01-0.01c-0.01-0.01,0,0,0.01,0.02c0-0.01-0.01-0.01-0.01-0.02c0-0.01-0.01-0.01-0.01-0.02
				c0.01,0.03,0.01,0.03,0.01,0.01c0-0.01,0-0.03-0.01-0.04c0,0.03,0,0.04,0,0.02c0-0.01,0-0.01,0-0.02c0-0.01,0-0.01,0-0.02
				c0-0.02,0-0.01,0,0.02c0.01-0.01,0.01-0.03,0.01-0.04c0-0.01,0-0.01,0.01-0.02c-0.01,0.03-0.01,0.03-0.01,0.01
				c0.01-0.01,0.01-0.02,0.02-0.04c0.01-0.02,0.01-0.01-0.01,0.01c0-0.01,0.01-0.01,0.01-0.02c0.01-0.01,0.02-0.02,0.03-0.03
				c0.01-0.01,0.01-0.01-0.01,0.01c0.01,0,0.01-0.01,0.02-0.01c0.01-0.01,0.02-0.01,0.04-0.02c0.02-0.01,0.01-0.01-0.01,0.01
				c0.01,0,0.01-0.01,0.02-0.01c0.01,0,0.03-0.01,0.04-0.01c0.01,0,0.03,0,0.04-0.01c-0.03,0-0.04,0-0.02,0c0.01,0,0.01,0,0.02,0
				c0.09,0,0.18-0.08,0.18-0.18c0-0.1-0.08-0.17-0.18-0.18c-0.02,0-0.03,0-0.05,0c0.03,0.11,0.06,0.22,0.09,0.33
				c0.08-0.04,0.15-0.1,0.22-0.16c0.06-0.07,0.07-0.18,0-0.25c-0.07-0.06-0.18-0.07-0.25,0c-0.01,0.01-0.02,0.02-0.04,0.04
				c-0.01,0.01-0.01,0.01-0.02,0.02c0,0-0.03,0.03-0.01,0.01c0.02-0.02,0,0,0,0c-0.01,0.01-0.02,0.01-0.02,0.02
				c-0.02,0.01-0.03,0.02-0.05,0.03c-0.07,0.03-0.1,0.13-0.08,0.2c0.03,0.08,0.09,0.13,0.17,0.13c0.02,0,0.03,0,0.05,0
				c0-0.12,0-0.24,0-0.35c-0.14,0.01-0.28,0.06-0.39,0.15c-0.1,0.09-0.17,0.24-0.16,0.38c0.01,0.17,0.11,0.37,0.3,0.37
				c0.17,0,0.28-0.15,0.31-0.3c0.01-0.04,0.01-0.08,0.02-0.13c0-0.01,0-0.03,0-0.04c0-0.03,0,0.02,0,0.02c0-0.01,0-0.02,0-0.02
				c0-0.02,0.01-0.06,0.02-0.08c0,0-0.02,0.04-0.01,0.02c0-0.01,0.01-0.01,0.01-0.02c0,0,0.01-0.01,0.01-0.02
				c-0.01,0.01-0.01,0.01-0.02,0.02c0,0,0.01-0.01,0.01-0.01c0.06-0.07,0.07-0.19,0-0.25C39.04,19.58,38.93,19.57,38.86,19.64
				L38.86,19.64z"/>
		</g>
	</g>
	<g>
		<g>
			<path d="M38.67,22.05c-0.06,0.04-0.12,0.1-0.14,0.17c-0.01,0.05-0.01,0.12,0.02,0.16c0.02,0.04,0.06,0.06,0.1,0.09
				c-0.01-0.01-0.02-0.02-0.04-0.03c0.01,0.01,0.02,0.02,0.02,0.02c-0.01-0.01-0.02-0.02-0.03-0.04c0.01,0.01,0.01,0.02,0.02,0.04
				c-0.01-0.01-0.01-0.03-0.02-0.04c0.01,0.02,0.02,0.05,0.02,0.08c0-0.02,0-0.03-0.01-0.05c0,0.03,0,0.05,0,0.08
				c0.04-0.06,0.09-0.11,0.13-0.17c-0.03,0.01-0.07,0.02-0.11,0.02c0.02,0,0.03,0,0.05-0.01c-0.04,0-0.07,0.01-0.11,0.01
				c0.05,0.09,0.1,0.18,0.15,0.27c0.06-0.09,0.11-0.2,0.16-0.3c-0.1,0.03-0.2,0.05-0.3,0.08c0.02,0.02,0.04,0.04,0.06,0.06
				c0.04,0.04,0.11,0.06,0.17,0.05c0.03-0.01,0.06-0.02,0.08-0.05c0.02-0.02,0.04-0.05,0.05-0.08c0.04-0.1,0.08-0.21,0.13-0.31
				c0.02-0.04,0-0.1-0.02-0.14c-0.02-0.04-0.06-0.07-0.11-0.08c-0.05-0.01-0.1-0.01-0.14,0.02c-0.04,0.03-0.06,0.06-0.08,0.11
				c-0.04,0.1-0.08,0.21-0.13,0.31c0.1-0.03,0.2-0.05,0.3-0.08c-0.02-0.02-0.04-0.04-0.06-0.06c-0.04-0.04-0.11-0.06-0.17-0.05
				c-0.06,0.02-0.1,0.06-0.12,0.12c-0.01,0.01-0.01,0.03-0.02,0.04c0.01-0.01,0.01-0.03,0.02-0.04c-0.03,0.08-0.07,0.15-0.12,0.22
				c-0.04,0.05-0.03,0.13,0,0.18c0.03,0.05,0.09,0.09,0.15,0.09c0.09,0,0.18-0.01,0.26-0.03c0.07-0.02,0.13-0.09,0.13-0.17
				c0-0.06,0-0.13-0.02-0.19c-0.01-0.04-0.03-0.08-0.06-0.11c-0.03-0.04-0.06-0.06-0.1-0.09c0.01,0.01,0.02,0.02,0.04,0.03
				c0,0-0.01-0.01-0.01-0.01c0.01,0.01,0.02,0.02,0.03,0.04c0,0,0,0,0-0.01c0.01,0.01,0.01,0.03,0.02,0.04c0,0,0-0.01,0-0.01
				c0,0.02,0,0.03,0.01,0.05c0,0,0,0,0-0.01c0,0.02,0,0.03-0.01,0.05c0-0.01,0-0.01,0.01-0.02c-0.01,0.01-0.01,0.03-0.02,0.04
				c0-0.01,0.01-0.01,0.01-0.02c-0.01,0.01-0.02,0.02-0.03,0.04c0.01-0.01,0.02-0.02,0.03-0.03c-0.01,0.01-0.02,0.02-0.04,0.03
				c0,0,0.01-0.01,0.01-0.01c0.04-0.03,0.07-0.06,0.08-0.11c0.01-0.04,0.01-0.1-0.02-0.14C38.86,22.04,38.75,21.99,38.67,22.05
				L38.67,22.05z"/>
		</g>
	</g>
	<g>
		<g>
			<path d="M38.8,24.87C38.8,24.87,38.81,24.87,38.8,24.87c0,0-0.02,0.01-0.03,0.02c0,0,0.01-0.01,0.01-0.01
				c-0.01,0.01-0.03,0.01-0.04,0.02c0.01,0,0.01,0,0.02,0c-0.02,0-0.03,0-0.05,0.01c0.01,0,0.01,0,0.02,0c-0.02,0-0.03,0-0.05-0.01
				c0.01,0,0.02,0,0.03,0.01c-0.01-0.01-0.03-0.01-0.04-0.02c0.01,0,0.01,0.01,0.02,0.01c-0.01-0.01-0.02-0.02-0.04-0.03
				c0.01,0,0.01,0.01,0.02,0.02c-0.01-0.01-0.02-0.02-0.03-0.04c0,0.01,0.01,0.01,0.01,0.02c-0.01-0.01-0.01-0.03-0.02-0.04
				c0,0.01,0,0.02,0.01,0.03c0-0.02,0-0.03-0.01-0.05c0,0.01,0,0.02,0,0.03c0-0.02,0-0.03,0.01-0.05c0,0.01-0.01,0.03-0.01,0.04
				c0.01-0.01,0.01-0.03,0.02-0.04c-0.01,0.01-0.01,0.02-0.02,0.04c0.01-0.01,0.02-0.02,0.03-0.04c-0.01,0.02-0.03,0.03-0.05,0.05
				c0.01-0.01,0.02-0.02,0.04-0.03c-0.01,0.01-0.03,0.02-0.04,0.03c0.09,0.07,0.17,0.13,0.26,0.2c0.01-0.08,0.03-0.16,0.06-0.23
				c-0.01,0.01-0.01,0.03-0.02,0.04c0.01-0.03,0.03-0.06,0.05-0.09c-0.01,0.01-0.02,0.02-0.03,0.04c0.02-0.02,0.04-0.04,0.06-0.06
				c-0.01,0.01-0.02,0.02-0.04,0.03c0.02-0.01,0.04-0.03,0.06-0.04c-0.01,0.01-0.03,0.01-0.04,0.02c0.01-0.01,0.03-0.01,0.04-0.01
				c-0.07-0.04-0.15-0.08-0.22-0.12c0,0,0,0.01,0,0.01c0-0.02,0-0.03-0.01-0.05c0,0.01,0,0.01,0,0.02c0-0.02,0-0.03,0.01-0.05
				c0,0,0,0.01,0,0.01c0.01-0.01,0.01-0.03,0.02-0.04c0,0.01-0.01,0.01-0.01,0.02c0.01-0.01,0.02-0.02,0.03-0.04
				c0,0-0.01,0.01-0.01,0.01c-0.04,0.03-0.06,0.1-0.05,0.15c0.01,0.05,0.04,0.1,0.08,0.13c0.07,0.03,0.13,0.05,0.21,0.06
				c0.09,0,0.18-0.08,0.18-0.18c0-0.1-0.08-0.17-0.18-0.18c-0.01,0-0.02,0-0.03,0c0.02,0,0.03,0,0.05,0.01
				c-0.02,0-0.05-0.01-0.07-0.02c0.01,0.01,0.03,0.01,0.04,0.02c-0.01,0-0.01-0.01-0.02-0.01c0.01,0.09,0.02,0.19,0.04,0.28
				c0.03-0.03,0.06-0.07,0.07-0.11c0.01-0.04,0.01-0.09,0-0.13c-0.01-0.04-0.04-0.09-0.08-0.11c-0.04-0.02-0.09-0.03-0.14-0.02
				c-0.12,0.03-0.23,0.12-0.29,0.23c-0.06,0.1-0.08,0.21-0.1,0.33c-0.01,0.03-0.01,0.06,0,0.09c0.01,0.04,0.03,0.07,0.06,0.09
				c0.05,0.04,0.14,0.05,0.2,0.01c0.06-0.04,0.12-0.08,0.16-0.15c0.05-0.07,0.06-0.16,0.05-0.25c-0.02-0.09-0.09-0.16-0.18-0.19
				c-0.09-0.03-0.19,0-0.25,0.06c-0.07,0.06-0.07,0.19,0,0.25C38.62,24.94,38.73,24.94,38.8,24.87L38.8,24.87z"/>
		</g>
	</g>
	<g>
		<g>
			<path d="M38.47,27.22c-0.02,0.02-0.03,0.04-0.05,0.07c-0.01,0.02-0.02,0.05-0.03,0.08c-0.02,0.04-0.02,0.08-0.03,0.12
				c0,0.02,0,0.03,0.01,0.05c0.01,0.02,0.02,0.04,0.03,0.06c0.01,0.01,0.02,0.02,0.03,0.03c0.02,0.02,0.04,0.03,0.06,0.03
				c0.01,0,0.02,0.01,0.04,0.01c0.02,0,0.05,0.01,0.08,0.01c0.02,0,0.04,0,0.06-0.01c0.01,0,0.02-0.01,0.03-0.01
				c0.01,0,0.02-0.01,0.03-0.01c0.03-0.02,0.06-0.05,0.08-0.08c0.01-0.02,0.02-0.03,0.02-0.05c0,0,0-0.01,0-0.01
				c0.01-0.04,0.01-0.07,0-0.11c0-0.01-0.01-0.02-0.01-0.03c-0.01-0.03-0.02-0.04-0.04-0.06c0,0,0,0,0,0c0,0,0,0,0,0
				c-0.01-0.01-0.02-0.02-0.04-0.03c0,0,0,0-0.01,0c-0.01-0.01-0.03-0.01-0.04-0.02c0,0,0,0,0,0c0.01,0.11,0.03,0.22,0.04,0.32
				c0.01-0.01,0.03-0.01,0.04-0.02c-0.01,0.01-0.03,0.01-0.04,0.02c0.03-0.01,0.05-0.02,0.08-0.02c0.02-0.01,0.04-0.02,0.06-0.03
				c0.02-0.01,0.03-0.03,0.05-0.05c0.01-0.02,0.02-0.04,0.02-0.07c0.01-0.02,0-0.05,0-0.07c-0.01-0.04-0.04-0.08-0.08-0.11
				c-0.01-0.01-0.03-0.01-0.04-0.02c-0.03-0.01-0.06-0.01-0.09,0c-0.02,0-0.04,0.01-0.06,0.02c-0.03,0.01-0.07,0.03-0.1,0.04
				c-0.01,0.01-0.02,0.02-0.04,0.03c-0.01,0.01-0.02,0.02-0.03,0.04c-0.01,0.01-0.01,0.03-0.02,0.04c-0.01,0.02-0.01,0.05,0,0.07
				c0,0.02,0,0.03,0.01,0.04c0,0.02,0.01,0.03,0.02,0.04c0.01,0.01,0.02,0.02,0.03,0.03c0.02,0.02,0.04,0.03,0.06,0.03c0,0,0,0,0,0
				c-0.01-0.01-0.03-0.01-0.04-0.02c0,0,0,0,0.01,0c-0.01-0.01-0.02-0.02-0.04-0.03c0,0,0,0,0.01,0.01
				c-0.01-0.01-0.02-0.02-0.03-0.04c0,0,0,0,0,0.01c-0.01-0.01-0.01-0.03-0.02-0.04c0,0,0,0.01,0,0.01c0-0.02,0-0.03-0.01-0.05
				c0,0,0,0.01,0,0.01c0-0.02,0-0.03,0.01-0.05c0,0.01,0,0.01,0,0.02c0.01-0.01,0.01-0.03,0.02-0.04c0,0,0,0.01-0.01,0.01
				c0.01-0.01,0.02-0.02,0.03-0.04c0,0-0.01,0.01-0.01,0.01c0.01-0.01,0.02-0.02,0.04-0.03c0,0-0.01,0-0.01,0.01
				c0.01-0.01,0.03-0.01,0.04-0.02c-0.01,0-0.01,0-0.02,0.01c0.02,0,0.03,0,0.05-0.01c-0.01,0-0.02,0-0.03,0
				c0.02,0,0.03,0,0.05,0.01c-0.01,0-0.03-0.01-0.04-0.01c0.04,0.06,0.09,0.11,0.13,0.17c0,0,0,0,0-0.01c0,0.02,0,0.03-0.01,0.05
				c0-0.02,0.01-0.05,0.02-0.07c-0.01,0.01-0.01,0.03-0.02,0.04c0.01-0.02,0.02-0.04,0.03-0.06c-0.01,0.01-0.02,0.02-0.03,0.04
				c0,0,0,0,0,0c0.02-0.02,0.03-0.04,0.04-0.06c0.01-0.02,0.02-0.04,0.02-0.07c0-0.02,0-0.05-0.02-0.07
				c-0.01-0.02-0.02-0.04-0.04-0.06c-0.03-0.03-0.08-0.05-0.13-0.05c-0.02,0-0.03,0-0.05,0.01C38.52,27.19,38.49,27.2,38.47,27.22
				L38.47,27.22z"/>
		</g>
	</g>
	<g>
		<g>
			<path d="M38.45,29.76c-0.01,0-0.01,0.01-0.02,0.01c-0.02,0.01-0.04,0.03-0.05,0.04c-0.02,0.02-0.03,0.03-0.04,0.05
				c0,0.01-0.01,0.01-0.01,0.02c-0.01,0.02-0.02,0.04-0.02,0.06c-0.01,0.02-0.01,0.05-0.01,0.07c0,0.01,0,0.02,0,0.02
				c0,0.02,0,0.05,0.01,0.07c0.01,0.01,0.01,0.03,0.02,0.04c0.01,0.02,0.03,0.04,0.05,0.05c0.01,0.01,0.02,0.02,0.04,0.02
				c0.02,0.01,0.04,0.02,0.07,0.02c0.02,0,0.03,0,0.05,0c0.02,0,0.04,0,0.07-0.01c0.01,0,0.02,0,0.03-0.01
				c0.05-0.01,0.07-0.03,0.11-0.06c0,0,0.01-0.01,0.01-0.01c0.01-0.02,0.03-0.03,0.04-0.05c0.01-0.02,0.02-0.04,0.02-0.06
				c0-0.01,0-0.02,0-0.03c0-0.01,0-0.02,0-0.03c0-0.01,0-0.02,0-0.03c0-0.01,0-0.02,0-0.03c0,0,0,0,0-0.01
				c0-0.01-0.01-0.03-0.02-0.04c0,0,0,0,0-0.01c0-0.01-0.02-0.02-0.02-0.02c0,0-0.01-0.01-0.02-0.02c0,0,0,0-0.01,0
				c-0.01-0.01-0.03-0.02-0.04-0.03c0,0,0,0-0.01,0c-0.01-0.01-0.03-0.01-0.05-0.02c0,0,0,0-0.01,0c-0.02,0-0.03-0.01-0.05-0.01
				c0,0-0.01,0-0.01,0c-0.02,0-0.04,0-0.06,0.01c-0.02,0-0.03,0.01-0.05,0.02c0,0,0,0-0.01,0c-0.01,0.01-0.03,0.02-0.04,0.03
				c0,0,0,0,0,0c0,0,0,0,0,0c0,0,0,0,0,0c-0.01,0.01-0.02,0.02-0.03,0.04c-0.01,0.02-0.02,0.04-0.02,0.05
				c-0.01,0.05-0.01,0.1,0.02,0.14c0.01,0.02,0.03,0.04,0.05,0.05c0.02,0.02,0.04,0.03,0.06,0.03c0.02,0,0.03,0,0.05,0.01
				c0.03,0,0.06-0.01,0.09-0.02c0.04-0.02,0.07-0.06,0.08-0.11c0,0,0,0,0-0.01c-0.01,0.01-0.01,0.03-0.02,0.04c0,0,0,0,0-0.01
				c-0.01,0.01-0.02,0.02-0.03,0.04c0,0,0,0,0.01-0.01c-0.01,0.01-0.02,0.02-0.04,0.03c0,0,0.01,0,0.01,0
				c-0.01,0.01-0.03,0.01-0.04,0.02c0,0,0.01,0,0.01,0c-0.02,0-0.03,0-0.05,0.01c0,0,0.01,0,0.01,0c-0.02,0-0.03,0-0.05-0.01
				c0,0,0.01,0,0.01,0c-0.01-0.01-0.03-0.01-0.04-0.02c0,0,0.01,0,0.01,0.01c-0.01-0.01-0.02-0.02-0.04-0.03c0,0,0,0,0.01,0.01
				c-0.01-0.01-0.02-0.02-0.03-0.04c0,0,0,0.01,0.01,0.01c-0.01-0.01-0.01-0.03-0.02-0.04c0,0,0,0.01,0,0.01
				c0-0.02,0-0.03-0.01-0.05c0,0.01,0,0.01,0,0.02c0-0.02,0-0.03,0.01-0.05c0,0.01,0,0.01,0,0.02c0.01-0.01,0.01-0.03,0.02-0.04
				c0,0.01-0.01,0.01-0.01,0.02c0.01-0.01,0.02-0.02,0.03-0.04c0,0.01-0.01,0.01-0.02,0.02c0.01-0.01,0.02-0.02,0.04-0.03
				c-0.01,0-0.01,0.01-0.02,0.01c0.01-0.01,0.03-0.01,0.04-0.02c-0.01,0-0.02,0.01-0.03,0.01c0.02,0,0.03,0,0.05-0.01
				c-0.02,0-0.04,0-0.07,0c0.06,0.04,0.11,0.09,0.17,0.13c0-0.01,0-0.01,0-0.02c0,0.02,0,0.03,0.01,0.05c0-0.01,0-0.02,0-0.03
				c0,0.02,0,0.03-0.01,0.05c0-0.01,0-0.02,0.01-0.03c-0.01,0.01-0.01,0.03-0.02,0.04c0-0.01,0.01-0.02,0.02-0.03
				c-0.01,0.01-0.02,0.02-0.03,0.04c0.01-0.01,0.01-0.02,0.02-0.02c-0.01,0.01-0.02,0.02-0.04,0.03c0.01,0,0.01-0.01,0.02-0.01
				c0.02-0.01,0.04-0.03,0.05-0.05c0.02-0.02,0.03-0.04,0.03-0.06c0.01-0.02,0.01-0.05,0-0.07c0-0.02-0.01-0.05-0.02-0.07
				c-0.02-0.04-0.06-0.07-0.11-0.08c-0.02,0-0.03,0-0.05-0.01C38.51,29.74,38.48,29.75,38.45,29.76L38.45,29.76z"/>
		</g>
	</g>
	<g>
		<g>
			<path d="M38.11,29.94c0.23-0.01,0.45-0.06,0.66-0.15c-0.05-0.11-0.09-0.22-0.14-0.32c-0.01,0.01-0.03,0.02-0.04,0.02
				c-0.01,0-0.01,0.01-0.02,0.01c-0.02,0.01,0.04-0.02,0.01,0c-0.03,0.01-0.06,0.02-0.09,0.02c0.02,0,0.03,0,0.05-0.01
				c-0.02,0-0.04,0-0.06,0c-0.09,0-0.18,0.08-0.18,0.18c0,0.1,0.08,0.18,0.18,0.18c0.12,0,0.24-0.03,0.34-0.1
				c0.07-0.05,0.11-0.14,0.07-0.22c-0.03-0.07-0.13-0.14-0.21-0.1c-0.15,0.06-0.31,0.1-0.48,0.13c0.02,0,0.03,0,0.05-0.01
				c-0.05,0.01-0.09,0.01-0.14,0.01c-0.09,0.01-0.18,0.08-0.18,0.18C37.94,29.85,38.01,29.94,38.11,29.94L38.11,29.94z"/>
		</g>
	</g>
	<g>
		<g>
			<path d="M37.97,29.69c-0.08,0.2-0.07,0.42-0.05,0.63c0.02,0.22,0.04,0.45,0.07,0.67c0.02,0.13,0.06,0.23,0.19,0.29
				c0.11,0.04,0.22,0.04,0.33,0.02c0.2-0.03,0.38-0.16,0.51-0.32c0.12-0.15,0.26-0.36,0.22-0.57c-0.04-0.24-0.31-0.27-0.51-0.24
				c-0.2,0.02-0.44,0.1-0.57,0.26c-0.17,0.2-0.06,0.47,0.16,0.58c0.11,0.05,0.24,0.07,0.36,0.03c0.12-0.04,0.25-0.13,0.28-0.25
				c0.03-0.09,0-0.19-0.08-0.24c-0.06-0.04-0.13-0.04-0.2-0.02c-0.12,0.02-0.22,0.08-0.31,0.16c-0.07,0.06-0.06,0.17-0.01,0.23
				c0.06,0.07,0.15,0.08,0.23,0.05c0.04-0.02,0.07-0.05,0.1-0.09c0.11-0.2-0.19-0.38-0.31-0.18c0.01-0.01,0.02-0.02,0.03-0.03
				c0.07,0.09,0.14,0.19,0.21,0.28c0.02-0.02,0.05-0.03,0.07-0.04c0.01,0,0.03-0.01,0.04-0.01c0.01,0,0.01,0,0.02-0.01
				c0.04-0.01,0.03-0.01-0.05-0.02c-0.03-0.04-0.05-0.07-0.08-0.11c0,0.01,0,0.01,0.01,0.02c0-0.03,0-0.06,0-0.09
				c0.01-0.04,0.03-0.03,0-0.01c0,0-0.02,0.02-0.01,0.01c-0.02,0.01-0.03,0.02-0.04,0.02c-0.04,0.01-0.06,0.01-0.1,0
				c0,0-0.06-0.05-0.05-0.05c0,0,0.01,0.02,0,0.02c-0.01,0.01,0.01-0.01,0.01-0.01c0.01-0.01,0.01-0.01,0.02-0.02
				c0.08-0.06,0.19-0.1,0.3-0.11c0.06-0.01,0.11,0,0.17,0c-0.01,0,0.01-0.02,0.02,0c0,0-0.04-0.03-0.04-0.03
				c0-0.01-0.01-0.01-0.01-0.02c0,0.02,0.01,0.02,0,0.01c0,0-0.01,0.02,0,0c-0.01,0.05-0.02,0.06-0.04,0.11
				c-0.03,0.05-0.06,0.11-0.1,0.15c-0.06,0.07-0.14,0.14-0.23,0.18c-0.03,0.01-0.09,0.03-0.12,0.03c-0.01,0-0.05,0-0.05,0
				c-0.01,0-0.03-0.01-0.04-0.01c-0.01,0-0.01,0-0.02-0.01c0.04,0.07,0.06,0.08,0.05,0.05c0,0,0-0.01,0,0c0-0.02,0-0.04-0.01-0.05
				c0-0.03-0.01-0.06-0.01-0.09c-0.01-0.07-0.02-0.14-0.02-0.22c-0.03-0.27-0.1-0.58,0-0.84c0.03-0.09-0.04-0.19-0.12-0.22
				C38.09,29.54,38,29.6,37.97,29.69L37.97,29.69z"/>
		</g>
	</g>
	<g>
		<g>
			<path d="M38.79,26.82c-0.15,0.07-0.32,0.13-0.49,0.16C38.14,27,37.97,27,37.87,27.15c-0.18,0.29,0.04,0.71,0.09,1.01
				c0.03,0.18,0.04,0.37,0.03,0.55c-0.01,0.16-0.07,0.33-0.05,0.49c0.01,0.15,0.1,0.28,0.24,0.34c0.17,0.07,0.32,0,0.49-0.02
				c-0.02-0.12-0.03-0.23-0.05-0.35c-0.04,0.01-0.07,0.01-0.11,0.02c-0.22,0.04-0.13,0.38,0.09,0.34c0.04-0.01,0.07-0.01,0.11-0.02
				c0.19-0.03,0.15-0.37-0.05-0.35c-0.07,0.01-0.14,0.02-0.22,0.04c-0.03,0.01-0.1,0.03-0.13,0.01c-0.07-0.04-0.01-0.22,0-0.28
				c0.04-0.29,0.04-0.58-0.01-0.87c-0.02-0.14-0.07-0.27-0.1-0.4c-0.02-0.07-0.08-0.29-0.03-0.33c0.04-0.03,0.15-0.02,0.2-0.03
				c0.06-0.01,0.13-0.02,0.19-0.04c0.14-0.04,0.27-0.09,0.4-0.15C39.17,27.02,38.99,26.72,38.79,26.82L38.79,26.82z"/>
		</g>
	</g>
	<g>
		<g>
			<path d="M38.65,24.3c-0.28,0-0.58,0.08-0.65,0.38c-0.04,0.17-0.03,0.35-0.05,0.52c-0.01,0.18-0.02,0.36-0.03,0.54
				c-0.01,0.18-0.01,0.36-0.01,0.54c0,0.14-0.03,0.34,0.04,0.47c0.08,0.13,0.28,0.15,0.41,0.14c0.18-0.01,0.35-0.07,0.51-0.13
				c0.16-0.06,0.18-0.29,0-0.34c-0.16-0.05-0.31,0.02-0.39,0.15c-0.12,0.19,0.18,0.37,0.31,0.18c0,0-0.03,0-0.01,0.01
				c0-0.11,0-0.23,0-0.34c-0.11,0.04-0.23,0.09-0.35,0.11c-0.05,0.01-0.11,0.01-0.16,0.01c-0.13-0.01,0.01,0.04-0.01,0.05
				c0.01,0,0-0.08,0-0.09c0-0.27,0-0.54,0.01-0.81c0.01-0.26,0.03-0.52,0.05-0.78c0.01-0.08-0.01-0.19,0.07-0.23
				c0.07-0.04,0.17-0.04,0.25-0.04C38.87,24.65,38.87,24.3,38.65,24.3L38.65,24.3z"/>
		</g>
	</g>
	<g>
		<g>
			<path d="M38.78,21.81c-0.33-0.04-0.6,0.15-0.72,0.45c-0.12,0.3-0.12,0.68-0.11,1c0,0.18,0.02,0.36,0.04,0.54
				c0.02,0.16,0.03,0.35,0.08,0.5c0.12,0.34,0.59,0.17,0.81,0.05c0.05-0.03,0.09-0.09,0.09-0.15c-0.02-0.14-0.15-0.26-0.29-0.18
				c-0.13,0.08-0.11,0.27,0.01,0.34c0.2,0.12,0.38-0.19,0.18-0.31c0,0-0.01,0-0.01-0.01c0.03,0.04,0.05,0.07,0.08,0.11
				c0,0,0-0.01,0-0.01c-0.01,0.05-0.01,0.09-0.02,0.14c0,0,0-0.01,0.01-0.01c-0.05,0.03-0.1,0.06-0.15,0.09c0,0,0.01,0,0.01,0
				c-0.04-0.02-0.08-0.03-0.13-0.05c0,0,0.01,0.01,0.01,0.01c-0.02-0.04-0.03-0.08-0.05-0.13c0,0,0,0.01,0,0.01
				c0.03-0.05,0.06-0.1,0.09-0.15c-0.09,0.05-0.19,0.09-0.29,0.1c-0.01,0-0.06,0-0.07,0c0.04,0.05,0.06,0.05,0.05,0.02
				c0-0.01,0-0.02-0.01-0.04c-0.01-0.06-0.02-0.12-0.03-0.18c-0.04-0.24-0.06-0.49-0.06-0.74c0-0.22,0-0.46,0.05-0.68
				c0.03-0.15,0.13-0.42,0.34-0.39c0.1,0.01,0.19-0.02,0.22-0.12C38.93,21.95,38.88,21.82,38.78,21.81L38.78,21.81z"/>
		</g>
	</g>
	<g>
		<g>
			<path d="M38.85,19.2c-0.2,0.06-0.43-0.01-0.61,0.15c-0.2,0.18-0.21,0.55-0.22,0.8c-0.01,0.29,0.01,0.58,0.02,0.88
				c0.01,0.32,0,0.64-0.02,0.96c-0.01,0.11,0.12,0.21,0.22,0.17c0.25-0.09,0.5-0.17,0.75-0.26c0.15-0.05,0.17-0.23,0.04-0.32
				c-0.28-0.19-0.61,0.07-0.53,0.38c0.05,0.22,0.4,0.13,0.34-0.09c0,0-0.04-0.02,0.01,0.02c0.01-0.11,0.03-0.22,0.04-0.32
				c-0.25,0.09-0.5,0.17-0.75,0.26c0.07,0.06,0.15,0.11,0.22,0.17c0.04-0.53,0.01-1.06,0-1.59c0-0.23-0.01-0.52,0.08-0.73
				c0.04-0.08,0.12-0.08,0.2-0.08c0.1,0,0.2-0.01,0.29-0.04C39.16,19.48,39.07,19.13,38.85,19.2L38.85,19.2z"/>
		</g>
	</g>
	<g>
		<g>
			<path d="M39.11,16.22c-0.19,0-0.38,0.03-0.56,0.07c-0.15,0.04-0.36,0.08-0.46,0.21c-0.12,0.14-0.09,0.35-0.1,0.52
				c-0.01,0.22-0.02,0.44-0.02,0.67c-0.01,0.41-0.06,0.84-0.04,1.26c0.02,0.38,0.37,0.44,0.68,0.38c-0.03-0.11-0.06-0.23-0.09-0.34
				c-0.14,0.03-0.22,0.21-0.14,0.33c0.09,0.15,0.33,0.14,0.48,0.17c0.22,0.03,0.32-0.31,0.09-0.34c-0.07-0.01-0.13-0.02-0.2-0.03
				c-0.03,0-0.06-0.01-0.08-0.01c-0.08-0.03-0.07,0.02,0.02,0.15c-0.04,0.03-0.07,0.05-0.11,0.08c0.01,0,0.01,0,0.02-0.01
				c0.22-0.05,0.13-0.38-0.09-0.34c-0.06,0.01-0.18,0.04-0.23-0.01c-0.03-0.04,0-0.16,0-0.21c0-0.08,0-0.15,0.01-0.23
				c0.01-0.3,0.02-0.6,0.03-0.9c0.01-0.14,0.01-0.29,0.02-0.43c0-0.08,0.01-0.15,0.01-0.23c0-0.05-0.02-0.17,0.01-0.22
				c0.05-0.08,0.26-0.1,0.34-0.12c0.14-0.03,0.28-0.04,0.42-0.05C39.34,16.57,39.34,16.22,39.11,16.22L39.11,16.22z"/>
		</g>
	</g>
	<g>
		<g>
			<path d="M18.92,41.76c0.01,1.63-0.3,3.39,0.82,4.76c1.13,1.37,3.03,2.22,4.72,2.6c1.79,0.4,3.56,0.22,5.33-0.17
				c2.36-0.53,4.72-1.11,7.07-1.72c1.68-0.43,4.2-0.91,5.44-2.25c1.05-1.14,0.73-3.29,0.66-4.67c-0.12-2.38-0.23-4.79-0.48-7.16
				c-0.07-0.67-0.1-2.83-1.31-2.21c-0.2,0.1-0.02,0.41,0.18,0.31c0.64-0.31,0.46,0.66,0.53,1.2c0.13,0.9,0.17,1.82,0.26,2.72
				c0.17,1.82,0.35,3.64,0.45,5.47c0.04,0.84,0.13,1.7,0.09,2.54c-0.07,1.29-0.79,1.9-1.95,2.28c-1.57,0.51-3.1,1-4.63,1.61
				c-3.41,1.36-7.01,2.05-10.69,1.79c-2.23-0.16-3.79-0.79-5.4-2.35c-1.68-1.62-1.01-3.28-0.94-5.32c-0.11,0.03-0.22,0.06-0.33,0.09
				c0.57,1.11-0.06,2.51,0.33,3.71c0.28,0.88,0.75,1.8,1.34,2.51c1.3,1.54,3.21,1.26,4.97,0.84c0.22-0.05,0.13-0.4-0.09-0.34
				c-0.94,0.23-1.92,0.46-2.89,0.28c-1.25-0.24-1.96-1.18-2.5-2.25c-0.51-1.01-0.73-1.93-0.64-3.07c0.06-0.71,0.11-1.22-0.22-1.86
				c-0.08-0.16-0.32-0.08-0.33,0.09c-0.06,1.7-0.73,3.47,0.44,4.94c1.19,1.5,2.83,2.6,4.72,2.92c4.32,0.72,8.7-0.18,12.7-1.8
				c0.97-0.39,1.93-0.79,2.93-1.09c0.74-0.22,1.54-0.35,2.23-0.73c1.49-0.82,1.31-2.39,1.25-3.88c-0.11-2.44-0.34-4.87-0.57-7.3
				c-0.09-0.91,0.03-2.18-0.32-3.03c-0.15-0.37-0.28-0.52-0.66-0.54c-0.07,0-0.16,0.06-0.17,0.13c-0.03,0.04-0.06,0.08-0.09,0.12
				c0.06,0.1,0.12,0.2,0.18,0.31c0.69-0.35,0.87,2.91,0.89,3.27c0.05,0.75,0.1,1.5,0.14,2.25c0.1,1.61,0.26,3.24,0.27,4.86
				c0.01,0.99,0.11,2.31-0.6,3.11c-0.56,0.62-1.6,0.99-2.35,1.28c-1.59,0.61-3.27,0.98-4.92,1.38c-3.19,0.78-6.71,2.11-10.02,1.43
				c-1.58-0.32-3.24-1.04-4.41-2.18c-1.37-1.34-1.06-3.14-1.07-4.88C19.27,41.54,18.92,41.54,18.92,41.76L18.92,41.76z"/>
		</g>
	</g>
	<g>
		<g>
			<path d="M37.8,39.83c-1.34,0.42-1.86,1.62-2.78,2.56c-1.26,1.3-3.02,1.27-4.66,1.69c-0.91,0.23-1.75,0.69-2.71,0.75
				c-0.93,0.06-1.86-0.15-2.74-0.42c-0.91-0.28-1.79-0.66-2.65-1.05c-0.99-0.45-1.89-0.87-2.34-1.95c-0.11,0.05-0.22,0.09-0.32,0.14
				c1.92,3.83,7.69,3.37,11.22,2.83c1.63-0.25,3.72-0.48,4.65-2.06c0.2-0.34,0.25-0.74,0.42-1.09c0.47-0.97,1.17-0.84,2.01-1.02
				c0.5-0.11,1.28-0.2,1.29-0.82c0-0.08-0.06-0.15-0.13-0.17c-0.94-0.29-1.63,0.4-1.43,1.33c0.07-0.07,0.15-0.15,0.22-0.22
				c-0.05-0.01-0.09-0.03-0.14-0.04c-0.22-0.07-0.31,0.27-0.09,0.34c0.05,0.01,0.09,0.03,0.14,0.04c0.14,0.04,0.25-0.09,0.22-0.22
				c0.51-0.65,0.51-0.85-0.01-0.62c-0.22,0.05-0.45,0.1-0.67,0.13c-0.33,0.06-0.68,0.08-0.99,0.23c-0.41,0.21-0.6,0.54-0.77,0.95
				c-0.4,0.98-0.73,1.69-1.75,2.17c-0.85,0.4-1.82,0.53-2.74,0.67c-3.45,0.56-9.28,1.14-11.16-2.62c-0.09-0.18-0.4-0.05-0.32,0.14
				c0.62,1.5,2.08,2,3.48,2.59c1.67,0.71,3.63,1.41,5.45,0.95c0.95-0.24,1.84-0.63,2.81-0.81c0.82-0.15,1.66-0.26,2.44-0.57
				c1.79-0.71,2.32-2.92,4.13-3.49C38.11,40.1,38.01,39.76,37.8,39.83L37.8,39.83z"/>
		</g>
	</g>
	<g>
		<g>
			<path d="M39.01,44.58c0.47-0.34,0.69-0.95,0.63-1.51c-0.03-0.31-0.18-0.56-0.44-0.73c-0.24-0.16-0.53-0.23-0.82-0.21
				c-0.57,0.03-1.06,0.4-1.29,0.92c-0.24,0.54-0.2,1.24,0.25,1.66c0.22,0.2,0.54,0.34,0.84,0.27c0.13-0.03,0.28-0.12,0.33-0.25
				c0.08-0.18-0.14-0.35-0.31-0.29c-0.21,0.08-0.12,0.42,0.09,0.34c0,0,0,0,0,0c-0.03-0.01-0.06-0.02-0.09-0.02
				c-0.01-0.02-0.02-0.03-0.03-0.05c0.01-0.05,0.01-0.09,0.02-0.14c-0.08,0.12-0.31,0.06-0.41,0.01c-0.17-0.08-0.3-0.22-0.38-0.38
				c-0.18-0.36-0.12-0.82,0.09-1.16c0.2-0.33,0.55-0.55,0.94-0.56c0.39-0.01,0.82,0.2,0.85,0.63c0.03,0.42-0.11,0.91-0.46,1.17
				C38.64,44.4,38.82,44.71,39.01,44.58L39.01,44.58z"/>
		</g>
	</g>
	<g>
		<g>
			<path d="M38,42.96c-0.18,0.08-0.34,0.23-0.42,0.41c-0.09,0.2-0.12,0.43,0.03,0.61c0.17,0.21,0.47,0.13,0.65-0.02
				c0.16-0.13,0.26-0.34,0.24-0.55c-0.01-0.12-0.05-0.24-0.12-0.33c-0.08-0.11-0.18-0.19-0.31-0.24c-0.1-0.04-0.23,0.07-0.22,0.17
				c0,0.05,0.01,0.09,0.01,0.14c0.01,0.09,0.08,0.18,0.18,0.18c0.09,0,0.18-0.08,0.18-0.18c0-0.05-0.01-0.09-0.01-0.14
				c-0.07,0.06-0.15,0.11-0.22,0.17c-0.04-0.02,0.01,0.01,0.02,0.01c0.01,0,0.04,0.02,0.04,0.03c0,0-0.02-0.02-0.01-0.01
				c0.01,0.01,0.01,0.01,0.02,0.02c0.01,0.01,0.03,0.03,0.04,0.04c0,0-0.02-0.03,0,0c0,0.01,0.01,0.01,0.01,0.02
				c0.01,0.01,0.02,0.03,0.02,0.04c0,0.01,0.01,0.03,0,0.01c-0.01-0.02,0,0,0,0.01c0.01,0.02,0.01,0.04,0.02,0.06c0,0,0,0.02,0,0.03
				c0,0,0-0.03,0-0.01c0,0.02,0,0.03,0,0.05c0,0.01,0,0.02,0,0.03c0,0.02,0-0.01,0-0.02c-0.01,0.01-0.01,0.05-0.02,0.06
				c0,0.01-0.02,0.05-0.01,0.03c0.01-0.02-0.01,0.02-0.01,0.03c-0.01,0.02-0.02,0.03-0.03,0.04c-0.02,0.03,0,0,0-0.01
				c0,0.01-0.02,0.02-0.02,0.02c-0.01,0.01-0.02,0.02-0.04,0.04c0,0-0.02,0.01-0.01,0.01c0,0,0.03-0.02,0,0
				c-0.01,0.01-0.03,0.02-0.04,0.03c0,0-0.02,0.01-0.02,0.01c0-0.01,0.04-0.01,0,0c-0.02,0.01-0.03,0.01-0.05,0.01
				c0.04-0.01-0.01,0-0.03,0c0.01,0,0.03,0.01,0,0c0.01,0,0.03,0.02,0.01,0c-0.02-0.02,0.01,0.01,0.01,0.01c0,0-0.01-0.01-0.02-0.01
				c-0.02-0.02,0.01,0.01,0.01,0.01c0,0-0.01-0.02-0.01-0.02c-0.02-0.03,0.01,0.01,0,0.01c0,0-0.01-0.02-0.01-0.02
				c0-0.01-0.01-0.04-0.01-0.04c0,0,0,0.04,0,0.02c0-0.01,0-0.02,0-0.03c0,0,0-0.05,0-0.05c0,0-0.01,0.05,0,0.01
				c0-0.01,0-0.02,0-0.02c0-0.01,0.01-0.03,0.01-0.04c0-0.01,0.01-0.02,0.01-0.03c0.01-0.02,0-0.02,0,0c0-0.03,0.04-0.08,0.06-0.1
				c0-0.01,0.01-0.02,0.02-0.02c-0.01,0-0.02,0.02,0,0c0.01-0.02,0.03-0.03,0.05-0.05c0.01-0.01,0.03-0.02,0.04-0.04
				c0.03-0.02,0,0,0,0c0-0.01,0.02-0.02,0.03-0.02c0.04-0.02,0.07-0.04,0.11-0.06c0.09-0.04,0.11-0.17,0.06-0.24
				C38.19,42.94,38.09,42.92,38,42.96L38,42.96z"/>
		</g>
	</g>
	<g>
		<g>
			<path d="M39.19,42.99c-0.05-0.2-0.21-0.35-0.39-0.41c-0.21-0.08-0.45-0.02-0.65,0.08c-0.34,0.17-0.61,0.52-0.67,0.9
				c-0.07,0.39,0.07,0.79,0.39,1.04c0.3,0.24,0.82,0.33,1.09,0c0.13-0.16,0.19-0.37,0.25-0.57c0.07-0.22,0.13-0.44,0.14-0.67
				c0.01-0.21-0.05-0.42-0.22-0.55c-0.16-0.12-0.38-0.17-0.58-0.18c-0.4-0.04-0.8,0.11-1.02,0.45c-0.23,0.35-0.34,0.84-0.09,1.2
				c0.26,0.39,0.75,0.52,1.17,0.35c0.44-0.18,0.7-0.65,0.65-1.12c-0.07,0.06-0.15,0.11-0.22,0.17c0.06,0.01,0.12,0.03,0.19,0.04
				c0.22,0.05,0.32-0.29,0.09-0.34c-0.06-0.01-0.12-0.03-0.19-0.04c-0.1-0.02-0.24,0.05-0.22,0.17c0.02,0.27-0.06,0.56-0.29,0.72
				c-0.22,0.16-0.53,0.18-0.74,0.01c-0.24-0.18-0.25-0.46-0.15-0.72c0.1-0.28,0.27-0.47,0.57-0.52c0.12-0.02,0.25-0.02,0.37,0.01
				c0.12,0.02,0.28,0.06,0.32,0.18c0.05,0.13,0.01,0.29-0.02,0.42c-0.04,0.17-0.09,0.34-0.15,0.51c-0.04,0.11-0.07,0.24-0.17,0.31
				c-0.11,0.07-0.26,0.05-0.37,0.01c-0.23-0.08-0.41-0.31-0.45-0.55c-0.05-0.29,0.1-0.59,0.32-0.78c0.12-0.1,0.27-0.19,0.43-0.2
				c0.13,0,0.25,0.06,0.28,0.19C38.9,43.3,39.24,43.21,39.19,42.99L39.19,42.99z"/>
		</g>
	</g>
	<g>
		<g>
			<path d="M37.19,34.95c-0.06,0.31-0.09,0.63-0.07,0.95c0.01,0.16,0.03,0.31,0.05,0.47c0.02,0.14,0.05,0.3,0.14,0.42
				c0.2,0.25,0.5,0.11,0.76,0.11c0.27-0.01,0.6-0.01,0.75-0.29c-0.07,0.03-0.13,0.05-0.2,0.08c0.06,0.01,0.12,0.03,0.17,0.04
				c0.22,0.05,0.32-0.29,0.09-0.34c-0.06-0.01-0.12-0.03-0.17-0.04c-0.07-0.02-0.16,0.01-0.2,0.08c-0.08,0.17-0.35,0.11-0.51,0.12
				c-0.11,0.01-0.21,0.04-0.32,0.05c-0.08,0-0.1,0-0.12-0.08c-0.13-0.47-0.12-0.99-0.03-1.46c0.02-0.09-0.03-0.19-0.12-0.22
				C37.32,34.8,37.21,34.86,37.19,34.95L37.19,34.95z"/>
		</g>
	</g>
	<g>
		<g>
			<path d="M37.36,35.03c0.23,0,0.23-0.35,0-0.35C37.13,34.68,37.13,35.03,37.36,35.03L37.36,35.03z"/>
		</g>
	</g>
	<g>
		<g>
			<path d="M39.34,34.33c-0.2-0.35-0.58-0.82-1.03-0.75c-0.42,0.06-0.79,0.44-1.03,0.76c-0.27,0.37-0.43,0.82-0.49,1.28
				c-0.02,0.12-0.03,0.24-0.04,0.36c-0.01,0.12-0.02,0.25,0.03,0.36c0.09,0.18,0.34,0.26,0.52,0.33c0.24,0.09,0.49,0.13,0.74,0.09
				c0.2-0.03,0.56-0.15,0.48-0.42c-0.04,0.07-0.08,0.15-0.12,0.22c0.12-0.02,0.22-0.07,0.32-0.16c0.17-0.15-0.08-0.4-0.25-0.25
				c-0.05,0.04-0.1,0.06-0.16,0.07c-0.09,0.01-0.15,0.14-0.12,0.22c0.05-0.1,0.05-0.12-0.01-0.08c-0.02,0.01-0.05,0.02-0.08,0.03
				c-0.04,0.01-0.08,0.02-0.12,0.03c-0.1,0.01-0.2,0.01-0.29-0.01c-0.1-0.02-0.2-0.05-0.3-0.09c-0.06-0.02-0.23-0.07-0.27-0.13
				c-0.03-0.04,0-0.22,0.01-0.28c0.01-0.11,0.02-0.23,0.04-0.34c0.04-0.22,0.1-0.44,0.2-0.65c0.16-0.36,0.42-0.68,0.75-0.88
				c0.19-0.12,0.34-0.16,0.53-0.01c0.16,0.13,0.3,0.3,0.4,0.48C39.15,34.7,39.46,34.52,39.34,34.33L39.34,34.33z"/>
		</g>
	</g>
	<g>
		<g>
			<path d="M39.47,34.68c-0.1-0.56-0.76-0.88-1.26-0.64c-0.29,0.14-0.48,0.41-0.59,0.7c-0.12,0.3-0.22,0.66-0.18,0.99
				c0.07,0.63,0.77,1.07,1.38,0.88c0.61-0.19,0.92-0.9,0.81-1.49c-0.12-0.65-0.78-1.1-1.43-0.96c-0.09,0.02-0.15,0.13-0.12,0.22
				c0.03,0.09,0.07,0.15,0.16,0.2c0.2,0.11,0.38-0.2,0.18-0.31c0,0,0,0.01,0.01,0.01c-0.04,0.07-0.08,0.15-0.12,0.22
				c0.39-0.08,0.8,0.16,0.94,0.53c0.15,0.4,0.01,0.91-0.35,1.15c-0.35,0.25-0.93,0.08-1.08-0.34c-0.08-0.24-0.02-0.5,0.05-0.73
				c0.07-0.23,0.16-0.46,0.34-0.63c0.15-0.15,0.36-0.21,0.56-0.14c0.19,0.07,0.33,0.23,0.37,0.44C39.16,35,39.5,34.91,39.47,34.68
				L39.47,34.68z"/>
		</g>
	</g>
	<g>
		<g>
			<path d="M39.37,15.46c-0.84-0.31-1.65,0.17-2,0.95c-0.53,1.17-0.15,2.68-0.12,3.91c0.09,3.2,0.12,6.41,0.2,9.61
				c0.02,0.74-0.2,1.93,0.75,2.18c0.8,0.21,1.41-0.51,1.56-1.22c0.12-0.56,0.03-1.14-0.01-1.7c-0.05-0.79-0.05-1.58-0.05-2.37
				c0-1.51,0.33-2.94,0.45-4.43c0.07-0.85,0.05-1.71,0.08-2.56c0.03-0.91,0.19-1.76,0.35-2.65c0.19-1.05-0.28-1.72-1.38-1.76
				c-0.23-0.01-0.23,0.35,0,0.35c1.51,0.06,0.95,1.49,0.81,2.38c-0.08,0.51-0.12,1.02-0.14,1.54c-0.06,1.41-0.05,2.78-0.29,4.17
				c-0.21,1.19-0.25,2.35-0.24,3.56c0.01,0.64,0.02,1.29,0.06,1.93c0.04,0.67,0.23,1.67-0.35,2.19c-0.8,0.72-1.14-0.13-1.24-0.72
				c-0.05-0.28-0.01-0.59-0.02-0.87c-0.02-0.75-0.04-1.5-0.05-2.24c-0.03-1.39-0.06-2.78-0.09-4.17c-0.03-1.39-0.02-2.78-0.09-4.17
				c-0.06-1.08-0.4-4.32,1.71-3.56C39.5,15.88,39.59,15.54,39.37,15.46L39.37,15.46z"/>
		</g>
	</g>
	<g>
		<g>
			<path d="M31.18,29.66c-0.85-0.42-2.15-0.55-2.56,0.51c-0.2,0.53-0.11,1.08-0.1,1.63c0.01,0.34-0.11,0.61-0.15,0.93
				c-0.02,0.19,0.04,0.36,0.19,0.48c0.4,0.32,1.03,0.13,1.48,0.09c0.71-0.06,1.41,0.07,2.08,0.27c0.66,0.2,1.29,0.46,1.94,0.7
				c0.33,0.12,0.82,0.2,0.88-0.28c0.06-0.49-0.51-0.73-0.81-1.01c-0.45-0.42-0.78-0.95-1.11-1.47c-0.61-0.97-1.35-2.04-2.57-2.22
				c-0.35-0.05-0.92-0.07-1,0.38c-0.04,0.22,0.05,0.44,0.14,0.64c0.14,0.34,0.29,0.68,0.43,1.02c0.13,0.32,0.31,1.05,0.8,0.96
				c0.38-0.07,0.49-0.55,0.42-0.87c-0.06-0.27-0.23-0.48-0.4-0.69c-0.16-0.18-0.82-0.94-0.39-1.17c0.24-0.13,0.74,0.1,0.95,0.2
				c0.3,0.15,0.56,0.35,0.79,0.59c0.87,0.91,0.93,2.58,2.26,3.02c0.07,0.02,0.17-0.01,0.2-0.08c0.12-0.26,0.01-0.48-0.09-0.74
				c-0.13-0.32-0.28-0.64-0.44-0.95c-0.36-0.66-0.78-1.29-1.24-1.88c-0.18-0.23-0.38-0.43-0.65-0.56c-0.13-0.06-0.26-0.11-0.38-0.18
				c-0.07-0.04-0.31-0.21-0.07-0.08c0.13,0.07,0.2,0.14,0.28,0.27c0.16,0.25,0.31,0.47,0.52,0.68c0.22,0.23,0.47,0.44,0.64,0.71
				c0.35,0.56,0.13,1.31,0.56,1.84c0.12,0.15,0.34,0.34,0.55,0.27c0.21-0.07,0.3-0.37,0.35-0.56c0.18-0.7-0.06-1.47-0.06-2.17
				c0-0.77,0.1-1.57-0.06-2.32c-0.12-0.54-0.5-1.14-1.11-1.2c-0.66-0.06-0.87,0.48-0.75,1.04c0.04,0.22,0.39,0.13,0.34-0.09
				c-0.09-0.46,0.21-0.75,0.64-0.51c0.29,0.16,0.45,0.48,0.52,0.79c0.18,0.69,0.07,1.45,0.07,2.15c0,0.62,0.13,1.24,0.12,1.85
				c0,0.16-0.02,0.33-0.08,0.48c-0.05,0.15-0.04,0.22-0.21,0.1c-0.05-0.04-0.09-0.12-0.12-0.18c-0.16-0.29-0.15-0.64-0.2-0.96
				c-0.08-0.51-0.33-0.87-0.68-1.24c-0.19-0.19-0.39-0.37-0.55-0.59c-0.14-0.19-0.23-0.43-0.41-0.59c-0.21-0.2-0.69-0.31-0.85,0.02
				c-0.19,0.37,0.43,0.62,0.67,0.73c0.64,0.3,1.04,1.04,1.41,1.62c0.19,0.3,0.38,0.61,0.54,0.92c0.09,0.17,0.17,0.34,0.25,0.52
				c0.06,0.14,0.26,0.48,0.2,0.63c0.07-0.03,0.13-0.05,0.2-0.08c-1.02-0.34-1.16-1.63-1.69-2.42c-0.43-0.64-1.07-1.17-1.83-1.37
				c-0.64-0.16-1.22,0.08-1.01,0.82c0.11,0.38,0.36,0.66,0.61,0.95c0.1,0.12,0.53,0.75,0.19,0.88c-0.25,0.1-0.42-0.59-0.48-0.74
				c-0.11-0.25-0.21-0.5-0.32-0.75c-0.1-0.24-0.39-0.64,0.03-0.79c0.19-0.07,0.48,0.03,0.66,0.09c0.32,0.1,0.61,0.28,0.87,0.5
				c0.73,0.63,1.13,1.53,1.69,2.3c0.25,0.34,0.52,0.66,0.85,0.92c0.09,0.07,0.78,0.51,0.28,0.58c-0.05,0.01-0.18-0.06-0.23-0.08
				c-0.17-0.06-0.34-0.13-0.51-0.2c-0.94-0.36-1.91-0.73-2.93-0.8c-0.54-0.04-1.09,0.14-1.63,0.08c-0.48-0.05-0.29-0.41-0.24-0.74
				c0.04-0.28,0.03-0.55,0.01-0.83c-0.03-0.5-0.08-1.14,0.32-1.52c0.47-0.44,1.32-0.21,1.82,0.03
				C31.2,30.07,31.38,29.76,31.18,29.66L31.18,29.66z"/>
		</g>
	</g>
	<g>
		<g>
			<path d="M19.96,40.98c0.32,1.29,1.58,1.91,2.72,2.37c1.42,0.58,2.95,0.88,4.48,0.9c1.53,0.03,3.07-0.22,4.51-0.74
				c1.18-0.42,2.63-1.03,3.44-2.03c0.94-1.18,0.62-3.29,0.61-4.69c0-0.51-0.09-1.09-0.03-1.59c0.1-0.83,0.33-0.98,1.08-1.23
				c0.85-0.28,1.7-0.55,2.55-0.83c0.72-0.23,1.25-0.36,1.11,0.62c-0.03,0.23-0.1,0.44-0.07,0.68c0.05,0.41,0.24,0.73,0.29,1.16
				c0.05,0.4,0.02,0.84,0.03,1.24c0.01,0.55,0.03,1.1,0.04,1.65c0.01,0.85-0.18,1.45-1.14,1.58c-0.63,0.09-1.07,0.27-1.51,0.74
				c-0.16,0.17,0.09,0.42,0.25,0.25c0.49-0.51,0.96-0.53,1.61-0.67c0.31-0.07,0.57-0.07,0.81-0.3c0.34-0.32,0.33-0.76,0.34-1.19
				c0.02-1.08,0.02-2.23-0.07-3.31c-0.06-0.7-0.21-1.31-0.18-2.04c0.06-1.42-0.43-1.15-1.6-0.77c-0.85,0.28-1.7,0.55-2.55,0.83
				c-0.39,0.13-0.98,0.19-1.23,0.56c-0.41,0.59-0.09,1.92-0.08,2.6c0.01,0.93,0.02,1.87-0.05,2.79c-0.1,1.44-0.81,2.13-2.01,2.8
				c-0.84,0.47-1.73,0.83-2.66,1.08c-1.75,0.47-3.6,0.56-5.38,0.25c-1.64-0.28-4.51-0.97-4.97-2.84
				C20.24,40.66,19.9,40.76,19.96,40.98L19.96,40.98z"/>
		</g>
	</g>
	<g>
		<g>
			<path d="M15.89,38.1c0.27,0.73,0.63,1.58,1.48,1.75c0.41,0.08,0.75-0.05,1.05-0.33c0.14-0.12,0.39-0.29,0.34-0.5
				c-0.05-0.2-0.32-0.24-0.42-0.07c-0.1,0.16,0.09,0.32,0.24,0.24c0.1-0.05,0.16-0.16,0.15-0.27c-0.02-0.22-0.38-0.23-0.35,0
				c0.01-0.01,0.02-0.03,0.03-0.04c0.08,0.08,0.16,0.16,0.24,0.24c0-0.01,0.01-0.01,0.01-0.02c-0.04,0.03-0.07,0.05-0.11,0.08
				c-0.04-0.16-0.09-0.2-0.14-0.14c-0.01,0.01-0.02,0.02-0.03,0.03c-0.03,0.02-0.05,0.05-0.08,0.07c-0.05,0.05-0.1,0.1-0.16,0.14
				c-0.1,0.09-0.21,0.16-0.34,0.2c-0.23,0.06-0.48-0.01-0.69-0.12c-0.49-0.28-0.7-0.87-0.88-1.37
				C16.15,37.79,15.81,37.89,15.89,38.1L15.89,38.1z"/>
		</g>
	</g>
	<g>
		<g>
			<path d="M15.79,37.55c0.28,0.74,0.75,1.56,1.67,1.44c1.02-0.13,1.41-1.19,1.43-2.09c0.02-0.65-0.04-1.29,0-1.94
				c0.05-0.74,0.18-1.48,0.39-2.2c0.16-0.58,0.45-1.15,0.52-1.75c0.02-0.2,0.02-0.41-0.04-0.61c-0.02-0.07-0.11-0.23-0.11-0.31
				c-0.12-0.16-0.06-0.26,0.17-0.31c0.15,0.04,0.27,0.12,0.38,0.23c0.49,0.55,0.15,1.47-0.05,2.07c-0.21,0.62-0.46,1.23-0.6,1.87
				c-0.27,1.23-0.11,2.43-0.18,3.66c-0.03,0.63-0.27,1.2-0.72,1.65c-0.45,0.45-1.37,1.01-1.92,0.44c-0.5-0.53-0.43-1.29-0.56-1.94
				c-0.06-0.29-0.16-0.58-0.22-0.87c-0.09-0.44-0.07-0.87-0.09-1.31c-0.02-0.73-0.22-1.43-0.17-2.16c0.05-0.69,0.1-1.76,0.64-2.25
				c0.53-0.48,1.35-0.88,2.04-1.06c0.22-0.06,0.4-0.07,0.62-0.02c0.35,0.07,0.5,0.18,0.66,0.47c0.11,0.21,0.19,0.37,0.37,0.54
				c0.16,0.16,0.41-0.09,0.25-0.25c-0.28-0.28-0.26-0.69-0.6-0.88c-0.43-0.23-0.91-0.33-1.38-0.2c-0.8,0.22-1.91,0.71-2.42,1.39
				c-0.25,0.33-0.3,0.75-0.37,1.15c-0.11,0.59-0.2,1.2-0.15,1.8c0.04,0.53,0.16,1.04,0.17,1.58c0.01,0.58,0.04,1.09,0.19,1.66
				c0.23,0.91,0.12,2.17,0.97,2.81c0.59,0.44,1.48,0,1.98-0.39c0.63-0.5,1.01-1.23,1.07-2.04c0.08-1.2-0.1-2.37,0.15-3.57
				c0.24-1.16,1.02-2.35,0.91-3.56c-0.07-0.76-0.74-1.39-1.51-1.06c-0.05,0.02-0.09,0.1-0.09,0.15c0.04,0.51,0.33,0.89,0.24,1.43
				c-0.07,0.42-0.26,0.81-0.39,1.21c-0.28,0.86-0.44,1.76-0.51,2.66c-0.07,0.95,0.23,2.15-0.24,3.01c-0.24,0.45-0.76,0.81-1.29,0.63
				c-0.49-0.16-0.72-0.71-0.89-1.15C16.06,37.24,15.71,37.33,15.79,37.55L15.79,37.55z"/>
		</g>
	</g>
	<g>
		<g>
			<path d="M15.47,31.5c-0.05,0.69-0.12,1.39-0.15,2.08c-0.03,0.71,0.18,1.33,0.26,2.02c0.07,0.65,0,1.29,0.11,1.93
				c0.12,0.65,0.31,1.3,0.54,1.92c0.37,1.02,1.66,0.73,2.34,0.2c0.41-0.32,0.78-0.76,1.02-1.23c0.13-0.25,0.31-0.79-0.17-0.76
				c-0.23,0.01-0.23,0.37,0,0.35c-0.06,0-0.24,0.43-0.31,0.53c-0.13,0.2-0.28,0.38-0.45,0.55c-0.36,0.37-0.84,0.69-1.38,0.68
				c-0.69-0.01-0.76-0.54-0.93-1.08c-0.14-0.46-0.28-0.93-0.35-1.42c-0.08-0.51-0.03-1.01-0.06-1.53c-0.02-0.42-0.15-0.82-0.22-1.23
				c-0.17-0.98,0.03-2.05,0.1-3.03C15.84,31.27,15.48,31.27,15.47,31.5L15.47,31.5z"/>
		</g>
	</g>
	<g>
		<g>
			<path d="M16.81,28.66c-0.25-0.36-0.29-0.8-0.84-0.77c-0.47,0.03-1.02,0.32-1.41,0.56c-0.42,0.26-0.79,0.61-0.98,1.07
				c-0.13,0.32-0.17,0.8,0.22,0.96c0.42,0.18,0.86-0.27,1.19-0.46c0.52-0.3,1.07-0.5,1.64-0.69c0.55-0.18,1.1-0.35,1.63-0.56
				c0.62-0.24,1.26-0.66,1.95-0.57c-0.04-0.06-0.09-0.11-0.13-0.17c-0.03,0.3-0.5,0.44-0.73,0.55c-0.28,0.12-0.56,0.23-0.85,0.34
				c-0.58,0.21-1.17,0.4-1.76,0.61c-0.54,0.19-1.08,0.39-1.59,0.65c-0.27,0.13-0.51,0.29-0.77,0.43c-0.22,0.11-0.44,0.2-0.65-0.01
				c-0.08-0.08-0.12-0.19-0.2-0.27c-0.14-0.14-0.39,0.04-0.28,0.21c0.08,0.12,0.15,0.24,0.23,0.36c0.12,0.19,0.43,0.01,0.31-0.18
				c-0.08-0.12-0.15-0.24-0.23-0.36c-0.09,0.07-0.19,0.14-0.28,0.21c0.21,0.21,0.27,0.44,0.6,0.49c0.33,0.05,0.61-0.11,0.88-0.27
				c0.69-0.4,1.44-0.7,2.2-0.96c0.74-0.26,1.48-0.49,2.21-0.78c0.48-0.2,1.22-0.4,1.28-1.01c0.01-0.07-0.06-0.16-0.13-0.17
				c-0.88-0.12-1.66,0.4-2.46,0.69c-0.81,0.29-1.64,0.51-2.42,0.86c-0.38,0.17-0.72,0.39-1.08,0.61c-0.07,0.05-0.15,0.09-0.23,0.12
				c-0.09-0.05-0.18-0.11-0.28-0.16c-0.04-0.08,0.06-0.32,0.09-0.38c0.1-0.21,0.24-0.39,0.41-0.55c0.34-0.31,0.76-0.51,1.19-0.67
				c0.24-0.09,0.56-0.25,0.76-0.01c0.1,0.13,0.13,0.32,0.23,0.46C16.63,29.03,16.94,28.85,16.81,28.66L16.81,28.66z"/>
		</g>
	</g>
	<g>
		<g>
			<path d="M22.61,28.66c-0.64,0-1.7,0.16-1.52,1c0.06,0.3,0.19,0.01,0.22,0.54c0.01,0.16-0.07,0.37-0.12,0.52
				c-0.09,0.3-0.22,0.58-0.32,0.87c-0.24,0.69-0.44,1.4-0.61,2.12c-0.3,1.33-0.47,2.69-0.5,4.06c-0.01,0.58-0.12,1.39,0.06,1.94
				c0.11,0.33,0.77,0.6,0.48,0.99c-0.03,0.05-0.19,0-0.25,0.07c-0.1,0.11-0.11,0.16-0.2,0.28c-0.19,0.28-0.28,0.38-0.64,0.43
				c-0.29,0.04-0.57,0.08-0.86,0.1c-1.04,0.07-2.08,0.01-3.12-0.08c-0.27-0.02-0.55-0.04-0.82-0.08c-0.37-0.06-0.78-0.2-0.99-0.54
				c-0.25-0.4-0.22-1-0.26-1.45c-0.13-1.4-0.22-2.81-0.3-4.22c-0.07-1.27-0.08-2.54,0.02-3.81c0.08-0.9,0.24-1.69,0.97-2.29
				c0.32-0.27,0.69-0.49,1.06-0.69c0.2-0.11,0.41-0.22,0.62-0.29c0.28-0.09,1.51-0.29,0.96,0.72c-0.11,0.2,0.2,0.38,0.31,0.18
				c0.22-0.4,0.2-0.88-0.19-1.17c-0.39-0.29-0.92-0.17-1.34-0.01c-1.21,0.48-2.38,1.34-2.64,2.67c-0.26,1.32-0.21,2.75-0.16,4.09
				c0.07,1.7,0.19,3.39,0.35,5.08c0.05,0.53,0.06,1.16,0.44,1.59c0.33,0.37,0.85,0.47,1.32,0.53c1.06,0.13,2.15,0.19,3.22,0.16
				c0.58-0.01,1.16-0.06,1.73-0.17c0.17-0.03,0.33-0.03,0.47-0.16c0.17-0.17,0.11-0.43,0.3-0.57c0.09-0.07,0.24,0.01,0.34-0.11
				c0.11-0.12,0.08-0.33,0.07-0.48c-0.02-0.2-0.07-0.42-0.21-0.57c-0.24-0.27-0.35-0.23-0.37-0.66c-0.11-2.03,0.1-4.06,0.61-6.03
				c0.23-0.9,0.67-1.78,0.87-2.68c0.06-0.29-0.02-0.48-0.05-0.76c-0.03-0.24-0.38-0.14-0.01-0.54c0.2-0.22,0.79-0.22,1.05-0.22
				C22.84,29.01,22.84,28.66,22.61,28.66L22.61,28.66z"/>
		</g>
	</g>
	<g>
		<g>
			<path d="M22.31,40.62c-0.1-1.19,1.07-1.89,1.99-2.36c0.97-0.49,2.04-0.79,3.12-0.87c1.02-0.08,2.05,0.05,3.03,0.36
				c0.85,0.27,2.73,0.91,2.68,2.03c0,0.07,0.06,0.16,0.13,0.17c1.08,0.2,0.66-1.72,0.31-2.18c-0.79-1.06-2.67-1.48-3.9-1.67
				c-1.28-0.2-2.53-0.13-3.79,0.18c-1.01,0.25-2.13,0.55-3.02,1.1c-0.33,0.2-0.69,0.82,0,0.8c0.42-0.01,0.82-0.42,1.18-0.61
				c0.83-0.45,1.83-0.58,2.74-0.71c1.91-0.27,3.99-0.36,5.7,0.68c0.76,0.46,2.07,1.64,1.12,2.57c-0.63,0.61-1.86,0.74-2.69,0.83
				c-1.87,0.21-3.6,0.95-5.51,0.79c-1.67-0.14-4.63-0.89-4.97-2.85c-0.11,0.03-0.23,0.06-0.34,0.09c1.04,2.83,4.81,3.27,7.4,3.01
				c1.06-0.1,2.84-0.24,3.55-1.17c0.76-0.99-0.42-1.94-1.29-2.24c-0.71-0.25-1.48-0.28-2.23-0.2c-0.64,0.07-1.44,0.15-2,0.49
				c-0.99,0.6-0.3,1.71,0.51,2.06c1.05,0.46,2.75,0.52,3.54-0.47c0.61-0.77,0.35-1.79-0.55-2.16c-1.43-0.59-3.36,0.02-4.76,0.42
				c-0.61,0.17-1.56,0.44-1.78,1.13c-0.14,0.41,0.06,0.77,0.45,0.93c0.13,0.06,0.25-0.1,0.22-0.22c-0.19-0.81,1.83-1.2,2.31-1.63
				c-0.1-0.06-0.2-0.11-0.3-0.17c-0.05,0.12-0.09,0.23-0.14,0.35c0.12,0.02,0.23,0.03,0.35,0.05c0.02-0.19,0.05-0.38,0.07-0.57
				c0.02-0.19-0.24-0.22-0.33-0.09c-0.16,0.25-0.32,0.5-0.48,0.74c0.11,0.03,0.22,0.06,0.33,0.09c-0.02-0.25-0.02-0.48-0.01-0.72
				c0.01-0.15-0.2-0.24-0.3-0.13c-0.16,0.18-0.32,0.36-0.48,0.54c0.09,0.01,0.19,0.02,0.28,0.04c-0.01-0.05-0.01-0.1-0.02-0.15
				c0.03-0.18-0.23-0.33-0.32-0.14c-0.09,0.19-0.19,0.37-0.28,0.56c0.1,0,0.2,0,0.31,0c-0.02-0.07-0.05-0.14-0.07-0.21
				c-0.02-0.12-0.17-0.15-0.26-0.11c-0.15,0.07-0.28,0.15-0.41,0.25c0.09,0.07,0.17,0.13,0.26,0.2c0.02-0.12,0.03-0.23,0.05-0.35
				c0.03-0.19-0.21-0.32-0.32-0.14c-0.17,0.27-0.34,0.54-0.51,0.81c-0.12,0.19,0.18,0.37,0.31,0.18c0.17-0.26,0.3-0.51,0.4-0.8
				c0.06-0.18-0.17-0.28-0.3-0.17c-0.37,0.31-0.63,0.83-0.4,1.3c0.04,0.08,0.13,0.09,0.2,0.08c0.47-0.08,0.58-0.99,0.7-1.35
				c0.07-0.19-0.23-0.32-0.32-0.14c-0.17,0.35-0.01,0.86,0.45,0.84c0.45-0.02,0.58-0.58,0.35-0.89c-0.13-0.18-0.42-0.02-0.31,0.18
				c0.03,0.05,0.06,0.1,0.09,0.15c0.04,0.06,0.13,0.11,0.2,0.08c0.3-0.12,0.48-0.26,0.67-0.52c0.08-0.1-0.02-0.28-0.15-0.27
				c-0.4,0.04-0.63,0.51-0.25,0.77c0.48,0.34,0.87-0.25,0.93-0.66c0.02-0.18-0.24-0.34-0.32-0.14c-0.13,0.29,0.16,0.55,0.4,0.3
				c0.16-0.17-0.09-0.42-0.25-0.25c0.05,0.04,0.1,0.09,0.15,0.13c-0.11-0.05-0.22-0.09-0.32-0.14c0.03,0.21-0.08,0.32-0.33,0.33
				c-0.05-0.09-0.1-0.18-0.15-0.27c-0.12,0.1-0.23,0.19-0.35,0.29c-0.1,0.06-0.2,0.12-0.31,0.18c-0.06,0.01-0.13,0.03-0.19,0.04
				c-0.11-0.05-0.22-0.09-0.32-0.14c-0.09,0.24-0.21,0.5-0.27,0.75c-0.08,0.34,0.21-0.32,0.36-0.44c-0.1-0.06-0.2-0.11-0.3-0.17
				c-0.1,0.28-0.2,0.48-0.36,0.72c0.1,0.06,0.2,0.12,0.31,0.18c0.17-0.27,0.34-0.54,0.51-0.81c-0.11-0.05-0.22-0.09-0.32-0.14
				c-0.02,0.12-0.03,0.23-0.05,0.35c-0.02,0.13,0.12,0.3,0.26,0.2c0.12-0.1,0.26-0.19,0.41-0.25c-0.09-0.04-0.17-0.07-0.26-0.11
				c0.03,0.16,0.03,0.16,0.11,0.3c0.06,0.11,0.25,0.12,0.31,0c0.09-0.19,0.19-0.37,0.28-0.56c-0.11-0.05-0.22-0.09-0.32-0.14
				c-0.03,0.2-0.03,0.24,0.05,0.42c0.04,0.1,0.21,0.11,0.28,0.04c0.16-0.18,0.32-0.36,0.48-0.54c-0.1-0.04-0.2-0.08-0.3-0.13
				c-0.02,0.25-0.01,0.48,0.01,0.72c0.01,0.17,0.23,0.24,0.33,0.09c0.16-0.25,0.32-0.5,0.48-0.74c-0.11-0.03-0.22-0.06-0.33-0.09
				c-0.02,0.19-0.05,0.38-0.07,0.57c-0.03,0.21,0.28,0.22,0.35,0.05c0.05-0.12,0.09-0.23,0.14-0.35c0.07-0.18-0.18-0.28-0.3-0.17
				c-0.64,0.59-2.69,0.74-2.4,1.98c0.07-0.07,0.15-0.15,0.22-0.22c-0.23-0.47-0.14-0.79,0.27-0.96c0.19-0.11,0.4-0.2,0.61-0.28
				c0.23-0.08,0.46-0.14,0.69-0.2c0.56-0.15,1.13-0.29,1.7-0.4c0.87-0.16,3.7-0.5,3.23,1.2c-0.35,1.28-2.23,1.21-3.2,0.86
				c-0.56-0.2-1.5-0.91-0.54-1.53c0.2-0.13,0.52-0.17,0.74-0.22c0.66-0.15,1.35-0.26,2.03-0.21c0.67,0.04,1.48,0.23,1.97,0.71
				c0.65,0.63,0.31,1.33-0.43,1.65c-1.07,0.46-2.33,0.61-3.48,0.64c-2.22,0.05-5.3-0.42-6.18-2.8c-0.08-0.21-0.38-0.13-0.34,0.09
				c0.3,1.74,2.49,2.56,4,2.91c0.96,0.22,1.96,0.29,2.94,0.19c0.98-0.1,1.87-0.47,2.83-0.65c1.24-0.22,4.15-0.09,4.4-1.84
				c0.25-1.71-2.12-2.78-3.43-3.08c-1.09-0.24-2.21-0.22-3.32-0.1c-1.05,0.11-2.15,0.25-3.14,0.63c-0.33,0.13-0.63,0.3-0.93,0.49
				c-0.19,0.12-0.93,0.52-0.44,0.19c0.58-0.38,1.3-0.6,1.96-0.8c1.84-0.58,3.66-0.76,5.55-0.28c0.99,0.25,2.49,0.65,2.95,1.67
				c0.14,0.31,0.19,0.67,0.11,1.01c-0.09,0.4-0.02,0.23-0.14,0.01c-0.19-0.36-0.37-0.61-0.71-0.86c-1.75-1.29-4.2-1.69-6.31-1.3
				c-1.61,0.3-4.65,1.37-4.47,3.46C21.98,40.84,22.33,40.85,22.31,40.62L22.31,40.62z"/>
		</g>
	</g>
	<g>
		<g>
			<path d="M18.83,29.73c-1.64,0.38-3.47,1.31-3.74,3.16c-0.07,0.47-0.02,0.94-0.04,1.41c-0.02,0.63-0.08,1.27-0.09,1.9
				c-0.01,1.11,0.13,2.22,0.44,3.29c0.2,0.7,0.54,1.23,1.33,1.29c0.73,0.05,1.78-0.4,2.3-0.91c0.63-0.62,0.63-1.71,0.6-2.54
				c-0.02-0.55-0.06-1.11-0.05-1.66c0.02-0.6,0.17-1.14,0.35-1.71c0.18-0.58,0.25-1.18,0.44-1.75c0.15-0.43,0.43-0.86,0.34-1.33
				c-0.17-0.88-1.34-1.17-2.1-1.09c-0.22,0.02-0.23,0.38,0,0.35c0.53-0.06,1.16,0.04,1.55,0.45c0.47,0.5-0.03,1.17-0.19,1.7
				c-0.14,0.49-0.21,0.99-0.36,1.48c-0.13,0.44-0.28,0.86-0.34,1.32c-0.14,1.03,0.07,2.07-0.01,3.11c-0.06,0.68-0.22,1.29-0.84,1.66
				c-0.45,0.26-1.01,0.55-1.54,0.56c-1.26,0.02-1.37-1.86-1.48-2.79c-0.13-1.12-0.02-2.22,0.02-3.33c0.02-0.54-0.05-1.1,0.09-1.62
				c0.12-0.48,0.39-0.91,0.73-1.27c0.72-0.75,1.71-1.11,2.7-1.34C19.14,30.02,19.05,29.68,18.83,29.73L18.83,29.73z"/>
		</g>
	</g>
	<g>
		<g>
			<path d="M28.87,28.88c-1.32,0.99-0.56,2.75-0.88,4.13c-0.24,1.02-0.74,2.08-1.71,2.56c-0.89,0.44-1.89,0.59-2.83,0.9
				c-1.19,0.39-2.53,1.12-3.25,2.18c-0.6,0.88,0.64,2.09,1.42,2.44c0.76,0.34,1.67,0.49,2.47,0.67c0.87,0.19,1.77,0.32,2.67,0.3
				c1.63-0.04,3.11-0.78,4.64-1.23c0.65-0.19,1.3-0.38,1.92-0.65c0.5-0.22,1.29-0.55,1.6-1.03c0.51-0.79-1.72-1.81-2.24-2.05
				c-2.61-1.21-6.03-1.37-8.69-0.26c-1.18,0.5-2.6,1.43-3.1,2.68c-0.41,1.01-0.05,2.37,0.96,2.84c1.42,0.65,3.09,1.09,4.65,1.1
				c1.67,0.02,3.45-0.41,5.03-0.94c1.21-0.41,2.72-1.08,3.38-2.26c0.28-0.5,0.31-1.11,0.35-1.67c0.08-0.93,0.11-1.89,0.02-2.82
				c-0.07-0.71-0.34-1.04-0.97-1.39c-0.74-0.41-1.56-0.69-2.38-0.86c-1.72-0.35-3.5-0.26-5.23-0.01c-1.66,0.24-3.32,0.68-4.79,1.51
				c-0.66,0.37-1.41,0.85-1.9,1.44c-0.46,0.56-0.11,0.95,0.08,1.55c0.04,0.13,0.26,0.19,0.32,0.04c0.99-2.28,3.46-3.36,5.81-3.61
				c1.45-0.15,2.91,0.02,4.31,0.43c0.58,0.17,1.15,0.38,1.72,0.6c0.62,0.24,1.52,0.47,2.06,0.88c0.16,0.12,0.83,1.58,0.24,1.51
				c-0.29-0.03-0.72-0.47-0.94-0.62c-0.67-0.47-1.34-0.94-2.14-1.14c-1.5-0.38-3.07-0.83-4.62-0.93c-0.26-0.02-0.77-0.08-0.91,0.21
				c-0.14,0.28,0.15,0.55,0.41,0.56c0.22,0,0.45-0.15,0.63-0.24c0.55-0.29,0.93-0.53,1.58-0.42c1,0.17,1.97,0.62,2.9,1.01
				c0.81,0.34,1.61,0.71,2.44,0.97c0.36,0.12,0.78,0.28,1.06-0.06c0.48-0.57,0.04-1.44-0.42-1.86c-0.73-0.67-1.72-1.07-2.64-1.37
				c-1.2-0.38-2.48-0.64-3.74-0.8c-1.43-0.18-2.74,0.05-4.07,0.59c-1.17,0.47-2.45,0.99-3.44,1.78c-0.29,0.23-0.67,0.54-0.79,0.91
				c-0.16,0.5,0.04,1.22,0.09,1.72c0.01,0.16,0.24,0.26,0.33,0.09c1.01-1.99,2.87-3.35,5.07-3.71c0.22-0.04,0.13-0.38-0.09-0.34
				c-2.28,0.38-4.24,1.82-5.28,3.88c0.11,0.03,0.22,0.06,0.33,0.09c-0.04-0.45-0.19-1.02-0.13-1.47c0.09-0.64,0.95-1.11,1.46-1.4
				c1-0.57,2.1-1.07,3.18-1.44c2.31-0.79,4.96-0.25,7.21,0.53c0.83,0.28,2.92,1.05,2.76,2.22c-0.08,0.58-0.43,0.43-0.8,0.31
				c-0.38-0.12-0.76-0.28-1.13-0.43c-0.77-0.31-1.53-0.65-2.31-0.95c-0.77-0.3-1.77-0.78-2.62-0.66c-0.25,0.03-0.48,0.16-0.71,0.27
				c-0.17,0.09-0.33,0.19-0.5,0.28c-0.08,0.04-0.15,0.08-0.23,0.11c-0.08,0.02-0.25-0.01-0.15-0.01c0.62,0.02,1.22,0.08,1.84,0.2
				c1.49,0.29,3.21,0.51,4.51,1.33c0.4,0.26,2.1,1.9,2.4,0.81c0.13-0.46,0-1.29-0.35-1.63c-0.31-0.31-0.82-0.45-1.22-0.61
				c-0.49-0.21-0.98-0.41-1.47-0.6c-2.4-0.91-4.95-1.32-7.47-0.65c-1.9,0.5-3.7,1.64-4.5,3.49c0.11,0.01,0.22,0.03,0.32,0.04
				c-0.06-0.19-0.18-0.38-0.23-0.58c-0.12-0.47,0.15-0.75,0.48-1.03c0.52-0.45,1.1-0.83,1.71-1.15c1.08-0.56,2.26-0.91,3.45-1.14
				c2.54-0.5,5.44-0.67,7.84,0.45c0.28,0.13,0.59,0.27,0.83,0.47c0.39,0.33,0.42,0.91,0.44,1.4c0.03,0.71,0.01,1.41-0.04,2.12
				c-0.06,0.78-0.11,1.5-0.67,2.1c-0.45,0.48-1.03,0.85-1.61,1.14c-1.13,0.57-2.39,0.86-3.63,1.11c-1.57,0.33-3.06,0.4-4.63,0.02
				c-0.62-0.15-1.24-0.35-1.84-0.57c-0.35-0.13-0.71-0.24-0.98-0.52c-0.32-0.33-0.39-0.78-0.43-1.23c-0.11-1.38,1.32-2.47,2.42-3.05
				c2.3-1.22,5.32-1.22,7.77-0.48c0.63,0.19,1.25,0.44,1.82,0.77c0.21,0.12,0.41,0.24,0.6,0.38c0.18,0.13,0.36,0.26,0.53,0.41
				c0.19,0.16,0.36,0.21,0.28,0.45c-0.16,0.47-1.27,0.87-1.69,1.03c-0.54,0.21-1.11,0.37-1.67,0.54c-1.29,0.38-2.55,1.01-3.89,1.15
				c-1.42,0.15-2.84-0.16-4.21-0.51c-0.93-0.24-1.74-0.45-2.33-1.27c-0.65-0.9,0.18-1.6,0.88-2.12c1.22-0.89,2.65-1.09,4.04-1.57
				c1.24-0.43,1.91-1.08,2.39-2.3c0.25-0.62,0.38-1.26,0.37-1.92c-0.01-0.95-0.3-2.11,0.59-2.78
				C29.23,29.05,29.05,28.74,28.87,28.88L28.87,28.88z"/>
		</g>
	</g>
	<g>
		<g>
			<path d="M23.6,27.4c0.25,0.16,0.38,0.42,0.56,0.65c0.17,0.23,0.38,0.39,0.64,0.51c0.6,0.26,1.33,0.28,1.97,0.19
				c1.04-0.13,2.63-0.62,2.98-1.74c0.03-0.1-0.06-0.24-0.17-0.22c-0.45,0.06-0.41,0.42-0.62,0.73c-0.33,0.49-1.09,0.61-1.63,0.63
				c-0.6,0.02-1.19-0.08-1.76-0.23c-0.28-0.07-0.55-0.15-0.82-0.24c-0.42-0.13-0.69-0.26-0.62-0.77c-0.11,0.01-0.22,0.03-0.32,0.04
				c0.16,0.38,0.32,0.76,0.5,1.14c0.11,0.23,0.23,0.41,0.48,0.51c0.27,0.12,0.6,0.12,0.89,0.14c0.39,0.03,0.77,0.05,1.16,0.05
				c0.84-0.02,3.24-0.4,2.72-1.76c-0.06,0.07-0.11,0.15-0.17,0.22c0.65,0.08,1.3,0.16,1.95,0.24c0.23,0.03,0.22-0.33,0-0.35
				c-0.65-0.08-1.3-0.16-1.95-0.24c-0.11-0.01-0.21,0.12-0.17,0.22c0.24,0.64-0.65,0.99-1.11,1.13c-0.54,0.16-1.1,0.19-1.65,0.18
				c-0.45-0.01-1.11,0.04-1.52-0.16c-0.26-0.12-0.34-0.43-0.45-0.68c-0.12-0.27-0.24-0.55-0.36-0.82c-0.06-0.13-0.3-0.1-0.32,0.04
				c-0.07,0.53,0.04,0.91,0.57,1.11c0.66,0.24,1.37,0.43,2.07,0.53c0.68,0.09,1.4,0.09,2.05-0.17c0.23-0.09,0.45-0.21,0.63-0.39
				c0.08-0.08,0.16-0.18,0.22-0.29c0.06-0.11,0.13-0.45,0.26-0.47c-0.06-0.07-0.11-0.15-0.17-0.22c-0.17,0.54-0.7,0.83-1.19,1.05
				c-0.58,0.26-1.21,0.44-1.85,0.47c-0.56,0.03-1.31-0.01-1.76-0.4c-0.32-0.29-0.46-0.69-0.83-0.93
				C23.59,26.97,23.41,27.27,23.6,27.4L23.6,27.4z"/>
		</g>
	</g>
	<g>
		<g>
			<path d="M22.97,28.09c-0.33-0.2-0.89-0.69-1.29-0.36c-0.3,0.25-0.11,0.65,0.1,0.89c0.78,0.86,2.26,0.99,3.34,1.12
				c1.44,0.17,2.99-0.14,4.38-0.48c1.02-0.25,2.63-0.67,3.05-1.78c0.12-0.32,0.08-0.67-0.28-0.8c-0.44-0.16-0.87,0.24-1.19,0.5
				c-0.61,0.5-1.21,0.83-1.98,0.99c-0.83,0.18-1.68,0.24-2.53,0.3c-0.76,0.06-1.54,0.12-2.3-0.05c-0.38-0.08-0.75-0.22-1.11-0.36
				c-0.31-0.12-0.68-0.36-1.02-0.37c-0.3-0.01-0.59,0.22-0.45,0.55c0.18,0.41,1.01,0.61,1.4,0.72c1.62,0.46,3.36,0.24,4.99-0.05
				c0.75-0.13,1.48-0.33,2.16-0.68c0.81-0.42,1.58-0.93,2.39-1.36c-0.09-0.04-0.17-0.07-0.26-0.11c0.07,0.21-0.92,0.76-1.1,0.87
				c-0.37,0.23-0.76,0.44-1.16,0.63c-0.87,0.4-1.79,0.69-2.73,0.85c-1.01,0.18-2.08,0.24-3.09,0.03c-0.96-0.2-1.9-0.59-2.8-0.96
				c-0.2-0.08-0.29,0.22-0.14,0.32c1.24,0.86,2.75,0.99,4.21,1.08c0.23,0.01,0.23-0.34,0-0.35c-1.4-0.09-2.84-0.2-4.03-1.03
				c-0.05,0.11-0.09,0.22-0.14,0.32c1.07,0.44,2.19,0.91,3.34,1.04c1.09,0.13,2.22,0.02,3.29-0.23c1.02-0.23,2.01-0.61,2.93-1.12
				c0.47-0.26,0.91-0.55,1.34-0.87c0.23-0.18,0.52-0.36,0.41-0.68c-0.04-0.11-0.15-0.16-0.26-0.11c-1.02,0.53-1.98,1.26-3.06,1.65
				c-1.04,0.37-2.2,0.52-3.3,0.61c-1.21,0.1-2.47,0.05-3.6-0.46c-0.05-0.02-0.36-0.16-0.35-0.18c0.04-0.15,0.36-0.02,0.39-0.01
				c0.24,0.06,0.49,0.2,0.72,0.29c0.44,0.17,0.89,0.31,1.35,0.37c1.08,0.14,2.24-0.02,3.32-0.15c0.88-0.1,1.8-0.22,2.58-0.66
				c0.4-0.22,0.71-0.55,1.08-0.81c0.23-0.17,0.2-0.23,0.42,0.02c0.23,0.26,0.18,0.13,0.09,0.33c-0.12,0.29-0.53,0.5-0.78,0.65
				c-0.93,0.51-2,0.74-3.04,0.93c-1.33,0.24-2.54,0.35-3.88,0.13c-0.54-0.09-1.1-0.18-1.6-0.4c-0.2-0.09-0.67-0.29-0.76-0.5
				c0.01-0.06,0.02-0.12,0.03-0.19c-0.02-0.23,0.06-0.26,0.25-0.08c0.16,0.09,0.31,0.2,0.47,0.29
				C22.99,28.51,23.16,28.21,22.97,28.09L22.97,28.09z"/>
		</g>
	</g>
	<g>
		<g>
			<path d="M16.72,26.43c0.23,0.5,0.52,0.99,0.99,1.3c0.52,0.34,1.03,0.27,1.59,0.07c0.64-0.22,1.3-0.16,1.96-0.23
				c0.29-0.03,0.55-0.13,0.83-0.18c0.15-0.03,0.33-0.04,0.46,0.05c0.22,0.14,0.08,0.42-0.02,0.6c-0.11,0.2,0.17,0.36,0.31,0.18
				c0.17-0.23,0.33-0.54,0.18-0.82c-0.13-0.23-0.41-0.3-0.65-0.3c-0.4-0.01-0.78,0.15-1.16,0.25c-0.42,0.11-0.86,0.19-1.29,0.23
				c-0.4,0.04-0.81,0.06-1.21,0.03c-0.21-0.02-0.42-0.05-0.61-0.14c-0.13-0.05-0.25-0.14-0.4-0.15c-0.28-0.03-0.42,0.19-0.51,0.42
				c-0.16,0.39-0.24,0.79-0.24,1.21c0,0.12,0.11,0.19,0.22,0.17c0.09-0.02,0.17-0.05,0.25-0.11c0.19-0.13,0.01-0.44-0.18-0.31
				c-0.05,0.04-0.1,0.07-0.16,0.07c0.07,0.06,0.15,0.11,0.22,0.17c0-0.31,0.04-0.62,0.15-0.91c0.06-0.19,0.08-0.38,0.32-0.33
				c0.1,0.02,0.2,0.1,0.3,0.14c0.49,0.17,1.05,0.15,1.56,0.11c0.56-0.04,1.12-0.12,1.67-0.27c0.3-0.08,0.6-0.2,0.91-0.23
				c0.11-0.01,0.35-0.04,0.44,0.05c0.18,0.17-0.01,0.4-0.11,0.53c0.1,0.06,0.2,0.12,0.31,0.18c0.23-0.44,0.29-0.99-0.29-1.16
				c-0.26-0.08-0.53-0.01-0.79,0.06c-0.38,0.1-0.76,0.13-1.15,0.14c-0.34,0.01-0.67,0.02-1,0.09c-0.36,0.08-0.71,0.28-1.08,0.29
				c-0.78,0.01-1.22-0.77-1.5-1.38C16.93,26.05,16.63,26.23,16.72,26.43L16.72,26.43z"/>
		</g>
	</g>
	<g>
		<g>
			<path d="M20.52,26.44c-0.41,0.39-1.07,0.37-1.6,0.37c-0.31,0-0.62-0.01-0.92-0.07c-0.29-0.06-0.54-0.22-0.83-0.29
				c-0.55-0.14-0.86,0.42-1,0.86c-0.19,0.63-0.25,1.29-0.19,1.95c0.02,0.23,0.33,0.23,0.35,0c0.03-0.03,0.05-0.06,0.08-0.09
				c0.22-0.07,0.12-0.41-0.09-0.34c-0.21,0.07-0.32,0.21-0.34,0.43c0.12,0,0.24,0,0.35,0c-0.06-0.63-0.01-1.25,0.18-1.85
				c0.08-0.25,0.22-0.67,0.56-0.61c0.12,0.02,0.24,0.1,0.35,0.15c0.13,0.05,0.27,0.09,0.4,0.13c0.54,0.13,1.1,0.12,1.65,0.08
				c0.47-0.03,0.94-0.12,1.29-0.46C20.94,26.53,20.69,26.28,20.52,26.44L20.52,26.44z"/>
		</g>
	</g>
	<g>
		<g>
			<path d="M17.08,15.42c0.02,1.92,0.38,3.93,0.72,5.82c0.27,1.53,1.56,2.32,2.98,2.74c1.66,0.49,3.43,0.41,5.14,0.37
				c1.07-0.03,2.14-0.06,3.21-0.05c1.07,0.01,2.59-0.14,3.58,0.3c0.21,0.09,0.39-0.21,0.18-0.31c-0.63-0.29-1.4-0.27-2.08-0.3
				c-0.97-0.05-1.93-0.05-2.9-0.04c-1.78,0.03-3.58,0.18-5.35,0c-1.68-0.17-4.03-0.76-4.39-2.69c-0.35-1.89-0.71-3.91-0.73-5.84
				C17.43,15.2,17.08,15.2,17.08,15.42L17.08,15.42z"/>
		</g>
	</g>
	<g>
		<g>
			<path d="M19.12,16.29c0.08,0.6,0.16,1.2,0.27,1.79c0.1,0.51,0.19,1.2,0.48,1.64c0.21,0.32,0.52,0.36,0.87,0.25
				c0.24-0.08,0.47-0.2,0.68-0.32c0.11-0.07,0.23-0.14,0.33-0.22c0.03-0.02,0.07-0.05,0.1-0.07c0.09-0.14,0.17-0.13,0.23,0.03
				c0.24,0.19,0.09,0.75,0.1,1.03c0.01,0.24,0.04,0.48,0.09,0.71c0.12,0.57,0.35,1.11,0.6,1.63c0.19,0.38,0.39,1.01,0.76,1.25
				c0.38,0.25,1.01,0.17,1.43,0.11c0.2-0.03,0.15-0.37-0.05-0.35c-0.16,0.02-0.88,0.09-0.62-0.42c0.07-0.14-0.05-0.29-0.2-0.26
				c-0.19,0.04-0.38,0.09-0.58,0.13c0.07,0.07,0.15,0.15,0.22,0.22c0.12-0.32,0.08-0.63,0.16-0.96c0.04-0.18-0.16-0.29-0.3-0.17
				c-0.18,0.15-0.36,0.31-0.53,0.46c0.1,0.06,0.2,0.11,0.3,0.17c0.05-0.23,0.23-0.41,0.28-0.64c0.04-0.18-0.16-0.28-0.3-0.17
				c-0.24,0.19-0.44,0.38-0.62,0.62c0.1,0.06,0.2,0.12,0.31,0.18c0.24-0.35,0.35-0.73,0.51-1.11c0.06-0.15-0.14-0.27-0.26-0.2
				c-0.23,0.14-0.4,0.24-0.57,0.45c0.09,0.07,0.19,0.14,0.28,0.21c0.19-0.38,0.38-0.76,0.57-1.14c0.09-0.17-0.13-0.36-0.28-0.21
				c-0.18,0.18-0.36,0.37-0.54,0.55c-0.16,0.16,0.09,0.41,0.25,0.25c0.24-0.23,0.35-0.43,0.49-0.73c0.07-0.16-0.08-0.33-0.24-0.24
				c-0.03,0.02,0.15,0,0.02,0.02c-0.02,0-0.07-0.04-0.1-0.03c-0.1,0.01-0.15,0.06-0.23,0.12c0.09,0.07,0.19,0.14,0.28,0.21
				c0.13-0.21,0.12-0.39,0.19-0.61c0.06-0.18-0.17-0.27-0.3-0.17c-0.18,0.15-0.39,0.23-0.57,0.38c0.09,0.07,0.19,0.14,0.28,0.21
				c0.22-0.31,0.36-0.64,0.53-0.97c0.08-0.16-0.08-0.32-0.24-0.24c-0.29,0.14-0.5,0.2-0.72,0.45c0.09,0.07,0.19,0.14,0.28,0.21
				c0.24-0.32,0.41-0.66,0.54-1.05c0.05-0.15-0.13-0.28-0.26-0.2c-0.33,0.21-0.61,0.45-0.86,0.76c0.09,0.07,0.19,0.14,0.28,0.21
				c0.29-0.39,0.54-0.8,0.75-1.24c0.08-0.16-0.08-0.32-0.24-0.24c-0.44,0.2-0.82,0.46-1.17,0.78c0.08,0.08,0.17,0.17,0.25,0.25
				c0.37-0.44,0.68-0.91,0.96-1.41c0.1-0.18-0.13-0.35-0.28-0.21c-0.5,0.46-0.96,0.95-1.4,1.47c0.09,0.07,0.19,0.14,0.28,0.21
				c0.5-0.66,0.94-1.36,1.33-2.1c0.09-0.18-0.13-0.35-0.28-0.21c-0.71,0.64-1.38,1.33-2.01,2.07c-0.15,0.17,0.1,0.42,0.25,0.25
				c0.69-0.76,1.26-1.59,1.71-2.51c0.09-0.18-0.12-0.35-0.28-0.21c-0.82,0.72-1.57,1.51-2.26,2.36c0.09,0.07,0.19,0.14,0.28,0.21
				c0.7-1.08,1.48-2.11,2.19-3.19c0.11-0.17-0.15-0.37-0.28-0.21c-0.84,1.02-1.67,2.05-2.39,3.16c-0.11,0.17,0.15,0.37,0.28,0.21
				c0.82-1.03,1.63-2.09,2.25-3.25c0.09-0.17-0.13-0.36-0.28-0.21c-0.94,0.97-1.84,1.99-2.67,3.06c-0.14,0.18,0.1,0.43,0.25,0.25
				c0.87-1.05,1.67-2.17,2.33-3.36c0.1-0.18-0.13-0.35-0.28-0.21c-0.95,0.86-1.81,1.83-2.6,2.84c0.09,0.07,0.19,0.14,0.28,0.21
				c0.51-0.74,0.94-1.52,1.3-2.34c0.08-0.18-0.12-0.35-0.28-0.21c-0.38,0.31-0.7,0.67-0.97,1.08c-0.11,0.16,0.15,0.37,0.28,0.21
				c0.29-0.36,0.53-0.74,0.75-1.15c0.09-0.17-0.14-0.38-0.28-0.21c-0.26,0.3-0.51,0.61-0.77,0.91c0.08,0.08,0.17,0.17,0.25,0.25
				c0.28-0.34,0.48-0.71,0.62-1.13c0.04-0.13-0.09-0.25-0.22-0.22c-0.26,0.08-0.48,0.18-0.7,0.34c0.09,0.05,0.18,0.1,0.27,0.15
				c-0.01-0.49,0.09-0.91,0.33-1.33c0.1-0.19-0.13-0.33-0.28-0.21c-0.32,0.25-0.47,0.56-0.51,0.96c0.12,0,0.24,0,0.35,0
				c-0.01-0.47,0.02-0.93,0.12-1.39c0.04-0.22-0.26-0.31-0.34-0.09c-0.18,0.51-0.93,2.84,0.37,2.6c0.39-0.07,0.94-0.45,1.04-0.86
				c0.09-0.37-0.18-0.77-0.57-0.73c-0.09,0.01-0.18,0.07-0.18,0.18c0.04,0.59,0.95,0.53,1.37,0.61c0.85,0.16,1.68,0.4,2.49,0.7
				c0.21,0.08,0.31-0.26,0.09-0.34c-0.59-0.22-1.2-0.41-1.81-0.56c-0.21-0.05-1.77-0.23-1.78-0.42c-0.06,0.06-0.12,0.12-0.18,0.18
				c0.08,0.05,0.15,0.1,0.23,0.15c-0.05,0.13-0.11,0.25-0.16,0.38c-0.05,0.07-0.2,0.17-0.29,0.21c-0.04,0.02-0.08,0.05-0.12,0.07
				c-0.17-0.09-0.35-0.18-0.52-0.26c-0.05-0.08,0.01-0.31,0.02-0.39c0.06-0.49,0.18-0.96,0.35-1.42c-0.11-0.03-0.23-0.06-0.34-0.09
				c-0.1,0.49-0.14,0.98-0.13,1.49c0.01,0.23,0.33,0.22,0.35,0c0.03-0.31,0.17-0.52,0.41-0.71c-0.09-0.07-0.19-0.14-0.28-0.21
				c-0.26,0.47-0.39,0.97-0.38,1.51c0,0.12,0.15,0.24,0.27,0.15c0.19-0.14,0.39-0.24,0.61-0.3c-0.07-0.07-0.15-0.15-0.22-0.22
				c-0.12,0.36-0.29,0.68-0.53,0.98c-0.14,0.17,0.1,0.43,0.25,0.25c0.26-0.3,0.51-0.61,0.77-0.91c-0.09-0.07-0.19-0.14-0.28-0.21
				c-0.2,0.38-0.42,0.74-0.69,1.08c0.09,0.07,0.19,0.14,0.28,0.21c0.26-0.39,0.56-0.72,0.92-1.01c-0.09-0.07-0.19-0.14-0.28-0.21
				c-0.36,0.82-0.8,1.6-1.3,2.34c-0.11,0.16,0.15,0.37,0.28,0.21c0.79-1.01,1.65-1.98,2.6-2.84c-0.09-0.07-0.19-0.14-0.28-0.21
				c-0.64,1.17-1.43,2.27-2.28,3.29c0.08,0.08,0.17,0.17,0.25,0.25c0.83-1.07,1.74-2.08,2.67-3.06c-0.09-0.07-0.19-0.14-0.28-0.21
				c-0.6,1.14-1.39,2.18-2.19,3.18c0.09,0.07,0.19,0.14,0.28,0.21c0.7-1.08,1.51-2.09,2.33-3.09c-0.09-0.07-0.19-0.14-0.28-0.21
				c-0.7,1.08-1.48,2.11-2.19,3.19c-0.11,0.17,0.15,0.37,0.28,0.21c0.69-0.85,1.44-1.64,2.26-2.36c-0.09-0.07-0.19-0.14-0.28-0.21
				c-0.44,0.89-0.99,1.71-1.66,2.44c0.08,0.08,0.17,0.17,0.25,0.25c0.62-0.73,1.29-1.42,2.01-2.07c-0.09-0.07-0.19-0.14-0.28-0.21
				c-0.39,0.74-0.83,1.44-1.33,2.1c-0.12,0.16,0.15,0.37,0.28,0.21c0.43-0.52,0.9-1.01,1.4-1.47c-0.09-0.07-0.19-0.14-0.28-0.21
				c-0.26,0.48-0.55,0.92-0.9,1.34c-0.14,0.17,0.08,0.41,0.25,0.25c0.33-0.3,0.69-0.54,1.1-0.73c-0.08-0.08-0.16-0.16-0.24-0.24
				c-0.2,0.44-0.45,0.85-0.75,1.24c-0.12,0.16,0.15,0.37,0.28,0.21c0.23-0.28,0.48-0.5,0.79-0.7c-0.09-0.07-0.17-0.13-0.26-0.2
				c-0.11,0.36-0.28,0.66-0.5,0.96c-0.12,0.16,0.15,0.36,0.28,0.21c0.19-0.21,0.4-0.27,0.65-0.4c-0.08-0.08-0.16-0.16-0.24-0.24
				c-0.17,0.33-0.31,0.67-0.53,0.97c-0.12,0.18,0.13,0.33,0.28,0.21c0.18-0.15,0.39-0.23,0.57-0.38c-0.1-0.06-0.2-0.11-0.3-0.17
				c-0.06,0.18-0.06,0.36-0.15,0.53c-0.11,0.18,0.13,0.34,0.28,0.21c-0.12-0.05-0.14-0.06-0.07-0.01c0.03,0.02,0.06,0.02,0.09,0.02
				c0.09-0.02,0.13-0.02,0.21-0.07c-0.08-0.08-0.16-0.16-0.24-0.24c-0.12,0.27-0.22,0.45-0.43,0.66c0.08,0.08,0.17,0.17,0.25,0.25
				c0.18-0.18,0.36-0.37,0.54-0.55c-0.09-0.07-0.19-0.14-0.28-0.21c-0.19,0.38-0.38,0.76-0.57,1.14c-0.08,0.17,0.14,0.38,0.28,0.21
				c0.15-0.18,0.3-0.27,0.5-0.39c-0.09-0.07-0.17-0.13-0.26-0.2c-0.15,0.36-0.26,0.71-0.48,1.03c-0.13,0.19,0.17,0.36,0.31,0.18
				c0.16-0.22,0.35-0.39,0.57-0.55c-0.1-0.06-0.2-0.11-0.3-0.17c-0.05,0.23-0.23,0.41-0.28,0.64c-0.04,0.18,0.16,0.29,0.3,0.17
				c0.18-0.15,0.36-0.31,0.53-0.46c-0.1-0.06-0.2-0.11-0.3-0.17c-0.07,0.32-0.04,0.64-0.16,0.96c-0.05,0.13,0.1,0.24,0.22,0.22
				c0.19-0.04,0.38-0.09,0.58-0.13c-0.07-0.09-0.13-0.17-0.2-0.26c-0.34,0.65,0.37,1.01,0.92,0.95c-0.02-0.12-0.03-0.23-0.05-0.35
				c-0.35,0.05-0.79,0.1-1.1-0.09c-0.24-0.14-0.33-0.4-0.46-0.64c-0.25-0.46-0.48-0.94-0.65-1.44c-0.17-0.52-0.25-1.05-0.23-1.6
				c0.02-0.33,0.04-0.68-0.2-0.94c-0.15-0.17-0.3-0.22-0.5-0.16c-0.22,0.07-0.46,0.35-0.68,0.48c-0.27,0.15-0.7,0.42-1,0.16
				c-0.15-0.13-0.22-0.61-0.27-0.78c-0.06-0.23-0.11-0.46-0.16-0.69c-0.12-0.59-0.2-1.19-0.28-1.79
				C19.45,16.07,19.1,16.07,19.12,16.29L19.12,16.29z"/>
		</g>
	</g>
	<g>
		<g>
			<path d="M27.64,24.07c-1.1,0.74-2.45-0.53-3.58-0.75c-1.29-0.25-2.85,0.36-3.84-0.73c-0.11-0.12-0.3-0.02-0.3,0.13
				c-0.01,1.15-0.28,3.03,0.7,3.87c1.07,0.9,2.94,0.86,4.24,0.92c1.92,0.1,3.85,0.03,5.77-0.2c1.54-0.19,3.25-0.34,4.67-1.02
				c0.15-0.07,0.09-0.28-0.04-0.32c-0.48-0.17-0.78-0.1-1.27,0.05c-0.9,0.28-1.75,0.47-2.69,0.58c-1.52,0.16-3.05,0.27-4.58,0.37
				c-1.58,0.11-3.13,0.09-4.67-0.35c-0.34-0.1-1.83-0.8-1.85-0.52c-0.02,0.25,0.35,0.44,0.53,0.5c0.16,0.06,0.31-0.19,0.17-0.3
				c-0.25-0.2-0.57-0.41-0.74-0.69c-0.42-0.69,0.14-1.09,0.73-1.36c0.53-0.24,1.31-0.18,1.89-0.21c1.41-0.07,2.83-0.02,4.24,0.01
				c2.73,0.07,6.14-0.07,7.32,3c0.46,1.21,0.46,2.51,0.4,3.78c-0.03,0.65-0.47,2.33,0.12,2.84c0.4,0.35,1.15,0.08,1.6-0.01
				c1.14-0.23,2.25-0.55,3.32-1.01c0.69-0.29,1.56-0.61,1.93-1.32c0.38-0.73,0.31-1.72,0.36-2.51c0.17-2.78,0.52-5.55,0.87-8.32
				c0.17-1.37,0.34-2.74,0.49-4.11c0.08-0.69,0.15-1.38,0.21-2.07c0.05-0.56,0.23-1.25,0.02-1.8c-0.53-1.42-2.65-1.01-3.76-0.86
				c-3.26,0.44-6.41,1.47-9.7,1.76c-3.04,0.26-5.98,0.4-8.94,1.19c-0.07,0.02-0.14,0.1-0.13,0.17c0.04,0.31,0.03,0.31,0.23,0.57
				c0.42,0.55,0.5,0.14,0.84,1.11c0.1,0.28,0.13,0.61,0.19,0.9c0.34,1.58,0.66,3.16,1.01,4.74c0.17,0.77,0.35,1.45,1.14,1.76
				c1,0.41,2.12,0.01,3.1,0.57c0.2,0.11,0.38-0.19,0.18-0.31c-0.76-0.43-1.54-0.36-2.38-0.44c-1.16-0.11-1.51-0.86-1.74-1.9
				c-0.2-0.9-0.38-1.81-0.58-2.71c-0.2-0.96-0.24-2.61-0.86-3.42c-0.17-0.23-0.72-0.41-0.46-0.83c0.05-0.07,0.74-0.18,0.88-0.21
				c1.02-0.23,2.05-0.4,3.09-0.52c3-0.34,5.95-0.41,8.92-1.05c1.47-0.32,2.93-0.67,4.42-0.92c0.81-0.13,1.65-0.28,2.48-0.28
				c0.38,0,1.01-0.01,1.32,0.27c0.53,0.47,0.45,1.57,0.39,2.2c-0.29,3.2-0.75,6.38-1.11,9.58c-0.17,1.49-0.32,2.98-0.43,4.48
				c-0.04,0.6-0.05,1.21-0.12,1.8c-0.17,1.44-1.13,1.82-2.34,2.3c-0.72,0.28-3.81,1.57-4.28,0.47c-0.21-0.49,0.08-1.62,0.1-2.12
				c0.04-0.81,0.06-1.62-0.05-2.42c-0.3-2.11-1.5-3.72-3.57-4.33c-1.23-0.37-2.51-0.33-3.78-0.36c-1.77-0.04-3.56-0.13-5.33-0.01
				c-0.83,0.06-2.37,0.04-2.83,0.88c-0.42,0.77,0.62,1.56,1.11,1.96c0.06-0.1,0.11-0.2,0.17-0.3c-0.32-0.11-0.74-1.19-1.2-0.53
				c-0.05,0.07-0.02,0.16,0.03,0.21c0.54,0.61,1.93,0.93,2.68,1.12c1.29,0.33,2.61,0.37,3.94,0.29c1.46-0.08,2.91-0.21,4.36-0.34
				c0.6-0.05,1.2-0.11,1.79-0.21c0.77-0.13,1.99-0.75,2.73-0.49c-0.01-0.11-0.03-0.22-0.04-0.32c-1.17,0.56-2.6,0.71-3.87,0.89
				c-1.52,0.22-3.06,0.32-4.6,0.32c-1.41,0-2.89-0.01-4.28-0.29c-1.14-0.23-1.93-0.78-2.03-2.03c-0.06-0.72-0.07-1.44-0.06-2.16
				c-0.1,0.04-0.2,0.08-0.3,0.13c1.15,1.26,2.88,0.5,4.34,0.9c1.17,0.32,2.29,1.45,3.51,0.63C28.01,24.25,27.83,23.94,27.64,24.07
				L27.64,24.07z"/>
		</g>
	</g>
	<g>
		<g>
			<path d="M16.16,13.33c-0.34,0-0.66,0.08-0.97,0.24c-0.1,0.05-0.11,0.2-0.04,0.28c0.25,0.26,0.19,0.57,0.33,0.87
				c0.14,0.31,0.52,0.46,0.79,0.62c0.18,0.1,0.35,0.21,0.53,0.31c0.14,0.08,0.28,0.18,0.45,0.16c0.17-0.02,0.33-0.13,0.48-0.2
				c0.16-0.08,0.32-0.15,0.48-0.23c0.23-0.12,0.47-0.38,0.3-0.65c-0.09-0.15-0.22-0.12-0.37-0.1c-0.18,0.03-0.36,0.08-0.53,0.13
				c-0.27,0.09-0.56,0.22-0.7,0.49c-0.12,0.23-0.09,0.53,0.11,0.71c0.08-0.08,0.17-0.17,0.25-0.25c-0.27-0.24-0.63-0.26-0.92-0.45
				c-0.29-0.19-0.5-0.46-0.84-0.55c0.04,0.04,0.08,0.08,0.12,0.12c-0.03-0.05-0.04-0.11-0.03-0.17c-0.11,0.01-0.22,0.03-0.32,0.04
				c0.32,0.5,0.85,0.98,1.45,1.1c0.35,0.07,0.62-0.12,0.91-0.29c0.17-0.1,0.34-0.2,0.51-0.3c0.08-0.05,0.17-0.1,0.25-0.15
				c0.04-0.02,0.08-0.05,0.13-0.07c-0.07-0.08-0.1-0.08-0.11-0.02c-0.04,0.09-0.03,0.19,0.06,0.24c0.2,0.11,0.4,0.19,0.62,0.24
				c0.22,0.06,0.31-0.28,0.09-0.34c-0.19-0.05-0.36-0.12-0.53-0.21c0.02,0.08,0.04,0.16,0.06,0.24c0.09-0.21,0.07-0.56-0.24-0.51
				c-0.17,0.02-0.34,0.17-0.48,0.25c-0.19,0.11-0.38,0.22-0.57,0.34c-0.16,0.1-0.36,0.25-0.56,0.24c-0.18-0.01-0.37-0.11-0.52-0.2
				c-0.31-0.18-0.57-0.44-0.77-0.74c-0.07-0.12-0.3-0.12-0.32,0.04c-0.04,0.21-0.02,0.42,0.2,0.5c0.19,0.07,0.34,0.21,0.49,0.34
				c0.15,0.12,0.3,0.23,0.48,0.3c0.2,0.08,0.42,0.11,0.58,0.26c0.17,0.15,0.42-0.1,0.25-0.25c-0.22-0.2,0.07-0.46,0.25-0.54
				c0.26-0.12,0.56-0.18,0.85-0.22c-0.06-0.02-0.11-0.03-0.17-0.05c0.07,0.08-0.35,0.25-0.39,0.27c-0.15,0.07-0.3,0.16-0.46,0.22
				c-0.14,0.05-0.19,0.05-0.31-0.02c-0.07-0.04-0.13-0.08-0.2-0.12c-0.17-0.1-0.33-0.2-0.5-0.29c-0.14-0.08-0.3-0.16-0.43-0.26
				c-0.13-0.1-0.15-0.23-0.17-0.38c-0.04-0.29-0.14-0.52-0.34-0.73c-0.01,0.09-0.02,0.19-0.04,0.28c0.25-0.13,0.51-0.19,0.79-0.19
				C16.39,13.69,16.39,13.34,16.16,13.33L16.16,13.33z"/>
		</g>
	</g>
	<g>
		<g>
			<path d="M16.22,13.42c-0.12,0.02-0.24,0.05-0.36,0.07c-0.1,0.02-0.21,0.03-0.29,0.09c-0.15,0.13-0.11,0.36-0.03,0.52
				c0.09,0.17,0.24,0.3,0.4,0.41c0.17,0.12,0.32,0.24,0.46,0.39c0.26,0.29,0.58,0.56,1,0.45c0.2-0.05,0.35-0.18,0.51-0.29
				c0.09-0.07,0.16-0.05,0.27-0.05c0.1,0,0.2-0.02,0.29-0.06c0.2-0.1,0.03-0.41-0.18-0.31c-0.06,0.03-0.13,0.01-0.2,0.01
				c-0.07,0-0.15,0-0.21,0.02c-0.14,0.05-0.25,0.16-0.37,0.24c-0.12,0.08-0.26,0.14-0.41,0.1c-0.15-0.04-0.27-0.16-0.37-0.27
				c-0.11-0.12-0.21-0.24-0.33-0.34c-0.12-0.1-0.25-0.17-0.37-0.27c-0.06-0.04-0.11-0.09-0.14-0.15c-0.02-0.03-0.03-0.06-0.04-0.09
				c0-0.01-0.01-0.02-0.01-0.03c0-0.05,0-0.06-0.01-0.02c-0.06,0.03,0.08,0.01,0.09,0c0.04-0.01,0.09-0.02,0.13-0.03
				c0.09-0.02,0.19-0.04,0.28-0.06C16.54,13.71,16.44,13.37,16.22,13.42L16.22,13.42z"/>
		</g>
	</g>
	<g>
		<g>
			<path d="M24.66,10.55c-0.27,0.02-0.56,0.08-0.66,0.36c-0.1,0.26,0.1,0.47,0.32,0.57c0.24,0.11,0.49,0.22,0.74,0.33
				c0.13,0.06,0.26,0.14,0.41,0.13c0.13,0,0.25-0.07,0.32-0.18c0.14-0.25-0.15-0.51-0.32-0.67c-0.18-0.17-0.39-0.31-0.6-0.44
				c-0.2-0.13-0.44-0.29-0.68-0.19c-0.26,0.11-0.28,0.44-0.13,0.65c0.08,0.12,0.2,0.2,0.31,0.29c0.12,0.1,0.24,0.2,0.37,0.3
				c0.23,0.19,0.51,0.39,0.8,0.23c0.07-0.04,0.1-0.13,0.08-0.2c0,0.02-0.01,0.04-0.01,0.05c0,0.01-0.04,0.02,0.01,0
				c0.09-0.04,0.11-0.17,0.06-0.24c-0.05-0.09-0.15-0.1-0.24-0.06c-0.13,0.06-0.19,0.21-0.16,0.35c0.03-0.07,0.05-0.13,0.08-0.2
				c-0.04,0.02-0.09,0.01-0.14-0.01c-0.08-0.04-0.15-0.09-0.21-0.14c-0.16-0.14-0.33-0.27-0.49-0.41c-0.05-0.04-0.11-0.09-0.15-0.14
				c-0.02-0.03-0.03-0.05-0.04-0.07c0-0.02-0.01-0.05,0-0.07c-0.01,0.02,0.02,0,0,0c0.02-0.01,0.02-0.01,0.05,0
				c0.08,0.01,0.14,0.06,0.21,0.1c0.3,0.19,0.6,0.38,0.83,0.66c0.01,0.01,0.05,0.08,0.06,0.08c-0.01,0,0.01-0.04,0.02-0.05
				c-0.02,0.03-0.02,0.01-0.01,0.01c0.02-0.01-0.01,0-0.02,0c-0.05-0.01-0.09-0.03-0.13-0.05c-0.18-0.08-0.37-0.17-0.55-0.25
				c-0.1-0.04-0.2-0.09-0.29-0.13c-0.03-0.01-0.07-0.04-0.09-0.05c-0.01-0.01-0.02-0.02-0.03-0.03c-0.02-0.02-0.02-0.02-0.01-0.01
				c-0.01-0.02-0.01-0.02-0.01-0.01c-0.01-0.02-0.01-0.02,0.01-0.05c0.02-0.03,0.03-0.04,0.06-0.06c0.08-0.04,0.17-0.04,0.25-0.05
				c0.1-0.01,0.18-0.08,0.18-0.18C24.84,10.63,24.76,10.54,24.66,10.55L24.66,10.55z"/>
		</g>
	</g>
	<g>
		<g>
			<path d="M24.26,11.57c-0.11-0.24-0.31-0.45-0.55-0.57c-0.12-0.06-0.25-0.1-0.39-0.12c-0.15-0.02-0.32-0.01-0.41,0.14
				c-0.16,0.26,0.09,0.55,0.26,0.72c0.21,0.2,0.46,0.34,0.73,0.42c0.14,0.04,0.31,0.08,0.45,0c0.12-0.07,0.17-0.22,0.16-0.35
				c-0.02-0.16-0.1-0.27-0.23-0.36c-0.11-0.08-0.25-0.12-0.36-0.19c-0.22-0.15-0.41-0.36-0.7-0.34c-0.14,0.01-0.27,0.06-0.35,0.17
				c-0.09,0.12-0.11,0.27-0.05,0.41c0.07,0.15,0.21,0.25,0.34,0.34c0.15,0.1,0.31,0.2,0.46,0.29c0.15,0.1,0.36,0.18,0.51,0.04
				c0.13-0.12,0.14-0.35-0.03-0.45c-0.08-0.05-0.19-0.02-0.24,0.06c-0.05,0.09-0.01,0.19,0.06,0.24c0.13,0.09,0.26,0.16,0.41,0.22
				c0.09,0.03,0.19-0.04,0.22-0.12c0.03-0.1-0.03-0.18-0.12-0.22c-0.12-0.05-0.23-0.11-0.33-0.18c-0.06,0.1-0.12,0.2-0.18,0.31
				c-0.04-0.02-0.05-0.07-0.04-0.11c0,0.03,0-0.01,0.02-0.02c0,0,0.02-0.01,0.02-0.01c0,0-0.04-0.01-0.04-0.02
				c-0.11-0.05-0.2-0.13-0.3-0.19c-0.1-0.06-0.19-0.12-0.29-0.19c-0.04-0.02-0.06-0.04-0.09-0.07c-0.02-0.01-0.03-0.03-0.04-0.04
				c0.01,0.02-0.03-0.05-0.02-0.02c0-0.01-0.01-0.05-0.01-0.03c0,0,0-0.03,0-0.01c0,0.02,0-0.01,0-0.01
				c-0.01,0.03,0.02-0.02,0.01-0.01c-0.01,0.01,0.04-0.02,0.01-0.01c0.01-0.01,0.04-0.02,0.02-0.01c0.02-0.01,0.04-0.01,0.06-0.02
				c0.02-0.01,0,0,0,0c0.01,0,0.02,0,0.03,0c0.01,0,0.02,0,0.03,0c0,0,0.05,0,0.03,0c-0.01,0,0.03,0.01,0.04,0.01
				c0.02,0.01,0.02,0.01,0.03,0.01c0.05,0.02,0.09,0.05,0.13,0.08c0.08,0.06,0.15,0.12,0.24,0.18c0.09,0.06,0.18,0.1,0.27,0.14
				c0.03,0.02,0.07,0.04,0.1,0.06c0.01,0.01,0.02,0.02,0.03,0.03c0,0-0.01-0.02,0,0c0.01,0.01,0.02,0.05,0.02,0.03
				c0,0.01,0,0.02,0.01,0.02c0.01,0.03,0-0.03,0,0c0,0.01,0,0.05,0,0.03c0-0.02,0,0.01,0,0.01c-0.01,0,0.02-0.02,0-0.01
				c-0.02,0.01,0.01,0,0.01-0.01c0,0,0.01-0.01,0.01-0.01c-0.01,0.01-0.02,0.01-0.01,0.01c0.01,0-0.01,0-0.02,0
				c-0.02,0-0.04-0.01-0.05-0.01c-0.05-0.01-0.1-0.03-0.15-0.04c-0.17-0.06-0.33-0.15-0.47-0.27c-0.07-0.06-0.14-0.13-0.2-0.21
				c-0.01-0.01-0.02-0.02-0.02-0.04c-0.01-0.01-0.02-0.04-0.02-0.04c0,0.01-0.01-0.03-0.01-0.04c-0.01-0.02,0,0,0,0
				c0,0-0.01-0.05,0-0.03c0,0.01,0,0,0-0.01c-0.01,0.01-0.01,0.02-0.02,0.03c-0.01,0.01-0.03,0.01-0.02,0.01
				c0.02,0.01,0.06,0,0.08,0c0.01,0,0.02,0,0.05,0.01c0.1,0.02,0.18,0.05,0.27,0.1c0.17,0.1,0.3,0.24,0.38,0.42
				c0.04,0.09,0.17,0.11,0.24,0.06C24.29,11.76,24.3,11.66,24.26,11.57L24.26,11.57z"/>
		</g>
	</g>
	<g>
		<g>
			<path d="M17.17,11.75c-0.69,0.3-0.94,1.06-0.67,1.76c0.39,1.03,1.8,1.56,2.76,1.86c1.57,0.49,3.31,0.38,4.93,0.36
				c1.94-0.02,3.87-0.11,5.8-0.28c3.56-0.31,7.09-0.91,10.52-1.93c1.06-0.31,2.65-0.58,3.32-1.59c0.5-0.77,0.27-1.67-0.39-2.25
				c-0.03,0.1-0.05,0.2-0.08,0.3c0.24,0.34,0.49,0.68,0.73,1.02c-0.11,0.03-0.23,0.06-0.34,0.09c0.11,0.39,0.07,0.32,0.34,0.62
				c0.08,0.09,0.21,0.05,0.28-0.04c0.22-0.29,0.18-0.5-0.07-0.74c-0.07,0.09-0.14,0.19-0.21,0.28c0.43,0.29,0.86,0.05,0.88-0.49
				c0.03-0.7-0.72-1.08-1.29-1.24c-0.86-0.24-1.37-0.42-2.14-0.96c-0.56-0.39-1.16-0.67-1.81-0.87c-1.43-0.45-2.96-0.66-4.44-0.91
				c-0.48-0.08-1.76-0.42-2.01,0.23c-0.19,0.49,0.34,0.65,0.69,0.68c0.34,0.03,0.74-0.12,1.09-0.11c0.53,0.01,1.06,0.15,1.58,0.29
				c0.68,0.19,1.34,0.44,2.04,0.58c0.89,0.19,1.47,0.41,2.26,0.86c0.42,0.24,1.35,0.3,1.11,0.83c-0.09,0.21,0.21,0.39,0.31,0.18
				c0.08-0.18,0.17-0.37,0.25-0.55c0.04-0.1,0.02-0.23-0.11-0.26c-0.92-0.2-1.5-0.74-2.31-1.09c-0.67-0.3-1.52-0.31-2.24-0.51
				c-0.8-0.23-1.6-0.53-2.43-0.63c-0.26-0.03-0.6,0.02-0.86-0.03c-0.23-0.05-0.85,0.1-0.33-0.22c0.39-0.24,2.46,0.4,2.94,0.49
				c0.79,0.15,1.6,0.28,2.36,0.53c0.9,0.29,1.53,0.82,2.32,1.29c0.25,0.15,0.44,0.25,0.71,0.34c0.24,0.06,0.49,0.11,0.73,0.15
				c0.56,0.04,0.85,0.41,0.86,1.12c-0.17-0.11-0.36,0.14-0.21,0.28c0.01-0.06,0.03-0.13,0.04-0.19c-0.06-0.23-0.37-0.12-0.34,0.09
				c0.05,0.34,0.03,0.28,0.26,0.52c0.08,0.09,0.22,0.06,0.28-0.04c0.61-0.92,0.24-2.2-1.02-1.94c-0.13,0.03-0.18,0.21-0.08,0.3
				c1.99,1.75-1.29,2.81-2.55,3.18c-1.04,0.31-2.08,0.59-3.14,0.82c-2.32,0.53-4.68,0.89-7.05,1.11c-2.24,0.21-4.48,0.31-6.73,0.33
				c-1.16,0.01-2.37,0.06-3.52-0.14c-0.71-0.13-1.42-0.36-2.06-0.7c-0.73-0.38-2.38-1.79-0.8-2.48
				C17.55,11.96,17.37,11.66,17.17,11.75L17.17,11.75z"/>
		</g>
	</g>
	<g>
		<g>
			<path d="M33.76,7.19c-2.11-0.09-4.18,0.31-6.24,0.68c-1.85,0.33-3.71,0.72-5.49,1.35c-1.4,0.49-7.37,2.91-5.48,5.23
				c0.96,1.17,3.16,1.32,4.53,1.44c2.35,0.21,4.75,0.12,7.11,0.05c4.37-0.12,8.71-0.71,12.92-1.88c1.25-0.35,2.94-0.9,3.05-2.45
				c0.11-1.64-1.68-2.25-2.97-2.44c-0.22-0.03-0.32,0.31-0.09,0.34c1.23,0.18,2.87,0.65,2.59,2.22c-0.25,1.4-1.69,1.73-2.89,2.05
				c-1.82,0.49-3.66,0.89-5.52,1.18c-4.19,0.66-8.5,0.8-12.74,0.66c-1.17-0.04-2.35-0.12-3.49-0.39c-0.46-0.11-1.32-0.26-1.63-0.57
				c-0.2-0.6-0.4-1.2-0.6-1.81c0.2-0.29,0.43-0.55,0.7-0.78c1.38-1.25,3.23-2.06,4.97-2.64c1.6-0.53,3.25-0.88,4.91-1.18
				c2.1-0.38,4.21-0.8,6.35-0.7C33.99,7.55,33.99,7.2,33.76,7.19L33.76,7.19z"/>
		</g>
	</g>
	<g>
		<g>
			<path d="M36.63,7.67c-4.03-0.75-8.51,0.34-12.37,1.49c-1.42,0.43-3.8,0.91-4.81,2.12c-0.63,0.76-0.35,1.69,0.48,2.15
				c0.78,0.43,1.9,0.4,2.76,0.42c1.31,0.02,2.62-0.1,3.93-0.26c2.37-0.29,4.74-0.63,7.11-0.94c1.23-0.16,2.45-0.33,3.68-0.49
				c1.15-0.15,2.36-0.44,3.53-0.42c0.75,0.01,2.45,0.68,2.77-0.48c0.35-1.25-2.08-2.1-2.84-2.43c-1.93-0.84-4.01-1.28-6.12-1.35
				c-4.33-0.13-8.79,1.07-12.87,2.41c-1.32,0.43-7.45,2.69-3.82,4.3c1.88,0.83,4.12,0.96,6.15,0.98c2.43,0.01,4.87-0.2,7.28-0.49
				c2.51-0.31,5.06-0.6,7.53-1.13c1.1-0.23,2.17-0.56,3.2-1.01c0.56-0.24,1.3-0.52,1.5-1.16c0.42-1.38-1.95-2.25-2.84-2.64
				c-2.07-0.9-4.3-1.28-6.55-1.19c-0.23,0.01-0.23,0.36,0,0.35c1.52-0.06,3.02,0.08,4.49,0.48c0.79,0.21,1.56,0.5,2.3,0.85
				c0.99,0.47,3,1.19,1.63,2.68c-0.43,0.47-1.58,0.68-2.2,0.87c-0.69,0.22-1.39,0.38-2.1,0.52c-1.75,0.33-3.54,0.56-5.31,0.81
				c-3.33,0.46-6.71,0.83-10.08,0.68c-0.9-0.04-1.81-0.13-2.7-0.3c-0.65-0.13-1.91-0.3-2.44-0.75c-1.42-1.19,0.46-1.98,1.22-2.36
				c0.91-0.46,1.87-0.83,2.84-1.15c6.05-1.99,13.1-3.75,19.16-0.9c0.36,0.17,0.85,0.35,1.15,0.6c0.26,0.22,2.26,1.05,0.37,1.67
				c-0.36,0.12-1.47-0.23-1.93-0.21c-1.75,0.06-3.54,0.45-5.27,0.68c-3.26,0.43-6.53,0.95-9.81,1.28c-0.98,0.1-1.96,0.17-2.95,0.15
				c-0.33-0.01-0.65-0.02-0.98-0.04c-0.44-0.01-0.87-0.08-1.29-0.2c-0.07-0.71-0.14-1.43-0.22-2.14c0.43-0.6,1.93-0.87,2.66-1.13
				c0.85-0.3,1.71-0.56,2.58-0.79c3.52-0.94,7.46-1.87,11.1-1.19C36.76,8.05,36.85,7.71,36.63,7.67L36.63,7.67z"/>
		</g>
	</g>
</g>
</svg>
