<?xml version="1.0" encoding="utf-8"?>
<!-- Generator: Adobe Illustrator 26.2.1, SVG Export Plug-In . SVG Version: 6.00 Build 0)  -->
<svg version="1.1" id="Layer_1" xmlns="http://www.w3.org/2000/svg" xmlns:xlink="http://www.w3.org/1999/xlink" x="0px" y="0px"
	 viewBox="0 0 56.69 56.69" style="enable-background:new 0 0 56.69 56.69;" xml:space="preserve">
<g>
	<g>
		<g>
			<path d="M21.04,48.03c0.29-0.2,0.59-0.4,0.88-0.6c0.08-0.05,0.12-0.16,0.06-0.24c-0.05-0.08-0.16-0.12-0.24-0.06
				c-0.29,0.2-0.59,0.4-0.88,0.6c-0.08,0.05-0.12,0.16-0.06,0.24C20.85,48.04,20.96,48.09,21.04,48.03L21.04,48.03z"/>
		</g>
	</g>
	<g>
		<g>
			<path d="M19.79,44.82c0.68-0.91,1.2-1.91,1.53-3c0.16-0.52,0.26-1.05,0.33-1.59c0.07-0.59,0.04-1.21,0.18-1.8
				c0.07-0.3,0.22-0.53,0.37-0.79c0.06-0.11,0.12-0.21,0.11-0.33c-0.03-0.36-0.43-0.42-0.66-0.6c-0.52-0.4-0.26-0.97-0.37-1.5
				C21.23,35,21.12,35,21.01,34.82c-0.27-0.43,0.16-0.82,0.48-1.06c0.18-0.14,0-0.44-0.18-0.31c-0.32,0.24-0.68,0.52-0.75,0.94
				c-0.08,0.46,0.31,0.62,0.35,1.02c0.05,0.43-0.03,0.82,0.2,1.22c0.08,0.15,0.19,0.27,0.32,0.37c0.07,0.05,0.28,0.12,0.34,0.18
				c0.15,0.18,0.02,0.4-0.07,0.55c-0.53,0.98-0.33,2.29-0.57,3.35c-0.29,1.29-0.86,2.49-1.66,3.54C19.35,44.83,19.66,45,19.79,44.82
				L19.79,44.82z"/>
		</g>
	</g>
	<g>
		<g>
			<path d="M19.53,46.13c1.12-0.58,2.36-1.21,2.8-2.48c0.08-0.22-0.27-0.31-0.34-0.09c-0.41,1.17-1.62,1.74-2.64,2.27
				C19.15,45.93,19.33,46.24,19.53,46.13L19.53,46.13z"/>
		</g>
	</g>
	<g>
		<g>
			<path d="M23.1,34.32c-0.56,1.03-0.4,2.15-0.46,3.27c-0.03,0.69-0.27,1.31-0.37,1.98c-0.1,0.63-0.09,1.28-0.16,1.92
				c-0.14,1.14-0.75,2.33-0.17,3.42c0.64,1.21,1.62,2.27,2.45,3.35c0.14,0.18,0.44,0,0.31-0.18c-0.74-0.97-1.56-1.92-2.21-2.95
				c-0.15-0.24-0.34-0.53-0.41-0.8c-0.13-0.47,0.03-0.91,0.14-1.36c0.11-0.49,0.2-0.98,0.26-1.48c0.07-0.55,0.07-1.11,0.13-1.66
				c0.07-0.57,0.27-1.11,0.36-1.67c0.18-1.23-0.16-2.52,0.46-3.66C23.51,34.3,23.21,34.12,23.1,34.32L23.1,34.32z"/>
		</g>
	</g>
	<g>
		<g>
			<path d="M18.92,45.82c-0.25,0.43-0.05,0.94,0.35,1.19c0.57,0.36,1.27,0.15,1.89,0.27c0.67,0.13,1.28,0.51,1.86,0.84
				c0.6,0.34,1.18,0.71,1.67,1.21c-0.01-0.07-0.02-0.14-0.03-0.21c-0.03,0.06-0.07,0.12-0.1,0.18c-0.04,0.08-0.02,0.15,0.03,0.21
				c0.15,0.19,0.36,0.25,0.59,0.2c0.22-0.05,0.13-0.39-0.09-0.34c-0.12,0.02-0.2-0.02-0.25-0.11c0.01,0.07,0.02,0.14,0.03,0.21
				c0.03-0.06,0.07-0.12,0.1-0.18c0.04-0.07,0.03-0.16-0.03-0.21c-0.77-0.8-1.82-1.37-2.83-1.84c-0.51-0.24-1.02-0.36-1.59-0.36
				c-0.32,0-0.64,0.01-0.94-0.11c-0.3-0.13-0.56-0.45-0.37-0.78C19.34,45.8,19.04,45.62,18.92,45.82L18.92,45.82z"/>
		</g>
	</g>
	<g>
		<g>
			<path d="M16.4,46.54c0.04,0.83,0.75,1.29,1.51,1.44c0.54,0.11,1.11,0.14,1.66,0.17c0.57,0.03,1.1-0.07,1.66-0.1
				c0.53-0.02,1.09,0.72,1.47,1.06c0.45,0.41,0.9,0.81,1.36,1.21c0.43,0.38,0.85,0.8,1.32,1.14c0.31,0.23,0.61,0.34,0.99,0.27
				c0.22-0.04,0.13-0.39-0.09-0.34c-0.56,0.11-1.08-0.55-1.46-0.87c-0.38-0.34-0.77-0.68-1.15-1.01c-0.33-0.3-0.67-0.6-1-0.89
				c-0.3-0.27-0.6-0.64-0.95-0.83c-0.33-0.18-0.68-0.04-1.02,0c-0.43,0.05-0.87,0.04-1.31,0.01c-0.87-0.06-2.56-0.04-2.63-1.25
				C16.75,46.31,16.39,46.31,16.4,46.54L16.4,46.54z"/>
		</g>
	</g>
	<g>
		<g>
			<path d="M18.04,47.12c1.25-0.52,1.78-1.76,1.61-3.07c-0.13-1.04-0.36-1.96-0.31-3.03c0.04-0.97-0.01-1.94-0.17-2.91
				c-0.16-0.99-0.69-2.08-0.62-3.08c0.07-0.87,0.89-1.26,1.17-2.04c0.2-0.56,0.33-1.1,0.66-1.6c0.25-0.38,0.6-0.7,0.86-1.08
				c0.46-0.66,0.26-1.48,0.69-2.1c-0.11-0.01-0.22-0.03-0.32-0.04c0.05,0.03,0.1,0.06,0.15,0.09c0.22-0.06,0.13-0.4-0.09-0.34
				c-0.28,0.08-0.5,0.49-0.16,0.68c0.36,0.21,0.57-0.24,0.46-0.53c-0.06-0.14-0.23-0.18-0.32-0.04c-0.43,0.63-0.24,1.41-0.67,2.06
				c-0.46,0.68-1.01,1.19-1.32,1.98c-0.1,0.27-0.15,0.56-0.26,0.82c-0.19,0.49-0.52,0.65-0.81,1.04c-0.36,0.48-0.41,1.1-0.34,1.68
				c0.1,0.77,0.39,1.5,0.54,2.26c0.2,1.04,0.26,2.09,0.21,3.14c-0.04,0.89,0.01,1.64,0.2,2.51c0.28,1.27,0.11,2.69-1.24,3.25
				C17.74,46.87,17.83,47.21,18.04,47.12L18.04,47.12z"/>
		</g>
	</g>
	<g>
		<g>
			<path d="M16.29,46.99c0.7,0.99,1.9,0.64,2.25-0.44c0.3-0.92,0.22-2,0.21-2.95c-0.02-1.22-0.12-2.44-0.28-3.66
				c-0.17-1.27-0.39-2.52-0.65-3.77c-0.2-0.96-0.15-1.7,0.35-2.57c0.29-0.51,0.59-1.01,0.88-1.51c0.57-0.99,1.16-1.99,1.6-3.04
				c0.28-0.67,0.79-1.85,0.5-2.59c-0.02-0.05-0.06-0.11-0.12-0.12c-0.03,0-0.06-0.01-0.1-0.01c0.01,0.11,0.03,0.22,0.04,0.32
				c0.09-0.06,0.18-0.13,0.27-0.19c0.19-0.13,0.01-0.44-0.18-0.31c-0.09,0.06-0.18,0.13-0.27,0.19c-0.11,0.08-0.12,0.3,0.04,0.32
				c0.62,0.09-1.85,4.83-2.09,5.25c-0.72,1.25-1.61,2.31-1.38,3.81c0.3,1.97,0.76,3.88,0.93,5.88c0.08,0.93,0.12,1.87,0.1,2.81
				c-0.01,0.4-0.01,0.81-0.05,1.21c-0.01,0.24-0.05,0.49-0.11,0.72c-0.13,0.74-0.68,0.9-1.64,0.48
				C16.47,46.62,16.16,46.8,16.29,46.99L16.29,46.99z"/>
		</g>
	</g>
	<g>
		<g>
			<path d="M20.13,25.34c0.32,1.31-0.36,2.43-0.97,3.54c-0.55,1-1.1,2-1.65,3c-0.8,1.46-1.63,2.74-1.43,4.47
				c0.13,1.13,0.52,2.2,0.61,3.34c0.08,0.95,0.01,1.9,0.07,2.84c0.05,0.82,0.36,1.15,0.75,1.84c0.2,0.33,0.3,0.69,0.28,1.08
				c0.06,0.51-0.18,0.81-0.71,0.91c0.43-0.34,1.03-0.57,1.51-0.83c0.2-0.11,0.02-0.42-0.18-0.31c-0.44,0.24-2.39,0.89-2.06,1.73
				c0.18,0.45,0.71,0.35,1.03,0.12c0.6-0.42,0.82-1.29,0.74-1.98c-0.06-0.48-0.27-0.78-0.51-1.18c-0.53-0.88-0.51-1.61-0.52-2.61
				c-0.02-1.37-0.18-2.62-0.47-3.95c-0.19-0.89-0.35-1.77-0.11-2.66c0.21-0.8,0.7-1.54,1.1-2.27c0.74-1.35,1.52-2.69,2.23-4.06
				c0.52-1,0.9-2,0.63-3.13C20.42,25.02,20.08,25.12,20.13,25.34L20.13,25.34z"/>
		</g>
	</g>
	<g>
		<g>
			<path d="M26.56,45.02c-0.24,0.84-0.39,1.69-0.45,2.56c-0.04,0.52-0.23,1.53,0.25,1.94c0.42,0.35,0.97,0.1,1.33-0.18
				c0.72-0.56,1.39-1.19,2.08-1.78c1.47-1.27,2.94-2.53,4.41-3.8c0.71-0.61,1.44-1.21,2.14-1.84c0.34-0.31,0.72-0.88,1.23-0.91
				c0.31-0.02,0.54,0.19,0.88,0.13c-0.06-0.1-0.11-0.2-0.17-0.3c-0.09,0.1-0.18,0.19-0.27,0.29c-0.16,0.17,0.09,0.42,0.25,0.25
				c0.09-0.1,0.18-0.19,0.27-0.29c0.13-0.14,0-0.32-0.17-0.3c-0.53,0.09-0.96-0.42-1.44-0.01c-0.22,0.19-0.38,0.46-0.59,0.67
				C36,41.75,35.68,42,35.37,42.27c-1.23,1.06-2.46,2.12-3.69,3.18s-2.46,2.12-3.69,3.18c-0.16,0.14-0.32,0.29-0.5,0.42
				c-0.13,0.12-0.28,0.21-0.45,0.27c-0.2-0.17-0.4-0.34-0.6-0.51c-0.11-0.26,0-0.84,0.01-1.11c0.05-0.87,0.21-1.73,0.45-2.57
				C26.96,44.9,26.62,44.81,26.56,45.02L26.56,45.02z"/>
		</g>
	</g>
	<g>
		<g>
			<path d="M35.26,14.5c0.02-0.01,0.04-0.01,0.06-0.02c0,0,0.06-0.01,0.03-0.01c0.02,0,0.04,0,0.06,0c0.02,0,0.03,0,0.01,0
				c0.01,0,0.01,0,0.02,0c0,0,0.05,0.02,0.03,0.01c0.01,0.01,0.03,0.02,0.04,0.03c-0.03-0.02,0.01,0.02,0.01,0.02
				c-0.02-0.02,0.01,0.01,0.01,0.02c0.02,0.03,0-0.02,0.01,0.02c0,0.02,0,0.02,0,0.01c0-0.01,0-0.01,0,0.01c0.01-0.04,0,0.01,0,0.01
				c0.01-0.02,0.01-0.02,0-0.01c0,0.01-0.01,0.01-0.01,0.02c-0.01,0.03,0.02-0.02,0,0.01c-0.01,0.01-0.04,0.03-0.01,0.01
				c-0.01,0.01-0.02,0.02-0.04,0.02c-0.01,0-0.05,0.02-0.01,0.01c-0.03,0.01-0.06,0.02-0.09,0.03c-0.01,0-0.03,0.01-0.05,0.01
				c-0.04,0.01,0.03,0-0.01,0c-0.07,0.01-0.14,0.01-0.22,0.01c-0.09,0-0.17,0-0.26,0.01c-0.06,0-0.12,0-0.17,0.02
				c-0.04,0.02-0.09,0.05-0.13,0.08c0.09,0.04,0.17,0.07,0.26,0.11c0,0.03,0.01-0.03,0,0c0-0.02,0.01-0.04,0.02-0.06
				c0.01-0.04,0.03-0.07,0.04-0.11c0.02-0.11,0.01-0.22-0.07-0.3c-0.13-0.14-0.39-0.1-0.45,0.09c0.03-0.04,0.05-0.07,0.08-0.11
				c-0.15,0.07-0.16,0.32,0,0.39c0.09,0.04,0.19,0.03,0.24-0.06c0.04-0.07,0.02-0.2-0.06-0.24c0.02,0.04,0.04,0.07,0.06,0.11
				c-0.02,0.04-0.04,0.07-0.06,0.11c0.02,0,0.06-0.05,0.06-0.06c0.01-0.01,0.01-0.03,0.02-0.04c-0.01,0.02-0.02,0.03-0.03,0.05
				c-0.02,0.02-0.05,0.03-0.08,0.03c0.02,0,0,0-0.01,0c-0.01,0-0.03-0.01-0.04-0.02c-0.01-0.01-0.01-0.02-0.02-0.03
				c0,0,0-0.01,0-0.01c0,0.02,0,0.02,0,0.01c0-0.01-0.01,0.02-0.01,0.02c0,0.01-0.01,0.02-0.01,0.04c-0.01,0.03-0.02,0.05-0.03,0.08
				c-0.02,0.07-0.03,0.15-0.01,0.22c0.02,0.11,0.17,0.17,0.26,0.11c0.03-0.02,0.07-0.05,0.1-0.07c-0.03,0.01-0.06,0.02-0.09,0.02
				c0.2-0.01,0.4,0,0.59-0.02c0.16-0.02,0.34-0.06,0.45-0.19c0.14-0.17,0.12-0.4-0.02-0.56c-0.15-0.17-0.4-0.19-0.6-0.12
				c-0.09,0.03-0.15,0.12-0.12,0.22C35.07,14.46,35.17,14.53,35.26,14.5L35.26,14.5z"/>
		</g>
	</g>
	<g>
		<g>
			<path d="M20.6,24c-0.24,2.36,1.1,4.32,1.78,6.49c0.39,1.26,0.46,2.58,0.74,3.86c0.28,1.28,0.81,2.47,1.15,3.73
				c0.72,2.7,0.68,5.81,0.63,8.59c-0.03,1.67-0.63,4.26,1.33,5.14c1.93,0.87,4-1.67,5.24-2.75c2.12-1.84,4.24-3.68,6.36-5.53
				c0.62-0.54,1.89-1.23,2.12-2.06c0.22-0.81-0.79-1.53-1.15-2.1c-0.7-1.11-1.22-2.56-1.4-3.87c-0.21-1.56,0.24-3.09,0.34-4.65
				c0.18-2.75-0.49-5.46-1.18-8.1c-0.35-1.33-0.71-2.66-0.99-4.01c-0.17-0.83-0.31-1.66-0.39-2.51c-0.04-0.39-0.33-1.77,0.2-1.66
				c0.22,0.04,0.32-0.3,0.09-0.34c-0.17-0.03-0.34-0.06-0.51-0.1c-0.11-0.02-0.22,0.05-0.22,0.17c-0.03,4.4,1.73,8.47,2.42,12.76
				c0.19,1.18,0.29,2.37,0.23,3.57c-0.06,1.25-0.37,2.48-0.41,3.73c-0.07,1.86,0.66,4.01,1.74,5.53c0.49,0.69,1.18,0.95,0.48,1.96
				c-0.28,0.41-0.9,0.78-1.27,1.11c-0.97,0.84-1.94,1.68-2.91,2.53c-1.88,1.63-3.73,3.3-5.63,4.9c-0.6,0.5-1.11,0.9-1.87,1.1
				c-1.43,0.38-2.22-0.73-2.35-1.98c-0.14-1.33,0.09-2.74,0.07-4.09c-0.04-2.24-0.04-4.6-0.49-6.81c-0.25-1.21-0.74-2.34-1.08-3.52
				c-0.37-1.27-0.45-2.59-0.73-3.87c-0.55-2.46-2.25-4.62-1.99-7.23C20.98,23.77,20.62,23.78,20.6,24L20.6,24z"/>
		</g>
	</g>
	<g>
		<g>
			<path d="M19.36,25.09c0.13,0.46,0.74,0.55,1.13,0.4c0.44-0.18,0.68-0.63,0.61-1.09c-0.01-0.07-0.02-0.14-0.06-0.2
				c-0.06-0.08-0.16-0.12-0.26-0.1c-0.08,0.02-0.13,0.08-0.15,0.16c-0.03,0.11,0.04,0.2,0.14,0.24c0.09,0.04,0.19-0.04,0.22-0.12
				c0.03-0.1-0.03-0.18-0.12-0.22c0,0-0.01,0-0.01,0c0.04,0.03,0.07,0.05,0.11,0.08c0,0.01,0.01,0.02,0.01,0.02
				c0,0.03,0,0.06,0,0.09c-0.02,0.02-0.04,0.05-0.06,0.07c-0.03,0.01-0.06,0.02-0.09,0.02c-0.02-0.01-0.04-0.01-0.05-0.02
				c-0.02-0.03-0.03-0.05-0.05-0.08c0.09,0.29-0.01,0.62-0.29,0.77c-0.06,0.03-0.13,0.06-0.21,0.07c-0.03,0.01-0.06,0.01-0.1,0.01
				c-0.02,0-0.04,0-0.06,0c0,0-0.06-0.01-0.03,0c-0.09-0.01-0.15-0.03-0.22-0.08c-0.06-0.04-0.09-0.07-0.11-0.13
				C19.64,24.78,19.3,24.87,19.36,25.09L19.36,25.09z"/>
		</g>
	</g>
	<g>
		<g>
			<path d="M27.3,19.17c-0.7,0.65-0.68,1.76-0.36,2.6c0.32,0.83,1.03,1.64,1.92,1.89c1.05,0.29,1.77-0.7,1.96-1.61
				c0.21-0.97,0.22-2.08-0.48-2.86c-0.66-0.73-1.94-1.08-2.75-0.39c-0.17,0.15,0.08,0.4,0.25,0.25c0.61-0.52,1.59-0.23,2.12,0.26
				c0.65,0.61,0.7,1.52,0.57,2.35c-0.11,0.74-0.55,1.87-1.5,1.67c-0.73-0.15-1.35-0.82-1.66-1.47c-0.36-0.74-0.48-1.83,0.18-2.44
				C27.71,19.27,27.46,19.02,27.3,19.17L27.3,19.17z"/>
		</g>
	</g>
	<g>
		<g>
			<path d="M29.55,19.41C29.55,19.4,29.56,19.4,29.55,19.41c-0.01,0-0.02,0.01-0.03,0.02c0,0,0.01,0,0.01-0.01
				c-0.01,0.01-0.03,0.01-0.04,0.02c0,0,0.01,0,0.02,0c-0.02,0-0.03,0-0.05,0.01c0.01,0,0.01,0,0.02,0c-0.02,0-0.03,0-0.05-0.01
				c0.01,0,0.01,0,0.02,0.01c-0.01-0.01-0.03-0.01-0.04-0.02c0,0,0.01,0,0.01,0.01c-0.01-0.01-0.02-0.02-0.04-0.03
				c0,0,0.01,0.01,0.01,0.01c-0.01-0.01-0.02-0.02-0.03-0.04c0,0,0,0.01,0.01,0.01c-0.01-0.01-0.01-0.03-0.02-0.04c0,0,0,0,0,0
				c0.01,0.02,0.02,0.04,0.03,0.06c0.01,0.02,0.03,0.03,0.05,0.05c0.02,0.01,0.04,0.02,0.07,0.02c0.02,0.01,0.05,0,0.07,0
				c0.04-0.01,0.08-0.04,0.11-0.08c0.02-0.04,0.03-0.09,0.02-0.14c-0.01-0.04-0.03-0.08-0.06-0.1c-0.03-0.03-0.06-0.05-0.11-0.06
				c-0.04-0.01-0.08-0.01-0.13,0c-0.04,0.01-0.08,0.03-0.11,0.06c-0.02,0.02-0.03,0.04-0.04,0.06c-0.01,0.02-0.02,0.04-0.02,0.07
				c0,0.02,0,0.05,0.02,0.07c0.01,0.02,0.02,0.04,0.04,0.06c0.03,0.03,0.08,0.05,0.13,0.05C29.47,19.45,29.52,19.44,29.55,19.41
				L29.55,19.41z"/>
		</g>
	</g>
	<g>
		<g>
			<path d="M29.78,20.86c0.04,0.03,0.1,0.04,0.15,0.05c0.06,0,0.11-0.01,0.16-0.04c0.04-0.02,0.08-0.05,0.11-0.09
				c0.01-0.01,0.02-0.02,0.02-0.03c0.01-0.02,0.02-0.04,0.02-0.06c0.01-0.03,0.01-0.05,0.02-0.08c0-0.02,0-0.03-0.01-0.05
				c-0.01-0.02-0.02-0.04-0.03-0.06c-0.01-0.01-0.02-0.02-0.03-0.03c-0.02-0.02-0.04-0.03-0.06-0.03c-0.03-0.01-0.06-0.01-0.09,0
				c-0.04,0.01-0.08,0.04-0.11,0.08c-0.04,0.07-0.04,0.15-0.02,0.22c0.01,0.03,0.02,0.06,0.03,0.09c0-0.02,0-0.03-0.01-0.05
				c0,0.01,0,0.02,0,0.04c0-0.02,0-0.03,0.01-0.05c0,0.01,0,0.01-0.01,0.02c0.01-0.01,0.01-0.03,0.02-0.04c0,0.01,0,0.01-0.01,0.01
				c0.01-0.01,0.02-0.02,0.03-0.04c0,0-0.01,0.01-0.01,0.01c0.01-0.01,0.02-0.02,0.04-0.03c0,0,0,0-0.01,0
				c0.01-0.01,0.03-0.01,0.04-0.02c0,0-0.01,0-0.01,0c0.02,0,0.03,0,0.05-0.01c0,0-0.01,0-0.01,0c0.02,0,0.03,0,0.05,0.01
				c0,0-0.01,0-0.01,0c0.01,0.01,0.03,0.01,0.04,0.02c0,0-0.01,0-0.01-0.01c0.01,0.01,0.02,0.02,0.04,0.03c0,0-0.01-0.01-0.01-0.01
				c0.01,0.01,0.02,0.02,0.03,0.04c0,0,0-0.01-0.01-0.01c0.01,0.01,0.01,0.03,0.02,0.04c0,0,0,0,0-0.01c0,0.02,0,0.03,0.01,0.05
				c0,0,0,0,0-0.01c0,0.02,0,0.03-0.01,0.05c0,0,0,0,0-0.01c-0.01,0.01-0.01,0.03-0.02,0.04c0,0,0,0,0,0
				c-0.01,0.01-0.02,0.02-0.03,0.04c0,0,0,0,0,0c-0.01,0.01-0.02,0.02-0.04,0.03c0,0,0,0,0.01,0c0.02-0.01,0.04-0.03,0.05-0.05
				c0.02-0.02,0.03-0.04,0.03-0.06c0.01-0.02,0.01-0.05,0-0.07c0-0.02-0.01-0.05-0.02-0.07c-0.02-0.04-0.06-0.07-0.11-0.08
				c-0.02,0-0.03,0-0.05-0.01c-0.03,0-0.06,0.01-0.09,0.02c-0.06,0.03-0.1,0.1-0.1,0.17c0,0.06,0.02,0.11,0.06,0.15
				c0.07,0.07,0.18,0.1,0.27,0.04c0.08-0.05,0.13-0.14,0.11-0.24c0-0.04-0.01-0.07-0.02-0.1c-0.01-0.02-0.02-0.04-0.02-0.07
				c0,0.02,0,0.03,0.01,0.05c0-0.01,0-0.02,0-0.03c0,0.02,0,0.03-0.01,0.05c0-0.01,0-0.02,0.01-0.02c-0.01,0.01-0.01,0.03-0.02,0.04
				c0,0,0-0.01,0.01-0.01c-0.11-0.03-0.22-0.06-0.33-0.09c0,0,0,0,0,0.01c0-0.02,0-0.03,0.01-0.05c0,0.01,0,0.02-0.01,0.03
				c0.01-0.01,0.01-0.03,0.02-0.04c0,0.01-0.01,0.02-0.02,0.03c0.01-0.01,0.02-0.02,0.03-0.04c-0.01,0.01-0.02,0.02-0.03,0.03
				c0.01-0.01,0.02-0.02,0.04-0.03c-0.01,0.01-0.02,0.01-0.03,0.02c0.01-0.01,0.03-0.01,0.04-0.02c-0.01,0.01-0.03,0.01-0.04,0.01
				c0.02,0,0.03,0,0.05-0.01c-0.01,0-0.02,0-0.04,0c0.02,0,0.03,0,0.05,0.01c-0.01,0-0.02,0-0.03-0.01
				c0.01,0.01,0.03,0.01,0.04,0.02c-0.01,0-0.01-0.01-0.02-0.01c-0.02-0.01-0.04-0.02-0.07-0.02c-0.02-0.01-0.05,0-0.07,0
				c-0.04,0.01-0.09,0.04-0.11,0.08c-0.02,0.04-0.03,0.09-0.02,0.14c0.01,0.01,0.01,0.03,0.02,0.04
				C29.73,20.82,29.75,20.85,29.78,20.86L29.78,20.86z"/>
		</g>
	</g>
	<g>
		<g>
			<path d="M29.37,22c-0.04,0.02-0.06,0.02-0.09,0.05c-0.01,0.01-0.02,0.03-0.03,0.04c0,0,0,0,0,0.01
				c-0.02,0.03-0.03,0.08-0.03,0.12c0,0.05,0.01,0.06,0.03,0.1c0,0,0,0,0,0.01c0.01,0.01,0.02,0.03,0.03,0.04
				c0.02,0.02,0.06,0.04,0.09,0.05c0.02,0.01,0.05,0.01,0.07,0c0.01,0,0.02,0,0.03,0c0,0,0.01,0,0.01,0
				c0.04-0.02,0.09-0.04,0.13-0.06c0.04-0.03,0.08-0.06,0.11-0.09c0.02-0.02,0.03-0.04,0.04-0.06c0.01-0.02,0.02-0.04,0.02-0.07
				c0-0.02,0-0.05-0.02-0.07c-0.01-0.02-0.02-0.04-0.04-0.06c-0.03-0.03-0.08-0.05-0.13-0.05c-0.02,0-0.03,0-0.05,0.01
				c-0.03,0.01-0.06,0.02-0.08,0.05c-0.01,0.01-0.03,0.03-0.04,0.04c0.01-0.01,0.02-0.02,0.04-0.03c-0.03,0.03-0.07,0.05-0.11,0.06
				c0.01-0.01,0.03-0.01,0.04-0.02c-0.01,0-0.02,0.01-0.03,0.01c0.05,0.01,0.09,0.01,0.14,0.02c0,0,0,0-0.01,0
				c0.01,0.01,0.02,0.02,0.04,0.03c0,0,0,0-0.01-0.01c0.01,0.01,0.02,0.02,0.03,0.04c0,0,0-0.01-0.01-0.01
				c0.01,0.01,0.01,0.03,0.02,0.04c0,0,0-0.01,0-0.01c0,0.02,0,0.03,0.01,0.05c0,0,0-0.01,0-0.01c0,0.02,0,0.03-0.01,0.05
				c0,0,0-0.01,0-0.01c-0.01,0.01-0.01,0.03-0.02,0.04c0,0,0-0.01,0.01-0.01c-0.01,0.01-0.02,0.02-0.03,0.04c0,0,0,0,0.01-0.01
				c-0.01,0.01-0.02,0.02-0.04,0.03c0,0,0,0,0.01,0c-0.01,0.01-0.03,0.01-0.04,0.02c0,0,0,0,0,0c0.02-0.01,0.04-0.02,0.06-0.03
				c0.02-0.01,0.03-0.03,0.05-0.05c0.01-0.02,0.02-0.04,0.02-0.07c0.01-0.02,0-0.05,0-0.07c-0.01-0.04-0.04-0.08-0.08-0.11
				C29.49,22.01,29.48,22,29.46,22C29.43,21.99,29.4,21.99,29.37,22L29.37,22z"/>
		</g>
	</g>
	<g>
		<g>
			<path d="M28.46,22.22c-0.03-0.02-0.05-0.04-0.09-0.05c0,0,0,0-0.01,0c0,0-0.04-0.01-0.05-0.01c0,0,0,0,0,0
				c0,0-0.04,0.01-0.05,0.01c0,0,0,0,0,0c-0.01,0-0.02,0.01-0.03,0.01c-0.03,0.01-0.04,0.02-0.07,0.04
				c-0.02,0.02-0.03,0.03-0.04,0.05c-0.01,0.01-0.01,0.03-0.02,0.05c0,0,0,0,0,0c0,0,0,0,0,0c0,0.01-0.01,0.04-0.01,0.05
				c0,0,0,0,0,0.01c0,0.02,0,0.03,0.01,0.05c0,0,0,0,0,0c0,0,0.02,0.04,0.02,0.04c0,0,0,0,0,0c0,0.01,0.02,0.03,0.03,0.04
				c0,0,0,0,0,0c0.01,0.01,0.03,0.02,0.04,0.03c0,0,0,0,0,0c0.01,0.01,0.03,0.02,0.05,0.02c0.01,0,0.03,0.01,0.05,0.01
				c0.01,0,0.03,0,0.04,0c0.02,0,0.04,0,0.05-0.01c0,0,0.01,0,0.01,0c0.04-0.01,0.06-0.03,0.09-0.05c0.01-0.01,0.03-0.03,0.04-0.05
				c0,0,0,0,0,0c0.01-0.01,0.01-0.03,0.02-0.04c0-0.01,0-0.02,0.01-0.03c0-0.01,0-0.02,0-0.03c0,0,0,0,0,0c0-0.01,0-0.04-0.01-0.05
				c-0.01-0.03-0.03-0.06-0.05-0.09c0,0,0,0,0,0c-0.01-0.01-0.03-0.02-0.04-0.03c-0.01-0.01-0.03-0.02-0.05-0.02
				c-0.02-0.01-0.05-0.01-0.07,0c-0.02,0-0.05,0.01-0.07,0.02c-0.02,0.01-0.04,0.03-0.05,0.05c-0.02,0.02-0.03,0.04-0.03,0.06
				c0,0.02,0,0.03-0.01,0.05c0,0.03,0.01,0.06,0.02,0.09c0.01,0.01,0.02,0.02,0.03,0.04c0.02,0.02,0.05,0.04,0.08,0.05c0,0,0,0,0,0
				c-0.01-0.01-0.03-0.01-0.04-0.02c0,0,0,0,0.01,0c-0.01-0.01-0.02-0.02-0.04-0.03c0,0,0,0,0,0c-0.01-0.01-0.02-0.02-0.03-0.04
				c0,0,0,0,0,0c-0.01-0.01-0.01-0.03-0.02-0.04c0,0,0,0,0,0.01c0-0.02,0-0.03-0.01-0.05c0,0,0,0.01,0,0.01c0-0.02,0-0.03,0.01-0.05
				c0,0,0,0.01,0,0.01c0.01-0.01,0.01-0.03,0.02-0.04c0,0,0,0.01-0.01,0.01c0.01-0.01,0.02-0.02,0.03-0.04c0,0,0,0-0.01,0.01
				c0.01-0.01,0.02-0.02,0.04-0.03c0,0-0.01,0-0.01,0.01c0.01-0.01,0.03-0.01,0.04-0.02c0,0-0.01,0-0.01,0c0.02,0,0.03,0,0.05-0.01
				c-0.01,0-0.02,0-0.03,0c0.02,0,0.03,0,0.05,0.01c-0.01,0-0.02,0-0.02,0c0.01,0.01,0.03,0.01,0.04,0.02c0,0,0,0-0.01,0
				c0.01,0.01,0.02,0.02,0.04,0.03c0,0,0,0,0,0c0.01,0.01,0.02,0.02,0.03,0.04c0,0,0,0,0-0.01c0.01,0.01,0.01,0.03,0.02,0.04
				c0,0,0,0,0-0.01c0,0.02,0,0.03,0.01,0.05c0,0,0-0.01,0-0.01c0,0.02,0,0.03-0.01,0.05c0,0,0-0.01,0-0.01
				c-0.01,0.01-0.01,0.03-0.02,0.04c0,0,0-0.01,0.01-0.01c-0.01,0.01-0.02,0.02-0.03,0.04c0,0,0.01-0.01,0.01-0.01
				c-0.01,0.01-0.02,0.02-0.04,0.03c0,0,0,0,0.01,0c-0.01,0.01-0.03,0.01-0.04,0.02c0,0,0,0,0.01,0c-0.02,0-0.03,0-0.05,0.01
				c0,0,0,0,0,0c-0.02,0-0.03,0-0.05-0.01c0,0,0,0,0.01,0c-0.01-0.01-0.03-0.01-0.04-0.02c0,0,0,0,0,0
				c-0.01-0.01-0.02-0.02-0.04-0.03c0,0,0,0,0,0c0.03,0.03,0.08,0.05,0.13,0.05c0.02,0,0.05,0,0.07-0.02
				c0.02-0.01,0.04-0.02,0.06-0.04c0.03-0.03,0.05-0.08,0.05-0.13C28.51,22.3,28.49,22.25,28.46,22.22L28.46,22.22z"/>
		</g>
	</g>
	<g>
		<g>
			<path d="M27.5,20.91c0.06,0,0.12,0,0.17,0c0.02,0,0.05,0,0.07-0.02c0.02-0.01,0.04-0.02,0.06-0.04c0.02-0.02,0.03-0.04,0.04-0.06
				c0.01-0.02,0.02-0.04,0.02-0.07c0-0.05-0.02-0.09-0.05-0.13c-0.03-0.03-0.08-0.05-0.13-0.05c-0.06,0-0.12,0-0.17,0
				c-0.02,0-0.05,0-0.07,0.02c-0.02,0.01-0.04,0.02-0.06,0.04c-0.02,0.02-0.03,0.04-0.04,0.06c-0.01,0.02-0.02,0.04-0.02,0.07
				c0,0.05,0.02,0.09,0.05,0.13C27.41,20.89,27.45,20.91,27.5,20.91L27.5,20.91z"/>
		</g>
	</g>
	<g>
		<g>
			<path d="M28.05,19.24c0,0.02,0,0.05,0.01,0.07c0,0.01,0,0.02,0.01,0.03c0.01,0.02,0.02,0.04,0.03,0.07
				c0,0.01,0.01,0.02,0.01,0.02c0.02,0.03,0.04,0.05,0.06,0.08c0.02,0.02,0.04,0.03,0.05,0.04c0.01,0.01,0.02,0.01,0.03,0.02
				c0.04,0.02,0.09,0.03,0.14,0.02c0.02-0.01,0.04-0.02,0.06-0.03c0.02-0.01,0.03-0.03,0.05-0.05c0.02-0.04,0.03-0.09,0.02-0.14
				c-0.01-0.04-0.04-0.08-0.08-0.11c-0.01-0.01-0.02-0.01-0.03-0.02c0.01,0.01,0.02,0.02,0.04,0.03c-0.01-0.01-0.03-0.02-0.04-0.04
				c0.01,0.01,0.02,0.02,0.03,0.04c-0.01-0.01-0.02-0.03-0.03-0.05c0.01,0.01,0.01,0.03,0.02,0.04c-0.01-0.02-0.01-0.03-0.01-0.05
				c0,0.02,0,0.03,0.01,0.05c0-0.01,0-0.01,0-0.02c0-0.02,0-0.05-0.02-0.07c-0.01-0.02-0.02-0.04-0.04-0.06
				c-0.02-0.02-0.04-0.03-0.06-0.04c-0.02-0.01-0.04-0.02-0.07-0.02c-0.05,0-0.09,0.02-0.13,0.05
				C28.07,19.15,28.05,19.19,28.05,19.24L28.05,19.24z"/>
		</g>
	</g>
	<g>
		<g>
			<path d="M36.65,13.65c1.75,1.55,4.23,1.81,6.26,0.64c-0.07-0.09-0.14-0.19-0.21-0.28c-0.51,0.49-1.46,0.57-2.12,0.69
				c-1.24,0.21-1.97-0.02-3.1-0.52c-0.96-0.43-1.78-0.32-2.73,0.15c-1.44,0.71-2.78,1.72-4.14,2.59c-1.47,0.94-2.94,1.87-4.4,2.82
				c-1.38,0.89-2.76,1.8-4.09,2.76c-1.27,0.92-2.42,2.03-3.71,2.93c-1.57,1.09-3.56,0.84-4.85-0.61c-1.5-1.69-0.15-3.53,1.4-4.41
				c0.2-0.11,0.02-0.42-0.18-0.31c-0.99,0.55-1.92,1.25-2.13,2.42c-0.21,1.18,0.22,2.26,1.17,2.99c1.02,0.79,2.38,1.33,3.64,0.85
				c1.73-0.66,3.17-2.34,4.64-3.42c3.56-2.61,7.38-4.88,11.09-7.26c1.27-0.81,2.48-1.81,4.1-1.19c0.69,0.26,1.17,0.64,1.95,0.68
				c1.07,0.06,2.89-0.13,3.7-0.9c0.15-0.14-0.04-0.38-0.21-0.28c-1.89,1.09-4.2,0.86-5.83-0.59C36.73,13.24,36.48,13.49,36.65,13.65
				L36.65,13.65z"/>
		</g>
	</g>
	<g>
		<g>
			<path d="M38.97,4.72c-1.34-0.11-2.6,0.7-3.29,1.82c-0.81,1.31-0.84,2.93-0.6,4.41c0.04,0.22,0.38,0.13,0.34-0.09
				c-0.22-1.35-0.2-2.84,0.52-4.06c0.62-1.06,1.78-1.82,3.03-1.72C39.2,5.09,39.2,4.74,38.97,4.72L38.97,4.72z"/>
		</g>
	</g>
	<g>
		<g>
			<path d="M38.38,12.08c0.52,1,1.74,1.59,2.83,1.29c0.58-0.16,1.01-0.57,1.18-1.15c0.09-0.28,0.12-0.59,0.13-0.88
				c0.02-0.3-0.05-0.62-0.4-0.64c0.02,0.12,0.03,0.23,0.05,0.35c-0.04-0.02-0.07-0.04-0.11-0.07c-0.03,0.23,0.32,0.22,0.35,0
				c0.03-0.19-0.17-0.32-0.34-0.27c-0.2,0.05-0.14,0.33,0.05,0.35c0.12,0.01,0.01,0.68,0,0.76c-0.04,0.22-0.1,0.44-0.21,0.63
				c-0.24,0.42-0.7,0.62-1.17,0.65c-0.85,0.06-1.68-0.43-2.07-1.18C38.58,11.7,38.27,11.88,38.38,12.08L38.38,12.08z"/>
		</g>
	</g>
	<g>
		<g>
			<path d="M37.91,7.28c-0.25,0.23-0.14,0.63,0.14,0.8c0.2,0.12,0.45,0.11,0.68,0.14c0.28,0.04,0.54,0.17,0.76,0.35
				c0.81,0.64,1.4,1.91,0.81,2.87c-0.21,0.34-0.9,0.92-1.3,0.5c-0.2-0.2-0.02-0.62,0.01-0.87c0.03-0.3,0.02-0.61-0.04-0.91
				c-0.07-0.38-0.36-0.71-0.78-0.5c-0.4,0.2-0.44,0.75-0.33,1.13c0.13,0.47,0.46,0.9,0.8,1.24c0.32,0.32,0.73,0.58,1.19,0.61
				c0.96,0.07,1.72-0.74,1.81-1.65c0.02-0.24,0-0.49-0.06-0.73c-0.03-0.1-0.08-0.2-0.1-0.3c-0.03-0.11-0.06-0.05,0.01-0.13
				c0.03-0.04,0.11-0.06,0.16-0.1c0.32-0.23,0.49-0.64,0.45-1.03c-0.04-0.39-0.31-0.71-0.67-0.86c-0.16-0.07-0.34-0.1-0.52-0.09
				c-0.09,0.01-0.17,0.04-0.26,0.05c-0.05,0.01-0.14,0.05-0.2,0c-0.03-0.03-0.05-0.18-0.06-0.22c-0.09-0.46-0.32-0.87-0.8-1.02
				c-0.4-0.13-0.99-0.02-1.23,0.35c-0.11,0.17-0.09,0.38,0.08,0.5c0.23,0.16,0.47,0.25,0.68,0.44c0.43,0.39,0.69,0.91,0.76,1.49
				c0.03,0.22,0.37,0.13,0.34-0.09c-0.11-0.77-0.54-1.47-1.19-1.91C38.92,7.26,38.55,7.17,38.8,7c0.18-0.12,0.42-0.17,0.64-0.12
				c0.22,0.05,0.4,0.2,0.52,0.4c0.1,0.18,0.09,0.38,0.15,0.57c0.11,0.33,0.34,0.39,0.65,0.29c0.39-0.12,0.87,0.06,0.99,0.49
				c0.05,0.18,0.02,0.38-0.07,0.54c-0.1,0.2-0.26,0.26-0.43,0.38c-0.33,0.23,0,0.67,0.05,0.97c0.14,0.94-0.62,2-1.65,1.71
				c-0.45-0.12-0.79-0.48-1.06-0.84c-0.14-0.19-0.28-0.39-0.36-0.62c-0.08-0.22-0.16-0.65,0.1-0.79c0.32-0.18,0.33,0.54,0.33,0.7
				c0.01,0.29-0.06,0.55-0.1,0.83c-0.05,0.35,0.07,0.68,0.41,0.81c0.67,0.27,1.38-0.26,1.68-0.83c0.44-0.84,0.18-1.83-0.35-2.57
				c-0.25-0.35-0.57-0.68-0.95-0.88c-0.18-0.1-0.38-0.16-0.59-0.19c-0.1-0.01-0.89-0.08-0.61-0.34C38.33,7.37,38.08,7.12,37.91,7.28
				L37.91,7.28z"/>
		</g>
	</g>
	<g>
		<g>
			<path d="M39.34,5.46c-1.56,0.37-2.01,2.08-1.89,3.48c0.13,1.57,0.64,3.24,1.91,4.25c1,0.8,2.73,1.26,3.53-0.04
				c0.78-1.27,0.52-3.11,0.02-4.43c-0.54-1.45-1.75-3.59-3.59-3.32c-0.07,0.01-0.14,0.1-0.13,0.17c0.01,0.11,0.02,0.21,0.03,0.32
				c0.02,0.22,0.38,0.23,0.35,0c-0.01-0.11-0.02-0.21-0.03-0.32c-0.04,0.06-0.09,0.11-0.13,0.17c1.47-0.22,2.48,1.54,2.99,2.68
				c0.53,1.19,0.8,2.62,0.45,3.9c-0.17,0.64-0.56,1.24-1.28,1.3c-0.63,0.05-1.29-0.2-1.8-0.55c-1.12-0.78-1.65-2.09-1.88-3.39
				c-0.24-1.4-0.18-3.46,1.54-3.87C39.65,5.75,39.56,5.41,39.34,5.46L39.34,5.46z"/>
		</g>
	</g>
	<g>
		<g>
			<path d="M36.74,9.21c0.16,1,0.62,1.95,1.11,2.83c0.43,0.79,0.98,1.56,1.75,2.05c0.68,0.43,1.55,0.64,2.33,0.41
				c0.83-0.24,1.42-0.96,1.77-1.72c0.76-1.66,0.42-3.56-0.43-5.12c-0.89-1.62-2.23-3.12-4.24-2.84c-0.92,0.13-1.76,0.58-2.14,1.46
				c-0.41,0.95-0.53,2.12-0.12,3.09c0.09,0.21,0.43,0.12,0.34-0.09c-0.33-0.79-0.28-1.64-0.04-2.44c0.26-0.9,0.88-1.43,1.8-1.62
				c0.8-0.17,1.65-0.04,2.32,0.43c0.69,0.48,1.2,1.22,1.62,1.93c0.81,1.36,1.24,2.99,0.76,4.55c-0.24,0.78-0.73,1.63-1.51,1.96
				c-0.72,0.31-1.57,0.13-2.23-0.26c-0.77-0.47-1.3-1.25-1.72-2.02c-0.46-0.84-0.88-1.73-1.04-2.68C37.04,8.89,36.7,8.98,36.74,9.21
				L36.74,9.21z"/>
		</g>
	</g>
	<g>
		<g>
			<path d="M14.52,21.15c1.56-1.34,3.94-1.78,5.83-2.51c1.8-0.7,3.59-1.46,5.34-2.27c1.81-0.84,3.59-1.74,5.34-2.7
				c0.84-0.46,1.68-0.94,2.5-1.42c0.38-0.23,0.76-0.45,1.14-0.68c0.38-0.24,1.05-0.85,1.5-0.94c0.61-0.13,0.87,0.84,1.13,1.39
				c0.27,0.58,0.28,0.64-0.35,1.02c-0.43,0.26-0.87,0.49-1.32,0.71c-1.87,0.95-3.71,1.93-5.5,3.02c-3.48,2.12-6.79,4.51-10.07,6.93
				c-0.89,0.65-1.75,1.41-2.7,1.96c-1.76,1.03-3.15-0.56-3.63-2.16c-0.12-0.41-0.18-0.89-0.06-1.32c0.04-0.15,0.51-0.98,0.78-0.68
				c0.01,0.01-0.24,0.94-0.24,1.08c0,0.66,0.29,1.23,0.71,1.72c0.08,0.1,0.21,0.05,0.28-0.04c0.43-0.56,0.27-1.71-0.64-1.18
				c-0.31,0.18-0.38,0.54-0.29,0.87c0.19,0.65,0.88,0.73,1.44,0.66c0.18-0.02,0.26-0.3,0.05-0.35c-0.42-0.09-0.32-0.1-0.73,0.02
				c-0.11,0.03-0.16,0.16-0.11,0.26c0.79,1.44,2.09,0.98,3.18,0.2c2.02-1.45,3.99-2.97,6.04-4.39c2.01-1.39,4.12-2.52,6.24-3.73
				c0.85-0.49,1.58-1.08,2.3-1.74c0.39-0.35,0.76-0.76,1.19-1.06c0.48-0.34,0.64-0.35,0.34,0.25c-0.05,0.11,0.01,0.28,0.15,0.27
				c0.91-0.07,2.37-0.15,2.72-1.21c0.19-0.57-0.16-1.32-0.85-1.18c-1.54,0.3,0.56,2.41,1.17,0.98c0.04-0.09,0.02-0.18-0.06-0.24
				c-0.26-0.15-0.47-0.35-0.64-0.59c-0.08-0.1-0.27-0.04-0.3,0.08c-0.28,1.14-1.77,1.75-2.7,2.29c-1.01,0.6-2.05,1.11-3.14,1.54
				c-1.74,0.69-3.5,1.26-5.06,2.32c-1.34,0.91-2.51,2.04-3.75,3.07c-0.74,0.61-1.5,1.19-2.33,1.66c-0.95,0.53-3.77,1.94-3.99-0.39
				c-0.02-0.23-0.38-0.23-0.35,0c0.18,1.94,2.13,1.77,3.53,1.18c2.06-0.86,3.68-2.47,5.36-3.89c1.01-0.85,2.05-1.63,3.23-2.22
				c1.38-0.69,2.87-1.12,4.28-1.73c1.24-0.53,2.4-1.22,3.54-1.93c0.76-0.47,1.5-0.9,1.73-1.81c-0.1,0.03-0.2,0.05-0.3,0.08
				c0.39,0.48,0.59,0.3,0.14,0.84c-0.57,0.69-1.38,0.73-2.23,0.8c0.05,0.09,0.1,0.18,0.15,0.27c0.26-0.53,0.57-1.45-0.36-1.06
				c-0.69,0.29-1.31,1.07-1.85,1.56c-1.01,0.92-2.1,1.57-3.3,2.2c-2.27,1.19-4.4,2.61-6.47,4.11c-1.01,0.73-2.01,1.47-3.01,2.21
				c-0.53,0.39-1.06,0.78-1.59,1.17c-0.27,0.2-0.55,0.44-0.87,0.56c-0.23,0.18-0.49,0.2-0.78,0.05c-0.43,0.1-0.64-0.05-0.61-0.45
				c0.02-0.12,0.03-0.23,0.05-0.35c-0.81,0.1-1.18-1.36-1.09-2c0.07-0.5,0.29-0.88,0.25-1.39c-0.01-0.11-0.11-0.21-0.22-0.17
				c-2.19,0.76-1.3,3.35-0.27,4.71c1.89,2.48,4.49-0.39,6.23-1.67c2.8-2.05,5.62-4.09,8.55-5.94c1.4-0.89,2.83-1.73,4.28-2.52
				c1.53-0.83,3.16-1.5,4.57-2.53c0.07-0.05,0.13-0.16,0.06-0.24c-0.38-0.5-0.69-1.01-0.93-1.6c-0.07-0.18-0.16-0.64-0.38-0.76
				c-0.44-0.24-1,0.32-1.34,0.54c-2.31,1.45-4.69,2.8-7.13,4.03c-2.49,1.26-5.04,2.41-7.63,3.43c-2.08,0.82-4.68,1.28-6.4,2.76
				C14.1,21.05,14.35,21.3,14.52,21.15L14.52,21.15z"/>
		</g>
	</g>
	<g>
		<g>
			<path d="M17.05,17.77c2.88-1.35,5.72-2.77,8.52-4.27c1.38-0.74,2.74-1.49,4.1-2.27c0.63-0.36,1.28-0.85,1.96-1.13
				c0.37-0.29,0.8-0.31,1.29-0.07c0.12,0.21,0.22,0.42,0.3,0.65c0.16,0.38,0.31,0.76,0.47,1.14c0.09,0.21,0.43,0.12,0.34-0.09
				c-0.36-0.87-0.71-2.74-2.02-2.24c-0.77,0.29-1.52,0.88-2.24,1.29c-0.84,0.48-1.69,0.96-2.53,1.43c-3.4,1.87-6.85,3.63-10.37,5.28
				C16.67,17.56,16.85,17.87,17.05,17.77L17.05,17.77z"/>
		</g>
	</g>
	<g>
		<g>
			<path d="M16.87,19.6c-0.05-0.13,0.02-0.26,0.13-0.34c0.14-0.09,0.3-0.09,0.46-0.11c0.17-0.02,0.3-0.15,0.29-0.33
				c0-0.17-0.12-0.3-0.22-0.42c-0.11-0.12-0.21-0.25-0.27-0.4c-0.03-0.07-0.05-0.15-0.06-0.22c0-0.02,0.01-0.1,0-0.1
				c0,0-0.06,0.02-0.05,0.04c0,0,0.05,0.01,0.05,0.01c0.28,0.07,0.52,0.26,0.71,0.48c0.22,0.25,0.35,0.57,0.38,0.9
				c0.01,0.1,0.11,0.22,0.22,0.17c0.2-0.08,0.35-0.22,0.43-0.42c0.09-0.24-0.18-0.39-0.39-0.33c-0.19,0.06-0.16,0.35,0.05,0.35
				c0.18,0,0.36,0,0.54,0c0.23,0,0.23-0.35,0-0.35c-0.18,0-0.36,0-0.54,0c0.02,0.12,0.03,0.23,0.05,0.35
				c0.02-0.01,0.02-0.01-0.01-0.02c-0.01-0.05-0.01-0.09-0.02-0.14c-0.03,0.1-0.1,0.18-0.2,0.22c0.07,0.06,0.15,0.11,0.22,0.17
				c-0.05-0.74-0.53-1.39-1.21-1.67c-0.17-0.07-0.41-0.13-0.53,0.06c-0.1,0.16-0.05,0.41,0.01,0.58c0.07,0.19,0.18,0.36,0.31,0.51
				c0.06,0.07,0.13,0.13,0.17,0.21c0,0,0.01,0.03,0.02,0.04c0.02,0.01,0.02-0.03,0.02-0.03c-0.02-0.01-0.11,0.01-0.14,0.01
				c-0.23,0.03-0.47,0.1-0.62,0.28c-0.14,0.17-0.21,0.39-0.14,0.61C16.61,19.91,16.95,19.82,16.87,19.6L16.87,19.6z"/>
		</g>
	</g>
</g>
</svg>
