<?xml version="1.0" encoding="utf-8"?>
<!-- Generator: Adobe Illustrator 26.2.1, SVG Export Plug-In . SVG Version: 6.00 Build 0)  -->
<svg version="1.1" id="Layer_1" xmlns="http://www.w3.org/2000/svg" xmlns:xlink="http://www.w3.org/1999/xlink" x="0px" y="0px"
	 viewBox="0 0 56.69 56.69" style="enable-background:new 0 0 56.69 56.69;" xml:space="preserve">
<g>
	<g>
		<g>
			<path d="M25.3,43.64c-0.72,0.28-0.8,1.24-0.28,1.77c0.83,0.86,2.64,0.62,3.69,0.58c1.55-0.05,3.1-0.24,4.61-0.57
				c0.81-0.17,1.59-0.42,2.39-0.63c0.43-0.11,0.88-0.21,1.32-0.08c0.19,0.06,0.51,0.19,0.54,0.42c0.03,0.31-0.52,0.57-0.74,0.61
				c-0.22,0.04-0.13,0.39,0.09,0.34c0.41-0.08,0.75-0.31,0.92-0.7c0.19-0.42,0.02-0.64-0.36-0.87c-1.11-0.65-2.68,0.19-3.79,0.45
				c-1.6,0.38-3.23,0.6-4.86,0.66c-0.76,0.03-1.53,0.04-2.28-0.02c-0.4-0.03-0.84-0.1-1.16-0.36c-0.35-0.28-0.59-1.04,0.01-1.27
				C25.6,43.9,25.51,43.56,25.3,43.64L25.3,43.64z"/>
		</g>
	</g>
	<g>
		<g>
			<g>
				<path d="M23.11,47.7c-0.29,0.59-0.63,1.32-0.38,1.98c0.26,0.68,1.12,0.94,1.75,1.13c2.04,0.6,4.05,0.07,6.12,0.16
					c1.92,0.08,3.93,0.05,5.55-1.15c1.01-0.75,1.49-2.31,1.29-3.53c-0.03-0.2-0.35-0.15-0.35,0.05c0.01,0.6,0.01,1.2,0.02,1.8
					c0,0.23,0.36,0.23,0.35,0c-0.01-0.6-0.01-1.2-0.02-1.8c-0.12,0.02-0.23,0.03-0.35,0.05c0.2,1.24-0.38,2.68-1.44,3.34
					c-1.45,0.91-3.13,0.99-4.79,0.91c-1.49-0.08-2.95,0.21-4.43,0.13c-0.75-0.04-1.49-0.16-2.2-0.41c-0.56-0.2-1.2-0.47-1.24-1.15
					c-0.02-0.46,0.22-0.94,0.41-1.33C23.52,47.68,23.21,47.5,23.11,47.7L23.11,47.7z"/>
			</g>
		</g>
		<g>
			<g>
				<path d="M22.13,49c-0.04,0.04-0.07,0.07-0.11,0.11c-0.02,0.02-0.03,0.04-0.04,0.06c-0.01,0.02-0.02,0.04-0.02,0.07
					c0,0.02,0,0.05,0.02,0.07c0.01,0.02,0.02,0.04,0.04,0.06c0.03,0.03,0.08,0.05,0.13,0.05c0.05,0,0.09-0.02,0.13-0.05
					c0.04-0.04,0.07-0.07,0.11-0.11c0.02-0.02,0.03-0.04,0.04-0.06c0.01-0.02,0.02-0.04,0.02-0.07c0-0.02,0-0.05-0.02-0.07
					c-0.01-0.02-0.02-0.04-0.04-0.06c-0.03-0.03-0.08-0.05-0.13-0.05C22.21,48.95,22.17,48.97,22.13,49L22.13,49z"/>
			</g>
		</g>
		<g>
			<g>
				<path d="M35.56,44.36c1.22-0.27,2.52,0.01,3.52,0.74c0.05,0.03,0.13,0.03,0.18,0c0.31-0.21,0.33-0.61,0.13-0.9
					c-0.23-0.33-0.64-0.56-0.99-0.73c-0.78-0.38-1.65-0.53-2.51-0.44c-0.13,0.01-0.26,0.19-0.13,0.3c0.08,0.07,0.16,0.13,0.24,0.2
					c0.18,0.14,0.43-0.11,0.25-0.25c-0.08-0.07-0.16-0.13-0.24-0.2c-0.04,0.1-0.08,0.2-0.13,0.3c0.66-0.07,1.33,0,1.96,0.23
					c0.3,0.11,0.6,0.26,0.87,0.44c0.17,0.11,0.69,0.51,0.36,0.74c0.06,0,0.12,0,0.18,0c-1.08-0.79-2.49-1.07-3.8-0.78
					C35.24,44.07,35.33,44.41,35.56,44.36L35.56,44.36z"/>
			</g>
		</g>
		<g>
			<g>
				<path d="M19.34,46.74c0.08-0.53,0.76-0.88,1.17-1.14c0.5-0.32,1.03-0.59,1.59-0.81c0.52-0.21,1.05-0.37,1.59-0.48
					c0.29-0.06,0.59-0.11,0.88-0.15c0.17-0.02,1.13-0.18,0.99,0.26c-0.07,0.22,0.27,0.31,0.34,0.09c0.44-1.4-2.99-0.39-3.48-0.22
					c-0.71,0.25-1.4,0.57-2.04,0.97C19.88,45.58,19.1,46,19,46.65C18.96,46.87,19.3,46.96,19.34,46.74L19.34,46.74z"/>
			</g>
		</g>
		<g>
			<g>
				<path d="M17.65,43c-0.12,0.26-0.36,0.43-0.49,0.68c-0.13,0.25-0.17,0.57,0.03,0.8c0.1,0.11,0.23,0.17,0.35,0.24
					c0.11,0.07,0.21,0.15,0.3,0.25c0.18,0.2,0.29,0.45,0.34,0.71c0.04,0.22,0.38,0.13,0.34-0.09c-0.09-0.5-0.41-0.95-0.85-1.2
					c-0.1-0.06-0.22-0.11-0.26-0.22c-0.03-0.11,0.02-0.24,0.08-0.34c0.13-0.23,0.35-0.4,0.47-0.64C18.05,42.97,17.75,42.79,17.65,43
					L17.65,43z"/>
			</g>
		</g>
		<g>
			<g>
				<path d="M17.12,50.97c-0.49,0.22-0.68,0.75-0.43,1.25c0.35,0.69,1.38,0.87,2.04,1.06c2.76,0.8,5.64,1.13,8.51,1.05
					c2.79-0.07,5.6-0.52,8.27-1.3c2.25-0.66,4.59-1.7,5.78-3.83c0.04-0.07,0.03-0.16-0.03-0.21c-0.4-0.36-0.83-0.36-1.29-0.09
					c-0.47,0.28-0.81,0.75-1.26,1.05c-0.59,0.4-1.28,0.66-1.94,0.92c-2.66,1.04-5.49,1.72-8.35,1.91c-1.29,0.08-2.58,0.07-3.86-0.05
					c-0.77-0.07-1.53-0.19-2.29-0.35c-0.62-0.13-1.7-0.24-2.19-0.66c-0.57-0.49-0.81-1.33-0.61-2.03c0.1-0.37,0.27-0.73,0.44-1.08
					c0.28-0.55,0.67-1.05,1.1-1.49c1.09-1.09,2.47-1.66,3.99-1.81c0.22-0.02,0.23-0.38,0-0.35c-2.71,0.26-5.54,2.18-5.98,5.06
					c-0.21,1.38,0.67,2.03,1.89,2.39c1.86,0.54,3.85,0.76,5.79,0.77c3.83,0.02,7.85-0.82,11.32-2.46c0.74-0.35,1.51-1.19,2.27-1.3
					c0.82-0.12,0.43,0.09,0.09,0.5c-0.16,0.19-0.34,0.37-0.52,0.54c-0.45,0.42-0.98,0.76-1.51,1.06c-1.88,1.04-4.05,1.53-6.15,1.93
					c-2.5,0.48-5.07,0.65-7.61,0.49c-1.3-0.08-2.59-0.25-3.86-0.52c-0.57-0.12-1.14-0.26-1.7-0.42c-0.21-0.06-0.42-0.12-0.63-0.18
					c-0.24-0.06-0.48-0.15-0.7-0.25c-0.54-0.13-0.68-0.56-0.41-1.29C17.51,51.19,17.33,50.88,17.12,50.97L17.12,50.97z"/>
			</g>
		</g>
		<g>
			<g>
				<path d="M19.01,43.25c-0.5,1.24-0.32,2.59-0.04,3.86c0.12,0.56,1.1,3.83,0.02,3.85c-0.23,0.01-0.23,0.36,0,0.35
					c1.3-0.03,0.75-2.32,0.61-3.03c-0.34-1.63-0.89-3.33-0.24-4.95C19.43,43.13,19.09,43.04,19.01,43.25L19.01,43.25z"/>
			</g>
		</g>
		<g>
			<g>
				<path d="M17.45,43.19c0.17,1.4,0.34,2.8,0.51,4.2c0.08,0.67,0.19,1.35,0.24,2.03c0.02,0.33,0.03,0.7-0.15,0.99
					c-0.18,0.28-0.54,0.48-0.86,0.32c-0.2-0.1-0.38,0.2-0.18,0.31c0.46,0.23,0.98,0.05,1.28-0.36c0.43-0.59,0.25-1.42,0.17-2.09
					c-0.22-1.8-0.44-3.6-0.66-5.4C17.77,42.97,17.42,42.97,17.45,43.19L17.45,43.19z"/>
			</g>
		</g>
		<g>
			<g>
				<path d="M29.78,4.35c2.08-0.1,4.29-0.11,6.29,0.55c0.21,0.07,0.49,0.17,0.6,0.39c0.13,0.26-0.01,0.6-0.08,0.85
					c-0.07,0.24-0.13,0.49-0.2,0.73c-0.06,0.21-0.1,0.68-0.32,0.79c-0.18,0.09-0.56,0.02-0.76,0.03c-0.27,0-0.54,0-0.81,0.01
					c-0.32,0-1.74,0.18-1.56-0.45c-0.09,0.04-0.17,0.07-0.26,0.11c0.94,0.7,2.13,0.95,3.28,0.71c0.22-0.05,0.13-0.39-0.09-0.34
					c-1.06,0.22-2.14-0.03-3-0.67c-0.09-0.07-0.23,0.01-0.26,0.11c-0.3,1.04,1.27,0.9,1.84,0.9c0.53,0,1.1,0.06,1.62-0.03
					c0.41-0.06,0.49-0.37,0.59-0.73c0.14-0.53,0.35-1.08,0.42-1.62c0.05-0.37-0.09-0.69-0.41-0.9c-0.39-0.26-0.91-0.35-1.36-0.45
					c-0.52-0.11-1.04-0.2-1.56-0.26C32.42,3.92,31.1,3.93,29.78,4C29.55,4.01,29.55,4.36,29.78,4.35L29.78,4.35z"/>
			</g>
		</g>
		<g>
			<g>
				<path d="M24.2,46.87c-0.67,0.38-1.27,0.98-1.2,1.81c0.08,0.91,0.83,1.14,1.6,1.36c1.62,0.46,3.31,0.92,5.01,0.91
					c1.38-0.01,2.67-0.42,3.86-1.1c0.74-0.42,1.43-0.93,2.1-1.46c0.41-0.33,0.82-0.66,1.22-1c0.24-0.21,0.7-0.47,0.73-0.83
					c0.05-0.67-1.26-1.23-1.79-1.18c-0.63,0.06-1.08,0.7-0.79,1.28c0.1,0.2,0.41,0.02,0.31-0.18c-0.42-0.82,1.13-0.84,1.53-0.35
					c0.08,0.2,0.15,0.4,0.23,0.6c-0.12,0.11-0.25,0.22-0.37,0.33c-0.15,0.13-0.3,0.26-0.45,0.38c-0.64,0.54-1.3,1.07-2,1.54
					c-1.01,0.69-2.12,1.27-3.33,1.49c-1.25,0.23-2.53,0.08-3.77-0.18c-0.73-0.15-1.44-0.34-2.16-0.54
					c-0.56-0.15-1.39-0.29-1.53-0.96c-0.16-0.75,0.43-1.29,1.01-1.62C24.58,47.06,24.4,46.75,24.2,46.87L24.2,46.87z"/>
			</g>
		</g>
		<g>
			<g>
				<path d="M34.04,41.58c0.41,0.65,1.05,1.32,1.87,0.89c0.37-0.2,0.64-0.54,0.99-0.77c0.4-0.26,0.87-0.39,1.35-0.37
					c0.23,0.01,0.23-0.35,0-0.35c-0.4-0.01-0.79,0.06-1.15,0.22c-0.37,0.16-0.66,0.42-0.97,0.68c-0.28,0.24-0.62,0.48-1,0.33
					c-0.35-0.14-0.59-0.5-0.78-0.81C34.23,41.21,33.92,41.39,34.04,41.58L34.04,41.58z"/>
			</g>
		</g>
		<g>
			<g>
				<path d="M33.83,41.21c-0.13,0.51-0.49,0.94-0.98,1.13c-0.13,0.05-0.17,0.19-0.08,0.3c1.03,1.11,2.8,1.43,3.97,0.34
					c0.47-0.44,0.82-1.14,0.64-1.79c-0.07-0.26-0.24-0.52-0.5-0.62c-0.3-0.12-0.6,0-0.83,0.2c-0.29,0.24-0.5,0.58-0.91,0.63
					c-0.37,0.04-0.75-0.13-0.94-0.46c-0.04-0.07-0.12-0.09-0.2-0.08c-0.25,0.04-0.37,0.31-0.33,0.54c0.06,0.3,0.36,0.43,0.62,0.52
					c0.22,0.08,0.31-0.27,0.09-0.34c-0.11-0.04-0.26-0.08-0.33-0.18c-0.05-0.07-0.07-0.18,0.03-0.2c-0.07-0.03-0.13-0.05-0.2-0.08
					c0.27,0.47,0.84,0.71,1.37,0.62c0.29-0.05,0.51-0.21,0.72-0.41c0.18-0.18,0.42-0.5,0.71-0.44c0.28,0.05,0.37,0.41,0.38,0.65
					c0.01,0.31-0.12,0.61-0.3,0.86c-0.36,0.52-0.97,0.87-1.61,0.91c-0.82,0.05-1.6-0.33-2.15-0.92c-0.03,0.1-0.05,0.2-0.08,0.3
					c0.61-0.23,1.07-0.74,1.23-1.38C34.23,41.08,33.88,40.99,33.83,41.21L33.83,41.21z"/>
			</g>
		</g>
		<g>
			<g>
				<path d="M32.67,40.04c0.18,0.72,0.49,1.38,0.95,1.96c0.57,0.71,1.29,1.22,1.54,2.15c0.22,0.82,0.29,1.86,0.02,2.66
					c-0.08,0.23-0.16,0.47-0.25,0.7c-0.16,0.42-0.5,0.59-0.88,0.79c-1.56,0.8-3.4,0.92-5.11,1.1c-1.5,0.17-3.3-0.01-4.24-1.35
					c-0.02,0.08-0.04,0.16-0.06,0.24c0.15-0.07,0.31-0.15,0.46-0.22c0.21-0.1,0.03-0.41-0.18-0.31c-0.15,0.07-0.31,0.15-0.46,0.22
					c-0.08,0.04-0.12,0.17-0.06,0.24c0.7,0.99,1.81,1.43,2.99,1.54c1.41,0.14,2.94-0.14,4.33-0.39c0.71-0.12,1.42-0.3,2.09-0.59
					c0.48-0.21,1.12-0.45,1.37-0.94c0.57-1.12,0.64-2.32,0.4-3.54c-0.16-0.78-0.56-1.37-1.1-1.93c-0.69-0.71-1.2-1.46-1.45-2.44
					C32.96,39.72,32.62,39.82,32.67,40.04L32.67,40.04z"/>
			</g>
		</g>
		<g>
			<g>
				<path d="M28.15,39.42c-0.11,0.38-0.01,0.74,0.13,1.1c0.17,0.45,0.46,1.02-0.05,1.36c-0.35,0.23-0.83,0.25-1.21,0.43
					c-0.42,0.19-0.79,0.5-1.08,0.86c-0.64,0.78-0.92,1.75-1.03,2.73c-0.03,0.31-0.05,0.62-0.07,0.93c-0.01,0.26-0.08,0.63-0.01,0.89
					c0.06,0.23,0.29,0.37,0.47,0.16c0.04-0.04,0.07-0.11,0.05-0.17c-0.01-0.02-0.01-0.03-0.02-0.05c-0.08-0.21-0.43-0.12-0.34,0.09
					c0.01,0.02,0.01,0.03,0.02,0.05c0.02-0.06,0.03-0.11,0.05-0.17c0,0,0.01,0,0.01,0c0.05,0.03,0.1,0.06,0.15,0.09
					c-0.12-0.17-0.04-0.54-0.03-0.73c0.01-0.26,0.02-0.52,0.04-0.78c0.05-0.55,0.13-1.1,0.31-1.62c0.31-0.88,0.93-1.73,1.84-2.05
					c0.56-0.2,1.33-0.27,1.47-0.97c0.15-0.72-0.58-1.34-0.37-2.05C28.56,39.29,28.22,39.2,28.15,39.42L28.15,39.42z"/>
			</g>
		</g>
		<g>
			<g>
				<path d="M29.13,39.93c-0.23-0.1-0.68-0.23-0.91-0.05c-0.2,0.16-0.17,0.53-0.09,0.73c0.24,0.69,1.02,0.81,1.66,0.87
					c0.87,0.09,1.75,0.1,2.62,0.06c0.45-0.02,1.31-0.1,1.24-0.75c-0.03-0.3-0.29-0.46-0.56-0.54c-0.42-0.12-0.89-0.13-1.32-0.17
					c-0.2-0.02-0.23,0.29-0.05,0.35c0.18,0.05,0.36,0.11,0.55,0.16c0.22,0.06,0.31-0.28,0.09-0.34c-0.18-0.05-0.36-0.11-0.55-0.16
					c-0.02,0.12-0.03,0.23-0.05,0.35c0.36,0.04,0.72,0.06,1.07,0.13c0.18,0.03,0.64,0.18,0.39,0.43c-0.18,0.19-0.54,0.18-0.77,0.19
					c-0.36,0.02-0.73,0.03-1.09,0.03c-0.69,0-1.42-0.01-2.1-0.15c-0.31-0.06-0.63-0.19-0.77-0.49c-0.04-0.08-0.12-0.3-0.05-0.38
					c0.09-0.1,0.4,0,0.5,0.04C29.16,40.33,29.34,40.02,29.13,39.93L29.13,39.93z"/>
			</g>
		</g>
		<g>
			<g>
				<path d="M29.3,38.83c0.21,0.65,0.2,1.35-0.02,2c-0.07,0.22,0.27,0.31,0.34,0.09c0.24-0.71,0.24-1.48,0.02-2.19
					C29.57,38.52,29.23,38.61,29.3,38.83L29.3,38.83z"/>
			</g>
		</g>
		<g>
			<g>
				<path d="M31.23,40c-0.33-0.84-0.01-1.78,0.76-2.24c0.61-0.37,1.37-0.72,1.24-1.57c-0.12-0.77-0.89-1.19-1.63-1.08
					c-0.25,0.04-0.49,0.14-0.74,0.16c-0.34,0.03-0.52-0.15-0.71-0.39c-0.35-0.43-0.74-0.97-0.57-1.55
					c-0.12-0.02-0.23-0.03-0.35-0.05c0.04,0.73,0.11,1.49,0.4,2.17c0.14,0.32,0.33,0.62,0.59,0.87c0.14,0.13,0.34,0.25,0.39,0.45
					c0.06,0.24-0.09,0.5-0.22,0.69C30,38,29.47,38.57,29.97,39.24c0.49,0.65,1.35,0.59,2.07,0.57c0.23,0,0.23-0.36,0-0.35
					c-0.41,0.01-0.85,0.05-1.25-0.07c-0.35-0.11-0.72-0.42-0.66-0.82c0.09-0.67,0.89-1.02,0.85-1.76c-0.02-0.28-0.19-0.47-0.39-0.64
					c-0.25-0.22-0.45-0.48-0.59-0.79c-0.31-0.65-0.37-1.39-0.41-2.1c-0.01-0.2-0.29-0.25-0.35-0.05c-0.12,0.44-0.01,0.85,0.2,1.24
					c0.2,0.35,0.49,0.81,0.85,1.03c0.38,0.23,0.79,0.08,1.19-0.01c0.53-0.12,1.18,0.01,1.37,0.6c0.31,0.98-1.12,1.25-1.6,1.83
					c-0.5,0.6-0.64,1.45-0.36,2.17C30.97,40.3,31.31,40.21,31.23,40L31.23,40z"/>
			</g>
		</g>
		<g>
			<g>
				<path d="M32.03,37.99c-0.61-0.17-1.25-0.25-1.88-0.23c-0.25,0.01-0.54,0-0.75,0.17c-0.19,0.16-0.21,0.42-0.09,0.63
					c0.15,0.25,0.44,0.33,0.7,0.4c0.3,0.08,0.61,0.15,0.92,0.19c0.46,0.07,1.11,0.21,1.51-0.12c0.1-0.08,0.19-0.2,0.2-0.33
					c0-0.16-0.11-0.26-0.23-0.34c-0.26-0.19-0.57-0.31-0.88-0.38c-0.22-0.05-0.32,0.29-0.09,0.34c0.27,0.06,0.53,0.16,0.76,0.32
					c0.06,0.04,0.1,0.04,0.06,0.1c-0.02,0.04-0.08,0.07-0.12,0.09c-0.08,0.04-0.18,0.05-0.27,0.06c-0.27,0.02-0.55-0.02-0.81-0.06
					c-0.28-0.04-0.56-0.1-0.84-0.17c-0.18-0.05-0.59-0.1-0.62-0.34c-0.03-0.22,0.47-0.19,0.59-0.19c0.59-0.01,1.18,0.06,1.76,0.22
					C32.16,38.39,32.25,38.05,32.03,37.99L32.03,37.99z"/>
			</g>
		</g>
		<g>
			<g>
				<path d="M25.56,6.5c-0.47-0.22-0.99-0.11-1.32,0.29c-0.44,0.52-0.4,1.29-0.28,1.91c0.12,0.62,0.35,1.2,0.47,1.82
					c0.11,0.59,0.17,1.18,0.23,1.78c0.12,1.19,0.21,2.39,0.32,3.58c0.04,0.46,0.04,1.03,0.31,1.42c0.34,0.48,0.98,0.54,1.52,0.56
					c0.23,0.01,0.23-0.34,0-0.35c-0.31-0.01-0.64-0.03-0.92-0.17c-0.41-0.21-0.46-0.58-0.51-0.99c-0.04-0.31-0.06-0.63-0.09-0.94
					c-0.08-0.95-0.16-1.89-0.25-2.84c-0.08-0.79-0.15-1.59-0.31-2.36c-0.1-0.48-0.28-0.94-0.39-1.42c-0.08-0.34-0.13-0.71-0.1-1.06
					c0.06-0.54,0.5-1.24,1.14-0.93C25.59,6.91,25.77,6.6,25.56,6.5L25.56,6.5z"/>
			</g>
		</g>
		<g>
			<g>
				<path d="M28.96,26.42c-0.03,0.51-0.3,1.02-0.73,1.31c-0.46,0.32-1.04,0.4-1.56,0.23c-0.12-0.04-0.26,0.09-0.22,0.22
					c0.17,0.5,0.54,0.9,1.03,1.1c0.52,0.21,1.14,0.14,1.61-0.16c0.19-0.12,0.01-0.43-0.18-0.31c-0.77,0.49-1.82,0.15-2.12-0.72
					c-0.07,0.07-0.15,0.15-0.22,0.22c0.62,0.2,1.34,0.1,1.87-0.29c0.51-0.38,0.83-0.96,0.87-1.6
					C29.33,26.19,28.97,26.19,28.96,26.42L28.96,26.42z"/>
			</g>
		</g>
		<g>
			<g>
				<path d="M26.39,31.7c-0.3,0.49-0.51,1.02-0.65,1.58c-0.04,0.17,0.17,0.3,0.3,0.17c0.26-0.25,0.51-0.51,0.77-0.76
					c-0.09-0.07-0.19-0.14-0.28-0.21c-0.19,0.33-0.29,0.7-0.3,1.08c0,0.14,0.15,0.22,0.27,0.15c0.32-0.18,0.62-0.39,0.88-0.64
					c-0.09-0.07-0.19-0.14-0.28-0.21c-0.23,0.48-0.23,1.05,0.05,1.51c0.26,0.43,0.72,0.69,1.22,0.74c0.23,0.02,0.23-0.33,0-0.35
					c-0.82-0.08-1.32-0.97-0.96-1.71c0.09-0.18-0.13-0.36-0.28-0.21c-0.25,0.23-0.52,0.42-0.81,0.59c0.09,0.05,0.18,0.1,0.27,0.15
					c0.01-0.32,0.1-0.62,0.25-0.9c0.1-0.17-0.13-0.36-0.28-0.21c-0.26,0.25-0.51,0.51-0.77,0.76c0.1,0.06,0.2,0.11,0.3,0.17
					c0.13-0.53,0.33-1.03,0.61-1.5C26.81,31.69,26.51,31.51,26.39,31.7L26.39,31.7z"/>
			</g>
		</g>
		<g>
			<g>
				<path d="M27.88,28.41c-1.13,1.41-1.91,3.35-1.54,5.18c0.3,1.46,1.42,2.68,2.8,3.18c1.56,0.57,3.39,0.18,4.65-0.88
					c1.28-1.08,1.96-2.82,1.81-4.47c-0.16-1.84-1.4-3.56-3.35-3.69c-0.23-0.02-0.23,0.34,0,0.35c1.67,0.11,2.77,1.58,2.97,3.14
					c0.2,1.49-0.31,3.06-1.37,4.13c-1.05,1.05-2.64,1.55-4.1,1.23c-1.35-0.3-2.52-1.33-2.96-2.65c-0.59-1.79,0.2-3.86,1.33-5.27
					C28.27,28.48,28.02,28.23,27.88,28.41L27.88,28.41z"/>
			</g>
		</g>
		<g>
			<g>
				<path d="M30.96,17.74c-0.43,0.44-0.95,1.1-0.56,1.72c0.26,0.41,0.77,0.56,0.91,1.08c0.16,0.63-0.05,1.32-0.25,1.92
					c0.11-0.01,0.22-0.03,0.32-0.04c-0.43-1.01-0.43-2.05-0.03-3.07c-0.12-0.02-0.23-0.03-0.35-0.05c0.04,2.58,0.04,5.16-0.01,7.74
					c0.06-0.06,0.12-0.12,0.18-0.18c-1.15,0.14-0.81,1.53-0.82,2.35c0,0.77-0.07,1.54-0.2,2.3c-0.09,0.54-0.32,1.13-0.24,1.69
					c0.26,1.81,2.94,1.31,2.59-0.51c-0.02-0.08-0.1-0.13-0.17-0.13c-0.16-0.01-0.32-0.01-0.48-0.02c-0.1,0-0.17,0.09-0.18,0.18
					c-0.11,1.29,1.38,1.93,2.24,0.95c0.15-0.17-0.1-0.42-0.25-0.25c-0.64,0.72-1.71,0.24-1.63-0.7c-0.06,0.06-0.12,0.12-0.18,0.18
					c0.63,0.03,0.21,0.69-0.08,0.9c-0.47,0.35-0.91,0.27-1.27-0.19c-0.49-0.63-0.07-1.56,0.04-2.29c0.08-0.5,0.13-1.01,0.15-1.51
					c0.02-0.52-0.26-2.49,0.47-2.58c0.1-0.01,0.18-0.07,0.18-0.18c0.05-2.58,0.05-5.16,0.01-7.74c0-0.21-0.28-0.23-0.35-0.05
					c-0.45,1.12-0.41,2.24,0.06,3.34c0.06,0.15,0.28,0.09,0.32-0.04c0.22-0.69,0.45-1.49,0.21-2.2c-0.09-0.29-0.26-0.46-0.44-0.69
					c-0.24-0.3-0.62-0.08-0.54-0.82c0.04-0.32,0.37-0.64,0.58-0.85C31.37,17.83,31.12,17.58,30.96,17.74L30.96,17.74z"/>
			</g>
		</g>
		<g>
			<g>
				<path d="M33.65,17.75c-1.32-0.38-2.72-0.6-4.09-0.52c-0.59,0.03-1.19,0.14-1.74,0.38c-0.35,0.15-0.99,0.43-0.78,0.91
					c0.2,0.47,0.81,0.66,1.25,0.79c0.62,0.18,1.27,0.28,1.91,0.32c0.65,0.03,1.3-0.01,1.94-0.12c0.62-0.11,1.32-0.25,1.88-0.55
					c0.49-0.27,0.28-0.86-0.15-1.05c-0.64-0.29-1.5-0.27-2.18-0.2c-0.23,0.02-0.23,0.38,0,0.35c0.35-0.03,0.69-0.04,1.04-0.01
					c0.32,0.03,0.75,0.05,1.04,0.21c0.22,0.12,0.14,0.37-0.07,0.46c-0.15,0.06-0.31,0.11-0.46,0.16c-0.31,0.1-0.63,0.18-0.95,0.25
					c-1.25,0.25-2.56,0.21-3.79-0.12c-0.29-0.08-0.6-0.16-0.86-0.34c-0.15-0.1-0.33-0.23-0.18-0.46c0.06-0.09,0.29-0.18,0.39-0.22
					c0.55-0.27,1.16-0.37,1.77-0.4c1.33-0.07,2.67,0.15,3.94,0.51C33.77,18.15,33.87,17.81,33.65,17.75L33.65,17.75z"/>
			</g>
		</g>
		<g>
			<g>
				<path d="M16.23,41.51c0.16,0.93,0.86,1.64,1.77,1.88c0.79,0.21,1.78,0.23,2.28-0.53c0.11-0.17-0.15-0.37-0.28-0.21
					c-0.3,0.34-0.66,0.62-1.1,0.76c-0.17,0.05-0.45,0.14-0.52-0.09c-0.08-0.24,0.08-0.48,0.2-0.67c0.12-0.19-0.18-0.37-0.31-0.18
					c-0.17,0.27-0.32,0.56-0.25,0.89c0.06,0.3,0.31,0.48,0.61,0.46c0.63-0.03,1.22-0.46,1.62-0.92c-0.09-0.07-0.19-0.14-0.28-0.21
					c-0.42,0.62-1.32,0.53-1.94,0.35c-0.77-0.22-1.32-0.83-1.46-1.62C16.53,41.19,16.19,41.28,16.23,41.51L16.23,41.51z"/>
			</g>
		</g>
		<g>
			<g>
				<path d="M16.21,32.12c-0.45,1.03-0.83,2.21-0.84,3.35c-0.01,0.65,0.42,1.82,1.27,1.34c-0.09-0.07-0.17-0.13-0.26-0.2
					c-0.13,0.51-0.31,0.99-0.57,1.45c-0.05,0.09-0.01,0.18,0.06,0.24c0.22,0.17,0.38,0.05,0.61,0.11c0.38,0.1,0.28,0.92,0.34,1.24
					c0.18,0.87,0.56,1.7,0.87,2.52c0.08,0.21,0.42,0.12,0.34-0.09c-0.38-0.99-0.89-2.02-0.94-3.09c-0.01-0.27,0.05-0.62-0.19-0.82
					c-0.26-0.22-0.6,0.03-0.86-0.17c0.02,0.08,0.04,0.16,0.06,0.24c0.27-0.49,0.47-0.99,0.6-1.53c0.04-0.15-0.12-0.28-0.26-0.2
					c-0.62,0.35-0.75-0.81-0.74-1.12c0.01-0.36,0.08-0.72,0.15-1.08c0.14-0.69,0.36-1.36,0.64-2.01
					C16.61,32.09,16.3,31.91,16.21,32.12L16.21,32.12z"/>
			</g>
		</g>
		<g>
			<g>
				<path d="M17.02,26.89c-0.71,2.71-1.05,5.5-1.01,8.3c0.02,1.38,0.13,2.77,0.33,4.14c0.18,1.2,0.29,2.72,0.89,3.8
					c0.45,0.82,1.17,0.68,1.96,0.46c1.07-0.3,1.51-0.42,1.84-1.52c0.79-2.67,1.13-5.48,1.18-8.26c0.03-1.63-0.04-3.27-0.21-4.9
					c-0.08-0.71-0.2-2.73-1.14-2.88c-0.22-0.04-0.32,0.31-0.09,0.34c0.67,0.11,0.82,2.02,0.88,2.53c0.08,0.73,0.13,1.46,0.17,2.2
					c0.07,1.38,0.07,2.75-0.01,4.13c-0.08,1.45-0.25,2.9-0.53,4.33c-0.14,0.71-0.31,1.42-0.5,2.12c-0.08,0.27-0.16,0.73-0.31,0.96
					c-0.25,0.37-0.83,0.46-1.23,0.57c-0.52,0.15-1.15,0.44-1.63-0.15c-0.19-0.23-0.26-0.63-0.33-0.91c-0.19-0.7-0.33-1.42-0.45-2.14
					c-0.25-1.44-0.39-2.89-0.43-4.34c-0.08-2.93,0.25-5.85,0.99-8.68C17.42,26.76,17.08,26.67,17.02,26.89L17.02,26.89z"/>
			</g>
		</g>
		<g>
			<g>
				<path d="M18.42,25.86c-0.51,0.18-1.08,0.41-1.23,0.99c-0.15,0.57,0.26,0.97,0.79,1.05c0.6,0.09,1.28,0.08,1.86-0.1
					c0.49-0.15,1.06-0.47,1.27-0.97c0.34-0.8-0.83-0.87-1.33-0.83c-0.23,0.02-0.23,0.37,0,0.35c0.29-0.02,0.63-0.03,0.9,0.08
					c0.32,0.13-0.05,0.49-0.19,0.62c-0.42,0.37-0.99,0.51-1.53,0.54c-0.28,0.01-0.58,0.01-0.86-0.02c-0.22-0.03-0.5-0.09-0.57-0.33
					c-0.07-0.22,0.05-0.48,0.21-0.63c0.21-0.2,0.5-0.3,0.77-0.39C18.73,26.13,18.64,25.79,18.42,25.86L18.42,25.86z"/>
			</g>
		</g>
		<g>
			<g>
				<path d="M18.23,26.62c0.28,0.42,0.75,0.62,1.24,0.69c0.48,0.06,1.12-0.08,1.21-0.65c-0.06,0.04-0.11,0.09-0.17,0.13
					c0.17,0,0.33,0.04,0.47,0.14c0.19,0.13,0.37-0.18,0.18-0.31c-0.19-0.13-0.42-0.19-0.65-0.19c-0.07,0-0.16,0.05-0.17,0.13
					c-0.06,0.43-0.56,0.45-0.9,0.39c-0.34-0.06-0.7-0.2-0.89-0.51C18.41,26.25,18.1,26.43,18.23,26.62L18.23,26.62z"/>
			</g>
		</g>
		<g>
			<g>
				<path d="M22.05,22.56c-0.47-0.05-1-0.08-1.41,0.2c-0.38,0.26-0.56,0.71-0.64,1.14c-0.1,0.56-0.11,1.14-0.14,1.7
					c-0.02,0.31-0.04,0.63-0.09,0.94c-0.02,0.12-0.06,0.23,0.02,0.33c0.07,0.09,0.18,0.13,0.28,0.16c0.22,0.05,0.32-0.29,0.09-0.34
					c-0.05,0-0.09-0.02-0.13-0.07c0.02,0.06,0.03,0.11,0.05,0.17c0.17-0.92,0.08-1.88,0.25-2.8c0.07-0.35,0.19-0.74,0.51-0.95
					c0.35-0.23,0.81-0.18,1.2-0.14C22.27,22.93,22.27,22.58,22.05,22.56L22.05,22.56z"/>
			</g>
		</g>
		<g>
			<g>
				<path d="M22.45,21.8c-1.06-0.45-2.39-0.3-3.04,0.74c-0.34,0.54-0.36,1.2-0.4,1.82c-0.05,0.75-0.1,1.5-0.15,2.25
					c-0.02,0.23,0.34,0.23,0.35,0c0.04-0.61,0.08-1.21,0.12-1.82c0.04-0.58,0.02-1.21,0.22-1.76c0.41-1.1,1.73-1.35,2.71-0.92
					C22.48,22.2,22.66,21.89,22.45,21.8L22.45,21.8z"/>
			</g>
		</g>
		<g>
			<g>
				<path d="M23.96,21.92c0.07-0.43,0.16-1.15-0.28-1.44c-0.23-0.15-0.43,0.03-0.55,0.22c-0.16,0.26-0.29,0.53-0.41,0.81
					c-0.23,0.55-0.37,1.12-0.43,1.71c-0.03,0.27-0.08,0.59,0.01,0.86c0.07,0.21,0.26,0.39,0.5,0.37c0.28-0.03,0.43-0.37,0.52-0.6
					c0.08-0.22,0.08-0.84,0.43-0.79c0.23,0.03,0.22-0.32,0-0.35c-0.62-0.08-0.62,0.71-0.78,1.09c-0.03,0.08-0.12,0.31-0.23,0.3
					c-0.13-0.02-0.11-0.28-0.11-0.36c0-0.29,0.03-0.58,0.08-0.87c0.1-0.57,0.29-1.13,0.55-1.64c0.06-0.12,0.14-0.24,0.2-0.36
					c0.05-0.1,0.06-0.07,0.11,0.02c0.03,0.05,0.05,0.1,0.06,0.16c0.07,0.26,0.03,0.54-0.01,0.8C23.59,22.05,23.93,22.14,23.96,21.92
					L23.96,21.92z"/>
			</g>
		</g>
		<g>
			<g>
				<path d="M24.91,22.2c-0.44,0.15-0.95,0.05-1.29-0.27c-0.09-0.09-0.27-0.06-0.3,0.08c-0.06,0.29-0.11,0.59-0.17,0.88
					c-0.02,0.13-0.04,0.28,0.06,0.38c0.1,0.1,0.25,0.11,0.38,0.12c0.28,0.03,0.57,0.02,0.85-0.03c0.14-0.03,0.27-0.07,0.41-0.1
					c0.05-0.01,0.19-0.04,0.22,0.03c0.04,0.09,0.12,0.15,0.22,0.12c0.08-0.02,0.16-0.13,0.12-0.22c-0.1-0.26-0.36-0.34-0.62-0.28
					c-0.13,0.02-0.25,0.07-0.37,0.1c-0.13,0.03-0.26,0.05-0.4,0.05c-0.13,0.01-0.26,0-0.39-0.01c-0.02,0-0.15-0.04-0.17-0.03
					c-0.02-0.01-0.01,0.01,0.02,0.04c0-0.01,0-0.02,0-0.03c0.01-0.02,0.01-0.06,0.02-0.08c0.05-0.28,0.11-0.56,0.16-0.84
					c-0.1,0.03-0.2,0.05-0.3,0.08c0.43,0.41,1.07,0.56,1.64,0.36C25.22,22.47,25.13,22.13,24.91,22.2L24.91,22.2z"/>
			</g>
		</g>
		<g>
			<g>
				<path d="M27.04,22.27c-0.4-0.09-0.82-0.14-1.23-0.15c-0.2,0-0.24,0.29-0.05,0.35c0.06,0.02,0.13,0.04,0.19,0.05
					c0.09,0.02,0.2-0.03,0.22-0.12c0.02-0.09-0.03-0.19-0.12-0.22c-0.06-0.02-0.13-0.04-0.19-0.05c-0.02,0.12-0.03,0.23-0.05,0.35
					c0.39,0.01,0.76,0.05,1.14,0.14c0.09,0.02,0.2-0.03,0.22-0.12C27.18,22.4,27.13,22.29,27.04,22.27L27.04,22.27z"/>
			</g>
		</g>
		<g>
			<g>
				<path d="M26.38,22.04c-0.28,0.01-0.56,0.02-0.83,0.03c-0.14,0-0.28,0.01-0.42,0.01c-0.11,0-0.22,0.01-0.3,0.09
					c-0.15,0.14-0.13,0.45-0.14,0.64c0,0.22-0.01,0.49,0.21,0.63c0.2,0.13,0.49,0.15,0.71,0.19c0.24,0.04,0.49,0.07,0.73,0.08
					c0.45,0.02,0.94-0.12,1.01-0.63c-0.09,0.05-0.18,0.1-0.27,0.15c0.12,0.07,0.24,0.12,0.37,0.14c0.22,0.04,0.32-0.3,0.09-0.34
					c-0.11-0.02-0.2-0.05-0.29-0.1c-0.13-0.07-0.25,0.02-0.27,0.15c-0.04,0.33-0.55,0.29-0.78,0.27c-0.19-0.01-0.38-0.04-0.57-0.07
					c-0.17-0.03-0.35-0.05-0.51-0.11c-0.14-0.05-0.1-0.28-0.1-0.4c0-0.09,0.01-0.18,0.02-0.27c0-0.02,0.01-0.04,0.01-0.06
					c-0.02,0.01-0.03,0.01-0.01,0.01c0.03-0.01,0.08,0,0.11,0c0.4-0.01,0.8-0.03,1.2-0.04C26.61,22.39,26.61,22.03,26.38,22.04
					L26.38,22.04z"/>
			</g>
		</g>
		<g>
			<g>
				<path d="M26.81,23.77c1.23,0.81,2.66,1.29,4.13,1.39c0.71,0.05,1.43,0.01,2.14-0.12c0.52-0.1,1.12-0.33,1.22-0.9
					c0.03-0.15-0.12-0.28-0.26-0.2c-0.24,0.13-0.46,0.28-0.67,0.45c-0.18,0.14,0.07,0.39,0.25,0.25c0.19-0.15,0.39-0.28,0.6-0.39
					c-0.09-0.07-0.17-0.13-0.26-0.2c-0.12,0.63-1.07,0.69-1.58,0.74c-0.6,0.06-1.2,0.06-1.79-0.01c-1.28-0.15-2.52-0.6-3.6-1.31
					C26.79,23.34,26.62,23.65,26.81,23.77L26.81,23.77z"/>
			</g>
		</g>
		<g>
			<g>
				<path d="M27.36,22.16c-0.08,0.33-0.17,0.66-0.25,0.99c-0.04,0.16-0.08,0.32-0.12,0.48c-0.02,0.08-0.04,0.16-0.06,0.24
					c-0.01,0.03-0.02,0.06-0.03,0.1c0,0.01-0.01,0.02-0.01,0.02c0.02-0.02,0.02-0.02,0-0.01c0.03-0.01,0.06-0.02,0.09-0.02
					c0,0,0,0,0.01,0.01c-0.09-0.02-0.19,0.03-0.22,0.12c-0.02,0.09,0.03,0.2,0.12,0.22c0.19,0.03,0.31-0.09,0.36-0.27
					c0.06-0.2,0.1-0.4,0.15-0.6c0.1-0.4,0.2-0.79,0.31-1.19C27.76,22.03,27.42,21.94,27.36,22.16L27.36,22.16z"/>
			</g>
		</g>
		<g>
			<g>
				<path d="M34.15,22.2c-0.05,0.57-0.13,1.13-0.26,1.68c0.07-0.04,0.15-0.08,0.22-0.12c-0.15-0.04-0.29-0.03-0.43,0.04
					c-0.09,0.04-0.11,0.17-0.06,0.24c0.05,0.09,0.15,0.1,0.24,0.06c0.05-0.02,0.11-0.02,0.16,0c0.09,0.03,0.2-0.03,0.22-0.12
					c0.13-0.58,0.22-1.18,0.27-1.77c0.01-0.1-0.09-0.18-0.18-0.18C34.23,22.02,34.16,22.1,34.15,22.2L34.15,22.2z"/>
			</g>
		</g>
		<g>
			<g>
				<path d="M33.11,21.84c-1.54-0.06-3.09-0.13-4.62,0.05c-0.42,0.05-1.11,0.05-1.32,0.51c-0.18,0.4,0.17,0.72,0.51,0.85
					c0.62,0.24,1.36,0.3,2.01,0.38c0.75,0.09,1.51,0.14,2.27,0.13c0.67,0,1.39,0,2.05-0.13c0.44-0.09,0.75-0.45,0.53-0.89
					c-0.29-0.59-1.23-0.57-1.79-0.6c-0.83-0.05-1.65,0.02-2.46,0.19c-0.22,0.05-0.13,0.39,0.09,0.34c0.71-0.15,1.44-0.21,2.17-0.19
					c0.37,0.01,0.75,0.04,1.11,0.11c0.13,0.03,0.27,0.05,0.39,0.13c0.18,0.1,0.23,0.25,0.15,0.46c-0.07,0.05-0.15,0.08-0.24,0.1
					c-0.33,0.09-0.72,0.08-1.06,0.1c-0.36,0.02-0.71,0.03-1.07,0.03c-0.67,0-1.34-0.04-2-0.12c-0.64-0.07-1.35-0.13-1.96-0.35
					c-0.11-0.04-0.33-0.12-0.37-0.24c-0.07-0.23,0.18-0.31,0.33-0.35c0.34-0.09,0.71-0.11,1.07-0.14c1.4-0.13,2.81-0.07,4.22-0.01
					C33.34,22.21,33.34,21.85,33.11,21.84L33.11,21.84z"/>
			</g>
		</g>
		<g>
			<g>
				<path d="M25.95,15.15c-0.33,0.5-0.65,1.02-0.94,1.54c-0.25,0.44-0.59,0.93-0.36,1.45c0.03,0.07,0.13,0.11,0.2,0.08
					c0.92-0.32,1.69-1,2.1-1.89c0.09-0.19-0.12-0.34-0.28-0.21c-0.81,0.63-1.51,1.39-2.08,2.24c-0.1,0.15,0.1,0.33,0.24,0.24
					c0.67-0.42,1.29-0.89,1.87-1.42c-0.1-0.06-0.2-0.11-0.3-0.17c-0.11,0.64-0.7,1.14-0.52,1.83c0.01,0.06,0.07,0.11,0.12,0.12
					c0.41,0.07,0.8,0.02,1.17-0.15c-0.09-0.04-0.17-0.07-0.26-0.11c0.06,0.43-0.15,0.97,0.37,1.2c0.46,0.2,0.88-0.13,1.14-0.47
					c0.14-0.18-0.17-0.36-0.31-0.18c-0.15,0.2-0.6,0.58-0.81,0.22c-0.07-0.12-0.04-0.28-0.04-0.42c0.01-0.15,0.01-0.3-0.01-0.45
					c-0.02-0.12-0.17-0.15-0.26-0.11c-0.28,0.13-0.59,0.17-0.9,0.12c0.04,0.04,0.08,0.08,0.12,0.12c-0.08-0.3,0.07-0.58,0.21-0.84
					c0.13-0.26,0.27-0.51,0.32-0.8c0.03-0.17-0.16-0.3-0.3-0.17c-0.56,0.51-1.16,0.97-1.8,1.36c0.08,0.08,0.16,0.16,0.24,0.24
					c0.56-0.83,1.24-1.55,2.03-2.17c-0.09-0.07-0.19-0.14-0.28-0.21c-0.37,0.8-1.05,1.43-1.88,1.73c0.07,0.03,0.13,0.05,0.2,0.08
					c-0.11-0.24,0.05-0.51,0.16-0.72c0.12-0.22,0.24-0.44,0.37-0.66c0.25-0.42,0.51-0.84,0.78-1.25
					C26.38,15.13,26.07,14.96,25.95,15.15L25.95,15.15z"/>
			</g>
		</g>
		<g>
			<g>
				<path d="M25.87,2.82c-0.67-0.33-1.4-0.49-2.15-0.48c-0.06,0-0.13,0.03-0.15,0.09c-0.17,0.39-0.35,0.77-0.52,1.16
					c-0.12,0.27-0.37,0.63-0.35,0.94c0.05,0.55,1,0.74,1.43,0.8c1.39,0.21,2.81-0.27,4.19,0.08c0.22,0.05,0.32-0.29,0.09-0.34
					c-1.17-0.29-2.36-0.02-3.54-0.03c-0.52-0.01-1.26-0.05-1.7-0.39c-0.2-0.16-0.06-0.34,0.03-0.53c0.07-0.16,0.14-0.32,0.22-0.48
					c0.15-0.34,0.3-0.68,0.45-1.01c-0.05,0.03-0.1,0.06-0.15,0.09c0.69-0.01,1.35,0.13,1.97,0.43C25.9,3.22,26.08,2.92,25.87,2.82
					L25.87,2.82z"/>
			</g>
		</g>
		<g>
			<g>
				<path d="M31.06,28.09c-0.8-0.4-1.81,0.33-1.73,1.21c0.08,1.01,1.19,1.58,2.1,1.29c0.54-0.17,0.98-0.56,1.27-1.05
					c0.05-0.08,0.02-0.2-0.06-0.24c-0.77-0.36-1.61-0.55-2.46-0.51c-0.36,0.02-0.8,0.04-1.07,0.31c-0.22,0.22-0.27,0.63-0.01,0.84
					c0.17,0.15,0.42-0.1,0.25-0.25c-0.24-0.2,0.12-0.44,0.3-0.48c0.3-0.08,0.64-0.08,0.95-0.06c0.65,0.03,1.28,0.18,1.87,0.46
					c-0.02-0.08-0.04-0.16-0.06-0.24c-0.25,0.43-0.66,0.79-1.15,0.91c-0.46,0.12-0.95-0.02-1.27-0.37c-0.3-0.32-0.4-0.8-0.13-1.17
					c0.23-0.32,0.67-0.53,1.04-0.34C31.08,28.5,31.26,28.19,31.06,28.09L31.06,28.09z"/>
			</g>
		</g>
		<g>
			<g>
				<path d="M25.4,4.35c0.03,3.72,0.05,7.44,0.08,11.16c0.01,1.38-0.13,2.95,1.14,3.84c0.73,0.51,1.75,0.77,2.35,1.44
					c0.99,1.09,0.85,3.24,0.78,4.61c-0.07,1.3-0.85,3.94,0.43,4.89c1.29,0.96,1.73-0.57,1.77-1.56c0.06-1.25,0.06-2.5,0.09-3.75
					c0.03-1.39-0.14-3.07,0.75-4.22c0.57-0.74,1.41-1.21,2-1.94c0.57-0.7,0.86-1.55,1-2.43c0.29-1.85,0-3.81,0.04-5.67
					c0.03-1.83,0.15-3.67,0.05-5.49c-0.11,0.03-0.22,0.06-0.33,0.09c0.16,0.32,0.31,0.64,0.47,0.97c0.1,0.21,0.4,0.03,0.31-0.18
					c-0.16-0.32-0.31-0.64-0.47-0.97c-0.08-0.16-0.34-0.08-0.33,0.09c0.14,2.68-0.16,5.38-0.04,8.06c0.1,2.08,0.18,4.23-1.43,5.8
					c-1.14,1.11-2.1,1.74-2.27,3.43c-0.1,1.05-0.1,2.12-0.12,3.17c-0.01,0.55-0.02,1.09-0.03,1.64c-0.01,0.28,0.15,1.7-0.07,1.89
					c-0.28-0.07-0.56-0.15-0.84-0.22c-0.68,0.11-0.96-0.08-0.84-0.58c-0.03-0.17,0.02-0.43,0.03-0.6c0.03-0.52,0.08-1.05,0.12-1.57
					c0.08-1.05,0.14-2.1,0.01-3.15c-0.18-1.54-0.5-2.47-1.85-3.25c-0.9-0.52-1.94-0.89-2.24-2c-0.21-0.79-0.14-1.67-0.14-2.47
					c-0.03-3.67-0.04-7.34-0.08-11.02C25.75,4.12,25.4,4.12,25.4,4.35L25.4,4.35z"/>
			</g>
		</g>
		<g>
			<g>
				<path d="M24.73,4.27c0.06,0.43,0.13,0.86,0.19,1.28c0.05,0.35,0.07,0.75,0.21,1.08c0.21,0.52,0.65,0.62,1.16,0.71
					c1.6,0.27,3.22,0.45,4.84,0.59c0.78,0.07,1.57,0.16,2.36,0.17c0.57,0,1.16-0.09,1.59-0.49c0.72-0.67,0.77-1.85,0.14-2.59
					c-0.15-0.17-0.4,0.08-0.25,0.25c0.74,0.87,0.21,2.21-0.87,2.43c-0.58,0.12-1.22,0.01-1.8-0.03c-0.63-0.05-1.27-0.1-1.9-0.17
					c-1.26-0.12-2.51-0.27-3.76-0.47C26.37,7,26.07,6.98,25.83,6.88c-0.35-0.16-0.42-0.46-0.48-0.8c-0.11-0.63-0.19-1.27-0.28-1.9
					C25.04,3.95,24.7,4.04,24.73,4.27L24.73,4.27z"/>
			</g>
		</g>
		<g>
			<g>
				<path d="M35.27,4.24c-1.95-0.7-4.01-1.07-6.08-1.14c-1.05-0.04-2.1,0-3.14,0.13c-0.55,0.07-1.32,0.23-1.5,0.84
					c-0.22,0.73,0.51,1.22,1.13,1.34c1.01,0.2,2.06,0.25,3.09,0.36c1.11,0.12,2.21,0.24,3.32,0.37c0.54,0.06,1.08,0.12,1.61,0.18
					c0.48,0.06,1,0.16,1.48,0.05c0.59-0.14,1.19-0.75,0.9-1.4c-0.36-0.81-1.8-0.74-2.49-0.62c-0.22,0.04-0.13,0.38,0.09,0.34
					c0.55-0.1,1.37-0.15,1.85,0.19c0.36,0.25,0.29,0.66,0.02,0.91c-0.25,0.24-0.61,0.26-0.94,0.26c-0.91-0.01-1.83-0.2-2.73-0.3
					c-1.04-0.12-2.08-0.23-3.12-0.34c-0.99-0.11-2.02-0.16-2.99-0.35C25.48,5,25.12,4.91,24.97,4.62c-0.27-0.49,0.1-0.77,0.49-0.91
					c0.4-0.14,0.83-0.16,1.25-0.2c0.92-0.08,1.85-0.09,2.78-0.05c1.94,0.1,3.86,0.46,5.69,1.11C35.39,4.66,35.48,4.31,35.27,4.24
					L35.27,4.24z"/>
			</g>
		</g>
	</g>
</g>
</svg>
