<?xml version="1.0" encoding="utf-8"?>
<!-- Generator: Adobe Illustrator 26.2.1, SVG Export Plug-In . SVG Version: 6.00 Build 0)  -->
<svg version="1.1" id="Layer_1" xmlns="http://www.w3.org/2000/svg" xmlns:xlink="http://www.w3.org/1999/xlink" x="0px" y="0px"
	 viewBox="0 0 56.69 56.69" style="enable-background:new 0 0 56.69 56.69;" xml:space="preserve">
<g>
	<g>
		<g>
			<path d="M18.04,36.95c0.44-0.16,0.87,0,1.29,0.14c0.37,0.12,0.73,0.24,1.1,0.36c0.68,0.22,1.38,0.48,2.1,0.49
				c0.41,0.01,0.82-0.08,1.23-0.09c0.37-0.01,0.74,0.02,1.11-0.03c0.63-0.07,1.21-0.31,1.72-0.68c0.13-0.09,0.1-0.34-0.09-0.33
				c-0.51,0.04-1.02,0.08-1.53,0.12c-0.23,0.02-0.23,0.37,0,0.35c0.51-0.04,1.02-0.08,1.53-0.12c-0.03-0.11-0.06-0.22-0.09-0.33
				c-0.6,0.43-1.26,0.64-2,0.65c-0.8,0.01-1.66,0.17-2.44,0.02c-0.73-0.14-1.44-0.42-2.14-0.65c-0.6-0.2-1.24-0.5-1.87-0.27
				C17.73,36.69,17.82,37.03,18.04,36.95L18.04,36.95z"/>
		</g>
	</g>
	<g>
		<g>
			<path d="M15.54,18.45c-0.61-0.73-0.76-1.35-0.74-2.28c0.01-0.33-0.08-0.85,0.02-1.16c0.2-0.58,0.67-0.57,1.15-0.68
				c0.85-0.19,1.71-0.35,2.58-0.36c0.79,0,1.57,0.13,2.36,0.16c1.54,0.08,3.07-0.06,4.61,0.09c1.5,0.14,2.99,0.34,4.5,0.33
				c0.23,0,0.23-0.36,0-0.35c-1.9,0.01-3.77-0.33-5.67-0.42c-0.96-0.05-1.91,0.02-2.87,0.01c-1.03-0.01-2.05-0.2-3.08-0.18
				c-0.9,0.02-1.79,0.2-2.67,0.4c-0.48,0.11-1.06,0.17-1.23,0.69c-0.1,0.3-0.04,0.7-0.05,1.02c-0.01,0.42-0.04,0.86,0,1.28
				c0.06,0.67,0.42,1.18,0.84,1.68C15.44,18.88,15.69,18.62,15.54,18.45L15.54,18.45z"/>
		</g>
	</g>
	<g>
		<g>
			<path d="M14.98,21.95c-0.3-0.02-0.58,0.15-0.74,0.4c-0.2,0.31-0.19,0.69-0.14,1.04c0.06,0.38,0.18,0.75,0.32,1.11
				c0.07,0.18,0.14,0.35,0.21,0.53c0.04,0.09,0.08,0.19,0.11,0.28c0.02,0.05,0.04,0.1,0.06,0.15c0.02,0.04,0.16,0.34,0.17,0.25
				c0.04-0.22-0.3-0.32-0.34-0.09c-0.06,0.37,0.44,0.47,0.56,0.12c0.06-0.2-0.06-0.41-0.13-0.59c-0.09-0.22-0.18-0.43-0.27-0.65
				c-0.16-0.41-0.32-0.84-0.37-1.28c-0.04-0.37,0.05-0.95,0.54-0.92C15.21,22.32,15.21,21.97,14.98,21.95L14.98,21.95z"/>
		</g>
	</g>
	<g>
		<g>
			<path d="M22.8,38.48c0.57-0.19,1.16-0.28,1.76-0.28c0.5,0,1.03,0,1.47-0.29c0.06-0.04,0.11-0.12,0.08-0.2
				c-0.02-0.06-0.04-0.12-0.06-0.18c-0.07-0.21-0.42-0.12-0.34,0.09c0.02,0.06,0.04,0.12,0.06,0.18c0.03-0.07,0.05-0.13,0.08-0.2
				c-0.42,0.29-0.95,0.23-1.44,0.25c-0.58,0.01-1.15,0.11-1.7,0.29C22.49,38.21,22.58,38.55,22.8,38.48L22.8,38.48z"/>
		</g>
	</g>
	<g>
		<g>
			<path d="M16.1,27.9c-0.15-0.4-0.62-0.47-0.9-0.14c-0.39,0.47-0.02,1.3,0.15,1.79c0.25,0.67,0.58,1.31,1,1.89
				c0.22,0.3,0.48,0.58,0.63,0.93c0.16,0.36,0.14,0.77,0.28,1.14c0.11,0.29,0.32,0.53,0.39,0.83c0.08,0.35,0,0.69,0.21,1.01
				c0.35,0.52,0.91,0.88,1.51,1c1.61,0.31,3.29,0.52,4.91,0.28c0.22-0.03,0.13-0.37-0.09-0.34c-1.33,0.2-2.67,0.05-3.99-0.16
				c-0.6-0.09-1.18-0.13-1.66-0.56c-0.29-0.26-0.49-0.51-0.52-0.92c-0.01-0.2-0.03-0.38-0.1-0.57c-0.08-0.21-0.21-0.39-0.3-0.59
				c-0.13-0.28-0.14-0.59-0.21-0.89c-0.11-0.48-0.4-0.83-0.68-1.22c-0.33-0.44-0.62-0.91-0.84-1.42c-0.12-0.26-0.22-0.53-0.31-0.8
				c-0.05-0.14-0.09-0.29-0.12-0.43c-0.01-0.05-0.02-0.1-0.04-0.15c-0.13-0.29-0.03-0.49,0.32-0.6
				C15.84,28.21,16.18,28.11,16.1,27.9L16.1,27.9z"/>
		</g>
	</g>
	<g>
		<g>
			<path d="M16.49,32.67c0.08,0.83,0.51,1.57,0.58,2.4c0.02,0.18,0,0.38,0.06,0.55c0.05,0.15,0.18,0.24,0.32,0.31
				c0.25,0.11,0.64,0.12,0.82,0.36c0.08-0.08,0.16-0.16,0.24-0.24c-0.03-0.02,0.02-0.21,0.02-0.23c0.01-0.12,0-0.23-0.02-0.35
				c-0.04-0.25-0.14-0.49-0.26-0.71c-0.23-0.43-0.55-0.81-0.67-1.29c-0.06-0.22-0.4-0.13-0.34,0.09c0.13,0.53,0.49,0.95,0.74,1.43
				c0.13,0.25,0.22,0.53,0.2,0.82c-0.02,0.2-0.05,0.42,0.16,0.54c0.14,0.08,0.35-0.09,0.24-0.24c-0.17-0.24-0.42-0.33-0.69-0.41
				c-0.12-0.03-0.32-0.07-0.4-0.17c-0.05-0.07-0.04-0.21-0.04-0.29c-0.01-0.1-0.02-0.2-0.03-0.3c-0.04-0.39-0.14-0.75-0.26-1.12
				c-0.13-0.38-0.27-0.75-0.3-1.15C16.82,32.45,16.47,32.45,16.49,32.67L16.49,32.67z"/>
		</g>
	</g>
	<g>
		<g>
			<path d="M16.92,32.71c-0.01-0.03-0.03-0.05-0.04-0.08c-0.01-0.02-0.03-0.04-0.05-0.05c-0.02-0.02-0.04-0.03-0.06-0.03
				c-0.02-0.01-0.05-0.01-0.07,0c-0.02,0-0.05,0.01-0.07,0.02c-0.04,0.02-0.07,0.06-0.08,0.11c0,0.02,0,0.03-0.01,0.05
				c0,0.03,0.01,0.06,0.02,0.09c0.01,0.03,0.03,0.05,0.04,0.08c0.01,0.02,0.03,0.04,0.05,0.05c0.02,0.02,0.04,0.03,0.06,0.03
				c0.02,0.01,0.05,0.01,0.07,0c0.02,0,0.05-0.01,0.07-0.02c0.04-0.02,0.07-0.06,0.08-0.11c0-0.02,0-0.03,0.01-0.05
				C16.95,32.76,16.94,32.74,16.92,32.71L16.92,32.71z"/>
		</g>
	</g>
	<g>
		<g>
			<path d="M15.07,25.71c-1.29,0.78-1.35,2.16-0.77,3.41c0.41,0.89,0.85,1.77,1.27,2.66c0.23,0.49,0.46,0.99,0.62,1.5
				c0.11,0.35,0.19,0.72,0.36,1.06c0.16,0.33,0.41,0.61,0.6,0.91c0.2,0.32,0.29,0.72,0.53,1.02c0.13,0.16,0.28,0.26,0.47,0.34
				c0.25,0.11,0.45,0.15,0.65,0.34c0.14,0.14,0.21,0.31,0.37,0.44c0.23,0.17,0.55,0.24,0.81,0.33c0.5,0.17,1.01,0.33,1.53,0.43
				c0.84,0.17,1.67,0.2,2.5-0.04c0.22-0.06,0.13-0.4-0.09-0.34c-0.84,0.23-1.69,0.18-2.54-0.01c-0.41-0.09-0.81-0.22-1.2-0.35
				c-0.46-0.15-0.72-0.34-1.06-0.67c-0.38-0.37-0.96-0.39-1.26-0.85c-0.16-0.25-0.24-0.56-0.4-0.82c-0.16-0.26-0.37-0.49-0.52-0.75
				c-0.33-0.58-0.44-1.29-0.7-1.91c-0.29-0.7-0.63-1.37-0.96-2.05c-0.34-0.7-0.81-1.45-0.97-2.21c-0.19-0.86,0.19-1.69,0.94-2.14
				C15.45,25.89,15.27,25.59,15.07,25.71L15.07,25.71z"/>
		</g>
	</g>
	<g>
		<g>
			<path d="M18.31,36.34c0.34,0.1,0.45,0.54,0.8,0.7c0.36,0.17,0.75,0.29,1.14,0.39c0.86,0.23,1.75,0.34,2.64,0.36
				c1.44,0.04,3.23,0.08,4.24-1.13c0.15-0.17-0.1-0.43-0.25-0.25c-0.99,1.19-2.89,1.09-4.3,1.02c-0.83-0.04-1.66-0.16-2.46-0.4
				c-0.41-0.12-0.91-0.23-1.16-0.6c-0.15-0.22-0.29-0.36-0.55-0.43C18.18,35.94,18.09,36.28,18.31,36.34L18.31,36.34z"/>
		</g>
	</g>
	<g>
		<g>
			<path d="M14.47,26.48c-0.3,0.76-0.17,1.53,0.08,2.28c0.31,0.92,0.73,1.82,1.1,2.71c0.4,0.96,0.8,1.91,1.2,2.87
				c0.26,0.63,0.45,1.29,1.05,1.68c1.38,0.89,3.45,0.98,5.04,1c0.87,0.01,1.75-0.05,2.59-0.26c0.48-0.12,1.38-0.27,1.59-0.8
				c0.08-0.21-0.26-0.31-0.34-0.09c-0.11,0.27-0.88,0.42-1.14,0.49c-0.39,0.11-0.8,0.19-1.2,0.23c-0.71,0.09-1.43,0.09-2.15,0.05
				c-0.78-0.04-1.56-0.13-2.33-0.27c-0.76-0.14-1.83-0.35-2.28-1.04c-0.42-0.64-0.65-1.49-0.95-2.19c-0.29-0.7-0.58-1.39-0.87-2.09
				c-0.54-1.31-1.62-3.05-1.05-4.49C14.9,26.36,14.56,26.27,14.47,26.48L14.47,26.48z"/>
		</g>
	</g>
	<g>
		<g>
			<path d="M18.94,27.08c-0.19-0.06-0.36,0.08-0.39,0.26c-0.04,0.22,0.15,0.37,0.34,0.43c0.27,0.08,0.55,0.12,0.82,0.17
				c0.27,0.05,0.55,0.11,0.83,0.14c0.51,0.07,1.12,0.12,1.61-0.06c0.19-0.07,0.35-0.23,0.31-0.44c-0.03-0.2-0.2-0.32-0.4-0.28
				c-0.22,0.05-0.13,0.39,0.09,0.34c-0.03-0.02-0.05-0.01-0.06,0.01c-0.02,0.01-0.04,0.02-0.06,0.03c-0.06,0.02-0.12,0.03-0.18,0.05
				c-0.14,0.03-0.28,0.04-0.42,0.05c-0.31,0.01-0.62-0.01-0.93-0.05c-0.29-0.04-0.58-0.1-0.87-0.16c-0.14-0.03-0.28-0.06-0.43-0.09
				c-0.06-0.01-0.12-0.02-0.18-0.04c-0.04-0.01-0.07-0.02-0.1-0.03c-0.03-0.01-0.06-0.01-0.09,0.01
				C19.06,27.5,19.15,27.16,18.94,27.08L18.94,27.08z"/>
		</g>
	</g>
	<g>
		<g>
			<path d="M15.18,25.8c-0.54,0.17-1.14,0.93-0.52,1.39c0.94,0.7,2.48,0.65,3.58,0.85c1.34,0.24,2.65,0.22,4.01,0.19
				c1.38-0.04,2.79,0,4.16-0.21c0.22-0.03,0.13-0.38-0.09-0.34c-1.09,0.17-2.2,0.15-3.3,0.18c-0.96,0.03-1.92,0.08-2.88,0.06
				c-0.98-0.02-1.94-0.25-2.91-0.39c-0.46-0.06-0.92-0.13-1.37-0.24c-0.19-0.05-0.38-0.11-0.56-0.18c-0.56-0.22-0.63-0.77-0.02-0.96
				C15.49,26.08,15.4,25.74,15.18,25.8L15.18,25.8z"/>
		</g>
	</g>
	<g>
		<g>
			<path d="M16.42,23.6c0.83-0.09,1.68,0.24,2.51,0.3c0.79,0.06,1.58,0.05,2.37,0.06c1.58,0.02,3.12,0.02,4.7-0.2
				c0.22-0.03,0.13-0.37-0.09-0.34c-1.6,0.23-3.17,0.21-4.78,0.19c-0.79-0.01-1.59,0-2.37-0.08c-0.77-0.07-1.55-0.37-2.33-0.29
				C16.19,23.27,16.19,23.62,16.42,23.6L16.42,23.6z"/>
		</g>
	</g>
	<g>
		<g>
			<path d="M19.71,22.41C19.7,22.41,19.67,22.41,19.71,22.41c-0.01,0-0.02,0-0.03,0c-0.02,0-0.04-0.01-0.06-0.01
				c-0.04-0.01-0.08-0.02-0.12-0.03c-0.08-0.02-0.17-0.04-0.25-0.04c-0.18-0.01-0.35,0.05-0.46,0.2c-0.09,0.13-0.1,0.32,0,0.45
				c0.12,0.15,0.32,0.15,0.49,0.16c0.16,0.01,0.33,0.04,0.49-0.01c0.17-0.05,0.31-0.2,0.32-0.38c0.01-0.2-0.16-0.34-0.34-0.36
				c-0.08-0.01-0.17,0.01-0.25,0.04c-0.1,0.04-0.2,0.09-0.22,0.2c-0.02,0.1,0.02,0.18,0.11,0.23c0.05,0.03,0.1,0.05,0.16,0.05
				c0.14,0,0.26-0.13,0.24-0.27c-0.03-0.24-0.36-0.25-0.55-0.23c-0.09,0.01-0.18,0.08-0.18,0.18c0,0.09,0.08,0.19,0.18,0.18
				c0.04,0,0.08-0.01,0.13,0c0.02,0,0.05,0,0.07,0.01c-0.03,0,0.03,0.01,0.03,0.01c0.01,0,0.05,0.02,0.01,0
				c0.02,0.01,0.01,0.01-0.01-0.01c-0.05-0.06-0.05-0.12,0-0.16c0.01-0.02,0.02-0.04,0.05-0.05c0.03-0.01,0.05-0.01,0.07,0.01
				c-0.01-0.01-0.04-0.02-0.05-0.03c0.03,0.04,0.05,0.07,0.08,0.11c0,0,0-0.01,0-0.01c0,0.03,0,0.06,0,0.09
				c0,0.01-0.05,0.06-0.05,0.06c0,0,0.02-0.01,0.02-0.01c0.01-0.01,0.02-0.01,0.03-0.01c-0.01,0-0.03,0.01,0,0
				c0.02-0.01,0.04-0.01,0.06-0.02c0,0,0.03,0,0.01,0c-0.02,0,0.02,0,0.02,0c0.04,0-0.01,0-0.01,0c0,0,0.02,0.01,0.03,0.01
				c0.03,0.01,0,0-0.01,0c0.01,0,0.03,0.01,0-0.01c0,0,0.02,0.02,0.02,0.02c0,0-0.02-0.04-0.01,0c0,0-0.01-0.03-0.01-0.01
				c0,0.02,0.01-0.04,0-0.01c-0.01,0.03,0.01-0.01,0-0.01c0,0-0.01,0.02-0.01,0.02c-0.01,0.04,0-0.01,0-0.01
				c0,0-0.01,0.02-0.01,0.02c-0.01,0.02,0,0.01,0.01-0.01c0,0-0.02,0.02-0.02,0.02c-0.02,0.02,0-0.01,0.01,0
				c0,0-0.02,0.01-0.02,0.01c-0.02,0.01,0,0,0,0c-0.01,0-0.02,0.01-0.03,0.01c-0.01,0-0.07,0.01-0.03,0.01c-0.05,0-0.09,0-0.14,0
				c-0.09-0.01-0.18-0.02-0.27-0.02c-0.04,0-0.08-0.01-0.12-0.01c0.04,0.01-0.01-0.01-0.02-0.01c-0.01,0-0.03-0.01,0,0
				c0,0-0.04-0.02-0.02-0.01c0,0,0,0,0.01,0.01c-0.01-0.01-0.01-0.01,0,0c0,0,0,0.01,0.01,0.01c0,0,0-0.01-0.01-0.01
				c0,0,0-0.01-0.01-0.01c0,0.01,0.01,0.01,0.01,0.02c0,0,0-0.02-0.01-0.02c0.01,0,0,0.04,0,0.01c0,0,0-0.02,0-0.02
				c0,0-0.01,0.05,0,0.01c0-0.01,0-0.04,0-0.01c0,0.02,0,0,0-0.01c0-0.01,0.01-0.01,0.01-0.02c0.01-0.02-0.01,0.01-0.01,0.01
				c0,0,0.01-0.02,0.02-0.02c0,0-0.03,0.02-0.01,0c0.01,0,0.02-0.01,0.03-0.01c0.03-0.02,0,0,0,0c0.01,0,0.02-0.01,0.03-0.01
				c0.01,0,0.04-0.01,0.01,0c-0.02,0.01,0.01,0,0.02,0c0.02,0,0.04,0,0.07,0c0.01,0,0.02,0,0.03,0c0.02,0-0.03-0.01,0,0
				c0.02,0.01,0.05,0.01,0.07,0.02c0.12,0.03,0.23,0.06,0.35,0.07c0.09,0.01,0.18-0.09,0.18-0.18
				C19.88,22.49,19.81,22.42,19.71,22.41L19.71,22.41z"/>
		</g>
	</g>
	<g>
		<g>
			<path d="M27.44,20.91c-0.36,0.6-0.89,1.07-1.52,1.38c-0.09,0.04-0.1,0.16-0.06,0.24c-0.02-0.03-0.01-0.05,0-0.07
				c0,0-0.01,0-0.01,0.01c-0.02,0-0.08,0.02-0.1,0.02c-0.09,0.02-0.15,0.13-0.12,0.22c0.03,0.1,0.12,0.14,0.22,0.12
				c0.11-0.02,0.21-0.05,0.28-0.14c0.09-0.1,0.09-0.23,0.04-0.34c-0.02,0.08-0.04,0.16-0.06,0.24c0.68-0.33,1.26-0.86,1.65-1.5
				C27.86,20.89,27.55,20.71,27.44,20.91L27.44,20.91z"/>
		</g>
	</g>
	<g>
		<g>
			<path d="M18.17,26.94c1.24,0.1,2.48,0.13,3.73,0.07c0.61-0.03,1.22-0.08,1.82-0.15c0.27-0.03,0.54-0.06,0.8-0.1
				c0.14-0.02,0.6-0.21,0.72-0.17c-0.04-0.06-0.09-0.11-0.13-0.17c0,0.01,0,0.02,0,0.03c0.03-0.05,0.06-0.1,0.09-0.15
				c-0.01,0.01-0.02,0.01-0.03,0.02c0.07,0.01,0.14,0.02,0.21,0.03c-0.01-0.01-0.01-0.01-0.02-0.02c-0.01,0.09-0.02,0.19-0.04,0.28
				c0.35-0.16,0.7-0.29,1.07-0.4c0.22-0.06,0.13-0.41-0.09-0.34c-0.4,0.11-0.78,0.26-1.16,0.43c-0.1,0.05-0.11,0.21-0.04,0.28
				c0.01,0.01,0.01,0.01,0.02,0.02c0.06,0.05,0.15,0.07,0.21,0.03c0.08-0.05,0.12-0.11,0.12-0.21c0-0.08-0.06-0.14-0.13-0.17
				c-0.17-0.06-0.32,0.04-0.49,0.08c-0.32,0.08-0.65,0.12-0.97,0.16c-0.63,0.08-1.26,0.13-1.9,0.16c-1.27,0.06-2.54,0.04-3.81-0.07
				C17.94,26.56,17.94,26.92,18.17,26.94L18.17,26.94z"/>
		</g>
	</g>
	<g>
		<g>
			<path d="M15.84,23.34c-0.35-0.24-0.76,0.07-0.83,0.43c-0.09,0.46,0.1,0.99,0.25,1.41c0.15,0.43,0.31,0.88,0.53,1.28
				c0.17,0.31,0.51,0.87,0.94,0.76c0.22-0.06,0.13-0.4-0.09-0.34c-0.12,0.03-0.29-0.22-0.35-0.3c-0.09-0.12-0.17-0.26-0.24-0.39
				c-0.15-0.29-0.26-0.6-0.37-0.91c-0.12-0.33-0.24-0.66-0.29-1c-0.03-0.16-0.06-0.34,0-0.49c0.04-0.12,0.17-0.22,0.28-0.13
				C15.85,23.78,16.03,23.47,15.84,23.34L15.84,23.34z"/>
		</g>
	</g>
	<g>
		<g>
			<path d="M29.71,20.07c-0.17,0.24-0.17,0.54-0.11,0.82c0.03,0.14,0.08,0.27,0.12,0.41c0.03,0.09,0.05,0.2-0.04,0.25
				c0.06,0,0.12,0,0.18,0c-0.19-0.12-0.45-0.01-0.51,0.2c-0.06,0.22,0.29,0.32,0.34,0.09c0.01-0.03,0,0-0.02,0.01
				c0,0,0.03-0.01,0.01,0c-0.02,0-0.02-0.02-0.01,0c0.01,0.02,0.09,0.03,0.1,0.03c0.03,0,0.06-0.01,0.09-0.02
				c0.04-0.02,0.08-0.04,0.11-0.08c0.14-0.14,0.15-0.35,0.1-0.54c-0.08-0.32-0.27-0.68-0.05-0.99c0.06-0.08,0.01-0.2-0.06-0.24
				C29.87,19.96,29.77,20,29.71,20.07L29.71,20.07z"/>
		</g>
	</g>
	<g>
		<g>
			<path d="M26.08,23.52c0.25,0.03,0.49-0.02,0.71-0.13c0.21-0.11,0.36-0.3,0.57-0.41c0.21-0.11,0.45-0.09,0.68-0.06
				c0.24,0.03,0.48,0.07,0.72,0.05c0.19-0.01,0.25-0.3,0.05-0.35c-0.06-0.01-0.11-0.03-0.17-0.04c0.04,0.06,0.09,0.11,0.13,0.17
				c0-0.03,0-0.06-0.01-0.09c0-0.07-0.05-0.16-0.13-0.17c-0.12-0.02-0.23-0.04-0.35-0.07c-0.22-0.04-0.32,0.3-0.09,0.34
				c0.12,0.02,0.23,0.04,0.35,0.07c-0.04-0.06-0.09-0.11-0.13-0.17c0,0.03,0,0.06,0.01,0.09c0.01,0.08,0.05,0.15,0.13,0.17
				c0.06,0.01,0.11,0.03,0.17,0.04c0.02-0.12,0.03-0.23,0.05-0.35c-0.47,0.04-0.95-0.17-1.41-0.01c-0.23,0.08-0.39,0.25-0.58,0.39
				c-0.2,0.15-0.44,0.21-0.69,0.18c-0.1-0.01-0.18,0.09-0.18,0.18C25.9,23.44,25.98,23.51,26.08,23.52L26.08,23.52z"/>
		</g>
	</g>
	<g>
		<g>
			<path d="M15.01,26.49c0.05,0.71,1.25,0.66,1.76,0.71c1.09,0.11,2.18,0.21,3.27,0.31c1.03,0.1,1.99,0.04,3.02-0.01
				c1.09-0.06,2.16-0.05,3.24-0.19c0.22-0.03,0.23-0.38,0-0.35c-0.89,0.11-1.77,0.18-2.67,0.18c-0.86,0-1.71,0.16-2.56,0.11
				c-0.93-0.05-1.86-0.17-2.78-0.26c-0.37-0.04-2.9-0.09-2.93-0.5C15.35,26.26,15,26.26,15.01,26.49L15.01,26.49z"/>
		</g>
	</g>
	<g>
		<g>
			<path d="M15.3,22.19c-1.01-0.45-1.02,1.48-0.92,2.01c0.19,0.94,0.83,1.7,1.13,2.6c0.07,0.22,0.41,0.12,0.34-0.09
				c-0.23-0.71-0.66-1.32-0.94-2c-0.14-0.34-0.23-0.69-0.23-1.06c0-0.18,0.06-1.32,0.44-1.15C15.33,22.58,15.51,22.28,15.3,22.19
				L15.3,22.19z"/>
		</g>
	</g>
	<g>
		<g>
			<path d="M14.98,22.96c0.3,0.19,0.61,0.2,0.96,0.22c0.59,0.03,1.18,0.07,1.77,0.11c1.1,0.09,2.19,0.2,3.29,0.26
				c2.06,0.11,4.14,0.03,6.11-0.64c0.21-0.07,0.13-0.41-0.09-0.34c-0.1,0.03-0.15,0.06-0.2,0.16c-0.11,0.2,0.2,0.38,0.31,0.18
				c-0.01,0-0.01,0-0.02,0.01c-0.03-0.11-0.06-0.23-0.09-0.34c-1.86,0.63-3.83,0.73-5.78,0.64c-1.02-0.05-2.04-0.14-3.06-0.23
				c-0.47-0.04-0.94-0.08-1.41-0.11c-0.49-0.03-1.17,0.05-1.6-0.21C14.97,22.53,14.79,22.84,14.98,22.96L14.98,22.96z"/>
		</g>
	</g>
	<g>
		<g>
			<path d="M16.35,22.44c-0.15-0.37-0.31-0.73-0.46-1.1c-0.14-0.33-0.28-0.68-0.33-1.04c-0.01-0.05-0.04-0.17-0.01-0.21
				c0.02-0.04,0.1-0.03,0.14-0.03c0.19,0,0.38,0,0.57,0c0.09,0,0.17-0.01,0.26,0c0.05,0,0.05,0,0.04,0.04
				c-0.01,0.07-0.12,0.09-0.18,0.1c-0.04,0.01-0.08,0.02-0.13,0.03c-0.01,0-0.02,0-0.03,0c-0.05-0.01-0.06,0.01-0.02,0.05
				c-0.11,0.01-0.22,0.03-0.32,0.04c0-0.03,0.01-0.07,0.01-0.1c-0.18,0.15,0.08,0.39,0.25,0.25c0.09-0.08,0.14-0.19,0.14-0.31
				c-0.01-0.23-0.36-0.23-0.35,0c0,0.04,0,0.04-0.03,0.06c0.08,0.08,0.17,0.17,0.25,0.25c0.1-0.08,0.12-0.23,0.04-0.33
				c-0.09-0.12-0.28-0.11-0.32,0.04c-0.06,0.2,0.09,0.37,0.28,0.39c0.18,0.02,0.42-0.04,0.56-0.14c0.15-0.1,0.24-0.29,0.19-0.47
				c-0.05-0.2-0.24-0.27-0.42-0.27c-0.23-0.01-0.46,0-0.69,0c-0.18,0-0.38,0-0.5,0.15c-0.14,0.17-0.09,0.41-0.05,0.6
				c0.04,0.22,0.11,0.44,0.19,0.65c0.19,0.51,0.42,1,0.63,1.5c0.04,0.09,0.17,0.11,0.24,0.06C16.38,22.63,16.39,22.53,16.35,22.44
				L16.35,22.44z"/>
		</g>
	</g>
	<g>
		<g>
			<path d="M14.49,17.94c-0.12,0.15-0.17,0.31-0.16,0.5c0.02,0.23,0.16,0.44,0.16,0.67c0,0.22-0.1,0.42-0.11,0.64
				c-0.01,0.18,0.03,0.36,0.05,0.53c0.14,0.96,0.5,1.83,1.01,2.66c0.12,0.19,0.43,0.02,0.31-0.18c-0.45-0.74-0.79-1.52-0.94-2.38
				c-0.03-0.15-0.05-0.31-0.06-0.46c-0.02-0.2,0.03-0.37,0.07-0.56c0.04-0.19,0.04-0.35-0.01-0.53c-0.05-0.19-0.21-0.46-0.06-0.65
				C14.88,18.02,14.63,17.77,14.49,17.94L14.49,17.94z"/>
		</g>
	</g>
	<g>
		<g>
			<path d="M30.02,18.69c0.08,0.01,0.18,0.02,0.25,0.07c0.07,0.05,0.05,0.11,0.03,0.19c-0.04,0.27-0.01,0.53-0.02,0.8
				c0,0.5-0.12,1-0.35,1.45c0.08-0.02,0.16-0.04,0.24-0.06c0.02,0.04,0.03,0.08,0.05,0.12c-0.11,0-0.23,0-0.34,0
				c0.02,0.08,0.05,0.12,0.12,0.16c0.19,0.12,0.37-0.19,0.18-0.31c-0.01-0.01-0.02-0.01-0.03-0.02c0.03,0.04,0.05,0.07,0.08,0.11
				c0-0.01-0.01-0.02-0.01-0.03c-0.05-0.17-0.29-0.16-0.34,0c-0.04,0.11,0.01,0.23,0.12,0.28c0.08,0.04,0.2,0.03,0.24-0.06
				c0.28-0.57,0.41-1.2,0.39-1.84c-0.01-0.17-0.02-0.34,0.01-0.5c0.02-0.14,0.05-0.27-0.02-0.4c-0.11-0.23-0.38-0.28-0.61-0.31
				C29.8,18.31,29.8,18.66,30.02,18.69L30.02,18.69z"/>
		</g>
	</g>
	<g>
		<g>
			<path d="M14.99,18.05c-0.26,0.13-0.6,0.34-0.52,0.68c0.09,0.4,0.76,0.51,1.07,0.59c1.69,0.47,3.48,0.53,5.22,0.49
				c1.89-0.05,3.77-0.23,5.66-0.16c0.9,0.04,1.8,0.17,2.71,0.06c0.91-0.11,1.78-0.37,2.71-0.25c0.23,0.03,0.22-0.33,0-0.35
				c-1.33-0.16-2.63,0.35-3.96,0.29c-1.49-0.07-2.96-0.12-4.45-0.05c-1.41,0.07-2.83,0.16-4.24,0.12c-0.77-0.02-1.55-0.08-2.31-0.21
				c-0.31-0.05-0.62-0.11-0.93-0.19c-0.22-0.06-1.41-0.4-0.78-0.71C15.37,18.25,15.2,17.95,14.99,18.05L14.99,18.05z"/>
		</g>
	</g>
	<g>
		<g>
			<path d="M15.14,18.82c2.41,0.61,4.88,0.49,7.34,0.41c2.52-0.08,5.02,0.23,7.53,0.12c0.23-0.01,0.23-0.36,0-0.35
				c-2.42,0.1-4.83-0.2-7.25-0.13c-2.52,0.08-5.06,0.24-7.53-0.39C15.01,18.42,14.92,18.76,15.14,18.82L15.14,18.82z"/>
		</g>
	</g>
	<g>
		<g>
			<path d="M20.21,14.75c-0.26,0.05-0.52,0.01-0.78-0.02c-0.22-0.02-0.5-0.08-0.71,0.03c-0.19,0.1-0.26,0.31-0.19,0.51
				c0.07,0.21,0.28,0.33,0.49,0.37c0.53,0.11,1.08,0.07,1.62,0.03c0.24-0.02,0.49-0.03,0.71-0.14c0.21-0.1,0.3-0.33,0.17-0.53
				c-0.17-0.25-0.48-0.19-0.74-0.19c-0.31,0-0.62-0.03-0.93-0.11c-0.22-0.05-0.32,0.29-0.09,0.34c0.24,0.06,0.49,0.1,0.75,0.11
				c0.13,0.01,0.27,0.01,0.4,0c0.07,0,0.26-0.04,0.31,0.02c0.03,0.03,0.02,0.01-0.02,0.04c-0.05,0.03-0.11,0.04-0.16,0.05
				c-0.1,0.02-0.21,0.03-0.31,0.04c-0.27,0.02-0.53,0.04-0.8,0.05c-0.25,0-0.51,0-0.76-0.05c-0.07-0.01-0.41-0.11-0.28-0.23
				c0.05-0.05,0.24-0.02,0.3-0.01c0.12,0.01,0.24,0.02,0.37,0.04c0.25,0.03,0.5,0.04,0.75-0.01C20.52,15.05,20.43,14.71,20.21,14.75
				L20.21,14.75z"/>
		</g>
	</g>
	<g>
		<g>
			<path d="M18.16,18.72c2.17,0.08,4.36,0.17,6.52-0.13c0.88-0.12,1.81-0.26,2.57-0.75c0.73-0.47,1.1-1.43,1.93-1.73
				c0.15-0.05,0.19-0.31,0-0.34c-0.27-0.05-0.47,0.06-0.54,0.34c-0.06,0.22,0.29,0.32,0.34,0.09c0.04-0.03,0.07-0.06,0.11-0.09
				c0-0.11,0-0.23,0-0.34c-0.76,0.27-1.09,0.96-1.66,1.48c-0.71,0.65-1.73,0.83-2.65,0.96c-2.19,0.32-4.42,0.23-6.63,0.15
				C17.93,18.35,17.93,18.71,18.16,18.72L18.16,18.72z"/>
		</g>
	</g>
	<g>
		<g>
			<path d="M28.92,18.65c0.4-0.34,0.55-0.85,0.63-1.35c0.04-0.27,0.07-0.55,0.14-0.81c0.05-0.18,0.13-0.39,0.28-0.5
				c0.01-0.01,0.13-0.06,0.13-0.06c-0.05-0.07-0.06-0.07-0.04,0c0,0.04,0,0.07-0.01,0.1c-0.02,0.12-0.08,0.24-0.12,0.35
				c-0.1,0.26-0.18,0.53-0.25,0.8c-0.12,0.5-0.09,1.14-0.56,1.45c-0.1,0.07-0.11,0.19-0.04,0.28c0.11,0.14,0.29,0.16,0.45,0.12
				c0.16-0.04,0.36-0.26,0.52-0.19c0.21,0.08,0.3-0.26,0.09-0.34c-0.17-0.07-0.33-0.01-0.48,0.07c-0.08,0.04-0.26,0.2-0.34,0.09
				c-0.01,0.09-0.02,0.19-0.04,0.28c0.19-0.12,0.34-0.28,0.44-0.48c0.11-0.23,0.14-0.47,0.18-0.72c0.05-0.26,0.1-0.51,0.18-0.76
				c0.08-0.25,0.18-0.5,0.26-0.75c0.06-0.19,0.1-0.5-0.1-0.62c-0.17-0.11-0.41,0.02-0.55,0.13c-0.34,0.28-0.41,0.76-0.47,1.17
				c-0.08,0.54-0.15,1.13-0.59,1.5C28.49,18.55,28.75,18.8,28.92,18.65L28.92,18.65z"/>
		</g>
	</g>
	<g>
		<g>
			<path d="M16.71,14.97c2.42,0.04,4.83-0.22,7.25-0.16c1.16,0.03,2.31,0.08,3.47,0.15c0.53,0.03,1.06,0.07,1.59,0.1
				c0.25,0.02,0.55,0.09,0.8,0.08c0.01,0,0.48,0.08,0.32-0.06c0.01,0.01-0.76,0.06-0.85,0.05c-0.27-0.01-0.55-0.04-0.82-0.06
				c-0.59-0.05-1.16-0.02-1.74,0.04c-1.18,0.13-2.33,0.24-3.52,0.21c-1.14-0.03-2.26-0.05-3.4,0c-1.21,0.06-2.41,0.09-3.58-0.29
				c-0.02,0.12-0.03,0.23-0.05,0.35c1.13,0.01,2.23,0.16,3.32,0.45c0.22,0.06,0.31-0.28,0.09-0.34c-1.12-0.3-2.25-0.45-3.41-0.46
				c-0.21,0-0.23,0.29-0.05,0.35c1.2,0.39,2.43,0.37,3.67,0.31c1.41-0.07,2.81,0.01,4.22,0.01c1.45,0,2.89-0.37,4.34-0.28
				c0.31,0.02,2.11,0.34,2.18-0.21c0.05-0.4-0.74-0.43-0.99-0.46c-1.4-0.17-2.84-0.19-4.25-0.25c-2.87-0.11-5.72,0.16-8.59,0.11
				C16.48,14.61,16.48,14.96,16.71,14.97L16.71,14.97z"/>
		</g>
	</g>
	<g>
		<g>
			<path d="M16.35,14.56c-0.91-0.2-1.05,1.05-1.08,1.66c-0.02,0.42,0.02,0.84,0.16,1.25c0.14,0.4,0.33,0.78,0.43,1.2
				c0.02,0.08,0.09,0.12,0.17,0.13c0.28,0.03,0.8-0.12,0.54-0.49c-0.1-0.15-0.27-0.26-0.4-0.38c-0.15-0.13-0.28-0.28-0.38-0.46
				c-0.18-0.34-0.23-0.74-0.28-1.12c-0.02-0.19-0.04-0.41,0.07-0.57c0.09-0.12,0.42-0.19,0.35,0.05c0.1-0.03,0.2-0.05,0.3-0.08
				c-0.19-0.15-0.4-0.3-0.65-0.28c-0.21,0.02-0.39,0.16-0.43,0.37c0.07-0.04,0.15-0.08,0.22-0.12c-0.03-0.01-0.17-0.06-0.16-0.09
				c0-0.03,0.1-0.01,0.14,0c0.03-0.11,0.06-0.23,0.09-0.34c0.01,0.06,0.03,0.12,0.04,0.17c0.16-0.16-0.09-0.41-0.25-0.25
				c-0.13,0.14-0.08,0.38,0.12,0.42c0.22,0.04,0.32-0.3,0.09-0.34c-0.22-0.05-0.52-0.03-0.59,0.24c-0.07,0.29,0.2,0.45,0.42,0.54
				c0.08,0.03,0.2-0.04,0.22-0.12c0.05-0.26,0.39-0.02,0.49,0.06c0.1,0.08,0.26,0.06,0.3-0.08c0.1-0.37-0.26-0.7-0.62-0.6
				c-0.44,0.12-0.54,0.6-0.5,1c0.04,0.45,0.11,0.93,0.33,1.33c0.1,0.19,0.25,0.36,0.41,0.51c0.09,0.08,0.18,0.16,0.27,0.23
				c0.02,0.02,0.05,0.04,0.07,0.07c0.03,0.04,0.03,0.03,0.02-0.02c-0.08,0.01-0.15,0.02-0.23,0.01c0.06,0.04,0.11,0.09,0.17,0.13
				c-0.15-0.65-0.54-1.23-0.58-1.91c-0.02-0.35,0.01-0.71,0.08-1.05c0.05-0.27,0.17-0.79,0.56-0.71
				C16.48,14.95,16.57,14.6,16.35,14.56L16.35,14.56z"/>
		</g>
	</g>
	<g>
		<g>
			<path d="M15.55,18.49c-0.39-0.85-0.63-1.75-0.67-2.69c-0.01-0.17-0.06-0.55,0-0.69c0.2-0.41,0.66-0.51,1.06-0.55
				c0.41-0.04,0.81-0.06,1.22-0.09c1.85-0.11,3.7-0.16,5.55-0.13c1.8,0.02,3.6,0.11,5.39,0.27c0.42,0.04,0.84,0.08,1.26,0.12
				c0.2,0.02,0.77-0.02,0.93,0.11c0.27,0.21,0.31,0.82,0.28,1.13c-0.03,0.32-0.67,2.63-0.9,2.56c-0.22-0.06-0.31,0.28-0.09,0.34
				c0.61,0.17,0.87-1.15,0.99-1.51c0.2-0.61,0.85-2.13,0.24-2.68c-0.18-0.16-0.44-0.18-0.66-0.22c-0.72-0.12-1.48-0.16-2.21-0.22
				c-1.37-0.12-2.74-0.19-4.12-0.23c-2.7-0.08-5.49-0.11-8.18,0.23c-0.8,0.1-1.11,0.33-1.13,1.14c-0.03,1.14,0.25,2.25,0.72,3.28
				C15.34,18.88,15.64,18.7,15.55,18.49L15.55,18.49z"/>
		</g>
	</g>
	<g>
		<g>
			<path d="M27.95,32.61c0.33,0.31,0.92,0.33,1.34,0.4c0.55,0.08,1.11,0.12,1.67,0.13c1.41,0.03,2.81-0.08,4.22-0.03
				c1.26,0.05,2.39-0.14,3.62-0.37c0.69-0.13,1.39-0.25,2.09-0.4c0.24-0.05,0.49-0.09,0.72-0.19c0.34-0.14,0.62-0.42,1-0.44
				c-0.05-0.09-0.1-0.18-0.15-0.27c-0.29,0.6-0.92,0.36-1.28,0.75c-0.2,0.22-0.07,0.4-0.15,0.64c-0.08,0.26-0.36,0.39-0.31,0.7
				c0.04,0.28,0.25,0.41,0.5,0.46c-0.01-0.11-0.03-0.22-0.04-0.32c-0.24,0.13-0.48,0.26-0.72,0.39c-0.2,0.11-0.02,0.41,0.18,0.31
				c0.24-0.13,0.48-0.26,0.72-0.39c0.13-0.07,0.11-0.3-0.04-0.32c-0.29-0.05,0.11-0.59,0.15-0.71c0.09-0.32-0.13-0.18,0.22-0.45
				c0.42-0.33,0.82-0.32,1.08-0.86c0.05-0.11-0.01-0.27-0.15-0.27c-0.4,0.02-0.63,0.22-0.97,0.39c-0.58,0.29-1.33,0.34-1.96,0.46
				c-1.28,0.24-2.57,0.59-3.87,0.57c-1.25-0.02-2.5-0.02-3.75,0c-0.64,0.01-1.28,0.02-1.91-0.03c-0.48-0.04-1.57-0.03-1.95-0.39
				C28.03,32.21,27.78,32.46,27.95,32.61L27.95,32.61z"/>
		</g>
	</g>
	<g>
		<g>
			<path d="M25.99,33.57c-0.01,0.48-0.01,0.96,0.19,1.4c0.1,0.23,0.26,0.42,0.39,0.63c0.07,0.1,0.14,0.2,0.2,0.31
				c0.14,0.28,0.11,0.52,0.16,0.81c0.03,0.21,0.07,0.28,0.18,0.45c0.22,0.32,0.39,0.48,0.48,0.87c0.14,0.64,0.11,1.35,0.38,1.96
				c0.17,0.39,0.46,0.86,0.76,1.17c0.1,0.1,0.21,0.2,0.35,0.26c0.22,0.09,0.39-0.05,0.47,0.2c0.05,0.16-0.05,0.24,0.04,0.4
				c0.06,0.12,0.17,0.2,0.28,0.26c0.13,0.06,0.27,0.08,0.41,0.08c0.4,0.03,0.75,0.05,1.13,0.19c1.14,0.39,2.4,0.35,3.58,0.13
				c0.68-0.13,1.36-0.3,2.03-0.46c0.38-0.09,0.9-0.14,1.17-0.47c0.04-0.05,0.07-0.1,0.1-0.16c0.08-0.2,0.12-0.13-0.06-0.11
				c-0.25,0.03-0.62,0.44-0.88,0.57c-0.63,0.31-1.25,0.34-1.94,0.34c-0.64,0-1.22,0.31-1.86,0.32c-0.7,0.01-1.43-0.19-2.1-0.37
				c-0.35-0.09-0.7-0.2-1.01-0.39c-0.33-0.2-0.5-0.47-0.76-0.73c-0.16-0.16-0.3-0.25-0.51-0.34c-0.44-0.2-0.56-0.29-0.7-0.77
				c-0.17-0.6-0.16-1.33-0.53-1.85c-0.39-0.54-1.2-0.67-1.39-1.36c-0.06-0.22-0.4-0.13-0.34,0.09c0.13,0.44,0.43,0.71,0.8,0.95
				c0.35,0.23,0.66,0.43,0.8,0.84c0.13,0.37,0.18,0.77,0.26,1.15c0.09,0.4,0.19,0.87,0.55,1.11c0.11,0.08,0.21,0.1,0.33,0.14
				c0.43,0.15,0.59,0.46,0.91,0.76c0.8,0.75,2.2,0.98,3.25,1.09c0.66,0.07,1.16-0.08,1.79-0.23c0.61-0.15,1.26,0,1.88-0.16
				c0.45-0.12,2.17-0.77,1.89-1.48c-0.07-0.17-0.27-0.25-0.44-0.16c-0.13,0.08-0.13,0.21-0.21,0.32c-0.29,0.42-0.6,0.44-1.08,0.55
				c-1.51,0.35-3.09,0.79-4.65,0.55c-0.59-0.09-1.11-0.41-1.72-0.42c-0.35-0.01-0.46,0.1-0.65-0.46c-0.01-0.04,0.02-0.11,0-0.16
				c-0.05-0.12-0.07-0.19-0.18-0.27c-0.31-0.23-0.67-0.06-0.94-0.45c-0.21-0.3-0.44-0.62-0.56-0.97c-0.24-0.69-0.13-1.47-0.4-2.15
				c-0.17-0.42-0.46-0.64-0.55-1.12c-0.05-0.25-0.07-0.46-0.2-0.69c-0.14-0.27-0.36-0.5-0.51-0.77c-0.24-0.43-0.24-0.91-0.23-1.39
				C26.35,33.34,26,33.34,25.99,33.57L25.99,33.57z"/>
		</g>
	</g>
	<g>
		<g>
			<path d="M25.48,33.15c0.24,0.93,0.58,1.92,1.59,2.22c1.39,0.42,3.03,0.48,4.47,0.48c1.67,0.01,3.34-0.01,5-0.11
				c0.71-0.05,1.44-0.09,2.14-0.22c0.87-0.17,1.78-1.15,2.66-0.99c-0.03-0.1-0.05-0.2-0.08-0.3c-0.69,0.69-1.17,1.51-1.38,2.47
				c-0.07,0.32-0.1,0.66-0.26,0.95c-0.12,0.22-0.31,0.39-0.43,0.6c-0.23,0.42-0.11,0.89-0.25,1.34c-0.16,0.52-0.67,0.82-0.99,1.24
				c-0.11,0.14-0.17,0.31-0.27,0.45c-0.26,0.36-0.53,0.46-0.95,0.58c-1.38,0.41-2.82,0.71-4.26,0.45c-0.61-0.11-1.22-0.28-1.81-0.49
				c-0.44-0.15-0.55-0.28-0.68-0.73c-0.03-0.12-0.01-0.22-0.08-0.34c-0.2-0.33-0.65-0.45-0.87-0.78c-0.2-0.3-0.25-0.68-0.48-0.97
				c-0.35-0.42-0.83-0.42-0.95-1.05c-0.14-0.73,0.34-1.37,0.28-2.08c-0.03-0.38-0.26-0.69-0.43-1.02c-0.15-0.29-0.28-0.59-0.39-0.9
				c-0.05-0.15-0.27-0.93-0.17-0.83c0.12,0.12,0.08,0.91,0.17,1.17c0.2,0.57,0.45,1.07,0.55,1.67c0.07,0.44,0.16,0.69,0.38,1.06
				c0.31,0.53,0.15,1.08,0.37,1.66c0.08,0.21,0.42,0.12,0.34-0.09c-0.16-0.43-0.07-0.71-0.09-1.14c-0.01-0.18-0.01-0.23-0.1-0.39
				c-0.17-0.31-0.39-0.37-0.49-0.76c-0.08-0.28-0.07-0.58-0.14-0.86c-0.19-0.79-0.6-1.35-0.56-2.2c0.02-0.35,0.11-0.67-0.22-0.9
				c-0.18-0.13-0.43-0.16-0.6,0.01c-0.27,0.28-0.02,0.91,0.07,1.2c0.18,0.61,0.46,1.13,0.71,1.7c0.24,0.57,0.21,0.99,0.07,1.55
				c-0.1,0.39-0.14,0.78-0.1,1.17c0.03,0.34,0.09,0.66,0.38,0.87c0.29,0.21,0.57,0.25,0.8,0.61c0.15,0.24,0.2,0.54,0.36,0.78
				c0.27,0.42,0.72,0.53,0.85,1.04c0.11,0.4,0.16,0.56,0.58,0.76c1.18,0.55,2.68,0.81,3.97,0.71c0.71-0.05,1.4-0.2,2.08-0.38
				c0.47-0.13,1.18-0.2,1.54-0.57c0.16-0.17,0.21-0.41,0.33-0.6c0.2-0.31,0.5-0.54,0.75-0.82c0.37-0.43,0.42-0.8,0.5-1.34
				c0.08-0.57,0.33-0.77,0.57-1.2c0.16-0.28,0.2-0.59,0.27-0.91c0.2-0.95,0.62-1.75,1.31-2.44c0.09-0.09,0.06-0.27-0.08-0.3
				c-0.54-0.1-0.93,0.04-1.4,0.32c-0.75,0.45-1.38,0.67-2.27,0.77c-1.48,0.16-2.97,0.19-4.45,0.21c-1.4,0.01-2.8,0.04-4.2-0.14
				c-0.67-0.08-1.6-0.1-2.22-0.42c-0.69-0.36-0.9-1.19-1.08-1.88C25.76,32.83,25.42,32.93,25.48,33.15L25.48,33.15z"/>
		</g>
	</g>
	<g>
		<g>
			<path d="M35.62,23.72c-0.88,0.36-1.78,0.74-2.5,1.37c-0.76,0.67-1.3,1.62-1.83,2.47c-0.55,0.87-1.01,1.87-0.9,2.93
				c0.03,0.33,0.14,0.69,0.42,0.9c0.39,0.29,0.63-0.05,1.02-0.05c-0.06-0.06-0.12-0.12-0.18-0.18c0.05,0.2-0.04,0.26-0.26,0.17
				c0.02-0.09,0.06-0.17,0.1-0.25c0.08-0.16,0.19-0.28,0.32-0.41c-0.09-0.07-0.19-0.14-0.28-0.21c-0.03,0.06-0.06,0.11-0.09,0.17
				c-0.11,0.2,0.2,0.38,0.31,0.18c0.03-0.06,0.06-0.11,0.09-0.17c0.09-0.18-0.13-0.36-0.28-0.21c-0.28,0.27-0.84,1-0.37,1.35
				c0.45,0.33,0.83-0.2,0.82-0.61c0-0.09-0.08-0.18-0.18-0.18c-0.37,0.01-0.72,0.36-0.96-0.06c-0.22-0.38-0.16-0.95-0.08-1.36
				c0.18-0.89,0.69-1.66,1.19-2.41c0.46-0.69,0.9-1.43,1.56-1.95c0.65-0.51,1.41-0.83,2.17-1.14
				C35.92,23.97,35.83,23.63,35.62,23.72L35.62,23.72z"/>
		</g>
	</g>
	<g>
		<g>
			<path d="M35.54,32.54c0.62,0.01,1.03-0.42,1.46-0.8c0.27-0.24,0.55-0.38,0.91-0.46c0.28-0.06,0.56-0.09,0.83-0.18
				c0.24-0.08,0.44-0.2,0.62-0.37c0.12-0.12,0.2-0.26,0.38-0.24c0.18,0.01,0.25,0.21,0.36,0.34c0.17,0.2,0.4,0.35,0.65,0.45
				c0.17,0.06,1.09,0.12,0.9,0.42c-0.12,0.2,0.19,0.37,0.31,0.18c0.14-0.22,0.07-0.49-0.13-0.66c-0.25-0.21-0.6-0.16-0.9-0.25
				c-0.21-0.07-0.4-0.19-0.55-0.35c-0.12-0.13-0.2-0.31-0.35-0.42c-0.22-0.16-0.46-0.11-0.66,0.04c-0.3,0.23-0.47,0.46-0.86,0.57
				c-0.33,0.09-0.68,0.11-1.01,0.23c-0.72,0.25-1.18,1.18-1.98,1.16C35.31,32.18,35.31,32.54,35.54,32.54L35.54,32.54z"/>
		</g>
	</g>
	<g>
		<g>
			<path d="M26.5,30.81c-0.82,0.26-0.71,1.12-0.64,1.82c0.11,1.14,0.37,2.16,0.93,3.16c0.65,1.15,0.97,2.21,1.24,3.48
				c0.19,0.87,0.64,1.51,1.47,1.87c1.04,0.45,2.32,0.41,3.43,0.45c1.31,0.05,2.77,0.17,4.06-0.14c0.9-0.21,2-0.79,2.56-1.54
				c0.66-0.89,0.91-2.26,1.27-3.29c0.48-1.39,1.16-2.85,1.42-4.31c0.16-0.9-0.18-1.69-1.08-1.99c-0.22-0.07-0.31,0.27-0.09,0.34
				c1.62,0.53,0.49,2.73,0.13,3.8c-0.4,1.18-0.81,2.36-1.23,3.54c-0.22,0.61-0.38,1.38-0.83,1.86c-0.38,0.4-0.99,0.75-1.49,0.98
				c-1.26,0.59-2.87,0.44-4.24,0.4c-1.2-0.03-2.65,0.04-3.77-0.45c-1.31-0.57-1.22-1.83-1.55-3c-0.28-0.97-0.81-1.77-1.25-2.67
				c-0.33-0.67-1.3-3.66-0.25-4C26.81,31.08,26.71,30.74,26.5,30.81L26.5,30.81z"/>
		</g>
	</g>
	<g>
		<g>
			<path d="M39.22,24.32c0-0.55-0.04-1.11-0.42-1.54c-0.37-0.42-0.91-0.7-1.42-0.89c-0.55-0.21-1.17-0.33-1.76-0.29
				c-0.36,0.03-0.83,0.27-0.71,0.71c0.11,0.4,0.6,0.36,0.88,0.19c0.28-0.17,0.49-0.32,0.84-0.3c0.33,0.02,0.65,0.14,0.95,0.26
				c0.54,0.22,1.24,0.52,1.29,1.2c0.04,0.57-0.3,1.11-0.38,1.66c-0.09,0.61,0.4,1.59-0.36,1.9c-0.32,0.13-0.58,0.47-0.83,0.71
				c-0.31,0.29-0.61,0.58-0.92,0.87c-0.17,0.16,0.08,0.41,0.25,0.25c0.48-0.45,0.94-0.92,1.43-1.35c0.18-0.16,0.42-0.16,0.57-0.35
				c0.14-0.19,0.25-0.51,0.29-0.74c0.04-0.22,0-0.42-0.05-0.64c-0.07-0.32-0.05-0.6,0.04-0.92c0.12-0.44,0.32-0.87,0.31-1.34
				c-0.02-0.95-0.95-1.36-1.71-1.65c-0.44-0.16-0.95-0.31-1.42-0.14c-0.2,0.07-0.34,0.22-0.53,0.3c-0.09,0.04-0.28,0.15-0.31-0.07
				c-0.01-0.06,0.24-0.17,0.29-0.18c0.15-0.04,0.34-0.02,0.49-0.01c0.68,0.04,1.35,0.25,1.93,0.6c0.28,0.17,0.56,0.37,0.73,0.67
				c0.19,0.33,0.18,0.73,0.18,1.1C38.86,24.55,39.22,24.55,39.22,24.32L39.22,24.32z"/>
		</g>
	</g>
	<g>
		<g>
			<path d="M31.06,31.45c-0.33,0.17-0.61-0.15-0.68-0.45c-0.06-0.26-0.03-0.54,0.03-0.79c0.11-0.5,0.35-0.96,0.6-1.41
				c0.48-0.88,1.05-1.72,1.71-2.48c0.3-0.35,0.62-0.73,1-1c0.41-0.29,0.91-0.45,1.38-0.62c0.49-0.18,0.98-0.35,1.5-0.45
				c0.51-0.11,1.09-0.2,1.54,0.13c-0.01-0.09-0.02-0.19-0.04-0.28c-0.04,0.04-0.08,0.09-0.12,0.13c0.1,0.03,0.2,0.05,0.3,0.08
				c-0.03-0.08-0.03-0.17-0.02-0.25c0.02-0.23-0.33-0.23-0.35,0c-0.01,0.12,0,0.23,0.03,0.35c0.03,0.13,0.2,0.17,0.3,0.08
				c0.04-0.04,0.08-0.09,0.12-0.13c0.09-0.09,0.06-0.21-0.04-0.28c-0.45-0.33-0.99-0.3-1.52-0.22c-0.71,0.11-1.39,0.36-2.07,0.61
				c-0.55,0.21-1.07,0.42-1.52,0.82c-0.45,0.41-0.85,0.89-1.22,1.38c-0.76,0.98-1.56,2.12-1.89,3.33c-0.13,0.47-0.19,1.05,0.09,1.48
				c0.23,0.36,0.67,0.49,1.05,0.3C31.44,31.65,31.26,31.34,31.06,31.45L31.06,31.45z"/>
		</g>
	</g>
	<g>
		<g>
			<path d="M28.75,29.55c0.02-0.07,0.04-0.14,0.06-0.22c0.01-0.02,0.01-0.05,0-0.07c0-0.02-0.01-0.05-0.02-0.07
				c-0.01-0.02-0.03-0.04-0.05-0.05c-0.02-0.02-0.04-0.03-0.06-0.03c-0.05-0.01-0.1-0.01-0.14,0.02c-0.04,0.03-0.07,0.06-0.08,0.11
				c-0.02,0.07-0.04,0.14-0.06,0.22c-0.01,0.02-0.01,0.05,0,0.07c0,0.02,0.01,0.05,0.02,0.07c0.01,0.02,0.03,0.04,0.05,0.05
				c0.02,0.02,0.04,0.03,0.06,0.03c0.05,0.01,0.1,0.01,0.14-0.02C28.7,29.63,28.73,29.59,28.75,29.55L28.75,29.55z"/>
		</g>
	</g>
	<g>
		<g>
			<path d="M38.13,26.21c-1.05-0.12-2.11,0.3-2.8,1.09c-0.11,0.12-0.01,0.36,0.17,0.3c0.31-0.11,0.57-0.28,0.8-0.51
				c0.13-0.14,0.24-0.29,0.43-0.35c0.19-0.06,0.4-0.06,0.59-0.07c0.19-0.01,0.38-0.02,0.57-0.02c0.08,0,0.19-0.01,0.27,0.01
				c0.07,0.03,0.09,0.03,0.12,0.11c0.03,0.09,0,0.11-0.08,0.15c-0.25,0.13-0.54,0.1-0.7,0.38c-0.14,0.25,0,0.57-0.14,0.8
				c-0.08,0.13-0.26,0.2-0.37,0.3c-0.1,0.09-0.19,0.19-0.26,0.3c-0.32,0.44-0.47,1.04-0.92,1.38c-0.15,0.11-0.34,0.18-0.5,0.28
				c-0.15,0.1-0.28,0.22-0.42,0.34c-0.33,0.26-0.72,0.43-1.13,0.52c-0.22,0.05-0.13,0.39,0.09,0.34c0.39-0.09,0.77-0.24,1.1-0.47
				c0.15-0.1,0.27-0.22,0.41-0.33c0.18-0.14,0.4-0.22,0.59-0.34c0.55-0.37,0.7-1.03,1.08-1.53c0.2-0.26,0.57-0.38,0.68-0.69
				c0.05-0.14,0.04-0.29,0.05-0.44c0-0.08-0.01-0.19,0.04-0.26c0.07-0.11,0.23-0.13,0.35-0.17c0.26-0.07,0.55-0.25,0.52-0.56
				c-0.04-0.35-0.4-0.46-0.7-0.46c-0.26,0-0.53,0.02-0.79,0.03c-0.22,0.01-0.45,0.03-0.65,0.12c-0.19,0.08-0.31,0.22-0.45,0.37
				c-0.19,0.2-0.41,0.36-0.67,0.45c0.06,0.1,0.11,0.2,0.17,0.3c0.64-0.73,1.59-1.1,2.55-0.99C38.36,26.59,38.36,26.23,38.13,26.21
				L38.13,26.21z"/>
		</g>
	</g>
	<g>
		<g>
			<path d="M33.01,31.62c-0.28-1.03,0.08-2.12,0.52-3.05c0.4-0.85,0.97-1.64,1.74-2.2c0.78-0.57,1.8-0.89,2.76-0.72
				c0.04,0.01,0.27,0.04,0.28,0.08c0.03,0.1-0.23-0.01-0.24-0.01c-0.21-0.06-0.42-0.07-0.64-0.05c-0.44,0.05-0.86,0.23-1.26,0.41
				c-0.81,0.35-1.65,0.79-2.07,1.61c-0.1,0.2,0.2,0.38,0.31,0.18c0.46-0.93,1.59-1.4,2.52-1.71c0.29-0.1,0.61-0.18,0.92-0.12
				c0.21,0.04,0.44,0.18,0.65,0.09c0.37-0.15,0.22-0.6-0.07-0.73c-0.41-0.19-1-0.16-1.43-0.1c-0.52,0.07-1.01,0.25-1.47,0.5
				c-0.93,0.52-1.64,1.36-2.13,2.28c-0.58,1.09-1.05,2.41-0.72,3.64C32.72,31.93,33.07,31.84,33.01,31.62L33.01,31.62z"/>
		</g>
	</g>
	<g>
		<g>
			<path d="M27.98,30.53c0.12,0.35,0.25,0.72,0.51,1.01c0.29,0.32,0.71,0.44,1.11,0.52c0.93,0.2,1.88,0.16,2.82,0.11
				c0.23-0.01,0.23-0.37,0-0.35c-0.83,0.04-1.67,0.08-2.5-0.06c-0.37-0.06-0.81-0.13-1.1-0.39c-0.27-0.24-0.39-0.61-0.51-0.94
				C28.25,30.22,27.91,30.31,27.98,30.53L27.98,30.53z"/>
		</g>
	</g>
	<g>
		<g>
			<path d="M33,32.28c2.11-0.73,3.74-2.58,4.9-4.42c0.62-0.98,1.11-2.06,1.32-3.21c0.21-1.13,0.1-2.02-0.53-2.99
				c-0.63-0.98-1.41-1.45-2.57-1.61c-1.18-0.16-2.39,0.04-3.48,0.51c-2.01,0.87-3.51,2.62-4.59,4.48c-0.66,1.15-1.17,2.4-1.09,3.75
				c0.07,1.17,0.52,2.25,1.25,3.16c0.14,0.18,0.39-0.08,0.25-0.25c-1.46-1.78-1.41-4.04-0.37-6.01c0.9-1.72,2.16-3.37,3.85-4.38
				c1.63-0.98,4.62-1.66,6.06,0c0.34,0.39,0.67,0.9,0.85,1.39c0.21,0.59,0.14,1.25,0.03,1.85c-0.18,0.99-0.57,1.92-1.08,2.78
				c-1.1,1.89-2.77,3.86-4.9,4.6C32.69,32.02,32.78,32.36,33,32.28L33,32.28z"/>
		</g>
	</g>
	<g>
		<g>
			<path d="M40.48,22.81c-0.04,0.92,0.27,1.82,0.37,2.73c0.1,0.94,0.07,1.9-0.09,2.84c-0.02,0.09,0.02,0.19,0.12,0.22
				c0.04,0.01,0.08,0.02,0.12,0.03c0.22,0.06,0.31-0.28,0.09-0.34c-0.04-0.01-0.08-0.02-0.12-0.03c0.04,0.07,0.08,0.15,0.12,0.22
				c0.15-0.93,0.2-1.88,0.11-2.82c-0.09-0.95-0.43-1.88-0.38-2.84C40.85,22.58,40.49,22.58,40.48,22.81L40.48,22.81z"/>
		</g>
	</g>
	<g>
		<g>
			<path d="M38.52,20.37c0.37,0.89,1.04,1.69,1.53,2.53c0.56,0.96,1.09,1.88,1.19,3.01c0.04,0.46,0.09,0.88,0.24,1.32
				c0.19,0.55,0.33,1.05,0.29,1.63c-0.04,0.57-0.21,1.13-0.38,1.67c-0.08,0.25-0.29,0.57-0.15,0.83c0.04,0.08,0.17,0.12,0.24,0.06
				c0.01-0.01,0.03-0.02,0.04-0.03c0.07-0.05,0.13-0.16,0.06-0.24c-0.01-0.01-0.01-0.02-0.02-0.03c-0.14-0.18-0.44,0-0.31,0.18
				c0.01,0.01,0.01,0.02,0.02,0.03c0.02-0.08,0.04-0.16,0.06-0.24c-0.01,0.01-0.03,0.02-0.04,0.03c0.08,0.02,0.16,0.04,0.24,0.06
				c-0.03-0.05,0.16-0.47,0.18-0.55c0.08-0.25,0.16-0.5,0.22-0.76c0.11-0.45,0.2-0.92,0.18-1.38c-0.01-0.48-0.16-0.9-0.31-1.35
				c-0.18-0.51-0.2-1.02-0.26-1.55c-0.11-0.92-0.55-1.72-1.01-2.51c-0.27-0.46-0.54-0.93-0.82-1.38c-0.29-0.46-0.66-0.9-0.88-1.41
				C38.77,20.07,38.43,20.16,38.52,20.37L38.52,20.37z"/>
		</g>
	</g>
	<g>
		<g>
			<path d="M26.5,31.47c0.71,0.83,2.23,0.84,3.23,0.95c1.53,0.18,3.08,0.18,4.62,0.1c1.5-0.08,2.99-0.23,4.48-0.38
				c0.84-0.08,2.24,0.03,2.67-0.89c0.09-0.21-0.21-0.39-0.31-0.18c-0.3,0.66-1.23,0.61-1.83,0.67c-0.54,0.05-1.09,0.11-1.63,0.16
				c-1.22,0.12-2.43,0.23-3.65,0.28c-1.21,0.05-2.43,0.05-3.64-0.05c-0.63-0.05-1.27-0.13-1.89-0.24c-0.6-0.11-1.37-0.18-1.78-0.67
				C26.61,31.04,26.36,31.29,26.5,31.47L26.5,31.47z"/>
		</g>
	</g>
	<g>
		<g>
			<path d="M34.44,19.48c0.51,0.35,1.08,0.32,1.68,0.35c0.77,0.03,1.48,0.27,2.1,0.73c1.51,1.12,1.76,2.83,1.33,4.57
				c-0.35,1.39-0.94,2.73-1.75,3.91c-0.44,0.64-0.94,1.23-1.5,1.75c-0.27,0.26-0.56,0.5-0.87,0.72c-0.21,0.15-0.78,0.66-1.04,0.63
				c0.06,0.04,0.11,0.09,0.17,0.13c0-0.02-0.01-0.04-0.01-0.06c-0.03,0.07-0.05,0.13-0.08,0.2c0.02-0.01,0.03-0.02,0.05-0.02
				c0.2-0.1,0.02-0.41-0.18-0.31c-0.02,0.01-0.03,0.02-0.05,0.02c-0.07,0.04-0.1,0.13-0.08,0.2c0,0.02,0.01,0.04,0.01,0.06
				c0.02,0.08,0.09,0.12,0.17,0.13c0.5,0.06,1.28-0.71,1.64-1.01c0.65-0.53,1.22-1.13,1.73-1.8c1.01-1.32,1.73-2.86,2.13-4.47
				c0.4-1.61,0.29-3.19-0.89-4.44c-0.48-0.51-1.09-0.91-1.76-1.12c-0.84-0.27-1.9,0.02-2.63-0.49
				C34.43,19.05,34.25,19.35,34.44,19.48L34.44,19.48z"/>
		</g>
	</g>
	<g>
		<g>
			<path d="M34.04,19.4c-1.31,0.42-2.63,0.85-3.73,1.71c-1.12,0.88-2.06,2.06-2.82,3.26c-0.74,1.17-1.26,2.49-1.39,3.88
				c-0.11,1.23,0.05,2.64,0.96,3.55c0.16,0.16,0.41-0.09,0.25-0.25c-0.96-0.95-1.01-2.54-0.79-3.79c0.22-1.28,0.78-2.48,1.51-3.55
				c0.7-1.03,1.53-2.05,2.52-2.82c1.05-0.82,2.33-1.24,3.59-1.63C34.35,19.67,34.26,19.33,34.04,19.4L34.04,19.4z"/>
		</g>
	</g>
</g>
</svg>
