<?xml version="1.0" encoding="utf-8"?>
<!-- Generator: Adobe Illustrator 26.2.1, SVG Export Plug-In . SVG Version: 6.00 Build 0)  -->
<svg version="1.1" id="Layer_1" xmlns="http://www.w3.org/2000/svg" xmlns:xlink="http://www.w3.org/1999/xlink" x="0px" y="0px"
	 viewBox="0 0 56.69 56.69" style="enable-background:new 0 0 56.69 56.69;" xml:space="preserve">
<g>
	<g>
		<g>
			<path d="M21.85,21.81c-0.93,1.29-0.06,2.66,1.27,3.12c0.92,0.32,1.94,0.45,2.9,0.61c1.05,0.17,2.12,0.27,3.19,0.19
				c1.56-0.12,3.15-0.66,4.26-1.8c0.4-0.41,0.9-1.07,0.62-1.68c-0.2-0.44-0.76-0.66-1.17-0.36c-0.18,0.13-0.01,0.44,0.18,0.31
				c0.32-0.23,0.66,0.15,0.71,0.44c0.04,0.22-0.18,0.55-0.31,0.72c-0.16,0.21-0.35,0.41-0.55,0.58c-0.46,0.4-0.99,0.71-1.55,0.94
				c-1.13,0.46-2.37,0.58-3.58,0.52c-1.34-0.07-2.7-0.32-4-0.63c-0.56-0.13-1.15-0.31-1.56-0.72c-0.56-0.57-0.55-1.42-0.1-2.04
				C22.29,21.8,21.98,21.62,21.85,21.81L21.85,21.81z"/>
		</g>
	</g>
	<g>
		<g>
			<path d="M35.46,13.06c0.32,1.03,1.4,1.4,2.37,1.55c0.91,0.14,1.96,0.24,2.69-0.42c0.12-0.11,0.02-0.3-0.13-0.3
				c-0.19,0-0.34,0.06-0.47,0.2c-0.16,0.16,0.09,0.41,0.25,0.25c0.07-0.07,0.12-0.09,0.22-0.09c-0.04-0.1-0.08-0.2-0.13-0.3
				c-0.63,0.57-1.58,0.45-2.35,0.33c-0.83-0.13-1.84-0.4-2.12-1.3C35.73,12.75,35.39,12.84,35.46,13.06L35.46,13.06z"/>
		</g>
	</g>
	<g>
		<g>
			<path d="M38.78,40.41c-0.05,0.38-0.05,0.82-0.14,1.19c-0.14,0.51-0.29,0.59-0.77,0.8c-0.69,0.3-1.39,0.59-2.1,0.84
				c-1.41,0.51-2.85,0.89-4.32,1.14c-1.42,0.23-2.8,0.5-4.17,0.96c-0.66,0.22-1.32,0.47-1.97,0.73c-0.35,0.14-0.69,0.28-1.04,0.43
				c-0.17,0.07-0.34,0.14-0.52,0.22c-0.1,0.03-0.12,0.11-0.08,0.25c0.11-0.2-0.19-0.38-0.31-0.18c-0.01,0.02-0.03,0.04-0.04,0.07
				c-0.04,0.07-0.03,0.16,0.03,0.21c0.02,0.02,0.04,0.04,0.06,0.05c0.06,0.06,0.14,0.06,0.21,0.03c1.49-0.63,2.99-1.26,4.54-1.72
				c1.53-0.45,3.1-0.6,4.65-0.95c1.5-0.33,2.96-0.83,4.38-1.41c0.28-0.12,0.56-0.24,0.84-0.36c0.24-0.1,0.68-0.2,0.84-0.4
				c0.1-0.13,0.07-0.4,0.09-0.55c0.05-0.45,0.11-0.89,0.16-1.34C39.16,40.18,38.81,40.19,38.78,40.41L38.78,40.41z"/>
		</g>
	</g>
	<g>
		<g>
			<path d="M16.12,38.06c0,0.48-0.07,1.02,0.01,1.5c0.07,0.4,0.49,0.7,0.76,0.97c0.77,0.77,1.58,1.49,2.37,2.24
				c0.77,0.73,1.47,1.52,2.2,2.29c0.75,0.78,1.59,1.43,2.46,2.07c0.14,0.1,0.28-0.07,0.26-0.2c-0.15-0.85-0.25-1.69-0.29-2.55
				c0-0.08-0.05-0.15-0.13-0.17c-0.12-0.04-0.16-0.04-0.27,0.01c-0.21,0.08-0.12,0.43,0.09,0.34c0.03,0,0.06,0,0.09-0.01
				c-0.04-0.06-0.09-0.11-0.13-0.17c0.05,0.89,0.15,1.77,0.3,2.65c0.09-0.07,0.17-0.13,0.26-0.2c-0.82-0.6-1.63-1.21-2.34-1.95
				c-0.68-0.7-1.32-1.43-2.02-2.11c-0.68-0.66-1.39-1.3-2.07-1.95c-0.18-0.17-0.36-0.35-0.54-0.53c-0.16-0.16-0.41-0.34-0.53-0.54
				c-0.27-0.45-0.14-1.17-0.15-1.68C16.48,37.83,16.12,37.83,16.12,38.06L16.12,38.06z"/>
		</g>
	</g>
	<g>
		<g>
			<path d="M30.99,40.76c1.54-0.16,3.08-0.4,4.6-0.71c0.22-0.05,0.13-0.38-0.09-0.34c-0.09,0.02-0.19,0.03-0.28,0.05
				c-0.22,0.04-0.13,0.38,0.09,0.34c0.09-0.02,0.19-0.03,0.28-0.05c-0.03-0.11-0.06-0.23-0.09-0.34c-1.49,0.31-2.99,0.54-4.5,0.7
				C30.76,40.43,30.76,40.79,30.99,40.76L30.99,40.76z"/>
		</g>
	</g>
	<g>
		<g>
			<path d="M24.32,45.25c1.17-0.57,2.36-1.12,3.56-1.64c-0.08-0.08-0.16-0.16-0.24-0.24c-0.13,0.21-0.25,0.42-0.38,0.63
				c-0.08,0.12,0.05,0.32,0.2,0.26c0.73-0.28,1.45-0.55,2.18-0.83c-0.07-0.04-0.15-0.08-0.22-0.12c0.14,0.4,0.52,0.41,0.86,0.24
				c0.72-0.37,1.36-0.77,2.14-1.03c-0.07-0.06-0.15-0.11-0.22-0.17c0.04,0.16,0.03,0.33-0.02,0.49c-0.03,0.13,0.08,0.26,0.22,0.22
				c0.22-0.07,2.31-0.49,1.6-0.99c-0.03,0.11-0.06,0.22-0.09,0.33c0.13,0,0.25,0,0.38,0c0.23,0,0.23-0.36,0-0.35
				c-0.13,0-0.25,0-0.38,0c-0.19,0-0.23,0.23-0.09,0.33c-0.01-0.04-0.03-0.08-0.04-0.12c-0.06,0.02-0.12,0.04-0.19,0.06
				c-0.15,0.02-0.32,0.1-0.46,0.15c-0.28,0.09-0.56,0.18-0.83,0.26c0.07,0.07,0.15,0.15,0.22,0.22c0.05-0.21,0.06-0.37,0.03-0.59
				c-0.01-0.11-0.1-0.21-0.22-0.17c-0.4,0.13-0.8,0.29-1.18,0.47c-0.14,0.07-1.3,0.81-1.38,0.57c-0.03-0.08-0.12-0.16-0.22-0.12
				c-0.73,0.28-1.45,0.55-2.18,0.83c0.07,0.09,0.13,0.17,0.2,0.26c0.13-0.21,0.25-0.42,0.38-0.63c0.1-0.17-0.09-0.31-0.24-0.24
				c-1.2,0.52-2.38,1.07-3.56,1.64C23.94,45.04,24.12,45.35,24.32,45.25L24.32,45.25z"/>
		</g>
	</g>
	<g>
		<g>
			<path d="M19.33,38.34c-0.28,0.37-0.4,0.91-0.23,1.36c0.07,0.2,0.22,0.36,0.44,0.39c0.25,0.03,0.45-0.12,0.63-0.27
				c-0.08,0-0.17,0-0.25,0c0.23,0.28,0.47,0.55,0.72,0.81c0.21,0.22,0.44,0.46,0.72,0.59c0.13,0.06,0.27,0.09,0.41,0.06
				c0.03,0,0.12-0.04,0.15-0.04c0.05,0.01,0.14,0.12,0.18,0.15c0.25,0.2,0.55,0.32,0.86,0.37c0.22,0.03,0.32-0.31,0.09-0.34
				c-0.3-0.04-0.57-0.16-0.8-0.36c-0.09-0.08-0.16-0.16-0.29-0.17c-0.16-0.02-0.29,0.07-0.45,0c-0.27-0.11-0.5-0.39-0.7-0.59
				c-0.23-0.24-0.45-0.48-0.65-0.74c-0.06-0.08-0.18-0.06-0.25,0c-0.09,0.08-0.26,0.23-0.39,0.16c-0.12-0.07-0.14-0.28-0.14-0.39
				c-0.02-0.3,0.08-0.57,0.26-0.81C19.78,38.34,19.47,38.16,19.33,38.34L19.33,38.34z"/>
		</g>
	</g>
	<g>
		<g>
			<path d="M18.67,36.77c-1.05-0.97-1.3,1.2-2.08,1.23c-0.16,0.01-0.23,0.19-0.13,0.3c1.59,1.73,3.18,3.46,4.97,4.98
				c0.56,0.48,1.32,1.29,2.03,1.53c0.76,0.26,1.93-0.4,2.68-0.58c4.43-1.04,9.17-0.88,13.21-3.26c0.06-0.04,0.11-0.13,0.08-0.2
				c-0.44-1.14-1.3-1.88-2.51-2.12c-0.22-0.04-0.32,0.3-0.09,0.34c0.62,0.12,1.19,0.38,1.64,0.84c0.21,0.22,0.57,0.69,0.37,1.03
				c-0.08,0.14-0.54,0.29-0.69,0.36c-1.1,0.53-2.28,0.9-3.47,1.18c-2.17,0.51-4.4,0.71-6.59,1.08c-1.08,0.18-2.17,0.4-3.22,0.71
				c-0.71,0.21-1.12,0.3-1.79-0.09c-0.54-0.32-1.05-0.81-1.53-1.22c-1.73-1.49-3.27-3.17-4.81-4.85c-0.04,0.1-0.08,0.2-0.13,0.3
				c0.31-0.01,0.43-0.03,0.67-0.23c0.19-0.16,0.64-1.59,1.16-1.1C18.58,37.18,18.83,36.93,18.67,36.77L18.67,36.77z"/>
		</g>
	</g>
	<g>
		<g>
			<path d="M26.84,39.22c-0.28,0.49-0.58,0.95-0.91,1.4c-0.12,0.16,0.1,0.31,0.24,0.24c0.66-0.31,1.24-0.78,1.89-1.11
				c0.68-0.34,1.45-0.4,2.14-0.69c0.39-0.16,0.77-0.35,1.18-0.43c0.42-0.08,0.85-0.08,1.27-0.14c0.34-0.05,0.68-0.13,1.01-0.22
				c0.16-0.04,1.14-0.4,1.24-0.24c0.12,0.19,0.43,0.01,0.31-0.18c-0.12-0.18-0.28-0.21-0.49-0.19c-0.44,0.04-0.88,0.2-1.31,0.31
				c-0.93,0.24-1.91,0.17-2.81,0.54c-0.42,0.17-0.82,0.35-1.25,0.46c-0.4,0.1-0.8,0.18-1.18,0.34c-0.77,0.32-1.42,0.88-2.18,1.24
				c0.08,0.08,0.16,0.16,0.24,0.24c0.33-0.45,0.64-0.92,0.91-1.4C27.26,39.2,26.96,39.02,26.84,39.22L26.84,39.22z"/>
		</g>
	</g>
	<g>
		<g>
			<path d="M26.29,37.62c-0.08,0.88-0.17,1.76-0.25,2.64c-0.01,0.08,0.06,0.14,0.13,0.17c0.05,0.02,0.1,0.04,0.15,0.06
				c0.21,0.08,0.3-0.26,0.09-0.34c-0.05-0.02-0.1-0.04-0.15-0.06c0.04,0.06,0.09,0.11,0.13,0.17c0.08-0.88,0.17-1.76,0.25-2.64
				C26.67,37.39,26.31,37.39,26.29,37.62L26.29,37.62z"/>
		</g>
	</g>
	<g>
		<g>
			<path d="M29.97,36.12c0.03,0.14,0.05,0.28,0.08,0.42c0.03,0.14,0.14,0.24,0.29,0.24c0.24-0.01,0.5-0.18,0.66-0.35
				c0.06-0.06,0.07-0.16,0.01-0.23c-0.06-0.07-0.14-0.08-0.23-0.05c-0.32,0.14-0.59,0.38-0.77,0.68c-0.06,0.09-0.01,0.24,0.11,0.26
				c0.21,0.04,0.4,0.02,0.59-0.06c-0.09-0.04-0.17-0.07-0.26-0.11c0.02,0.07,0,0.16,0.01,0.23c0.01,0.1,0.06,0.2,0.15,0.25
				c0.16,0.11,0.37,0.06,0.52-0.04c0.07-0.04,0.14-0.1,0.22-0.13c0.09-0.03,0.2-0.03,0.29-0.04c0.18-0.02,0.36-0.1,0.44-0.27
				c0.11-0.2-0.2-0.38-0.31-0.18c-0.05,0.09-0.17,0.1-0.26,0.11c-0.16,0.01-0.31,0.03-0.45,0.12c-0.08,0.05-0.18,0.14-0.27,0.13
				c0.02,0,0,0.05,0.01-0.01c0-0.02,0-0.04,0-0.05c0-0.08,0-0.15-0.02-0.23c-0.03-0.12-0.16-0.15-0.26-0.11
				c-0.1,0.04-0.21,0.05-0.32,0.03c0.04,0.09,0.07,0.17,0.11,0.26c0.15-0.25,0.37-0.44,0.64-0.56c-0.07-0.09-0.14-0.19-0.21-0.28
				c-0.05,0.06-0.11,0.11-0.17,0.15c-0.07,0.04-0.13,0.06-0.2,0.09c0,0-0.03,0.01-0.03,0.01c0.02,0.02,0.04,0.04,0.06,0.06
				c0-0.01,0-0.01-0.01-0.02c0-0.04-0.02-0.09-0.02-0.13c-0.02-0.1-0.04-0.21-0.06-0.31c-0.02-0.09-0.13-0.15-0.22-0.12
				C30,35.93,29.95,36.03,29.97,36.12L29.97,36.12z"/>
		</g>
	</g>
	<g>
		<g>
			<path d="M30.65,35.32c-0.28,0.03-0.51,0.2-0.65,0.44c-0.15,0.26-0.17,0.57-0.16,0.86c0.01,0.3,0.07,0.58,0.33,0.77
				c0.21,0.16,0.49,0.27,0.76,0.31c0.28,0.04,0.57-0.02,0.78-0.22c0.19-0.18,0.29-0.45,0.34-0.7c0.09-0.53-0.05-1.14-0.54-1.43
				c-0.24-0.14-0.54-0.19-0.8-0.1c-0.31,0.11-0.46,0.39-0.68,0.61c-0.16,0.16,0.09,0.41,0.25,0.25c0.15-0.15,0.26-0.35,0.43-0.47
				c0.14-0.09,0.3-0.1,0.46-0.06c0.39,0.11,0.56,0.5,0.55,0.88c0,0.34-0.13,0.83-0.53,0.89c-0.2,0.03-0.41-0.04-0.59-0.12
				c-0.19-0.08-0.35-0.19-0.39-0.41c-0.04-0.24-0.03-0.52,0.04-0.75c0.06-0.18,0.2-0.37,0.4-0.4c0.09-0.01,0.18-0.07,0.18-0.18
				C30.82,35.41,30.74,35.3,30.65,35.32L30.65,35.32z"/>
		</g>
	</g>
	<g>
		<g>
			<path d="M25.79,34.6c0.03,1.02,0.05,2.04,0.08,3.07c0.01,0.51,0.03,1.02,0.04,1.53c0.01,0.28-0.07,0.72,0.12,0.96
				c0.35,0.43,1.4,0.06,1.83-0.06c0.94-0.26,1.86-0.62,2.78-0.94c0.93-0.32,1.87-0.64,2.83-0.9c0.42-0.11,0.84-0.22,1.26-0.3
				c0.26-0.05,0.61-0.05,0.78-0.29c0.19-0.26,0.16-0.75,0.2-1.06c0.06-0.5,0.11-1,0.15-1.5c0.08-1,0.12-2.01,0.12-3.01
				c0-0.12-0.11-0.2-0.22-0.17c-0.22,0.06-0.84,0.62-0.97,0.35c-0.1-0.2-0.41-0.03-0.31,0.18c0.33,0.67,0.99-0.08,1.37-0.19
				c-0.07-0.06-0.15-0.11-0.22-0.17c0,0.82-0.02,1.63-0.07,2.45c-0.05,0.84-0.07,1.76-0.26,2.58c-0.08,0.34-0.14,0.4-0.47,0.46
				c-0.18,0.04-0.36,0.07-0.54,0.11c-0.36,0.08-0.72,0.17-1.08,0.27c-0.8,0.22-1.6,0.49-2.39,0.76c-0.76,0.26-1.52,0.53-2.28,0.79
				c-0.37,0.12-0.74,0.24-1.11,0.33c-0.39,0.09-1.02,0.35-1.14-0.17c-0.09-0.37-0.02-0.86-0.03-1.25c-0.01-0.42-0.02-0.83-0.03-1.25
				c-0.02-0.86-0.04-1.72-0.07-2.59C26.14,34.37,25.79,34.37,25.79,34.6L25.79,34.6z"/>
		</g>
	</g>
	<g>
		<g>
			<path d="M26.05,34.91c1.57-0.34,3.14-0.68,4.71-1.01c1.52-0.33,3.06-0.6,4.51-1.19c0.18-0.07,0.17-0.34-0.05-0.35
				c-0.28,0-0.47,0.1-0.64,0.33c-0.14,0.18,0.17,0.36,0.31,0.18c0.11-0.05,0.22-0.1,0.33-0.15c-0.02-0.12-0.03-0.23-0.05-0.35
				c-1.44,0.58-2.99,0.86-4.51,1.19c-1.57,0.34-3.14,0.68-4.71,1.01C25.74,34.62,25.83,34.96,26.05,34.91L26.05,34.91z"/>
		</g>
	</g>
	<g>
		<g>
			<path d="M17.8,37.36c0.84,1.1,1.78,2.09,2.82,2.99c1.07,0.91,2.19,1.95,3.5,2.51c0.11,0.05,0.27,0,0.27-0.15
				c-0.02-0.49-0.04-0.97-0.06-1.46c-0.01-0.21-0.27-0.23-0.35-0.05c-0.18,0.43-0.36,0.86-0.53,1.29c0.11,0,0.23,0,0.34,0
				c-0.21-1.45,0.49-2.88,0.06-4.32c-0.07-0.22-0.41-0.13-0.34,0.09c0.09,0.29,0.22,0.5,0.44,0.71c0.09,0.08,0.27,0.06,0.3-0.08
				c0.12-0.66,0.13-1.32,0.06-1.98c-0.06-0.59-0.1-1.29-0.32-1.84c-0.03-0.08-0.09-0.16-0.12-0.24c-0.11-0.27-0.04-0.48,0.04-0.72
				c0.08-0.25,0.17-0.49,0.22-0.76c0.11-0.59,0.07-1.18-0.09-1.75c-0.06-0.22-0.4-0.13-0.34,0.09c0.17,0.66,0.19,1.36-0.03,2.02
				c-0.12,0.38-0.4,0.73-0.21,1.14c0.11,0.24,0.24,0.44,0.29,0.71c0.06,0.3,0.1,0.6,0.15,0.89c0.11,0.78,0.16,1.57,0.02,2.35
				c0.1-0.03,0.2-0.05,0.3-0.08c-0.18-0.16-0.28-0.32-0.35-0.55c-0.11,0.03-0.23,0.06-0.34,0.09c0.43,1.42-0.27,2.87-0.06,4.32
				c0.03,0.2,0.28,0.14,0.34,0c0.18-0.43,0.36-0.86,0.53-1.29c-0.12-0.02-0.23-0.03-0.35-0.05c0.02,0.49,0.04,0.97,0.06,1.46
				c0.09-0.05,0.18-0.1,0.27-0.15c-1.28-0.55-2.38-1.56-3.43-2.45c-1.02-0.88-1.95-1.85-2.77-2.92C17.97,37,17.67,37.18,17.8,37.36
				L17.8,37.36z"/>
		</g>
	</g>
	<g>
		<g>
			<path d="M19,26.06c0.2,1.94-0.02,3.89-0.14,5.82c-0.12,2-0.19,4.01-0.21,6.02c0.04-0.06,0.09-0.11,0.13-0.17
				c-0.09,0.03-0.19,0.06-0.28,0.09c-0.22,0.07-0.12,0.41,0.09,0.34c0.09-0.03,0.19-0.06,0.28-0.09C18.95,38.05,19,37.98,19,37.9
				c0.02-2.01,0.09-4.01,0.21-6.02c0.12-1.94,0.34-3.88,0.14-5.82C19.33,25.83,18.97,25.83,19,26.06L19,26.06z"/>
		</g>
	</g>
	<g>
		<g>
			<path d="M23.21,42.66c2.63-0.46,5.2-1.21,7.79-1.86c1.29-0.32,2.58-0.61,3.88-0.84c0.77-0.14,2.04-0.12,2.52-0.85
				c0.12-0.19-0.18-0.37-0.31-0.18c-0.3,0.47-1.3,0.51-1.81,0.6c-0.59,0.11-1.19,0.21-1.78,0.33c-1.13,0.23-2.26,0.51-3.38,0.8
				c-2.33,0.6-4.64,1.25-7.01,1.66C22.89,42.36,22.99,42.7,23.21,42.66L23.21,42.66z"/>
		</g>
	</g>
	<g>
		<g>
			<path d="M37.66,26.24c-0.3,2.26-0.53,4.5-0.46,6.79c0.04,1.09-0.08,2.11-0.22,3.2c-0.06,0.49-0.07,0.96-0.03,1.46
				c0.02,0.24,0.1,0.5,0.09,0.75c-0.01,0.41-0.15,0.59-0.42,0.89c-0.15,0.17,0.1,0.42,0.25,0.25c0.22-0.25,0.51-0.47,0.56-0.8
				c0.07-0.58-0.16-1.24-0.15-1.83c0.03-1.11,0.31-2.17,0.3-3.28c-0.01-1.19-0.06-2.37,0.02-3.55c0.09-1.29,0.26-2.57,0.43-3.86
				C38.05,26.02,37.69,26.02,37.66,26.24L37.66,26.24z"/>
		</g>
	</g>
	<g>
		<g>
			<path d="M24.22,30.08c-0.09,1.84-0.15,3.69-0.17,5.54c-0.01,0.89-0.01,1.77,0,2.66c0,0.44,0.01,0.89,0.02,1.33
				c0.01,0.56,0.1,1.19-0.13,1.71c-0.05,0.11,0.01,0.28,0.15,0.27c0.1-0.01,0.2-0.01,0.3-0.02c0.23-0.01,0.23-0.37,0-0.35
				c-0.1,0.01-0.2,0.01-0.3,0.02c0.05,0.09,0.1,0.18,0.15,0.27c0.36-0.78,0.18-1.73,0.17-2.55c-0.01-0.96-0.02-1.92-0.01-2.88
				c0.01-1.99,0.07-3.99,0.17-5.98C24.59,29.85,24.23,29.85,24.22,30.08L24.22,30.08z"/>
		</g>
	</g>
	<g>
		<g>
			<path d="M38.43,25.87c-0.16,0.71-0.95,0.64-1.52,0.81c-0.61,0.17-1.2,0.4-1.79,0.61c-1.38,0.47-2.75,0.67-4.2,0.76
				c-2.57,0.17-5.05,1.34-7.47,2.17c0.05,0.11,0.09,0.22,0.14,0.32c0.04-0.03,0.09-0.07,0.13-0.1c0.18-0.14,0-0.44-0.18-0.31
				c-0.04,0.03-0.09,0.07-0.13,0.1c-0.15,0.11-0.07,0.4,0.14,0.32c1.46-0.5,2.91-1.01,4.37-1.51c0.75-0.26,1.49-0.5,2.28-0.59
				c0.72-0.08,1.44-0.09,2.16-0.17c1.35-0.16,2.6-0.58,3.89-1.02c0.34-0.12,0.68-0.23,1.03-0.32c0.33-0.08,0.75-0.08,1.06-0.19
				c0.39-0.14,0.36-0.39,0.46-0.79C38.82,25.74,38.48,25.65,38.43,25.87L38.43,25.87z"/>
		</g>
	</g>
	<g>
		<g>
			<path d="M18.63,24.54c0.12,0.26-0.02,0.58,0.07,0.85c0.08,0.26,0.34,0.43,0.54,0.59c0.53,0.44,1.08,0.88,1.56,1.37
				c0.5,0.52,0.85,1.13,1.28,1.69c0.44,0.58,0.99,1.04,1.55,1.49c0.14,0.11,0.33,0.01,0.3-0.17c-0.08-0.41-0.21-0.8-0.4-1.18
				c-0.07,0.09-0.13,0.17-0.2,0.26c0.15,0.03,0.3,0.07,0.44,0.1c0.22,0.05,0.32-0.29,0.09-0.34c-0.15-0.03-0.3-0.07-0.44-0.1
				c-0.16-0.04-0.27,0.12-0.2,0.26c0.18,0.35,0.29,0.71,0.36,1.09c0.1-0.06,0.2-0.11,0.3-0.17c-0.54-0.45-1.09-0.9-1.52-1.46
				c-0.42-0.55-0.76-1.15-1.24-1.65c-0.45-0.48-0.96-0.9-1.47-1.32c-0.25-0.21-0.62-0.41-0.63-0.77c-0.01-0.27,0.04-0.49-0.08-0.74
				C18.84,24.15,18.54,24.33,18.63,24.54L18.63,24.54z"/>
		</g>
	</g>
	<g>
		<g>
			<path d="M39.25,24.37c-0.34,0.09-0.38,0.26-0.48,0.58c-0.07,0.22-0.03,0.53-0.23,0.72c-0.15,0.14-0.46,0.21-0.65,0.28
				c-0.34,0.13-0.69,0.25-1.05,0.36c-1.47,0.44-2.98,0.67-4.49,0.91c-1.47,0.23-2.95,0.44-4.38,0.85c-1.51,0.42-2.94,1.22-4.53,1.27
				c0.02,0.12,0.03,0.23,0.05,0.35c0.08-0.02,0.17-0.04,0.25-0.07c0.22-0.06,0.13-0.4-0.09-0.34c-0.08,0.02-0.17,0.04-0.25,0.07
				c-0.19,0.05-0.15,0.35,0.05,0.35c1.5-0.05,2.82-0.74,4.22-1.17c1.51-0.46,3.08-0.7,4.64-0.94c1.51-0.23,3.03-0.46,4.5-0.89
				c0.61-0.18,1.37-0.36,1.92-0.71c0.15-0.1,0.27-0.19,0.35-0.35c0.11-0.23-0.01-0.84,0.28-0.92
				C39.57,24.65,39.47,24.31,39.25,24.37L39.25,24.37z"/>
		</g>
	</g>
	<g>
		<g>
			<path d="M17.87,22.3c0.32,0.31,0.47,0.76,0.37,1.2c-0.07,0.31-0.32,0.55-0.04,0.83c0.29,0.28,0.65,0.5,0.95,0.78
				c0.3,0.28,0.58,0.59,0.85,0.9c1.07,1.23,2.01,2.59,3.41,3.48c0.16,0.1,0.31-0.09,0.24-0.24c-0.23-0.47-0.45-0.95-0.68-1.42
				c-0.1,0.06-0.2,0.12-0.31,0.18c0.04,0.06,0.08,0.12,0.12,0.18c0.12,0.19,0.43,0.01,0.31-0.18c-0.04-0.06-0.08-0.12-0.12-0.18
				c-0.13-0.19-0.4-0.03-0.31,0.18c0.23,0.47,0.45,0.95,0.68,1.42c0.08-0.08,0.16-0.16,0.24-0.24c-1.43-0.91-2.37-2.34-3.48-3.59
				c-0.26-0.3-0.53-0.58-0.83-0.85c-0.16-0.14-0.32-0.28-0.49-0.42c-0.19-0.15-0.36-0.2-0.3-0.47c0.07-0.32,0.17-0.56,0.12-0.9
				c-0.06-0.36-0.23-0.67-0.49-0.92C17.96,21.89,17.7,22.14,17.87,22.3L17.87,22.3z"/>
		</g>
	</g>
	<g>
		<g>
			<path d="M32.02,20.62c0.78-0.07,1.59-0.22,2.38-0.21c0.91,0.01,1.15,0.55,1.71,1.2c0.92,1.09,1.94,2.09,3.02,3.02
				c0.03-0.1,0.05-0.2,0.08-0.3c-3.85,1.08-7.75,1.93-11.66,2.73c-0.98,0.2-1.96,0.4-2.94,0.6c-0.51,0.1-1.17,0.32-1.66,0.04
				c-0.34-0.2-0.68-0.8-0.94-1.11c-1.29-1.54-2.55-3.1-3.83-4.64c-0.15-0.18-0.39,0.08-0.25,0.25c1.39,1.69,2.77,3.39,4.18,5.06
				c0.36,0.43,0.64,0.95,1.22,1c0.89,0.07,2.05-0.39,2.92-0.57c4.38-0.9,8.75-1.81,13.05-3.02c0.12-0.03,0.18-0.21,0.08-0.3
				c-1.32-1.14-2.52-2.38-3.61-3.74c-0.34-0.42-0.42-0.61-0.97-0.62c-0.91-0.03-1.87,0.17-2.78,0.25
				C31.79,20.29,31.79,20.64,32.02,20.62L32.02,20.62z"/>
		</g>
	</g>
	<g>
		<g>
			<path d="M18.16,22.32c1.58-0.2,3.16-0.4,4.74-0.6c0.22-0.03,0.23-0.38,0-0.35c-1.58,0.2-3.16,0.4-4.74,0.6
				C17.93,21.99,17.93,22.35,18.16,22.32L18.16,22.32z"/>
		</g>
	</g>
	<g>
		<g>
			<path d="M28.96,21.44c-0.63,0.31-1.31,0.49-2.02,0.52c-0.68,0.03-1.28-0.12-1.93-0.28c-0.47-0.11-0.81,0.26-0.86,0.7
				c-0.06,0.48,0.2,0.95,0.58,1.23c0.47,0.34,1.07,0.43,1.63,0.5c0.64,0.08,1.3,0.08,1.94-0.04c1.08-0.2,2.13-0.79,2.69-1.76
				c0.24-0.41,0.39-1.08-0.15-1.33c-0.65-0.31-1.17,0.47-1.79,0.39c-0.12-0.02-0.2,0.13-0.17,0.22c0.05,0.18,0.13,0.31,0.25,0.45
				c0.15,0.17,0.4-0.08,0.25-0.25c-0.08-0.09-0.12-0.18-0.16-0.3c-0.06,0.07-0.11,0.15-0.17,0.22c0.5,0.07,0.82-0.3,1.27-0.42
				c0.33-0.09,0.6,0.08,0.53,0.45c-0.05,0.23-0.18,0.44-0.31,0.62c-0.56,0.77-1.46,1.21-2.38,1.37c-0.51,0.09-1.04,0.09-1.56,0.04
				c-0.49-0.05-1.03-0.11-1.47-0.35c-0.38-0.2-0.82-0.74-0.56-1.2c0.19-0.34,0.48-0.17,0.77-0.09c0.23,0.06,0.46,0.1,0.69,0.13
				c1.07,0.14,2.16-0.06,3.12-0.53C29.35,21.65,29.17,21.34,28.96,21.44L28.96,21.44z"/>
		</g>
	</g>
	<g>
		<g>
			<path d="M22.87,21.4c1.34,1.14,3.12,1.39,4.82,1.19c0.77-0.09,1.59-0.21,2.29-0.54c0.3-0.14,0.58-0.33,0.79-0.58
				c0.26-0.3,0.59-1.35,1.13-0.98c-0.02-0.08-0.04-0.16-0.06-0.24c-0.07,0.07-0.13,0.14-0.2,0.21c-0.18,0.14,0,0.44,0.18,0.31
				c0.13-0.1,0.23-0.2,0.33-0.34c0.06-0.08,0.01-0.19-0.06-0.24c-0.59-0.4-1.06,0.2-1.32,0.67c-0.45,0.81-1.26,1.06-2.12,1.23
				c-1.88,0.37-3.99,0.37-5.52-0.94C22.95,21,22.7,21.25,22.87,21.4L22.87,21.4z"/>
		</g>
	</g>
	<g>
		<g>
			<path d="M25.95,19.2c-1.5,0.1-2.89,1.54-3.57,2.79c-0.31,0.57-0.67,1.24-0.15,1.78c0.57,0.59,1.43,0.95,2.21,1.16
				c1.61,0.45,3.35,0.38,4.93-0.14c0.79-0.26,1.55-0.63,2.23-1.1c0.47-0.33,1.31-0.79,1.19-1.45c-0.3-1.65-1.73-3.56-3.6-3.11
				c-0.22,0.05-0.13,0.4,0.09,0.34c1.02-0.25,1.94,0.37,2.47,1.2c0.25,0.39,0.42,0.81,0.57,1.24c0.19,0.57-0.07,0.82-0.48,1.15
				c-1.32,1.06-2.99,1.69-4.68,1.79c-0.8,0.05-1.61-0.02-2.39-0.21c-0.64-0.16-2.6-0.72-2.46-1.66c0.11-0.74,0.77-1.56,1.28-2.08
				c0.59-0.61,1.46-1.3,2.34-1.36C26.18,19.54,26.18,19.18,25.95,19.2L25.95,19.2z"/>
		</g>
	</g>
	<g>
		<g>
			<path d="M37.17,13.92c-0.28,0.27-0.53,0.57-0.75,0.89c-0.04,0.06-0.03,0.15,0.01,0.2c0.04,0.06,0.12,0.08,0.19,0.06
				c0.18-0.05,0.35-0.12,0.51-0.21c0.08-0.05,0.11-0.16,0.06-0.24c-0.05-0.08-0.16-0.11-0.24-0.06c-0.04,0.02-0.07,0.04-0.11,0.06
				c-0.02,0.01-0.04,0.02-0.06,0.03c-0.01,0-0.07,0.03-0.03,0.01c-0.08,0.03-0.15,0.06-0.23,0.08c0.07,0.09,0.13,0.17,0.2,0.26
				c0.03-0.04,0.05-0.08,0.08-0.11c0.01-0.02,0.02-0.03,0.04-0.05c0,0,0.03-0.04,0.01-0.02c-0.01,0.02,0.01-0.01,0.01-0.01
				c0.06-0.07,0.12-0.15,0.18-0.22c0.12-0.14,0.25-0.27,0.38-0.4c0.07-0.07,0.07-0.19,0-0.25C37.35,13.86,37.24,13.85,37.17,13.92
				L37.17,13.92z"/>
		</g>
	</g>
	<g>
		<g>
			<path d="M36.48,13.67c-0.29,0.36-0.56,0.73-0.81,1.12c-0.07,0.1,0.02,0.28,0.15,0.27c0.18-0.02,0.33-0.11,0.42-0.26
				c0.05-0.08,0.02-0.2-0.06-0.24c-0.09-0.05-0.19-0.02-0.24,0.06c-0.01,0.01-0.01,0.02-0.02,0.03c0.01-0.01,0.01-0.01,0,0
				c-0.01,0.01-0.01,0.01-0.02,0.02c-0.02,0.02,0.01,0-0.01,0.01c-0.01,0-0.02,0.01-0.03,0.02c0,0-0.03,0.01-0.01,0.01
				c0.02-0.01-0.07,0.01-0.02,0.01c0.05,0.09,0.1,0.18,0.15,0.27c0.23-0.36,0.49-0.72,0.75-1.04c0.06-0.07,0.08-0.18,0-0.25
				C36.67,13.61,36.54,13.59,36.48,13.67L36.48,13.67z"/>
		</g>
	</g>
	<g>
		<g>
			<path d="M36.06,12.64c0.07,0.4,0.11,0.8,0.12,1.2c0.01,0.35,0,0.7,0.26,0.97c0.51,0.52,1.31,0.26,1.87-0.04
				c0.15-0.08,0.29-0.21,0.29-0.39c0-0.18-0.14-0.35-0.33-0.34c-0.23,0.01-0.23,0.36,0,0.35c-0.01,0-0.03-0.01-0.03-0.01
				c0,0-0.03,0.04-0.04,0.04c-0.05,0.04-0.12,0.07-0.17,0.09c-0.16,0.08-0.32,0.15-0.49,0.19c-0.27,0.08-0.58,0.08-0.81-0.1
				c-0.26-0.21-0.19-0.58-0.21-0.87c-0.02-0.4-0.06-0.79-0.13-1.18C36.37,12.33,36.02,12.42,36.06,12.64L36.06,12.64z"/>
		</g>
	</g>
	<g>
		<g>
			<path d="M37.09,15.68c0.06,0.15,0.11,0.31,0.13,0.47c0.01,0.07,0.02,0.15,0.02,0.23c0,0.07,0,0.13,0.01,0.2
				c0.05,0.18,0.22,0.23,0.38,0.27c0.15,0.04,0.31,0.06,0.46,0.05c0.3-0.03,0.56-0.21,0.63-0.52c0.06-0.25,0.09-0.63-0.2-0.74
				c-0.02,0.12-0.03,0.23-0.05,0.35c0.14,0.01,0.29,0.02,0.43,0.04c0.1,0.01,0.18-0.09,0.18-0.18c0-0.1-0.08-0.17-0.18-0.18
				c-0.14-0.01-0.29-0.02-0.43-0.04c-0.09-0.01-0.16,0.07-0.17,0.15c-0.01,0.09,0.04,0.16,0.13,0.19c-0.05-0.02-0.02-0.04-0.03-0.01
				c0-0.02,0,0.03,0,0.01c0,0.04,0,0.08,0,0.12c0,0.09-0.01,0.18-0.04,0.26c-0.07,0.17-0.28,0.19-0.44,0.18
				c-0.11-0.01-0.21-0.05-0.31-0.07c-0.04,0-0.03-0.01-0.02,0.01c0.01,0.02,0.01-0.05,0-0.02c0.01-0.05,0-0.12,0-0.17
				c-0.01-0.24-0.07-0.47-0.15-0.7c-0.04-0.09-0.12-0.15-0.22-0.12C37.13,15.49,37.06,15.59,37.09,15.68L37.09,15.68z"/>
		</g>
	</g>
	<g>
		<g>
			<path d="M28.75,16.74c2.37-0.31,4.74-0.62,7.12-0.92c0.53-0.07,1.2-0.28,1.69-0.02c0.34,0.18,0.55,0.23,0.94,0.1
				c0.53-0.18,1.06-0.69,0.6-1.23c-0.15-0.17-0.4,0.08-0.25,0.25c0.31,0.36-0.38,0.66-0.58,0.68c-0.27,0.02-0.42-0.07-0.64-0.18
				c-0.28-0.13-0.55-0.11-0.85-0.08c-0.87,0.1-1.74,0.23-2.61,0.34c-1.8,0.23-3.61,0.47-5.41,0.7
				C28.52,16.42,28.52,16.77,28.75,16.74L28.75,16.74z"/>
		</g>
	</g>
	<g>
		<g>
			<path d="M35.49,11.38c-0.07,0.36,0.07,0.67,0.29,0.94c0.24,0.28,0.6,0.49,0.75,0.84c0.14,0.36,0.01,0.76,0.19,1.12
				c0.16,0.31,0.51,0.56,0.8,0.75c0.5,0.34,1.32,0.44,1.6-0.22c0.07-0.15,0.08-0.32,0.15-0.47c0.09-0.18,0.25-0.31,0.39-0.43
				c0.26-0.23,0.46-0.48,0.57-0.81c0.13-0.38,0.14-0.8,0.13-1.2c-0.01-0.3-0.04-0.71-0.4-0.79c-0.22-0.05-0.32,0.29-0.09,0.34
				c0.16,0.04,0.14,0.32,0.14,0.45c0,0.19,0,0.38-0.01,0.57c-0.03,0.37-0.13,0.74-0.39,1.01c-0.23,0.25-0.53,0.42-0.67,0.75
				c-0.07,0.17-0.08,0.38-0.19,0.53c-0.1,0.14-0.26,0.2-0.43,0.2c-0.39,0.01-0.72-0.28-1-0.52c-0.17-0.14-0.31-0.28-0.35-0.51
				c-0.04-0.19-0.02-0.4-0.04-0.59c-0.04-0.36-0.24-0.62-0.49-0.87c-0.27-0.26-0.7-0.57-0.61-0.99
				C35.88,11.25,35.54,11.16,35.49,11.38L35.49,11.38z"/>
		</g>
	</g>
	<g>
		<g>
			<path d="M37.07,10.77c-0.31-0.02-0.62,0.02-0.91,0.13c-0.22,0.08-0.56,0.21-0.63,0.46c-0.08,0.26,0.18,0.48,0.37,0.62
				c0.22,0.17,0.48,0.29,0.76,0.37c0.61,0.17,1.32,0.15,1.94,0.08c0.48-0.06,1.24-0.21,1.44-0.73c0.1-0.27-0.01-0.57-0.23-0.75
				c-0.27-0.23-0.63-0.25-0.97-0.26c-0.23-0.01-0.23,0.35,0,0.35c0.28,0.01,0.63,0.01,0.81,0.25c0.2,0.27-0.06,0.47-0.29,0.58
				c-0.5,0.24-1.09,0.25-1.63,0.24c-0.54,0-1.12-0.06-1.58-0.38c-0.06-0.04-0.27-0.19-0.26-0.27c0.01-0.09,0.26-0.18,0.33-0.21
				c0.27-0.11,0.56-0.14,0.85-0.13C37.3,11.14,37.3,10.79,37.07,10.77L37.07,10.77z"/>
		</g>
	</g>
	<g>
		<g>
			<path d="M38.94,9.55c-0.63,0.42-1.18,0.94-1.63,1.55c-0.04,0.06-0.03,0.17,0.03,0.21c0.12,0.1,0.29,0.13,0.42,0.03
				c0.08-0.06,0.12-0.15,0.06-0.24c-0.04-0.08-0.16-0.12-0.24-0.06c-0.06,0.04,0,0,0,0.01c0,0,0,0,0.01,0
				c-0.03-0.01-0.03-0.01,0.01,0.01c0.01,0.07,0.02,0.14,0.03,0.21c0.41-0.56,0.93-1.04,1.5-1.43c0.08-0.05,0.11-0.16,0.06-0.24
				C39.13,9.53,39.02,9.5,38.94,9.55L38.94,9.55z"/>
		</g>
	</g>
	<g>
		<g>
			<path d="M36.82,10.73c0.16,0.18,0.32,0.35,0.48,0.53c0.09,0.09,0.31,0.27,0.2,0.41c-0.07,0.09,0.01,0.24,0.11,0.26
				c0.18,0.04,0.36,0.08,0.54,0.04c0.2-0.04,0.34-0.18,0.41-0.36c0.07-0.17,0.1-0.35,0.17-0.52c0.08-0.18,0.19-0.36,0.32-0.51
				c0.11-0.14,0.01-0.33-0.17-0.3c-0.04,0.01-0.08,0.02-0.12,0.02c-0.22,0.05-0.13,0.39,0.09,0.34c0.04-0.01,0.08-0.02,0.12-0.02
				c-0.06-0.1-0.11-0.2-0.17-0.3c-0.23,0.28-0.41,0.6-0.51,0.96c-0.03,0.12-0.05,0.29-0.18,0.34c-0.13,0.05-0.28,0-0.4-0.03
				c0.04,0.09,0.07,0.17,0.11,0.26c0.18-0.23,0.03-0.52-0.13-0.71c-0.2-0.23-0.4-0.45-0.6-0.67C36.92,10.31,36.67,10.56,36.82,10.73
				L36.82,10.73z"/>
		</g>
	</g>
	<g>
		<g>
			<path d="M37.44,10.06c-0.1,0.02-0.2,0.04-0.3,0.06c-0.1,0.02-0.21,0.03-0.29,0.09c-0.16,0.14-0.09,0.36,0.05,0.48
				c0.26,0.23,0.69,0.22,1.02,0.22c0.21,0,0.41-0.02,0.61-0.05c0.18-0.02,0.39-0.05,0.46-0.26c0.06-0.18-0.03-0.36-0.18-0.47
				c-0.15-0.1-0.36-0.14-0.54-0.16c-0.22-0.03-0.44-0.02-0.65,0.03c-0.18,0.04-0.39,0.12-0.43,0.33c-0.05,0.22,0.29,0.32,0.34,0.09
				c0.01-0.06,0.19-0.08,0.25-0.09c0.14-0.02,0.28-0.02,0.43-0.01c0.13,0.01,0.27,0.04,0.39,0.1c0.03,0.02,0.04,0.03,0.06,0.06
				c0.03,0.04-0.04,0.02,0.01,0c-0.02,0.01-0.04,0.01-0.06,0.01c-0.3,0.06-0.62,0.07-0.93,0.06c-0.12-0.01-0.24-0.01-0.36-0.04
				c-0.05-0.01-0.1-0.03-0.14-0.06c-0.01-0.01-0.03-0.02-0.04-0.04c-0.05-0.04,0.01-0.01-0.01,0.02c-0.02,0.02-0.04,0.04-0.06,0.06
				c0.05-0.03,0.16-0.04,0.22-0.05c0.09-0.02,0.17-0.04,0.26-0.05C37.75,10.36,37.66,10.01,37.44,10.06L37.44,10.06z"/>
		</g>
	</g>
	<g>
		<g>
			<path d="M29.39,15.78c2.42-0.65,4.97-0.47,7.41-1.02c-0.03-0.11-0.06-0.23-0.09-0.34c-0.06,0.03-0.12,0.05-0.18,0.08
				c-0.21,0.09-0.12,0.43,0.09,0.34c0.06-0.03,0.12-0.05,0.18-0.08c0.21-0.08,0.13-0.39-0.09-0.34c-2.44,0.55-4.99,0.37-7.41,1.02
				C29.08,15.5,29.17,15.84,29.39,15.78L29.39,15.78z"/>
		</g>
	</g>
	<g>
		<g>
			<path d="M26.11,19.03c-0.1,0.38-0.04,0.86,0.27,1.13c0.15,0.13,0.33,0.17,0.53,0.19c0.24,0.03,0.49,0.03,0.73,0.03
				c0.24,0,0.47-0.02,0.71-0.04c0.21-0.02,0.47-0.03,0.65-0.15c0.34-0.22,0.31-0.67,0.25-1.02c-0.02-0.13-0.05-0.25-0.08-0.38
				c-0.03-0.1-0.05-0.2-0.14-0.26c-0.2-0.12-0.43,0.16-0.24,0.31c0.07,0.06,0.14,0.06,0.21,0.03c0,0,0.01,0,0.01-0.01
				c0.09-0.04,0.11-0.17,0.06-0.24c-0.05-0.09-0.15-0.1-0.24-0.06c0,0-0.01,0-0.01,0.01c0.07,0.01,0.14,0.02,0.21,0.03
				c0.01,0.02,0.02,0.03,0.03,0.05c-0.01,0.05-0.01,0.09-0.02,0.14c0,0,0.01-0.01,0.01-0.01c-0.05,0.03-0.1,0.06-0.15,0.09
				c-0.08-0.07-0.11-0.07-0.09-0.02c0.01,0.02,0.01,0.05,0.02,0.07c0.01,0.04,0.02,0.08,0.03,0.13c0.02,0.09,0.04,0.19,0.05,0.28
				c0.02,0.14,0.04,0.31-0.01,0.44c-0.06,0.17-0.24,0.18-0.39,0.2c-0.2,0.03-0.4,0.05-0.61,0.06c-0.2,0.01-0.4,0.01-0.6,0
				c-0.18-0.01-0.38,0-0.56-0.05c-0.33-0.1-0.38-0.57-0.31-0.85C26.51,18.9,26.16,18.81,26.11,19.03L26.11,19.03z"/>
		</g>
	</g>
	<g>
		<g>
			<path d="M27.19,17.94c-0.03,0.01-0.06,0.02-0.09,0.02c0.02,0,0.03,0,0.05-0.01c-0.07,0.01-0.15,0-0.22,0.01
				c-0.05,0.01-0.09,0.01-0.14,0.03c-0.06,0.02-0.1,0.05-0.15,0.08c-0.08,0.06-0.11,0.16-0.12,0.25c-0.01,0.11,0.05,0.21,0.14,0.27
				c0.04,0.02,0.1,0.03,0.14,0.02c0.04-0.01,0.09-0.04,0.11-0.08c0.02-0.04,0.03-0.09,0.02-0.14c-0.01-0.05-0.04-0.08-0.08-0.11
				c0,0,0,0-0.01,0c0.01,0.01,0.02,0.02,0.04,0.03c-0.01-0.01-0.01-0.01-0.02-0.02c0.01,0.01,0.02,0.02,0.03,0.04
				c-0.01-0.01-0.01-0.02-0.01-0.03c0.01,0.01,0.01,0.03,0.02,0.04c0-0.01-0.01-0.02-0.01-0.03c0,0.02,0,0.03,0.01,0.05
				c0-0.01,0-0.03,0-0.04c0,0.02,0,0.03-0.01,0.05c0-0.01,0.01-0.03,0.01-0.04c-0.01,0.01-0.01,0.03-0.02,0.04
				c0.01-0.01,0.01-0.03,0.02-0.04c-0.01,0.01-0.02,0.02-0.03,0.04c0.01-0.01,0.02-0.02,0.03-0.03c-0.01,0.01-0.02,0.02-0.04,0.03
				c0.02-0.01,0.03-0.02,0.05-0.03c-0.01,0.01-0.03,0.01-0.04,0.02c0.03-0.01,0.06-0.02,0.1-0.03c-0.02,0-0.03,0-0.05,0.01
				c0.13-0.02,0.26,0,0.38-0.04c0.04-0.02,0.08-0.04,0.11-0.08c0.02-0.04,0.03-0.09,0.02-0.14c-0.01-0.04-0.04-0.08-0.08-0.11
				C27.29,17.94,27.23,17.93,27.19,17.94L27.19,17.94z"/>
		</g>
	</g>
	<g>
		<g>
			<path d="M26.81,18.17c-0.34,0.15-0.63,0.46-0.56,0.86c0.06,0.34,0.4,0.51,0.71,0.56c0.4,0.06,0.84,0.07,1.24,0.02
				c0.36-0.04,0.71-0.18,0.84-0.55c0.06-0.18,0.04-0.38-0.07-0.53c-0.13-0.16-0.33-0.22-0.53-0.24c-0.23-0.01-0.23,0.34,0,0.35
				c0.11,0.01,0.26,0.04,0.28,0.18c0.02,0.12-0.06,0.24-0.15,0.3c-0.13,0.09-0.29,0.12-0.45,0.13c-0.18,0.02-0.37,0.02-0.55,0.02
				c-0.27,0-0.66,0.02-0.89-0.16c-0.11-0.09-0.12-0.23-0.06-0.35c0.07-0.14,0.22-0.23,0.36-0.29c0.09-0.04,0.11-0.17,0.06-0.24
				C27,18.14,26.89,18.13,26.81,18.17L26.81,18.17z"/>
		</g>
	</g>
	<g>
		<g>
			<path d="M27.39,18.95c0.24,0.08,0.5,0.15,0.75,0.05c0.23-0.09,0.36-0.3,0.39-0.54c0.04-0.26,0.05-0.52,0.06-0.79
				c0.02-0.29,0.04-0.58,0.06-0.87c0.02-0.23-0.34-0.23-0.35,0c-0.03,0.47-0.07,0.94-0.1,1.41c-0.01,0.14-0.01,0.34-0.14,0.43
				c-0.17,0.11-0.41,0.01-0.58-0.04C27.27,18.53,27.17,18.88,27.39,18.95L27.39,18.95z"/>
		</g>
	</g>
	<g>
		<g>
			<path d="M27.34,16.66c0.06,0.38,0.09,0.77,0.1,1.16c0,0.19,0,0.38,0,0.57c0,0.1,0.01,0.25-0.09,0.29
				c-0.14,0.06-0.1,0.3,0.04,0.32c0.07,0.01,0.15,0.03,0.22,0.04c0.22,0.04,0.32-0.3,0.09-0.34c-0.07-0.01-0.15-0.03-0.22-0.04
				c0.01,0.11,0.03,0.22,0.04,0.32c0.16-0.07,0.23-0.24,0.25-0.4c0.03-0.21,0.02-0.43,0.02-0.64c0-0.46-0.04-0.93-0.11-1.39
				c-0.01-0.09-0.13-0.15-0.22-0.12C27.36,16.47,27.33,16.57,27.34,16.66L27.34,16.66z"/>
		</g>
	</g>
	<g>
		<g>
			<path d="M28.38,16.26c0.01,0.04,0.02,0.08,0.03,0.12c0,0.01,0,0.02,0.01,0.03c0.01,0.04,0-0.04,0,0c0,0.02,0,0.04,0,0.05
				c0,0.02-0.01,0.03,0-0.01c0,0.01,0,0.02-0.01,0.03c0,0.01-0.01,0.04,0,0.01c0.01-0.03,0,0-0.01,0.01c-0.01,0.03,0.03-0.02,0,0
				c0,0-0.01,0.01-0.01,0.01c-0.01,0.01-0.01,0.01,0.01-0.01c0,0-0.05,0.03-0.05,0.03c-0.09,0.04-0.18,0.08-0.27,0.12
				c-0.05,0.02-0.1,0.04-0.14,0.06c-0.01,0-0.01,0.01-0.02,0.01c0.01,0,0.01-0.01,0.02-0.01c-0.01,0-0.02,0.01-0.03,0.01
				c-0.01,0-0.01,0,0,0c0.02,0,0.02,0,0,0c0.03,0,0.06,0.01,0.08,0.03c-0.06,0.1-0.11,0.2-0.17,0.3c0.09,0.02,0.19,0.04,0.28,0.06
				c0.09,0.02,0.2-0.03,0.22-0.12c0.02-0.09-0.03-0.2-0.12-0.22c-0.09-0.02-0.19-0.04-0.28-0.06c-0.07-0.02-0.16,0.01-0.2,0.08
				c-0.04,0.07-0.03,0.16,0.03,0.21c0.07,0.07,0.17,0.09,0.26,0.06c0.06-0.02,0.12-0.05,0.19-0.08c0.11-0.05,0.23-0.09,0.34-0.15
				c0.13-0.06,0.21-0.18,0.23-0.32c0.02-0.12-0.01-0.24-0.05-0.35c-0.03-0.09-0.12-0.15-0.22-0.12
				C28.42,16.07,28.35,16.17,28.38,16.26L28.38,16.26z"/>
		</g>
	</g>
	<g>
		<g>
			<path d="M27.28,16.43c0.06,0.03,0.12,0.07,0.17,0.11c-0.03-0.03,0.01,0.01,0.02,0.01c0.01,0.01,0.03,0.02,0.04,0.03
				c0.03,0.02,0.05,0.05,0.07,0.07c0.05,0.05,0.09,0.1,0.13,0.15c0.01,0.01,0.01,0.01-0.01-0.01c0.01,0.01,0.01,0.01,0.02,0.02
				c0.01,0.01,0.02,0.03,0.03,0.04c0.02,0.03,0.04,0.06,0.06,0.09c0.06,0.09,0.2,0.12,0.28,0.04c0,0,0.04-0.03,0.04-0.04
				c0,0-0.03,0.02-0.01,0c0.01-0.01,0.02-0.01,0.03-0.02c0,0,0.03-0.01,0.01,0c-0.02,0.01,0,0,0.01,0c0.01,0,0.07-0.01,0.02-0.01
				c0.05-0.01,0.09-0.02,0.13-0.05c0.03-0.03,0.05-0.08,0.05-0.13c0-0.09-0.08-0.19-0.18-0.18c-0.13,0.02-0.25,0.07-0.35,0.17
				c0.09,0.01,0.19,0.02,0.28,0.04c-0.16-0.27-0.39-0.49-0.66-0.65c-0.08-0.05-0.2-0.02-0.24,0.06
				C27.17,16.27,27.19,16.38,27.28,16.43L27.28,16.43z"/>
		</g>
	</g>
	<g>
		<g>
			<path d="M28.71,15.16c0.05,0.14,0.08,0.29,0.08,0.44c0,0.08,0.02,0.31-0.03,0.35c-0.04,0.03-0.14,0.04-0.19,0.05
				c-0.07,0.02-0.14,0.02-0.22,0.03c-0.15,0.01-0.3,0.01-0.45,0.01c-0.15,0-0.29-0.01-0.44-0.01c-0.08,0-0.15,0-0.23,0.01
				c-0.03,0-0.07,0.01-0.1,0.01c-0.02,0-0.05,0.01-0.07,0.01c-0.04,0-0.03,0.01,0.02,0.04c-0.02,0-0.13-0.4-0.14-0.44
				c-0.04-0.15-0.07-0.3-0.1-0.45c-0.07,0.07-0.15,0.15-0.22,0.22c0.21,0.07,0.37,0.21,0.48,0.41c0.11,0.2,0.42,0.02,0.31-0.18
				c-0.15-0.27-0.4-0.47-0.69-0.57c-0.14-0.05-0.24,0.09-0.22,0.22c0.04,0.19,0.08,0.39,0.14,0.58c0.05,0.16,0.08,0.4,0.23,0.5
				c0.08,0.06,0.18,0.04,0.27,0.03c0.09-0.01,0.19-0.02,0.28-0.02c0.19-0.01,0.37,0,0.56,0.01c0.19,0,0.37,0,0.56-0.03
				c0.16-0.02,0.37-0.06,0.48-0.18c0.12-0.13,0.12-0.37,0.11-0.54c-0.01-0.19-0.04-0.39-0.1-0.57
				C28.98,14.85,28.64,14.94,28.71,15.16L28.71,15.16z"/>
		</g>
	</g>
	<g>
		<g>
			<path d="M28.22,14.45c-0.46,0.45-0.92,0.91-1.37,1.38c-0.06,0.06-0.06,0.14-0.03,0.21c0.05,0.12,0.2,0.17,0.32,0.14
				c0.12-0.03,0.19-0.13,0.24-0.23c0.04-0.09,0.02-0.19-0.06-0.24c-0.08-0.05-0.2-0.02-0.24,0.06c-0.01,0.02-0.04,0.08-0.05,0.08
				c0,0,0.03-0.01,0.03-0.01c0.03,0,0.09,0.08,0.07,0.03c-0.01,0.07-0.02,0.14-0.03,0.21c0.45-0.47,0.9-0.93,1.37-1.38
				C28.63,14.55,28.38,14.3,28.22,14.45L28.22,14.45z"/>
		</g>
	</g>
	<g>
		<g>
			<path d="M28.32,14.66c-0.34-0.22-0.78-0.2-1.15-0.08c-0.18,0.06-0.39,0.14-0.49,0.32c-0.09,0.18-0.03,0.39,0.1,0.54
				c0.14,0.15,0.35,0.2,0.54,0.23c0.23,0.04,0.47,0.08,0.71,0.09c0.36,0.01,0.92-0.08,0.95-0.54c0.02-0.22-0.14-0.44-0.34-0.53
				c-0.24-0.11-0.51-0.06-0.75-0.01c-0.22,0.05-0.13,0.39,0.09,0.34c0.15-0.03,0.3-0.07,0.45-0.03c0.08,0.02,0.19,0.09,0.19,0.19
				c0,0.09-0.1,0.15-0.18,0.17C28.3,15.4,28.15,15.41,28,15.4c-0.16,0-0.31-0.03-0.47-0.05c-0.14-0.02-0.29-0.04-0.42-0.1
				c-0.06-0.03-0.16-0.12-0.13-0.2c0.04-0.08,0.22-0.12,0.29-0.14c0.28-0.09,0.59-0.11,0.85,0.05
				C28.33,15.09,28.51,14.78,28.32,14.66L28.32,14.66z"/>
		</g>
	</g>
</g>
</svg>
