<?xml version="1.0" encoding="utf-8"?>
<!-- Generator: Adobe Illustrator 26.2.1, SVG Export Plug-In . SVG Version: 6.00 Build 0)  -->
<svg version="1.1" id="Layer_1" xmlns="http://www.w3.org/2000/svg" xmlns:xlink="http://www.w3.org/1999/xlink" x="0px" y="0px"
	 viewBox="0 0 56.69 56.69" style="enable-background:new 0 0 56.69 56.69;" xml:space="preserve">
<g>
	<g>
		<g>
			<path d="M27.59,49.76c-0.55-0.51-1.28-0.8-2.02-0.81c-0.29,0-0.76,0-0.91,0.3c-0.08,0.16,0.01,0.3,0.14,0.4
				c0.17,0.12,0.35,0.22,0.53,0.3c0.7,0.33,1.5,0.47,2.27,0.38c0.16-0.02,0.33-0.05,0.42-0.2c0.09-0.17,0.02-0.38-0.11-0.5
				c-0.14-0.13-0.35-0.19-0.53-0.25c-0.21-0.07-0.42-0.13-0.64-0.17c-0.23-0.04-0.47-0.07-0.7-0.08c-0.18-0.01-0.39-0.01-0.52,0.13
				c-0.15,0.15-0.1,0.38-0.09,0.56c0.02,0.27,0.03,0.53,0.05,0.8c0.01,0.23,0.37,0.23,0.35,0c-0.02-0.34-0.05-0.67-0.06-1.01
				c0-0.03-0.01-0.09,0.01-0.12c0.03-0.03,0.11-0.02,0.15-0.02c0.17,0,0.34,0.02,0.5,0.04c0.3,0.04,0.6,0.12,0.88,0.22
				c0.08,0.03,0.37,0.1,0.39,0.2c0.01,0.05-0.06,0.04-0.1,0.05C27.52,49.99,27.45,50,27.37,50c-0.57,0.04-1.14-0.06-1.68-0.27
				c-0.13-0.05-0.25-0.11-0.37-0.18c-0.06-0.03-0.12-0.07-0.18-0.1c-0.03-0.02-0.06-0.04-0.09-0.05c-0.02-0.01-0.04-0.03-0.06-0.04
				c-0.03-0.03-0.04-0.01-0.03,0.05c0,0,0.11-0.06,0.13-0.06c0.06-0.01,0.13-0.02,0.19-0.03c0.14-0.01,0.28-0.02,0.43-0.01
				c0.6,0.03,1.19,0.28,1.63,0.7C27.5,50.16,27.76,49.91,27.59,49.76L27.59,49.76z"/>
		</g>
	</g>
	<g>
		<g>
			<path d="M37.49,50.74c0.43-0.11,0.88-0.24,1.22-0.55c0.36-0.32,0.47-0.79,0.39-1.25c-0.02-0.09-0.13-0.15-0.22-0.12
				c-0.1,0.03-0.14,0.12-0.12,0.22c0.03,0.18,0.02,0.38-0.05,0.56c-0.06,0.15-0.17,0.28-0.29,0.38c-0.29,0.24-0.67,0.33-1.03,0.42
				C37.17,50.45,37.27,50.8,37.49,50.74L37.49,50.74z"/>
		</g>
	</g>
	<g>
		<g>
			<path d="M18.1,50.38c-0.02,0.16-0.02,0.32,0.06,0.46c0.08,0.13,0.21,0.22,0.33,0.3c0.28,0.2,0.57,0.31,0.92,0.36
				c0.28,0.03,0.63,0.08,0.89-0.05c0.3-0.14,0.33-0.48,0.32-0.77c-0.01-0.23-0.37-0.23-0.35,0c0.01,0.17,0.03,0.41-0.17,0.47
				c-0.1,0.03-0.2,0.02-0.3,0.02c-0.13-0.01-0.26-0.01-0.38-0.03c-0.24-0.03-0.45-0.12-0.66-0.25c-0.09-0.06-0.21-0.12-0.28-0.21
				c-0.06-0.08-0.03-0.21-0.02-0.3c0.01-0.1-0.09-0.18-0.18-0.18C18.17,50.21,18.11,50.29,18.1,50.38L18.1,50.38z"/>
		</g>
	</g>
	<g>
		<g>
			<path d="M31.3,52.84c-0.07,0.17-0.13,0.37-0.07,0.55c0.05,0.17,0.18,0.28,0.34,0.34c0.16,0.06,0.33,0.07,0.5,0.1
				c0.18,0.03,0.36,0.08,0.54,0.12c0.35,0.08,0.75,0.12,1.1,0.02c0.34-0.1,0.59-0.43,0.54-0.79c-0.01-0.1-0.07-0.18-0.18-0.18
				c-0.09,0-0.19,0.08-0.18,0.18c0.08,0.64-0.85,0.51-1.23,0.42c-0.26-0.06-0.52-0.12-0.79-0.16c-0.09-0.01-0.22-0.03-0.28-0.11
				c-0.08-0.11,0.01-0.29,0.05-0.4C31.73,52.72,31.39,52.63,31.3,52.84L31.3,52.84z"/>
		</g>
	</g>
	<g>
		<g>
			<path d="M38.47,47.59c-0.04,0.25,0.03,0.22,0.07,0.46c0.01,0.07,0.13,0.12,0.16,0.19c0.27,0.73-0.02,0.83-0.43,1.21
				c-0.97,0.9-1.92,1.81-2.9,2.7c-0.69,0.63-1.31,0.89-2.25,0.87c-0.77-0.02-1.52-0.11-2.28-0.24c-1.23-0.21-2.43-0.54-3.64-0.85
				c-2.33-0.61-4.67-0.89-7.02-1.35c-0.48-0.09-1.43-0.18-1.83-0.47c-0.19-0.01-0.27-0.12-0.24-0.33c-0.14-0.23-0.08-0.37,0.19-0.44
				c0.01-0.02,0.05-0.04,0.06-0.06c0.4-0.69,1.02-1.39,1.88-1.47c0.23-0.02,0.23-0.37,0-0.35c-0.33,0.03-0.62,0.08-0.91,0.24
				c-0.4,0.22-0.6,0.69-1.03,0.86c-0.07,0.03-0.14,0.09-0.13,0.17c0.07,0.58-1.16,0.67-0.69,1.38c0.2,0.3,1.01,0.42,1.32,0.51
				c0.61,0.17,1.23,0.3,1.85,0.41c1.39,0.24,2.79,0.38,4.16,0.68c1.48,0.32,2.93,0.75,4.4,1.1c1.28,0.3,2.59,0.54,3.91,0.57
				c1.24,0.03,1.76-0.28,2.65-1.11c0.56-0.52,1.12-1.04,1.68-1.56c0.52-0.48,1.22-0.97,1.64-1.54c0.13-0.18,0.27-0.33,0.24-0.59
				c-0.04-0.31-0.55-0.57-0.51-0.87C38.85,47.46,38.51,47.36,38.47,47.59L38.47,47.59z"/>
		</g>
	</g>
	<g>
		<g>
			<path d="M18.36,48.38c-0.32,0.38-0.12,0.69,0.28,0.9c0.58,0.31,1.58,0.3,2.23,0.42c0.79,0.14,1.57,0.28,2.36,0.42
				c3.14,0.57,6.28,1.14,9.43,1.7c1.15,0.2,1.72,0.06,2.69-0.6c1.04-0.7,1.99-1.53,2.81-2.47c0.29-0.33,0.94-0.9,0.47-1.34
				c-0.31-0.29-1.03-0.24-1.39-0.29c-0.84-0.12-1.69-0.24-2.53-0.36c-0.22-0.03-0.32,0.31-0.09,0.34c0.52,0.07,1.04,0.15,1.56,0.22
				c0.44,0.06,1.16,0.03,1.56,0.22c0.47-0.06,0.6,0.17,0.41,0.7c-0.14,0.17-0.29,0.34-0.45,0.51c-0.3,0.33-0.63,0.65-0.96,0.95
				c-0.69,0.62-1.51,1.35-2.37,1.73c-0.99,0.43-2.36-0.08-3.38-0.26c-2.03-0.37-4.06-0.73-6.09-1.09c-1.05-0.19-2.1-0.38-3.14-0.57
				c-0.52-0.09-1.05-0.19-1.57-0.28c-0.1-0.02-1.81-0.29-1.57-0.58C18.76,48.46,18.51,48.21,18.36,48.38L18.36,48.38z"/>
		</g>
	</g>
	<g>
		<g>
			<path d="M22.69,45.71c-1.32,0.84-2.81,1.6-4,2.61c-0.3,0.25-0.95,0.83-0.55,1.27c0.19,0.22,0.59,0.18,0.85,0.21
				c0.89,0.11,1.76,0.25,2.62,0.47c1.47,0.36,2.89,0.78,4.39,1.01c1.48,0.23,2.95,0.45,4.41,0.81c1.12,0.28,2.65,0.87,3.83,0.54
				c0.92-0.26,1.65-1.22,2.36-1.81c0.96-0.79,1.89-1.56,2.41-2.72c0.09-0.21-0.21-0.39-0.31-0.18c-0.44,0.98-1.18,1.68-2,2.35
				c-0.72,0.6-1.49,1.52-2.33,1.9c-1.11,0.5-2.75-0.15-3.87-0.43c-1.15-0.29-2.3-0.5-3.47-0.68c-2.23-0.33-4.35-1.02-6.56-1.42
				c-0.38-0.07-0.95-0.04-1.3-0.19c-1.08-0.47-0.06-1.04,0.45-1.36c1.08-0.71,2.18-1.39,3.27-2.09
				C23.06,45.9,22.88,45.59,22.69,45.71L22.69,45.71z"/>
		</g>
	</g>
	<g>
		<g>
			<path d="M34.84,48.8c0,0-0.03,0.04-0.02,0.02c0.01-0.01-0.01,0.01-0.01,0.02c-0.02,0.02-0.03,0.04-0.05,0.06
				c-0.04,0.04-0.08,0.07-0.12,0.11c0.01-0.01,0,0-0.01,0c-0.01,0.01-0.02,0.02-0.04,0.03c-0.02,0.01-0.04,0.03-0.07,0.04
				c-0.02,0.01-0.05,0.03-0.07,0.04c-0.01,0.01-0.02,0.01-0.03,0.02c0,0-0.04,0.02-0.01,0.01c-0.05,0.02-0.09,0.04-0.14,0.05
				c-0.03,0.01-0.05,0.01-0.08,0.02c-0.01,0-0.03,0.01-0.04,0.01c0,0-0.04,0.01-0.02,0c0.02,0-0.03,0-0.03,0c-0.01,0-0.02,0-0.04,0
				c-0.03,0-0.05,0-0.08,0c-0.03,0-0.05,0-0.08,0c-0.01,0-0.02,0-0.04,0c-0.06,0,0.03,0.01-0.02,0c-0.09-0.01-0.19,0.02-0.22,0.12
				c-0.03,0.1,0.03,0.19,0.12,0.22c0.26,0.09,0.55,0.05,0.78-0.1c0.08-0.05,0.11-0.16,0.06-0.24c-0.05-0.08-0.16-0.12-0.24-0.06
				c-0.16,0.1-0.33,0.12-0.5,0.07c-0.03,0.11-0.06,0.23-0.09,0.34c0.54,0.08,1.07-0.14,1.39-0.58c0.06-0.08,0.01-0.2-0.06-0.24
				C34.99,48.68,34.9,48.72,34.84,48.8L34.84,48.8z"/>
		</g>
	</g>
	<g>
		<g>
			<path d="M32.63,49.13c0.06,0.24,0.17,0.44,0.42,0.53c0.11,0.04,0.23,0.04,0.34,0.05c0.11,0.01,0.23,0.02,0.34,0.01
				c0.22,0,0.45-0.04,0.64-0.17c0.11-0.07,0.19-0.16,0.27-0.26c0.08-0.1,0.17-0.21,0.14-0.35c-0.01-0.06-0.07-0.11-0.12-0.12
				c-0.11-0.02-0.21,0.03-0.24,0.14c-0.02,0.07,0.01,0.17,0.08,0.2c0,0,0,0,0.01,0c0.2,0.1,0.38-0.2,0.18-0.31c0,0,0,0-0.01,0
				c0.03,0.07,0.05,0.13,0.08,0.2c0,0,0-0.01,0-0.01c-0.02,0.03-0.03,0.05-0.05,0.08c0,0,0.01,0,0.01-0.01
				c-0.06,0.02-0.11,0.03-0.17,0.05c0,0,0.01,0,0.01,0c-0.04-0.04-0.08-0.08-0.12-0.12c0,0.01,0,0.01,0,0.02
				c0.01-0.05,0.01-0.09,0.02-0.14c-0.06,0.14-0.18,0.28-0.31,0.35c-0.13,0.07-0.29,0.09-0.44,0.09c-0.16,0-0.32,0-0.48-0.03
				c-0.07-0.01-0.13-0.03-0.18-0.09c-0.04-0.06-0.06-0.14-0.08-0.21C32.91,48.82,32.57,48.91,32.63,49.13L32.63,49.13z"/>
		</g>
	</g>
	<g>
		<g>
			<path d="M34.84,37.63c-0.27,3.83-0.38,7.67-0.32,11.5c0,0.23,0.36,0.23,0.35,0c-0.06-3.84,0.05-7.68,0.32-11.5
				C35.21,37.4,34.85,37.4,34.84,37.63L34.84,37.63z"/>
		</g>
	</g>
	<g>
		<g>
			<path d="M33.08,38.53c-0.11,1.75-0.29,3.51-0.29,5.26c0,0.9,0.04,1.79-0.04,2.68c-0.08,0.89-0.12,1.76-0.05,2.65
				c0.02,0.23,0.37,0.23,0.35,0c-0.07-0.89-0.03-1.76,0.05-2.65c0.08-0.9,0.04-1.78,0.04-2.68c0-1.75,0.17-3.51,0.29-5.26
				C33.45,38.3,33.09,38.31,33.08,38.53L33.08,38.53z"/>
		</g>
	</g>
	<g>
		<g>
			<path d="M24.28,37.36c0.16,2.17-0.27,4.34-0.03,6.5c0.03,0.22,0.38,0.23,0.35,0c-0.24-2.17,0.19-4.33,0.03-6.5
				C24.62,37.14,24.26,37.14,24.28,37.36L24.28,37.36z"/>
		</g>
	</g>
	<g>
		<g>
			<path d="M22.18,48.2c0.15,0.23,0.38,0.41,0.65,0.47c0.29,0.07,0.59,0.02,0.87,0.12c0.16,0.06,0.26-0.13,0.2-0.26
				c-0.05-0.11-0.17-0.17-0.29-0.18c-0.05-0.01-0.09,0-0.14,0c-0.02,0-0.04,0-0.06,0c-0.02,0-0.05-0.02-0.02,0c0,0.08,0,0.17,0,0.25
				c0.03-0.02,0.1-0.01,0.14-0.01c0.08,0,0.16-0.01,0.23-0.02c0.16-0.03,0.31-0.08,0.46-0.15c0.09-0.04,0.11-0.17,0.06-0.24
				c-0.05-0.09-0.16-0.1-0.24-0.06c-0.14,0.06-0.3,0.11-0.45,0.12c-0.17,0.01-0.31,0.01-0.45,0.12c-0.07,0.06-0.07,0.19,0,0.25
				c0.09,0.07,0.19,0.1,0.31,0.1c0.04,0,0.08-0.01,0.12,0c0.04,0,0.01,0,0.04,0.01c-0.02-0.01-0.03-0.04-0.01,0
				c0.07-0.09,0.13-0.17,0.2-0.26c-0.25-0.09-0.52-0.06-0.77-0.1c-0.22-0.03-0.41-0.14-0.53-0.33
				C22.37,47.83,22.06,48.01,22.18,48.2L22.18,48.2z"/>
		</g>
	</g>
	<g>
		<g>
			<path d="M22.5,37.31c0.31,1.39,0.01,2.86,0.07,4.27c0.07,1.39,0.01,2.78-0.02,4.17c-0.01,0.64-0.07,1.3-0.03,1.94
				c0.02,0.32,0.12,0.74,0.39,0.96c0.62,0.49,1.59-0.04,1.67-0.75c0.03-0.23-0.33-0.22-0.35,0c-0.07,0.57-0.85,0.7-1.16,0.37
				c-0.16-0.17-0.19-0.43-0.2-0.66c-0.02-0.47,0.01-0.96,0.02-1.43c0.02-1.03,0.05-2.06,0.06-3.1c0.01-1-0.09-2-0.04-2.99
				c0.05-0.97,0.14-1.91-0.07-2.87C22.79,37,22.45,37.09,22.5,37.31L22.5,37.31z"/>
		</g>
	</g>
	<g>
		<g>
			<path d="M32.02,44.67c0.14,0.3,0.29,0.6,0.43,0.89c0.14,0.28,0.36,0.61,0.16,0.91c-0.33,0.49-1.14,0.59-1.68,0.68
				c-0.65,0.11-1.32,0.14-1.98,0.17c-0.31,0.01-0.64,0.05-0.94-0.05c-0.19-0.07-0.34-0.12-0.49,0.05c-0.15,0.17,0.1,0.42,0.25,0.25
				c0.03-0.03,0.34,0.09,0.4,0.1c0.15,0.02,0.3,0.02,0.44,0.02c0.36-0.01,0.72-0.03,1.07-0.05c0.71-0.05,1.44-0.11,2.12-0.31
				c0.49-0.14,1.12-0.42,1.22-0.98c0.05-0.28-0.08-0.53-0.2-0.77c-0.17-0.36-0.34-0.72-0.52-1.07
				C32.23,44.29,31.93,44.47,32.02,44.67L32.02,44.67z"/>
		</g>
	</g>
	<g>
		<g>
			<path d="M29.35,44.25c-1.25-0.12-2.51,0.08-3.7,0.48c-0.47,0.16-1.11,0.32-1.43,0.73c-0.25,0.33-0.23,0.74,0.07,1.02
				c0.37,0.35,0.98,0.47,1.46,0.57c0.61,0.13,1.23,0.18,1.85,0.22c1.29,0.08,2.68,0.12,3.92-0.32c0.67-0.23,1.59-1.26,0.8-1.87
				c-0.42-0.33-1.09-0.51-1.6-0.62c-0.63-0.14-1.28-0.16-1.92-0.09c-0.62,0.06-1.22,0.2-1.82,0.36c-0.47,0.13-1.12,0.2-1.5,0.54
				c-0.27,0.24-0.27,0.62-0.03,0.88c0.36,0.39,1.1,0.37,1.59,0.42c0.74,0.07,1.49,0.12,2.23,0.1c0.42-0.01,1.27-0.05,1.53-0.47
				c0.22-0.36-0.33-0.71-0.61-0.82c-0.44-0.18-0.93-0.13-1.33,0.12c-0.11,0.07-0.12,0.24,0,0.31c0.15,0.09,0.27,0.12,0.44,0.1
				c-0.03-0.11-0.06-0.22-0.09-0.33c-0.06,0.02-0.11,0.05-0.17,0.07c-0.11,0.05-0.1,0.2-0.04,0.28c0.04,0.05,0.09,0.1,0.13,0.15
				c0.15,0.17,0.4-0.08,0.25-0.25c-0.04-0.05-0.09-0.1-0.13-0.15c-0.01,0.09-0.02,0.19-0.04,0.28c0.06-0.02,0.11-0.05,0.17-0.07
				c0.16-0.07,0.08-0.34-0.09-0.33c-0.09-0.02-0.17-0.04-0.26-0.05c0,0.1,0,0.2,0,0.31c0.32-0.2,0.72-0.24,1.07-0.07
				c0.13,0.06,0.38,0.18,0.28,0.34c-0.1,0.15-0.63,0.21-0.79,0.23c-0.81,0.09-1.67,0-2.48-0.07c-0.24-0.02-0.47-0.04-0.7-0.08
				c-0.11-0.02-0.23-0.03-0.34-0.06c-0.28-0.07-0.28-0.05-0.29-0.34c-0.02-0.29-0.01-0.27,0.25-0.37c0.08-0.03,0.17-0.05,0.25-0.08
				c0.22-0.06,0.43-0.13,0.65-0.19c0.83-0.23,1.68-0.42,2.55-0.42c0.83,0,1.86,0.17,2.57,0.64c0.51,0.33-0.09,1.03-0.45,1.22
				c-0.39,0.2-0.89,0.27-1.32,0.33c-0.86,0.12-1.74,0.1-2.61,0.05c-0.88-0.05-1.79-0.12-2.63-0.43c-0.27-0.1-0.72-0.25-0.64-0.65
				c0.06-0.29,0.46-0.44,0.7-0.54c0.44-0.18,0.89-0.32,1.34-0.44c0.95-0.25,1.92-0.34,2.89-0.25
				C29.57,44.63,29.57,44.27,29.35,44.25L29.35,44.25z"/>
		</g>
	</g>
	<g>
		<g>
			<path d="M28.78,41.29c-0.15,0.01-0.5,0.05-0.62-0.07c-0.17-0.17-0.08-0.19,0.17-0.21c0.31-0.02,0.62,0.06,0.9,0.16
				c0.54,0.2,1.1,0.48,1.58,0.81c0.78,0.54,1.38,1.39,1.79,2.24c0.5,1.02,0.17,2.39-0.42,3.32c-0.47,0.74-1.09,1.14-1.91,1.39
				c-2.05,0.65-4.21,0.23-5.65-1.42c-0.84-0.97-0.48-2.57-0.04-3.66c0.41-1.04,1.14-1.83,2.15-2.29c0.39-0.18,0.89-0.35,1.1-0.76
				c0.14-0.29,0.2-0.83,0.02-1.11c-0.15-0.22-0.45-0.3-0.64-0.09c-0.24,0.26-0.03,0.58,0.18,0.77c0.17,0.16,0.42-0.09,0.25-0.25
				c-0.16-0.15,0.01-0.07-0.05,0.07c-0.1,0.27-0.02,0.47-0.28,0.68c-0.2,0.16-0.45,0.25-0.68,0.36c-0.52,0.24-0.99,0.52-1.39,0.93
				c-0.81,0.85-1.22,1.98-1.38,3.12c-0.07,0.51-0.17,1.09-0.01,1.59c0.14,0.45,0.45,0.82,0.78,1.15c0.74,0.73,1.67,1.3,2.71,1.49
				c1.7,0.3,3.91-0.09,4.99-1.55c0.64-0.86,0.98-2.04,0.85-3.11c-0.12-0.99-0.92-2.01-1.61-2.69c-0.38-0.37-0.82-0.65-1.29-0.89
				c-0.55-0.29-1.15-0.6-1.79-0.62c-0.29-0.01-0.98,0.04-0.92,0.48c0.06,0.48,0.86,0.52,1.2,0.5
				C29.01,41.63,29.01,41.28,28.78,41.29L28.78,41.29z"/>
		</g>
	</g>
	<g>
		<g>
			<path d="M29.73,39.11c-0.1,0.46-0.15,0.93-0.16,1.4c0,0.23,0.01,0.46,0.03,0.69c0.01,0.1,0.08,0.43-0.12,0.38
				c-0.22-0.06-0.31,0.28-0.09,0.34c0.22,0.06,0.45-0.04,0.54-0.24c0.1-0.23,0.02-0.53,0.01-0.77c-0.03-0.57,0.02-1.15,0.14-1.71
				C30.12,38.98,29.78,38.89,29.73,39.11L29.73,39.11z"/>
		</g>
	</g>
	<g>
		<g>
			<path d="M26.78,39.05c0.07,0.11,0.16,0.18,0.27,0.24c0.12,0.07,0.22,0.11,0.25,0.26c0.04,0.16,0.02,0.34,0.02,0.5
				c0,0.18,0.01,0.37-0.03,0.55c-0.03,0.15-0.15,0.26-0.21,0.39c-0.07,0.14-0.11,0.29-0.09,0.44c0.03,0.3,0.3,0.53,0.61,0.47
				c-0.05-0.01-0.09-0.01-0.14-0.02c0,0,0.01,0,0.01,0.01c-0.02-0.08-0.04-0.16-0.06-0.24c0.01-0.02,0.03-0.03,0.04-0.05
				c0.06,0,0.12,0,0.18,0c0,0-0.01-0.01-0.01-0.01c0.03,0.07,0.05,0.13,0.08,0.2c-0.01,0.04,0.02-0.03,0.03-0.05
				c0.02-0.03,0.02-0.06,0.02-0.1c0-0.08-0.04-0.13-0.1-0.18c-0.19-0.13-0.36,0.17-0.18,0.31c0.01,0,0.01,0.01,0.02,0.01
				c-0.03-0.05-0.06-0.1-0.09-0.15c0.02-0.06,0.02-0.06-0.01-0.01c-0.01,0.02-0.02,0.05-0.03,0.08c-0.02,0.08,0.01,0.15,0.08,0.2
				c0.1,0.07,0.21,0.01,0.28-0.07c0.06-0.08,0.01-0.2-0.06-0.24c-0.1-0.07-0.21,0.02-0.28-0.1c-0.07-0.12,0-0.28,0.07-0.39
				c0.07-0.12,0.16-0.23,0.2-0.37c0.04-0.15,0.04-0.32,0.04-0.47c0.01-0.29,0.05-0.64-0.07-0.91c-0.05-0.12-0.14-0.21-0.25-0.28
				c-0.09-0.06-0.22-0.09-0.27-0.18C26.96,38.68,26.66,38.86,26.78,39.05L26.78,39.05z"/>
		</g>
	</g>
	<g>
		<g>
			<path d="M28.64,38.07c-0.49-0.09-1.05-0.11-1.53,0.05c-0.18,0.06-0.34,0.17-0.39,0.36c-0.05,0.21,0.06,0.43,0.24,0.56
				c0.18,0.13,0.41,0.18,0.63,0.22c0.27,0.06,0.55,0.09,0.83,0.12c0.51,0.04,1.08,0.08,1.58-0.05c0.19-0.05,0.39-0.14,0.5-0.31
				c0.11-0.17,0.08-0.39-0.07-0.53c-0.15-0.14-0.37-0.19-0.56-0.24c-0.27-0.06-0.54-0.1-0.82-0.12c-0.25-0.02-0.5-0.03-0.75-0.03
				c-0.21,0-0.44,0.02-0.63,0.12c-0.15,0.08-0.33,0.24-0.28,0.43c0.05,0.23,0.33,0.27,0.52,0.3c0.3,0.04,0.6,0.06,0.91,0.06
				c0.29,0,0.59,0.01,0.87-0.04c0.21-0.03,0.41-0.15,0.46-0.37c0.04-0.2-0.06-0.39-0.25-0.45c-0.02,0.12-0.03,0.23-0.05,0.35
				c0.06,0,0.06,0.01,0.07,0.06c0.03,0.22,0.37,0.13,0.34-0.09c-0.03-0.2-0.21-0.34-0.41-0.32c-0.2,0.01-0.25,0.29-0.05,0.35
				c0,0,0,0.04-0.02,0.07c-0.03,0.05-0.14,0.06-0.2,0.07c-0.17,0.02-0.34,0.02-0.5,0.02c-0.35,0.01-0.7,0.01-1.04-0.03
				c-0.09-0.01-0.17-0.04-0.26-0.04c-0.06,0-0.04-0.05-0.06,0.01c-0.02,0.08,0.03,0.01,0.04,0c0.14-0.07,0.24-0.12,0.41-0.13
				c0.31-0.02,0.63,0,0.95,0.03c0.32,0.03,0.7,0.06,0.99,0.2c0.14,0.07,0.11,0.15-0.01,0.22c-0.14,0.08-0.32,0.1-0.48,0.11
				c-0.68,0.06-1.4,0.02-2.06-0.14c-0.14-0.03-0.37-0.07-0.46-0.21c-0.11-0.18,0.14-0.23,0.26-0.26c0.39-0.09,0.8-0.09,1.19-0.01
				C28.77,38.46,28.86,38.12,28.64,38.07L28.64,38.07z"/>
		</g>
	</g>
	<g>
		<g>
			<path d="M22.21,34.61c-0.56,0.65-1.22,1.15-2.02,1.47c0.07,0.04,0.15,0.08,0.22,0.12c-0.06-0.26-0.24-0.6-0.56-0.36
				c-0.33,0.25-0.06,1.25,0.1,1.51c0.29,0.5,0.86,0.28,1.34,0.2c0.57-0.09,1.15-0.21,1.73-0.22c0.57-0.01,1.07,0.14,1.61,0.28
				c0.47,0.11,0.95,0.13,1.41,0.24c0.4,0.09,0.77,0.28,1.16,0.36c1.03,0.21,2.05-0.12,3.07,0.27c0.82,0.31,1.48,0.53,2.36,0.31
				c0.32-0.08,2.68-1.05,2.69-0.99c0.05,0.22,0.39,0.13,0.34-0.09c-0.16-0.79-1.83,0.25-2.21,0.41c-0.92,0.4-1.77,0.55-2.72,0.17
				c-0.78-0.31-1.37-0.43-2.21-0.39c-0.89,0.04-1.55-0.2-2.4-0.39c-0.7-0.16-1.43-0.27-2.14-0.43c-0.63-0.14-1.25-0.1-1.89-0.01
				c-0.34,0.05-0.7,0.15-1.05,0.16c-0.32,0.01-0.76-0.04-0.91-0.35c-0.08-0.17-0.04-0.4-0.08-0.58c0.02,0.09,0.13,0.16,0.22,0.12
				c0.86-0.35,1.58-0.85,2.18-1.56C22.61,34.69,22.36,34.44,22.21,34.61L22.21,34.61z"/>
		</g>
	</g>
	<g>
		<g>
			<path d="M20.22,35.98c0.04,0.5,0.46,0.47,0.88,0.45c0.65-0.03,1.3-0.08,1.95,0.03c0.46,0.08,0.86,0.31,1.3,0.43
				c0.5,0.12,0.94,0,1.45-0.02c0.61-0.03,1.19,0.13,1.78,0.24c1.08,0.2,2.17,0,3.22,0.4c0.82,0.32,1.49,0.59,2.35,0.25
				c0.92-0.36,1.83-0.82,2.7-1.29c0.39-0.21,1.34-0.58,1.33-1.16c-0.01-0.42-0.44-0.6-0.79-0.47c-0.21,0.08-0.12,0.42,0.09,0.34
				c0.19,0.32,0.13,0.52-0.18,0.62c-0.17,0.1-0.34,0.2-0.51,0.3c-0.3,0.17-0.61,0.32-0.92,0.46c-0.68,0.33-1.45,0.82-2.19,0.98
				c-0.79,0.17-1.45-0.29-2.18-0.51c-0.57-0.17-1.12-0.15-1.71-0.16c-0.81-0.01-1.55-0.24-2.35-0.33c-0.67-0.08-1.36,0.16-2.01,0.01
				c-0.56-0.13-1.04-0.4-1.63-0.47c-0.23-0.03-2.23,0.08-2.24-0.1C20.55,35.75,20.2,35.75,20.22,35.98L20.22,35.98z"/>
		</g>
	</g>
	<g>
		<g>
			<path d="M33.05,34.75c-0.72-0.13-1.45-0.27-2.18-0.28c-0.38,0-0.75,0.04-1.13,0.02c-0.39-0.02-0.77-0.1-1.16-0.12
				c-0.39-0.02-0.78,0-1.17-0.04c-0.36-0.04-0.7-0.15-1.05-0.22c-0.7-0.14-1.39-0.12-2.09,0.01c-0.22,0.04-0.13,0.38,0.09,0.34
				c0.09-0.02-0.12,0.49-0.14,0.52c-0.1,0.2,0.2,0.38,0.31,0.18c0.16-0.33,0.41-1.16-0.26-1.04c0.03,0.11,0.06,0.23,0.09,0.34
				c0.77-0.15,1.5-0.11,2.26,0.07c0.66,0.16,1.28,0.16,1.96,0.2c0.34,0.02,0.67,0.08,1.01,0.11c0.35,0.03,0.69,0,1.04-0.01
				c0.79-0.02,1.56,0.12,2.33,0.26C33.18,35.13,33.28,34.79,33.05,34.75L33.05,34.75z"/>
		</g>
	</g>
	<g>
		<g>
			<path d="M22.62,34.61c-0.55,0.39-1.12,0.74-1.73,1.04c-0.31,0.15-0.81,0.27-0.99,0.6c-0.31,0.57,0.27,1.08,0.79,1.15
				c0.66,0.09,1.39-0.11,2.06-0.07c0.77,0.04,1.52,0.17,2.28,0.3c1.23,0.21,2.35,0.48,3.6,0.53c1.25,0.05,2.42,0.62,3.67,0.64
				c1.26,0.01,2.35-0.81,3.4-1.39c0.6-0.33,1.72-0.68,1.55-1.57c-0.19-1-1.23-0.82-1.98-0.96c-0.22-0.04-0.32,0.3-0.09,0.34
				c0.11,0.02,0.23,0.05,0.35,0.06c0.52,0.07,0.77-0.07,1.13,0.4c0.32,0.41,0.24,0.56-0.16,0.89c-0.15,0.12-0.36,0.2-0.53,0.3
				c-0.79,0.44-1.58,0.94-2.4,1.31c-1.66,0.75-3.61-0.35-5.35-0.36c-1.67-0.02-3.32-0.64-4.99-0.8c-0.41-0.04-0.83-0.06-1.25-0.04
				c-0.22,0.01-0.52,0.11-0.74,0.07c-0.09,0.01-0.18,0.01-0.27,0.02c-0.14-0.29-0.27-0.58-0.41-0.86c0.06-0.15,0.87-0.42,1.03-0.51
				c0.42-0.23,0.82-0.5,1.22-0.78C22.98,34.79,22.8,34.48,22.62,34.61L22.62,34.61z"/>
		</g>
	</g>
	<g>
		<g>
			<path d="M28.75,34.45c-0.12,0-0.24,0-0.36,0c-0.09,0-0.14,0.06-0.17,0.13c-0.07,0.16-0.06,0.33-0.04,0.5
				c0.02,0.14,0.06,0.29,0.11,0.43c0.07,0.16,0.18,0.28,0.36,0.31c0.18,0.03,0.36,0.02,0.53-0.05c0.07-0.03,0.13-0.09,0.13-0.17
				c0-0.08-0.05-0.15-0.13-0.17c-0.23-0.06-0.46-0.01-0.7-0.02c-0.02,0-0.02,0-0.01,0c-0.01,0-0.02,0-0.03,0
				c-0.02,0-0.04-0.01-0.06-0.01c-0.01,0-0.07-0.02-0.04-0.01c-0.02-0.01-0.03-0.01-0.05-0.02c-0.01,0-0.06-0.04-0.03-0.02
				c-0.01-0.01-0.02-0.02-0.04-0.03c-0.01-0.02-0.01-0.02,0,0c-0.01-0.01-0.01-0.02-0.02-0.03c-0.01-0.02-0.01-0.02,0,0
				c0-0.01-0.01-0.02-0.01-0.03c-0.11,0.05-0.22,0.09-0.32,0.14c0.16,0.23,0.35,0.48,0.62,0.6c0.31,0.14,0.65,0.09,0.91-0.12
				c-0.09-0.01-0.19-0.02-0.28-0.04c0.01,0.03,0.03,0.06,0.04,0.08c0.05-0.09,0.1-0.18,0.15-0.27c-0.03,0-0.06,0-0.08,0
				c-0.1,0-0.18,0.08-0.18,0.18c0,0.09,0.08,0.18,0.18,0.18c0.03,0,0.06,0,0.08,0c0.14-0.01,0.21-0.14,0.15-0.27
				c-0.01-0.03-0.03-0.06-0.04-0.08c-0.05-0.11-0.2-0.1-0.28-0.04c-0.02,0.01-0.09,0.05-0.11,0.06c-0.05,0.02-0.11,0.03-0.14,0.04
				c-0.03,0-0.06,0-0.09,0c-0.03,0-0.02,0-0.05-0.01c-0.06-0.01-0.1-0.03-0.14-0.05c-0.18-0.1-0.32-0.28-0.44-0.45
				c-0.05-0.07-0.14-0.11-0.22-0.07c-0.08,0.04-0.13,0.12-0.1,0.21c0.06,0.23,0.27,0.37,0.49,0.41c0.24,0.05,0.5-0.03,0.74,0.03
				c0-0.11,0-0.23,0-0.34c-0.11,0.04-0.24,0.06-0.35,0.05c-0.04-0.01-0.07-0.01-0.09-0.04c-0.02-0.02,0.01,0.02-0.01-0.01
				c-0.01-0.01-0.01-0.02-0.02-0.03c-0.01-0.03,0.01,0.02,0-0.01c-0.01-0.01-0.01-0.03-0.02-0.05c-0.07-0.22-0.14-0.46-0.05-0.67
				c-0.06,0.04-0.11,0.09-0.17,0.13c0.12,0,0.24,0,0.36,0c0.1,0,0.18-0.08,0.18-0.18C28.93,34.53,28.85,34.45,28.75,34.45
				L28.75,34.45z"/>
		</g>
	</g>
	<g>
		<g>
			<path d="M29.23,31.19c0.4,0.06,0.83,0.1,1.22,0.21c0.14,0.04,0.3,0.1,0.39,0.22c0.15,0.2-0.02,0.41-0.19,0.53
				c-0.34,0.25-0.8,0.31-1.21,0.34c-0.46,0.04-0.92,0.04-1.39,0c-0.25-0.02-0.5-0.05-0.75-0.09c-0.1-0.02-0.21-0.04-0.31-0.06
				c-0.16-0.03-0.09-0.09,0.03-0.15c0.37-0.19,0.83-0.28,1.24-0.31c0.4-0.03,0.81,0,1.2,0.1c0.36,0.09,0.86,0.23,1.11,0.52
				c0.36,0.43-0.29,0.75-0.63,0.83c-0.45,0.11-0.92,0.17-1.39,0.18c-0.46,0.01-0.95-0.01-1.4-0.1c-0.09-0.02-0.21-0.04-0.27-0.12
				c-0.13-0.17,0.08-0.19,0.19-0.2c0.23-0.02,0.47-0.03,0.7-0.04c0.47-0.01,0.94,0,1.41,0.05c0.23,0.02,0.46,0.05,0.69,0.09
				c0.2,0.03,0.44,0.04,0.62,0.13c0.32,0.15,0.05,0.42-0.16,0.5c-0.2,0.08-0.42,0.13-0.64,0.18c-0.46,0.1-0.93,0.15-1.4,0.15
				c-0.47,0-0.95-0.06-1.41-0.17c-0.04-0.01-0.07-0.02-0.11-0.03c-0.07-0.01-0.03-0.04-0.04,0c0.01-0.07,0.12-0.14,0.18-0.17
				c0.18-0.1,0.42-0.14,0.62-0.16c0.48-0.05,0.91,0.13,1.13,0.58c0.22,0.43,0.24,0.96,0.2,1.43c-0.02,0.23,0.34,0.23,0.35,0
				c0.05-0.57,0-1.23-0.31-1.73c-0.28-0.45-0.78-0.66-1.3-0.63c-0.41,0.02-1.02,0.12-1.2,0.55c-0.19,0.47,0.51,0.53,0.81,0.59
				c0.64,0.11,1.29,0.13,1.93,0.05c0.33-0.04,0.65-0.1,0.97-0.19c0.26-0.07,0.56-0.16,0.74-0.38c0.13-0.16,0.19-0.39,0.1-0.59
				c-0.1-0.23-0.34-0.31-0.56-0.36c-0.64-0.14-1.31-0.21-1.97-0.23c-0.32-0.01-0.64-0.01-0.97,0.01c-0.25,0.01-0.6-0.01-0.82,0.15
				c-0.17,0.12-0.21,0.34-0.13,0.52c0.11,0.25,0.36,0.34,0.62,0.39c0.67,0.12,1.35,0.13,2.02,0.06c0.52-0.06,1.2-0.12,1.6-0.5
				c0.39-0.37,0.32-0.92-0.1-1.22c-0.44-0.32-1.03-0.48-1.56-0.55c-0.57-0.08-1.16-0.04-1.71,0.13c-0.24,0.07-0.53,0.15-0.71,0.32
				c-0.17,0.15-0.24,0.4-0.06,0.56c0.21,0.19,0.64,0.19,0.91,0.22c0.38,0.05,0.77,0.08,1.16,0.08c0.66,0,1.43-0.02,2.03-0.34
				c0.43-0.24,0.77-0.79,0.34-1.21c-0.17-0.17-0.42-0.26-0.66-0.31c-0.35-0.08-0.71-0.12-1.07-0.17
				C29.1,30.81,29.01,31.15,29.23,31.19L29.23,31.19z"/>
		</g>
	</g>
	<g>
		<g>
			<path d="M28.19,28.89c-0.02,0.38-0.03,0.77-0.05,1.15c-0.01,0.17-0.04,0.36,0.01,0.53c0.05,0.18,0.2,0.27,0.35,0.35
				c0.16,0.09,0.32,0.2,0.49,0.28c0.15,0.08,0.35,0.07,0.41-0.13c0.04-0.15-0.04-0.3-0.18-0.36c-0.14-0.06-0.32-0.05-0.46-0.04
				c-0.33,0-0.67,0.07-0.91,0.31c-0.16,0.16,0.09,0.42,0.25,0.25c0.13-0.13,0.3-0.19,0.48-0.2c0.1-0.01,0.2-0.01,0.29-0.01
				c0.05,0,0.1,0,0.15,0.01c0.01,0,0.04,0.01,0.06,0.01c0.03,0.01,0.03,0.01,0-0.02c-0.02-0.02-0.02-0.05,0-0.08
				c0.03-0.02,0.05-0.03,0.08-0.05c0.03,0,0.02-0.01-0.02-0.02c-0.03-0.01-0.05-0.03-0.08-0.04c-0.05-0.03-0.1-0.06-0.15-0.09
				c-0.09-0.05-0.18-0.1-0.26-0.15c-0.06-0.04-0.14-0.06-0.15-0.14c-0.02-0.09,0-0.2,0-0.29c0.02-0.43,0.03-0.86,0.05-1.28
				C28.56,28.66,28.2,28.67,28.19,28.89L28.19,28.89z"/>
		</g>
	</g>
	<g>
		<g>
			<path d="M29.29,28.71c-0.37,0.02-0.75,0.01-1.12-0.03c0.02,0.12,0.03,0.23,0.05,0.35c0.18-0.07,0.36-0.12,0.55-0.15
				c0.09-0.01,0.18-0.03,0.27-0.02c0.03,0,0-0.02,0.01,0.01c0.01,0.05,0.01,0.1,0.02,0.15c0.02,0.21,0.04,0.41,0.05,0.62
				c0.01,0.13,0.05,0.33-0.07,0.42c-0.11,0.08-0.24,0.12-0.33,0.24c-0.09,0.14-0.06,0.3-0.03,0.46c0.02,0.08,0.03,0.12-0.03,0.17
				c-0.05,0.05-0.11,0.09-0.18,0.12c-0.12,0.05-0.26,0.07-0.39,0.04c-0.07-0.02-0.14-0.04-0.2-0.08c-0.03-0.02-0.06-0.04-0.08-0.07
				c-0.04-0.04,0-0.02-0.01-0.01c0.01-0.01,0.04-0.03,0.05-0.03c0.18-0.1,0.37-0.16,0.57-0.17c0.13-0.01,0.23-0.15,0.15-0.27
				c-0.12-0.2-0.35-0.3-0.58-0.24c-0.19,0.05-0.15,0.28,0,0.34c0.02,0.01,0.03,0.03,0.04,0.05c0.08,0.21,0.42,0.12,0.34-0.09
				c-0.05-0.15-0.14-0.23-0.29-0.29c0,0.11,0,0.23,0,0.34c0.07-0.02,0.14,0.01,0.18,0.08c0.05-0.09,0.1-0.18,0.15-0.27
				c-0.34,0.02-1.28,0.26-0.89,0.77c0.26,0.35,0.82,0.38,1.18,0.19c0.2-0.1,0.38-0.29,0.36-0.52c-0.01-0.09-0.06-0.19-0.06-0.27
				c0-0.08,0.09-0.1,0.15-0.14c0.21-0.12,0.31-0.28,0.31-0.52c0.01-0.28-0.03-0.56-0.05-0.83c-0.01-0.13-0.01-0.28-0.08-0.39
				c-0.07-0.12-0.21-0.15-0.34-0.15c-0.3,0.01-0.6,0.08-0.88,0.19c-0.19,0.08-0.15,0.32,0.05,0.35c0.37,0.05,0.75,0.06,1.12,0.03
				C29.52,29.05,29.52,28.7,29.29,28.71L29.29,28.71z"/>
		</g>
	</g>
	<g>
		<g>
			<path d="M27.67,24.04c1.04,0.03,2.09,0.06,3.13,0.09c0-0.12,0-0.24,0-0.35c-0.94,0-1.88,0.01-2.82,0.01c-0.49,0-0.98,0-1.47,0.01
				c-0.11,0-0.23-0.01-0.34,0c-0.15,0.01-0.16,0.08-0.09-0.04c0.12-0.22,0.18-0.46,0.47-0.37c0.82,0.25,1.62,0.47,2.48,0.54
				c0.87,0.07,1.74,0,2.59-0.17c0.21-0.04,0.13-0.32-0.05-0.35c-0.05-0.01-0.1-0.01-0.16-0.02c-0.21-0.03-0.22,0.28-0.05,0.35
				c0.01,0,0.03,0.01,0.04,0.01c-0.04-0.04-0.08-0.08-0.12-0.12c-0.06-0.15-0.65,0-0.8,0.01c-0.22,0.03-0.23,0.38,0,0.35
				c0.21-0.02,0.42-0.05,0.63-0.07c0.14-0.02,0.32-0.01,0.43-0.1c0.17-0.14,0.1-0.36-0.08-0.43c-0.02,0.12-0.03,0.23-0.05,0.35
				c0.05,0.01,0.1,0.01,0.16,0.02c-0.02-0.12-0.03-0.23-0.05-0.35c-1.06,0.22-2.15,0.25-3.22,0.07c-0.51-0.08-1.02-0.22-1.51-0.39
				c-0.4-0.14-0.68-0.14-0.9,0.26c-0.13,0.23-0.4,0.63-0.01,0.77c0.22,0.08,0.52,0.03,0.75,0.02c0.26,0,0.53,0,0.79,0
				c1.13-0.01,2.26-0.01,3.39-0.02c0.23,0,0.23-0.35,0-0.35c-1.04-0.03-2.09-0.06-3.13-0.09C27.44,23.68,27.44,24.03,27.67,24.04
				L27.67,24.04z"/>
		</g>
	</g>
	<g>
		<g>
			<path d="M27.24,26.83c0.73-0.16,1.45-0.2,2.19-0.17c0.59,0.02,1.2-0.02,1.65-0.45c0.07-0.07,0.06-0.18,0-0.25
				c-0.21-0.26-0.62-0.23-0.92-0.26c-0.42-0.04-0.85-0.07-1.28-0.06c-0.8,0.01-1.6,0.14-2.31,0.52c-0.09,0.05-0.11,0.16-0.06,0.24
				c0.17,0.3,0.53,0.28,0.83,0.26c0.51-0.03,1.03-0.07,1.54-0.12c0.9-0.09,1.81-0.18,2.64-0.56c-0.06-0.1-0.12-0.2-0.18-0.31
				c-0.15,0.08-0.27,0.19-0.37,0.33c0.1,0,0.2,0,0.31,0c-0.25-0.34-0.53-0.65-0.84-0.93c-0.17-0.15-0.42,0.1-0.25,0.25
				c0.29,0.26,0.56,0.54,0.79,0.86c0.08,0.11,0.23,0.12,0.31,0c0.06-0.09,0.14-0.15,0.24-0.2c0.21-0.11,0.03-0.4-0.18-0.31
				c-0.71,0.33-1.5,0.42-2.27,0.49c-0.4,0.04-0.81,0.07-1.21,0.1c-0.2,0.01-0.4,0.03-0.61,0.04c-0.13,0.01-0.36,0.05-0.43-0.09
				c-0.02,0.08-0.04,0.16-0.06,0.24c0.63-0.34,1.34-0.45,2.05-0.47c0.34-0.01,0.69,0.01,1.03,0.03c0.16,0.01,0.33,0.03,0.49,0.04
				c0.16,0.02,0.4,0,0.51,0.14c0-0.08,0-0.17,0-0.25c-0.47,0.45-1.16,0.34-1.75,0.33c-0.65-0.01-1.3,0.06-1.93,0.2
				C26.92,26.54,27.01,26.88,27.24,26.83L27.24,26.83z"/>
		</g>
	</g>
	<g>
		<g>
			<path d="M30.04,11.85c-0.88-0.27-2.13-0.58-2.91,0.07c-0.11,0.09-0.04,0.26,0.08,0.3c0.48,0.13,0.94-0.04,1.43-0.03
				c0.49,0.02,0.93,0.3,1.42,0.34c0.99,0.08,1.65-0.78,2.1-1.54c0.12-0.2-0.19-0.38-0.31-0.18c-0.44,0.75-1.08,1.57-2.06,1.31
				c-0.38-0.1-0.74-0.28-1.15-0.29c-0.45-0.01-0.89,0.16-1.34,0.04c0.03,0.1,0.05,0.2,0.08,0.3c0.33-0.27,0.78-0.29,1.19-0.26
				c0.47,0.04,0.93,0.14,1.38,0.28C30.17,12.26,30.26,11.92,30.04,11.85L30.04,11.85z"/>
		</g>
	</g>
	<g>
		<g>
			<path d="M35.1,21.32c-0.2,3.42-0.37,6.85-0.49,10.27c-0.01,0.16,0.19,0.22,0.3,0.13c0.12-0.11,0.25-0.22,0.37-0.33
				c0.17-0.15-0.08-0.4-0.25-0.25c-0.12,0.11-0.25,0.22-0.37,0.33c0.1,0.04,0.2,0.08,0.3,0.13c0.13-3.43,0.29-6.85,0.49-10.27
				C35.47,21.1,35.12,21.1,35.1,21.32L35.1,21.32z"/>
		</g>
	</g>
	<g>
		<g>
			<path d="M33.16,21.41c-0.04,1.23-0.08,2.47,0.04,3.7c0.14,1.32,0.2,2.5,0.05,3.83c-0.27,2.52-0.16,5.07-0.14,7.6
				c0,0.17,0.25,0.25,0.33,0.09c0.02-0.03,0.03-0.07,0.05-0.1c0.03-0.05,0.04-0.13,0-0.18c-0.02-0.03-0.04-0.06-0.07-0.09
				c-0.04-0.06-0.12-0.11-0.2-0.08c-0.04,0.01-0.07,0.03-0.11,0.04c-0.08,0.03-0.12,0.09-0.13,0.17c0,0.04-0.01,0.08-0.01,0.11
				c-0.02,0.23,0.33,0.22,0.35,0c-0.07-0.02-0.13-0.03-0.2-0.05c0.11,0.03,0.22,0.06,0.33,0.09c-0.03-2.53-0.13-5.08,0.14-7.6
				c0.14-1.27,0.11-2.41-0.04-3.68c-0.14-1.28-0.11-2.56-0.06-3.85C33.52,21.18,33.17,21.18,33.16,21.41L33.16,21.41z"/>
		</g>
	</g>
	<g>
		<g>
			<path d="M32.76,35.89c0.02,0.38,0.27,0.67,0.61,0.81c0.46,0.18,0.96,0,1.39-0.18c-0.05-0.11-0.09-0.22-0.14-0.32
				c-0.53,0.31-1.14,0.34-1.71,0.12c-0.02,0.12-0.03,0.23-0.05,0.35c0.41,0.02,0.81-0.01,1.22-0.08c0.34-0.06,0.82-0.13,1.1-0.35
				c0.12-0.09,0.14-0.23,0.15-0.37c0.02-0.22,0.04-0.44,0.05-0.66c0.02-0.34,0.05-0.67,0.06-1.01c0.03-0.66,0.04-1.31-0.06-1.96
				c-0.04-0.27-0.08-0.53-0.1-0.8c-0.02-0.23-0.37-0.23-0.35,0c0.04,0.58,0.17,1.14,0.18,1.72c0.01,0.61-0.03,1.23-0.07,1.84
				c-0.02,0.24-0.03,0.48-0.05,0.72c-0.02,0.2-0.04,0.24-0.23,0.33c-0.11,0.05-0.24,0.08-0.36,0.11c-0.5,0.13-1.02,0.18-1.53,0.16
				c-0.21-0.01-0.22,0.28-0.05,0.35c0.65,0.25,1.38,0.19,1.99-0.16c0.17-0.1,0.05-0.4-0.14-0.32c-0.3,0.13-0.64,0.28-0.98,0.24
				c-0.28-0.03-0.56-0.22-0.58-0.52C33.11,35.66,32.75,35.66,32.76,35.89L32.76,35.89z"/>
		</g>
	</g>
	<g>
		<g>
			<path d="M22.3,35.52c0.75,0.5,1.81,0.29,2.36-0.42c0.12-0.16-0.14-0.36-0.28-0.21c-0.25,0.28-0.69,0.53-1.07,0.35
				c-0.05,0.11-0.09,0.22-0.14,0.32c0.61,0.09,1.33,0.14,1.72-0.44c-0.11-0.03-0.22-0.06-0.33-0.09c0,0.02,0,0.04-0.01,0.05
				c0.11,0.05,0.22,0.09,0.32,0.14c0.04-0.31,0.11-0.61,0.19-0.91c0.06-0.22-0.28-0.31-0.34-0.09c-0.09,0.3-0.15,0.6-0.19,0.91
				c-0.01,0.09,0.01,0.17,0.1,0.21c0.08,0.03,0.18,0.01,0.22-0.07c0.04-0.08,0.06-0.15,0.06-0.23c0.01-0.19-0.24-0.23-0.33-0.09
				c-0.29,0.42-0.89,0.34-1.32,0.28c-0.09-0.01-0.17,0.01-0.21,0.1c-0.03,0.08-0.01,0.18,0.07,0.22c0.53,0.25,1.12,0,1.5-0.4
				c-0.09-0.07-0.19-0.14-0.28-0.21c-0.43,0.56-1.29,0.67-1.87,0.29C22.29,35.09,22.11,35.4,22.3,35.52L22.3,35.52z"/>
		</g>
	</g>
	<g>
		<g>
			<path d="M24.46,21.24c-0.26,2.3-0.12,4.63-0.13,6.93c-0.01,2.31-0.06,4.62-0.16,6.92c-0.01,0.14,0.15,0.21,0.27,0.15
				c0.02,0,0.05,0,0.07,0c0.2,0.11,0.38-0.2,0.18-0.31c-0.19-0.1-0.23-0.1-0.43,0c0.09,0.05,0.18,0.1,0.27,0.15
				c0.1-2.31,0.15-4.62,0.16-6.92c0.01-2.31-0.13-4.64,0.13-6.93C24.84,21.01,24.48,21.01,24.46,21.24L24.46,21.24z"/>
		</g>
	</g>
	<g>
		<g>
			<path d="M22.42,20.98c0.14,2.36,0.38,4.74,0.36,7.11c-0.01,1.23-0.19,2.45-0.22,3.68c-0.03,1.24,0.04,2.47,0.11,3.71
				c0.12-0.02,0.23-0.03,0.35-0.05c0.01-0.07,0.01-0.14,0.02-0.21c0.15-0.17-0.1-0.42-0.25-0.25c-0.16,0.18-0.2,0.32-0.11,0.56
				c0.07,0.17,0.36,0.17,0.35-0.05c-0.07-1.23-0.13-2.47-0.11-3.71c0.03-1.23,0.21-2.45,0.22-3.68c0.01-2.37-0.23-4.75-0.36-7.11
				C22.76,20.75,22.41,20.75,22.42,20.98L22.42,20.98z"/>
		</g>
	</g>
	<g>
		<g>
			<path d="M23.7,19.83c-0.01,0.46,0.03,0.92,0.11,1.37c0.01,0.06,0.07,0.11,0.12,0.12c0.12,0.03,0.23,0.07,0.33,0.13
				c0.07,0.04,0.15,0.02,0.21-0.03c0.08-0.07,0.12-0.18,0.12-0.28c0-0.12-0.07-0.22-0.16-0.29c-0.08-0.06-0.2-0.01-0.24,0.06
				c-0.05,0.09-0.01,0.19,0.06,0.24c-0.01-0.01-0.03-0.01-0.01,0c-0.01-0.02-0.01-0.01,0,0.01c0-0.02,0-0.02,0,0c0,0,0,0,0,0.01
				c0-0.01,0-0.01,0.01-0.01c-0.01,0.01-0.02,0.02-0.03,0.02c0.07-0.01,0.14-0.02,0.21-0.03c-0.13-0.08-0.27-0.14-0.41-0.17
				c0.04,0.04,0.08,0.08,0.12,0.12c-0.07-0.42-0.11-0.85-0.1-1.28C24.05,19.6,23.7,19.6,23.7,19.83L23.7,19.83z"/>
		</g>
	</g>
	<g>
		<g>
			<path d="M32.48,20.41c0.02,0.17,0.05,0.34,0.07,0.51c0.02,0.17,0.04,0.33,0.07,0.5c0.03,0.16,0.1,0.3,0.24,0.39
				c0.13,0.08,0.32,0.1,0.44,0.01c0.07-0.05,0.11-0.13,0.07-0.22c-0.03-0.07-0.13-0.14-0.21-0.1c-0.08,0.03-0.17,0.06-0.25,0.1
				c-0.09,0.03-0.15,0.12-0.12,0.22c0.02,0.08,0.13,0.16,0.22,0.12c0.08-0.03,0.17-0.06,0.25-0.1c-0.05-0.11-0.09-0.22-0.14-0.32
				c-0.01,0.01-0.02,0.01-0.03,0.02c0.02-0.01,0.01-0.01-0.01,0c0.02,0,0.02,0-0.01,0c0.02,0,0.01,0-0.01,0
				c-0.03-0.01-0.04-0.02-0.06-0.05c-0.05-0.08-0.06-0.21-0.08-0.31c-0.04-0.28-0.08-0.57-0.12-0.85c-0.01-0.09-0.13-0.15-0.22-0.12
				C32.5,20.22,32.47,20.31,32.48,20.41L32.48,20.41z"/>
		</g>
	</g>
	<g>
		<g>
			<path d="M28.82,20.34c0.79,0.22,1.6,0.37,2.42,0.44c0.76,0.06,1.56,0.09,2.29-0.16c0.42-0.14,0.71-0.16,1.15-0.08
				c0.3,0.06,0.6,0.13,0.91,0.07c0.64-0.11,1.09-0.71,1.75-0.74c0.23-0.01,0.23-0.37,0-0.35c-0.57,0.03-0.96,0.39-1.45,0.63
				c-0.69,0.33-1.38-0.16-2.09,0.01c-0.39,0.09-0.73,0.25-1.14,0.29c-0.39,0.04-0.79,0.02-1.18,0c-0.87-0.06-1.73-0.21-2.57-0.44
				C28.7,19.94,28.6,20.28,28.82,20.34L28.82,20.34z"/>
		</g>
	</g>
	<g>
		<g>
			<path d="M20.41,20.18c0.78-0.1,1.53,0.05,2.3,0.13c0.72,0.07,1.45,0.07,2.18-0.02c0.69-0.08,1.35-0.27,2.03-0.39
				c0.82-0.14,1.64-0.21,2.47-0.25c0.23-0.01,0.23-0.36,0-0.35c-0.75,0.03-1.49,0.09-2.23,0.21c-0.76,0.12-1.5,0.33-2.27,0.43
				c-0.72,0.09-1.45,0.09-2.18,0.02c-0.77-0.08-1.52-0.23-2.3-0.13C20.18,19.86,20.18,20.21,20.41,20.18L20.41,20.18z"/>
		</g>
	</g>
	<g>
		<g>
			<path d="M22.12,19.22c-0.48,0.17-0.96,0.34-1.44,0.52c-0.3,0.11-0.62,0.26-0.75,0.57c-0.11,0.26-0.05,0.58,0.12,0.79
				c0.21,0.27,0.52,0.31,0.84,0.28c0.54-0.06,1.04-0.08,1.58-0.03c0.54,0.05,1.08,0.11,1.63,0.06c1.04-0.08,2.06-0.38,3.1-0.2
				c0.16,0.03,0.31-0.17,0.17-0.3c-0.08-0.07-0.15-0.14-0.23-0.21c-0.03,0.1-0.05,0.2-0.08,0.3c0.08-0.03,0.16-0.06,0.25-0.09
				c0.21-0.07,0.12-0.42-0.09-0.34c-0.08,0.03-0.16,0.06-0.25,0.09c-0.12,0.04-0.18,0.2-0.08,0.3c0.08,0.07,0.15,0.14,0.23,0.21
				c0.06-0.1,0.11-0.2,0.17-0.3c-0.73-0.13-1.46-0.05-2.19,0.06c-0.85,0.12-1.64,0.15-2.5,0.07c-0.39-0.04-0.77-0.07-1.16-0.05
				c-0.37,0.02-0.99,0.26-1.18-0.18c-0.21-0.49,0.4-0.66,0.74-0.79c0.4-0.14,0.8-0.29,1.2-0.43C22.43,19.48,22.34,19.14,22.12,19.22
				L22.12,19.22z"/>
		</g>
	</g>
	<g>
		<g>
			<path d="M25.4,19.35c-0.29,0.01-0.59,0.01-0.88-0.01c-0.09-0.01-0.18,0.09-0.18,0.18c0,0.1,0.08,0.17,0.18,0.18
				c0.29,0.02,0.58,0.02,0.88,0.01c0.09,0,0.18-0.08,0.18-0.18C25.57,19.43,25.49,19.34,25.4,19.35L25.4,19.35z"/>
		</g>
	</g>
	<g>
		<g>
			<path d="M33.18,19.49c-0.25,0.16-0.54,0.13-0.81,0.06c-0.32-0.08-0.63-0.19-0.96-0.16c0.02,0.12,0.03,0.23,0.05,0.35
				c0.09-0.03,0.15-0.08,0.21-0.16c0.06-0.08,0.01-0.2-0.06-0.24c-0.09-0.06-0.21-0.04-0.28,0.04c-0.05,0.06-0.03,0.11-0.06,0.17
				c-0.02,0.04-0.07,0.05-0.12,0.06c-0.31,0.09-0.63,0.14-0.96,0.16c0.03,0.11,0.06,0.22,0.09,0.33c0.04-0.02,0.08,0,0.11,0.02
				c0.19,0.12,0.37-0.19,0.18-0.31c-0.15-0.09-0.31-0.09-0.47-0.02c-0.16,0.07-0.08,0.34,0.09,0.33c0.32-0.03,0.63-0.07,0.94-0.15
				c0.12-0.03,0.25-0.06,0.35-0.13c0.04-0.03,0.08-0.07,0.11-0.12c0.01-0.02,0.02-0.05,0.03-0.08c0.03-0.1,0.01-0.03-0.07-0.01
				c-0.05-0.01-0.09-0.01-0.14-0.02c0.01,0,0.01,0.01,0.02,0.01c-0.02-0.08-0.04-0.16-0.06-0.24c0,0,0,0,0-0.01
				c-0.18,0.06-0.16,0.36,0.05,0.35c0.66-0.04,1.33,0.47,1.95,0.06C33.54,19.67,33.37,19.36,33.18,19.49L33.18,19.49z"/>
		</g>
	</g>
	<g>
		<g>
			<path d="M30.56,19.72c-0.53-0.04-1.1-0.05-1.56,0.26c-0.35,0.23-0.62,0.66-0.54,1.09c0.09,0.49,0.48,0.55,0.91,0.56
				c0.74,0.03,1.47,0.06,2.21,0.06c1.45,0.01,2.88-0.18,4.32-0.34c0.65-0.07,2.14-0.26,1.7-1.31c-0.23-0.56-0.91-0.27-1.36-0.42
				c-0.42-0.14-0.93-0.24-1.2,0.21c-0.04,0.07-0.03,0.16,0.03,0.21c0.07,0.07,0.13,0.13,0.2,0.2c0.07-0.09,0.14-0.19,0.21-0.28
				c-0.52-0.26-1.07-0.46-1.65-0.55c-0.33-0.05-0.83-0.19-1.03,0.17c-0.04,0.08-0.02,0.15,0.03,0.21c0.01,0.02,0.03,0.03,0.04,0.05
				c0.15,0.18,0.4-0.08,0.25-0.25c-0.01-0.02-0.03-0.03-0.04-0.05c0.01,0.07,0.02,0.14,0.03,0.21c0.1-0.19,1,0.07,1.16,0.11
				c0.36,0.1,0.7,0.23,1.04,0.4c0.17,0.09,0.36-0.13,0.21-0.28c-0.07-0.07-0.13-0.13-0.2-0.2c0.01,0.07,0.02,0.14,0.03,0.21
				c0.24-0.41,0.94,0.05,1.29,0.06c0.3,0,0.79-0.06,0.65,0.41c-0.09,0.28-0.41,0.38-0.66,0.43c-1.03,0.22-2.15,0.27-3.2,0.36
				c-1.1,0.1-2.21,0.07-3.31,0.03c-0.25-0.01-0.49-0.02-0.74-0.03c-0.18-0.01-0.46-0.07-0.56-0.25c-0.09-0.15,0.06-0.4,0.15-0.52
				c0.36-0.5,1.05-0.47,1.6-0.43C30.78,20.09,30.78,19.74,30.56,19.72L30.56,19.72z"/>
		</g>
	</g>
	<g>
		<g>
			<path d="M31.24,19.13c-0.13,0.2-0.23,0.43-0.28,0.66c-0.02,0.11-0.03,0.23-0.04,0.34c0,0.01,0,0.02,0,0.04c0-0.02,0,0,0,0.01
				c-0.01,0.03-0.01,0.05-0.02,0.08c0,0-0.01,0.03-0.01,0.02c0.01-0.01-0.01,0.01-0.01,0.02c0,0-0.02,0.03-0.01,0.02
				c0.01-0.01-0.02,0.02-0.02,0.02c-0.06,0.06-0.07,0.17-0.01,0.23c0.06,0.07,0.15,0.09,0.23,0.05c0.16-0.08,0.27-0.25,0.31-0.42
				c0.04-0.21,0-0.41-0.06-0.62c-0.02-0.09-0.13-0.15-0.22-0.12c-0.09,0.03-0.15,0.13-0.12,0.22c0.02,0.08,0.04,0.15,0.05,0.23
				c0,0.03,0.01,0.06,0.01,0.09c0,0.02,0,0.05,0,0.07c0,0.01,0,0.02,0,0.02c0-0.01,0-0.02,0,0c-0.01,0.03-0.01,0.06-0.02,0.09
				C31,20.2,31.03,20.14,31,20.19c-0.01,0.01-0.01,0.03-0.02,0.04c0,0-0.02,0.03-0.01,0.01c-0.01,0.01-0.02,0.02-0.03,0.03
				c-0.01,0.01-0.03,0.02-0.01,0.01c-0.01,0.01-0.03,0.02-0.05,0.03c0.07,0.09,0.14,0.19,0.21,0.28c0.09-0.08,0.14-0.19,0.16-0.31
				c0.02-0.1,0.02-0.24,0.04-0.32c0.04-0.24,0.12-0.44,0.25-0.64c0.05-0.08,0.02-0.2-0.06-0.24C31.4,19.02,31.3,19.05,31.24,19.13
				L31.24,19.13z"/>
		</g>
	</g>
	<g>
		<g>
			<path d="M28.68,28.05c0.35-0.01,0.63-0.23,0.7-0.58c-0.06,0.04-0.11,0.09-0.17,0.13c0.53,0.05,1.21,0.04,1.46-0.54
				c0.05-0.11,0.05-0.22,0.06-0.34c0.02-0.21,0.13-0.3,0.25-0.46c0.17-0.23,0.24-0.5,0.26-0.78c0.03-0.31,0.01-0.63,0.02-0.94
				c0.02-0.39,0.08-0.77,0.15-1.15c0.12-0.7,0.23-1.4,0.11-2.11c-0.02-0.09-0.13-0.15-0.22-0.12c-0.43,0.12-0.03,0.72,0.25,0.33
				c0.13-0.19-0.18-0.36-0.31-0.18c0.05,0.06,0.1,0.13,0.15,0.19c-0.07-0.04-0.15-0.08-0.22-0.12c0.21,1.19-0.27,2.4-0.27,3.59
				c0,0.25,0.01,0.51-0.06,0.76c-0.08,0.29-0.34,0.44-0.43,0.71c-0.08,0.23,0.02,0.46-0.19,0.65c-0.27,0.25-0.68,0.19-1.01,0.16
				c-0.07-0.01-0.16,0.06-0.17,0.13c-0.03,0.19-0.15,0.31-0.35,0.32C28.45,27.7,28.45,28.06,28.68,28.05L28.68,28.05z"/>
		</g>
	</g>
	<g>
		<g>
			<path d="M25.58,19.83c0.84,0.65,0.84,2.08,0.87,3.05c0.02,0.58-0.01,1.17-0.08,1.75c-0.05,0.42-0.17,0.87-0.05,1.29
				c0.04,0.13,0.09,0.26,0.18,0.36c0.13,0.16,0.34,0.21,0.47,0.36c0.21,0.25,0.01,0.64,0.23,0.91c0.08,0.1,0.19,0.15,0.32,0.16
				c0.07,0.01,0.14-0.01,0.21-0.01c0.3-0.01,0.33,0.02,0.48,0.22c0.18,0.24,0.31,0.48,0.62,0.55c0.22,0.05,0.32-0.29,0.09-0.34
				c-0.32-0.08-0.42-0.51-0.68-0.69c-0.12-0.08-0.21-0.1-0.35-0.11c-0.1-0.01-0.39,0.03-0.44-0.05c-0.04-0.06-0.02-0.25-0.02-0.31
				c-0.01-0.26-0.04-0.5-0.27-0.66c-0.21-0.15-0.41-0.19-0.49-0.47c-0.07-0.23-0.03-0.5,0-0.73c0.14-1.11,0.2-2.19,0.07-3.3
				c-0.09-0.79-0.22-1.69-0.9-2.22C25.65,19.44,25.4,19.69,25.58,19.83L25.58,19.83z"/>
		</g>
	</g>
	<g>
		<g>
			<path d="M31.36,18.8c-1.43-0.22-2.88-0.27-4.32-0.12c-0.32,0.03-0.64,0.08-0.97,0.13c-0.26,0.04-0.58,0.07-0.76,0.3
				c-0.11,0.13-0.15,0.33-0.07,0.49c0.11,0.22,0.38,0.25,0.6,0.27c0.71,0.05,1.45-0.04,2.16-0.07c0.76-0.03,1.51-0.06,2.27-0.09
				c0.36-0.01,1.27,0.13,1.36-0.4c0.1-0.59-0.95-0.46-1.26-0.44c-0.83,0.05-1.66,0.11-2.5,0.17c-0.44,0.03-0.87,0.06-1.31,0.09
				c0,0-0.22,0.03-0.24,0.02c-0.08-0.07-0.01-0.17,0.02-0.25c0.08-0.21,0.18-0.4,0.31-0.58c-0.1,0-0.2,0-0.31,0
				c0.02,0.03-0.24,0.36-0.26,0.45c-0.03,0.15-0.01,0.32,0.07,0.45c0.18,0.29,0.55,0.33,0.82,0.17c-0.07-0.01-0.14-0.02-0.21-0.03
				c0.19,0.22,0.43,0.35,0.71,0.41c0.1,0.02,0.19-0.03,0.22-0.12c0.04-0.12,0.04-0.22,0-0.34c-0.07-0.22-0.41-0.12-0.34,0.09
				c0,0.05,0,0.1,0,0.15c0.07-0.04,0.15-0.08,0.22-0.12c-0.23-0.05-0.4-0.15-0.56-0.32c-0.05-0.06-0.15-0.06-0.21-0.03
				c-0.27,0.15-0.46-0.12-0.31-0.36c0.04-0.07,0.11-0.13,0.15-0.2c0.08-0.13,0.09-0.26,0.01-0.39c-0.07-0.12-0.23-0.11-0.31,0
				c-0.18,0.27-0.57,0.85-0.39,1.19c0.06,0.12,0.18,0.17,0.31,0.18c0.31,0.02,0.65-0.04,0.96-0.06c0.61-0.04,1.23-0.08,1.84-0.12
				c0.62-0.04,1.26-0.14,1.87-0.1c0.12,0.01,0.45,0.03,0.15,0.11c-0.11,0.03-0.28,0.01-0.4,0.02c-0.34,0.01-0.68,0.03-1.01,0.04
				c-0.62,0.02-1.23,0.05-1.85,0.07c-0.62,0.02-1.25,0.09-1.87,0.07c-0.14,0-0.52-0.07-0.24-0.26c0.09-0.06,0.25-0.07,0.35-0.08
				c0.35-0.06,0.69-0.11,1.04-0.14c1.39-0.14,2.79-0.1,4.17,0.11C31.49,19.18,31.59,18.84,31.36,18.8L31.36,18.8z"/>
		</g>
	</g>
	<g>
		<g>
			<path d="M35.24,8.02c0.19,1.89,0.09,3.83,0.05,5.73c-0.02,0.96-0.1,1.92-0.1,2.89c0,0.43,0.18,3.19-0.33,3.26
				c0.03,0.11,0.06,0.23,0.09,0.34c0.39-0.08,0.77-0.16,1.16-0.25c0.22-0.05,0.13-0.39-0.09-0.34c-0.39,0.08-0.77,0.16-1.16,0.25
				c-0.23,0.05-0.13,0.37,0.09,0.34c0.69-0.1,0.57-1.63,0.59-2.1c0.03-1.14,0.02-2.27,0.07-3.41c0.05-1.11,0.03-2.21,0.05-3.32
				c0.02-1.13,0.04-2.26-0.08-3.39C35.57,7.79,35.22,7.79,35.24,8.02L35.24,8.02z"/>
		</g>
	</g>
	<g>
		<g>
			<path d="M33.25,8.02c0.08,1.22,0.09,2.41-0.04,3.62c-0.07,0.65-0.01,1.28,0,1.93c0.01,0.58-0.07,1.16-0.07,1.75
				c0,0.88,0.06,1.75,0.12,2.63c0.03,0.45,0.23,2-0.21,2.26c-0.19,0.11-0.05,0.35,0.14,0.32c0.64-0.1,1.28-0.2,1.93-0.3
				c0.22-0.03,0.13-0.38-0.09-0.34c-0.64,0.1-1.28,0.2-1.93,0.3c0.05,0.11,0.09,0.22,0.14,0.32c0.52-0.3,0.42-1.32,0.42-1.84
				c-0.01-0.86-0.11-1.73-0.14-2.59c-0.02-0.61,0-1.2,0.04-1.81c0.04-0.68-0.03-1.35-0.02-2.03c0.01-0.68,0.14-1.36,0.15-2.05
				c0.01-0.73-0.03-1.45-0.07-2.18C33.59,7.79,33.24,7.79,33.25,8.02L33.25,8.02z"/>
		</g>
	</g>
	<g>
		<g>
			<path d="M24.3,9.59c0.09,1.66,0.14,3.32,0.14,4.98c0,1.68,0.04,3.42-0.21,5.09c0.06-0.04,0.11-0.09,0.17-0.13
				c-0.01,0-0.02,0-0.04,0c0.06,0.04,0.11,0.09,0.17,0.13c0.03,0.08,0.06-0.01,0.11-0.08c0.05-0.06,0.02-0.16-0.03-0.21
				c-0.01-0.01-0.02-0.02-0.02-0.03c-0.04-0.04-0.11-0.07-0.17-0.05c-0.01,0-0.03,0.01-0.04,0.01c-0.1,0.04-0.17,0.16-0.11,0.26
				c0,0.01,0.01,0.01,0.01,0.02c0.12,0.19,0.43,0.02,0.31-0.18c0-0.01-0.01-0.01-0.01-0.02c-0.04,0.09-0.07,0.17-0.11,0.26
				c-0.04-0.01-0.07-0.02-0.11-0.03c-0.01-0.07-0.02-0.14-0.03-0.21c-0.09,0.13-0.2,0.17-0.14,0.35c0.02,0.08,0.09,0.13,0.17,0.13
				c0.01,0,0.02,0,0.04,0c0.07,0,0.16-0.06,0.17-0.13c0.25-1.63,0.22-3.33,0.22-4.98c0.01-1.73-0.04-3.45-0.14-5.18
				C24.65,9.36,24.29,9.36,24.3,9.59L24.3,9.59z"/>
		</g>
	</g>
	<g>
		<g>
			<path d="M22.56,8.48c0.23,1.89,0.05,3.88,0.03,5.78c-0.02,1.96-0.05,3.92-0.07,5.88c0.06-0.06,0.12-0.12,0.18-0.18
				c-0.1-0.01-0.2-0.02-0.3-0.03c0.03,0.11,0.06,0.22,0.09,0.33c0.45-0.19,0.83-0.46,1.17-0.81c0.16-0.16-0.09-0.41-0.25-0.25
				c-0.33,0.33-0.68,0.57-1.1,0.75c-0.18,0.08-0.06,0.32,0.09,0.33c0.1,0.01,0.2,0.02,0.3,0.03c0.1,0.01,0.18-0.09,0.18-0.18
				c0.02-1.96,0.05-3.92,0.07-5.88c0.02-1.91,0.2-3.89-0.03-5.78C22.88,8.25,22.53,8.25,22.56,8.48L22.56,8.48z"/>
		</g>
	</g>
	<g>
		<g>
			<path d="M20.14,8.13c0.81-0.29,1.71-0.2,2.56-0.21c0.8,0,1.59-0.01,2.39-0.02c1.7-0.02,3.4-0.04,5.1-0.1
				c1.57-0.06,3.36-0.63,4.83-0.06c0.2,0.08,1.94,0.69,1.94,0.76c0,0-0.6,0.34-0.64,0.37c-0.2,0.16-0.35,0.34-0.5,0.55
				c-0.14,0.18,0.17,0.36,0.31,0.18c0.31-0.41,0.74-0.51,1.08-0.83c0.11-0.11,0.13-0.09,0.18-0.25c0.03-0.08-0.02-0.15-0.08-0.2
				c-0.47-0.36-1.2-0.52-1.75-0.74c-0.59-0.24-1.17-0.51-1.81-0.5C33,7.1,32.26,7.3,31.53,7.37c-0.78,0.07-1.56,0.09-2.34,0.1
				C27.59,7.51,26,7.54,24.4,7.56c-1.38,0.01-3.04-0.24-4.36,0.23C19.83,7.86,19.92,8.2,20.14,8.13L20.14,8.13z"/>
		</g>
	</g>
	<g>
		<g>
			<path d="M35.57,7.85c-0.46-0.2-0.96-0.31-1.47-0.28c-0.23,0.01-0.44,0.06-0.62,0.21c-0.13,0.11-0.3,0.39-0.5,0.35
				c-0.15-0.03-0.27,0.12-0.2,0.26c0.06,0.12,0.08,0.24,0.06,0.38c-0.01,0.1,0.09,0.18,0.18,0.18c0.1,0,0.17-0.08,0.18-0.18
				c0.02-0.2-0.02-0.38-0.11-0.56c-0.07,0.09-0.13,0.17-0.2,0.26c0.23,0.05,0.43-0.04,0.59-0.19c0.16-0.15,0.27-0.31,0.51-0.34
				c0.47-0.07,0.98,0.04,1.41,0.23C35.6,8.25,35.78,7.94,35.57,7.85L35.57,7.85z"/>
		</g>
	</g>
	<g>
		<g>
			<path d="M33.03,20.1c0.1,0.2,0.33,0.23,0.53,0.24c0.27,0.02,0.55,0.04,0.82,0.06c0.25,0.02,0.51,0.04,0.74-0.05
				c0.22-0.08,0.39-0.24,0.47-0.46c0.07-0.22-0.27-0.31-0.34-0.09c-0.12,0.35-0.63,0.27-0.91,0.25c-0.2-0.01-0.4-0.03-0.61-0.04
				c-0.09-0.01-0.35,0.02-0.4-0.08C33.23,19.72,32.92,19.89,33.03,20.1L33.03,20.1z"/>
		</g>
	</g>
	<g>
		<g>
			<path d="M22.73,20.06c0.7,0.19,1.46,0.1,2.09-0.27c0.2-0.11,0.02-0.42-0.18-0.31c-0.55,0.31-1.2,0.4-1.81,0.23
				C22.61,19.65,22.51,20,22.73,20.06L22.73,20.06z"/>
		</g>
	</g>
	<g>
		<g>
			<path d="M22.53,8.53c0.46-0.11,0.98-0.16,1.45-0.07c0.4,0.07,0.61,0.48,1.01,0.55c0-0.11,0-0.23,0-0.34
				c-0.04,0.01-0.08,0.02-0.12,0.03c-0.22,0.05-0.13,0.39,0.09,0.34C25,9.02,25.04,9.01,25.08,9c0.16-0.04,0.17-0.31,0-0.34
				c-0.2-0.03-0.33-0.18-0.48-0.29c-0.18-0.15-0.38-0.23-0.61-0.27c-0.52-0.07-1.05-0.03-1.56,0.09
				C22.21,8.24,22.31,8.58,22.53,8.53L22.53,8.53z"/>
		</g>
	</g>
	<g>
		<g>
			<path d="M27.62,12.47c0.46,0.61,1.31,0.93,2,0.46c-0.09-0.07-0.17-0.13-0.26-0.2c-0.06,0.28,0.19,0.41,0.42,0.47
				c0.32,0.08,0.64,0.15,0.96,0.23c0.22,0.05,0.32-0.29,0.09-0.34c-0.21-0.05-0.41-0.1-0.62-0.15c-0.09-0.02-0.19-0.05-0.28-0.07
				c-0.05-0.01-0.1-0.02-0.15-0.04c-0.03-0.01-0.07-0.06-0.08-0.01c0.03-0.14-0.12-0.29-0.26-0.2c-0.51,0.35-1.16,0.13-1.51-0.34
				C27.79,12.12,27.48,12.29,27.62,12.47L27.62,12.47z"/>
		</g>
	</g>
	<g>
		<g>
			<path d="M24.01,6.36c0.05-0.3,0.1-0.65,0.34-0.86c0.22-0.2,0.46-0.08,0.72-0.17c0.54-0.19,0.22-1.05,0.16-1.43
				c-0.03-0.19,0-0.35,0.16-0.47c0.11-0.08,0.25-0.14,0.38-0.19c0.25-0.1,0.52-0.15,0.79-0.16c0.57-0.02,1.13,0.15,1.59,0.49
				c0.18,0.14,0.36-0.17,0.18-0.31c-0.49-0.36-1.09-0.55-1.7-0.54c-0.3,0-0.61,0.05-0.89,0.15C25.47,2.96,25.17,3.09,25,3.32
				c-0.19,0.27-0.13,0.59-0.06,0.88c0.04,0.18,0.08,0.36,0.07,0.55c0,0.07,0.01,0.19-0.06,0.24C24.9,5.03,24.76,5,24.7,5
				c-0.69,0.01-0.93,0.69-1.03,1.27C23.63,6.49,23.97,6.58,24.01,6.36L24.01,6.36z"/>
		</g>
	</g>
	<g>
		<g>
			<path d="M24.78,4.88c1.31-0.31,2.64-0.48,3.98-0.51c1.2-0.02,2.65-0.09,3.7,0.58c0.19,0.12,0.37-0.18,0.18-0.31
				C31.57,3.96,30.12,4,28.91,4.01c-1.42,0.02-2.84,0.2-4.22,0.53C24.46,4.59,24.56,4.93,24.78,4.88L24.78,4.88z"/>
		</g>
	</g>
	<g>
		<g>
			<path d="M28.04,13.32c0.28-0.19,0.36-0.59,0.12-0.85c-0.24-0.25-0.67-0.21-0.88,0.06c0.1,0.03,0.2,0.05,0.3,0.08
				c-0.08-0.49-0.17-1-0.51-1.38c-0.14-0.16-0.33-0.28-0.53-0.35c-0.26-0.08-0.53-0.05-0.8-0.11c-0.11-0.02-0.21-0.06-0.3-0.13
				c-0.12-0.1-0.11-0.23-0.13-0.37c-0.03-0.22-0.13-0.4-0.26-0.57c-0.23-0.29-1.01-0.86-0.54-1.26c-0.07,0.01-0.14,0.02-0.21,0.03
				c0.34,0.2,0.71,0.29,1.11,0.26c0.23-0.02,0.23-0.37,0-0.35c-0.33,0.02-0.64-0.04-0.93-0.21c-0.07-0.04-0.15-0.02-0.21,0.03
				C23.88,8.49,24,9.01,24.26,9.36c0.16,0.21,0.38,0.38,0.54,0.6c0.1,0.14,0.14,0.26,0.16,0.44c0.01,0.12,0.03,0.23,0.09,0.33
				c0.28,0.47,0.86,0.37,1.3,0.47c0.67,0.15,0.79,0.94,0.88,1.5c0.02,0.13,0.22,0.18,0.3,0.08c0.08-0.1,0.2-0.16,0.32-0.09
				c0.12,0.07,0.12,0.25,0.01,0.33C27.67,13.14,27.85,13.45,28.04,13.32L28.04,13.32z"/>
		</g>
	</g>
	<g>
		<g>
			<path d="M28.11,15.98c0.01,0.29,0.08,0.62,0.36,0.77c0.14,0.08,0.31,0.09,0.46,0.02c0.14-0.06,0.23-0.19,0.28-0.33
				c0.06-0.17,0.03-0.37-0.03-0.54c-0.02-0.07-0.08-0.12-0.15-0.13c-0.07-0.01-0.14,0.02-0.18,0.08c-0.08,0.13-0.17,0.25-0.25,0.38
				c-0.05,0.08-0.02,0.2,0.06,0.24c0.09,0.05,0.19,0.02,0.24-0.06c0.08-0.13,0.17-0.25,0.25-0.38c-0.11-0.01-0.22-0.03-0.32-0.04
				c0.01,0.03,0.02,0.05,0.02,0.08c0.01,0.03,0.02,0.07,0.02,0.1c0,0,0-0.03,0-0.01c0,0.01,0,0.01,0,0.02c0,0.01,0,0.03,0,0.04
				c0,0.02,0,0.03,0,0.05c0,0,0,0.02,0,0.02c0.01-0.01,0.01-0.03,0-0.01c0,0.02-0.01,0.04-0.02,0.06c-0.01,0.03,0.02-0.03,0,0
				c-0.01,0.01-0.01,0.03-0.02,0.04c-0.01,0.01-0.01,0.02-0.02,0.03c0,0,0.02-0.03,0.01-0.01c0,0-0.01,0.01-0.01,0.01
				c-0.01,0.01-0.02,0.02-0.02,0.02c0,0-0.02,0.02,0,0c0.02-0.02-0.01,0-0.01,0c-0.01,0-0.02,0.01-0.03,0.02
				c0,0,0.03-0.01,0.02-0.01c-0.01,0-0.01,0-0.02,0.01c-0.01,0-0.02,0-0.03,0.01c0,0,0.04,0,0.02,0c-0.01,0-0.01,0-0.02,0
				c-0.01,0-0.03,0-0.04,0c0,0,0.04,0.01,0.02,0c-0.01,0-0.01,0-0.02,0c-0.01,0-0.02-0.01-0.03-0.01c-0.03-0.01,0.03,0.02,0,0
				c-0.02-0.01-0.04-0.03-0.06-0.04c0,0,0.03,0.02,0.01,0.01c0,0-0.01-0.01-0.01-0.01c-0.01-0.01-0.02-0.02-0.03-0.03
				c0-0.01-0.03-0.03-0.01-0.01c0.02,0.02-0.01-0.01-0.01-0.02c-0.01-0.01-0.01-0.02-0.02-0.03c0-0.01-0.01-0.01-0.01-0.02
				c0,0-0.01-0.03,0-0.01c0.01,0.02-0.01-0.02-0.01-0.03c-0.01-0.02-0.01-0.03-0.01-0.05c-0.01-0.03-0.01-0.06-0.02-0.09
				c0,0,0-0.03,0,0c0,0.03,0,0,0-0.01c0-0.01,0-0.03,0-0.04c0-0.03,0-0.07,0-0.1c0-0.09-0.08-0.18-0.18-0.18
				C28.19,15.81,28.1,15.88,28.11,15.98L28.11,15.98z"/>
		</g>
	</g>
	<g>
		<g>
			<path d="M28.01,15.54c-0.12,0.12-0.13,0.31-0.04,0.46c0.09,0.16,0.27,0.22,0.44,0.23c0.15,0.01,0.32-0.01,0.47-0.04
				c0.17-0.03,0.31-0.12,0.41-0.26c0.1-0.14,0.12-0.35,0.03-0.5c-0.07-0.11-0.24-0.12-0.31,0c-0.09,0.16-0.15,0.33-0.19,0.51
				c-0.02,0.09,0.03,0.2,0.12,0.22c0.09,0.02,0.2-0.03,0.22-0.12c0.02-0.08,0.04-0.16,0.07-0.23c0.01-0.02,0.01-0.03,0.02-0.05
				c-0.01,0.03,0.01-0.02,0.01-0.03c0.02-0.04,0.04-0.08,0.06-0.12c-0.1,0-0.2,0-0.31,0c0.01,0.02,0.01,0.03,0.01,0.01
				c0,0.01,0.01,0.05,0.01,0.03c0-0.03,0,0.02,0,0.02c0,0.01,0,0.01,0-0.01c0,0.01,0,0.01,0,0.02c0,0.01-0.02,0.06,0,0.02
				C29.01,15.69,29,15.71,29,15.72c0,0.01-0.03,0.04,0,0.01c-0.01,0.01-0.02,0.02-0.03,0.03c-0.01,0.01-0.04,0.03-0.01,0.01
				c-0.01,0.01-0.03,0.02-0.04,0.03c-0.01,0.01-0.03,0.02-0.05,0.02c0.03-0.01-0.02,0.01-0.02,0.01c-0.03,0.01-0.07,0.02-0.1,0.02
				c-0.01,0-0.05,0.01-0.02,0c-0.02,0-0.04,0-0.06,0.01c-0.07,0.01-0.14,0.01-0.21,0.01c-0.02,0-0.03,0-0.05,0
				c-0.01,0-0.06-0.01-0.02,0c-0.02,0-0.03-0.01-0.05-0.01c-0.01,0-0.05-0.02-0.02-0.01c-0.01-0.01-0.03-0.02-0.04-0.02
				c0.03,0.02,0.01,0,0-0.01c0.03,0.03,0,0.01,0-0.01c-0.01-0.02-0.01-0.03,0-0.01c0-0.01-0.01-0.03-0.01-0.04c0,0.03,0,0.03,0,0.01
				c0,0,0-0.01,0-0.01c0,0.03,0,0.03,0,0.01c0.01-0.01,0-0.02,0,0c-0.01,0.01-0.01,0.01,0,0c-0.02,0.02-0.02,0.02,0,0.01
				c0.07-0.06,0.07-0.19,0-0.25C28.19,15.47,28.08,15.47,28.01,15.54L28.01,15.54z"/>
		</g>
	</g>
	<g>
		<g>
			<path d="M28.37,14.05c-0.09-0.04-0.18-0.06-0.28-0.08c-0.09-0.01-0.17,0-0.26,0.01c-0.11,0.02-0.16,0.17-0.11,0.26
				c0.02,0.03,0.03,0.06,0.05,0.09c0,0.01,0.01,0.01,0.01,0.02c-0.01-0.02-0.01-0.03,0-0.01c0,0.01,0.01,0.02,0.01,0.03
				c0.01,0.03,0.02,0.06,0.02,0.1c0,0.01,0,0.02,0,0.02c0,0.02,0,0.02,0-0.01c0.01,0.01,0,0.03,0,0.04c0,0.03,0,0.06,0,0.09
				c0,0.02,0,0.03,0,0.05c0,0.01,0,0.02,0,0.02c0-0.02,0-0.03,0-0.02c-0.01,0.03-0.01,0.06-0.02,0.09c0,0.02-0.01,0.03-0.01,0.05
				c0,0.01-0.03,0.06,0,0.01c-0.02,0.05-0.03,0.09-0.02,0.14c0.01,0.04,0.04,0.09,0.08,0.11c0.08,0.04,0.2,0.03,0.24-0.06
				c0.07-0.15,0.1-0.31,0.09-0.48c-0.01-0.16-0.06-0.33-0.15-0.47c-0.04,0.09-0.07,0.17-0.11,0.26c0.01,0,0.02,0,0.03,0
				c-0.03,0-0.03,0-0.01,0c0.01,0,0.03,0,0.04,0c0.03,0,0.06,0,0.09,0c0.04,0-0.03-0.01,0.01,0c0.02,0,0.03,0.01,0.05,0.01
				c0.01,0,0.03,0.01,0.04,0.01c0.01,0,0.06,0.02,0.02,0.01c0.05,0.02,0.09,0.03,0.14,0.02c0.04-0.01,0.09-0.04,0.11-0.08
				C28.47,14.22,28.46,14.09,28.37,14.05L28.37,14.05z"/>
		</g>
	</g>
	<g>
		<g>
			<path d="M29.31,14.54c-0.1,0.03-0.13,0.05-0.06,0.06c0.02,0.01,0.04,0.01,0.06,0.02c0.04,0.01,0.07,0.02,0.11,0.02
				c0.09,0.01,0.16-0.02,0.23-0.07c0.12-0.1,0.14-0.25,0.17-0.4c0.01-0.03,0.02-0.07,0.03-0.1c0.02-0.03,0.02-0.03,0.01-0.02
				c-0.01,0-0.02,0-0.03,0c-0.01-0.01-0.01,0,0,0.01c0.01,0.02,0.02,0.04,0.03,0.06c0.01,0.02,0.02,0.05,0.02,0.08
				c0.06,0.22,0.09,0.45,0.1,0.68c0.01,0.11,0.01,0.22,0.01,0.33c0,0.04-0.02,0.12,0,0.16c-0.01,0.04,0,0.04,0.04,0
				c0,0-0.01,0-0.01,0c0,0-0.04-0.04-0.04-0.04c-0.02-0.04-0.02-0.1-0.03-0.14c-0.01-0.09-0.02-0.19-0.06-0.27
				c-0.09-0.17-0.28-0.22-0.44-0.13c-0.19,0.1-0.22,0.3-0.22,0.5c0.07-0.06,0.15-0.11,0.22-0.17c-0.56-0.17-1.14-0.26-1.72-0.29
				c-0.23-0.01-0.23,0.34,0,0.35c0.55,0.03,1.1,0.12,1.63,0.28c0.11,0.03,0.22-0.06,0.22-0.17c0-0.04,0-0.08,0-0.11
				c0-0.01,0.03-0.07,0.03-0.07c0-0.01-0.01-0.01-0.02-0.01c-0.03-0.02-0.01,0.01-0.01,0.03c0,0.05,0.02,0.1,0.02,0.14
				c0.02,0.16,0.07,0.31,0.22,0.4c0.13,0.08,0.3,0.09,0.42-0.02c0.14-0.13,0.11-0.35,0.11-0.52c0-0.2-0.02-0.39-0.05-0.59
				c-0.03-0.18-0.05-0.38-0.12-0.55c-0.06-0.14-0.17-0.26-0.33-0.27c-0.15,0-0.27,0.1-0.33,0.23c-0.03,0.08-0.04,0.16-0.05,0.25
				c0,0.03-0.01,0.05-0.02,0.08c-0.01,0.05-0.03,0.02,0.01,0.03c-0.08-0.01-0.14-0.05-0.22-0.05c-0.1,0-0.17,0.05-0.22,0.13
				C28.88,14.55,29.19,14.73,29.31,14.54L29.31,14.54z"/>
		</g>
	</g>
	<g>
		<g>
			<path d="M29.04,14.49c-0.05,0.24-0.06,0.52,0.12,0.7c0.09,0.08,0.2,0.13,0.31,0.14c0.13,0.01,0.27-0.06,0.33-0.17
				c0.06-0.1,0.05-0.22-0.03-0.31c-0.04-0.04-0.09-0.06-0.14-0.07c-0.03,0-0.06-0.01-0.09,0c-0.04,0.01-0.06,0.03-0.09,0.05
				c-0.03,0.03-0.05,0.09-0.05,0.13c0,0.04,0.02,0.1,0.05,0.13c0.03,0.03,0.08,0.05,0.13,0.05c0.05,0,0.09-0.02,0.13-0.05
				c0,0,0,0,0.01,0c-0.01,0.01-0.02,0.02-0.04,0.03c0,0,0,0,0.01,0c-0.01,0.01-0.03,0.01-0.04,0.02c0,0,0.01,0,0.01,0
				c-0.02,0-0.03,0-0.05,0.01c0,0,0.01,0,0.01,0c-0.02,0-0.03,0-0.05-0.01c0,0,0.01,0,0.01,0c-0.01-0.01-0.03-0.01-0.04-0.02
				c0.01,0,0.01,0.01,0.02,0.01c-0.01-0.01-0.02-0.02-0.04-0.03c0,0,0.01,0.01,0.01,0.01c-0.01-0.01-0.02-0.02-0.03-0.04
				c0,0.01,0.01,0.01,0.01,0.02c-0.01-0.01-0.01-0.03-0.02-0.04c0,0,0,0.01,0,0.02c0-0.02,0-0.03-0.01-0.05c0,0.01,0,0.01,0,0.02
				c0-0.02,0-0.03,0.01-0.05c0,0.01,0,0.02-0.01,0.03c0.01-0.01,0.01-0.03,0.02-0.04c0,0.01-0.01,0.02-0.01,0.02
				c0.01-0.01,0.02-0.02,0.03-0.04c-0.01,0.01-0.02,0.02-0.03,0.03c0.01-0.01,0.02-0.02,0.04-0.03c-0.01,0.01-0.03,0.02-0.04,0.02
				c0.01-0.01,0.03-0.01,0.04-0.02c-0.02,0.01-0.03,0.01-0.05,0.01c0.02,0,0.03,0,0.05-0.01c-0.02,0-0.04,0-0.06,0
				c0.02,0,0.03,0,0.05,0.01c-0.02,0-0.05-0.01-0.07-0.02c0.01,0.01,0.03,0.01,0.04,0.02c-0.03-0.01-0.05-0.03-0.08-0.04
				c0.01,0.01,0.02,0.02,0.04,0.03c-0.02-0.02-0.04-0.04-0.06-0.06c0.01,0.01,0.02,0.02,0.03,0.04c-0.02-0.02-0.03-0.05-0.04-0.07
				c0.01,0.01,0.01,0.03,0.02,0.04c-0.01-0.04-0.02-0.07-0.03-0.11c0,0.02,0,0.03,0.01,0.05c-0.01-0.07-0.01-0.14,0-0.21
				c0,0.02,0,0.03-0.01,0.05c0-0.04,0.01-0.07,0.02-0.11c0.01-0.05,0.01-0.09-0.02-0.14c-0.02-0.04-0.06-0.07-0.11-0.08
				C29.17,14.35,29.06,14.4,29.04,14.49L29.04,14.49z"/>
		</g>
	</g>
	<g>
		<g>
			<path d="M27.94,14.39c-0.12,0.24-0.23,0.49-0.17,0.77c0.04,0.21,0.19,0.38,0.37,0.5c0.43,0.27,0.94,0.11,1.34-0.13
				c-0.09-0.05-0.18-0.1-0.27-0.15c0,0.01,0,0.03,0,0.04c0,0,0-0.01,0-0.01c0.01-0.02-0.02,0.02-0.03,0.02
				c0.1,0.04,0.2,0.08,0.3,0.13c0-0.06-0.01-0.12-0.01-0.18c-0.01-0.1-0.08-0.18-0.18-0.18c-0.09,0-0.18,0.08-0.18,0.18
				c0,0.06,0.01,0.12,0.01,0.18c0.01,0.16,0.18,0.22,0.3,0.13c0.09-0.07,0.14-0.19,0.13-0.3c-0.01-0.13-0.14-0.23-0.27-0.15
				c-0.16,0.1-0.33,0.18-0.52,0.22c-0.16,0.03-0.3,0.01-0.42-0.06c-0.12-0.07-0.21-0.16-0.23-0.28c-0.04-0.18,0.06-0.36,0.13-0.51
				c0.04-0.09,0.02-0.19-0.06-0.24C28.1,14.28,27.98,14.31,27.94,14.39L27.94,14.39z"/>
		</g>
	</g>
	<g>
		<g>
			<path d="M29.38,14.14c0.08-0.35,0.15-0.71,0.23-1.06c0.08-0.33,0.35-0.44,0.49-0.72c0.16-0.32,0.32-0.52,0.65-0.68
				c0.33-0.16,0.69-0.22,1.03-0.35c1.37-0.52,1.47-1.98,1.41-3.25c-0.01-0.13-0.15-0.23-0.27-0.15c-0.23,0.14-0.33,0.39-0.25,0.65
				c0.07,0.22,0.41,0.12,0.34-0.09c-0.05-0.1-0.02-0.19,0.08-0.25c-0.09-0.05-0.18-0.1-0.27-0.15c0.03,0.73,0.07,1.52-0.3,2.17
				c-0.38,0.68-1.05,0.76-1.72,1.01c-0.24,0.09-0.47,0.2-0.66,0.37c-0.1,0.09-0.19,0.19-0.25,0.3c-0.09,0.14-0.12,0.31-0.24,0.43
				c-0.21,0.22-0.34,0.32-0.41,0.63c-0.08,0.35-0.15,0.71-0.23,1.06C28.99,14.27,29.33,14.37,29.38,14.14L29.38,14.14z"/>
		</g>
	</g>
	<g>
		<g>
			<path d="M24.13,8.33c0.25,0.71,0.51,1.44,0.98,2.05c0.51,0.67,1.24,0.94,1.92,1.39c0.33,0.22,0.63,0.52,0.82,0.88
				c0.22,0.42,0.14,0.82,0.15,1.27c0.01,0.32,0.09,0.61,0.35,0.82c0.22,0.17,0.49,0.21,0.73,0.06c0.19-0.12,0.01-0.43-0.18-0.31
				c-0.17,0.11-0.37-0.02-0.46-0.18c-0.1-0.18-0.08-0.42-0.07-0.62c0.02-0.33,0.03-0.64-0.09-0.96c-0.21-0.57-0.65-1.01-1.15-1.32
				c-0.61-0.39-1.27-0.65-1.73-1.24c-0.44-0.57-0.68-1.26-0.91-1.93C24.39,8.02,24.05,8.11,24.13,8.33L24.13,8.33z"/>
		</g>
	</g>
	<g>
		<g>
			<path d="M24.12,8.42c1.49-0.41,3.06-0.33,4.6-0.31c0.4,0,4.55-0.03,4.52,0.31c0.06-0.06,0.12-0.12,0.18-0.18
				c-0.02,0-0.03,0-0.05,0c-0.23,0.02-0.23,0.38,0,0.35c0.02,0,0.03,0,0.05,0c0.1-0.01,0.17-0.07,0.18-0.18
				c0.06-0.56-1.04-0.57-1.4-0.6c-0.91-0.06-1.84-0.05-2.75-0.06c-1.79-0.02-3.67-0.17-5.41,0.32C23.81,8.14,23.9,8.48,24.12,8.42
				L24.12,8.42z"/>
		</g>
	</g>
	<g>
		<g>
			<path d="M20.46,6.95c3.27-0.11,6.54-0.21,9.81-0.32c1.63-0.05,3.15-0.2,4.73,0.32c0.58,0.2,1.15,0.32,1.75,0.43
				C36.88,7.4,37,7.42,37.12,7.45c0.4,0.78,0.22,1.14-0.52,1.08c-0.39,0.02-0.79-0.07-1.18-0.04c0.02,0.12,0.03,0.23,0.05,0.35
				c-0.08,0-0.16-0.01-0.23-0.01C35,8.85,35,9.2,35.23,9.18c0.38-0.04,0.84-0.32,0.42-0.68c-0.04-0.04-0.11-0.07-0.17-0.05
				c-0.03,0.01-0.07,0.03-0.1,0.04c-0.17,0.07-0.17,0.36,0.05,0.35c0.61-0.04,3.04,0.23,2.47-1.21c-0.18-0.45-0.7-0.54-1.12-0.61
				c-0.99-0.16-1.9-0.6-2.89-0.77c-1-0.18-2.09-0.03-3.1,0c-1.09,0.04-2.18,0.07-3.27,0.11c-2.35,0.08-4.71,0.15-7.06,0.23
				C20.23,6.6,20.23,6.95,20.46,6.95L20.46,6.95z"/>
		</g>
	</g>
	<g>
		<g>
			<path d="M20.62,6.6c-0.13,0.01-0.25,0.03-0.38,0.04c-0.1,0.01-0.22,0.01-0.32,0.06c-0.17,0.09-0.2,0.27-0.22,0.44
				c-0.03,0.34-0.02,0.72,0.21,0.99c0.13,0.15,0.31,0.2,0.5,0.25c0.24,0.05,0.48,0.1,0.73,0.15c0.49,0.1,0.99,0.21,1.48,0.31
				c0.02-0.12,0.03-0.23,0.05-0.35c-0.07,0-0.15,0-0.22,0c0.03,0.11,0.06,0.22,0.09,0.33c0.27-0.13,0.4-0.44,0.33-0.72
				c-0.05-0.22-0.4-0.13-0.34,0.09c0.03,0.14-0.04,0.26-0.17,0.32c-0.17,0.08-0.08,0.33,0.09,0.33c0.07,0,0.15,0,0.22,0
				c0.2,0,0.25-0.31,0.05-0.35c-0.39-0.08-0.79-0.17-1.18-0.25c-0.38-0.08-0.76-0.14-1.13-0.24c-0.29-0.08-0.35-0.33-0.36-0.6
				c0-0.06,0-0.13,0.01-0.19c0-0.04,0-0.17,0.03-0.2c0.03-0.03,0.17-0.02,0.21-0.03c0.11-0.01,0.22-0.02,0.33-0.04
				C20.85,6.93,20.85,6.57,20.62,6.6L20.62,6.6z"/>
		</g>
	</g>
	<g>
		<g>
			<path d="M24.13,6.72c-0.06-0.27-0.12-0.55-0.1-0.82c0.03-0.42,0.26-0.61,0.62-0.77c0.36-0.16,0.62-0.33,0.7-0.74
				c0.08-0.41-0.06-0.85,0.49-1c0.33-0.08,0.69-0.09,1.03-0.13C27.57,3.18,28.29,3.1,29,3.06c0.68-0.04,1.37-0.06,2.06-0.03
				c0.65,0.03,1.54,0.09,1.39,0.95C32.37,4.41,32.38,4.7,32.73,5c0.26,0.22,0.49,0.36,0.52,0.74c0.03,0.33-0.07,0.66-0.17,0.97
				c-0.07,0.22,0.27,0.31,0.34,0.09c0.17-0.53,0.34-1.19-0.02-1.68c-0.25-0.35-0.66-0.37-0.64-0.9c0.01-0.31,0.15-0.55,0.01-0.86
				c-0.19-0.42-0.7-0.58-1.12-0.64C30.78,2.59,29.87,2.65,29,2.7c-0.92,0.06-1.85,0.17-2.76,0.28c-0.57,0.07-1.1,0.17-1.2,0.82
				c-0.02,0.15,0,0.31-0.03,0.46c-0.07,0.39-0.26,0.44-0.57,0.57c-0.21,0.09-0.41,0.2-0.55,0.39c-0.34,0.46-0.23,1.08-0.11,1.59
				C23.84,7.04,24.18,6.95,24.13,6.72L24.13,6.72z"/>
		</g>
	</g>
</g>
</svg>
