<?xml version="1.0" encoding="utf-8"?>
<!-- Generator: Adobe Illustrator 26.2.1, SVG Export Plug-In . SVG Version: 6.00 Build 0)  -->
<svg version="1.1" id="Layer_1" xmlns="http://www.w3.org/2000/svg" xmlns:xlink="http://www.w3.org/1999/xlink" x="0px" y="0px"
	 viewBox="0 0 56.69 56.69" style="enable-background:new 0 0 56.69 56.69;" xml:space="preserve">
<g>
	<g>
		<g>
			<path d="M17.17,15.16c0.12,2.21,1.85,4.2,4.04,4.59c-0.04-0.09-0.07-0.17-0.11-0.26c-0.07,0.16-0.17,0.24-0.34,0.27
				c-0.2,0.04-0.15,0.34,0.05,0.35c0.53,0.01,1.06,0.02,1.59,0.03c0.23,0,0.23-0.35,0-0.35c-0.53-0.01-1.06-0.02-1.59-0.03
				c0.02,0.12,0.03,0.23,0.05,0.35c0.25-0.04,0.45-0.2,0.55-0.43c0.04-0.09,0.02-0.24-0.11-0.26c-2.03-0.37-3.66-2.18-3.78-4.25
				C17.51,14.93,17.15,14.93,17.17,15.16L17.17,15.16z"/>
		</g>
	</g>
	<g>
		<g>
			<path d="M39.44,26.17c-0.59,0.31-0.83,0.95-0.97,1.57c-0.09,0.43-0.16,0.86-0.24,1.29c-0.08,0.43-0.2,0.88-0.13,1.31
				c0.23,1.57,2.31,1.91,3.48,1.25c0.2-0.11,0.02-0.41-0.18-0.31c-0.74,0.37-1.65,0.09-2.18-0.51c-0.58-0.66-0.72-1.66-0.54-2.5
				c0.1-0.5,0.34-0.84,0.77-1.1c0.39-0.24,0.79-0.46,1.2-0.67c0.85-0.44,1.74-0.8,2.71-0.85c-0.05-0.09-0.1-0.18-0.15-0.27
				c-0.14,0.2-0.28,0.4-0.42,0.61c0.11,0.05,0.22,0.09,0.32,0.14c0,0,0-0.01,0-0.01c-0.04,0.04-0.08,0.08-0.12,0.12c0,0,0,0,0.01,0
				c-0.06-0.02-0.11-0.03-0.17-0.05c0.11,0.11,0.14,0.54,0.41,0.47c0.05-0.01,0.11-0.07,0.12-0.12c0,0,0-0.01,0-0.01
				c0.04-0.22-0.3-0.32-0.34-0.09c0,0,0,0.01,0,0.01c0.04-0.04,0.08-0.08,0.12-0.12c0,0,0,0-0.01,0c0.06,0.02,0.11,0.03,0.17,0.05
				c-0.11-0.11-0.14-0.54-0.41-0.47c-0.05,0.01-0.11,0.07-0.12,0.12c0,0,0,0.01,0,0.01c-0.03,0.2,0.21,0.31,0.32,0.14
				c0.14-0.2,0.28-0.4,0.42-0.61c0.08-0.11-0.02-0.27-0.15-0.27c-0.86,0.04-1.68,0.31-2.46,0.68c-0.42,0.2-0.82,0.43-1.22,0.66
				c-0.35,0.2-0.73,0.39-0.98,0.71c-0.45,0.58-0.5,1.46-0.4,2.16c0.11,0.73,0.45,1.43,1.06,1.87c0.64,0.47,1.51,0.58,2.22,0.22
				c-0.06-0.1-0.12-0.2-0.18-0.31c-1.1,0.61-3.09,0.17-2.96-1.38c0.06-0.68,0.22-1.37,0.36-2.04c0.12-0.54,0.3-1.12,0.82-1.4
				C39.82,26.37,39.64,26.07,39.44,26.17L39.44,26.17z"/>
		</g>
	</g>
	<g>
		<g>
			<path d="M12.32,41.26c-1.25,0.64-3.5,2.56-1.55,3.88c2.01,1.36,4.19-1.3,5.63-2.31c2.6-1.83,5.7-2.65,8.36-4.35
				c1.27-0.81,2.36-1.85,3.6-2.69c1.43-0.96,3.03-1.59,4.66-2.12c0.69-0.23,1.39-0.49,2.1-0.64c1.01-0.23,1.79-0.05,2.73,0.24
				c1.22,0.37,2.43,0.51,3.7,0.32c1.76-0.27,4.79-1.47,5.13-3.51c0.33-1.95-1.48-0.1-1.94,0.37c-1.13,1.14-2.42,1.96-4.07,2.05
				c-1.58,0.08-3.05-0.69-4.63-0.65c-1.39,0.04-2.76,0.69-4.05,1.14c-1.61,0.56-3.23,1.13-4.83,1.72c-2.93,1.08-5.83,2.23-8.66,3.54
				c-2.78,1.29-5.9,2.63-8.11,4.83c-0.47,0.46-1.15,1.19-0.89,1.92c0.27,0.77,1.42,0.77,2.07,0.71c2.71-0.26,4.64-2.88,6.87-4.17
				c2.53-1.46,5.37-2.31,7.9-3.8c1.24-0.73,2.3-1.71,3.53-2.44c1.5-0.89,3.32-1.49,5.01-1.89c1.03-0.25,1.97-0.29,2.98,0.05
				c0.69,0.23,1.27,0.56,2,0.67c1.23,0.19,2.49-0.1,3.62-0.58c2.28-0.96,4.61-2.76,3.99-5.52c-0.56-2.54-3.23-3.89-5.68-3.64
				c-2.28,0.24-4.37,1.77-5.27,3.88c-0.27,0.64-0.4,1.33-0.66,1.98c-0.45,1.12-1.29,1.49-2.35,1.95c-1.66,0.71-3.29,1.46-4.9,2.28
				c0.06,0.1,0.12,0.2,0.18,0.31c2.26-1.69,5.73-1.89,7.41-4.37c0.89-1.32,0.82-2.94,2.02-4.11c1.24-1.22,3.36-2.13,5.11-2.05
				c1.74,0.08,3.35,1.36,3.83,3.04c0.53,1.86-0.44,3.77-1.86,4.94c-1.42,1.17-3.29,1.58-5.09,1.62c-1.76,0.03-3.59-0.59-5.34-0.32
				c-1.26,0.2-2.44,0.92-3.56,1.48c-1.71,0.86-3.42,1.73-5.11,2.63c-3.25,1.71-6.46,3.5-9.63,5.34c-1.45,0.84-2.87,1.85-4.38,2.57
				c-0.77,0.37-1.94,0.78-2.59-0.21c-0.35-0.54-0.26-1.31,0.01-1.86c0.47-0.93,1.5-1.41,2.39-1.83c2.95-1.39,6.21-2.49,8.83-4.44
				c0.34-0.25,0.72-0.64,1.13-0.77c0.2-0.06,0.74-0.03,0.97-0.16c0.29-0.16,0.68-0.47,0.5-0.87c-0.14-0.31-0.62-0.39-0.82-0.05
				c-0.4,0.68,0.69,0.72,1.04,0.69c1.5-0.14,3.06-0.35,4.39-1.07c0.2-0.11,0.02-0.41-0.18-0.31c-1.75,0.95-3.81,0.85-5.69,1.37
				c-0.56,0.16-0.85,0.31-1.31,0.66c-0.85,0.65-1.65,1.21-2.62,1.68c-1.64,0.79-3.31,1.53-4.97,2.29c-1.27,0.58-2.94,1.11-3.78,2.32
				c-1.18,1.71,0.04,3.76,2.12,3.16c1.39-0.4,2.66-1.42,3.89-2.15c1.79-1.05,3.59-2.09,5.4-3.1c3.49-1.94,7.01-3.81,10.58-5.6
				c0.66-0.33,1.32-0.68,1.99-0.98c1.26-0.55,2.39-0.55,3.73-0.38c1.56,0.21,3.13,0.35,4.69,0.09c2.53-0.42,5.03-2.03,5.65-4.67
				c0.53-2.29-0.91-4.66-3.16-5.32c-2.48-0.73-6.11,0.91-7.31,3.17c-0.46,0.85-0.51,1.85-0.99,2.7c-0.51,0.92-1.39,1.56-2.31,2.05
				c-1.7,0.91-3.59,1.32-5.16,2.49c-0.18,0.13-0.03,0.41,0.18,0.31c1.13-0.58,2.28-1.13,3.44-1.65c0.95-0.42,2.06-0.72,2.91-1.33
				c0.67-0.47,0.98-1.17,1.23-1.93c0.37-1.17,0.72-2.24,1.58-3.16c1.74-1.87,4.69-2.65,7.01-1.38c1.35,0.74,2.29,2.1,2.26,3.68
				c-0.04,1.62-1.17,2.7-2.47,3.49c-1.17,0.71-2.5,1.27-3.88,1.33c-1.39,0.06-2.44-0.73-3.75-0.94c-2-0.32-4.43,0.7-6.22,1.5
				c-2.22,0.98-3.98,2.74-6.16,3.82c-2.07,1.02-4.27,1.79-6.29,2.93c-2.08,1.17-3.78,3.41-6.1,4.06c-0.37,0.1-0.78,0.18-1.17,0.18
				c-0.25-0.03-0.51-0.06-0.76-0.09c-0.15-0.38-0.29-0.76-0.44-1.14c0.07-0.53,1.25-1.35,1.65-1.66c1.03-0.81,2.16-1.46,3.31-2.07
				c4.78-2.56,9.86-4.5,14.96-6.31c2.56-0.91,5.19-2.27,7.94-1.66c1.9,0.42,3.65,0.67,5.44-0.33c0.82-0.46,1.43-1.13,2.09-1.79
				c0.15-0.15,0.29-0.36,0.47-0.45c0.57-0.3,0.39-0.19,0.4,0.28c0.02,0.76-1.16,1.57-1.71,1.93c-2.18,1.43-4.54,1.44-6.95,0.72
				c-2.29-0.68-4.82,0.47-6.92,1.36c-2.57,1.09-4.42,3.12-6.83,4.46c-2.43,1.36-5.1,2.19-7.42,3.77c-1.06,0.73-1.98,1.74-3.11,2.36
				c-1.06,0.58-3.22,0.52-2.82-1.36c0.2-0.93,1.27-1.44,2.03-1.83C12.71,41.46,12.53,41.16,12.32,41.26L12.32,41.26z"/>
		</g>
	</g>
	<g>
		<g>
			<path d="M17.62,13.24c-1.86,1.1-4.73,2.41-4.47,5.04c0.25,2.63,3.94,3.43,6.02,3.73c3.15,0.45,6.1,0.45,9.19-0.36
				c2.31-0.61,4.99-1.45,6.32-3.61c1.39-2.27-1.29-4.12-3.16-4.87c-2.78-1.12-6.26-0.86-9.19-0.76c-2.31,0.08-5.51,0.44-7.02,2.46
				c-0.23,0.3-0.39,0.68-0.67,0.94c-0.14,0.13-0.31,0.22-0.45,0.37c-0.34,0.36-0.54,0.82-0.62,1.3c-0.15,0.9,0.21,1.8,0.82,2.46
				c0.98,1.05,2.25,1.22,3.58,1.48c0.7,0.14,1.28,0.63,1.99,0.71c0.73,0.08,1.44-0.2,2.1-0.47c0.8-0.34,1.62-0.79,2.51-0.82
				c0.96-0.03,1.77,0.51,2.68,0.72c1.05,0.25,2.2-0.01,2.51-1.16c0.03-0.12-0.06-0.21-0.17-0.22c-0.35-0.04-0.6,0.06-0.88,0.25
				c-0.25,0.17-0.44,0.43-0.69,0.6c-0.54,0.38-0.91,0.14-1.4-0.16c-1.11-0.69-1.82-0.64-3.09-0.18c-0.51,0.18-1.02,0.46-1.54,0.59
				c-0.58,0.15-0.99,0.08-1.51-0.15c-0.47-0.21-0.78-0.41-1.33-0.48c-0.63-0.08-1.14,0.01-1.75-0.26c-0.19-0.08-0.36-0.23-0.56-0.31
				c-1.01-0.43-1.99-0.47-2.76-1.37c-0.87-1.01-0.82-2.39,0.23-3.25c0.56-0.46,1.25-0.72,1.88-1.05c0.54-0.28,1.05-0.42,1.63-0.49
				c0.32-0.04,0.55-0.01,0.87-0.12c0.9-0.32,1.54-0.8,2.54-0.87c0.83-0.06,1.67,0.03,2.5-0.07c0.9-0.11,1.7-0.49,2.63-0.36
				c0.87,0.12,1.68,0.5,2.54,0.65c1.02,0.19,2.12,0,2.89,0.86c0.15,0.17,0.4-0.08,0.25-0.25c-0.96-1.08-2.62-0.79-3.9-1.16
				c-0.64-0.18-1.26-0.41-1.92-0.48c-0.83-0.08-1.53,0.23-2.34,0.36c-1.42,0.23-2.91-0.14-4.26,0.46c-0.51,0.23-0.92,0.54-1.48,0.61
				c-0.34,0.04-0.7-0.04-1.03,0.03c-0.6,0.13-1.21,0.59-1.75,0.86c-0.94,0.47-1.92,1.03-2.19,2.13c-0.25,1.08,0.27,2.17,1.12,2.84
				c0.44,0.35,0.95,0.57,1.48,0.74c0.7,0.21,1.34,0.63,2.04,0.79c0.81,0.19,1.54-0.04,2.3,0.41c0.47,0.28,0.71,0.62,1.28,0.53
				c0.91-0.14,1.83-0.72,2.71-1c0.68-0.22,1.31-0.33,1.95,0.04c0.31,0.18,0.52,0.47,0.82,0.65c1.17,0.66,1.68-1.14,2.74-1.02
				c-0.06-0.07-0.11-0.15-0.17-0.22c-0.53,2.01-2.94,0.47-4.11,0.24c-0.83-0.16-1.62,0.05-2.39,0.36c-0.53,0.21-1.04,0.48-1.58,0.66
				c-0.86,0.29-1.3,0.25-2.18-0.16c-0.81-0.37-1.62-0.33-2.49-0.57c-1.19-0.33-2.4-1.12-2.7-2.39c-0.16-0.67-0.02-1.39,0.42-1.92
				c0.29-0.34,0.73-0.48,1.01-0.82c0.17-0.2,0.13-0.31,0.24-0.51c0.33-0.59,0.87-0.96,1.46-1.27c1.21-0.65,2.55-0.94,3.91-1.07
				c2.37-0.23,4.85-0.18,7.22,0c1.23,0.09,2.45,0.3,3.58,0.83c0.93,0.44,2.39,1.28,2.78,2.3c1.04,2.66-3.11,4.38-4.99,4.96
				c-2.34,0.73-4.74,1.21-7.19,1.04c-2.5-0.17-5.45-0.3-7.59-1.79c-1.66-1.16-1.59-3.1-0.25-4.5c0.9-0.94,2.14-1.49,3.25-2.14
				C18,13.43,17.82,13.12,17.62,13.24L17.62,13.24z"/>
		</g>
	</g>
	<g>
		<g>
			<path d="M26.61,26.04c-0.27-0.19-0.56-0.19-0.87-0.07c-0.21,0.08-0.39,0.23-0.6,0.33c-0.34,0.18-0.7,0.26-1.08,0.29
				c-1.15,0.09-2.26-0.22-3.38,0.17c-0.63,0.22-1.11,0.34-1.69-0.08c-0.41-0.29-0.77-0.62-1.23-0.85c-1.17-0.58-2.4-1.08-3.59-1.61
				c-0.21-0.09-0.39,0.21-0.18,0.31c1.17,0.52,2.35,1.01,3.5,1.56c0.73,0.35,1.43,1.28,2.29,1.28c0.49,0,0.93-0.28,1.39-0.39
				c0.64-0.15,1.3-0.08,1.95-0.05c0.5,0.03,1,0.04,1.49-0.06c0.5-0.11,1.34-0.85,1.81-0.52C26.62,26.48,26.79,26.17,26.61,26.04
				L26.61,26.04z"/>
		</g>
	</g>
	<g>
		<g>
			<path d="M32.96,26.57c-0.96,0.99-2.36,1.21-3.66,1.4c-0.41,0.06-3.43,0.42-3.09,1.17c0.19,0.41,0.88,0.23,1.15,0.03
				c0.22-0.17,0.3-0.47,0.53-0.6c0.32-0.18,0.8-0.15,1.15-0.19c0.39-0.05,0.71-0.12,1.08,0.06c0.24,0.12,0.45,0.19,0.73,0.15
				c0.66-0.11,1.23-0.64,1.75-1.01c0.52-0.37,0.87-0.74,1.03-1.37c0.14-0.56,0.13-1.31,0.67-1.65c0.19-0.12,0.01-0.43-0.18-0.31
				c-0.77,0.49-0.63,1.46-0.94,2.21c-0.25,0.61-0.96,0.96-1.48,1.32c-0.25,0.18-0.52,0.37-0.83,0.45c-0.4,0.1-0.62-0.21-0.99-0.26
				c-0.25-0.04-0.53,0.03-0.78,0.06c-0.32,0.04-0.64,0.07-0.96,0.11c-0.19,0.03-0.38,0.06-0.53,0.18c-0.23,0.17-0.29,0.48-0.54,0.62
				c-0.05,0.03-0.51,0.18-0.53,0.12c-0.01-0.03,0.48-0.22,0.51-0.23c0.32-0.12,0.65-0.21,0.98-0.28c0.6-0.13,1.22-0.2,1.83-0.29
				c1.21-0.19,2.46-0.51,3.34-1.42C33.37,26.66,33.12,26.41,32.96,26.57L32.96,26.57z"/>
		</g>
	</g>
	<g>
		<g>
			<path d="M15.42,25.12c1.37,1.12,3.18,1.85,4.96,1.92c0.47,0.02,0.94-0.08,1.4-0.16c0.58-0.11,1.11-0.11,1.69-0.08
				c1.02,0.07,2.03,0.05,2.99-0.32c0.21-0.08,0.12-0.43-0.09-0.34c-0.9,0.36-1.84,0.37-2.8,0.32c-0.46-0.03-0.9-0.07-1.35-0.01
				c-0.48,0.06-0.96,0.19-1.45,0.23c-1.76,0.13-3.75-0.71-5.1-1.8C15.49,24.73,15.24,24.98,15.42,25.12L15.42,25.12z"/>
		</g>
	</g>
	<g>
		<g>
			<path d="M24.09,11.01c-4.15,0.4-9.01,0.93-11.83,4.41c-0.93,1.15-1.4,2.56-0.79,3.98c0.72,1.67,2.4,2.54,4.03,3.11
				c4.64,1.63,9.4,1.49,14.16,0.42c3.01-0.68,7.89-3.13,6.82-6.94c-1.11-3.98-6.09-4.47-9.5-4.83c-4.43-0.46-9.21-0.2-13.05,2.3
				c-1.42,0.93-2.85,2.19-3.07,3.97c-0.18,1.46,0.42,2.9,1.53,3.84c1.03,0.86,1.5,1.61,1.96,2.87c0.29,0.81,0.91,1.23,1.55,1.77
				c1.64,1.36,2.13,3.58,4.05,4.67c2.01,1.14,4.41,0.97,6.59,0.52c1.98-0.41,3.8-0.84,4.78-2.71c0.44-0.84,0.77-1.78,1.45-2.46
				c0.6-0.6,1.43-0.84,1.97-1.51c1.18-1.49,1.07-3.71,1.59-5.46c-0.12-0.02-0.23-0.03-0.35-0.05c-0.16,2.5-1.46,4.33-2.74,6.38
				c-0.63,1.01-1.2,2.04-1.8,3.07c-0.37,0.65-0.64,1.23-1.26,1.66c-0.67,0.46-1.38,0.33-2.12,0.61c-0.51,0.19-0.94,0.61-1.47,0.74
				c-0.66,0.17-1.42-0.02-2.11,0.07c-1.71,0.24-3.33,0.41-4.71-0.86c-0.34-0.31-0.72-0.6-1.05-0.9c-0.61-0.55-0.55-0.86-0.72-1.56
				c-0.24-0.96-1.78-1.37-1.66-2.34c-0.12,0-0.24,0-0.35,0c-0.01,0.06-0.69-0.74-0.75-0.83c-0.09-0.14-0.16-0.32-0.26-0.45
				c-0.05-0.09-0.09-0.18-0.12-0.27c-0.02-0.15-0.07-0.13-0.14,0.05c0.16,0.12,0.36-0.14,0.21-0.28c-0.54-0.5-0.94-1.11-1.41-1.68
				c-0.53-0.64-1.26-1.09-1.6-1.89c-0.67-1.59-0.86-3.78,0.05-5.3c0.91-1.53,2.78-2.31,4.37-2.92c0.83-0.32,1.67-0.58,2.53-0.81
				c0.51-0.14,0.92-0.2,1.31-0.57c0.09-0.09,0.05-0.27-0.08-0.3c-0.64-0.15-1.25-0.15-1.86,0.11c-0.52,0.23-0.87,0.65-1.37,0.93
				c-0.55,0.32-1.14,0.4-1.74,0.57c-1.87,0.53-2.72,2.06-3.55,3.71c-0.48,0.96-0.9,1.96-1.22,2.98c-0.12,0.4-0.33,0.85,0.03,1.18
				c0.16,0.15,0.42,0.11,0.6,0.2c0.82,0.38,0.82,0.89,1.24,1.52c0.51,0.78,1.3,1.33,1.98,1.94c0.93,0.84,1.78,1.76,2.52,2.76
				c0.35,0.46,0.7,0.94,0.98,1.45c0.32,0.57,0.25,1.01,0.42,1.58c0.41,1.35,1.96,1.99,3.23,2.2c1.04,0.17,2.09,0.08,3.14-0.03
				c1.22-0.12,2.44-0.15,3.67-0.26c0.81-0.07,1.65-0.21,2.35-0.64c0.58-0.35,2.02-2.58,2.69-2.06c0.12,0.1,0.36,0.01,0.3-0.17
				c-0.05-0.13-0.1-0.27-0.15-0.4c-0.08-0.21-0.42-0.12-0.34,0.09c0.05,0.13,0.1,0.27,0.15,0.4c0.1-0.06,0.2-0.11,0.3-0.17
				c-0.82-0.65-1.49,0.01-1.98,0.71c-0.78,1.11-1.54,1.66-2.9,1.84c-1.03,0.14-2.08,0.1-3.11,0.2c-2.05,0.2-4.88,0.74-6.48-0.98
				c-0.63-0.67-0.46-1.4-0.78-2.17c-0.32-0.76-0.95-1.51-1.46-2.16c-1.12-1.42-2.54-2.45-3.76-3.76c-0.53-0.57-0.7-1.5-1.3-1.98
				c-0.1-0.08-0.21-0.14-0.33-0.19c-0.18-0.05-0.37-0.09-0.56-0.12c-0.18-0.46-0.16-0.9,0.04-1.32c0.23-0.99,0.77-1.97,1.25-2.87
				c0.52-0.99,1.11-2.19,2.12-2.77c0.77-0.45,1.7-0.43,2.5-0.81c1.17-0.55,1.82-1.51,3.29-1.17c-0.03-0.1-0.05-0.2-0.08-0.3
				c-0.47,0.46-1.4,0.54-2.01,0.72c-0.5,0.15-0.98,0.31-1.47,0.5c-0.85,0.32-1.71,0.67-2.5,1.11c-1.27,0.71-2.35,1.7-2.75,3.14
				c-0.41,1.49-0.14,3.26,0.44,4.67c0.27,0.65,0.64,0.86,1.14,1.32c0.72,0.67,1.18,1.55,1.9,2.22c0.07-0.09,0.14-0.19,0.21-0.28
				c-0.83-0.6,0.07,1.2,0.14,1.3c0.24,0.36,1.18,1.57,1.31,0.5c0.03-0.23-0.33-0.22-0.35,0c-0.06,0.47-0.07,0.65,0.23,0.99
				c0.16,0.19,0.43,0.29,0.62,0.45c0.57,0.46,0.67,1.04,0.82,1.66c0.09,0.36,0.1,0.49,0.37,0.76c0.3,0.3,0.74,0.47,1.06,0.75
				c0.31,0.26,0.54,0.59,0.87,0.83c0.97,0.7,2.21,0.86,3.38,0.76c0.85-0.07,1.66-0.21,2.52-0.22c0.69-0.01,1.08-0.14,1.7-0.47
				c1.14-0.61,2.59-0.3,3.41-1.42c0.85-1.16,1.47-2.55,2.21-3.79c1.41-2.34,2.98-4.33,3.16-7.17c0.01-0.2-0.29-0.23-0.35-0.05
				c-0.37,1.25-0.46,2.55-0.82,3.8c-0.23,0.81-0.58,1.58-1.3,2.08c-0.57,0.39-1.09,0.62-1.55,1.16c-0.7,0.83-1,1.88-1.57,2.79
				c-1.14,1.77-4,2.13-5.93,2.34c-2.02,0.22-4.24-0.06-5.75-1.55c-1.18-1.17-1.61-2.73-2.91-3.82c-0.79-0.66-1.23-1.12-1.61-2.09
				c-0.23-0.58-0.49-1.22-0.89-1.71c-0.37-0.44-0.89-0.7-1.3-1.09c-0.79-0.76-1.21-1.88-1.16-2.97c0.16-3.93,5.84-5.75,9-6.24
				c3.75-0.57,8.14-0.31,11.77,0.82c1.86,0.58,3.63,1.72,4.18,3.7c0.67,2.41-1.22,3.9-3.03,5.07c-1.6,1.03-3.37,1.44-5.23,1.75
				c-2.03,0.33-4.08,0.6-6.14,0.53c-3.24-0.1-12.73-1.98-9.64-7.17c2.35-3.95,7.93-4.49,12-4.89
				C24.32,11.34,24.32,10.98,24.09,11.01L24.09,11.01z"/>
		</g>
	</g>
</g>
</svg>
