<?xml version="1.0" encoding="utf-8"?>
<!-- Generator: Adobe Illustrator 26.2.1, SVG Export Plug-In . SVG Version: 6.00 Build 0)  -->
<svg version="1.1" id="Layer_1" xmlns="http://www.w3.org/2000/svg" xmlns:xlink="http://www.w3.org/1999/xlink" x="0px" y="0px"
	 viewBox="0 0 56.69 56.69" style="enable-background:new 0 0 56.69 56.69;" xml:space="preserve">
<g>
	<g>
		<g>
			<path d="M50.15,14.42c-0.04-0.06-0.08-0.12-0.12-0.19c-0.01-0.02-0.02-0.03-0.02-0.05c0.01,0.03,0-0.01-0.01-0.02
				c-0.01-0.02-0.01-0.03-0.02-0.05c0-0.01,0-0.01-0.01-0.02c0-0.02-0.01-0.02,0,0c0-0.01,0-0.04,0-0.05c0-0.01,0-0.01,0-0.02
				c0-0.03,0,0,0,0.01c0,0,0.01-0.04,0.01-0.04c0.01-0.03,0-0.01,0,0c0-0.01,0.01-0.02,0.01-0.03c0-0.01,0.01-0.01,0.01-0.02
				c0.01-0.02,0,0.01,0,0c0,0,0.02-0.03,0.03-0.03c0,0,0.04-0.03,0.02-0.02c-0.02,0.01,0,0,0.01-0.01c0.01,0,0.02-0.01,0.02-0.01
				c0.03-0.02,0.06-0.03,0.08-0.04c0.01,0,0.03-0.01,0.01,0c-0.02,0.01,0,0,0,0c0.02-0.01,0.03-0.01,0.05-0.02
				c0.02-0.01,0.03-0.01,0.05-0.02c0,0,0.02-0.01,0.02-0.01c0,0.01-0.03,0-0.03,0c0.01,0,0.02,0,0,0c0,0-0.01,0-0.01,0
				c0.01,0.01,0.01,0.01,0,0c-0.01,0-0.01-0.01,0,0c0,0,0.02,0.03,0.01,0.01c-0.01-0.02,0.01,0.02,0.01,0.02
				c0,0.01,0.01,0.01,0.01,0.02c0.01,0.02-0.01-0.03,0-0.01c0.01,0.04,0.02,0.08,0.03,0.12c0,0.01,0,0.02,0,0.02
				c0,0,0.01,0.04,0,0.02c0-0.02,0,0.01,0,0.01c0,0.01,0,0.02,0,0.03c0,0.04,0,0.07,0,0.11c0.01,0.12,0.06,0.24,0.17,0.28
				c0.11,0.05,0.25,0.01,0.31-0.1c0.04-0.08,0.02-0.2-0.06-0.24c-0.08-0.04-0.2-0.02-0.24,0.06c0.01-0.02,0.05-0.05,0.07-0.05
				c0,0,0.05,0,0.02,0c0.01,0,0.03,0.01,0.04,0.01c0.03,0.01-0.01-0.01,0.01,0.01c0.01,0.01,0.02,0.01,0.02,0.02
				c0.02,0.03,0.01,0.02,0,0c0,0.01,0,0.04,0,0c0-0.01,0-0.02,0-0.03c0-0.09-0.01-0.19-0.03-0.28c-0.04-0.18-0.15-0.37-0.35-0.39
				c-0.09-0.01-0.17,0.03-0.25,0.06c-0.07,0.03-0.14,0.06-0.21,0.11c-0.15,0.11-0.25,0.28-0.24,0.47c0.01,0.2,0.11,0.38,0.22,0.54
				c0.05,0.08,0.16,0.12,0.24,0.06C50.16,14.61,50.21,14.5,50.15,14.42L50.15,14.42z"/>
		</g>
	</g>
	<g>
		<g>
			<path d="M50.07,13.1c0.02-0.32-0.33-0.51-0.61-0.45c-0.34,0.06-0.48,0.43-0.51,0.74c-0.05,0.64,0.22,1.4,0.82,1.7
				c0.34,0.17,0.78,0.17,1.07,0.42c0.18,0.14,0.43-0.11,0.25-0.25c-0.29-0.23-0.64-0.29-0.98-0.4c-0.31-0.11-0.54-0.33-0.67-0.63
				c-0.12-0.28-0.19-0.63-0.13-0.93c0.02-0.12,0.08-0.29,0.22-0.3c0.08-0.01,0.18,0.02,0.17,0.11C49.7,13.32,50.05,13.32,50.07,13.1
				L50.07,13.1z"/>
		</g>
	</g>
	<g>
		<g>
			<path d="M4.74,28.5c-0.05,0.3-0.26,0.55-0.31,0.85c-0.04,0.29,0.04,0.58,0.31,0.72c0.13,0.07,0.27,0.08,0.41,0.12
				c0.09,0.02,0.22,0.05,0.27,0.14c0.05,0.1,0,0.25-0.01,0.36c0,0.13,0.03,0.26,0.13,0.36c0.17,0.16,0.42-0.09,0.25-0.25
				c-0.06-0.06-0.02-0.19-0.01-0.26c0.01-0.12,0.01-0.24-0.04-0.35c-0.11-0.24-0.38-0.31-0.62-0.36c-0.11-0.02-0.24-0.04-0.31-0.14
				c-0.05-0.08-0.05-0.19-0.03-0.28c0.05-0.28,0.25-0.51,0.3-0.8C5.12,28.37,4.78,28.28,4.74,28.5L4.74,28.5z"/>
		</g>
	</g>
	<g>
		<g>
			<path d="M32.15,41.14c0.05,0.57,0.64,0.64,1.09,0.62c0.48-0.02,0.98-0.07,1.4-0.32c0.22-0.13,0.39-0.32,0.54-0.52
				c0.16-0.21,0.31-0.43,0.4-0.68c0.15-0.41,0.02-0.94-0.44-1.09c-0.22-0.07-0.31,0.27-0.09,0.34c0.35,0.11,0.25,0.56,0.12,0.8
				c-0.18,0.33-0.42,0.68-0.75,0.87c-0.3,0.17-0.66,0.22-1.01,0.24c-0.24,0.01-0.89,0.1-0.92-0.26
				C32.49,40.91,32.13,40.91,32.15,41.14L32.15,41.14z"/>
		</g>
	</g>
	<g>
		<g>
			<path d="M21.51,43.18c0.02,0.33,0.06,0.71,0.35,0.92c0.17,0.12,0.37,0.13,0.57,0.14c0.25,0.01,0.51,0.03,0.76,0.04
				c0.24,0.01,0.48,0.03,0.72,0.04c0.2,0.01,0.39-0.01,0.55-0.14c0.29-0.24,0.54-0.72,0.4-1.09c-0.08-0.21-0.42-0.12-0.34,0.09
				c0.06,0.15,0.01,0.29-0.07,0.43c-0.06,0.12-0.15,0.28-0.28,0.33c-0.14,0.06-0.34,0.02-0.48,0.01c-0.18-0.01-0.37-0.02-0.55-0.03
				c-0.18-0.01-0.35-0.02-0.53-0.03c-0.16-0.01-0.36,0.01-0.5-0.06c-0.22-0.11-0.23-0.45-0.24-0.66
				C21.85,42.96,21.5,42.95,21.51,43.18L21.51,43.18z"/>
		</g>
	</g>
	<g>
		<g>
			<path d="M13.14,41.98C13.13,41.98,13.13,41.98,13.14,41.98c0.05,0.04,0.1,0.09,0.16,0.13c0,0,0-0.01,0-0.01c0,0.03,0,0.06,0,0.09
				c0,0,0-0.01,0-0.01c-0.04,0.04-0.08,0.08-0.12,0.12c0,0,0.01,0,0.01,0c-0.05-0.01-0.09-0.01-0.14-0.02
				c0.01,0,0.01,0.01,0.02,0.01c-0.02-0.02-0.04-0.04-0.06-0.06c-0.02-0.02-0.02-0.01-0.01,0.03c0,0.03,0,0.05,0.01,0.08
				c0,0.04,0.01,0.08,0.01,0.12c0.01,0.1,0.02,0.19,0.04,0.29c0.02,0.16,0.03,0.36,0.14,0.49c0.1,0.12,0.26,0.12,0.4,0.1
				c0.16-0.02,0.32-0.05,0.48-0.06c0.16-0.01,0.33,0,0.49,0.03c0.08,0.01,0.16,0.03,0.24,0.05c0.09,0.02,0.17,0.05,0.26,0.02
				c0.16-0.05,0.21-0.27,0.24-0.42c0.04-0.18,0.05-0.36,0.04-0.54c-0.01-0.11-0.11-0.2-0.22-0.17c-0.1,0.03-0.16,0.08-0.22,0.16
				c-0.06,0.08-0.01,0.2,0.06,0.24c0.09,0.05,0.19,0.01,0.24-0.06c-0.01,0.01,0,0.01,0.01,0c-0.07-0.06-0.15-0.11-0.22-0.17
				c0.01,0.12,0.01,0.25-0.01,0.37c-0.02,0.1-0.03,0.23-0.09,0.31c0.02-0.02,0.04-0.04,0.06-0.06c0.03,0,0.03-0.01,0.01-0.01
				c-0.02-0.01-0.04-0.01-0.05-0.01c-0.03-0.01-0.06-0.01-0.09-0.02c-0.07-0.01-0.13-0.03-0.2-0.04c-0.14-0.02-0.28-0.03-0.42-0.03
				c-0.13,0-0.26,0.01-0.4,0.03c-0.07,0.01-0.14,0.02-0.21,0.03c-0.03,0.01-0.1,0.03-0.13,0.01c-0.01,0-0.01,0,0,0
				c-0.01-0.01-0.01-0.06-0.02-0.07c-0.01-0.07-0.02-0.13-0.03-0.2c-0.02-0.14-0.04-0.29-0.05-0.43c-0.01-0.13-0.01-0.3-0.17-0.34
				c-0.16-0.04-0.26,0.11-0.23,0.25c0.02,0.08,0.1,0.12,0.17,0.13c0,0,0.01,0,0.01,0c0.1,0.01,0.18-0.09,0.18-0.18
				C13.31,42.05,13.23,41.99,13.14,41.98L13.14,41.98z"/>
		</g>
	</g>
	<g>
		<g>
			<path d="M11.64,34.69c-1.11,0.73-1.34,1.76-1.06,3.02c0.3,1.39,1.06,3.83,2.29,4.69c1.2,0.84,3.39,0.51,4.76,0.57
				c2.17,0.1,4.38,0.77,6.56,0.5c2-0.25,4.01-1,5.95-1.54c1.73-0.48,3.64-0.83,5.11-1.91c1.21-0.89,4.35-5.31,1.56-6.12
				c-0.22-0.06-0.31,0.28-0.09,0.34c0.25,0.42,0.51,0.84,0.76,1.27c-0.03,0.23-0.07,0.46-0.1,0.69c-0.08,0.36-0.2,0.69-0.34,1.03
				c-0.29,0.66-0.67,1.27-1.18,1.79c-0.98,1.03-2.26,1.56-3.61,1.96c-1.33,0.39-2.67,0.74-4,1.11c-1.47,0.41-2.99,0.96-4.52,1.07
				c-1.42,0.1-2.82-0.22-4.22-0.39c-1.24-0.15-2.49-0.16-3.74-0.21c-0.94-0.04-1.87-0.02-2.65-0.6c-0.63-0.47-0.93-1.02-1.27-1.72
				c-0.75-1.54-1.84-4.06-0.03-5.24C12.01,34.87,11.84,34.57,11.64,34.69L11.64,34.69z"/>
		</g>
	</g>
	<g>
		<g>
			<path d="M14.2,33.12c-1.25,0.68-3.18,1.2-3.18,2.88c0,1,0.26,2.78,1.27,3.3c0.68,0.35,1.73,0.26,2.46,0.31
				c1.11,0.08,2.21,0.16,3.32,0.24c2.13,0.15,4.33,0.46,6.46,0.16c2.19-0.3,4.38-0.95,6.52-1.49c1.82-0.46,3.76-0.85,5.42-1.76
				c0.97-0.53,1.8-1.37,1.31-2.56c-0.45-1.1-2.3-1.39-3.31-1.58c-0.22-0.04-0.32,0.3-0.09,0.34c0.94,0.17,2.89,0.53,3.14,1.59
				c0.44,1.81-2.82,2.61-4.09,2.96c-2.79,0.79-5.67,1.58-8.53,2.07c-2.84,0.49-5.88-0.03-8.73-0.24c-0.79-0.06-1.58-0.1-2.37-0.17
				c-0.31-0.03-0.83,0.02-1.1-0.12c-0.55-0.29-0.93-1.09-1.07-1.66c-0.28-1.16-0.37-2.11,0.81-2.92c0.6-0.41,1.31-0.72,1.95-1.06
				C14.58,33.32,14.4,33.02,14.2,33.12L14.2,33.12z"/>
		</g>
	</g>
	<g>
		<g>
			<path d="M32.27,29.71c0.81,0.63,1.8,0.87,2.81,0.67c0.18-0.04,0.16-0.29,0-0.34c-0.65-0.21-1.3-0.24-1.96-0.11
				c-0.2,0.04-0.15,0.34,0.05,0.35c1.55,0.05,3.02-0.31,4.41-0.99c0.38-0.19,0.69-0.1,1.09-0.14c0.27-0.03,0.53-0.11,0.77-0.24
				c0.52-0.27,0.9-0.75,1.06-1.31c0.06-0.22-0.28-0.31-0.34-0.09c-0.18,0.62-0.68,1.12-1.32,1.26c-0.31,0.07-0.6-0.02-0.9,0.01
				c-0.24,0.03-0.45,0.16-0.66,0.26c-1.27,0.64-2.68,0.93-4.1,0.88c0.02,0.12,0.03,0.23,0.05,0.35c0.6-0.12,1.19-0.08,1.77,0.11
				c0-0.11,0-0.23,0-0.34c-0.87,0.18-1.76-0.03-2.46-0.57C32.34,29.32,32.09,29.57,32.27,29.71L32.27,29.71z"/>
		</g>
	</g>
	<g>
		<g>
			<path d="M33.29,28.24c-0.23,0.69-0.7,1.86,0.34,2.01c0.66,0.09,1.54-0.07,2.21-0.1c0.67-0.03,1.33-0.11,1.96-0.36
				c1.09-0.44,2.08-1.34,2.63-2.38c0.57-1.07,0.5-2.28,0.26-3.44c-0.34-1.59-1.03-3.24-0.23-4.81c0.67-1.33,2.1-2.43,3.4-3.09
				c2.61-1.33,5.71-1.29,8.14,0.41c0.11,0.08,0.27-0.03,0.27-0.15c-0.01-0.81-1.05-1.41-1.56-1.92c-0.23-0.23-0.36-0.63-0.59-0.8
				c-0.39-0.29-1.37-0.27-1.84-0.27c-2.9-0.04-5.66,0.91-7.77,2.95c-1.99,1.93-2.32,4.26-1.66,6.84c0.43,1.67,0.59,3.67-1.07,4.7
				c-0.79,0.49-1.72,0.69-2.64,0.7c-0.63,0.01-1.27-0.23-1.89-0.2c-0.06,0-0.13,0.03-0.15,0.09c-0.01,0.03-0.03,0.06-0.04,0.09
				c-0.03,0.07-0.03,0.16,0.03,0.21c0.02,0.02,0.04,0.04,0.06,0.06c0.17,0.16,0.42-0.09,0.25-0.25c-0.04,0.2,0.06,0.27,0.29,0.23
				c0.11,0.02,0.22,0.04,0.32,0.05c0.33,0.05,0.66,0.07,0.99,0.08c0.58,0.01,1.17-0.06,1.73-0.22c0.99-0.28,2-0.85,2.46-1.81
				c1.14-2.35-0.85-4.98-0.2-7.42c0.78-2.92,4.04-5.09,6.88-5.55c1.06-0.17,3.3-0.57,4.11,0.21c0.28,0.27,0.51,0.59,0.8,0.86
				c0.36,0.33,1.14,0.84,1.14,1.38c0.09-0.05,0.18-0.1,0.27-0.15c-3.71-2.59-9.35-1.38-11.81,2.44c-1.52,2.35,0.31,4.71,0.14,7.19
				c-0.12,1.71-1.51,3.23-3.12,3.76c-0.82,0.27-1.69,0.24-2.54,0.26c-0.2,0.01-0.81,0.12-0.99,0.06c-0.78-0.26-0.38-1.09-0.23-1.54
				C33.71,28.12,33.37,28.03,33.29,28.24L33.29,28.24z"/>
		</g>
	</g>
	<g>
		<g>
			<path d="M33.25,28.01c-0.35-0.14-0.63,0.21-0.69,0.51c-0.08,0.38-0.09,0.79-0.06,1.18c0.03,0.28,0.09,0.65,0.39,0.78
				c0.15,0.06,0.32,0.02,0.44-0.08c0.06-0.05,0.1-0.1,0.14-0.16c0.02-0.03,0.05-0.06,0.08-0.08c0.01,0,0.06-0.03,0.04-0.03
				c0.09,0.04,0.19,0.03,0.24-0.06c0.04-0.08,0.02-0.2-0.06-0.24c-0.14-0.06-0.27-0.05-0.4,0.03c-0.11,0.07-0.17,0.19-0.27,0.28
				c-0.15,0.12-0.23-0.22-0.24-0.32c-0.03-0.19-0.11-1.63,0.29-1.47c0.09,0.04,0.19-0.04,0.22-0.12
				C33.4,28.13,33.34,28.05,33.25,28.01L33.25,28.01z"/>
		</g>
	</g>
	<g>
		<g>
			<path d="M14.89,34.74c-0.21,0.62-0.35,1.24-0.44,1.88c-0.03,0.19,0.21,0.32,0.32,0.14c0.17-0.27,0.35-0.55,0.52-0.82
				c-0.11-0.03-0.22-0.06-0.33-0.09c-0.04,0.35-0.37,1.36,0.07,1.59c0.43,0.22,0.89-0.58,1.11-0.82c-0.07,0.01-0.14,0.02-0.21,0.03
				c0.34,0.19,0.43,0.68,0.82,0.81c0.36,0.12,0.52-0.16,0.78-0.33c0.64-0.42,1.67-0.2,2.41-0.28c0.75-0.08,1.49-0.21,2.23-0.34
				c-0.03-0.11-0.06-0.23-0.09-0.34c-2.45,0.57-4.97,0.53-7.4-0.13c-0.03,0.11-0.06,0.23-0.09,0.34c3.39,0.8,6.92,1.58,10.38,0.75
				c0.19-0.05,0.15-0.35-0.05-0.35c-2.67,0.02-5.43,0.02-7.91-1.1c-0.05,0.11-0.09,0.22-0.14,0.32c3.56,1.1,7.32,1.35,11,0.75
				c0.22-0.04,0.13-0.38-0.09-0.34c-3.62,0.59-7.31,0.33-10.81-0.75c-0.19-0.06-0.32,0.24-0.14,0.32c2.55,1.15,5.35,1.17,8.09,1.15
				c-0.02-0.12-0.03-0.23-0.05-0.35c-3.4,0.82-6.86,0.04-10.19-0.75c-0.22-0.05-0.32,0.28-0.09,0.34c2.49,0.67,5.08,0.72,7.59,0.13
				c0.22-0.05,0.13-0.38-0.09-0.34c-0.75,0.13-1.5,0.27-2.26,0.34c-0.62,0.06-1.25-0.02-1.87,0.05c-0.39,0.04-0.46,0.27-0.77,0.43
				c-0.52,0.26-0.69-0.43-1.06-0.64c-0.07-0.04-0.16-0.03-0.21,0.03c-0.12,0.13-0.57,0.77-0.7,0.59c-0.11-0.14,0.1-0.92,0.12-1.1
				c0.02-0.19-0.24-0.22-0.33-0.09c-0.17,0.27-0.35,0.55-0.52,0.82c0.11,0.05,0.22,0.09,0.32,0.14c0.09-0.64,0.24-1.26,0.44-1.88
				C15.3,34.61,14.96,34.52,14.89,34.74L14.89,34.74z"/>
		</g>
	</g>
	<g>
		<g>
			<path d="M14.35,31.07c-0.2,0.89-0.36,1.78-0.44,2.68c-0.05,0.58-0.18,1.32,0.09,1.87c0.53,1.09,2.28,1.05,3.28,1.19
				c3.09,0.44,6.18,0.73,9.3,0.42c1.65-0.16,3.38-0.35,4.95-0.88c0.93-0.32,2.09-0.72,2.81-1.42c0.71-0.69,0.77-1.52,0.5-2.43
				c-0.13-0.42-0.32-1.4-0.89-1.39c-0.06,0-0.13,0.03-0.15,0.09c-0.02,0.03-0.03,0.07-0.05,0.1c-0.03,0.07-0.03,0.16,0.03,0.21
				c0.02,0.02,0.05,0.04,0.07,0.06c0.17,0.15,0.42-0.1,0.25-0.25c-0.02-0.02,0.22,0.77,0.24,0.81c0.16,0.41,0.33,0.89,0.32,1.34
				c-0.03,1.1-1.1,1.62-1.96,2.02c-2.28,1.07-4.95,1.34-7.44,1.48c-2.16,0.12-4.32-0.05-6.47-0.32c-0.73-0.09-1.46-0.2-2.19-0.3
				c-0.52-0.08-1.19-0.09-1.65-0.36c-1.39-0.81-0.54-3.58-0.26-4.84C14.74,30.94,14.4,30.85,14.35,31.07L14.35,31.07z"/>
		</g>
	</g>
	<g>
		<g>
			<path d="M26.54,15.76c1.6,0.06,2.72,1.11,3.63,2.33c0.85,1.13,1.71,2.18,2.21,3.53c0.58,1.57,1.29,3.16,1.69,4.78
				c0.35,1.4,0.53,3.32,0.11,4.73c-0.55,1.87-2.12,2.4-3.87,2.73c-1.65,0.31-3.32,0.54-4.99,0.65c-3.14,0.2-6.34-0.08-9.2-1.48
				c-0.13-0.06-0.31,0.04-0.26,0.2c0.03,0.1,0.06,0.19,0.09,0.29c0.07,0.22,0.41,0.12,0.34-0.09c-0.03-0.1-0.06-0.19-0.09-0.29
				c-0.09,0.07-0.17,0.13-0.26,0.2c2.42,1.18,5.07,1.61,7.75,1.59c1.39-0.01,2.77-0.13,4.15-0.32c1.46-0.19,3.1-0.33,4.48-0.9
				c2.39-0.98,2.51-3.5,2.34-5.73c-0.11-1.49-0.62-2.81-1.13-4.21c-0.47-1.29-0.8-2.77-1.59-3.9c-1.33-1.89-2.85-4.36-5.41-4.46
				C26.31,15.39,26.31,15.75,26.54,15.76L26.54,15.76z"/>
		</g>
	</g>
	<g>
		<g>
			<path d="M16,20.99c-1.34,2.74-2.02,5.72-2.27,8.75c-0.09,1.13-0.18,2.45,0.65,3.36c0.7,0.77,1.79,0.97,2.78,1.06
				c3.22,0.28,6.57,0.3,9.8,0.03c1.54-0.13,3.08-0.34,4.59-0.71c0.8-0.19,2.29-0.25,2.37-1.28c0.02-0.23-0.34-0.23-0.35,0
				c-0.06,0.84-3.1,1.17-3.73,1.28c-1.38,0.24-2.77,0.38-4.17,0.44c-2.54,0.13-5.08,0.04-7.61-0.07c-1.11-0.05-2.48-0.07-3.32-0.91
				c-1-0.98-0.7-2.66-0.57-3.92c0.29-2.72,0.95-5.39,2.16-7.86C16.41,20.97,16.1,20.79,16,20.99L16,20.99z"/>
		</g>
	</g>
	<g>
		<g>
			<path d="M14.32,19.17c-0.76-0.27-1.67-0.01-2.17,0.62c-0.06,0.07-0.07,0.18,0,0.25c0.06,0.06,0.19,0.08,0.25,0
				c0.43-0.54,1.18-0.75,1.83-0.52C14.44,19.59,14.53,19.25,14.32,19.17L14.32,19.17z"/>
		</g>
	</g>
	<g>
		<g>
			<path d="M14.94,18.84c0.05,0.19,0.1,0.37,0.15,0.56c0.05,0.18,0.08,0.37,0.16,0.54c0.07,0.16,0.22,0.23,0.38,0.24
				c0.13,0,0.27-0.04,0.38,0c0.03-0.11,0.06-0.23,0.09-0.34c-0.56-0.08-1.08-0.3-1.53-0.64c-0.06,0.1-0.12,0.2-0.18,0.31
				c0.19,0.11,0.38,0.23,0.56,0.34c-0.01-0.09-0.02-0.19-0.04-0.28c-0.13,0.13-0.29,0.21-0.46,0.25c-0.22,0.05-0.13,0.4,0.09,0.34
				c0.23-0.06,0.45-0.18,0.62-0.34c0.08-0.08,0.06-0.22-0.04-0.28c-0.19-0.11-0.38-0.23-0.56-0.34c-0.08-0.05-0.19-0.02-0.24,0.06
				c-0.05,0.09-0.01,0.18,0.06,0.24c0.47,0.36,1.03,0.59,1.62,0.67c0.09,0.01,0.19-0.02,0.22-0.12c0.03-0.1-0.03-0.18-0.12-0.22
				c-0.12-0.05-0.25-0.03-0.38-0.02c-0.03,0-0.06,0-0.09,0c-0.03,0-0.02,0-0.05-0.01c-0.01,0-0.01-0.01-0.01-0.01
				c-0.01-0.02-0.02-0.05-0.03-0.07c-0.1-0.33-0.18-0.66-0.27-0.99C15.22,18.52,14.88,18.62,14.94,18.84L14.94,18.84z"/>
		</g>
	</g>
	<g>
		<g>
			<path d="M16.67,18.43c-1.03-1.07-2.44-1.52-3.82-0.83c-1.44,0.72-2.44,2.24-3.12,3.65c-0.78,1.61-1.01,3.26-1.21,5.01
				c-0.12,0.98-0.33,2.02-1,2.79c-0.3,0.34-0.69,0.62-1.14,0.72c-0.72,0.16-1.58-0.3-1.43-1.14c0.04-0.22-0.3-0.32-0.34-0.09
				c-0.27,1.52,1.53,1.95,2.59,1.27c1.44-0.92,1.61-2.79,1.76-4.33c0.21-2.09,0.87-4.07,2.11-5.77c0.61-0.84,1.42-1.69,2.44-1.98
				c1.12-0.32,2.14,0.17,2.91,0.97C16.58,18.85,16.83,18.6,16.67,18.43L16.67,18.43z"/>
		</g>
	</g>
	<g>
		<g>
			<path d="M17.31,17.75c-1.05-1.02-2.51-1.51-3.96-1.35c-1.54,0.17-2.8,1.08-3.62,2.38c-1.04,1.64-1.3,3.59-1.57,5.48
				c-0.27,1.82-0.79,5.41-3.46,4.85c-0.14-0.03-0.24,0.08-0.22,0.22c0.2,1.25,1.64,1.89,2.79,1.91c1.57,0.03,2.55-1.2,2.94-2.61
				c0.56-2,0.74-4.16,1.08-6.21c0.16-0.95,0.2-2.28,1.11-2.85c1.06-0.66,2.34-0.06,3.31,0.47c0.2,0.11,0.38-0.2,0.18-0.31
				c-1.14-0.63-2.7-1.28-3.87-0.33c-0.55,0.45-0.76,1.14-0.89,1.81c-0.19,0.99-0.33,1.99-0.5,2.98c-0.16,0.98-0.32,1.96-0.49,2.93
				c-0.16,0.94-0.31,1.94-0.88,2.74c-0.62,0.86-1.59,1.18-2.61,0.95c-0.82-0.18-1.7-0.68-1.84-1.58c-0.07,0.07-0.15,0.15-0.22,0.22
				c1.49,0.31,2.68-0.77,3.22-2.07c0.75-1.83,0.7-3.93,1.16-5.84c0.44-1.79,1.36-3.69,3.15-4.46c1.65-0.71,3.64-0.32,4.92,0.93
				C17.22,18.16,17.47,17.91,17.31,17.75L17.31,17.75z"/>
		</g>
	</g>
	<g>
		<g>
			<path d="M16.5,18.85c-0.18,0.19-0.36,0.37-0.53,0.56c-0.09,0.09-0.18,0.19-0.27,0.28c-0.08,0.08-0.19,0.17-0.22,0.28
				c-0.08,0.24,0.16,0.41,0.32,0.55c0.19,0.17,0.38,0.33,0.58,0.48c0.06,0.05,0.15,0.08,0.21,0.03c0.52-0.36,0.91-0.87,1.12-1.46
				c-0.12-0.02-0.23-0.03-0.35-0.05c-0.02,0.2,0.06,0.4,0.21,0.54c0.17,0.15,0.42-0.1,0.25-0.25c-0.09-0.08-0.12-0.17-0.11-0.29
				c0.01-0.09-0.07-0.16-0.15-0.17c-0.09-0.01-0.16,0.04-0.19,0.13c-0.18,0.5-0.52,0.94-0.96,1.25c0.07,0.01,0.14,0.02,0.21,0.03
				c-0.16-0.13-0.32-0.26-0.48-0.39c-0.08-0.07-0.16-0.14-0.23-0.21c-0.01-0.01-0.1-0.1-0.1-0.1c-0.02,0-0.02,0.01-0.01,0.04
				c0.02-0.02,0.03-0.03,0.05-0.05c0.3-0.31,0.6-0.63,0.9-0.94C16.91,18.94,16.66,18.69,16.5,18.85L16.5,18.85z"/>
		</g>
	</g>
	<g>
		<g>
			<path d="M18.1,18.63c-0.12,0.4-0.23,0.8-0.35,1.19c0.1-0.03,0.2-0.05,0.3-0.08c-0.38-0.42-0.85-0.73-1.37-0.94
				c0.03,0.1,0.05,0.2,0.08,0.3c0.15-0.18,0.3-0.36,0.45-0.54c0.1-0.12,0.22-0.31,0.39-0.33c0.37-0.05,0.57,0.38,0.68,0.66
				c0.03,0.09,0.12,0.15,0.22,0.12c0.08-0.02,0.16-0.13,0.12-0.22c-0.17-0.43-0.44-0.91-0.97-0.92c-0.25-0.01-0.45,0.14-0.6,0.32
				c-0.18,0.22-0.36,0.44-0.54,0.66c-0.09,0.11-0.05,0.25,0.08,0.3c0.47,0.18,0.88,0.48,1.21,0.85c0.09,0.1,0.26,0.04,0.3-0.08
				c0.12-0.4,0.23-0.8,0.35-1.19C18.5,18.5,18.16,18.41,18.1,18.63L18.1,18.63z"/>
		</g>
	</g>
	<g>
		<g>
			<path d="M21.04,15.81c-0.59,0.31-3.83,2.05-2.37,2.96c0.35,0.21,0.82,0.3,1.21,0.41c0.5,0.13,1,0.23,1.51,0.31
				c0.94,0.13,1.89,0.17,2.84,0.1c0.95-0.07,1.89-0.24,2.8-0.51c0.77-0.23,1.68-0.52,2.27-1.11c1.18-1.17-2.14-2.16-2.88-2.32
				c-0.22-0.05-0.32,0.29-0.09,0.34c0.7,0.15,1.37,0.39,1.99,0.75c0.16,0.09,0.31,0.19,0.46,0.29c0.22,0.15,0.38,0.18,0.31,0.48
				c-0.08,0.38-0.52,0.58-0.86,0.75c-1.27,0.63-2.79,0.92-4.19,1c-1.43,0.08-2.87-0.07-4.25-0.46c-0.25-0.07-0.74-0.14-0.94-0.32
				c-0.46-0.44,0.21-0.91,0.52-1.15c0.57-0.46,1.19-0.85,1.84-1.19C21.42,16.01,21.24,15.7,21.04,15.81L21.04,15.81z"/>
		</g>
	</g>
	<g>
		<g>
			<path d="M27.86,17.05c0.23,0.1,0.48,0.19,0.7,0.32c0.05,0.03,0.09,0.05,0.13,0.08c0.01,0.01,0.01,0.01,0,0
				c0.01,0.01,0.02,0.02,0.03,0.03c0.02,0.01,0.03,0.03,0.05,0.05c0.01,0.01,0.02,0.02,0.02,0.03c0.03,0.03-0.01-0.02,0,0
				c0.01,0.02,0.03,0.04,0.04,0.06c0.01,0.01,0.01,0.02,0.02,0.03c-0.01-0.02,0-0.01,0,0c0,0.01,0.01,0.02,0.01,0.04
				c0,0.01,0.01,0.05,0,0.01c0.01,0.09,0.07,0.18,0.18,0.18c0.09,0,0.19-0.08,0.18-0.18c-0.02-0.14-0.07-0.26-0.16-0.38
				c-0.08-0.09-0.18-0.17-0.28-0.23c-0.24-0.15-0.5-0.24-0.76-0.35c-0.08-0.04-0.19-0.03-0.24,0.06
				C27.76,16.88,27.77,17.01,27.86,17.05L27.86,17.05z"/>
		</g>
	</g>
	<g>
		<g>
			<path d="M27.61,17.4c0.05-0.01,0.1-0.03,0.15-0.04c0.02-0.01,0.04-0.02,0.06-0.03c0.02-0.01,0.03-0.03,0.05-0.05
				c0.01-0.01,0.01-0.03,0.02-0.04c0.01-0.02,0.01-0.05,0-0.07c0-0.02,0-0.03-0.01-0.04c-0.01-0.02-0.02-0.04-0.04-0.06
				c-0.01-0.01-0.02-0.02-0.04-0.03c-0.03-0.02-0.06-0.02-0.09-0.02c-0.13,0-0.25,0.09-0.28,0.21c-0.01,0.02-0.01,0.05,0,0.07
				c0,0.02,0.01,0.05,0.02,0.07c0.01,0.02,0.03,0.04,0.05,0.05c0.02,0.02,0.04,0.03,0.06,0.03c0.02,0,0.03,0,0.05,0.01
				c0.03,0,0.06-0.01,0.09-0.02c0.04-0.02,0.07-0.06,0.08-0.11c0-0.01,0-0.01,0.01-0.02c-0.01,0.01-0.01,0.03-0.02,0.04
				c0-0.01,0.01-0.02,0.01-0.02c-0.01,0.01-0.02,0.02-0.03,0.04c0.01-0.01,0.01-0.01,0.02-0.02c-0.01,0.01-0.02,0.02-0.04,0.03
				c0.01-0.01,0.02-0.01,0.03-0.02c-0.01,0.01-0.03,0.01-0.04,0.02c0.01,0,0.02-0.01,0.03-0.01c-0.02,0-0.03,0-0.05,0.01
				c0.01,0,0.01,0,0.02,0c-0.02-0.12-0.03-0.23-0.05-0.35c-0.05,0.01-0.1,0.03-0.15,0.04c-0.02,0.01-0.04,0.02-0.06,0.03
				c-0.02,0.01-0.03,0.03-0.05,0.05c-0.01,0.02-0.02,0.04-0.02,0.07c-0.01,0.02,0,0.05,0,0.07c0.01,0.04,0.04,0.08,0.08,0.11
				C27.52,17.41,27.57,17.42,27.61,17.4L27.61,17.4z"/>
		</g>
	</g>
	<g>
		<g>
			<path d="M23.05,14.98c-0.41,0.04-0.81,0.14-1.18,0.32c-0.33,0.16-0.76,0.41-0.93,0.75c-0.41,0.85,0.9,1.12,1.44,1.19
				c0.94,0.11,1.9,0.07,2.83-0.13c0.41-0.09,2.05-0.36,1.68-1.1c-0.17-0.35-0.79-0.47-1.12-0.58c-0.53-0.16-1.08-0.26-1.63-0.31
				c-0.23-0.02-0.23,0.33,0,0.35c0.45,0.04,0.9,0.12,1.33,0.24c0.2,0.06,0.4,0.12,0.59,0.19c0.14,0.05,0.6,0.17,0.45,0.38
				c-0.11,0.15-0.44,0.22-0.6,0.27c-0.2,0.06-0.4,0.12-0.6,0.17c-0.42,0.1-0.85,0.17-1.28,0.2c-0.41,0.03-0.83,0.03-1.24,0
				c-0.4-0.03-0.88-0.05-1.24-0.23c-0.22-0.12-0.42-0.35-0.22-0.59c0.13-0.15,0.3-0.26,0.47-0.36c0.38-0.23,0.81-0.37,1.25-0.41
				C23.28,15.31,23.28,14.96,23.05,14.98L23.05,14.98z"/>
		</g>
	</g>
	<g>
		<g>
			<path d="M22.63,13.91c-0.11,0.14-0.23,0.28-0.34,0.43c-0.06,0.07-0.07,0.18,0,0.25c0.06,0.06,0.19,0.07,0.25,0
				c0.01-0.01,0.01-0.01,0.02-0.02c0.03-0.03-0.01,0.02,0,0c0,0,0.03-0.02,0.01-0.01c-0.02,0.01,0.01,0,0.02,0
				c0.02-0.01,0.01,0-0.01,0c0.01,0,0.02,0,0.03,0c0.04,0-0.02-0.01,0,0c0.01,0,0.02,0,0.03,0.01c0.01,0,0.02,0.01,0.04,0.01
				c-0.02-0.01-0.02-0.01,0,0c0.02,0.01,0.04,0.02,0.06,0.04c0.02,0.01-0.02-0.02,0,0c0.01,0.01,0.02,0.02,0.03,0.03
				c0.01,0.01,0.01,0.02,0.02,0.02c0.02,0.02,0-0.01,0.01,0.01c0.06,0.09,0.08,0.18,0.11,0.3c0.03,0.13,0.07,0.25,0.13,0.37
				c0.04,0.08,0.16,0.11,0.24,0.06c0.09-0.05,0.11-0.16,0.06-0.24c-0.06-0.11-0.08-0.25-0.12-0.38c-0.04-0.14-0.1-0.28-0.21-0.39
				c-0.19-0.18-0.53-0.27-0.72-0.04c0.08,0.08,0.17,0.17,0.25,0.25c0.11-0.14,0.23-0.28,0.34-0.43c0.06-0.07,0.07-0.18,0-0.25
				C22.82,13.85,22.69,13.84,22.63,13.91L22.63,13.91z"/>
		</g>
	</g>
	<g>
		<g>
			<path d="M22.03,13.27c0.34,0.56,0.64,1.16,0.87,1.78c0.08,0.22,0.13,0.47,0.37,0.56c0.13,0.05,0.28,0.06,0.42,0.08
				c0.15,0.02,0.3,0.05,0.45,0.07c0.3,0.03,0.39-0.2,0.51-0.44c0.14-0.29,0.27-0.58,0.4-0.87c0.25-0.6,0.47-1.22,0.66-1.85
				c-0.11,0-0.23,0-0.34,0c0.05,0.3,0.26,0.52,0.54,0.63c0.21,0.08,0.31-0.26,0.09-0.34c-0.17-0.06-0.26-0.21-0.29-0.38
				c-0.03-0.18-0.3-0.16-0.34,0c-0.15,0.52-0.33,1.04-0.53,1.54c-0.11,0.27-0.22,0.54-0.35,0.8c-0.05,0.12-0.11,0.24-0.17,0.35
				c-0.02,0.05-0.05,0.15-0.09,0.18c-0.04,0.03-0.07,0.02-0.14,0.01c-0.12-0.02-0.25-0.04-0.37-0.06c-0.1-0.02-0.28-0.01-0.36-0.09
				c-0.07-0.08-0.1-0.26-0.14-0.36c-0.04-0.12-0.09-0.23-0.14-0.35c-0.21-0.5-0.46-0.98-0.74-1.45
				C22.21,12.89,21.91,13.07,22.03,13.27L22.03,13.27z"/>
		</g>
	</g>
	<g>
		<g>
			<path d="M23.11,12.42c-0.33,0.26-0.66,0.52-0.98,0.78c-0.06,0.05-0.07,0.16-0.03,0.21c0.19,0.27,0.52,0.22,0.81,0.2
				c0.42-0.03,0.85-0.07,1.27-0.1c0.66-0.05,1.44-0.15,1.69-0.86c0.04-0.11-0.06-0.22-0.17-0.22c-0.75-0.01-1.51-0.01-2.26-0.02
				c-0.18,0-0.37,0-0.55-0.01c-0.12,0-0.24,0-0.33,0.1c-0.17,0.21,0.15,0.51,0.32,0.3c0.15-0.17-0.1-0.43-0.25-0.25
				c0,0.01-0.01,0.01-0.01,0.02c0.04-0.02,0.08-0.03,0.13-0.05c0.04,0.04,0.08,0.07,0.12,0.11c-0.02,0.04-0.03,0.08-0.05,0.13
				c0.02-0.02,0.27,0,0.32,0c0.13,0,0.25,0,0.38,0c0.24,0,0.48,0,0.72,0.01c0.49,0,0.98,0.01,1.47,0.01
				c-0.06-0.07-0.11-0.15-0.17-0.22c-0.2,0.55-0.93,0.57-1.42,0.61c-0.31,0.03-0.62,0.05-0.94,0.08c-0.16,0.01-0.31,0.03-0.47,0.04
				c-0.08,0.01-0.25,0.04-0.3-0.04c-0.01,0.07-0.02,0.14-0.03,0.21c0.33-0.26,0.66-0.52,0.98-0.78
				C23.54,12.52,23.29,12.27,23.11,12.42L23.11,12.42z"/>
		</g>
	</g>
</g>
</svg>
