<?xml version="1.0" encoding="utf-8"?>
<!-- Generator: Adobe Illustrator 26.2.1, SVG Export Plug-In . SVG Version: 6.00 Build 0)  -->
<svg version="1.1" id="Layer_1" xmlns="http://www.w3.org/2000/svg" xmlns:xlink="http://www.w3.org/1999/xlink" x="0px" y="0px"
	 viewBox="0 0 56.69 56.69" style="enable-background:new 0 0 56.69 56.69;" xml:space="preserve">
<g>
	<g>
		<g>
			<path d="M23.71,36.25c0.1,2.84,0.34,5.67,0.73,8.49c0.25,1.83,0.27,4.73,2.17,5.72c0.03-0.11,0.06-0.22,0.09-0.33
				c-2.62,0.06-2.39-3.58-2.4-5.33c0-2.29,0.12-4.57,0.52-6.83c0.04-0.22-0.28-0.32-0.34-0.09c-0.77,2.67-0.36,5.43,0.39,8.05
				c0.36,1.26,0.74,2.57,1.26,3.77c0.38,0.87,1.06,1.64,2.09,1.56c0.22-0.02,0.23-0.36,0-0.35c-0.49,0.02-0.98-0.02-1.45-0.17
				c-0.24-0.08-0.48-0.18-0.71-0.31c-0.11-0.06-1.13-0.83-0.65-0.94c0.22-0.05,0.13-0.39-0.09-0.34c-0.74,0.17-0.35,0.92,0.04,1.24
				c0.81,0.65,1.83,0.93,2.85,0.88c0-0.12,0-0.24,0-0.35c-1.41,0.12-1.84-1.49-2.2-2.54c-0.38-1.1-0.74-2.21-1.03-3.34
				c-0.6-2.32-0.85-4.72-0.17-7.05c-0.11-0.03-0.23-0.06-0.34-0.09c-0.48,2.76-0.57,5.57-0.51,8.36c0.04,1.74,0.47,4.3,2.73,4.25
				c0.17,0,0.25-0.25,0.09-0.33c-0.95-0.5-1.31-1.5-1.53-2.49c-0.27-1.25-0.43-2.55-0.59-3.82c-0.32-2.52-0.52-5.05-0.61-7.59
				C24.06,36.02,23.71,36.02,23.71,36.25L23.71,36.25z"/>
		</g>
	</g>
	<g>
		<g>
			<path d="M21.2,37.53c1.13,0.87,2.44,1.42,3.8,1.83c1.53,0.47,3.12,0.87,4.72,0.98c2.56,0.17,5.37-0.68,6.61-3.1
				c0.06-0.12-0.02-0.26-0.15-0.27c-1.13-0.05-2.13,0.4-3.17,0.78c-1.32,0.49-2.69,0.65-4.09,0.72c-1.27,0.06-2.53,0.1-3.8,0.23
				c-1.34,0.14-2.92,0.2-3.76-1.07c-0.07,0.09-0.13,0.17-0.2,0.26c0.65,0.23,1.29,0.47,1.94,0.7c0-0.11,0-0.23,0-0.34
				c-0.84,0.13-1.63,0.03-2.41-0.3c-0.01,0.11-0.03,0.22-0.04,0.32c2.61-0.55,5.35-0.56,8.01-0.75c2.49-0.17,5.48-0.69,7.85,0.3
				c-0.01-0.11-0.03-0.22-0.04-0.32c-0.51,0.36-1.01,0.71-1.52,1.07c-0.18,0.13-0.01,0.44,0.18,0.31c0.51-0.36,1.01-0.71,1.52-1.07
				c0.13-0.09,0.1-0.26-0.04-0.32c-2.4-1.01-5.42-0.49-7.94-0.31c-2.69,0.18-5.46,0.2-8.1,0.76c-0.14,0.03-0.18,0.26-0.04,0.32
				c0.88,0.37,1.75,0.48,2.68,0.33c0.19-0.03,0.15-0.29,0-0.34c-0.65-0.23-1.29-0.47-1.94-0.7c-0.14-0.05-0.28,0.14-0.2,0.26
				c0.52,0.79,1.33,1.18,2.26,1.29c1.44,0.17,2.98-0.19,4.43-0.24c1.39-0.05,2.79-0.08,4.15-0.4c1.45-0.34,2.77-1.21,4.3-1.14
				c-0.05-0.09-0.1-0.18-0.15-0.27c-1.33,2.57-4.37,3.19-7.02,2.86c-2.59-0.32-5.53-1.08-7.62-2.69
				C21.2,37.08,21.02,37.39,21.2,37.53L21.2,37.53z"/>
		</g>
	</g>
	<g>
		<g>
			<path d="M24.24,6.91c-0.17,1.08-0.26,2.18-0.26,3.27c0,0.31-0.1,0.87,0.15,1.11c0.25,0.24,0.92,0.15,1.24,0.18
				c0.15,0.01,0.24-0.21,0.13-0.3c-0.38-0.31-1.42-0.36-1.48-0.92c-0.12,0.02-0.23,0.03-0.35,0.05c0.52,1.32,2.14,1.63,3.4,1.64
				c0.4,0,0.8-0.04,1.19-0.1c0.49-0.07,0.93-0.06,1.42-0.04c0.94,0.04,1.92-0.16,2.81,0.23c0.21,0.09,0.39-0.21,0.18-0.31
				c-0.69-0.3-1.41-0.3-2.15-0.28c-0.74,0.02-1.47-0.08-2.2,0.03c-1.33,0.2-3.69,0.28-4.31-1.27c-0.07-0.17-0.37-0.17-0.35,0.05
				c0.11,0.88,1.05,0.73,1.59,1.17c0.04-0.1,0.08-0.2,0.13-0.3c-0.2-0.01-0.41-0.01-0.6-0.04c-0.16,0.01-0.3-0.04-0.42-0.14
				c0-0.06,0-0.11-0.01-0.17c-0.1-0.36-0.01-0.88,0-1.25c0.02-0.84,0.11-1.68,0.24-2.52C24.61,6.78,24.27,6.68,24.24,6.91
				L24.24,6.91z"/>
		</g>
	</g>
	<g>
		<g>
			<path d="M25.6,14.65c-0.35,3.95-0.48,7.92-0.31,11.88c0.06,1.39-0.02,3.38,0.96,4.52c0.52,0.6,1.5,1.01,2.21,0.48
				c0.98-0.72,0.25-2.78,0.2-3.71c-0.1-1.92,0.05-3.84,0.19-5.76c0.26-3.84,0.03-7.62-0.19-11.45c-0.01-0.23-0.37-0.23-0.35,0
				c0.17,2.95,0.44,5.91,0.34,8.86c-0.11,3.11-0.57,6.22-0.26,9.33c0.02,0.21,0.05,0.43,0.07,0.64c0.05,0.32,0.09,0.64,0.12,0.96
				c-0.31,0.34-0.62,0.67-0.93,1.01c-1.09,0.32-1.67-1.6-1.78-2.3c-0.26-1.57-0.25-3.2-0.28-4.79c-0.05-3.23,0.08-6.46,0.37-9.67
				C25.98,14.42,25.62,14.42,25.6,14.65L25.6,14.65z"/>
		</g>
	</g>
	<g>
		<g>
			<path d="M22.29,6.29c0.42,0.74,0.68,1.48,0.84,2.31c0.04,0.21,0.33,0.14,0.35-0.05c0.06-0.28,0.06-0.57,0.02-0.86
				c-0.02-0.23-0.34-0.23-0.35,0c-0.02,0.4-0.05,0.8-0.07,1.19c-0.01,0.16-0.02,0.32-0.03,0.48c0.03,0.25-0.07,0.44-0.31,0.58
				c0-0.14-0.15-0.21-0.27-0.15c-0.53,0.24-0.76,0.65-0.81,1.22c-0.09,1.16,0.31,2.4,0.37,3.58c0.13,2.7-0.17,5.4-0.3,8.09
				c-0.06,1.26-0.08,2.51-0.04,3.77c0.02,0.72,0.01,1.38-0.23,2.06c-0.18,0.51-0.48,0.96-0.7,1.46c-0.29,0.67-0.62,1.74-0.5,2.5
				c0.13,0.83,1.02,0.59,1.38,1.27c0.11,0.2,0.41,0.02,0.31-0.18c-0.27-0.51-0.67-0.39-1.05-0.73c-0.95-0.87,0.35-2.92,0.74-3.79
				c0.73-1.61,0.35-3.46,0.4-5.17c0.07-2.23,0.3-4.45,0.37-6.68c0.03-1.11,0.03-2.21-0.06-3.32c-0.07-0.96-0.82-3.26,0.31-3.79
				c-0.09-0.05-0.18-0.1-0.27-0.15c0,0.36,0.28,0.63,0.67,0.45c0.67-0.32,0.41-2.2,0.44-2.7c-0.12,0-0.24,0-0.35,0
				c0.04,0.29,0.04,0.57-0.02,0.86c0.12-0.02,0.23-0.03,0.35-0.05c-0.16-0.87-0.44-1.63-0.88-2.4C22.49,5.91,22.18,6.09,22.29,6.29
				L22.29,6.29z"/>
		</g>
	</g>
	<g>
		<g>
			<path d="M21.78,5.8c1.95,1.14,4.43,1.16,6.62,1.21c2.31,0.05,4.63-0.19,6.72-1.25c-0.08-0.08-0.16-0.16-0.24-0.24
				c-0.14,0.2-0.27,0.4-0.41,0.6c-0.05,0.07-0.02,0.2,0.06,0.24c0.68,0.32,1.4,0.21,1.94-0.32c0.11-0.11,0.03-0.3-0.13-0.3
				c-0.84,0-2.43,0.1-2.86,1c-0.21,0.43-0.07,0.95-0.06,1.41c0.03,0.9-0.16,1.78-0.35,2.65c-0.05,0.22,0.29,0.32,0.34,0.09
				c0.14-0.55,0.28-1.09,0.41-1.64c-0.12-0.02-0.23-0.03-0.35-0.05c0,0.43,0,0.87,0,1.3c0,0.18,0.03,0.4,0,0.58
				c0.02,0.16-0.02,0.3-0.14,0.42c-0.02,0.22-0.12,0.32-0.3,0.3c-0.28,0.17-0.5,0.15-0.53,0.54c-0.02,0.23,0.34,0.23,0.35,0
				c0.02-0.22,0.54-0.21,0.69-0.31c0.17-0.1,0.21-0.18,0.26-0.36c0.19-0.73,0.02-1.72,0.01-2.47c0-0.2-0.3-0.24-0.35-0.05
				c-0.14,0.55-0.28,1.09-0.41,1.64c0.11,0.03,0.23,0.06,0.34,0.09c0.22-1,0.41-1.99,0.35-3.01c-0.01-0.2-0.09-0.45-0.04-0.64
				c0.14-0.51,0.54-0.75,1.01-0.9c0.52-0.17,1.06-0.23,1.61-0.23C36.3,6,36.26,5.9,36.22,5.8c-0.42,0.41-0.98,0.51-1.51,0.26
				c0.02,0.08,0.04,0.16,0.06,0.24c0.14-0.2,0.27-0.4,0.41-0.6c0.11-0.16-0.1-0.32-0.24-0.24c-2.03,1.03-4.3,1.25-6.54,1.2
				c-2.13-0.05-4.55-0.06-6.44-1.16C21.76,5.38,21.58,5.69,21.78,5.8L21.78,5.8z"/>
		</g>
	</g>
	<g>
		<g>
			<path d="M21.82,28.91c0.12,2.19-2.66,0.68-3.1,2.24c-0.13,0.44,0.01,0.99,0.08,1.44c0.1,0.69,0.16,1.53,0.49,2.15
				c0.03,0.06,0.09,0.09,0.15,0.09c0.86,0.02,1.65-0.2,2.52-0.09c0.89,0.12,1.74,0.38,2.58,0.69c0.74,0.27,1.46,0.59,2.19,0.87
				c0.51,0.19,1.17,0.53,1.73,0.52c0.6-0.02,1.31-0.45,1.85-0.65c0.78-0.29,1.58-0.57,2.37-0.83c1.71-0.56,3.44-1.03,5.19-1.44
				c0.1-0.02,0.14-0.13,0.12-0.22c-0.13-0.75-0.26-1.5-0.39-2.26c-0.06-0.38-0.02-1.13-0.3-1.42c-0.26-0.27-0.88-0.26-1.23-0.33
				c-0.8-0.18-1.6-0.37-2.41-0.55c-0.14-0.03-0.24,0.08-0.22,0.22c0.07,0.44,0.28,0.66,0.68,0.82c0.21,0.09,0.3-0.26,0.09-0.34
				c-0.15-0.19-0.29-0.38-0.44-0.58c-0.07,0.07-0.15,0.15-0.22,0.22c0.74,0.17,1.49,0.34,2.23,0.51c0.31,0.07,1.03,0.11,1.25,0.33
				c0.15,0.15,0.15,0.85,0.18,1.04c0.06,0.35,0.12,0.69,0.18,1.04c0.03,0.17,0.24,0.89,0.18,1.04c-0.16,0.42-1.51,0.54-1.91,0.65
				c-1.5,0.4-2.99,0.86-4.46,1.38c-0.68,0.24-1.35,0.5-2.02,0.76c-0.83,0.32-1.4,0.12-2.23-0.19c-1.31-0.49-2.59-1.1-3.96-1.44
				c-0.56-0.14-1.14-0.24-1.71-0.26c-0.64-0.03-1.59,0.3-1.91-0.37c-0.22-0.46-0.45-1.84-0.37-2.29c0.17-1.04,0.9-0.85,1.66-1.02
				c0.86-0.2,1.53-0.79,1.48-1.72C22.16,28.68,21.81,28.68,21.82,28.91L21.82,28.91z"/>
		</g>
	</g>
	<g>
		<g>
			<path d="M22.65,47.8c0.15,1.09,0.38,2.21,0.95,3.17c0.6,1.01,1.56,1.62,2.7,1.84c1.25,0.24,2.65,0.24,3.87-0.12
				c0.99-0.29,2.3-1,1.92-2.24c-0.03-0.11-0.16-0.16-0.26-0.11c-1.56,0.87-3.47,1.86-5.22,0.9c-0.2-0.11-0.38,0.19-0.18,0.31
				c0.53,0.3,3.15,1.49,3.17,0.14c0-0.08-0.06-0.15-0.13-0.17c-0.59-0.16-1.17-0.02-1.63,0.39c-0.09,0.09-0.05,0.21,0.04,0.28
				c0.21,0.16,0.45,0.19,0.7,0.11c0.46-0.14,0.93-0.13,1.41-0.15c0.23-0.01,0.23-0.37,0-0.35c-0.36,0.02-0.71,0.03-1.07,0.05
				c-0.27,0.01-0.66,0.2-0.87,0.04c0.01,0.09,0.02,0.19,0.04,0.28c0.36-0.33,0.81-0.43,1.28-0.3c-0.04-0.06-0.09-0.11-0.13-0.17
				c-0.01,0.76-2.38-0.3-2.63-0.44c-0.06,0.1-0.12,0.2-0.18,0.31c1.87,1.04,3.89,0.04,5.57-0.9c-0.09-0.04-0.17-0.07-0.26-0.11
				c0.42,1.37-1.69,1.89-2.65,2c-1.07,0.13-2.27,0.1-3.3-0.23c-1.99-0.64-2.56-2.76-2.81-4.61C22.96,47.48,22.62,47.58,22.65,47.8
				L22.65,47.8z"/>
		</g>
	</g>
	<g>
		<g>
			<path d="M31.8,49.9c0.7,0.27,1.34,0.64,1.9,1.14c0.37,0.33,0.68,0.72,0.23,1.16c-0.27,0.26-0.62,0.42-0.97,0.53
				c-1.36,0.47-2.86,0.7-4.3,0.77c-1.44,0.07-2.89-0.06-4.27-0.46c-0.33-0.1-0.66-0.21-0.98-0.34c-0.29-0.04-0.44-0.21-0.44-0.51
				c-0.18-0.2-0.19-0.37-0.04-0.53c0.08-0.16,0.26-0.32,0.39-0.44c0.25-0.25,0.53-0.46,0.84-0.63c0.17-0.1,0.35-0.19,0.54-0.26
				c0.06-0.02,0.11-0.04,0.17-0.06c0.16,0.01,0.23-0.07,0.2-0.23c-0.15,0.17,0.1,0.42,0.25,0.25c0.24-0.27,0-0.47-0.28-0.44
				c-0.65,0.08-1.36,0.57-1.83,1c-0.41,0.36-1.01,0.98-0.75,1.59c0.24,0.57,1.24,0.77,1.75,0.93c1.71,0.52,3.53,0.62,5.3,0.44
				c0.89-0.09,1.77-0.24,2.63-0.46c0.66-0.16,1.39-0.33,1.93-0.77c0.23-0.18,0.47-0.45,0.53-0.75c0.07-0.35-0.19-0.59-0.42-0.82
				c-0.65-0.64-1.42-1.11-2.27-1.43C31.68,49.48,31.59,49.82,31.8,49.9L31.8,49.9z"/>
		</g>
	</g>
	<g>
		<g>
			<path d="M21.59,33.74c-0.27,2.98-0.24,5.98,0.3,8.93c0.46,2.54,1.26,5.25,3.32,6.95c1.69,1.39,4.19,1.82,6.03,0.44
				c1.98-1.48,2.91-4.21,3.5-6.51c0.83-3.2,1.51-6.6,1.65-9.91c0.01-0.14-0.15-0.22-0.27-0.15c-0.33,0.19-0.49,0.44-0.55,0.82
				c-0.06,0.38,0.05,0.77,0.06,1.15c0,0.38-0.05,0.76-0.12,1.14c-0.29,1.58-0.69,3.12-0.91,4.71c-0.38,2.67,0.21,6.91-2.79,8.25
				c-0.21,0.09-0.03,0.4,0.18,0.31c2.46-1.1,2.56-4.02,2.73-6.34c0.12-1.64,0.38-3.27,0.72-4.89c0.16-0.75,0.36-1.49,0.47-2.24
				c0.09-0.62-0.23-2.24,0.4-2.6c-0.09-0.05-0.18-0.1-0.27-0.15c-0.14,3.36-0.83,6.84-1.71,10.09c-0.75,2.76-2.24,6.81-5.68,6.82
				c-3.52,0.02-5.38-3.52-6.1-6.47c-0.83-3.38-0.92-6.9-0.6-10.35C21.96,33.51,21.61,33.52,21.59,33.74L21.59,33.74z"/>
		</g>
	</g>
	<g>
		<g>
			<path d="M20.22,33.98c-0.15,3.87,0.07,7.75,0.7,11.58c0.32,1.94,0.6,4.09,1.34,5.92c0.5,1.25,1.58,1.72,2.85,1.92
				c2.87,0.45,6.36,0.57,8.83-1.22c1.22-0.88,1.36-2.23,1.46-3.64c0.07-0.94,0.02-1.89,0.1-2.83c0.09-1.18,0.43-2.31,0.7-3.45
				c0.47-2,0.78-4.03,0.95-6.08c0.08-1,0.28-2.17,0.13-3.17c-0.06-0.41-0.17-0.65-0.55-0.81c-0.21-0.09-0.3,0.26-0.09,0.34
				c0.66,0.27,0.25,2.49,0.21,3.05c-0.08,1.16-0.21,2.32-0.39,3.48c-0.3,1.96-0.92,3.87-1.22,5.83c-0.28,1.85,0.08,3.82-0.48,5.64
				c-0.65,2.09-3.71,2.66-5.59,2.75c-1.66,0.08-4.03,0.15-5.52-0.69c-1.04-0.58-1.24-1.78-1.49-2.83c-0.25-1.03-0.48-2.07-0.67-3.12
				c-0.77-4.18-1.06-8.42-0.89-12.67C20.58,33.76,20.23,33.76,20.22,33.98L20.22,33.98z"/>
		</g>
	</g>
	<g>
		<g>
			<path d="M21.09,29.87c-0.48,0.39-1.18,0.29-1.64,0.7c-0.35,0.32-0.43,0.84-0.4,1.29c0.02,0.3,0.14,0.58,0.2,0.87
				c0.07,0.31-0.01,0.82,0.13,1.08c0.17,0.31,0.38,0.33,0.7,0.4c0.92,0.2,1.86,0.26,2.78,0.48c0.83,0.2,1.65,0.45,2.46,0.72
				c1.55,0.51,2.9,0.89,4.55,0.64c1.81-0.28,3.53-0.9,5.27-1.43c0.61-0.18,2.34-0.41,2.49-1.26c0.04-0.22-0.14-0.74-0.16-0.93
				c-0.03-0.3-0.02-0.6-0.07-0.89c-0.07-0.47-0.19-0.99-0.57-1.31c-0.47-0.4-1.23-0.48-1.8-0.63c-0.32-0.08-0.91-0.41-1.22-0.18
				c-0.11,0.08-0.12,0.23,0,0.31c0.02,0.01,0.03,0.02,0.05,0.03c0.08,0.05,0.2,0.02,0.24-0.06c0.01-0.01,0.01-0.02,0.02-0.03
				c0.1-0.2-0.2-0.38-0.31-0.18c0.06-0.02,0.12-0.04,0.18-0.06c0,0.1,0,0.2,0,0.31c0.2-0.15,1.45,0.35,1.7,0.42
				c0.92,0.25,1.3,0.78,1.39,1.73c0.04,0.37,0.19,1.03,0.1,1.39c-0.14,0.52-0.89,0.66-1.38,0.8c-2.35,0.69-4.84,1.8-7.33,1.74
				c-1.28-0.03-2.5-0.57-3.7-0.95c-1.09-0.34-2.2-0.64-3.33-0.82c-0.35-0.06-1.26-0.02-1.53-0.21c-0.26-0.19-0.29-1.03-0.36-1.32
				c-0.23-0.87-0.08-1.67,0.9-1.96c0.35-0.1,0.61-0.19,0.89-0.42C21.52,29.98,21.27,29.73,21.09,29.87L21.09,29.87z"/>
		</g>
	</g>
	<g>
		<g>
			<path d="M20.64,30.74c-0.09,0.53-0.5,1.47-0.07,1.92c0.51,0.54,1.67,0.84,2.36,1.06c1.85,0.61,3.8,0.82,5.74,0.93
				c0.94,0.05,1.91,0.14,2.85,0.05c1.05-0.1,2.08-0.47,3.09-0.78c0.63-0.2,1.3-0.38,1.55-1.06c0.22-0.6,0.08-1.39-0.16-1.96
				c-0.09-0.21-0.39-0.03-0.31,0.18c0.16,0.37,0.24,0.86,0.21,1.27c-0.06,0.71-0.52,0.94-1.11,1.14c-0.72,0.25-1.47,0.46-2.2,0.65
				c-1.45,0.37-2.97,0.23-4.45,0.13c-1.47-0.1-2.94-0.28-4.37-0.66c-0.74-0.2-1.46-0.45-2.15-0.78c-0.49-0.23-0.81-0.27-0.82-0.93
				c-0.01-0.34,0.13-0.73,0.19-1.07C21.02,30.62,20.68,30.52,20.64,30.74L20.64,30.74z"/>
		</g>
	</g>
	<g>
		<g>
			<path d="M21.94,29.55c-0.66,0.38-1.23,1.01-1.11,1.83c0.1,0.75,0.76,1.1,1.4,1.33c2.24,0.78,4.69,1.36,7.06,1.36
				c2.03,0.01,4.3-0.42,5.96-1.66c0.51-0.38,0.99-1,0.66-1.66c-0.37-0.74-1.63-1.01-2.32-1.27c-0.19-0.07-0.3,0.22-0.14,0.32
				c0.08,0.05,0.17,0.11,0.25,0.16c0.19,0.12,0.37-0.18,0.18-0.31c-0.08-0.05-0.17-0.11-0.25-0.16c-0.05,0.11-0.09,0.22-0.14,0.32
				c0.34,0.12,0.68,0.25,1.01,0.38c0.17,0.07,0.5,0.17,0.67,0.31c0.17,0.08,0.27,0.23,0.28,0.46c0.24,0.22,0.26,0.43,0.05,0.63
				c-0.34,0.7-1.44,1.13-2.12,1.39c-1.38,0.54-2.88,0.75-4.35,0.72c-1.62-0.03-3.21-0.35-4.77-0.77c-0.71-0.19-1.46-0.37-2.15-0.65
				c-1.3-0.51-1.1-1.81-0.01-2.44C22.31,29.75,22.13,29.44,21.94,29.55L21.94,29.55z"/>
		</g>
	</g>
	<g>
		<g>
			<path d="M22.45,30.23c-0.47,0.12-0.65,0.64-0.45,1.07c0.27,0.58,1.1,0.77,1.65,0.97c1.84,0.68,3.8,1.19,5.78,1.1
				c1.63-0.08,3.28-0.56,4.56-1.59c0.36-0.29,0.89-0.78,0.65-1.31c-0.17-0.38-0.66-0.51-0.96-0.22c-0.16,0.16,0.09,0.41,0.25,0.25
				c0.38,0.3,0.41,0.56,0.09,0.78c-0.13,0.12-0.26,0.23-0.4,0.33c-0.16,0.12-0.32,0.23-0.49,0.33c-0.44,0.27-0.91,0.48-1.39,0.64
				c-0.97,0.32-1.99,0.45-3,0.43c-1.13-0.03-2.25-0.24-3.34-0.55c-0.52-0.15-1.03-0.32-1.54-0.5c-0.25-0.09-0.51-0.18-0.76-0.29
				c-0.16-0.06-0.31-0.13-0.45-0.22c-0.44-0.25-0.47-0.55-0.09-0.9C22.77,30.51,22.67,30.17,22.45,30.23L22.45,30.23z"/>
		</g>
	</g>
	<g>
		<g>
			<path d="M22,10.89c0.22,3.91,0.44,7.82,0.26,11.74c-0.08,1.86-0.14,3.73-0.07,5.59c0.03,0.71-0.07,1.69,0.16,2.36
				c0.2,0.57,0.63,0.76,1.15,1.04c2.62,1.39,6.71,1.29,9.38,0.03c1-0.47,1.38-0.98,1.46-2.05c0.13-1.66,0.1-3.36,0.13-5.02
				c0.09-4.59,0.15-9.17,0.45-13.75c-0.09,0.05-0.18,0.1-0.27,0.15c0.1,0.08,0.21,0.16,0.31,0.24c0.18,0.14,0.36-0.17,0.18-0.31
				c-0.1-0.08-0.21-0.16-0.31-0.24c-0.12-0.09-0.26,0.03-0.27,0.15c-0.29,4.38-0.36,8.77-0.44,13.16c-0.04,1.86,0.02,3.76-0.14,5.62
				c-0.11,1.3-1.03,1.72-2.21,2.07c-1.07,0.32-2.19,0.47-3.3,0.5c-1.93,0.05-5.43,0.03-5.85-2.35c-0.34-1.97-0.14-4.18-0.06-6.16
				c0.17-4.27,0.02-8.5-0.22-12.76C22.35,10.67,21.99,10.67,22,10.89L22,10.89z"/>
		</g>
	</g>
	<g>
		<g>
			<path d="M23.17,10.12c-0.46-0.16-0.94,0.14-1,0.63c-0.07,0.61,0.52,1.04,1.04,1.18c0.89,0.24,1.88,0.25,2.8,0.35
				c0.99,0.11,1.97,0.24,2.96,0.31c1.71,0.12,3.51,0.07,5.08-0.7c0.45-0.22,0.97-0.57,0.81-1.15c-0.19-0.7-1.01-0.77-1.61-0.76
				c-0.23,0-0.23,0.36,0,0.35c0.37,0,1.04-0.05,1.22,0.39c0.19,0.47-0.2,0.65-0.5,0.81c-0.5,0.26-1.05,0.44-1.6,0.55
				c-1.01,0.21-2.05,0.23-3.07,0.17c-1.02-0.06-2.03-0.19-3.04-0.3c-0.55-0.06-1.1-0.13-1.65-0.19c-0.36-0.04-0.73-0.06-1.08-0.13
				c-0.19-0.03-0.38-0.09-0.56-0.18c-0.5-0.26-0.46-0.59,0.12-0.99C23.29,10.53,23.39,10.19,23.17,10.12L23.17,10.12z"/>
		</g>
	</g>
	<g>
		<g>
			<path d="M23.01,10.86c0.47,0.61,1.38,0.65,2.09,0.79c1.06,0.21,2.14,0.38,3.22,0.44c1.93,0.11,3.88-0.17,5.59-1.11
				c0.13-0.07,0.11-0.3-0.04-0.32c-0.12-0.02-0.25-0.04-0.37-0.06c-0.22-0.04-0.32,0.3-0.09,0.34c0.12,0.02,0.25,0.04,0.37,0.06
				c-0.01-0.11-0.03-0.22-0.04-0.32c-1.53,0.84-3.27,1.13-5,1.08c-0.95-0.03-1.89-0.15-2.83-0.31c-0.44-0.08-0.88-0.16-1.32-0.25
				c-0.42-0.09-0.98-0.13-1.26-0.5C23.18,10.5,22.87,10.68,23.01,10.86L23.01,10.86z"/>
		</g>
	</g>
	<g>
		<g>
			<path d="M33.4,6.07c-0.14,0.78-0.13,1.56-0.1,2.35c0.02,0.4,0.04,0.8,0.06,1.21c0,0.19,0.01,0.37,0,0.56
				c0,0.13,0.04,0.57-0.05,0.65c0.04-0.02,0.08-0.03,0.13-0.05c-0.01,0-0.03,0-0.04,0c0.03,0.11,0.06,0.22,0.09,0.33
				c0.14-0.06,0.28-0.13,0.42-0.19c0.21-0.1,0.03-0.4-0.18-0.31c-0.14,0.06-0.28,0.13-0.42,0.19c-0.17,0.08-0.07,0.32,0.09,0.33
				c0.36,0.02,0.31-0.53,0.32-0.77c0.02-0.46,0-0.93-0.02-1.39c-0.05-0.94-0.12-1.88,0.06-2.81C33.78,5.95,33.44,5.85,33.4,6.07
				L33.4,6.07z"/>
		</g>
	</g>
	<g>
		<g>
			<path d="M23.1,6.12c0.08,1.59,0.09,3.18,0.02,4.78c-0.01,0.23,0.34,0.23,0.35,0c0.07-1.59,0.06-3.19-0.02-4.78
				C23.45,5.9,23.09,5.89,23.1,6.12L23.1,6.12z"/>
		</g>
	</g>
	<g>
		<g>
			<path d="M24.43,3.2C23.62,3.46,22.81,3.72,22,3.98c-0.54,0.17-1.23,0.29-1.62,0.73c-0.59,0.65-0.18,1.34,0.55,1.58
				c1.5,0.48,3.22,0.6,4.78,0.76c1.7,0.17,3.41,0.24,5.12,0.2c1.42-0.03,2.93-0.04,4.29-0.48c0.62-0.2,2.12-0.76,2-1.63
				C37,4.15,35.04,3.7,34.27,3.48c-1.38-0.39-2.82-0.53-4.25-0.6c-3.09-0.15-6.9-0.5-9.28,1.9c0.09,0.07,0.19,0.14,0.28,0.21
				c0.17-0.38,0.02-0.77-0.41-0.84c-0.22-0.03-0.32,0.31-0.09,0.34c0.07,0.1,0.14,0.21,0.2,0.31C20.63,5,20.84,5.19,20.99,5.04
				c2.24-2.27,5.82-1.93,8.74-1.81c1.4,0.06,2.81,0.18,4.17,0.52c0.78,0.2,1.62,0.45,2.32,0.87c1.17,0.71-0.39,1.52-1.07,1.76
				c-1.36,0.48-2.89,0.48-4.31,0.51c-1.5,0.03-2.99-0.02-4.48-0.14c-1.66-0.14-3.4-0.31-5.02-0.72c-0.19-0.04-0.37-0.09-0.55-0.17
				c-0.27-0.65-0.17-1.05,0.29-1.18c0.3-0.18,0.7-0.25,1.03-0.36c0.81-0.26,1.62-0.52,2.43-0.78C24.74,3.47,24.65,3.13,24.43,3.2
				L24.43,3.2z"/>
		</g>
	</g>
	<g>
		<g>
			<path d="M32.28,4.2c-1.9-0.51-3.87-0.69-5.83-0.52c-0.89,0.08-1.88,0.17-2.73,0.47c-0.53,0.19-0.56,0.59-0.13,0.95
				c0.51,0.43,1.21,0.56,1.86,0.61c0.98,0.09,1.97,0.09,2.94,0.1c1.01,0.01,2.03-0.01,3.04-0.06c0.87-0.05,1.72-0.18,2.5-0.6
				c0.13-0.07,0.1-0.23,0-0.31c-0.72-0.54-1.59-0.71-2.47-0.78c-1.14-0.08-2.29-0.07-3.43,0c-0.23,0.01-0.23,0.37,0,0.35
				c1.03-0.06,2.06-0.07,3.1-0.02c0.93,0.05,1.86,0.17,2.62,0.75c0-0.1,0-0.2,0-0.31c-1.39,0.76-3.21,0.6-4.74,0.61
				c-0.79,0-1.58-0.01-2.37-0.04c-0.71-0.03-1.46-0.01-2.14-0.24c-0.23-0.07-1.02-0.35-0.69-0.69c0.09-0.09,0.43-0.11,0.57-0.14
				c0.19-0.04,0.38-0.08,0.57-0.12c0.81-0.15,1.64-0.24,2.47-0.26c1.61-0.05,3.21,0.15,4.77,0.56C32.4,4.6,32.5,4.26,32.28,4.2
				L32.28,4.2z"/>
		</g>
	</g>
</g>
</svg>
