<?xml version="1.0" encoding="utf-8"?>
<!-- Generator: Adobe Illustrator 26.2.1, SVG Export Plug-In . SVG Version: 6.00 Build 0)  -->
<svg version="1.1" id="Layer_1" xmlns="http://www.w3.org/2000/svg" xmlns:xlink="http://www.w3.org/1999/xlink" x="0px" y="0px"
	 viewBox="0 0 56.69 56.69" style="enable-background:new 0 0 56.69 56.69;" xml:space="preserve">
<g>
	<g>
		<g>
			<path d="M35.1,2.44c-3.23,0.05-6.45,0.29-9.65,0.72c-1.54,0.21-3.07,0.46-4.59,0.75c-0.98,0.19-1.98,0.34-2.6,1.2
				c-0.06,0.08-0.01,0.2,0.06,0.24c1.36,0.76,3.23,0.84,4.75,1.09c1.79,0.3,3.59,0.56,5.39,0.69c1.82,0.13,3.66,0.14,5.48-0.06
				c0.79-0.09,1.58-0.22,2.36-0.4c0.47-0.11,0.94-0.23,1.4-0.38c0.15-0.05,1.28-0.6,1.25-0.14c-0.02,0.23,0.34,0.23,0.35,0
				c0.03-0.35,0.03-0.29-0.12-0.61c-0.03-0.06-0.13-0.11-0.2-0.08c-5.72,2.26-11.95,1.38-17.83,0.28c-0.51-0.1-1.43-0.09-1.86-0.37
				c-0.37-0.01-0.44-0.2-0.22-0.58c0.15-0.07,0.31-0.14,0.46-0.21c0.27-0.1,0.55-0.15,0.82-0.21c1.57-0.34,3.17-0.59,4.76-0.81
				c3.31-0.46,6.64-0.71,9.98-0.76C35.33,2.79,35.33,2.44,35.1,2.44L35.1,2.44z"/>
		</g>
	</g>
	<g>
		<g>
			<g>
				<path d="M41.14,4.32c-4.57-1.25-9.28-1.75-14-1.83c-3.24-0.05-8.19-0.53-9.69,3.16c-0.04,0.09,0.04,0.19,0.12,0.22
					c1.17,0.37,2.34,0.73,3.51,1.1c0.22,0.07,0.31-0.27,0.09-0.34c-0.59-0.18-1.17-0.37-1.76-0.55c-0.48-0.15-1.51-0.18-1.38-0.87
					c0.16-0.85,1.71-1.61,2.4-1.86c2.12-0.77,4.71-0.54,6.92-0.5c4.62,0.09,9.22,0.59,13.68,1.81C41.27,4.72,41.36,4.38,41.14,4.32
					L41.14,4.32z"/>
			</g>
		</g>
		<g>
			<g>
				<path d="M19.16,11.34c0.05,2.35,0.13,4.69,0.24,7.04c0.06,1.17,0.13,2.34,0.2,3.51c0.06,0.89,0.07,1.81,0.32,2.67
					c0.52,1.78,2.02,2,3.63,2.32c2.11,0.42,4.21,0.92,6.38,0.81c0.23-0.01,0.23-0.37,0-0.35c-2.03,0.1-4.01-0.33-5.99-0.74
					c-0.84-0.17-1.89-0.22-2.63-0.68c-0.91-0.56-1.15-1.6-1.25-2.6c-0.4-3.97-0.47-8-0.55-11.99
					C19.51,11.11,19.16,11.11,19.16,11.34L19.16,11.34z"/>
			</g>
		</g>
		<g>
			<g>
				<g>
					<path d="M23.92,49.1c-0.42,0.56-0.7,1.16-0.87,1.84c-0.03,0.12,0.06,0.22,0.17,0.22c0.98,0.06,1.84-0.37,2.39-1.19
						c0.11-0.16-0.1-0.31-0.24-0.24c-0.44,0.21-2.06,1.5-1.28,2.08c0.31,0.23,0.81-0.12,1.04-0.31c0.42-0.35,0.66-0.81,0.75-1.34
						c0.03-0.17-0.16-0.3-0.3-0.17c-0.4,0.36-1.87,1.95-0.98,2.43c0.93,0.5,1.7-0.95,1.9-1.61c0.04-0.14-0.13-0.28-0.26-0.2
						c-0.65,0.42-1.38,1.41-0.79,2.17c0.65,0.82,2.23,0.63,3.1,0.45c-0.03-0.11-0.06-0.23-0.09-0.34c-2.01,0.65-4.21,0.15-5.72-1.33
						c-0.04,0.1-0.08,0.2-0.13,0.3c0.32,0,0.6,0.06,0.9,0.17c0.13,0.05,0.26-0.1,0.22-0.22c-0.76-2.31-1.08-4.71-0.94-7.14
						c-0.12,0-0.24,0-0.35,0c0.2,1.69,0.31,3.4,0.31,5.1c0,1.35,0.22,2.34,1.49,3.03c1.28,0.69,2.8,0.86,4.22,0.96
						c1.82,0.13,3.64,0.16,5.47,0.13c-0.02-0.12-0.03-0.23-0.05-0.35c-1.5,0.44-3,0.44-4.5-0.01c-0.02,0.12-0.03,0.23-0.05,0.35
						c2.65,0.33,5.3,0,7.79-0.96c0.11-0.04,0.17-0.15,0.11-0.26c-0.03-0.05-0.06-0.11-0.09-0.16c-0.04,0.09-0.07,0.17-0.11,0.26
						c0.29-0.09,0.48-0.2,0.71-0.4c0.17-0.15-0.08-0.4-0.25-0.25c-0.19,0.1-0.37,0.2-0.56,0.31c-0.11,0.03-0.16,0.16-0.11,0.26
						c0.03,0.05,0.06,0.11,0.09,0.16c0.04-0.09,0.07-0.17,0.11-0.26c-2.46,0.95-5.08,1.27-7.69,0.95c-0.2-0.03-0.23,0.29-0.05,0.35
						c1.55,0.46,3.14,0.46,4.69,0.01c0.19-0.06,0.16-0.35-0.05-0.35c-1.49,0.03-2.98,0.01-4.46-0.07c-1.52-0.08-3.1-0.16-4.53-0.73
						c-0.71-0.29-1.45-0.72-1.72-1.48c-0.24-0.66-0.11-1.5-0.12-2.19c-0.02-1.47-0.13-2.93-0.31-4.39c-0.03-0.22-0.34-0.23-0.35,0
						c-0.14,2.46,0.18,4.9,0.95,7.24c0.07-0.07,0.15-0.15,0.22-0.22c-0.34-0.13-0.63-0.18-0.99-0.19c-0.15,0-0.23,0.2-0.13,0.3
						c1.6,1.56,3.94,2.11,6.07,1.42c0.22-0.07,0.13-0.39-0.09-0.34c-0.63,0.13-1.3,0.18-1.94,0.04c-1.21-0.26-0.91-1.5-0.11-2.01
						c-0.09-0.07-0.17-0.13-0.26-0.2c-0.11,0.36-0.24,0.72-0.5,1c-0.19,0.21-0.8,0.73-0.93,0.12c-0.03-0.13,0.3-0.63,0.39-0.77
						c0.2-0.31,0.45-0.57,0.72-0.82c-0.1-0.06-0.2-0.11-0.3-0.17c-0.07,0.37-0.64,1.68-1.04,1.21c-0.36-0.42,0.73-1.09,1.05-1.24
						c-0.08-0.08-0.16-0.16-0.24-0.24c-0.48,0.72-1.22,1.07-2.08,1.01c0.06,0.07,0.11,0.15,0.17,0.22c0.17-0.65,0.44-1.21,0.84-1.75
						C24.36,49.1,24.06,48.92,23.92,49.1L23.92,49.1z"/>
				</g>
			</g>
			<g>
				<g>
					<path d="M33.89,51.24c-2-0.06-3.99-0.08-5.99-0.08c-0.58,0-1.43-0.08-1.86,0.4c-0.39,0.43,0.07,0.78,0.45,0.94
						c0.8,0.34,1.7,0.39,2.56,0.47c0.88,0.08,1.77,0.15,2.65,0.13c0.89-0.01,1.79-0.11,2.66-0.34c0.61-0.16,1.23-0.4,1.55-0.98
						c0.05-0.08,0.02-0.2-0.06-0.24c-1.25-0.68-2.78-0.2-4.13-0.18c-1.62,0.02-3.28-0.27-4.89-0.08c-0.37,0.04-1.12,0.13-1.31,0.51
						c-0.21,0.43,0.34,0.63,0.65,0.71c0.78,0.2,1.62,0.22,2.42,0.35c0.76,0.12,1.52,0.27,2.29,0.36c1.56,0.18,3.21,0.08,4.54-0.83
						c0.19-0.13,0.01-0.43-0.18-0.31c-1.32,0.89-2.93,0.96-4.46,0.77c-0.86-0.11-1.71-0.28-2.57-0.41
						c-0.36-0.05-0.72-0.09-1.08-0.13c-0.26-0.03-0.53-0.06-0.78-0.12c-0.15-0.04-0.6-0.06-0.4-0.31c0.18-0.23,0.98-0.26,1.22-0.27
						c0.42-0.03,0.84-0.01,1.26,0.01c0.84,0.03,1.68,0.08,2.52,0.1c0.81,0.02,1.62-0.03,2.43-0.11c0.78-0.08,1.58-0.15,2.3,0.25
						c-0.02-0.08-0.04-0.16-0.06-0.24c-0.34,0.6-1.08,0.77-1.71,0.91c-0.72,0.16-1.46,0.22-2.2,0.24c-1.37,0.02-2.82-0.06-4.16-0.31
						c-0.19-0.03-0.99-0.15-1.07-0.33c0.01-0.14,0.01-0.28,0.02-0.42c0.12-0.06,0.26-0.1,0.39-0.12c0.15-0.03,0.31-0.04,0.47-0.04
						c0.72-0.02,1.44-0.01,2.16,0c1.46,0.01,2.93,0.03,4.39,0.07C34.12,51.6,34.12,51.25,33.89,51.24L33.89,51.24z"/>
				</g>
			</g>
			<g>
				<g>
					<path d="M18.84,5.83c-0.03,1.3,0.03,2.6,0.18,3.89c0.01,0.11,0.1,0.2,0.22,0.17c0.92-0.25,1.6-1.06,1.7-2.01
						c0.03-0.23-0.33-0.22-0.35,0c-0.09,0.79-0.69,1.46-1.44,1.67c0.07,0.06,0.15,0.11,0.22,0.17c-0.15-1.29-0.21-2.59-0.18-3.89
						C19.2,5.6,18.84,5.6,18.84,5.83L18.84,5.83z"/>
				</g>
			</g>
			<g>
				<g>
					<path d="M18.66,4.44c-0.84,0.31-1.9,1.19-0.83,1.99c0.52,0.39,1.22,0.37,1.83,0.35c0.94-0.02,1.89-0.07,2.82-0.19
						c1.77-0.23,3.35-1.01,5.16-0.91c1.77,0.1,3.51,0.57,5.28,0.2c0.18-0.04,0.16-0.3,0-0.34c-1.53-0.45-3.18,0.1-4.66,0.49
						c-1.78,0.46-3.53,1.03-5.25,1.68c-0.21,0.08-0.12,0.42,0.09,0.34c1.54-0.58,3.1-1.1,4.69-1.53c1.57-0.43,3.42-1.11,5.03-0.64
						c0-0.11,0-0.23,0-0.34c-2.5,0.51-5-0.65-7.49-0.02c-1.35,0.34-2.58,0.72-3.99,0.82c-0.65,0.05-1.3,0.08-1.95,0.09
						c-0.3,0-0.68,0.03-0.96-0.09c-1.59-0.72-0.19-1.38,0.31-1.56C18.96,4.7,18.87,4.36,18.66,4.44L18.66,4.44z"/>
				</g>
			</g>
			<g>
				<g>
					<path d="M15.35,20.71c-1.64-1.16-1-3.49-0.91-5.17c0.05-0.9,0.03-1.79-0.06-2.69c-0.09-0.96-0.36-1.93-0.13-2.89
						c0.01-0.06,0-0.13-0.05-0.17c-0.15-0.13-0.18-0.14-0.38-0.11c-0.21,0.03-0.14,0.33,0.05,0.35c0.28,0.02,0.72,0.05,0.7,0.47
						c-0.01,0.23,0.34,0.23,0.35,0c0.03-0.62-0.54-0.79-1.06-0.82c0.02,0.12,0.03,0.23,0.05,0.35c-0.38,0.06,0.08,2.57,0.11,2.83
						c0.11,1.1,0.11,2.21,0.02,3.31c-0.15,1.69-0.46,3.72,1.13,4.85C15.36,21.15,15.54,20.84,15.35,20.71L15.35,20.71z"/>
				</g>
			</g>
			<g>
				<g>
					<path d="M33.68,34.54c-1.69-0.11-3.38-0.16-5.07-0.15c-0.64,0-1.43-0.1-2.04,0.12c-0.28,0.1-0.73,0.5-0.32,0.76
						c0.23,0.14,0.66,0.12,0.93,0.16c0.39,0.06,0.78,0.11,1.18,0.16c0.81,0.1,1.62,0.18,2.44,0.2c0.79,0.02,1.59-0.02,2.38-0.13
						c0.5-0.07,1.36-0.11,1.66-0.61c0.21-0.35-0.03-0.93-0.5-0.78c-0.37,0.12-0.31,0.66,0.05,0.73c0.1,0.02,0.18-0.03,0.22-0.12
						c0.05-0.13,0.1-0.25,0.15-0.38c-0.12-0.02-0.23-0.03-0.35-0.05c-0.06,0.84,0.01,1.88,0.98,2.15c0.22,0.06,0.31-0.28,0.09-0.34
						c-0.79-0.22-0.76-1.15-0.72-1.8c0.01-0.21-0.28-0.22-0.35-0.05c-0.05,0.13-0.1,0.25-0.15,0.38c0.07-0.04,0.15-0.08,0.22-0.12
						c0.02,0.23-0.05,0.37-0.23,0.4c-0.07,0.03-0.15,0.06-0.23,0.07c-0.14,0.04-0.28,0.06-0.42,0.09c-0.35,0.07-0.71,0.12-1.07,0.15
						c-0.6,0.06-1.21,0.07-1.82,0.05c-1.3-0.04-2.58-0.22-3.86-0.41c-0.06-0.01-0.11-0.02-0.17-0.03c-0.19,0.01-0.22-0.01-0.11-0.07
						c0.07-0.12,0.34-0.13,0.46-0.15c0.29-0.03,0.59-0.02,0.88-0.03c0.62-0.01,1.25-0.01,1.87-0.01c1.3,0.01,2.61,0.06,3.91,0.15
						C33.91,34.91,33.91,34.55,33.68,34.54L33.68,34.54z"/>
				</g>
			</g>
			<g>
				<g>
					<path d="M39.69,47.15c-0.67,0.97-1.49,1.86-2.46,2.54c-0.99,0.71-2.49,0.45-3.66,0.44c-2.51-0.02-5.12,0.08-7.6-0.29
						c0.01,0.11,0.03,0.22,0.04,0.32c0.16-0.01,0.33-0.02,0.49-0.03c0.2,0.1,0.38-0.21,0.18-0.31c-0.31-0.15-0.55-0.15-0.85,0.03
						c-0.12,0.07-0.12,0.3,0.04,0.32c2.79,0.41,5.71,0.3,8.52,0.3c0.65,0,1.34,0.07,1.99-0.03c0.48-0.07,0.85-0.33,1.23-0.62
						c0.93-0.71,1.72-1.56,2.38-2.52C40.12,47.14,39.82,46.96,39.69,47.15L39.69,47.15z"/>
				</g>
			</g>
			<g>
				<g>
					<path d="M23.22,47.21c-0.73,0.97-0.34,2.44,0.84,2.82c0.92,0.3,2.04,0.11,2.99,0.07c1.19-0.05,2.38-0.11,3.57-0.13
						c1.19-0.02,2.38-0.01,3.57,0.08c0.96,0.07,2.04,0.36,2.99,0.04c1.58-0.55,2.51-2.51,2.81-4.03c0.04-0.19-0.22-0.32-0.32-0.14
						c-0.17,0.31-0.32,0.69-0.53,0.97c-0.28,0.37-0.4,0.37-0.86,0.42c-0.27,0.03-0.57,0.03-0.73,0.27
						c-0.06,0.09-0.01,0.19,0.06,0.24c0.02,0.01,0.04,0.03,0.06,0.04c0.06,0.04,0.17,0.03,0.21-0.03c0.01-0.01,0.02-0.03,0.04-0.04
						c0.15-0.17-0.1-0.42-0.25-0.25c0.04-0.01,0.08-0.02,0.12-0.03c0.02,0.08,0.04,0.16,0.06,0.24c0.12-0.19,0.93-0.13,1.17-0.12
						c0.06,0,0.12-0.03,0.15-0.09c0.27-0.49,0.53-0.97,0.8-1.46c-0.11-0.05-0.22-0.09-0.32-0.14c-0.28,1.46-1.21,3.5-2.83,3.86
						c-0.84,0.19-1.78-0.06-2.62-0.13c-0.86-0.07-1.73-0.09-2.59-0.09c-1.73,0-3.47,0.1-5.2,0.16c-0.77,0.03-1.83,0.21-2.54-0.21
						c-0.78-0.46-0.85-1.5-0.34-2.18C23.67,47.21,23.36,47.03,23.22,47.21L23.22,47.21z"/>
				</g>
			</g>
			<g>
				<g>
					<path d="M29.71,38.43c-1.9,0.05-3.84-0.11-5.69,0.4c-0.81,0.22-2.24,0.79-1.83,1.9c0.16,0.44,0.62,0.68,1.03,0.83
						c0.86,0.32,1.83,0.47,2.73,0.63c1.77,0.33,3.57,0.52,5.37,0.5c1.78-0.02,3.56-0.25,5.27-0.77c0.82-0.25,2.95-0.81,2.38-2.12
						c-0.19-0.45-0.69-0.59-1.13-0.68c-1.01-0.2-2.04-0.33-3.05-0.49c-0.82-0.13-1.64-0.31-2.47-0.26c-1,0.05-1.98,0.25-2.99,0.25
						c-1.88-0.01-3.99-0.15-5.77,0.59c-0.55,0.23-1.1,0.6-1.18,1.23c-0.08,0.67,0.44,1.2,0.89,1.62c0.17,0.16,0.42-0.09,0.25-0.25
						c-0.64-0.6-1.15-1.53-0.18-2.1c0.56-0.33,1.26-0.46,1.89-0.56c1.35-0.22,2.73-0.17,4.09-0.17c1.24,0,2.49-0.34,3.73-0.24
						c1.42,0.11,2.87,0.44,4.28,0.67c0.2,0.03,0.57,0.03,0.75,0.14c0.08,0.17,0.16,0.35,0.24,0.52c0.35,0.32,0.35,0.57-0.01,0.73
						c-0.18,0.22-0.45,0.31-0.7,0.41c-0.59,0.24-1.21,0.42-1.82,0.58c-1.32,0.33-2.67,0.5-4.02,0.55c-2.61,0.08-5.23-0.29-7.76-0.92
						c-0.29-0.07-0.59-0.14-0.86-0.27c-0.61-0.3-0.79-1.04-0.2-1.48c0.53-0.39,1.28-0.54,1.91-0.66c1.6-0.3,3.24-0.18,4.86-0.22
						C29.93,38.77,29.94,38.42,29.71,38.43L29.71,38.43z"/>
				</g>
			</g>
			<g>
				<g>
					<path d="M25.04,32.92c-0.26,0.66,0.26,0.95,0.34,1.58c0.14,1.1-1.59,1.41-2.15,2.07c-1.18,1.39-0.74,3.65-0.69,5.3
						c0.08,2.35,0.15,4.71,0.23,7.06c0.02,0.7-0.14,1.67,0.2,2.31c0.26,0.49,0.9,1.03,1.39,1.29c0.73,0.39,1.69,0.53,2.49,0.72
						c0.96,0.23,1.93,0.43,2.91,0.54c1.85,0.21,3.84,0.17,5.64-0.36c1.43-0.42,2.83-1.31,3.41-2.75c0.73-1.84-0.08-4.11-0.11-6.02
						c-0.03-1.43,0.1-2.84,0.3-4.26c0.12-0.89,0.25-1.82-0.02-2.7c-0.21-0.7-0.64-1.18-1.22-1.61c-0.68-0.5-1.25-0.9-1.45-1.77
						c-0.14-0.59-0.13-1.37-0.01-1.97c0.05-0.22-0.3-0.32-0.34-0.09c-0.21,1.03-0.18,2.43,0.53,3.28c0.43,0.52,1.11,0.76,1.58,1.24
						c0.87,0.9,0.77,2.22,0.62,3.36c-0.26,1.92-0.42,3.82-0.27,5.77c0.15,2.02,0.88,4.21-0.74,5.85c-1.4,1.42-3.61,1.7-5.51,1.76
						c-1.89,0.06-3.74-0.25-5.56-0.71c-0.99-0.25-1.89-0.45-2.69-1.12c-0.87-0.73-0.74-1.94-0.77-2.98
						c-0.07-2.01-0.13-4.01-0.2-6.02c-0.07-2.06-0.8-5.33,1.39-6.51c0.52-0.28,1.18-0.5,1.39-1.12c0.25-0.72-0.59-1.38-0.32-2.07
						C25.46,32.8,25.12,32.71,25.04,32.92L25.04,32.92z"/>
				</g>
			</g>
			<g>
				<g>
					<path d="M27.53,30.19c0.06,0.27,0.08,0.53,0.08,0.8c0,0.08,0.06,0.15,0.13,0.17c1.47,0.4,3.01,0.51,4.52,0.31
						c0.58-0.08,1.2-0.2,1.66-0.59c0.42-0.35,0.64-0.91,0.48-1.44c-0.05-0.16-0.3-0.17-0.34,0c-0.03,0.11-0.06,0.23-0.09,0.34
						C33.9,30,34.25,30.1,34.3,29.88c0.03-0.11,0.06-0.23,0.09-0.34c-0.11,0-0.23,0-0.34,0c0.18,0.58-0.24,1.08-0.74,1.31
						c-0.54,0.25-1.19,0.3-1.78,0.34c-1.25,0.09-2.49-0.04-3.7-0.37c0.04,0.06,0.09,0.11,0.13,0.17c0.01-0.3-0.02-0.6-0.09-0.89
						C27.82,29.87,27.48,29.97,27.53,30.19L27.53,30.19z"/>
				</g>
			</g>
			<g>
				<g>
					<path d="M26.93,29.26c0.34,1.49,2.69,1.46,3.85,1.46c0.86,0,1.79,0,2.64-0.16c0.67-0.13,1.29-0.55,1.32-1.28
						c-0.06,0.06-0.12,0.12-0.18,0.18c0.06,0.03,0.13,0.06,0.19,0.09c0.13,0.19,0.43,0.01,0.31-0.18c-0.12-0.19-0.27-0.27-0.5-0.27
						c-0.1,0-0.17,0.08-0.18,0.18c-0.04,0.85-1.05,0.96-1.7,1c-0.68,0.05-1.37,0.09-2.06,0.08c-0.7,0-1.41-0.05-2.09-0.22
						c-0.54-0.13-1.14-0.39-1.27-0.98C27.22,28.94,26.88,29.03,26.93,29.26L26.93,29.26z"/>
				</g>
			</g>
			<g>
				<g>
					<path d="M34.43,26.84c0.2,2.19,0.1,4.4-0.33,6.56c-0.03,0.13,0.08,0.25,0.22,0.22c0.92-0.23,1.83-0.48,2.71-0.82
						c0.68-0.26,1.13-0.65,1.33-1.37c0.52-1.82,0.7-3.76,0.66-5.65c-0.01-0.23-0.36-0.23-0.35,0c0.04,1.74-0.13,3.47-0.54,5.16
						c-0.09,0.39-0.18,0.82-0.48,1.11c-0.27,0.26-0.64,0.39-0.99,0.51c-0.8,0.28-1.61,0.52-2.43,0.72c0.07,0.07,0.15,0.15,0.22,0.22
						c0.43-2.19,0.55-4.43,0.34-6.66C34.77,26.62,34.41,26.62,34.43,26.84L34.43,26.84z"/>
				</g>
			</g>
			<g>
				<g>
					<path d="M23.14,25.79c0.13,2.06,0.26,4.12,0.39,6.17c0.02,0.34-0.02,0.78,0.23,1.05c0.21,0.23,0.61,0.33,0.89,0.42
						c0.9,0.29,1.85,0.4,2.8,0.34c0.12-0.01,0.19-0.11,0.17-0.22c-0.18-1.07-0.29-2.15-0.32-3.24c-0.01-0.5-0.01-1,0.01-1.5
						c0.01-0.27,0.03-0.55,0.05-0.82c0.01-0.13,0.01-0.27,0.04-0.39c0.03-0.13,0.27-0.51,0.35-0.26c0.07,0.22,0.41,0.12,0.34-0.09
						c-0.11-0.34-0.54-0.43-0.8-0.19c-0.17,0.15-0.22,0.39-0.25,0.61c-0.05,0.41-0.07,0.82-0.08,1.23
						c-0.06,1.59,0.05,3.19,0.32,4.76c0.06-0.07,0.11-0.15,0.17-0.22c-0.84,0.05-1.68-0.03-2.5-0.26c-0.18-0.05-0.36-0.11-0.54-0.18
						c-0.09-0.03-0.19-0.07-0.27-0.12c-0.2-0.13-0.2-0.29-0.22-0.5c-0.05-0.43-0.06-0.88-0.08-1.31c-0.11-1.75-0.22-3.5-0.33-5.25
						C23.48,25.56,23.13,25.56,23.14,25.79L23.14,25.79z"/>
				</g>
			</g>
			<g>
				<g>
					<path d="M20.79,14.28c-0.12,2.16-0.04,4.33,0.25,6.47c0.29,2.09,0.95,4.15,0.78,6.27c-0.01,0.09,0.09,0.18,0.18,0.18
						c2.88-0.09,5.72,0.36,8.56,0.81c1.09,0.17,2.12,0.44,3.2,0.17c1.23-0.31,2.43-0.53,3.62-1c1.28-0.5,3.76-1.35,3.69-3.09
						c-0.03-0.63-0.32-1.21-0.31-1.85c0.01-0.68,0.26-1.35,0.43-2c0.32-1.23,0.4-2.45,0.25-3.72c-0.03-0.22-0.38-0.23-0.35,0
						c0.12,0.98,0.12,1.95-0.07,2.92c-0.14,0.7-0.39,1.37-0.52,2.07c-0.11,0.6-0.11,1.17,0.03,1.76c0.13,0.54,0.35,0.95,0.02,1.55
						c-0.22,0.4-0.64,0.67-1.01,0.92c-1.38,0.92-3.09,1.51-4.71,1.81c-1.09,0.21-1.89,0.46-3.01,0.29c-0.85-0.12-1.69-0.27-2.53-0.4
						c-1.57-0.24-3.15-0.47-4.74-0.57c-0.42-0.03-2.1,0.16-2.34-0.23c-0.07-0.12,0-0.95-0.02-1.1c-0.02-0.32-0.07-0.64-0.11-0.96
						c-0.26-1.73-0.67-3.42-0.84-5.16c-0.17-1.71-0.19-3.43-0.1-5.15C21.15,14.06,20.8,14.06,20.79,14.28L20.79,14.28z"/>
				</g>
			</g>
			<g>
				<g>
					<path d="M19.79,11.74c-0.02,3.93,0.14,7.86,0.5,11.78c0.14,1.49,0.43,2.3,1.83,2.98c1.37,0.67,2.9,0.89,4.41,0.98
						c3.51,0.21,7.2,0.04,10.68-0.44c1.53-0.21,2.38-0.45,2.94-1.93c0.59-1.57,0.96-3.22,1.1-4.89c0.18-2.13-0.12-4.25-0.04-6.38
						c0.01-0.21,0.02-0.41,0.03-0.62c0.06-0.72,0.23-1.02,0.54-1.63c0.06-0.12,0.21-0.2,0.22-0.34c0.03-0.31-0.05-0.48-0.35-0.57
						c-0.22-0.07-0.31,0.27-0.09,0.34c0.2,0.06-0.4,0.75-0.44,0.83c-0.11,0.22-0.13,0.46-0.17,0.7c-0.13,0.83-0.12,1.69-0.1,2.52
						c0.04,1.92,0.22,3.82-0.01,5.74c-0.12,1.04-0.34,2.07-0.65,3.07c-0.17,0.55-0.33,1.29-0.65,1.77
						c-0.44,0.68-1.03,0.79-1.69,0.92c-1.97,0.39-4.07,0.42-6.07,0.52c-1.87,0.1-3.76,0.15-5.63,0.01
						c-0.97-0.07-1.95-0.21-2.88-0.52c-1.4-0.46-2.42-1.06-2.6-2.64c-0.46-4.04-0.56-8.15-0.54-12.21
						C20.14,11.51,19.79,11.51,19.79,11.74L19.79,11.74z"/>
				</g>
			</g>
			<g>
				<g>
					<path d="M17.26,11.67c-0.01,1.98-0.07,3.95-0.19,5.92c-0.06,0.99-0.13,1.97-0.22,2.95c-0.02,0.18,0,0.6-0.07,0.75
						c-0.15,0.3-0.77,0.41-1.06,0.42c-0.54,0.02-1.01-0.21-1.25-0.69c-0.09,0.07-0.19,0.14-0.28,0.21c0.93,0.84,2.4,0.79,3.25-0.14
						c-0.1-0.04-0.2-0.08-0.3-0.13c-0.03,0.32-0.07,0.65-0.1,0.97c0.12,0,0.24,0,0.35,0c-0.11-0.84-0.15-1.69-0.12-2.54
						c-0.12,0-0.24,0-0.35,0c0.04,1-0.14,1.97-0.55,2.88c0.11,0.05,0.22,0.09,0.32,0.14c0.11-0.34,0.22-0.68,0.32-1.01
						c0.07-0.22-0.27-0.31-0.34-0.09c-0.11,0.34-0.22,0.68-0.32,1.01c-0.06,0.19,0.24,0.32,0.32,0.14c0.44-0.97,0.65-1.99,0.6-3.06
						c-0.01-0.23-0.35-0.23-0.35,0c-0.03,0.85,0.01,1.69,0.12,2.54c0.03,0.22,0.33,0.23,0.35,0c0.03-0.32,0.07-0.65,0.1-0.97
						c0.02-0.15-0.2-0.23-0.3-0.13c-0.72,0.77-1.96,0.85-2.75,0.14c-0.15-0.14-0.37,0.03-0.28,0.21c0.39,0.78,1.27,0.99,2.07,0.79
						c0.35-0.09,0.77-0.22,0.89-0.6c0.16-0.55,0.12-1.22,0.17-1.79c0.21-2.64,0.32-5.28,0.33-7.93
						C17.61,11.44,17.26,11.44,17.26,11.67L17.26,11.67z"/>
				</g>
			</g>
			<g>
				<g>
					<path d="M14.09,11.09c0.54,3.54,0.77,7.12,0.69,10.7c0,0.13,0.16,0.23,0.27,0.15c0.1-0.03,0.19-0.05,0.29-0.08
						c0.23,0,0.23-0.35,0-0.35c-0.19,0-0.32,0.02-0.47,0.13c0.09,0.05,0.18,0.1,0.27,0.15c0.08-3.61-0.16-7.22-0.71-10.79
						C14.39,10.77,14.05,10.87,14.09,11.09L14.09,11.09z"/>
				</g>
			</g>
			<g>
				<g>
					<path d="M14.76,8.91c-0.37,0.21-0.72,0.45-1.04,0.73c-0.23,0.2-0.53,0.47-0.52,0.8c0.04,0.71,1.27,0.89,1.79,0.94
						c0.47,0.04,0.94,0.04,1.41,0.01c0.24-0.01,0.48-0.05,0.73-0.05c0.25-0.01,0.44,0.07,0.67,0.15c0.81,0.31,1.71,0.02,2.51,0.35
						c0.21,0.09,0.3-0.26,0.09-0.34c-0.61-0.25-1.26-0.15-1.91-0.21c-0.37-0.03-0.66-0.22-1.02-0.28c-0.35-0.07-0.73,0.01-1.09,0.03
						c-0.73,0.04-1.53,0.07-2.22-0.18c-0.09-0.03-0.19-0.07-0.28-0.12c-0.16-0.08-0.2-0.11-0.25-0.3c-0.05-0.21-0.04-0.21,0.09-0.35
						c0.05-0.06,0.11-0.11,0.17-0.16c0.31-0.28,0.65-0.51,1.01-0.71C15.14,9.11,14.96,8.8,14.76,8.91L14.76,8.91z"/>
				</g>
			</g>
			<g>
				<g>
					<path d="M13.75,9.28c1.14,0.32,2.28-0.04,3.41-0.25c0.6-0.11,1.22-0.19,1.82-0.05c0.61,0.14,1.13,0.51,1.77,0.52
						c0-0.12,0-0.24,0-0.35c-0.1,0.01-0.2,0.02-0.3,0.03c-0.23,0.02-0.23,0.37,0,0.35c0.1-0.01,0.2-0.02,0.3-0.03
						c0.22-0.02,0.23-0.35,0-0.35c-0.63-0.01-1.17-0.41-1.78-0.53c-0.52-0.1-1.06-0.06-1.58,0.02c-1.17,0.18-2.36,0.64-3.54,0.31
						C13.62,8.88,13.53,9.22,13.75,9.28L13.75,9.28z"/>
				</g>
			</g>
			<g>
				<g>
					<path d="M20.03,4.43c-0.35,0.05-1.45,0.32-1.37,0.87c0.09,0.63,1.06,0.41,1.45,0.37c1.51-0.16,2.72,0.17,4.18,0.43
						c1.2,0.21,2.42,0.34,3.64,0.42c2.81,0.19,5.64,0.11,8.45-0.12C37.69,6.3,39,6.16,40.31,5.98c0.94-0.12,2.02-0.11,2.63-0.93
						c0.05-0.06,0.02-0.16-0.03-0.21c-0.43-0.46-1.3-0.58-1.89-0.75c-0.96-0.28-1.94-0.49-2.92-0.66c-2.14-0.37-4.32-0.54-6.49-0.57
						c-4.05-0.07-8.31,0.23-12.15,1.59c-0.21,0.08-0.12,0.42,0.09,0.34C24.9,2.89,31.14,2.84,36.7,3.57
						c1.38,0.18,2.75,0.44,4.09,0.81c0.38,0.11,1.56,0.32,1.54,0.68c-0.02,0.52-2.53,0.63-2.87,0.68
						c-3.42,0.42-6.89,0.62-10.34,0.49c-1.94-0.08-3.89-0.26-5.79-0.67c-0.74-0.16-1.44-0.4-2.21-0.36
						c-0.43,0.02-1.01,0.23-1.42,0.17c-0.29-0.04-0.34,0.16-0.4-0.16c-0.06-0.34,0.58-0.4,0.82-0.43
						C20.34,4.74,20.25,4.4,20.03,4.43L20.03,4.43z"/>
				</g>
			</g>
			<g>
				<g>
					<path d="M19.84,5.32c0.25,1.53,0.23,3.03-0.05,4.55c-0.02,0.12,0.05,0.22,0.17,0.22c5.36,0.19,10.71,0.38,16.07,0.57
						c1.41,0.05,4.38,0.58,5.27-0.96c0.47-0.82,0.41-2.21,0.54-3.14c0.07-0.48,0.2-1.01-0.29-1.29c0,0.1,0,0.2,0,0.31
						c0.29-0.17,0.23-0.13,0.48-0.36c0.17-0.16-0.09-0.41-0.25-0.25c-0.14,0.1-0.27,0.2-0.41,0.3c-0.12,0.07-0.11,0.24,0,0.31
						c0.49,0.28-0.08,2.35-0.15,2.87c-0.24,1.65-1.45,1.88-2.88,1.91c-2.05,0.05-4.12-0.11-6.16-0.19
						c-4.07-0.14-8.14-0.29-12.21-0.43c0.06,0.07,0.11,0.15,0.17,0.22c0.3-1.58,0.31-3.15,0.05-4.74C20.15,5.01,19.8,5.1,19.84,5.32
						L19.84,5.32z"/>
				</g>
			</g>
			<g>
				<g>
					<path d="M14.65,9.2c-0.88-0.05-1.26,0.82-0.79,1.54c0.69,1.07,2.71,1,3.81,1.04c2.08,0.08,4.15,0.05,6.24,0.21
						c2.17,0.17,4.34,0.43,6.51,0.65c2.16,0.22,4.32,0.4,6.5,0.42c1.64,0.02,3.76,0.18,5.34-0.41c0.86-0.32,1.33-1.08,1.23-2.01
						c-0.15-1.4-1.46-2.09-2.7-2.35c0,0.11,0,0.23,0,0.34c0.06,0.03,0.12,0.06,0.18,0.08c0.08,0.21,0.42,0.12,0.34-0.09
						C41.17,8.32,41,8.22,40.67,8.3c-0.17,0.04-0.17,0.31,0,0.34c0.71,0.15,1.44,0.37,1.94,0.94c0.9,1.02,0.56,2.48-0.78,2.82
						c-1.25,0.32-2.68,0.29-3.97,0.31c-2.57,0.04-5.14-0.18-7.7-0.45c-2.57-0.26-5.14-0.58-7.72-0.73
						c-1.28-0.07-2.56-0.08-3.84-0.09c-0.63-0.01-1.26-0.02-1.89-0.07c-0.46-0.04-0.91-0.1-1.35-0.2c-0.72-0.07-0.96-0.61-0.72-1.62
						C14.87,9.56,14.87,9.21,14.65,9.2L14.65,9.2z"/>
				</g>
			</g>
			<g>
				<g>
					<path d="M20.2,9.32c-1.1,0.05-2.19,0.1-3.29,0.15c-0.58,0.03-1.53-0.14-2.04,0.22c-0.42,0.3-0.33,0.72,0.07,0.93
						c0.43,0.24,1.7,0.01,2.17,0.01c0.97-0.01,1.94-0.01,2.9,0.02c2.11,0.06,4.22,0.21,6.33,0.36c4,0.28,8.04,0.6,12.05,0.24
						c1-0.09,3.16-0.06,3.78-1.01c0.51-0.78-0.46-1.17-1.02-1.5c-0.2-0.12-0.37,0.19-0.18,0.31c0.11,0.07,0.64,0.29,0.67,0.4
						c0.15,0.5-0.44,0.91-0.78,1.06c-0.65,0.28-1.58,0.3-2.27,0.37c-1.32,0.13-2.66,0.17-3.98,0.17c-2.76,0-5.52-0.2-8.27-0.39
						c-2.68-0.19-5.35-0.38-8.04-0.39c-0.72,0-1.44,0.01-2.15,0.02c-0.08,0-0.94,0.04-0.95,0.01c-0.11-0.38,0.62-0.4,0.78-0.43
						c1.34-0.25,2.86-0.13,4.23-0.19C20.43,9.67,20.43,9.31,20.2,9.32L20.2,9.32z"/>
				</g>
			</g>
		</g>
	</g>
</g>
</svg>
