<?xml version="1.0" encoding="utf-8"?>
<!-- Generator: Adobe Illustrator 26.2.1, SVG Export Plug-In . SVG Version: 6.00 Build 0)  -->
<svg version="1.1" id="Layer_1" xmlns="http://www.w3.org/2000/svg" xmlns:xlink="http://www.w3.org/1999/xlink" x="0px" y="0px"
	 viewBox="0 0 56.69 56.69" style="enable-background:new 0 0 56.69 56.69;" xml:space="preserve">
<g>
	<g>
		<g>
			<path d="M36.16,29.02c0.05,0.34,0.1,0.68,0.15,1.03c0.03,0.21,0.33,0.14,0.35-0.05c0.1-1.11,0.19-2.21,0.29-3.32
				c-0.12,0.02-0.23,0.03-0.35,0.05c0.16,0.9,0.27,1.8,0.31,2.7c0.12-0.02,0.23-0.03,0.35-0.05c-0.22-1.21-0.03-2.43,0.1-3.64
				c-0.12,0.02-0.23,0.03-0.35,0.05c0.33,0.81,0.34,1.69,0.45,2.55c0.02,0.17,0.31,0.17,0.34,0c0.14-0.85,0.19-1.7,0.15-2.57
				c-0.12,0-0.24,0-0.35,0c0.05,0.43,0.09,0.87,0.14,1.3c0.02,0.22,0.35,0.23,0.35,0c0.01-0.87,0.02-1.72-0.08-2.59
				c-0.12,0.02-0.23,0.03-0.35,0.05c0.23,0.64,0.5,1.27,0.74,1.91c0.06,0.17,0.36,0.17,0.35-0.05c-0.08-1.11-0.16-2.21-0.24-3.32
				c-0.12,0-0.24,0-0.35,0c0.08,0.81,0.16,1.63,0.24,2.44c0.02,0.22,0.36,0.23,0.35,0c-0.02-1.07-0.04-2.14-0.06-3.2
				c-0.1,0.04-0.2,0.08-0.3,0.13c0.62,0.61,0.63,1.66,0.73,2.47c0.12-0.02,0.23-0.03,0.35-0.05c-0.34-1.01-0.62-2-0.78-3.06
				c-0.1,0.06-0.2,0.11-0.3,0.17c0.59,0.53,0.75,1.01,0.85,1.77c0.03,0.22,0.36,0.23,0.35,0c-0.03-1.09-0.13-2.17-0.32-3.25
				c-0.04-0.22-0.38-0.13-0.34,0.09c0.13,0.74,0.23,1.49,0.31,2.24c0.12-0.02,0.23-0.03,0.35-0.05c-0.14-0.91-0.28-1.82-0.42-2.73
				c-0.11,0.05-0.22,0.09-0.32,0.14c0.46,0.75,0.84,1.54,1.15,2.37c0.11-0.05,0.22-0.09,0.32-0.14c-0.6-0.98-0.98-2.05-1.13-3.19
				c-0.1,0.04-0.2,0.08-0.3,0.13c0.77,0.66,1.18,1.78,0.35,2.58c0.1,0.06,0.2,0.11,0.3,0.17c0.38-1.51,0.17-3.06-0.61-4.42
				c-0.07-0.12-0.23-0.1-0.31,0c-0.56,0.79,0.29,1.38,0.64,2.01c0.31,0.54,0.16,1.27,0.12,1.86c-0.05,0.63-0.1,1.25-0.22,1.87
				c-0.44,2.34-1.9,4.41-3.06,6.45c0.1,0,0.2,0,0.31,0c-0.26-0.47-0.36-0.88-0.05-1.34c0.2-0.29,0.4-0.57,0.56-0.88
				c0.28-0.53,0.45-1.09,0.41-1.69c-0.01-0.23-0.37-0.23-0.35,0c0.06,0.97-0.48,1.69-0.98,2.46c-0.37,0.57-0.22,1.07,0.1,1.64
				c0.06,0.12,0.24,0.11,0.31,0c1.1-1.93,2.49-3.9,3-6.09c0.25-1.06,0.34-2.19,0.38-3.27c0.01-0.41-0.01-0.8-0.22-1.17
				c-0.28-0.49-1.1-1.02-0.64-1.65c-0.1,0-0.2,0-0.31,0c0.73,1.27,0.93,2.72,0.57,4.14c-0.04,0.17,0.17,0.3,0.3,0.17
				c0.96-0.93,0.58-2.29-0.35-3.08c-0.1-0.09-0.32-0.04-0.3,0.13c0.15,1.21,0.54,2.33,1.18,3.37c0.1,0.16,0.4,0.06,0.32-0.14
				c-0.32-0.86-0.71-1.67-1.18-2.45c-0.11-0.18-0.35-0.05-0.32,0.14c0.14,0.91,0.28,1.82,0.42,2.73c0.03,0.2,0.37,0.15,0.35-0.05
				c-0.08-0.78-0.19-1.56-0.32-2.33c-0.11,0.03-0.23,0.06-0.34,0.09c0.18,1.05,0.29,2.1,0.31,3.16c0.12,0,0.24,0,0.35,0
				c-0.11-0.86-0.29-1.43-0.95-2.02c-0.14-0.13-0.32,0-0.3,0.17c0.16,1.06,0.44,2.05,0.78,3.06c0.06,0.18,0.37,0.16,0.35-0.05
				c-0.11-0.92-0.13-2.03-0.83-2.72c-0.11-0.11-0.31-0.03-0.3,0.13c0.02,1.07,0.04,2.14,0.06,3.2c0.12,0,0.24,0,0.35,0
				c-0.08-0.81-0.16-1.63-0.24-2.44c-0.02-0.22-0.37-0.23-0.35,0c0.08,1.11,0.16,2.21,0.24,3.32c0.12-0.02,0.23-0.03,0.35-0.05
				c-0.23-0.64-0.5-1.27-0.74-1.91c-0.06-0.17-0.37-0.17-0.35,0.05c0.1,0.86,0.09,1.72,0.08,2.59c0.12,0,0.24,0,0.35,0
				c-0.05-0.43-0.09-0.87-0.14-1.3c-0.02-0.22-0.36-0.23-0.35,0c0.04,0.83,0,1.65-0.14,2.47c0.11,0,0.23,0,0.34,0
				c-0.12-0.86-0.13-1.73-0.45-2.55c-0.08-0.19-0.33-0.16-0.35,0.05c-0.14,1.25-0.31,2.49-0.09,3.74c0.04,0.2,0.36,0.15,0.35-0.05
				c-0.05-0.94-0.16-1.87-0.33-2.8c-0.04-0.21-0.33-0.14-0.35,0.05c-0.1,1.11-0.19,2.21-0.29,3.32c0.12-0.02,0.23-0.03,0.35-0.05
				c-0.05-0.34-0.1-0.68-0.15-1.03C36.47,28.7,36.12,28.8,36.16,29.02L36.16,29.02z"/>
		</g>
	</g>
	<g>
		<g>
			<path d="M20.69,29.99c-0.33,0.45-0.5,0.93-0.57,1.48c-0.01,0.11,0.12,0.21,0.22,0.17c0.48-0.19,0.84-0.49,1.11-0.94
				c0.11-0.18-0.13-0.34-0.28-0.21c-0.64,0.56-1,1.33-1.05,2.18c-0.01,0.14,0.15,0.21,0.27,0.15c0.24-0.11,0.35-0.26,0.43-0.51
				c-0.12-0.02-0.23-0.03-0.35-0.05c-0.11,1.32-1.17,2.33-1.2,3.68c-0.02,0.75,0.21,1.5,0.45,2.21c0.11,0.31,0.29,0.7,0.68,0.45
				c0.37-0.23,0.47-0.83,0.46-1.23c-0.02-0.49-0.22-0.92-0.55-1.27c-0.42-0.44-0.27-0.88-0.19-1.4c0.06-0.37,0.13-0.75,0.19-1.12
				c0.14-0.81,0.27-1.62,0.41-2.43c-0.12-0.02-0.23-0.03-0.35-0.05c0.04,0.99,0.03,1.99-0.04,2.98c-0.07,0.97-0.27,1.93-0.36,2.9
				c-0.05,0.52,0.05,1.14,0.63,1.31c0.66,0.19,1.16-0.35,1.33-0.92c0.05-0.16-0.13-0.26-0.26-0.2c-0.3,0.15-1.13,0.73-1.47,0.55
				c-0.3-0.17-0.41-0.98-0.44-1.28c-0.08-0.89,0.17-1.76,0.44-2.6c0.26-0.82,0.54-1.63,0.63-2.5c0.1-0.86,0.03-1.73-0.16-2.57
				c-0.04-0.19-0.37-0.15-0.35,0.05c0.25,2.76-0.91,5.33-1.17,8.04c-0.07,0.73,0.21,2.15,1.28,1.89c0.39-0.1,0.45-0.43,0.5-0.78
				c0.11-0.74,0.39-1.4,0.88-1.97c0.15-0.17-0.1-0.42-0.25-0.25c-0.28,0.34-0.52,0.7-0.69,1.1c-0.17,0.4-0.17,0.82-0.3,1.21
				c-0.22,0.65-0.81,0.18-0.98-0.21c-0.11-0.27-0.12-0.56-0.1-0.84c0.04-0.59,0.16-1.18,0.28-1.76c0.44-2.13,1.1-4.24,0.91-6.43
				c-0.12,0.02-0.23,0.03-0.35,0.05c0.26,1.16,0.26,2.34-0.04,3.5c-0.27,1.03-0.71,2.02-0.85,3.08c-0.1,0.77-0.07,1.76,0.42,2.41
				c0.17,0.22,0.37,0.32,0.64,0.25c0.46-0.11,0.92-0.43,1.34-0.64c-0.09-0.07-0.17-0.13-0.26-0.2c-0.14,0.46-0.77,1.07-1.17,0.44
				c-0.16-0.25-0.12-0.6-0.08-0.88c0.08-0.58,0.19-1.15,0.25-1.74c0.15-1.33,0.19-2.66,0.13-4c-0.01-0.19-0.31-0.25-0.35-0.05
				c-0.22,1.31-0.44,2.62-0.66,3.93c-0.07,0.4-0.18,0.76,0.09,1.11c0.16,0.21,0.38,0.36,0.51,0.6c0.16,0.28,0.21,0.61,0.18,0.92
				c-0.02,0.22-0.15,0.79-0.41,0.52c-0.16-0.16-0.22-0.67-0.28-0.89c-0.19-0.69-0.27-1.41-0.06-2.11c0.3-1,0.98-1.82,1.07-2.88
				c0.02-0.21-0.29-0.23-0.35-0.05c-0.09,0.1-0.18,0.2-0.26,0.29c0.09,0.05,0.18,0.1,0.27,0.15c0.04-0.76,0.38-1.42,0.95-1.93
				c-0.09-0.07-0.19-0.14-0.28-0.21c-0.21,0.36-0.5,0.62-0.9,0.78c0.07,0.06,0.15,0.11,0.22,0.17c0.06-0.48,0.24-0.91,0.52-1.3
				C21.13,29.98,20.82,29.81,20.69,29.99L20.69,29.99z"/>
		</g>
	</g>
	<g>
		<g>
			<path d="M18.91,26.66c0.26,0.44,0.37,0.93,0.65,1.36c0.27,0.41,0.51,0.8,0.65,1.28c0.27,0.94,0.21,1.94,0.04,2.89
				c-0.18,1.07-0.51,2.11-0.67,3.19c-0.12,0.82-0.24,1.88,0.13,2.66c0.22,0.46,0.74,0.78,1.23,0.51c0.62-0.35,0.75-1.25,0.72-1.89
				c-0.04-0.9-0.27-1.76-0.24-2.67c0.04-1.13,0.34-2.23,0.85-3.24c0.1-0.2-0.2-0.38-0.31-0.18c-0.73,1.44-1.03,3.04-0.84,4.64
				c0.09,0.78,0.35,1.66,0.07,2.43c-0.13,0.34-0.4,0.79-0.88,0.59c-0.33-0.14-0.41-0.73-0.45-1.03c-0.06-0.51-0.03-1.02,0.03-1.52
				c0.21-1.7,0.86-3.32,0.84-5.05c-0.01-0.68-0.12-1.36-0.4-1.98c-0.16-0.35-0.39-0.63-0.58-0.96c-0.23-0.38-0.32-0.82-0.55-1.2
				C19.1,26.29,18.79,26.47,18.91,26.66L18.91,26.66z"/>
		</g>
	</g>
	<g>
		<g>
			<path d="M17.58,23.33c0.45,1.22,0.91,2.45,1.53,3.59c0.31,0.57,0.65,1.1,1.04,1.61c0.39,0.51,0.77,1.01,0.94,1.65
				c0.07-0.07,0.15-0.15,0.22-0.22c-0.65-0.17-0.77-1.05-1-1.58c-0.21-0.48-0.46-0.94-0.72-1.39c-0.63-1.07-1.35-2.13-1.68-3.34
				c-0.24-0.91-0.33-2.23-1.42-2.54c-0.08-0.02-0.2-0.01-0.27-0.05c-0.69-0.44,0.05-0.61,0.23-0.69c0.12-0.05,0.24-0.11,0.32-0.21
				c0.16-0.22,0.11-0.53-0.14-0.64c0,0.1,0,0.2,0,0.31c0.11-0.02,0.22-0.04,0.33-0.05c0.22,0.05,0.32-0.29,0.09-0.34
				c-0.23-0.05-0.4-0.03-0.61,0.09c-0.11,0.06-0.12,0.25,0,0.31c0.11,0.05-0.62,0.45-0.66,0.48c-0.14,0.12-0.24,0.28-0.26,0.46
				c-0.04,0.35,0.18,0.57,0.49,0.64c0.4,0.09,0.66,0.12,0.93,0.46c0.24,0.31,0.35,0.68,0.43,1.05c0.14,0.6,0.26,1.17,0.5,1.74
				c0.49,1.15,1.23,2.15,1.81,3.26c0.39,0.74,0.57,2.15,1.52,2.4c0.13,0.03,0.25-0.09,0.22-0.22c-0.31-1.14-1.26-2.01-1.84-3.02
				c-0.7-1.21-1.19-2.53-1.68-3.84C17.84,23.03,17.5,23.12,17.58,23.33L17.58,23.33z"/>
		</g>
	</g>
	<g>
		<g>
			<path d="M22.59,15.4c-1.19,0.86-2.17,2.46-1.18,3.84c0.54,0.76,1.37,0.59,2.08,1.04c0.37,0.23,0.58,0.52,1.01,0.65
				c0.5,0.14,1.09,0.18,1.6,0.23c2.39,0.23,4.74-0.08,7.06-0.65c0.54-0.13,1.07-0.27,1.6-0.42c0.29-0.08,0.73-0.15,0.89-0.45
				c0.25-0.45-0.2-0.92-0.65-0.86c-0.22,0.03-0.23,0.38,0,0.35c-0.02,0.18-0.05,0.36-0.07,0.54c-0.09,0.02-0.18,0.05-0.27,0.07
				c-0.15,0.08-0.37,0.1-0.53,0.14c-0.4,0.11-0.8,0.21-1.2,0.31c-0.71,0.18-1.43,0.33-2.16,0.45c-1.59,0.26-3.2,0.31-4.8,0.14
				c-0.41-0.04-0.86-0.06-1.26-0.18c-0.4-0.12-0.6-0.36-0.91-0.59c-0.47-0.36-1.1-0.27-1.61-0.55c-1.67-0.9-0.5-2.99,0.58-3.77
				C22.95,15.58,22.78,15.27,22.59,15.4L22.59,15.4z"/>
		</g>
	</g>
	<g>
		<g>
			<path d="M35.69,16.25c0.3,0.08,0.62,0.1,0.91-0.01c0.26-0.1,0.47-0.39,0.76-0.4c0.17-0.01,0.34,0.01,0.51,0.01
				c0.16,0,0.33-0.01,0.48,0.02c0.19,0.03,0.23,0.18,0.29,0.34c0.07,0.18,0.14,0.35,0.21,0.53c0.08,0.21,0.43,0.12,0.34-0.09
				c-0.08-0.2-0.16-0.39-0.24-0.59c-0.06-0.15-0.11-0.3-0.24-0.4c-0.26-0.21-0.69-0.15-1-0.15c-0.17,0-0.36-0.03-0.53,0.02
				c-0.15,0.04-0.27,0.13-0.4,0.22c-0.31,0.23-0.62,0.29-1,0.19C35.56,15.85,35.47,16.19,35.69,16.25L35.69,16.25z"/>
		</g>
	</g>
	<g>
		<g>
			<path d="M36.08,16.1c0.4,0.14,0.74,0.19,1.11-0.03c0.17-0.1,0.36-0.22,0.57-0.18c0.2,0.04,0.33,0.22,0.47,0.35
				c0.49,0.44,1.19,0.69,1.51,1.29c0.04-0.09,0.07-0.17,0.11-0.26c-0.05,0.01-0.1,0-0.14-0.03c-0.2-0.11-0.38,0.19-0.18,0.31
				c0.13,0.08,0.26,0.09,0.41,0.07c0.12-0.02,0.16-0.17,0.11-0.26c-0.35-0.66-1.08-0.91-1.61-1.4c-0.14-0.13-0.27-0.28-0.45-0.36
				c-0.17-0.07-0.36-0.08-0.54-0.03c-0.2,0.05-0.36,0.18-0.55,0.26c-0.24,0.11-0.49,0.01-0.72-0.07
				C35.96,15.68,35.87,16.02,36.08,16.1L36.08,16.1z"/>
		</g>
	</g>
	<g>
		<g>
			<path d="M36.38,28.21c-0.11-0.27-0.44-0.41-0.7-0.26c-0.12,0.07-0.21,0.2-0.25,0.34c-0.03,0.13-0.03,0.31,0.07,0.41
				c0.13,0.13,0.34,0.08,0.46-0.02c0.12-0.1,0.16-0.25,0.24-0.38c0.15-0.25,0.44-0.38,0.63-0.58c0.13-0.14,0.2-0.3,0.24-0.48
				c0.04-0.19,0.08-0.39,0.12-0.58c0.05-0.22-0.29-0.32-0.34-0.09c-0.03,0.15-0.06,0.31-0.1,0.46c-0.03,0.13-0.04,0.28-0.13,0.39
				c-0.15,0.2-0.4,0.33-0.58,0.51c-0.1,0.1-0.17,0.21-0.23,0.33c-0.02,0.05-0.05,0.11-0.09,0.15c0,0-0.04,0.03-0.04,0.03
				c0.06,0.06,0.08,0.07,0.06,0.04c0-0.01,0-0.01,0-0.02c0.01-0.07,0.02-0.15,0.09-0.19c0.05-0.03,0.16-0.01,0.18,0.05
				c0.04,0.09,0.12,0.15,0.22,0.12C36.34,28.4,36.42,28.3,36.38,28.21L36.38,28.21z"/>
		</g>
	</g>
	<g>
		<g>
			<path d="M36.09,28.4c1.25-1.81,2.05-3.73,2.65-5.83c0.29-1.01,0.44-2.06,0.4-3.11c-0.02-0.4-0.02-0.87-0.16-1.25
				c-0.14-0.38-0.45-0.58-0.78-0.77c-0.03,0.11-0.06,0.22-0.09,0.33c0.05,0,0.09,0.01,0.14,0.01c-0.04,0.22,0.3,0.32,0.34,0.09
				c0.06-0.33-0.15-0.48-0.48-0.46c-0.17,0.01-0.25,0.24-0.09,0.33c0.56,0.32,0.69,0.7,0.74,1.32c0.04,0.46,0.04,0.93,0.01,1.4
				c-0.07,0.96-0.32,1.88-0.6,2.79c-0.56,1.8-1.31,3.42-2.39,4.98C35.65,28.41,35.96,28.59,36.09,28.4L36.09,28.4z"/>
		</g>
	</g>
	<g>
		<g>
			<path d="M37.77,17.92c0.98-0.22,1.82-0.01,2.2,0.99c0.29,0.77,0.17,1.59-0.03,2.37c-0.38,1.47-0.82,2.98-1.36,4.4
				c-0.55,1.45-1.45,2.76-2.07,4.19c-0.2,0.46-0.47,1.24,0,1.68c0.07,0.06,0.18,0.07,0.25,0c0.47-0.52,0.81-1.21,1.16-1.81
				c0.51-0.87,1-1.75,1.42-2.67c0.37-0.82,0.44-1.64,0.66-2.5c0.24-0.99,0.78-1.87,1.03-2.85c0.23-0.9,0.17-1.88,0.04-2.79
				c-0.08-0.6-0.32-1.09-0.81-1.45c-0.6-0.44-3.45-1.02-3.29,0.31c0.01,0.09,0.05,0.14,0.13,0.17c0.56,0.22,1.12-0.06,1.69,0.1
				c0.76,0.21,1.3,0.75,1.31,1.54c0.02,1.39-0.51,2.89-0.98,4.18c-0.08,0.21,0.26,0.31,0.34,0.09c0.42-1.16,0.77-2.36,0.94-3.58
				c0.09-0.68,0.14-1.47-0.42-1.97c-0.6-0.53-1.23-0.69-2-0.64c-0.2,0.03-0.39,0.03-0.59,0c0.15-0.22,0.35-0.32,0.6-0.31
				c0.36-0.09,0.83-0.06,1.19,0.01c0.63,0.13,1.18,0.48,1.42,1.08c0.22,0.54,0.22,1.29,0.22,1.87c0.01,0.7-0.12,1.33-0.37,1.98
				c-0.4,1.06-0.78,2.02-0.98,3.14c-0.2,1.14-0.77,2.15-1.32,3.15c-0.48,0.88-0.96,1.94-1.64,2.69c0.08,0,0.17,0,0.25,0
				c-0.45-0.42,0.11-1.37,0.28-1.73c0.36-0.77,0.73-1.53,1.15-2.27c0.8-1.42,1.2-2.98,1.67-4.54c0.39-1.26,0.93-2.68,0.43-3.99
				c-0.46-1.21-1.46-1.46-2.62-1.19C37.45,17.63,37.55,17.97,37.77,17.92L37.77,17.92z"/>
		</g>
	</g>
	<g>
		<g>
			<path d="M17.93,40.15c-0.13-0.17-0.21-0.36-0.25-0.56c-0.04-0.18,0.04-0.44-0.11-0.58c-0.12-0.12-0.36-0.09-0.41,0.09
				c-0.05,0.2,0.17,0.36,0.32,0.44c0.05,0.03,0.1,0.05,0.15,0.07c0.03,0.01,0.1,0.02,0.13,0.04c-0.03-0.03-0.03,0.03-0.05,0.07
				c-0.02,0.04-0.03,0.08-0.04,0.13c-0.04,0.18,0.01,0.38,0.12,0.52c0.05,0.07,0.12,0.12,0.19,0.16c0.03,0.01,0.09,0.02,0.11,0.04
				c0.02,0.03,0.01,0.1,0.01,0.15c0.01,0.19,0.08,0.37,0.2,0.52c0.29,0.37,0.78,0.48,1.09,0.83c0.15,0.17,0.4-0.08,0.25-0.25
				c-0.3-0.33-0.78-0.44-1.06-0.8c-0.06-0.07-0.1-0.15-0.12-0.24c-0.02-0.09,0.01-0.19-0.02-0.29c-0.03-0.12-0.12-0.19-0.23-0.24
				c-0.08-0.03-0.15-0.07-0.18-0.15c-0.08-0.18,0.1-0.35,0.06-0.54c-0.04-0.24-0.28-0.23-0.45-0.33c-0.05-0.03-0.1-0.09-0.14-0.11
				c-0.21-0.08-0.19,0.19-0.19,0.28c0,0.11,0.02,0.22,0.04,0.32c0.05,0.23,0.15,0.44,0.28,0.62C17.76,40.51,18.06,40.33,17.93,40.15
				L17.93,40.15z"/>
		</g>
	</g>
	<g>
		<g>
			<path d="M17.56,40.12c0.08-0.14,0.16-0.28,0.24-0.42c-0.06-0.04-0.11-0.09-0.17-0.13c0.18,0.45,0.37,0.91,0.55,1.36
				c0.14,0.33,0.24,0.73,0.53,0.96c0.29,0.23,0.63,0.42,0.93,0.64c0.26,0.19,0.5,0.32,0.83,0.31c-0.06-0.07-0.11-0.15-0.17-0.22
				c-0.03,0.19,0,0.33,0.16,0.46c0.07,0.06,0.15,0.08,0.23,0.11c0.19,0.08,0.32,0.18,0.49,0.29c0.28,0.17,0.54,0.14,0.86,0.15
				c0.39,0.01,0.7,0.15,1.06,0.29c0.69,0.26,1.43,0.15,2.14,0.36c0.3,0.09,0.52,0.09,0.83,0.1c0.58,0.02,0.19,0.19,0.51,0.36
				c0.2,0.11,0.38-0.2,0.18-0.31c0.01,0-0.07-0.29-0.12-0.33c-0.14-0.14-0.32-0.12-0.5-0.1c-0.63,0.08-1.23-0.23-1.87-0.25
				c-0.34-0.01-0.67-0.03-1-0.15c-0.29-0.1-0.56-0.24-0.87-0.3c-0.36-0.07-0.7,0.05-1.04-0.13c-0.06-0.03-0.72-0.44-0.71-0.46
				c0.02-0.11-0.05-0.23-0.17-0.22c-0.38,0-0.62-0.25-0.9-0.47c-0.25-0.19-0.59-0.31-0.78-0.57c-0.2-0.27-0.31-0.71-0.43-1.03
				c-0.13-0.32-0.26-0.64-0.39-0.96c-0.03-0.08-0.09-0.13-0.17-0.13c-0.55-0.02-0.84,0.5-0.55,0.96
				C17.38,40.49,17.69,40.31,17.56,40.12L17.56,40.12z"/>
		</g>
	</g>
	<g>
		<g>
			<path d="M18.8,38.46c-0.58-0.36-0.96,0.15-0.94,0.72c0.04,1.14,1.01,2.28,1.85,2.96c2.39,1.93,6.1,2.36,9.07,2.28
				c2.89-0.08,6.38-0.64,8.57-2.7c0.68-0.64,1.93-1.8,1.41-2.87c-0.27-0.55-0.91-0.75-1.32-0.23c-0.11,0.14-0.01,0.34,0.17,0.3
				c-0.04,0.01,0.43-0.19,0.3-0.2c0.38,0.03,0.31,0.77,0.25,1.01c-0.24,1.06-0.93,1.79-1.83,2.35c-0.27,0.17-0.55,0.34-0.84,0.47
				c-0.36,0.16-0.82,0.16-1.15,0.34c-0.58,0.3-0.96,0.84-1.71,0.86c-0.23,0.01-0.23,0.36,0,0.35c1.02-0.03,1.63-0.61,2.53-1.01
				c0.95-0.41,1.98-0.95,2.63-1.78c0.5-0.63,1.13-1.98,0.73-2.79c-0.08-0.16-0.16-0.28-0.32-0.33c-0.45-0.13-0.33,0.31-0.69,0.39
				c0.06,0.1,0.11,0.2,0.17,0.3c0.81,0.38,0.97,0.84,0.49,1.38c-0.18,0.26-0.38,0.5-0.6,0.73c-0.37,0.4-0.78,0.79-1.22,1.11
				c-0.75,0.54-1.62,0.86-2.49,1.13c-1.88,0.59-3.85,0.87-5.82,0.85c-1.94-0.02-3.92-0.31-5.75-0.96c-0.94-0.33-1.86-0.78-2.61-1.46
				c-0.38-0.35-0.73-0.75-0.99-1.19c-0.15-0.26-0.28-0.54-0.37-0.83c-0.17-0.33-0.08-0.62,0.29-0.87
				C18.82,38.89,19,38.58,18.8,38.46L18.8,38.46z"/>
		</g>
	</g>
	<g>
		<g>
			<path d="M20.01,27.78c-0.02,2.06-0.03,4.13-0.33,6.18c-0.24,1.69-0.94,3.44-0.71,5.16c0.46,3.41,4.6,3.48,7.3,3.84
				c3.32,0.45,6.91,0.38,9.88-1.37c1.08-0.64,2.04-1.38,2-2.72c-0.06-1.89-0.45-3.83-0.72-5.69c-0.33-2.3-0.72-4.59-1.15-6.87
				c-0.44-2.33-1.36-4.91-1.08-7.29c-0.1,0.04-0.2,0.08-0.3,0.13c0.12,0.1-0.29,0.85-0.33,1.05c-0.08,0.38,0.06,0.88,0.1,1.25
				c0.12,1.21,0.25,2.42,0.38,3.63c0.24,2.13,0.53,4.26,0.91,6.36c0.19,1.04,0.4,2.09,0.65,3.12c0.3,1.24,0.82,2.53,0.89,3.82
				c0.09,1.66-0.75,2.51-2.09,3.24c-1.19,0.65-2.44,1.23-3.8,1.36c-1.25,0.12-2.49-0.14-3.74-0.11c-1.2,0.03-2.27,0.2-3.46-0.13
				c-2.03-0.57-4.76-1.63-5.38-3.89c-0.36-1.3,0.43-2.08,0.83-3.21c0.24-0.69,0.14-1.36,0.05-2.06c-0.21-1.52-0.18-2.78,0.11-4.29
				c0.16-0.86,0.25-1.61-0.07-2.44c-0.08-0.21-0.41-0.13-0.34,0.09c0.13,0.4,0.26,0.81,0.39,1.21c0.03,0.1,0.16,0.17,0.26,0.11
				c0.07-0.05,0.14-0.09,0.22-0.14c0.19-0.13,0.01-0.43-0.18-0.31c-0.03,0.02-0.35-0.98-0.34-0.96c-0.11,0.03-0.23,0.06-0.34,0.09
				c0.45,1.19-0.01,2.29-0.18,3.47c-0.14,0.94-0.06,1.86,0.06,2.79c0.07,0.54,0.26,1.11,0.18,1.65c-0.1,0.68-0.43,1.2-0.72,1.79
				c-0.31,0.62-0.45,1.23-0.34,1.93c0.44,2.82,4.24,4.44,6.74,4.73c1.07,0.13,2.15-0.1,3.22-0.06c1.15,0.04,2.3,0.23,3.45,0.05
				c1.67-0.25,3.44-1.12,4.82-2.08c1.14-0.8,1.14-2.48,0.9-3.72c-0.41-2.06-1.05-4.06-1.43-6.14c-0.47-2.6-0.79-5.23-1.07-7.86
				c-0.06-0.6-0.13-1.21-0.19-1.82c-0.08-0.79-0.05-1.19,0.16-1.97c0.09-0.34,0.3-0.52-0.05-0.81c-0.13-0.1-0.28-0.03-0.3,0.13
				c-0.24,2.01,0.45,4.06,0.83,6.02c0.43,2.2,0.82,4.42,1.17,6.64c0.35,2.26,0.78,4.57,0.92,6.86c0.09,1.47-0.74,2.17-1.96,2.86
				c-0.88,0.5-1.85,0.85-2.83,1.09c-2.04,0.49-4.17,0.45-6.25,0.2c-1.2-0.15-2.4-0.36-3.59-0.59c-1.08-0.21-2.32-0.36-3.09-1.23
				c-1.62-1.84-0.32-4.74-0.02-6.82c0.3-2.07,0.31-4.16,0.33-6.25C20.36,27.56,20.01,27.56,20.01,27.78L20.01,27.78z"/>
		</g>
	</g>
	<g>
		<g>
			<path d="M35.46,16.45c-0.28-0.08-0.51-0.25-0.67-0.5c-0.09,0.07-0.19,0.14-0.28,0.21c0.26,0.29,0.52,0.57,0.85,0.78
				c0.16,0.1,0.34,0.17,0.53,0.21c0.1,0.02,0.16,0.07,0.24,0.13c0.1,0.08,0.19,0.15,0.29,0.23c0.06-0.1,0.11-0.2,0.17-0.3
				c-0.12-0.02-0.24-0.02-0.35,0.01c0.06,0.1,0.11,0.2,0.17,0.3c0.1-0.09,0.15-0.21,0.16-0.34c0.01-0.23-0.35-0.23-0.35,0
				c0,0.04-0.02,0.07-0.05,0.09c-0.14,0.12,0.01,0.35,0.17,0.3c0.06-0.02,0.11-0.03,0.16-0.01c0.08,0.02,0.16-0.01,0.2-0.08
				c0.04-0.06,0.03-0.17-0.03-0.21c-0.09-0.07-0.18-0.15-0.28-0.22c-0.09-0.07-0.17-0.14-0.27-0.19c-0.09-0.04-0.19-0.05-0.28-0.09
				c-0.09-0.03-0.17-0.06-0.24-0.11c-0.33-0.19-0.58-0.47-0.83-0.75c-0.13-0.15-0.38,0.04-0.28,0.21c0.2,0.32,0.51,0.56,0.88,0.66
				C35.58,16.86,35.67,16.51,35.46,16.45L35.46,16.45z"/>
		</g>
	</g>
	<g>
		<g>
			<path d="M36.27,17.27c0.27,0.02,0.53-0.04,0.77-0.16c0.1-0.05,0.2-0.12,0.31-0.16c0.04-0.01,0.09-0.03,0.14-0.02
				c0.01,0,0.05,0.03,0.07,0.03c0.02,0.01,0.03,0.01,0.05,0.02c-0.01,0-0.01-0.01-0.02-0.01c-0.02-0.03-0.03-0.05-0.05-0.08
				c0,0,0,0.01,0,0.01c0-0.03,0-0.06,0-0.09c0,0.01,0,0.01-0.01,0.02c0.02-0.03,0.03-0.05,0.05-0.08c-0.12,0.13-0.29,0.16-0.46,0.19
				c-0.2,0.04-0.41,0.08-0.61,0.12c-0.09,0.02-0.15,0.13-0.12,0.22c0.03,0.1,0.12,0.14,0.22,0.12c0.15-0.03,0.3-0.06,0.45-0.08
				c0.13-0.03,0.27-0.04,0.4-0.09c0.13-0.04,0.25-0.11,0.35-0.2c0.06-0.06,0.1-0.14,0.08-0.22c-0.02-0.09-0.09-0.13-0.16-0.16
				c-0.07-0.03-0.14-0.06-0.21-0.07c-0.06-0.01-0.12,0-0.19,0.01c-0.13,0.03-0.24,0.09-0.35,0.16c-0.22,0.12-0.45,0.18-0.7,0.17
				c-0.1-0.01-0.18,0.09-0.18,0.18C36.09,17.19,36.17,17.26,36.27,17.27L36.27,17.27z"/>
		</g>
	</g>
	<g>
		<g>
			<path d="M34.97,16.33c0.22-0.08,0.45-0.2,0.67-0.25c0.19-0.04,0.38,0.16,0.51,0.28c0.14,0.12,0.28,0.25,0.44,0.33
				c0.17,0.08,0.36,0.1,0.54,0.17c0.18,0.07,0.27,0.24,0.35,0.41c0.06,0.14,0.18,0.37,0.11,0.53c-0.08,0.16-0.37,0.21-0.52,0.26
				c-0.23,0.07-0.48,0.12-0.72,0.15c-0.1,0.01-0.18,0.07-0.18,0.18c0,0.09,0.08,0.19,0.18,0.18c0.42-0.05,0.86-0.14,1.25-0.32
				c0.41-0.19,0.41-0.59,0.27-0.97c-0.14-0.36-0.32-0.66-0.72-0.78c-0.18-0.05-0.36-0.08-0.52-0.19c-0.15-0.1-0.27-0.23-0.41-0.34
				c-0.17-0.13-0.37-0.27-0.6-0.23c-0.13,0.02-0.25,0.08-0.37,0.13c-0.13,0.05-0.25,0.09-0.38,0.14
				C34.66,16.07,34.76,16.41,34.97,16.33L34.97,16.33z"/>
		</g>
	</g>
	<g>
		<g>
			<path d="M35.17,18.93c0.27-0.13,0.55-0.26,0.85-0.28c0.07,0,0.14,0,0.21,0c0.09,0.01,0.16,0.03,0.24-0.02
				c0.17-0.1,0.1-0.33,0.08-0.48c-0.02-0.16-0.04-0.33-0.06-0.49c-0.01-0.08-0.02-0.15-0.03-0.23c-0.01-0.08-0.01-0.17-0.04-0.25
				c-0.07-0.17-0.27-0.19-0.43-0.2c-0.16-0.01-0.32,0.01-0.46,0.05c-0.08,0.02-0.15,0.06-0.23,0.08c-0.08,0.02-0.15,0.01-0.23,0.02
				c-0.19,0.02-0.35,0.13-0.37,0.33c-0.01,0.1,0.09,0.18,0.18,0.18c0.1,0,0.17-0.08,0.18-0.18c0.01-0.07-0.01,0.05-0.01,0.04
				c0,0,0.03-0.01,0.03-0.01c0.04-0.01,0.09,0,0.13-0.01c0.1,0,0.2-0.03,0.3-0.07c0.18-0.07,0.37-0.11,0.57-0.08
				c0.02,0,0.03,0.01,0.05,0.01c0.09,0.02-0.01-0.04-0.01-0.04c0,0,0.02,0.13,0.02,0.13c0.01,0.11,0.03,0.22,0.04,0.32
				c0.01,0.11,0.03,0.23,0.04,0.34c0.01,0.05,0.01,0.1,0.02,0.15c0,0.03,0.01,0.06,0.01,0.09c0,0.01,0,0.02,0,0.03
				c0,0.05,0.02,0.03,0.05-0.05c0.03-0.01,0.06-0.02,0.09-0.02c-0.03,0-0.09-0.01-0.15-0.02c-0.06-0.01-0.11-0.01-0.17,0
				c-0.13,0.01-0.25,0.03-0.37,0.06c-0.24,0.06-0.46,0.17-0.69,0.27c-0.09,0.04-0.11,0.17-0.06,0.24
				C34.98,18.95,35.09,18.97,35.17,18.93L35.17,18.93z"/>
		</g>
	</g>
	<g>
		<g>
			<path d="M20.96,19.86c1.48,0.28,2.79,1.03,4.3,1.14c0.86,0.06,1.72,0.05,2.58,0.07c0.8,0.02,1.65,0.1,2.45,0.02
				c0.66-0.07,1.29-0.36,1.94-0.51c0.71-0.16,1.41-0.31,2.07-0.61c0.9-0.4,2-1.21,1.41-2.31c-0.11-0.2-0.41-0.02-0.31,0.18
				c0.81,1.52-2.26,2.17-3.15,2.37c-0.54,0.12-1.06,0.32-1.6,0.45c-0.67,0.16-1.4,0.08-2.09,0.07c-1.29-0.02-2.63,0.04-3.91-0.15
				c-1.24-0.19-2.36-0.82-3.61-1.06C20.83,19.47,20.74,19.81,20.96,19.86L20.96,19.86z"/>
		</g>
	</g>
	<g>
		<g>
			<path d="M18.43,21.76c-0.04,0.75-0.01,1.5,0.54,2.07c0.52,0.53,1.27,0.75,1.98,0.88c0.64,0.11,1.34,0.1,1.77-0.45
				c0.25-0.32,0.43-0.73,0.6-1.1c0.18-0.39,0.34-0.79,0.43-1.22c0.04-0.18-0.16-0.29-0.3-0.17c-0.44,0.37-0.66,0.89-0.85,1.42
				c-0.24,0.68-0.43,1.38-0.55,2.09c-0.11,0.66-0.16,1.34-0.23,2.01c-0.03,0.32-0.05,0.66-0.14,0.98c-0.11,0.35-0.33,0.67-0.5,0.98
				c0.1,0,0.2,0,0.31,0c-0.07-0.13,0.18-0.37,0.24-0.46c0.08-0.12,0.14-0.24,0.2-0.38c0.14-0.31,0.21-0.65,0.28-0.98
				c0.14-0.73,0.39-1.43,0.54-2.15c0.07-0.36,0.07-0.72,0.06-1.09c-0.01-0.41,0.04-0.79,0.09-1.2c0.05-0.4-0.09-1.14-0.65-0.97
				c-0.22,0.07-0.12,0.41,0.09,0.34c0.37-0.11,0.15,0.92,0.14,1.04c-0.04,0.33-0.03,0.66-0.02,0.99c0.01,0.74-0.24,1.36-0.41,2.06
				c-0.14,0.57-0.18,1.17-0.4,1.73c-0.15,0.38-0.69,0.81-0.46,1.23c0.06,0.12,0.24,0.11,0.31,0c0.3-0.53,0.55-0.97,0.63-1.58
				c0.08-0.65,0.12-1.3,0.2-1.95c0.09-0.7,0.24-1.39,0.44-2.06c0.2-0.65,0.41-1.36,0.94-1.81c-0.1-0.06-0.2-0.11-0.3-0.17
				c-0.14,0.66-0.44,1.28-0.76,1.87c-0.39,0.71-0.98,0.78-1.71,0.63c-0.6-0.12-1.22-0.29-1.67-0.73c-0.52-0.5-0.52-1.18-0.48-1.86
				C18.8,21.53,18.44,21.53,18.43,21.76L18.43,21.76z"/>
		</g>
	</g>
	<g>
		<g>
			<path d="M16.86,21.45c0.47,0.86,0.67,1.85,1.04,2.75c0.37,0.92,0.81,1.81,1.26,2.69c0.44,0.87,0.82,1.82,1.35,2.63
				c0.29,0.44,0.96,0.73,1.29,0.17c0.12-0.2-0.19-0.38-0.31-0.18c-0.35,0.6-0.87-0.51-0.99-0.74c-0.17-0.33-0.34-0.66-0.51-1
				c-0.37-0.73-0.75-1.46-1.1-2.2c-0.36-0.75-0.69-1.5-0.97-2.28c-0.24-0.68-0.42-1.39-0.77-2.03
				C17.06,21.07,16.75,21.25,16.86,21.45L16.86,21.45z"/>
		</g>
	</g>
	<g>
		<g>
			<path d="M18.5,20.97c0.28-0.28,0.69-0.35,1.05-0.47c0.43-0.14,0.8-0.4,1.23-0.55c0.13-0.05,0.19-0.25,0.04-0.32
				c-0.01,0-0.02-0.01-0.03-0.01c0.03,0.04,0.05,0.07,0.08,0.11c-0.1,0.1-0.11,0.14-0.03,0.11c0.03,0,0.07,0,0.1,0
				c0.05,0,0.1,0.01,0.15,0.02c0.12,0.03,0.22,0.09,0.31,0.16c0.17,0.15,0.42-0.1,0.25-0.25c-0.22-0.19-0.49-0.3-0.79-0.29
				c-0.12,0.01-0.25,0.03-0.32,0.14c-0.07,0.11-0.02,0.26,0.09,0.32c0.01-0.11,0.03-0.22,0.04-0.32c-0.46,0.16-0.85,0.44-1.32,0.58
				c-0.4,0.12-0.81,0.22-1.12,0.53C18.09,20.88,18.34,21.13,18.5,20.97L18.5,20.97z"/>
		</g>
	</g>
	<g>
		<g>
			<path d="M20,19.25c0.35,0.01,0.48,0.42,0.53,0.71c0.03,0.19,0.04,0.38,0.06,0.57c0.01,0.09,0.03,0.19,0.06,0.28
				c0.01,0.05,0.03,0.09,0.05,0.14c0.01,0.02,0.02,0.05,0.03,0.07c0.01,0.01,0.01,0.02,0.02,0.03c0.01,0.03,0.02,0.02,0.02-0.04
				c0.03-0.02,0.05-0.03,0.08-0.05c0,0,0,0,0,0c0.03,0.01,0.06,0.02,0.09,0.02c-0.01,0-0.01-0.01-0.02-0.01
				c-0.2-0.1-0.38,0.21-0.18,0.31c0.13,0.06,0.28,0.02,0.35-0.12c0.07-0.15-0.03-0.27-0.08-0.4c-0.09-0.25-0.09-0.52-0.12-0.78
				c-0.03-0.26-0.09-0.52-0.25-0.74c-0.15-0.2-0.37-0.34-0.63-0.35C19.78,18.88,19.78,19.24,20,19.25L20,19.25z"/>
		</g>
	</g>
	<g>
		<g>
			<path d="M20.01,18.89c-0.73,0.27-1.46,0.53-2.18,0.81c-0.54,0.2-1.18,0.44-1.55,0.91c-0.36,0.46,0.08,0.73,0.51,0.79
				c0.76,0.11,1.53,0.19,2.3,0.25c0.8,0.07,1.6,0.11,2.4,0.13c0.35,0.01,0.71,0.02,1.07,0c0.29-0.01,0.69,0,0.96-0.13
				c0.43-0.21,0.19-0.68-0.21-0.72c-0.37-0.04-0.77,0.02-1.15,0.02c-0.4,0-0.81-0.01-1.21-0.03c-0.91-0.04-1.81-0.12-2.71-0.21
				c-0.34-0.03-0.2-0.04,0.02-0.14c0.21-0.1,0.42-0.2,0.62-0.29c0.21-0.1,0.42-0.2,0.62-0.29c0.21-0.1,0.57-0.34,0.8-0.29
				c0.22,0.05,0.32-0.29,0.09-0.34c-0.24-0.05-0.42,0.02-0.63,0.12c-0.31,0.14-0.62,0.29-0.93,0.44c-0.31,0.15-0.63,0.28-0.93,0.44
				c-0.15,0.08-0.33,0.19-0.33,0.39c0,0.44,0.85,0.34,1.11,0.37c0.74,0.07,1.47,0.13,2.21,0.16c0.71,0.03,1.43,0.04,2.14,0.02
				c0.05,0,0.21-0.03,0.24-0.01c0.08,0.05-0.02,0.07-0.03,0.08c-0.09,0.07-0.4,0.05-0.53,0.06c-0.35,0.02-0.7,0.02-1.05,0.01
				c-1.44-0.03-2.88-0.14-4.31-0.31c-0.15-0.02-0.55,0-0.67-0.09c-0.07-0.05-0.04-0.23-0.01-0.28c0.04-0.09,0.19-0.16,0.28-0.22
				c0.29-0.2,0.62-0.33,0.95-0.46c0.74-0.28,1.49-0.55,2.24-0.83C20.32,19.15,20.22,18.81,20.01,18.89L20.01,18.89z"/>
		</g>
	</g>
	<g>
		<g>
			<path d="M21.28,16.46c-0.41,0.52-0.83,1.28-0.72,1.97c0.11,0.67,0.76,0.94,1.33,1.16c2.13,0.83,4.35,1.01,6.62,0.85
				c2.09-0.15,4.37-0.31,6.29-1.23c1.41-0.68,1.81-2.19,0.8-3.43c-0.14-0.18-0.39,0.08-0.25,0.25c0.58,0.71,0.71,1.74-0.01,2.41
				c-0.57,0.53-1.43,0.76-2.16,0.96c-1.52,0.42-3.1,0.57-4.67,0.68c-1.58,0.11-3.13,0.09-4.68-0.27c-0.75-0.17-1.55-0.39-2.24-0.73
				c-1.04-0.53-0.64-1.64-0.06-2.37C21.67,16.53,21.42,16.28,21.28,16.46L21.28,16.46z"/>
		</g>
	</g>
	<g>
		<g>
			<path d="M22.99,15.35c-1.14,0.38-3.14,2.23-1.45,3.23c0.91,0.54,2.13,0.66,3.15,0.85c1.15,0.21,2.26,0.31,3.42,0.2
				c1.13-0.11,2.29-0.19,3.42-0.34c1.13-0.16,2.11-0.62,3.08-1.19c0.59-0.35,1.29-0.78,1.2-1.56c-0.09-0.82-0.83-1.25-1.53-1.51
				c-0.21-0.08-0.31,0.26-0.09,0.34c0.35,0.13,0.74,0.29,0.99,0.59c0.53,0.64,0.14,1.28-0.45,1.66c-0.57,0.37-1.18,0.7-1.81,0.95
				c-1.47,0.59-3.25,0.57-4.81,0.72c-1.56,0.15-3.08-0.11-4.61-0.44c-0.53-0.11-1.95-0.31-2.17-0.91c-0.13-0.36,0.09-0.94,0.31-1.23
				c0.1-0.14,0.21-0.26,0.34-0.38c0.32-0.29,0.69-0.49,1.1-0.63C23.3,15.62,23.21,15.28,22.99,15.35L22.99,15.35z"/>
		</g>
	</g>
	<g>
		<g>
			<path d="M24.28,14.75c-0.87,0.24-3.96,2.02-2.56,3.21c0.72,0.6,2.02,0.73,2.91,0.83c1.3,0.15,2.63,0.2,3.94,0.17
				c1.18-0.03,2.31-0.22,3.45-0.52c0.93-0.25,2.1-0.48,2.86-1.13c0.6-0.51,0.53-1.24,0.02-1.8c-0.66-0.71-1.66-0.92-2.57-1.11
				c-0.22-0.05-0.32,0.3-0.09,0.34c0.71,0.15,1.46,0.29,2.07,0.72c0.6,0.42,0.89,1.09,0.26,1.64c-0.33,0.29-0.85,0.45-1.26,0.59
				c-1.57,0.54-3.2,0.9-4.86,0.92c-1.63,0.02-3.39,0-4.98-0.38c-0.37-0.09-0.75-0.19-1.11-0.33c-0.85-0.35-0.46-1.1-0.03-1.57
				c0.55-0.61,1.26-1.02,2.04-1.24C24.59,15.03,24.5,14.68,24.28,14.75L24.28,14.75z"/>
		</g>
	</g>
	<g>
		<g>
			<path d="M27.33,14.33c0.6-0.52,1.46-0.43,2.19-0.34c0-0.12,0-0.24,0-0.35c-0.07-0.01-0.13,0.01-0.19,0.04
				c-0.01,0.01-0.06,0.03-0.07,0.04c-0.01,0.03-0.03-0.05,0.04,0.02c0.02,0.03,0.03,0.05,0.05,0.08c0,0,0,0,0,0.01
				c0.01-0.23-0.35-0.23-0.35,0c-0.01,0.14,0.11,0.24,0.24,0.25c0.05,0,0.1,0,0.14-0.02c0.04-0.02,0.11-0.08,0.15-0.07
				c0.1,0.01,0.18-0.09,0.18-0.18c0-0.11-0.08-0.17-0.18-0.18c-0.84-0.1-1.76-0.14-2.44,0.45C26.91,14.23,27.16,14.48,27.33,14.33
				L27.33,14.33z"/>
		</g>
	</g>
	<g>
		<g>
			<path d="M27.94,13.33c0.15-0.04,0.33-0.08,0.46,0.02c0.04,0.03,0.09,0.09,0.12,0.15c0.04,0.07,0.07,0.15,0.1,0.23
				c0.05,0.16,0.05,0.31-0.02,0.44c-0.04,0.08-0.08,0.13-0.15,0.18c-0.1,0.09-0.1,0.27,0.04,0.34c0.12,0.05,0.27-0.01,0.27-0.15
				c0-0.14-0.03-0.28-0.08-0.41c-0.04-0.09-0.12-0.15-0.22-0.12c-0.08,0.02-0.16,0.13-0.12,0.22c0.04,0.1,0.07,0.21,0.07,0.32
				c0.09-0.05,0.18-0.1,0.27-0.15c0,0-0.01,0-0.01-0.01c0.02,0.02,0.04,0.04,0.06,0.06c0,0.01,0,0.01,0.01,0.02
				c0,0.03,0,0.06,0,0.09c0,0,0-0.01,0-0.01c-0.02,0.03-0.03,0.05-0.05,0.08c0.15-0.13,0.27-0.32,0.31-0.52
				c0.04-0.23-0.01-0.45-0.1-0.66c-0.08-0.17-0.19-0.35-0.37-0.43c-0.22-0.11-0.45-0.07-0.68-0.02c-0.09,0.02-0.15,0.13-0.12,0.22
				C27.75,13.3,27.85,13.35,27.94,13.33L27.94,13.33z"/>
		</g>
	</g>
	<g>
		<g>
			<path d="M30.69,13.61c0.13-0.42-0.07-0.85-0.4-1.11c-0.39-0.3-0.91-0.32-1.38-0.24c-0.54,0.08-1.07,0.27-1.55,0.53
				c-0.46,0.25-0.79,0.58-0.97,1.07c-0.09,0.24-0.16,0.48-0.23,0.73c-0.07,0.24-0.19,0.51-0.16,0.77c0.04,0.4,0.53,0.63,0.85,0.36
				c0.34-0.29,0.16-0.79,0.25-1.17c0.13-0.53,0.57-0.91,1.04-1.14c0.49-0.24,1.24-0.53,1.62,0.03c0.18,0.26,0.2,0.59,0.18,0.89
				c-0.01,0.13-0.04,0.27-0.01,0.4c0.01,0.04,0.02,0.09,0.04,0.13c0.03,0.05,0.11,0.11,0.12,0.16c0.02-0.06,0.03-0.11,0.05-0.17
				c-0.01,0.01-0.01,0.02-0.02,0.03c0.08,0,0.17,0,0.25,0c-0.01-0.01-0.01-0.02-0.02-0.03c0-0.23-0.36-0.23-0.35,0
				c0,0.12,0.03,0.2,0.12,0.28c0.07,0.06,0.19,0.07,0.25,0c0.12-0.14,0.06-0.24-0.03-0.37c-0.14-0.19-0.03-0.51-0.04-0.73
				c-0.02-0.4-0.17-0.8-0.5-1.05c-0.35-0.27-0.78-0.24-1.19-0.12c-0.45,0.13-0.89,0.33-1.24,0.64c-0.32,0.27-0.57,0.65-0.64,1.07
				c-0.03,0.18-0.02,0.36-0.02,0.54c0,0.09,0.01,0.21-0.04,0.29c-0.06,0.11-0.21,0.13-0.29,0.03c-0.13-0.17,0.06-0.55,0.11-0.72
				c0.07-0.24,0.14-0.49,0.23-0.73c0.19-0.49,0.57-0.75,1.02-0.97c0.51-0.24,1.12-0.44,1.69-0.41c0.48,0.02,1.07,0.38,0.9,0.94
				C30.28,13.73,30.63,13.82,30.69,13.61L30.69,13.61z"/>
		</g>
	</g>
	<g>
		<g>
			<path d="M25.47,15.1c0.27-0.06,0.45-0.26,0.55-0.51c0.15-0.36,0.23-0.75,0.4-1.1c0.39-0.82,1.18-1.19,2.08-1.2
				c0.42,0,0.83,0.07,1.23,0.18c0.39,0.11,0.78,0.26,0.9,0.68c0.16,0.52,0.04,1.46,0.64,1.71c-0.01-0.11-0.03-0.22-0.04-0.32
				c0,0-0.01,0.01-0.01,0.01c-0.15-0.17-0.4,0.08-0.25,0.25c0.12,0.14,0.28,0.11,0.44,0.04c0.16-0.07,0.08-0.27-0.04-0.32
				c-0.16-0.07-0.2-0.42-0.23-0.57c-0.04-0.2-0.07-0.4-0.1-0.6c-0.06-0.34-0.17-0.65-0.44-0.87c-0.54-0.43-1.43-0.54-2.09-0.54
				c-0.75,0-1.58,0.25-2.07,0.85c-0.21,0.26-0.35,0.57-0.47,0.88c-0.13,0.32-0.19,1.01-0.58,1.09C25.15,14.8,25.25,15.15,25.47,15.1
				L25.47,15.1z"/>
		</g>
	</g>
	<g>
		<g>
			<path d="M24.77,14.34c-0.45,0.17-0.84,0.48-1.02,0.93c-0.24,0.61,0.19,0.89,0.71,1.11c1.28,0.54,2.75,0.7,4.13,0.74
				c0.7,0.02,1.4-0.01,2.1-0.13c0.62-0.11,1.36-0.27,1.88-0.66c0.36-0.27,0.61-0.74,0.46-1.2c-0.18-0.53-0.74-0.73-1.23-0.84
				c-0.22-0.05-0.32,0.29-0.09,0.34c0.5,0.12,1.26,0.42,0.94,1.08c-0.22,0.45-0.8,0.62-1.24,0.75c-0.93,0.27-1.91,0.34-2.88,0.3
				c-0.94-0.04-1.9-0.14-2.81-0.36c-0.43-0.1-0.99-0.22-1.35-0.47c-0.65-0.44,0.04-1.07,0.53-1.26
				C25.08,14.6,24.98,14.26,24.77,14.34L24.77,14.34z"/>
		</g>
	</g>
	<g>
		<g>
			<path d="M25.68,14.06c-0.48,0.05-1.01,0.29-1.21,0.76c-0.21,0.46,0.16,0.77,0.56,0.93c1.14,0.47,2.4,0.67,3.63,0.69
				c0.61,0.01,1.21-0.03,1.81-0.13c0.51-0.08,1.14-0.16,1.54-0.54c0.29-0.27,0.45-0.72,0.21-1.07c-0.24-0.36-0.72-0.54-1.11-0.71
				c-0.21-0.09-0.39,0.22-0.18,0.31c0.27,0.12,0.56,0.23,0.8,0.41c0.47,0.35,0.12,0.83-0.32,1.01c-0.76,0.31-1.69,0.36-2.5,0.36
				c-0.84,0.01-1.68-0.08-2.5-0.28c-0.4-0.09-0.8-0.21-1.18-0.36c-0.09-0.04-0.18-0.07-0.26-0.12c-0.16-0.05-0.19-0.16-0.1-0.31
				c-0.02-0.11,0-0.2,0.07-0.26c0.15-0.21,0.5-0.32,0.74-0.34C25.9,14.4,25.9,14.04,25.68,14.06L25.68,14.06z"/>
		</g>
	</g>
	<g>
		<g>
			<path d="M25.34,14.25c-0.38,0.1-0.73,0.34-0.91,0.7c-0.19,0.38-0.07,0.73,0.12,1.07c0.2,0.37,0.5,0.69,0.92,0.8
				c0.51,0.14,1.05-0.02,1.55-0.13c0.61-0.13,1.21-0.25,1.83-0.26c0.45,0,0.91,0.02,1.36-0.01c0.87-0.05,1.75-0.31,2.16-1.15
				c0.1-0.2-0.21-0.38-0.31-0.18c-0.69,1.42-2.72,0.87-3.98,1.03c-0.37,0.05-0.73,0.12-1.1,0.2c-0.43,0.09-0.88,0.24-1.32,0.16
				c-0.46-0.08-0.79-0.46-0.93-0.89c-0.16-0.5,0.23-0.89,0.69-1.02C25.65,14.53,25.56,14.19,25.34,14.25L25.34,14.25z"/>
		</g>
	</g>
</g>
</svg>
