<?xml version="1.0" encoding="utf-8"?>
<!-- Generator: Adobe Illustrator 26.2.1, SVG Export Plug-In . SVG Version: 6.00 Build 0)  -->
<svg version="1.1" id="Layer_1" xmlns="http://www.w3.org/2000/svg" xmlns:xlink="http://www.w3.org/1999/xlink" x="0px" y="0px"
	 viewBox="0 0 226.77 141.73" style="enable-background:new 0 0 226.77 141.73;" xml:space="preserve">
<style type="text/css">
	.st0{fill:#231F20;}
</style>
<g>
	<g>
		<g>
			<g id="XMLID_00000008133858459713188400000003539885037651721904_">
				<g id="XMLID_00000057847232527302291150000007275826152885730213_">
					<g id="XMLID_00000167354025285540916990000005426035372123930241_">
						<g id="XMLID_00000155142713078614238720000000824769114628219779_">
							<g id="XMLID_00000165205292094167257910000014535800165555601545_">
								<g id="XMLID_00000178892119472186324720000000143579190155942063_">
									<g id="XMLID_00000025419300192277143240000004817742141234255272_">
										<g id="XMLID_00000142177331721337041680000007064908554729338805_">
											<g id="XMLID_00000088126024967772928200000009308615318145679271_">
												<g id="XMLID_00000034062868706250535540000015022737023287031207_">
													<g id="XMLID_00000119107879172254182840000009046475612038957220_">
														<g>
															<path class="st0" d="M14.56,59.75c0.95-1.62,2.25-2.89,3.88-3.81c1.63-0.91,3.42-1.37,5.37-1.37
																c2.23,0,4.21,0.55,5.94,1.64s2.99,2.64,3.78,4.65H29.4c-0.54-1.1-1.29-1.93-2.26-2.47
																c-0.96-0.54-2.08-0.81-3.34-0.81c-1.38,0-2.62,0.31-3.7,0.93c-1.08,0.62-1.93,1.51-2.54,2.68
																c-0.61,1.16-0.92,2.52-0.92,4.06c0,1.54,0.31,2.9,0.92,4.06c0.61,1.16,1.46,2.06,2.54,2.69
																c1.08,0.63,2.32,0.95,3.7,0.95c1.26,0,2.38-0.27,3.34-0.81c0.96-0.54,1.71-1.36,2.26-2.47h4.12
																c-0.78,2.01-2.04,3.55-3.78,4.63c-1.73,1.08-3.72,1.62-5.94,1.62c-1.97,0-3.76-0.46-5.39-1.37
																c-1.62-0.91-2.91-2.18-3.87-3.81c-0.95-1.62-1.43-3.46-1.43-5.51S13.6,61.37,14.56,59.75z"/>
															<path class="st0" d="M48.21,71.48h-8.75l-1.5,4.27h-3.58l7.49-20.94h3.97l7.49,20.94h-3.61L48.21,71.48z
																 M47.24,68.68l-3.4-9.72l-3.43,9.72H47.24z"/>
															<path class="st0" d="M66.95,54.85v2.8h-8.88v6.17h6.92v2.8h-6.92v9.15h-3.43V54.85H66.95z"/>
															<path class="st0" d="M71.64,57.61v6.14h7.22v2.8h-7.22v6.41h8.12v2.8H68.21V54.82h11.55v2.8H71.64z M76.94,50.36
																l-6.65,3.28v-2.53l6.65-3.67V50.36z"/>
															<path class="st0" d="M93.27,59.27v3.46h6.77v4.48h-6.77v3.82h7.67v4.72H87.38V54.54h13.57v4.72H93.27z"/>
															<path class="st0" d="M118.03,54.54v4.69h-5.66v16.52h-5.9V59.24h-5.6v-4.69H118.03z"/>
															<path class="st0" d="M129.17,75.75l-4.21-7.82h-0.63v7.82h-5.9V54.54h9.3c1.7,0,3.15,0.3,4.33,0.89
																c1.18,0.59,2.08,1.4,2.68,2.44c0.6,1.03,0.9,2.19,0.9,3.47c0,1.44-0.4,2.71-1.19,3.81
																c-0.79,1.09-1.95,1.87-3.48,2.33l4.78,8.27H129.17z M124.32,63.9h2.92c0.8,0,1.4-0.19,1.81-0.57
																c0.4-0.38,0.6-0.93,0.6-1.65c0-0.68-0.21-1.22-0.62-1.61c-0.41-0.39-1.01-0.59-1.79-0.59h-2.92V63.9z"/>
															<path class="st0" d="M142.28,54.54v12.31c0,1.14,0.27,2.03,0.8,2.65c0.53,0.62,1.34,0.93,2.42,0.93
																c1.08,0,1.9-0.32,2.45-0.95c0.55-0.63,0.83-1.51,0.83-2.63V54.54h5.9v12.31c0,1.95-0.41,3.61-1.23,4.98
																c-0.82,1.37-1.94,2.41-3.35,3.1s-2.98,1.04-4.71,1.04c-1.73,0-3.26-0.35-4.62-1.04s-2.42-1.72-3.19-3.08
																c-0.77-1.36-1.16-3.03-1.16-4.99V54.54H142.28z"/>
															<path class="st0" d="M158.05,74.21c-1.58-1.17-2.44-2.85-2.56-5.04h6.29c0.06,0.74,0.28,1.28,0.66,1.62
																c0.38,0.34,0.87,0.51,1.47,0.51c0.54,0,0.99-0.14,1.34-0.41c0.35-0.27,0.53-0.65,0.53-1.13
																c0-0.62-0.29-1.1-0.87-1.44c-0.58-0.34-1.52-0.72-2.83-1.14c-1.38-0.46-2.5-0.91-3.35-1.34
																c-0.85-0.43-1.59-1.06-2.23-1.9c-0.63-0.83-0.95-1.92-0.95-3.26c0-1.36,0.34-2.53,1.02-3.5
																c0.68-0.97,1.62-1.71,2.83-2.21c1.2-0.5,2.57-0.75,4.09-0.75c2.47,0,4.44,0.58,5.91,1.73
																c1.47,1.15,2.26,2.77,2.36,4.86h-6.41c-0.02-0.64-0.22-1.12-0.59-1.44c-0.37-0.32-0.85-0.48-1.43-0.48
																c-0.44,0-0.8,0.13-1.08,0.39c-0.28,0.26-0.42,0.63-0.42,1.11c0,0.4,0.16,0.75,0.47,1.04
																c0.31,0.29,0.7,0.54,1.16,0.75c0.46,0.21,1.14,0.48,2.05,0.8c1.34,0.46,2.45,0.92,3.32,1.37s1.62,1.08,2.26,1.9
																c0.63,0.81,0.95,1.84,0.95,3.08c0,1.26-0.32,2.4-0.95,3.4c-0.63,1-1.54,1.79-2.74,2.38
																c-1.19,0.58-2.6,0.87-4.23,0.87C161.66,75.97,159.63,75.38,158.05,74.21z"/>
															<path class="st0" d="M173.56,59.52c0.87-1.63,2.11-2.91,3.72-3.82c1.6-0.91,3.45-1.37,5.54-1.37
																c2.65,0,4.87,0.71,6.68,2.12s2.97,3.33,3.49,5.76h-6.35c-0.38-0.8-0.91-1.41-1.58-1.83
																c-0.67-0.42-1.45-0.63-2.33-0.63c-1.36,0-2.45,0.49-3.26,1.46c-0.81,0.97-1.22,2.27-1.22,3.9
																c0,1.65,0.41,2.95,1.22,3.93c0.81,0.97,1.9,1.46,3.26,1.46c0.88,0,1.66-0.21,2.33-0.63c0.67-0.42,1.2-1.03,1.58-1.83
																h6.35c-0.52,2.43-1.69,4.35-3.49,5.76s-4.03,2.12-6.68,2.12c-2.09,0-3.93-0.46-5.54-1.37
																c-1.6-0.91-2.84-2.19-3.72-3.82c-0.87-1.63-1.31-3.5-1.31-5.61C172.25,63.02,172.68,61.16,173.56,59.52z"/>
															<path class="st0" d="M207.39,72.29h-7.52l-1.14,3.46h-6.2l7.73-21.21h6.8l7.7,21.21h-6.23L207.39,72.29z
																 M205.91,67.78l-2.29-6.86l-2.26,6.86H205.91z"/>
														</g>
													</g>
												</g>
											</g>
										</g>
									</g>
								</g>
							</g>
						</g>
					</g>
				</g>
			</g>
		</g>
	</g>
</g>
</svg>
