<?xml version="1.0" encoding="UTF-8"?>
<svg xmlns="http://www.w3.org/2000/svg" xmlns:xlink="http://www.w3.org/1999/xlink" viewBox="0 0 192 192" width="192px" height="192px">
<g id="surface42692479">
<path style=" stroke:none;fill-rule:nonzero;fill:rgb(100%,100%,100%);fill-opacity:1;" d="M 96 16 C 51.910156 16 16 51.910156 16 96 C 16 140.089844 51.910156 176 96 176 C 140.089844 176 176 140.089844 176 96 C 176 51.910156 140.089844 16 96 16 Z M 96 32 C 131.441406 32 160 60.558594 160 96 C 160 128.117188 136.523438 154.503906 105.75 159.1875 L 105.75 115.078125 L 124.375 115.078125 L 127.296875 96.15625 L 105.75 96.15625 L 105.75 85.8125 C 105.75 77.949219 108.3125 70.96875 115.671875 70.96875 L 127.484375 70.96875 L 127.484375 54.453125 C 125.40625 54.171875 121.015625 53.5625 112.71875 53.5625 C 95.390625 53.5625 85.234375 62.714844 85.234375 83.5625 L 85.234375 96.15625 L 67.421875 96.15625 L 67.421875 115.078125 L 85.234375 115.078125 L 85.234375 159.03125 C 54.960938 153.925781 32 127.761719 32 96 C 32 60.558594 60.558594 32 96 32 Z M 96 32 "/>
</g>
</svg>
